<?xml version="1.0" encoding="utf-8" standalone="no"?>
<!DOCTYPE svg PUBLIC "-//W3C//DTD SVG 1.1//EN"
  "http://www.w3.org/Graphics/SVG/1.1/DTD/svg11.dtd">
<!-- Created with matplotlib (http://matplotlib.org/) -->
<svg height="345.6pt" version="1.1" viewBox="0 0 460.8 345.6" width="460.8pt" xmlns="http://www.w3.org/2000/svg" xmlns:xlink="http://www.w3.org/1999/xlink">
 <defs>
  <style type="text/css">
*{stroke-linecap:butt;stroke-linejoin:round;}
  </style>
 </defs>
 <g id="figure_1">
  <g id="patch_1">
   <path d="M 0 345.6 
L 460.8 345.6 
L 460.8 0 
L 0 0 
z
" style="fill:#ffffff;"/>
  </g>
  <g id="axes_1">
   <g id="patch_2">
    <path d="M 56.12 294.88 
L 333.168 294.88 
L 333.168 6.845228 
L 56.12 6.845228 
z
" style="fill:#ffffff;"/>
   </g>
   <g id="line2d_1">
    <path d="M 14.510178 294.88 
L 14.510178 269.134318 
L 37.943615 269.134318 
L 37.943615 255.271258 
L 56.12 255.271258 
L 56.12 251.310384 
L 70.971188 251.310384 
L 70.971188 241.408198 
L 83.527689 241.408198 
L 83.527689 231.506013 
L 94.404625 231.506013 
L 94.404625 227.545138 
L 103.998762 227.545138 
L 103.998762 223.584264 
L 112.58101 223.584264 
L 112.58101 215.662516 
L 120.344598 215.662516 
L 120.344598 209.721205 
L 127.432198 209.721205 
L 127.432198 207.740767 
L 145.608584 207.740767 
L 145.608584 201.799456 
L 150.865635 201.799456 
L 150.865635 189.916834 
L 155.803875 189.916834 
L 155.803875 183.975522 
L 160.459772 183.975522 
L 160.459772 180.014648 
L 164.863873 180.014648 
L 164.863873 174.073337 
L 176.805608 174.073337 
L 176.805608 172.0929 
L 183.893209 172.0929 
L 183.893209 168.132025 
L 190.413169 168.132025 
L 190.413169 160.210277 
L 196.449709 160.210277 
L 196.449709 158.22984 
L 199.308109 158.22984 
L 199.308109 152.288529 
L 202.069594 152.288529 
L 202.069594 150.308091 
L 204.740523 150.308091 
L 204.740523 148.327654 
L 207.326645 148.327654 
L 207.326645 142.386343 
L 209.833182 142.386343 
L 209.833182 140.405906 
L 216.920782 140.405906 
L 216.920782 134.464595 
L 219.152594 134.464595 
L 219.152594 132.484158 
L 223.440743 132.484158 
L 223.440743 130.50372 
L 225.503031 130.50372 
L 225.503031 128.523283 
L 227.514393 128.523283 
L 227.514393 126.542846 
L 231.393984 126.542846 
L 231.393984 124.562409 
L 233.266618 124.562409 
L 233.266618 118.621098 
L 236.887482 118.621098 
L 236.887482 116.640661 
L 238.639292 116.640661 
L 238.639292 114.660224 
L 240.354219 114.660224 
L 240.354219 112.679787 
L 242.033784 112.679787 
L 242.033784 110.699349 
L 245.292459 110.699349 
L 245.292459 108.718912 
L 246.874179 108.718912 
L 246.874179 106.738475 
L 248.425769 106.738475 
L 248.425769 102.777601 
L 249.948356 102.777601 
L 249.948356 96.83629 
L 251.443004 96.83629 
L 251.443004 94.855853 
L 254.352457 94.855853 
L 254.352457 92.875415 
L 255.769119 92.875415 
L 255.769119 88.914541 
L 257.161563 88.914541 
L 257.161563 86.934104 
L 262.504857 86.934104 
L 262.504857 84.953667 
L 269.915056 84.953667 
L 269.915056 82.97323 
L 274.505342 82.97323 
L 274.505342 80.992793 
L 275.613604 80.992793 
L 275.613604 79.012356 
L 278.850693 79.012356 
L 278.850693 75.051482 
L 279.901753 75.051482 
L 279.901753 73.071044 
L 280.939423 73.071044 
L 280.939423 71.090607 
L 281.964041 71.090607 
L 281.964041 67.129733 
L 282.97593 67.129733 
L 282.97593 65.149296 
L 283.975403 65.149296 
L 283.975403 63.168859 
L 285.938293 63.168859 
L 285.938293 61.188422 
L 288.796693 61.188422 
L 288.796693 59.207985 
L 294.229107 59.207985 
L 294.229107 55.247111 
L 295.962279 55.247111 
L 295.962279 53.266673 
L 299.321766 53.266673 
L 299.321766 51.286236 
L 302.548169 51.286236 
L 302.548169 47.325362 
L 305.65163 47.325362 
L 305.65163 45.344925 
L 307.160118 45.344925 
L 307.160118 41.384051 
L 307.904014 41.384051 
L 307.904014 39.403614 
L 310.095788 39.403614 
L 310.095788 35.442739 
L 310.813467 35.442739 
L 310.813467 33.462302 
L 313.622574 33.462302 
L 313.622574 31.481865 
L 314.991615 31.481865 
L 314.991615 29.501428 
L 321.511575 29.501428 
L 321.511575 27.520991 
L 323.369968 27.520991 
L 323.369968 25.540554 
L 324.585752 25.540554 
L 324.585752 23.560117 
L 325.186906 23.560117 
L 325.186906 21.57968 
L 327.548115 21.57968 
L 327.548115 19.599243 
L 333.168 19.599243 
L 333.168 19.599243 
" style="fill:none;stroke:#f5deb3;stroke-linecap:square;stroke-width:4;"/>
   </g>
   <g id="line2d_2">
    <defs>
     <path d="M -0 7.778175 
L 7.778175 0 
L 0 -7.778175 
L -7.778175 -0 
z
" id="mc8ba8df58f" style="stroke:#f5deb3;stroke-linejoin:miter;stroke-width:1.5;"/>
    </defs>
    <g>
     <use style="fill:#f5deb3;stroke:#f5deb3;stroke-linejoin:miter;stroke-width:1.5;" x="83.527689" xlink:href="#mc8ba8df58f" y="241.408198"/>
     <use style="fill:#f5deb3;stroke:#f5deb3;stroke-linejoin:miter;stroke-width:1.5;" x="145.608584" xlink:href="#mc8ba8df58f" y="207.740767"/>
     <use style="fill:#f5deb3;stroke:#f5deb3;stroke-linejoin:miter;stroke-width:1.5;" x="196.449709" xlink:href="#mc8ba8df58f" y="160.210277"/>
     <use style="fill:#f5deb3;stroke:#f5deb3;stroke-linejoin:miter;stroke-width:1.5;" x="255.769119" xlink:href="#mc8ba8df58f" y="88.914541"/>
     <use style="fill:#f5deb3;stroke:#f5deb3;stroke-linejoin:miter;stroke-width:1.5;" x="307.904014" xlink:href="#mc8ba8df58f" y="41.384051"/>
     <use style="fill:#f5deb3;stroke:#f5deb3;stroke-linejoin:miter;stroke-width:1.5;" x="327.548115" xlink:href="#mc8ba8df58f" y="19.599243"/>
     <use style="fill:#f5deb3;stroke:#f5deb3;stroke-linejoin:miter;stroke-width:1.5;" x="327.548115" xlink:href="#mc8ba8df58f" y="19.599243"/>
     <use style="fill:#f5deb3;stroke:#f5deb3;stroke-linejoin:miter;stroke-width:1.5;" x="333.168" xlink:href="#mc8ba8df58f" y="19.599243"/>
    </g>
   </g>
   <g id="line2d_3">
    <path style="fill:none;stroke:#f5deb3;stroke-linecap:square;stroke-width:4;"/>
    <g/>
   </g>
   <g id="line2d_4">
    <path d="M 333.168 19.599243 
L 363.64328 15.400716 
" style="fill:none;stroke:#f5deb3;stroke-linecap:square;stroke-width:4;"/>
    <g>
     <use style="fill:#f5deb3;stroke:#f5deb3;stroke-linejoin:miter;stroke-width:1.5;" x="333.168" xlink:href="#mc8ba8df58f" y="19.599243"/>
     <use style="fill:#f5deb3;stroke:#f5deb3;stroke-linejoin:miter;stroke-width:1.5;" x="363.64328" xlink:href="#mc8ba8df58f" y="15.400716"/>
    </g>
   </g>
   <g id="matplotlib.axis_1">
    <g id="xtick_1">
     <g id="line2d_5">
      <path clip-path="url(#pb4470d2822)" d="M 56.12 294.88 
L 56.12 6.845228 
" style="fill:none;stroke:#b0b0b0;stroke-linecap:square;stroke-width:0.8;"/>
     </g>
     <g id="line2d_6">
      <defs>
       <path d="M 0 0 
L 0 3.5 
" id="m19f9b2a265" style="stroke:#000000;stroke-width:0.8;"/>
      </defs>
      <g>
       <use style="stroke:#000000;stroke-width:0.8;" x="56.12" xlink:href="#m19f9b2a265" y="294.88"/>
      </g>
     </g>
     <g id="text_1">
      <!-- 0 -->
      <defs>
       <path d="M 31.78125 66.40625 
Q 24.171875 66.40625 20.328125 58.90625 
Q 16.5 51.421875 16.5 36.375 
Q 16.5 21.390625 20.328125 13.890625 
Q 24.171875 6.390625 31.78125 6.390625 
Q 39.453125 6.390625 43.28125 13.890625 
Q 47.125 21.390625 47.125 36.375 
Q 47.125 51.421875 43.28125 58.90625 
Q 39.453125 66.40625 31.78125 66.40625 
z
M 31.78125 74.21875 
Q 44.046875 74.21875 50.515625 64.515625 
Q 56.984375 54.828125 56.984375 36.375 
Q 56.984375 17.96875 50.515625 8.265625 
Q 44.046875 -1.421875 31.78125 -1.421875 
Q 19.53125 -1.421875 13.0625 8.265625 
Q 6.59375 17.96875 6.59375 36.375 
Q 6.59375 54.828125 13.0625 64.515625 
Q 19.53125 74.21875 31.78125 74.21875 
z
" id="DejaVuSans-30"/>
      </defs>
      <g transform="translate(49.7575 317.076875)scale(0.2 -0.2)">
       <use xlink:href="#DejaVuSans-30"/>
      </g>
     </g>
    </g>
    <g id="xtick_2">
     <g id="line2d_7">
      <path clip-path="url(#pb4470d2822)" d="M 56.12 294.88 
L 56.12 6.845228 
" style="fill:none;stroke:#b0b0b0;stroke-linecap:square;stroke-width:0.8;"/>
     </g>
     <g id="line2d_8">
      <defs>
       <path d="M 0 0 
L 0 2 
" id="m3b703c5778" style="stroke:#000000;stroke-width:0.6;"/>
      </defs>
      <g>
       <use style="stroke:#000000;stroke-width:0.6;" x="56.12" xlink:href="#m3b703c5778" y="294.88"/>
      </g>
     </g>
    </g>
    <g id="xtick_3">
     <g id="line2d_9">
      <path clip-path="url(#pb4470d2822)" d="M 243.679416 294.88 
L 243.679416 6.845228 
" style="fill:none;stroke:#b0b0b0;stroke-linecap:square;stroke-width:0.8;"/>
     </g>
     <g id="line2d_10">
      <g>
       <use style="stroke:#000000;stroke-width:0.6;" x="243.679416" xlink:href="#m3b703c5778" y="294.88"/>
      </g>
     </g>
    </g>
    <g id="text_2">
     <!-- log10(# f-evals / dimension) -->
     <defs>
      <path d="M 9.421875 75.984375 
L 18.40625 75.984375 
L 18.40625 0 
L 9.421875 0 
z
" id="DejaVuSans-6c"/>
      <path d="M 30.609375 48.390625 
Q 23.390625 48.390625 19.1875 42.75 
Q 14.984375 37.109375 14.984375 27.296875 
Q 14.984375 17.484375 19.15625 11.84375 
Q 23.34375 6.203125 30.609375 6.203125 
Q 37.796875 6.203125 41.984375 11.859375 
Q 46.1875 17.53125 46.1875 27.296875 
Q 46.1875 37.015625 41.984375 42.703125 
Q 37.796875 48.390625 30.609375 48.390625 
z
M 30.609375 56 
Q 42.328125 56 49.015625 48.375 
Q 55.71875 40.765625 55.71875 27.296875 
Q 55.71875 13.875 49.015625 6.21875 
Q 42.328125 -1.421875 30.609375 -1.421875 
Q 18.84375 -1.421875 12.171875 6.21875 
Q 5.515625 13.875 5.515625 27.296875 
Q 5.515625 40.765625 12.171875 48.375 
Q 18.84375 56 30.609375 56 
z
" id="DejaVuSans-6f"/>
      <path d="M 45.40625 27.984375 
Q 45.40625 37.75 41.375 43.109375 
Q 37.359375 48.484375 30.078125 48.484375 
Q 22.859375 48.484375 18.828125 43.109375 
Q 14.796875 37.75 14.796875 27.984375 
Q 14.796875 18.265625 18.828125 12.890625 
Q 22.859375 7.515625 30.078125 7.515625 
Q 37.359375 7.515625 41.375 12.890625 
Q 45.40625 18.265625 45.40625 27.984375 
z
M 54.390625 6.78125 
Q 54.390625 -7.171875 48.1875 -13.984375 
Q 42 -20.796875 29.203125 -20.796875 
Q 24.46875 -20.796875 20.265625 -20.09375 
Q 16.0625 -19.390625 12.109375 -17.921875 
L 12.109375 -9.1875 
Q 16.0625 -11.328125 19.921875 -12.34375 
Q 23.78125 -13.375 27.78125 -13.375 
Q 36.625 -13.375 41.015625 -8.765625 
Q 45.40625 -4.15625 45.40625 5.171875 
L 45.40625 9.625 
Q 42.625 4.78125 38.28125 2.390625 
Q 33.9375 0 27.875 0 
Q 17.828125 0 11.671875 7.65625 
Q 5.515625 15.328125 5.515625 27.984375 
Q 5.515625 40.671875 11.671875 48.328125 
Q 17.828125 56 27.875 56 
Q 33.9375 56 38.28125 53.609375 
Q 42.625 51.21875 45.40625 46.390625 
L 45.40625 54.6875 
L 54.390625 54.6875 
z
" id="DejaVuSans-67"/>
      <path d="M 12.40625 8.296875 
L 28.515625 8.296875 
L 28.515625 63.921875 
L 10.984375 60.40625 
L 10.984375 69.390625 
L 28.421875 72.90625 
L 38.28125 72.90625 
L 38.28125 8.296875 
L 54.390625 8.296875 
L 54.390625 0 
L 12.40625 0 
z
" id="DejaVuSans-31"/>
      <path d="M 31 75.875 
Q 24.46875 64.65625 21.28125 53.65625 
Q 18.109375 42.671875 18.109375 31.390625 
Q 18.109375 20.125 21.3125 9.0625 
Q 24.515625 -2 31 -13.1875 
L 23.1875 -13.1875 
Q 15.875 -1.703125 12.234375 9.375 
Q 8.59375 20.453125 8.59375 31.390625 
Q 8.59375 42.28125 12.203125 53.3125 
Q 15.828125 64.359375 23.1875 75.875 
z
" id="DejaVuSans-28"/>
      <path d="M 51.125 44 
L 36.921875 44 
L 32.8125 27.6875 
L 47.125 27.6875 
z
M 43.796875 71.78125 
L 38.71875 51.515625 
L 52.984375 51.515625 
L 58.109375 71.78125 
L 65.921875 71.78125 
L 60.890625 51.515625 
L 76.125 51.515625 
L 76.125 44 
L 58.984375 44 
L 54.984375 27.6875 
L 70.515625 27.6875 
L 70.515625 20.21875 
L 53.078125 20.21875 
L 48 0 
L 40.1875 0 
L 45.21875 20.21875 
L 30.90625 20.21875 
L 25.875 0 
L 18.015625 0 
L 23.09375 20.21875 
L 7.71875 20.21875 
L 7.71875 27.6875 
L 24.90625 27.6875 
L 29 44 
L 13.28125 44 
L 13.28125 51.515625 
L 30.90625 51.515625 
L 35.890625 71.78125 
z
" id="DejaVuSans-23"/>
      <path id="DejaVuSans-20"/>
      <path d="M 37.109375 75.984375 
L 37.109375 68.5 
L 28.515625 68.5 
Q 23.6875 68.5 21.796875 66.546875 
Q 19.921875 64.59375 19.921875 59.515625 
L 19.921875 54.6875 
L 34.71875 54.6875 
L 34.71875 47.703125 
L 19.921875 47.703125 
L 19.921875 0 
L 10.890625 0 
L 10.890625 47.703125 
L 2.296875 47.703125 
L 2.296875 54.6875 
L 10.890625 54.6875 
L 10.890625 58.5 
Q 10.890625 67.625 15.140625 71.796875 
Q 19.390625 75.984375 28.609375 75.984375 
z
" id="DejaVuSans-66"/>
      <path d="M 4.890625 31.390625 
L 31.203125 31.390625 
L 31.203125 23.390625 
L 4.890625 23.390625 
z
" id="DejaVuSans-2d"/>
      <path d="M 56.203125 29.59375 
L 56.203125 25.203125 
L 14.890625 25.203125 
Q 15.484375 15.921875 20.484375 11.0625 
Q 25.484375 6.203125 34.421875 6.203125 
Q 39.59375 6.203125 44.453125 7.46875 
Q 49.3125 8.734375 54.109375 11.28125 
L 54.109375 2.78125 
Q 49.265625 0.734375 44.1875 -0.34375 
Q 39.109375 -1.421875 33.890625 -1.421875 
Q 20.796875 -1.421875 13.15625 6.1875 
Q 5.515625 13.8125 5.515625 26.8125 
Q 5.515625 40.234375 12.765625 48.109375 
Q 20.015625 56 32.328125 56 
Q 43.359375 56 49.78125 48.890625 
Q 56.203125 41.796875 56.203125 29.59375 
z
M 47.21875 32.234375 
Q 47.125 39.59375 43.09375 43.984375 
Q 39.0625 48.390625 32.421875 48.390625 
Q 24.90625 48.390625 20.390625 44.140625 
Q 15.875 39.890625 15.1875 32.171875 
z
" id="DejaVuSans-65"/>
      <path d="M 2.984375 54.6875 
L 12.5 54.6875 
L 29.59375 8.796875 
L 46.6875 54.6875 
L 56.203125 54.6875 
L 35.6875 0 
L 23.484375 0 
z
" id="DejaVuSans-76"/>
      <path d="M 34.28125 27.484375 
Q 23.390625 27.484375 19.1875 25 
Q 14.984375 22.515625 14.984375 16.5 
Q 14.984375 11.71875 18.140625 8.90625 
Q 21.296875 6.109375 26.703125 6.109375 
Q 34.1875 6.109375 38.703125 11.40625 
Q 43.21875 16.703125 43.21875 25.484375 
L 43.21875 27.484375 
z
M 52.203125 31.203125 
L 52.203125 0 
L 43.21875 0 
L 43.21875 8.296875 
Q 40.140625 3.328125 35.546875 0.953125 
Q 30.953125 -1.421875 24.3125 -1.421875 
Q 15.921875 -1.421875 10.953125 3.296875 
Q 6 8.015625 6 15.921875 
Q 6 25.140625 12.171875 29.828125 
Q 18.359375 34.515625 30.609375 34.515625 
L 43.21875 34.515625 
L 43.21875 35.40625 
Q 43.21875 41.609375 39.140625 45 
Q 35.0625 48.390625 27.6875 48.390625 
Q 23 48.390625 18.546875 47.265625 
Q 14.109375 46.140625 10.015625 43.890625 
L 10.015625 52.203125 
Q 14.9375 54.109375 19.578125 55.046875 
Q 24.21875 56 28.609375 56 
Q 40.484375 56 46.34375 49.84375 
Q 52.203125 43.703125 52.203125 31.203125 
z
" id="DejaVuSans-61"/>
      <path d="M 44.28125 53.078125 
L 44.28125 44.578125 
Q 40.484375 46.53125 36.375 47.5 
Q 32.28125 48.484375 27.875 48.484375 
Q 21.1875 48.484375 17.84375 46.4375 
Q 14.5 44.390625 14.5 40.28125 
Q 14.5 37.15625 16.890625 35.375 
Q 19.28125 33.59375 26.515625 31.984375 
L 29.59375 31.296875 
Q 39.15625 29.25 43.1875 25.515625 
Q 47.21875 21.78125 47.21875 15.09375 
Q 47.21875 7.46875 41.1875 3.015625 
Q 35.15625 -1.421875 24.609375 -1.421875 
Q 20.21875 -1.421875 15.453125 -0.5625 
Q 10.6875 0.296875 5.421875 2 
L 5.421875 11.28125 
Q 10.40625 8.6875 15.234375 7.390625 
Q 20.0625 6.109375 24.8125 6.109375 
Q 31.15625 6.109375 34.5625 8.28125 
Q 37.984375 10.453125 37.984375 14.40625 
Q 37.984375 18.0625 35.515625 20.015625 
Q 33.0625 21.96875 24.703125 23.78125 
L 21.578125 24.515625 
Q 13.234375 26.265625 9.515625 29.90625 
Q 5.8125 33.546875 5.8125 39.890625 
Q 5.8125 47.609375 11.28125 51.796875 
Q 16.75 56 26.8125 56 
Q 31.78125 56 36.171875 55.265625 
Q 40.578125 54.546875 44.28125 53.078125 
z
" id="DejaVuSans-73"/>
      <path d="M 25.390625 72.90625 
L 33.6875 72.90625 
L 8.296875 -9.28125 
L 0 -9.28125 
z
" id="DejaVuSans-2f"/>
      <path d="M 45.40625 46.390625 
L 45.40625 75.984375 
L 54.390625 75.984375 
L 54.390625 0 
L 45.40625 0 
L 45.40625 8.203125 
Q 42.578125 3.328125 38.25 0.953125 
Q 33.9375 -1.421875 27.875 -1.421875 
Q 17.96875 -1.421875 11.734375 6.484375 
Q 5.515625 14.40625 5.515625 27.296875 
Q 5.515625 40.1875 11.734375 48.09375 
Q 17.96875 56 27.875 56 
Q 33.9375 56 38.25 53.625 
Q 42.578125 51.265625 45.40625 46.390625 
z
M 14.796875 27.296875 
Q 14.796875 17.390625 18.875 11.75 
Q 22.953125 6.109375 30.078125 6.109375 
Q 37.203125 6.109375 41.296875 11.75 
Q 45.40625 17.390625 45.40625 27.296875 
Q 45.40625 37.203125 41.296875 42.84375 
Q 37.203125 48.484375 30.078125 48.484375 
Q 22.953125 48.484375 18.875 42.84375 
Q 14.796875 37.203125 14.796875 27.296875 
z
" id="DejaVuSans-64"/>
      <path d="M 9.421875 54.6875 
L 18.40625 54.6875 
L 18.40625 0 
L 9.421875 0 
z
M 9.421875 75.984375 
L 18.40625 75.984375 
L 18.40625 64.59375 
L 9.421875 64.59375 
z
" id="DejaVuSans-69"/>
      <path d="M 52 44.1875 
Q 55.375 50.25 60.0625 53.125 
Q 64.75 56 71.09375 56 
Q 79.640625 56 84.28125 50.015625 
Q 88.921875 44.046875 88.921875 33.015625 
L 88.921875 0 
L 79.890625 0 
L 79.890625 32.71875 
Q 79.890625 40.578125 77.09375 44.375 
Q 74.3125 48.1875 68.609375 48.1875 
Q 61.625 48.1875 57.5625 43.546875 
Q 53.515625 38.921875 53.515625 30.90625 
L 53.515625 0 
L 44.484375 0 
L 44.484375 32.71875 
Q 44.484375 40.625 41.703125 44.40625 
Q 38.921875 48.1875 33.109375 48.1875 
Q 26.21875 48.1875 22.15625 43.53125 
Q 18.109375 38.875 18.109375 30.90625 
L 18.109375 0 
L 9.078125 0 
L 9.078125 54.6875 
L 18.109375 54.6875 
L 18.109375 46.1875 
Q 21.1875 51.21875 25.484375 53.609375 
Q 29.78125 56 35.6875 56 
Q 41.65625 56 45.828125 52.96875 
Q 50 49.953125 52 44.1875 
z
" id="DejaVuSans-6d"/>
      <path d="M 54.890625 33.015625 
L 54.890625 0 
L 45.90625 0 
L 45.90625 32.71875 
Q 45.90625 40.484375 42.875 44.328125 
Q 39.84375 48.1875 33.796875 48.1875 
Q 26.515625 48.1875 22.3125 43.546875 
Q 18.109375 38.921875 18.109375 30.90625 
L 18.109375 0 
L 9.078125 0 
L 9.078125 54.6875 
L 18.109375 54.6875 
L 18.109375 46.1875 
Q 21.34375 51.125 25.703125 53.5625 
Q 30.078125 56 35.796875 56 
Q 45.21875 56 50.046875 50.171875 
Q 54.890625 44.34375 54.890625 33.015625 
z
" id="DejaVuSans-6e"/>
      <path d="M 8.015625 75.875 
L 15.828125 75.875 
Q 23.140625 64.359375 26.78125 53.3125 
Q 30.421875 42.28125 30.421875 31.390625 
Q 30.421875 20.453125 26.78125 9.375 
Q 23.140625 -1.703125 15.828125 -13.1875 
L 8.015625 -13.1875 
Q 14.5 -2 17.703125 9.0625 
Q 20.90625 20.125 20.90625 31.390625 
Q 20.90625 42.671875 17.703125 53.65625 
Q 14.5 64.65625 8.015625 75.875 
z
" id="DejaVuSans-29"/>
     </defs>
     <g transform="translate(73.803219 338.153594)scale(0.17 -0.17)">
      <use xlink:href="#DejaVuSans-6c"/>
      <use x="27.783203" xlink:href="#DejaVuSans-6f"/>
      <use x="88.964844" xlink:href="#DejaVuSans-67"/>
      <use x="152.441406" xlink:href="#DejaVuSans-31"/>
      <use x="216.064453" xlink:href="#DejaVuSans-30"/>
      <use x="279.6875" xlink:href="#DejaVuSans-28"/>
      <use x="318.701172" xlink:href="#DejaVuSans-23"/>
      <use x="402.490234" xlink:href="#DejaVuSans-20"/>
      <use x="434.277344" xlink:href="#DejaVuSans-66"/>
      <use x="469.404297" xlink:href="#DejaVuSans-2d"/>
      <use x="505.488281" xlink:href="#DejaVuSans-65"/>
      <use x="567.011719" xlink:href="#DejaVuSans-76"/>
      <use x="626.191406" xlink:href="#DejaVuSans-61"/>
      <use x="687.470703" xlink:href="#DejaVuSans-6c"/>
      <use x="715.253906" xlink:href="#DejaVuSans-73"/>
      <use x="767.353516" xlink:href="#DejaVuSans-20"/>
      <use x="799.140625" xlink:href="#DejaVuSans-2f"/>
      <use x="832.832031" xlink:href="#DejaVuSans-20"/>
      <use x="864.619141" xlink:href="#DejaVuSans-64"/>
      <use x="928.095703" xlink:href="#DejaVuSans-69"/>
      <use x="955.878906" xlink:href="#DejaVuSans-6d"/>
      <use x="1053.291016" xlink:href="#DejaVuSans-65"/>
      <use x="1114.814453" xlink:href="#DejaVuSans-6e"/>
      <use x="1178.193359" xlink:href="#DejaVuSans-73"/>
      <use x="1230.292969" xlink:href="#DejaVuSans-69"/>
      <use x="1258.076172" xlink:href="#DejaVuSans-6f"/>
      <use x="1319.257812" xlink:href="#DejaVuSans-6e"/>
      <use x="1382.636719" xlink:href="#DejaVuSans-29"/>
     </g>
    </g>
   </g>
   <g id="matplotlib.axis_2">
    <g id="ytick_1">
     <g id="line2d_11">
      <path clip-path="url(#pb4470d2822)" d="M 56.12 294.88 
L 333.168 294.88 
" style="fill:none;stroke:#b0b0b0;stroke-linecap:square;stroke-width:0.8;"/>
     </g>
     <g id="line2d_12">
      <defs>
       <path d="M 0 0 
L -3.5 0 
" id="m9a6979a620" style="stroke:#000000;stroke-width:0.8;"/>
      </defs>
      <g>
       <use style="stroke:#000000;stroke-width:0.8;" x="56.12" xlink:href="#m9a6979a620" y="294.88"/>
      </g>
     </g>
     <g id="text_3">
      <!-- 0.0 -->
      <defs>
       <path d="M 10.6875 12.40625 
L 21 12.40625 
L 21 0 
L 10.6875 0 
z
" id="DejaVuSans-2e"/>
      </defs>
      <g transform="translate(23.675 300.95875)scale(0.16 -0.16)">
       <use xlink:href="#DejaVuSans-30"/>
       <use x="63.623047" xlink:href="#DejaVuSans-2e"/>
       <use x="95.410156" xlink:href="#DejaVuSans-30"/>
      </g>
     </g>
    </g>
    <g id="ytick_2">
     <g id="line2d_13">
      <path clip-path="url(#pb4470d2822)" d="M 56.12 237.843411 
L 333.168 237.843411 
" style="fill:none;stroke:#b0b0b0;stroke-linecap:square;stroke-width:0.8;"/>
     </g>
     <g id="line2d_14">
      <g>
       <use style="stroke:#000000;stroke-width:0.8;" x="56.12" xlink:href="#m9a6979a620" y="237.843411"/>
      </g>
     </g>
     <g id="text_4">
      <!-- 0.2 -->
      <defs>
       <path d="M 19.1875 8.296875 
L 53.609375 8.296875 
L 53.609375 0 
L 7.328125 0 
L 7.328125 8.296875 
Q 12.9375 14.109375 22.625 23.890625 
Q 32.328125 33.6875 34.8125 36.53125 
Q 39.546875 41.84375 41.421875 45.53125 
Q 43.3125 49.21875 43.3125 52.78125 
Q 43.3125 58.59375 39.234375 62.25 
Q 35.15625 65.921875 28.609375 65.921875 
Q 23.96875 65.921875 18.8125 64.3125 
Q 13.671875 62.703125 7.8125 59.421875 
L 7.8125 69.390625 
Q 13.765625 71.78125 18.9375 73 
Q 24.125 74.21875 28.421875 74.21875 
Q 39.75 74.21875 46.484375 68.546875 
Q 53.21875 62.890625 53.21875 53.421875 
Q 53.21875 48.921875 51.53125 44.890625 
Q 49.859375 40.875 45.40625 35.40625 
Q 44.1875 33.984375 37.640625 27.21875 
Q 31.109375 20.453125 19.1875 8.296875 
z
" id="DejaVuSans-32"/>
      </defs>
      <g transform="translate(23.675 243.922161)scale(0.16 -0.16)">
       <use xlink:href="#DejaVuSans-30"/>
       <use x="63.623047" xlink:href="#DejaVuSans-2e"/>
       <use x="95.410156" xlink:href="#DejaVuSans-32"/>
      </g>
     </g>
    </g>
    <g id="ytick_3">
     <g id="line2d_15">
      <path clip-path="url(#pb4470d2822)" d="M 56.12 180.806823 
L 333.168 180.806823 
" style="fill:none;stroke:#b0b0b0;stroke-linecap:square;stroke-width:0.8;"/>
     </g>
     <g id="line2d_16">
      <g>
       <use style="stroke:#000000;stroke-width:0.8;" x="56.12" xlink:href="#m9a6979a620" y="180.806823"/>
      </g>
     </g>
     <g id="text_5">
      <!-- 0.4 -->
      <defs>
       <path d="M 37.796875 64.3125 
L 12.890625 25.390625 
L 37.796875 25.390625 
z
M 35.203125 72.90625 
L 47.609375 72.90625 
L 47.609375 25.390625 
L 58.015625 25.390625 
L 58.015625 17.1875 
L 47.609375 17.1875 
L 47.609375 0 
L 37.796875 0 
L 37.796875 17.1875 
L 4.890625 17.1875 
L 4.890625 26.703125 
z
" id="DejaVuSans-34"/>
      </defs>
      <g transform="translate(23.675 186.885573)scale(0.16 -0.16)">
       <use xlink:href="#DejaVuSans-30"/>
       <use x="63.623047" xlink:href="#DejaVuSans-2e"/>
       <use x="95.410156" xlink:href="#DejaVuSans-34"/>
      </g>
     </g>
    </g>
    <g id="ytick_4">
     <g id="line2d_17">
      <path clip-path="url(#pb4470d2822)" d="M 56.12 123.770234 
L 333.168 123.770234 
" style="fill:none;stroke:#b0b0b0;stroke-linecap:square;stroke-width:0.8;"/>
     </g>
     <g id="line2d_18">
      <g>
       <use style="stroke:#000000;stroke-width:0.8;" x="56.12" xlink:href="#m9a6979a620" y="123.770234"/>
      </g>
     </g>
     <g id="text_6">
      <!-- 0.6 -->
      <defs>
       <path d="M 33.015625 40.375 
Q 26.375 40.375 22.484375 35.828125 
Q 18.609375 31.296875 18.609375 23.390625 
Q 18.609375 15.53125 22.484375 10.953125 
Q 26.375 6.390625 33.015625 6.390625 
Q 39.65625 6.390625 43.53125 10.953125 
Q 47.40625 15.53125 47.40625 23.390625 
Q 47.40625 31.296875 43.53125 35.828125 
Q 39.65625 40.375 33.015625 40.375 
z
M 52.59375 71.296875 
L 52.59375 62.3125 
Q 48.875 64.0625 45.09375 64.984375 
Q 41.3125 65.921875 37.59375 65.921875 
Q 27.828125 65.921875 22.671875 59.328125 
Q 17.53125 52.734375 16.796875 39.40625 
Q 19.671875 43.65625 24.015625 45.921875 
Q 28.375 48.1875 33.59375 48.1875 
Q 44.578125 48.1875 50.953125 41.515625 
Q 57.328125 34.859375 57.328125 23.390625 
Q 57.328125 12.15625 50.6875 5.359375 
Q 44.046875 -1.421875 33.015625 -1.421875 
Q 20.359375 -1.421875 13.671875 8.265625 
Q 6.984375 17.96875 6.984375 36.375 
Q 6.984375 53.65625 15.1875 63.9375 
Q 23.390625 74.21875 37.203125 74.21875 
Q 40.921875 74.21875 44.703125 73.484375 
Q 48.484375 72.75 52.59375 71.296875 
z
" id="DejaVuSans-36"/>
      </defs>
      <g transform="translate(23.675 129.848984)scale(0.16 -0.16)">
       <use xlink:href="#DejaVuSans-30"/>
       <use x="63.623047" xlink:href="#DejaVuSans-2e"/>
       <use x="95.410156" xlink:href="#DejaVuSans-36"/>
      </g>
     </g>
    </g>
    <g id="ytick_5">
     <g id="line2d_19">
      <path clip-path="url(#pb4470d2822)" d="M 56.12 66.733646 
L 333.168 66.733646 
" style="fill:none;stroke:#b0b0b0;stroke-linecap:square;stroke-width:0.8;"/>
     </g>
     <g id="line2d_20">
      <g>
       <use style="stroke:#000000;stroke-width:0.8;" x="56.12" xlink:href="#m9a6979a620" y="66.733646"/>
      </g>
     </g>
     <g id="text_7">
      <!-- 0.8 -->
      <defs>
       <path d="M 31.78125 34.625 
Q 24.75 34.625 20.71875 30.859375 
Q 16.703125 27.09375 16.703125 20.515625 
Q 16.703125 13.921875 20.71875 10.15625 
Q 24.75 6.390625 31.78125 6.390625 
Q 38.8125 6.390625 42.859375 10.171875 
Q 46.921875 13.96875 46.921875 20.515625 
Q 46.921875 27.09375 42.890625 30.859375 
Q 38.875 34.625 31.78125 34.625 
z
M 21.921875 38.8125 
Q 15.578125 40.375 12.03125 44.71875 
Q 8.5 49.078125 8.5 55.328125 
Q 8.5 64.0625 14.71875 69.140625 
Q 20.953125 74.21875 31.78125 74.21875 
Q 42.671875 74.21875 48.875 69.140625 
Q 55.078125 64.0625 55.078125 55.328125 
Q 55.078125 49.078125 51.53125 44.71875 
Q 48 40.375 41.703125 38.8125 
Q 48.828125 37.15625 52.796875 32.3125 
Q 56.78125 27.484375 56.78125 20.515625 
Q 56.78125 9.90625 50.3125 4.234375 
Q 43.84375 -1.421875 31.78125 -1.421875 
Q 19.734375 -1.421875 13.25 4.234375 
Q 6.78125 9.90625 6.78125 20.515625 
Q 6.78125 27.484375 10.78125 32.3125 
Q 14.796875 37.15625 21.921875 38.8125 
z
M 18.3125 54.390625 
Q 18.3125 48.734375 21.84375 45.5625 
Q 25.390625 42.390625 31.78125 42.390625 
Q 38.140625 42.390625 41.71875 45.5625 
Q 45.3125 48.734375 45.3125 54.390625 
Q 45.3125 60.0625 41.71875 63.234375 
Q 38.140625 66.40625 31.78125 66.40625 
Q 25.390625 66.40625 21.84375 63.234375 
Q 18.3125 60.0625 18.3125 54.390625 
z
" id="DejaVuSans-38"/>
      </defs>
      <g transform="translate(23.675 72.812396)scale(0.16 -0.16)">
       <use xlink:href="#DejaVuSans-30"/>
       <use x="63.623047" xlink:href="#DejaVuSans-2e"/>
       <use x="95.410156" xlink:href="#DejaVuSans-38"/>
      </g>
     </g>
    </g>
    <g id="ytick_6">
     <g id="line2d_21">
      <path clip-path="url(#pb4470d2822)" d="M 56.12 9.697057 
L 333.168 9.697057 
" style="fill:none;stroke:#b0b0b0;stroke-linecap:square;stroke-width:0.8;"/>
     </g>
     <g id="line2d_22">
      <g>
       <use style="stroke:#000000;stroke-width:0.8;" x="56.12" xlink:href="#m9a6979a620" y="9.697057"/>
      </g>
     </g>
     <g id="text_8">
      <!-- 1.0 -->
      <g transform="translate(23.675 15.775807)scale(0.16 -0.16)">
       <use xlink:href="#DejaVuSans-31"/>
       <use x="63.623047" xlink:href="#DejaVuSans-2e"/>
       <use x="95.410156" xlink:href="#DejaVuSans-30"/>
      </g>
     </g>
    </g>
    <g id="text_9">
     <!-- Fraction of function,target pairs -->
     <defs>
      <path d="M 9.8125 72.90625 
L 51.703125 72.90625 
L 51.703125 64.59375 
L 19.671875 64.59375 
L 19.671875 43.109375 
L 48.578125 43.109375 
L 48.578125 34.8125 
L 19.671875 34.8125 
L 19.671875 0 
L 9.8125 0 
z
" id="DejaVuSans-46"/>
      <path d="M 41.109375 46.296875 
Q 39.59375 47.171875 37.8125 47.578125 
Q 36.03125 48 33.890625 48 
Q 26.265625 48 22.1875 43.046875 
Q 18.109375 38.09375 18.109375 28.8125 
L 18.109375 0 
L 9.078125 0 
L 9.078125 54.6875 
L 18.109375 54.6875 
L 18.109375 46.1875 
Q 20.953125 51.171875 25.484375 53.578125 
Q 30.03125 56 36.53125 56 
Q 37.453125 56 38.578125 55.875 
Q 39.703125 55.765625 41.0625 55.515625 
z
" id="DejaVuSans-72"/>
      <path d="M 48.78125 52.59375 
L 48.78125 44.1875 
Q 44.96875 46.296875 41.140625 47.34375 
Q 37.3125 48.390625 33.40625 48.390625 
Q 24.65625 48.390625 19.8125 42.84375 
Q 14.984375 37.3125 14.984375 27.296875 
Q 14.984375 17.28125 19.8125 11.734375 
Q 24.65625 6.203125 33.40625 6.203125 
Q 37.3125 6.203125 41.140625 7.25 
Q 44.96875 8.296875 48.78125 10.40625 
L 48.78125 2.09375 
Q 45.015625 0.34375 40.984375 -0.53125 
Q 36.96875 -1.421875 32.421875 -1.421875 
Q 20.0625 -1.421875 12.78125 6.34375 
Q 5.515625 14.109375 5.515625 27.296875 
Q 5.515625 40.671875 12.859375 48.328125 
Q 20.21875 56 33.015625 56 
Q 37.15625 56 41.109375 55.140625 
Q 45.0625 54.296875 48.78125 52.59375 
z
" id="DejaVuSans-63"/>
      <path d="M 18.3125 70.21875 
L 18.3125 54.6875 
L 36.8125 54.6875 
L 36.8125 47.703125 
L 18.3125 47.703125 
L 18.3125 18.015625 
Q 18.3125 11.328125 20.140625 9.421875 
Q 21.96875 7.515625 27.59375 7.515625 
L 36.8125 7.515625 
L 36.8125 0 
L 27.59375 0 
Q 17.1875 0 13.234375 3.875 
Q 9.28125 7.765625 9.28125 18.015625 
L 9.28125 47.703125 
L 2.6875 47.703125 
L 2.6875 54.6875 
L 9.28125 54.6875 
L 9.28125 70.21875 
z
" id="DejaVuSans-74"/>
      <path d="M 8.5 21.578125 
L 8.5 54.6875 
L 17.484375 54.6875 
L 17.484375 21.921875 
Q 17.484375 14.15625 20.5 10.265625 
Q 23.53125 6.390625 29.59375 6.390625 
Q 36.859375 6.390625 41.078125 11.03125 
Q 45.3125 15.671875 45.3125 23.6875 
L 45.3125 54.6875 
L 54.296875 54.6875 
L 54.296875 0 
L 45.3125 0 
L 45.3125 8.40625 
Q 42.046875 3.421875 37.71875 1 
Q 33.40625 -1.421875 27.6875 -1.421875 
Q 18.265625 -1.421875 13.375 4.4375 
Q 8.5 10.296875 8.5 21.578125 
z
M 31.109375 56 
z
" id="DejaVuSans-75"/>
      <path d="M 11.71875 12.40625 
L 22.015625 12.40625 
L 22.015625 4 
L 14.015625 -11.625 
L 7.71875 -11.625 
L 11.71875 4 
z
" id="DejaVuSans-2c"/>
      <path d="M 18.109375 8.203125 
L 18.109375 -20.796875 
L 9.078125 -20.796875 
L 9.078125 54.6875 
L 18.109375 54.6875 
L 18.109375 46.390625 
Q 20.953125 51.265625 25.265625 53.625 
Q 29.59375 56 35.59375 56 
Q 45.5625 56 51.78125 48.09375 
Q 58.015625 40.1875 58.015625 27.296875 
Q 58.015625 14.40625 51.78125 6.484375 
Q 45.5625 -1.421875 35.59375 -1.421875 
Q 29.59375 -1.421875 25.265625 0.953125 
Q 20.953125 3.328125 18.109375 8.203125 
z
M 48.6875 27.296875 
Q 48.6875 37.203125 44.609375 42.84375 
Q 40.53125 48.484375 33.40625 48.484375 
Q 26.265625 48.484375 22.1875 42.84375 
Q 18.109375 37.203125 18.109375 27.296875 
Q 18.109375 17.390625 22.1875 11.75 
Q 26.265625 6.109375 33.40625 6.109375 
Q 40.53125 6.109375 44.609375 11.75 
Q 48.6875 17.390625 48.6875 27.296875 
z
" id="DejaVuSans-70"/>
     </defs>
     <g transform="translate(16.139531 286.001989)rotate(-90)scale(0.17 -0.17)">
      <use xlink:href="#DejaVuSans-46"/>
      <use x="57.410156" xlink:href="#DejaVuSans-72"/>
      <use x="98.523438" xlink:href="#DejaVuSans-61"/>
      <use x="159.802734" xlink:href="#DejaVuSans-63"/>
      <use x="214.783203" xlink:href="#DejaVuSans-74"/>
      <use x="253.992188" xlink:href="#DejaVuSans-69"/>
      <use x="281.775391" xlink:href="#DejaVuSans-6f"/>
      <use x="342.957031" xlink:href="#DejaVuSans-6e"/>
      <use x="406.335938" xlink:href="#DejaVuSans-20"/>
      <use x="438.123047" xlink:href="#DejaVuSans-6f"/>
      <use x="499.304688" xlink:href="#DejaVuSans-66"/>
      <use x="534.509766" xlink:href="#DejaVuSans-20"/>
      <use x="566.296875" xlink:href="#DejaVuSans-66"/>
      <use x="601.501953" xlink:href="#DejaVuSans-75"/>
      <use x="664.880859" xlink:href="#DejaVuSans-6e"/>
      <use x="728.259766" xlink:href="#DejaVuSans-63"/>
      <use x="783.240234" xlink:href="#DejaVuSans-74"/>
      <use x="822.449219" xlink:href="#DejaVuSans-69"/>
      <use x="850.232422" xlink:href="#DejaVuSans-6f"/>
      <use x="911.414062" xlink:href="#DejaVuSans-6e"/>
      <use x="974.792969" xlink:href="#DejaVuSans-2c"/>
      <use x="1006.580078" xlink:href="#DejaVuSans-74"/>
      <use x="1045.789062" xlink:href="#DejaVuSans-61"/>
      <use x="1107.068359" xlink:href="#DejaVuSans-72"/>
      <use x="1148.166016" xlink:href="#DejaVuSans-67"/>
      <use x="1211.642578" xlink:href="#DejaVuSans-65"/>
      <use x="1273.166016" xlink:href="#DejaVuSans-74"/>
      <use x="1312.375" xlink:href="#DejaVuSans-20"/>
      <use x="1344.162109" xlink:href="#DejaVuSans-70"/>
      <use x="1407.638672" xlink:href="#DejaVuSans-61"/>
      <use x="1468.917969" xlink:href="#DejaVuSans-69"/>
      <use x="1496.701172" xlink:href="#DejaVuSans-72"/>
      <use x="1537.814453" xlink:href="#DejaVuSans-73"/>
     </g>
    </g>
   </g>
   <g id="line2d_23">
    <defs>
     <path d="M 0 1.5 
C 0.397805 1.5 0.77937 1.341951 1.06066 1.06066 
C 1.341951 0.77937 1.5 0.397805 1.5 0 
C 1.5 -0.397805 1.341951 -0.77937 1.06066 -1.06066 
C 0.77937 -1.341951 0.397805 -1.5 0 -1.5 
C -0.397805 -1.5 -0.77937 -1.341951 -1.06066 -1.06066 
C -1.341951 -0.77937 -1.5 -0.397805 -1.5 0 
C -1.5 0.397805 -1.341951 0.77937 -1.06066 1.06066 
C -0.77937 1.341951 -0.397805 1.5 0 1.5 
z
" id="m48ce5768d5" style="stroke:#f5deb3;"/>
    </defs>
    <g>
     <use style="fill:#f5deb3;stroke:#f5deb3;" x="372.799036" xlink:href="#m48ce5768d5" y="15.638368"/>
     <use style="fill:#f5deb3;stroke:#f5deb3;" x="372.799036" xlink:href="#m48ce5768d5" y="15.638368"/>
    </g>
   </g>
   <g id="line2d_24">
    <defs>
     <path d="M 0 1.5 
C 0.397805 1.5 0.77937 1.341951 1.06066 1.06066 
C 1.341951 0.77937 1.5 0.397805 1.5 0 
C 1.5 -0.397805 1.341951 -0.77937 1.06066 -1.06066 
C 0.77937 -1.341951 0.397805 -1.5 0 -1.5 
C -0.397805 -1.5 -0.77937 -1.341951 -1.06066 -1.06066 
C -1.341951 -0.77937 -1.5 -0.397805 -1.5 0 
C -1.5 0.397805 -1.341951 0.77937 -1.06066 1.06066 
C -0.77937 1.341951 -0.397805 1.5 0 1.5 
z
" id="m418f42e34a" style="stroke:#000080;"/>
    </defs>
    <g>
     <use style="fill:#000080;stroke:#000080;" x="399.102382" xlink:href="#m418f42e34a" y="139.217644"/>
     <use style="fill:#000080;stroke:#000080;" x="399.102382" xlink:href="#m418f42e34a" y="139.217644"/>
    </g>
   </g>
   <g id="line2d_25">
    <path d="M -1 273.491279 
L 14.510178 273.491279 
L 14.510178 265.371487 
L 37.943615 265.371487 
L 37.943615 256.063433 
L 56.12 256.063433 
L 56.12 248.735815 
L 70.971188 248.735815 
L 70.971188 244.18081 
L 83.527689 244.18081 
L 83.527689 236.457105 
L 94.404625 236.457105 
L 94.404625 230.911882 
L 103.998762 230.911882 
L 103.998762 227.941226 
L 112.58101 227.941226 
L 112.58101 226.158833 
L 120.344598 226.158833 
L 120.344598 222.990133 
L 127.432198 222.990133 
L 127.432198 221.20774 
L 133.952159 221.20774 
L 133.952159 219.821434 
L 139.988699 219.821434 
L 139.988699 218.435128 
L 145.608584 218.435128 
L 145.608584 215.662516 
L 150.865635 215.662516 
L 150.865635 213.285991 
L 155.803875 213.285991 
L 155.803875 212.097729 
L 160.459772 212.097729 
L 160.459772 209.127073 
L 164.863873 209.127073 
L 164.863873 208.532942 
L 169.04202 208.532942 
L 169.04202 206.552505 
L 173.016273 206.552505 
L 173.016273 205.562287 
L 176.805608 205.562287 
L 176.805608 203.779893 
L 180.426472 203.779893 
L 180.426472 202.987718 
L 183.893209 202.987718 
L 183.893209 202.591631 
L 187.218406 202.591631 
L 187.218406 202.195544 
L 190.413169 202.195544 
L 190.413169 201.007281 
L 193.487346 201.007281 
L 193.487346 200.017063 
L 196.449709 200.017063 
L 196.449709 199.026844 
L 199.308109 199.026844 
L 199.308109 198.8288 
L 202.069594 198.8288 
L 202.069594 197.838582 
L 204.740523 197.838582 
L 204.740523 195.858145 
L 207.326645 195.858145 
L 207.326645 195.462057 
L 209.833182 195.462057 
L 209.833182 193.283577 
L 212.264886 193.283577 
L 212.264886 192.491402 
L 214.626095 192.491402 
L 214.626095 191.897271 
L 216.920782 191.897271 
L 216.920782 191.501183 
L 219.152594 191.501183 
L 219.152594 190.510965 
L 221.324883 190.510965 
L 221.324883 189.520746 
L 223.440743 189.520746 
L 223.440743 189.124659 
L 229.477283 189.124659 
L 229.477283 187.936396 
L 231.393984 187.936396 
L 231.393984 187.144222 
L 233.266618 187.144222 
L 233.266618 186.748134 
L 235.097168 186.748134 
L 235.097168 186.154003 
L 238.639292 186.154003 
L 238.639292 185.559872 
L 242.033784 185.559872 
L 242.033784 185.163784 
L 243.679416 185.163784 
L 243.679416 184.569653 
L 245.292459 184.569653 
L 245.292459 184.37161 
L 246.874179 184.37161 
L 246.874179 183.975522 
L 248.425769 183.975522 
L 248.425769 182.985304 
L 249.948356 182.985304 
L 249.948356 182.193129 
L 251.443004 182.193129 
L 251.443004 181.995085 
L 252.91072 181.995085 
L 252.91072 181.598998 
L 255.769119 181.598998 
L 255.769119 181.20291 
L 257.161563 181.20291 
L 257.161563 180.212692 
L 258.530604 180.212692 
L 258.530604 179.618561 
L 259.877015 179.618561 
L 259.877015 179.420517 
L 262.504857 179.420517 
L 262.504857 179.222473 
L 265.050565 179.222473 
L 265.050565 178.826386 
L 266.294192 178.826386 
L 266.294192 178.628342 
L 268.725896 178.628342 
L 268.725896 177.242036 
L 269.915056 177.242036 
L 269.915056 176.845949 
L 271.087105 176.845949 
L 271.087105 176.647905 
L 272.242529 176.647905 
L 272.242529 176.449861 
L 273.381793 176.449861 
L 273.381793 175.657686 
L 274.505342 175.657686 
L 274.505342 175.261599 
L 276.70699 175.261599 
L 276.70699 175.063555 
L 277.785893 175.063555 
L 277.785893 174.865512 
L 278.850693 174.865512 
L 278.850693 174.27138 
L 280.939423 174.27138 
L 280.939423 173.875293 
L 281.964041 173.875293 
L 281.964041 173.083118 
L 283.975403 173.083118 
L 283.975403 172.0929 
L 287.854994 172.0929 
L 287.854994 171.894856 
L 288.796693 171.894856 
L 288.796693 171.498768 
L 289.727629 171.498768 
L 289.727629 171.300725 
L 290.648045 171.300725 
L 290.648045 171.102681 
L 291.558178 171.102681 
L 291.558178 169.914419 
L 292.458254 169.914419 
L 292.458254 169.518331 
L 293.348492 169.518331 
L 293.348492 169.320288 
L 294.229107 169.320288 
L 294.229107 168.330069 
L 295.100302 168.330069 
L 295.100302 168.132025 
L 298.494794 168.132025 
L 298.494794 167.735938 
L 299.321766 167.735938 
L 299.321766 167.339851 
L 300.140426 167.339851 
L 300.140426 166.943763 
L 300.950941 166.943763 
L 300.950941 166.151588 
L 303.335189 166.151588 
L 303.335189 165.953545 
L 304.114679 165.953545 
L 304.114679 165.557457 
L 304.88678 165.557457 
L 304.88678 165.16137 
L 306.409366 165.16137 
L 306.409366 164.963326 
L 307.904014 164.963326 
L 307.904014 164.765282 
L 310.813467 164.765282 
L 310.813467 164.567239 
L 311.524878 164.567239 
L 311.524878 164.369195 
L 312.230129 164.369195 
L 312.230129 164.171151 
L 314.30997 164.171151 
L 314.30997 163.973107 
L 315.667602 163.973107 
L 315.667602 163.57702 
L 317.002976 163.57702 
L 317.002976 163.378976 
L 318.316812 163.378976 
L 318.316812 162.388758 
L 319.609792 162.388758 
L 319.609792 161.794627 
L 320.248666 161.794627 
L 320.248666 161.002452 
L 320.882568 161.002452 
L 320.882568 160.804408 
L 323.369968 160.804408 
L 323.369968 160.606364 
L 324.585752 160.606364 
L 324.585752 159.81419 
L 326.376066 159.81419 
L 326.376066 158.823971 
L 326.964199 158.823971 
L 326.964199 158.427884 
L 329.842803 158.427884 
L 329.842803 158.22984 
L 330.406515 158.22984 
L 330.406515 157.833752 
L 330.966352 157.833752 
L 330.966352 157.437665 
L 331.522368 157.437665 
L 331.522368 156.843534 
L 332.623142 156.843534 
L 332.623142 156.249403 
L 333.168 156.249403 
L 333.168 156.051359 
L 333.168 156.051359 
" style="fill:none;stroke:#000080;stroke-linecap:square;stroke-width:1.5;"/>
   </g>
   <g id="line2d_26">
    <defs>
     <path d="M 0 6 
C 1.591219 6 3.117479 5.367802 4.242641 4.242641 
C 5.367802 3.117479 6 1.591219 6 0 
C 6 -1.591219 5.367802 -3.117479 4.242641 -4.242641 
C 3.117479 -5.367802 1.591219 -6 0 -6 
C -1.591219 -6 -3.117479 -5.367802 -4.242641 -4.242641 
C -5.367802 -3.117479 -6 -1.591219 -6 0 
C -6 1.591219 -5.367802 3.117479 -4.242641 4.242641 
C -3.117479 5.367802 -1.591219 6 0 6 
z
" id="m5e0b9b5317" style="stroke:#000080;stroke-width:1.5;"/>
    </defs>
    <g>
     <use style="fill-opacity:0;stroke:#000080;stroke-width:1.5;" x="127.432198" xlink:href="#m5e0b9b5317" y="222.990133"/>
     <use style="fill-opacity:0;stroke:#000080;stroke-width:1.5;" x="176.805608" xlink:href="#m5e0b9b5317" y="203.779893"/>
     <use style="fill-opacity:0;stroke:#000080;stroke-width:1.5;" x="246.874179" xlink:href="#m5e0b9b5317" y="183.975522"/>
     <use style="fill-opacity:0;stroke:#000080;stroke-width:1.5;" x="307.904014" xlink:href="#m5e0b9b5317" y="164.765282"/>
     <use style="fill-opacity:0;stroke:#000080;stroke-width:1.5;" x="333.168" xlink:href="#m5e0b9b5317" y="156.249403"/>
     <use style="fill-opacity:0;stroke:#000080;stroke-width:1.5;" x="333.168" xlink:href="#m5e0b9b5317" y="156.051359"/>
    </g>
   </g>
   <g id="line2d_27">
    <path style="fill:none;stroke:#000080;stroke-linecap:square;stroke-width:1.5;"/>
    <g/>
   </g>
   <g id="line2d_28">
    <path clip-path="url(#pb4470d2822)" d="M 333.168 156.051359 
" style="fill:none;stroke:#000080;stroke-linecap:square;stroke-width:1.5;"/>
    <defs>
     <path d="M -12 12 
L 12 -12 
M -12 -12 
L 12 12 
" id="m03bbacd1ed" style="stroke:#000080;"/>
    </defs>
    <g clip-path="url(#pb4470d2822)">
     <use style="fill:#000080;stroke:#000080;" x="333.168" xlink:href="#m03bbacd1ed" y="156.051359"/>
    </g>
   </g>
   <g id="line2d_29">
    <defs>
     <path d="M 0 1.5 
C 0.397805 1.5 0.77937 1.341951 1.06066 1.06066 
C 1.341951 0.77937 1.5 0.397805 1.5 0 
C 1.5 -0.397805 1.341951 -0.77937 1.06066 -1.06066 
C 0.77937 -1.341951 0.397805 -1.5 0 -1.5 
C -0.397805 -1.5 -0.77937 -1.341951 -1.06066 -1.06066 
C -1.341951 -0.77937 -1.5 -0.397805 -1.5 0 
C -1.5 0.397805 -1.341951 0.77937 -1.06066 1.06066 
C -0.77937 1.341951 -0.397805 1.5 0 1.5 
z
" id="m3567e80c76" style="stroke:#ff00ff;"/>
    </defs>
    <g>
     <use style="fill:#ff00ff;stroke:#ff00ff;" x="389.62901" xlink:href="#m3567e80c76" y="59.207985"/>
     <use style="fill:#ff00ff;stroke:#ff00ff;" x="389.62901" xlink:href="#m3567e80c76" y="59.207985"/>
    </g>
   </g>
   <g id="line2d_30">
    <path d="M -1 274.877585 
L 14.510178 274.877585 
L 14.510178 259.62822 
L 37.943615 259.62822 
L 37.943615 255.073214 
L 56.12 255.073214 
L 56.12 248.537772 
L 70.971188 248.537772 
L 70.971188 244.576898 
L 83.527689 244.576898 
L 83.527689 239.229717 
L 94.404625 239.229717 
L 94.404625 235.466887 
L 103.998762 235.466887 
L 103.998762 227.743182 
L 112.58101 227.743182 
L 112.58101 224.574483 
L 120.344598 224.574483 
L 120.344598 222.197958 
L 127.432198 222.197958 
L 127.432198 220.613609 
L 133.952159 220.613609 
L 133.952159 219.029259 
L 139.988699 219.029259 
L 139.988699 217.246866 
L 145.608584 217.246866 
L 145.608584 215.662516 
L 150.865635 215.662516 
L 150.865635 212.097729 
L 155.803875 212.097729 
L 155.803875 210.513379 
L 160.459772 210.513379 
L 160.459772 209.325117 
L 164.863873 209.325117 
L 164.863873 208.532942 
L 169.04202 208.532942 
L 169.04202 206.354461 
L 173.016273 206.354461 
L 173.016273 204.175981 
L 176.805608 204.175981 
L 176.805608 203.383806 
L 180.426472 203.383806 
L 180.426472 202.195544 
L 187.218406 202.195544 
L 187.218406 201.205325 
L 190.413169 201.205325 
L 190.413169 200.41315 
L 193.487346 200.41315 
L 193.487346 199.224888 
L 196.449709 199.224888 
L 196.449709 198.630757 
L 202.069594 198.630757 
L 202.069594 197.442495 
L 204.740523 197.442495 
L 204.740523 195.660101 
L 207.326645 195.660101 
L 207.326645 195.462057 
L 209.833182 195.462057 
L 209.833182 194.867926 
L 212.264886 194.867926 
L 212.264886 193.283577 
L 214.626095 193.283577 
L 214.626095 193.085533 
L 216.920782 193.085533 
L 216.920782 192.095314 
L 219.152594 192.095314 
L 219.152594 190.907052 
L 221.324883 190.907052 
L 221.324883 190.709008 
L 223.440743 190.709008 
L 223.440743 175.85573 
L 225.503031 175.85573 
L 225.503031 170.706594 
L 227.514393 170.706594 
L 227.514393 166.349632 
L 229.477283 166.349632 
L 229.477283 158.823971 
L 231.393984 158.823971 
L 231.393984 154.268966 
L 233.266618 154.268966 
L 233.266618 149.912004 
L 235.097168 149.912004 
L 235.097168 147.53548 
L 236.887482 147.53548 
L 236.887482 145.555042 
L 238.639292 145.555042 
L 238.639292 143.772649 
L 240.354219 143.772649 
L 240.354219 142.584387 
L 242.033784 142.584387 
L 242.033784 140.207862 
L 243.679416 140.207862 
L 243.679416 137.633294 
L 245.292459 137.633294 
L 245.292459 135.850901 
L 246.874179 135.850901 
L 246.874179 135.454813 
L 248.425769 135.454813 
L 248.425769 133.67242 
L 249.948356 133.67242 
L 249.948356 132.08807 
L 251.443004 132.08807 
L 251.443004 131.493939 
L 252.91072 131.493939 
L 252.91072 130.305677 
L 254.352457 130.305677 
L 254.352457 128.919371 
L 255.769119 128.919371 
L 255.769119 128.32524 
L 257.161563 128.32524 
L 257.161563 127.335021 
L 258.530604 127.335021 
L 258.530604 125.354584 
L 259.877015 125.354584 
L 259.877015 123.176103 
L 261.201533 123.176103 
L 261.201533 122.780016 
L 262.504857 122.780016 
L 262.504857 121.987841 
L 263.787655 121.987841 
L 263.787655 120.997622 
L 265.050565 120.997622 
L 265.050565 120.799579 
L 266.294192 120.799579 
L 266.294192 119.611316 
L 267.519118 119.611316 
L 267.519118 118.819142 
L 268.725896 118.819142 
L 268.725896 117.828923 
L 269.915056 117.828923 
L 269.915056 117.630879 
L 271.087105 117.630879 
L 271.087105 116.640661 
L 272.242529 116.640661 
L 272.242529 115.848486 
L 273.381793 115.848486 
L 273.381793 115.452398 
L 274.505342 115.452398 
L 274.505342 114.264136 
L 275.613604 114.264136 
L 275.613604 112.87783 
L 276.70699 112.87783 
L 276.70699 112.481743 
L 277.785893 112.481743 
L 277.785893 111.491524 
L 278.850693 111.491524 
L 278.850693 109.511087 
L 279.901753 109.511087 
L 279.901753 108.520869 
L 280.939423 108.520869 
L 280.939423 107.728694 
L 281.964041 107.728694 
L 281.964041 107.53065 
L 282.97593 107.53065 
L 282.97593 107.332606 
L 283.975403 107.332606 
L 283.975403 106.342388 
L 284.962761 106.342388 
L 284.962761 104.559994 
L 285.938293 104.559994 
L 285.938293 103.965863 
L 287.854994 103.965863 
L 287.854994 103.371732 
L 288.796693 103.371732 
L 288.796693 102.579557 
L 289.727629 102.579557 
L 289.727629 102.381514 
L 290.648045 102.381514 
L 290.648045 101.589339 
L 291.558178 101.589339 
L 291.558178 100.995208 
L 292.458254 100.995208 
L 292.458254 98.816727 
L 293.348492 98.816727 
L 293.348492 98.618683 
L 294.229107 98.618683 
L 294.229107 98.420639 
L 295.100302 98.420639 
L 295.100302 97.628465 
L 295.962279 97.628465 
L 295.962279 96.242159 
L 296.815229 96.242159 
L 296.815229 95.449984 
L 297.65934 95.449984 
L 297.65934 93.66759 
L 298.494794 93.66759 
L 298.494794 92.479328 
L 299.321766 92.479328 
L 299.321766 92.281284 
L 300.140426 92.281284 
L 300.140426 92.083241 
L 300.950941 92.083241 
L 300.950941 91.291066 
L 301.753469 91.291066 
L 301.753469 90.498891 
L 302.548169 90.498891 
L 302.548169 90.102804 
L 303.335189 90.102804 
L 303.335189 89.706716 
L 304.114679 89.706716 
L 304.114679 88.914541 
L 304.88678 88.914541 
L 304.88678 88.518454 
L 306.409366 88.518454 
L 306.409366 86.934104 
L 307.160118 86.934104 
L 307.160118 86.538017 
L 307.904014 86.538017 
L 307.904014 85.745842 
L 309.37173 85.745842 
L 309.37173 85.151711 
L 311.524878 85.151711 
L 311.524878 84.755623 
L 312.929327 84.755623 
L 312.929327 84.55758 
L 313.622574 84.55758 
L 313.622574 83.963449 
L 314.30997 83.963449 
L 314.30997 83.171274 
L 314.991615 83.171274 
L 314.991615 82.577143 
L 315.667602 82.577143 
L 315.667602 82.181055 
L 316.338026 82.181055 
L 316.338026 80.992793 
L 317.002976 80.992793 
L 317.002976 80.794749 
L 317.662543 80.794749 
L 317.662543 80.002574 
L 318.316812 80.002574 
L 318.316812 79.804531 
L 318.965867 79.804531 
L 318.965867 79.606487 
L 319.609792 79.606487 
L 319.609792 79.408443 
L 320.248666 79.408443 
L 320.248666 79.210399 
L 320.882568 79.210399 
L 320.882568 78.616268 
L 321.511575 78.616268 
L 321.511575 78.220181 
L 322.135762 78.220181 
L 322.135762 77.229962 
L 322.755202 77.229962 
L 322.755202 77.031919 
L 324.585752 77.031919 
L 324.585752 76.833875 
L 325.186906 76.833875 
L 325.186906 76.239744 
L 326.376066 76.239744 
L 326.376066 76.0417 
L 327.548115 76.0417 
L 327.548115 75.843656 
L 329.842803 75.843656 
L 329.842803 75.447569 
L 331.522368 75.447569 
L 331.522368 75.051482 
L 332.074614 75.051482 
L 332.074614 74.853438 
L 332.623142 74.853438 
L 332.623142 74.655394 
L 333.168 74.655394 
L 333.168 74.45735 
L 333.168 74.45735 
" style="fill:none;stroke:#ff00ff;stroke-linecap:square;stroke-width:1.5;"/>
   </g>
   <g id="line2d_31">
    <defs>
     <path d="M -0 8.485281 
L 5.091169 0 
L 0 -8.485281 
L -5.091169 -0 
z
" id="me8049175bf" style="stroke:#ff00ff;stroke-linejoin:miter;stroke-width:1.5;"/>
    </defs>
    <g>
     <use style="fill-opacity:0;stroke:#ff00ff;stroke-linejoin:miter;stroke-width:1.5;" x="133.952159" xlink:href="#me8049175bf" y="220.613609"/>
     <use style="fill-opacity:0;stroke:#ff00ff;stroke-linejoin:miter;stroke-width:1.5;" x="196.449709" xlink:href="#me8049175bf" y="199.224888"/>
     <use style="fill-opacity:0;stroke:#ff00ff;stroke-linejoin:miter;stroke-width:1.5;" x="238.639292" xlink:href="#me8049175bf" y="143.772649"/>
     <use style="fill-opacity:0;stroke:#ff00ff;stroke-linejoin:miter;stroke-width:1.5;" x="295.962279" xlink:href="#me8049175bf" y="97.628465"/>
     <use style="fill-opacity:0;stroke:#ff00ff;stroke-linejoin:miter;stroke-width:1.5;" x="333.168" xlink:href="#me8049175bf" y="74.655394"/>
     <use style="fill-opacity:0;stroke:#ff00ff;stroke-linejoin:miter;stroke-width:1.5;" x="333.168" xlink:href="#me8049175bf" y="74.655394"/>
     <use style="fill-opacity:0;stroke:#ff00ff;stroke-linejoin:miter;stroke-width:1.5;" x="333.168" xlink:href="#me8049175bf" y="74.45735"/>
    </g>
   </g>
   <g id="line2d_32">
    <path style="fill:none;stroke:#ff00ff;stroke-linecap:square;stroke-width:1.5;"/>
    <g/>
   </g>
   <g id="line2d_33">
    <path clip-path="url(#pb4470d2822)" d="M 333.168 74.45735 
" style="fill:none;stroke:#ff00ff;stroke-linecap:square;stroke-width:1.5;"/>
    <defs>
     <path d="M -12 12 
L 12 -12 
M -12 -12 
L 12 12 
" id="mee7c099437" style="stroke:#ff00ff;"/>
    </defs>
    <g clip-path="url(#pb4470d2822)">
     <use style="fill:#ff00ff;stroke:#ff00ff;" x="333.168" xlink:href="#mee7c099437" y="74.45735"/>
    </g>
   </g>
   <g id="line2d_34">
    <defs>
     <path d="M 0 1.5 
C 0.397805 1.5 0.77937 1.341951 1.06066 1.06066 
C 1.341951 0.77937 1.5 0.397805 1.5 0 
C 1.5 -0.397805 1.341951 -0.77937 1.06066 -1.06066 
C 0.77937 -1.341951 0.397805 -1.5 0 -1.5 
C -0.397805 -1.5 -0.77937 -1.341951 -1.06066 -1.06066 
C -1.341951 -0.77937 -1.5 -0.397805 -1.5 0 
C -1.5 0.397805 -1.341951 0.77937 -1.06066 1.06066 
C -0.77937 1.341951 -0.397805 1.5 0 1.5 
z
" id="m0f94af28c6" style="stroke:#ffa500;"/>
    </defs>
    <g>
     <use style="fill:#ffa500;stroke:#ffa500;" x="398.617524" xlink:href="#m0f94af28c6" y="52.672542"/>
     <use style="fill:#ffa500;stroke:#ffa500;" x="398.617524" xlink:href="#m0f94af28c6" y="52.672542"/>
    </g>
   </g>
   <g id="line2d_35">
    <path d="M -1 271.510842 
L 14.510178 271.510842 
L 14.510178 260.618438 
L 37.943615 260.618438 
L 37.943615 252.300602 
L 56.12 252.300602 
L 56.12 246.161247 
L 70.971188 246.161247 
L 70.971188 241.408198 
L 83.527689 241.408198 
L 83.527689 236.655149 
L 94.404625 236.655149 
L 94.404625 233.288406 
L 103.998762 233.288406 
L 103.998762 230.911882 
L 112.58101 230.911882 
L 112.58101 224.178395 
L 120.344598 224.178395 
L 120.344598 218.633172 
L 127.432198 218.633172 
L 127.432198 210.513379 
L 133.952159 210.513379 
L 133.952159 206.948593 
L 139.988699 206.948593 
L 139.988699 203.383806 
L 145.608584 203.383806 
L 145.608584 197.838582 
L 150.865635 197.838582 
L 150.865635 194.471839 
L 155.803875 194.471839 
L 155.803875 189.322702 
L 160.459772 189.322702 
L 160.459772 183.975522 
L 164.863873 183.975522 
L 164.863873 179.420517 
L 169.04202 179.420517 
L 169.04202 175.459643 
L 173.016273 175.459643 
L 173.016273 169.716375 
L 176.805608 169.716375 
L 176.805608 166.349632 
L 180.426472 166.349632 
L 180.426472 164.171151 
L 183.893209 164.171151 
L 183.893209 161.99267 
L 187.218406 161.99267 
L 187.218406 159.418102 
L 190.413169 159.418102 
L 190.413169 158.22984 
L 193.487346 158.22984 
L 193.487346 155.655272 
L 196.449709 155.655272 
L 196.449709 153.278747 
L 199.308109 153.278747 
L 199.308109 151.29831 
L 202.069594 151.29831 
L 202.069594 148.921786 
L 204.740523 148.921786 
L 204.740523 145.95113 
L 207.326645 145.95113 
L 207.326645 143.574605 
L 209.833182 143.574605 
L 209.833182 139.613731 
L 212.264886 139.613731 
L 212.264886 138.425469 
L 214.626095 138.425469 
L 214.626095 134.860682 
L 216.920782 134.860682 
L 216.920782 133.078289 
L 219.152594 133.078289 
L 219.152594 131.295895 
L 221.324883 131.295895 
L 221.324883 129.513502 
L 223.440743 129.513502 
L 223.440743 128.32524 
L 225.503031 128.32524 
L 225.503031 126.344803 
L 227.514393 126.344803 
L 227.514393 124.958497 
L 229.477283 124.958497 
L 229.477283 123.374147 
L 231.393984 123.374147 
L 231.393984 121.987841 
L 233.266618 121.987841 
L 233.266618 120.799579 
L 235.097168 120.799579 
L 235.097168 119.80936 
L 236.887482 119.80936 
L 236.887482 118.026967 
L 238.639292 118.026967 
L 238.639292 117.630879 
L 242.033784 117.630879 
L 242.033784 116.244573 
L 243.679416 116.244573 
L 243.679416 115.452398 
L 245.292459 115.452398 
L 245.292459 114.660224 
L 246.874179 114.660224 
L 246.874179 114.46218 
L 248.425769 114.46218 
L 248.425769 113.075874 
L 249.948356 113.075874 
L 249.948356 110.897393 
L 251.443004 110.897393 
L 251.443004 110.699349 
L 252.91072 110.699349 
L 252.91072 109.313043 
L 254.352457 109.313043 
L 254.352457 107.926737 
L 255.769119 107.926737 
L 255.769119 106.540431 
L 257.161563 106.540431 
L 257.161563 106.342388 
L 258.530604 106.342388 
L 258.530604 105.550213 
L 259.877015 105.550213 
L 259.877015 104.758038 
L 261.201533 104.758038 
L 261.201533 103.965863 
L 262.504857 103.965863 
L 262.504857 103.173688 
L 263.787655 103.173688 
L 263.787655 102.579557 
L 265.050565 102.579557 
L 265.050565 101.787382 
L 266.294192 101.787382 
L 266.294192 101.589339 
L 267.519118 101.589339 
L 267.519118 100.59912 
L 268.725896 100.59912 
L 268.725896 100.203033 
L 269.915056 100.203033 
L 269.915056 99.410858 
L 271.087105 99.410858 
L 271.087105 99.212814 
L 272.242529 99.212814 
L 272.242529 97.628465 
L 273.381793 97.628465 
L 273.381793 97.034333 
L 274.505342 97.034333 
L 274.505342 96.440202 
L 275.613604 96.440202 
L 275.613604 96.242159 
L 276.70699 96.242159 
L 276.70699 95.846071 
L 277.785893 95.846071 
L 277.785893 94.459765 
L 279.901753 94.459765 
L 279.901753 94.063678 
L 280.939423 94.063678 
L 280.939423 93.865634 
L 281.964041 93.865634 
L 281.964041 93.271503 
L 282.97593 93.271503 
L 282.97593 92.479328 
L 283.975403 92.479328 
L 283.975403 91.687153 
L 284.962761 91.687153 
L 284.962761 89.706716 
L 285.938293 89.706716 
L 285.938293 89.310629 
L 286.902281 89.310629 
L 286.902281 89.112585 
L 287.854994 89.112585 
L 287.854994 88.518454 
L 288.796693 88.518454 
L 288.796693 87.132148 
L 290.648045 87.132148 
L 290.648045 86.339973 
L 291.558178 86.339973 
L 291.558178 85.547798 
L 293.348492 85.547798 
L 293.348492 84.953667 
L 294.229107 84.953667 
L 294.229107 84.755623 
L 295.100302 84.755623 
L 295.100302 84.161492 
L 295.962279 84.161492 
L 295.962279 83.567361 
L 296.815229 83.567361 
L 296.815229 82.97323 
L 297.65934 82.97323 
L 297.65934 81.983011 
L 300.140426 81.983011 
L 300.140426 81.190837 
L 300.950941 81.190837 
L 300.950941 80.992793 
L 301.753469 80.992793 
L 301.753469 80.398662 
L 302.548169 80.398662 
L 302.548169 79.804531 
L 303.335189 79.804531 
L 303.335189 79.606487 
L 304.114679 79.606487 
L 304.114679 79.408443 
L 306.409366 79.408443 
L 306.409366 77.62605 
L 307.160118 77.62605 
L 307.160118 77.428006 
L 308.641178 77.428006 
L 308.641178 77.229962 
L 309.37173 77.229962 
L 309.37173 77.031919 
L 310.095788 77.031919 
L 310.095788 76.0417 
L 310.813467 76.0417 
L 310.813467 75.645613 
L 311.524878 75.645613 
L 311.524878 75.051482 
L 312.929327 75.051482 
L 312.929327 74.45735 
L 313.622574 74.45735 
L 313.622574 74.061263 
L 315.667602 74.061263 
L 315.667602 73.863219 
L 317.002976 73.863219 
L 317.002976 73.269088 
L 317.662543 73.269088 
L 317.662543 73.071044 
L 318.316812 73.071044 
L 318.316812 72.873001 
L 319.609792 72.873001 
L 319.609792 72.080826 
L 320.248666 72.080826 
L 320.248666 71.882782 
L 320.882568 71.882782 
L 320.882568 71.684738 
L 321.511575 71.684738 
L 321.511575 71.486695 
L 322.135762 71.486695 
L 322.135762 71.288651 
L 322.755202 71.288651 
L 322.755202 71.090607 
L 323.980128 71.090607 
L 323.980128 70.69452 
L 325.186906 70.69452 
L 325.186906 70.496476 
L 325.783656 70.496476 
L 325.783656 70.298433 
L 326.376066 70.298433 
L 326.376066 69.902345 
L 327.548115 69.902345 
L 327.548115 69.704301 
L 328.127876 69.704301 
L 328.127876 69.506258 
L 328.703539 69.506258 
L 328.703539 68.714083 
L 329.275163 68.714083 
L 329.275163 68.516039 
L 329.842803 68.516039 
L 329.842803 67.723864 
L 330.406515 67.723864 
L 330.406515 67.525821 
L 330.966352 67.525821 
L 330.966352 67.327777 
L 332.623142 67.327777 
L 332.623142 67.129733 
L 333.168 67.129733 
L 333.168 66.931689 
L 333.168 66.931689 
" style="fill:none;stroke:#ffa500;stroke-linecap:square;stroke-width:1.5;"/>
   </g>
   <g id="line2d_36">
    <defs>
     <path d="M 0 -6 
L -1.347084 -1.854102 
L -5.706339 -1.854102 
L -2.179628 0.708204 
L -3.526712 4.854102 
L -0 2.291796 
L 3.526712 4.854102 
L 2.179628 0.708204 
L 5.706339 -1.854102 
L 1.347084 -1.854102 
z
" id="m1233ed570a" style="stroke:#ffa500;stroke-linejoin:bevel;stroke-width:1.5;"/>
    </defs>
    <g>
     <use style="fill-opacity:0;stroke:#ffa500;stroke-linejoin:bevel;stroke-width:1.5;" x="70.971188" xlink:href="#m1233ed570a" y="241.408198"/>
     <use style="fill-opacity:0;stroke:#ffa500;stroke-linejoin:bevel;stroke-width:1.5;" x="133.952159" xlink:href="#m1233ed570a" y="206.948593"/>
     <use style="fill-opacity:0;stroke:#ffa500;stroke-linejoin:bevel;stroke-width:1.5;" x="193.487346" xlink:href="#m1233ed570a" y="155.655272"/>
     <use style="fill-opacity:0;stroke:#ffa500;stroke-linejoin:bevel;stroke-width:1.5;" x="245.292459" xlink:href="#m1233ed570a" y="114.660224"/>
     <use style="fill-opacity:0;stroke:#ffa500;stroke-linejoin:bevel;stroke-width:1.5;" x="304.114679" xlink:href="#m1233ed570a" y="79.408443"/>
     <use style="fill-opacity:0;stroke:#ffa500;stroke-linejoin:bevel;stroke-width:1.5;" x="333.168" xlink:href="#m1233ed570a" y="67.129733"/>
     <use style="fill-opacity:0;stroke:#ffa500;stroke-linejoin:bevel;stroke-width:1.5;" x="333.168" xlink:href="#m1233ed570a" y="66.931689"/>
    </g>
   </g>
   <g id="line2d_37">
    <path style="fill:none;stroke:#ffa500;stroke-linecap:square;stroke-width:1.5;"/>
    <g/>
   </g>
   <g id="line2d_38">
    <path clip-path="url(#pb4470d2822)" d="M 333.168 66.931689 
" style="fill:none;stroke:#ffa500;stroke-linecap:square;stroke-width:1.5;"/>
    <defs>
     <path d="M -12 12 
L 12 -12 
M -12 -12 
L 12 12 
" id="m747de56449" style="stroke:#ffa500;"/>
    </defs>
    <g clip-path="url(#pb4470d2822)">
     <use style="fill:#ffa500;stroke:#ffa500;" x="333.168" xlink:href="#m747de56449" y="66.931689"/>
    </g>
   </g>
   <g id="line2d_39">
    <defs>
     <path d="M 0 1.5 
C 0.397805 1.5 0.77937 1.341951 1.06066 1.06066 
C 1.341951 0.77937 1.5 0.397805 1.5 0 
C 1.5 -0.397805 1.341951 -0.77937 1.06066 -1.06066 
C 0.77937 -1.341951 0.397805 -1.5 0 -1.5 
C -0.397805 -1.5 -0.77937 -1.341951 -1.06066 -1.06066 
C -1.341951 -0.77937 -1.5 -0.397805 -1.5 0 
C -1.5 0.397805 -1.341951 0.77937 -1.06066 1.06066 
C -0.77937 1.341951 -0.397805 1.5 0 1.5 
z
" id="me20c0dd706" style="stroke:#6495ed;"/>
    </defs>
    <g>
     <use style="fill:#6495ed;stroke:#6495ed;" x="392.036753" xlink:href="#me20c0dd706" y="55.049067"/>
     <use style="fill:#6495ed;stroke:#6495ed;" x="392.036753" xlink:href="#me20c0dd706" y="55.049067"/>
    </g>
   </g>
   <g id="line2d_40">
    <path d="M -1 277.452153 
L 14.510178 277.452153 
L 14.510178 268.144099 
L 37.943615 268.144099 
L 37.943615 258.836045 
L 56.12 258.836045 
L 56.12 253.092777 
L 70.971188 253.092777 
L 70.971188 248.735815 
L 83.527689 248.735815 
L 83.527689 242.794504 
L 94.404625 242.794504 
L 94.404625 237.843411 
L 103.998762 237.843411 
L 103.998762 227.347095 
L 112.58101 227.347095 
L 112.58101 225.366658 
L 120.344598 225.366658 
L 120.344598 222.990133 
L 127.432198 222.990133 
L 127.432198 220.217521 
L 133.952159 220.217521 
L 133.952159 217.246866 
L 139.988699 217.246866 
L 139.988699 212.889904 
L 145.608584 212.889904 
L 145.608584 210.513379 
L 150.865635 210.513379 
L 150.865635 209.523161 
L 155.803875 209.523161 
L 155.803875 208.532942 
L 160.459772 208.532942 
L 160.459772 206.948593 
L 164.863873 206.948593 
L 164.863873 205.166199 
L 169.04202 205.166199 
L 169.04202 204.175981 
L 173.016273 204.175981 
L 173.016273 203.58185 
L 176.805608 203.58185 
L 176.805608 202.195544 
L 180.426472 202.195544 
L 180.426472 201.007281 
L 183.893209 201.007281 
L 183.893209 199.224888 
L 187.218406 199.224888 
L 187.218406 198.630757 
L 190.413169 198.630757 
L 190.413169 198.432713 
L 193.487346 198.432713 
L 193.487346 195.660101 
L 196.449709 195.660101 
L 196.449709 195.264014 
L 199.308109 195.264014 
L 199.308109 194.471839 
L 202.069594 194.471839 
L 202.069594 193.877708 
L 204.740523 193.877708 
L 204.740523 193.679664 
L 207.326645 193.679664 
L 207.326645 192.491402 
L 209.833182 192.491402 
L 209.833182 190.907052 
L 212.264886 190.907052 
L 212.264886 189.71879 
L 214.626095 189.71879 
L 214.626095 189.322702 
L 216.920782 189.322702 
L 216.920782 188.926615 
L 219.152594 188.926615 
L 219.152594 187.936396 
L 221.324883 187.936396 
L 221.324883 187.540309 
L 223.440743 187.540309 
L 223.440743 173.875293 
L 225.503031 173.875293 
L 225.503031 168.528113 
L 227.514393 168.528113 
L 227.514393 163.57702 
L 229.477283 163.57702 
L 229.477283 160.210277 
L 231.393984 160.210277 
L 231.393984 154.863097 
L 233.266618 154.863097 
L 233.266618 153.080703 
L 235.097168 153.080703 
L 235.097168 150.110048 
L 236.887482 150.110048 
L 236.887482 147.733523 
L 238.639292 147.733523 
L 238.639292 145.95113 
L 240.354219 145.95113 
L 240.354219 140.405906 
L 242.033784 140.405906 
L 242.033784 138.623513 
L 243.679416 138.623513 
L 243.679416 136.643075 
L 245.292459 136.643075 
L 245.292459 135.256769 
L 246.874179 135.256769 
L 246.874179 134.662638 
L 248.425769 134.662638 
L 248.425769 131.295895 
L 249.948356 131.295895 
L 249.948356 129.513502 
L 251.443004 129.513502 
L 251.443004 127.335021 
L 252.91072 127.335021 
L 252.91072 125.750671 
L 254.352457 125.750671 
L 254.352457 124.562409 
L 255.769119 124.562409 
L 255.769119 120.403491 
L 257.161563 120.403491 
L 257.161563 118.22501 
L 258.530604 118.22501 
L 258.530604 117.630879 
L 259.877015 117.630879 
L 259.877015 117.432836 
L 261.201533 117.432836 
L 261.201533 117.234792 
L 262.504857 117.234792 
L 262.504857 114.066092 
L 265.050565 114.066092 
L 265.050565 113.075874 
L 266.294192 113.075874 
L 266.294192 110.501306 
L 268.725896 110.501306 
L 268.725896 107.332606 
L 269.915056 107.332606 
L 269.915056 107.134563 
L 271.087105 107.134563 
L 271.087105 105.550213 
L 272.242529 105.550213 
L 272.242529 105.154126 
L 274.505342 105.154126 
L 274.505342 103.173688 
L 275.613604 103.173688 
L 275.613604 102.777601 
L 279.901753 102.777601 
L 279.901753 100.797164 
L 280.939423 100.797164 
L 280.939423 100.004989 
L 281.964041 100.004989 
L 281.964041 99.014771 
L 283.975403 99.014771 
L 283.975403 98.816727 
L 284.962761 98.816727 
L 284.962761 97.232377 
L 286.902281 97.232377 
L 286.902281 96.638246 
L 287.854994 96.638246 
L 287.854994 95.846071 
L 288.796693 95.846071 
L 288.796693 95.449984 
L 289.727629 95.449984 
L 289.727629 93.073459 
L 291.558178 93.073459 
L 291.558178 92.677372 
L 293.348492 92.677372 
L 293.348492 92.281284 
L 294.229107 92.281284 
L 294.229107 90.894978 
L 296.815229 90.894978 
L 296.815229 90.498891 
L 298.494794 90.498891 
L 298.494794 87.924323 
L 299.321766 87.924323 
L 299.321766 87.528235 
L 300.140426 87.528235 
L 300.140426 86.934104 
L 301.753469 86.934104 
L 301.753469 86.73606 
L 302.548169 86.73606 
L 302.548169 84.953667 
L 303.335189 84.953667 
L 303.335189 84.55758 
L 304.114679 84.55758 
L 304.114679 84.359536 
L 304.88678 84.359536 
L 304.88678 84.161492 
L 306.409366 84.161492 
L 306.409366 83.171274 
L 307.904014 83.171274 
L 307.904014 81.784968 
L 308.641178 81.784968 
L 308.641178 81.586924 
L 309.37173 81.586924 
L 309.37173 81.38888 
L 310.095788 81.38888 
L 310.095788 80.398662 
L 311.524878 80.398662 
L 311.524878 80.200618 
L 313.622574 80.200618 
L 313.622574 79.210399 
L 314.991615 79.210399 
L 314.991615 78.616268 
L 316.338026 78.616268 
L 316.338026 78.022137 
L 317.002976 78.022137 
L 317.002976 77.62605 
L 318.316812 77.62605 
L 318.316812 76.635831 
L 318.965867 76.635831 
L 318.965867 76.437788 
L 320.248666 76.437788 
L 320.248666 75.447569 
L 322.135762 75.447569 
L 322.135762 75.051482 
L 322.755202 75.051482 
L 322.755202 74.45735 
L 323.369968 74.45735 
L 323.369968 72.476913 
L 323.980128 72.476913 
L 323.980128 71.684738 
L 324.585752 71.684738 
L 324.585752 71.090607 
L 325.186906 71.090607 
L 325.186906 70.100389 
L 325.783656 70.100389 
L 325.783656 69.902345 
L 326.376066 69.902345 
L 326.376066 68.516039 
L 326.964199 68.516039 
L 326.964199 67.723864 
L 327.548115 67.723864 
L 327.548115 67.525821 
L 328.703539 67.525821 
L 328.703539 66.733646 
L 329.275163 66.733646 
L 329.275163 66.337558 
L 330.406515 66.337558 
L 330.406515 66.139515 
L 332.074614 66.139515 
L 332.074614 65.545383 
L 333.168 65.545383 
L 333.168 65.545383 
" style="fill:none;stroke:#6495ed;stroke-linecap:square;stroke-width:1.5;"/>
   </g>
   <g id="line2d_41">
    <defs>
     <path d="M -0 6 
L 6 -6 
L -6 -6 
z
" id="m720c702d69" style="stroke:#6495ed;stroke-linejoin:miter;stroke-width:1.5;"/>
    </defs>
    <g>
     <use style="fill-opacity:0;stroke:#6495ed;stroke-linejoin:miter;stroke-width:1.5;" x="127.432198" xlink:href="#m720c702d69" y="222.990133"/>
     <use style="fill-opacity:0;stroke:#6495ed;stroke-linejoin:miter;stroke-width:1.5;" x="196.449709" xlink:href="#m720c702d69" y="195.264014"/>
     <use style="fill-opacity:0;stroke:#6495ed;stroke-linejoin:miter;stroke-width:1.5;" x="248.425769" xlink:href="#m720c702d69" y="131.295895"/>
     <use style="fill-opacity:0;stroke:#6495ed;stroke-linejoin:miter;stroke-width:1.5;" x="287.854994" xlink:href="#m720c702d69" y="96.638246"/>
     <use style="fill-opacity:0;stroke:#6495ed;stroke-linejoin:miter;stroke-width:1.5;" x="332.074614" xlink:href="#m720c702d69" y="65.545383"/>
     <use style="fill-opacity:0;stroke:#6495ed;stroke-linejoin:miter;stroke-width:1.5;" x="332.074614" xlink:href="#m720c702d69" y="65.545383"/>
     <use style="fill-opacity:0;stroke:#6495ed;stroke-linejoin:miter;stroke-width:1.5;" x="333.168" xlink:href="#m720c702d69" y="65.545383"/>
    </g>
   </g>
   <g id="line2d_42">
    <path style="fill:none;stroke:#6495ed;stroke-linecap:square;stroke-width:1.5;"/>
    <g/>
   </g>
   <g id="line2d_43">
    <path clip-path="url(#pb4470d2822)" d="M 333.168 65.545383 
" style="fill:none;stroke:#6495ed;stroke-linecap:square;stroke-width:1.5;"/>
    <defs>
     <path d="M -12 12 
L 12 -12 
M -12 -12 
L 12 12 
" id="me7683c0891" style="stroke:#6495ed;"/>
    </defs>
    <g clip-path="url(#pb4470d2822)">
     <use style="fill:#6495ed;stroke:#6495ed;" x="333.168" xlink:href="#me7683c0891" y="65.545383"/>
    </g>
   </g>
   <g id="line2d_44">
    <defs>
     <path d="M 0 1.5 
C 0.397805 1.5 0.77937 1.341951 1.06066 1.06066 
C 1.341951 0.77937 1.5 0.397805 1.5 0 
C 1.5 -0.397805 1.341951 -0.77937 1.06066 -1.06066 
C 0.77937 -1.341951 0.397805 -1.5 0 -1.5 
C -0.397805 -1.5 -0.77937 -1.341951 -1.06066 -1.06066 
C -1.341951 -0.77937 -1.5 -0.397805 -1.5 0 
C -1.5 0.397805 -1.341951 0.77937 -1.06066 1.06066 
C -0.77937 1.341951 -0.397805 1.5 0 1.5 
z
" id="m669e80360e" style="stroke:#ff0000;"/>
    </defs>
    <g>
     <use style="fill:#ff0000;stroke:#ff0000;" x="393.344261" xlink:href="#m669e80360e" y="50.097974"/>
     <use style="fill:#ff0000;stroke:#ff0000;" x="393.344261" xlink:href="#m669e80360e" y="50.097974"/>
    </g>
   </g>
   <g id="line2d_45">
    <path d="M -1 277.056066 
L 14.510178 277.056066 
L 14.510178 266.361706 
L 37.943615 266.361706 
L 37.943615 257.053651 
L 56.12 257.053651 
L 56.12 250.716253 
L 70.971188 250.716253 
L 70.971188 244.774941 
L 83.527689 244.774941 
L 83.527689 239.427761 
L 94.404625 239.427761 
L 94.404625 233.684494 
L 103.998762 233.684494 
L 103.998762 229.327532 
L 112.58101 229.327532 
L 112.58101 221.603827 
L 120.344598 221.603827 
L 120.344598 217.642953 
L 127.432198 217.642953 
L 127.432198 211.503598 
L 133.952159 211.503598 
L 133.952159 208.136855 
L 139.988699 208.136855 
L 139.988699 200.017063 
L 145.608584 200.017063 
L 145.608584 197.442495 
L 150.865635 197.442495 
L 150.865635 192.689445 
L 155.803875 192.689445 
L 155.803875 190.312921 
L 160.459772 190.312921 
L 160.459772 186.154003 
L 164.863873 186.154003 
L 164.863873 179.816604 
L 169.04202 179.816604 
L 169.04202 177.043992 
L 173.016273 177.043992 
L 173.016273 175.261599 
L 176.805608 175.261599 
L 176.805608 172.687031 
L 180.426472 172.687031 
L 180.426472 169.914419 
L 183.893209 169.914419 
L 183.893209 163.775064 
L 187.218406 163.775064 
L 187.218406 161.596583 
L 190.413169 161.596583 
L 190.413169 157.833752 
L 193.487346 157.833752 
L 193.487346 156.447446 
L 196.449709 156.447446 
L 196.449709 154.467009 
L 199.308109 154.467009 
L 199.308109 149.71396 
L 202.069594 149.71396 
L 202.069594 148.327654 
L 204.740523 148.327654 
L 204.740523 146.149174 
L 207.326645 146.149174 
L 207.326645 144.960911 
L 209.833182 144.960911 
L 209.833182 143.376562 
L 212.264886 143.376562 
L 212.264886 141.000037 
L 214.626095 141.000037 
L 214.626095 139.811775 
L 216.920782 139.811775 
L 216.920782 139.415687 
L 219.152594 139.415687 
L 219.152594 137.43525 
L 221.324883 137.43525 
L 221.324883 136.048944 
L 223.440743 136.048944 
L 223.440743 134.266551 
L 225.503031 134.266551 
L 225.503031 133.67242 
L 227.514393 133.67242 
L 227.514393 132.880245 
L 229.477283 132.880245 
L 229.477283 130.899808 
L 231.393984 130.899808 
L 231.393984 128.919371 
L 233.266618 128.919371 
L 233.266618 124.958497 
L 235.097168 124.958497 
L 235.097168 124.562409 
L 236.887482 124.562409 
L 236.887482 122.978059 
L 238.639292 122.978059 
L 238.639292 121.195666 
L 240.354219 121.195666 
L 240.354219 120.403491 
L 242.033784 120.403491 
L 242.033784 116.04653 
L 243.679416 116.04653 
L 243.679416 115.650442 
L 245.292459 115.650442 
L 245.292459 114.858267 
L 246.874179 114.858267 
L 246.874179 114.264136 
L 248.425769 114.264136 
L 248.425769 113.670005 
L 249.948356 113.670005 
L 249.948356 110.501306 
L 251.443004 110.501306 
L 251.443004 109.709131 
L 252.91072 109.709131 
L 252.91072 109.115 
L 254.352457 109.115 
L 254.352457 108.916956 
L 255.769119 108.916956 
L 255.769119 108.520869 
L 257.161563 108.520869 
L 257.161563 107.926737 
L 258.530604 107.926737 
L 258.530604 107.728694 
L 259.877015 107.728694 
L 259.877015 107.53065 
L 261.201533 107.53065 
L 261.201533 107.134563 
L 262.504857 107.134563 
L 262.504857 106.738475 
L 263.787655 106.738475 
L 263.787655 103.965863 
L 266.294192 103.965863 
L 266.294192 103.76782 
L 268.725896 103.76782 
L 268.725896 103.371732 
L 269.915056 103.371732 
L 269.915056 100.797164 
L 271.087105 100.797164 
L 271.087105 100.401076 
L 273.381793 100.401076 
L 273.381793 99.410858 
L 275.613604 99.410858 
L 275.613604 97.430421 
L 276.70699 97.430421 
L 276.70699 96.83629 
L 277.785893 96.83629 
L 277.785893 96.044115 
L 278.850693 96.044115 
L 278.850693 95.846071 
L 279.901753 95.846071 
L 279.901753 95.449984 
L 280.939423 95.449984 
L 280.939423 92.479328 
L 281.964041 92.479328 
L 281.964041 91.291066 
L 282.97593 91.291066 
L 282.97593 90.894978 
L 283.975403 90.894978 
L 283.975403 90.498891 
L 284.962761 90.498891 
L 284.962761 89.508672 
L 285.938293 89.508672 
L 285.938293 88.518454 
L 286.902281 88.518454 
L 286.902281 87.330192 
L 287.854994 87.330192 
L 287.854994 87.132148 
L 288.796693 87.132148 
L 288.796693 86.934104 
L 289.727629 86.934104 
L 289.727629 86.538017 
L 290.648045 86.538017 
L 290.648045 84.953667 
L 291.558178 84.953667 
L 291.558178 84.755623 
L 292.458254 84.755623 
L 292.458254 84.161492 
L 293.348492 84.161492 
L 293.348492 82.775186 
L 294.229107 82.775186 
L 294.229107 82.379099 
L 295.100302 82.379099 
L 295.100302 80.398662 
L 296.815229 80.398662 
L 296.815229 79.804531 
L 297.65934 79.804531 
L 297.65934 79.606487 
L 299.321766 79.606487 
L 299.321766 78.616268 
L 301.753469 78.616268 
L 301.753469 78.418225 
L 303.335189 78.418225 
L 303.335189 77.824093 
L 305.65163 77.824093 
L 305.65163 77.031919 
L 306.409366 77.031919 
L 306.409366 76.635831 
L 307.160118 76.635831 
L 307.160118 74.655394 
L 307.904014 74.655394 
L 307.904014 73.863219 
L 309.37173 73.863219 
L 309.37173 73.665176 
L 310.095788 73.665176 
L 310.095788 73.467132 
L 310.813467 73.467132 
L 310.813467 72.873001 
L 312.929327 72.873001 
L 312.929327 72.476913 
L 313.622574 72.476913 
L 313.622574 71.684738 
L 314.30997 71.684738 
L 314.30997 70.100389 
L 314.991615 70.100389 
L 314.991615 69.902345 
L 317.662543 69.902345 
L 317.662543 69.11017 
L 318.316812 69.11017 
L 318.316812 68.516039 
L 319.609792 68.516039 
L 319.609792 68.317995 
L 320.882568 68.317995 
L 320.882568 66.931689 
L 322.135762 66.931689 
L 322.135762 66.733646 
L 323.980128 66.733646 
L 323.980128 66.535602 
L 325.783656 66.535602 
L 325.783656 66.337558 
L 326.376066 66.337558 
L 326.376066 65.941471 
L 326.964199 65.941471 
L 326.964199 64.555165 
L 328.127876 64.555165 
L 328.127876 64.159077 
L 329.842803 64.159077 
L 329.842803 63.76299 
L 331.522368 63.76299 
L 331.522368 63.564946 
L 333.168 63.564946 
L 333.168 63.366903 
L 333.168 63.366903 
" style="fill:none;stroke:#ff0000;stroke-linecap:square;stroke-width:1.5;"/>
   </g>
   <g id="line2d_46">
    <defs>
     <path d="M 0 -6 
L -5.196152 -3 
L -5.196152 3 
L -0 6 
L 5.196152 3 
L 5.196152 -3 
z
" id="m24175c2e68" style="stroke:#ff0000;stroke-linejoin:miter;stroke-width:1.5;"/>
    </defs>
    <g>
     <use style="fill-opacity:0;stroke:#ff0000;stroke-linejoin:miter;stroke-width:1.5;" x="83.527689" xlink:href="#m24175c2e68" y="244.774941"/>
     <use style="fill-opacity:0;stroke:#ff0000;stroke-linejoin:miter;stroke-width:1.5;" x="139.988699" xlink:href="#m24175c2e68" y="200.017063"/>
     <use style="fill-opacity:0;stroke:#ff0000;stroke-linejoin:miter;stroke-width:1.5;" x="196.449709" xlink:href="#m24175c2e68" y="156.447446"/>
     <use style="fill-opacity:0;stroke:#ff0000;stroke-linejoin:miter;stroke-width:1.5;" x="262.504857" xlink:href="#m24175c2e68" y="106.738475"/>
     <use style="fill-opacity:0;stroke:#ff0000;stroke-linejoin:miter;stroke-width:1.5;" x="297.65934" xlink:href="#m24175c2e68" y="79.606487"/>
     <use style="fill-opacity:0;stroke:#ff0000;stroke-linejoin:miter;stroke-width:1.5;" x="333.168" xlink:href="#m24175c2e68" y="63.564946"/>
     <use style="fill-opacity:0;stroke:#ff0000;stroke-linejoin:miter;stroke-width:1.5;" x="333.168" xlink:href="#m24175c2e68" y="63.366903"/>
    </g>
   </g>
   <g id="line2d_47">
    <path style="fill:none;stroke:#ff0000;stroke-linecap:square;stroke-width:1.5;"/>
    <g/>
   </g>
   <g id="line2d_48">
    <path clip-path="url(#pb4470d2822)" d="M 333.168 63.366903 
" style="fill:none;stroke:#ff0000;stroke-linecap:square;stroke-width:1.5;"/>
    <defs>
     <path d="M -12 12 
L 12 -12 
M -12 -12 
L 12 12 
" id="m08ae74c086" style="stroke:#ff0000;"/>
    </defs>
    <g clip-path="url(#pb4470d2822)">
     <use style="fill:#ff0000;stroke:#ff0000;" x="333.168" xlink:href="#m08ae74c086" y="63.366903"/>
    </g>
   </g>
   <g id="line2d_49">
    <path d="M 333.168 156.051359 
L 363.64328 289.176341 
" style="fill:none;stroke:#000080;stroke-linecap:square;stroke-width:1.5;"/>
    <g>
     <use style="fill-opacity:0;stroke:#000080;stroke-width:1.5;" x="333.168" xlink:href="#m5e0b9b5317" y="156.051359"/>
     <use style="fill-opacity:0;stroke:#000080;stroke-width:1.5;" x="363.64328" xlink:href="#m5e0b9b5317" y="289.176341"/>
    </g>
   </g>
   <g id="line2d_50">
    <path d="M 333.168 74.45735 
L 363.64328 234.421216 
" style="fill:none;stroke:#ff00ff;stroke-linecap:square;stroke-width:1.5;"/>
    <g>
     <use style="fill-opacity:0;stroke:#ff00ff;stroke-linejoin:miter;stroke-width:1.5;" x="333.168" xlink:href="#me8049175bf" y="74.45735"/>
     <use style="fill-opacity:0;stroke:#ff00ff;stroke-linejoin:miter;stroke-width:1.5;" x="363.64328" xlink:href="#me8049175bf" y="234.421216"/>
    </g>
   </g>
   <g id="line2d_51">
    <path d="M 333.168 66.931689 
L 363.64328 179.666091 
" style="fill:none;stroke:#ffa500;stroke-linecap:square;stroke-width:1.5;"/>
    <g>
     <use style="fill-opacity:0;stroke:#ffa500;stroke-linejoin:bevel;stroke-width:1.5;" x="333.168" xlink:href="#m1233ed570a" y="66.931689"/>
     <use style="fill-opacity:0;stroke:#ffa500;stroke-linejoin:bevel;stroke-width:1.5;" x="363.64328" xlink:href="#m1233ed570a" y="179.666091"/>
    </g>
   </g>
   <g id="line2d_52">
    <path d="M 333.168 65.545383 
L 363.64328 124.910966 
" style="fill:none;stroke:#6495ed;stroke-linecap:square;stroke-width:1.5;"/>
    <g>
     <use style="fill-opacity:0;stroke:#6495ed;stroke-linejoin:miter;stroke-width:1.5;" x="333.168" xlink:href="#m720c702d69" y="65.545383"/>
     <use style="fill-opacity:0;stroke:#6495ed;stroke-linejoin:miter;stroke-width:1.5;" x="363.64328" xlink:href="#m720c702d69" y="124.910966"/>
    </g>
   </g>
   <g id="line2d_53">
    <path d="M 333.168 63.366903 
L 363.64328 70.155841 
" style="fill:none;stroke:#ff0000;stroke-linecap:square;stroke-width:1.5;"/>
    <g>
     <use style="fill-opacity:0;stroke:#ff0000;stroke-linejoin:miter;stroke-width:1.5;" x="333.168" xlink:href="#m24175c2e68" y="63.366903"/>
     <use style="fill-opacity:0;stroke:#ff0000;stroke-linejoin:miter;stroke-width:1.5;" x="363.64328" xlink:href="#m24175c2e68" y="70.155841"/>
    </g>
   </g>
   <g id="line2d_54">
    <path d="M 333.168 294.88 
L 333.168 9.697057 
" style="fill:none;stroke:#000000;stroke-linecap:square;stroke-width:1.5;"/>
   </g>
   <g id="patch_3">
    <path d="M 56.12 294.88 
L 56.12 6.845228 
" style="fill:none;stroke:#000000;stroke-linecap:square;stroke-linejoin:miter;stroke-width:0.8;"/>
   </g>
   <g id="patch_4">
    <path d="M 333.168 294.88 
L 333.168 6.845228 
" style="fill:none;stroke:#000000;stroke-linecap:square;stroke-linejoin:miter;stroke-width:0.8;"/>
   </g>
   <g id="patch_5">
    <path d="M 56.12 294.88 
L 333.168 294.88 
" style="fill:none;stroke:#000000;stroke-linecap:square;stroke-linejoin:miter;stroke-width:0.8;"/>
   </g>
   <g id="patch_6">
    <path d="M 56.12 6.845228 
L 333.168 6.845228 
" style="fill:none;stroke:#000000;stroke-linecap:square;stroke-linejoin:miter;stroke-width:0.8;"/>
   </g>
   <g id="text_10">
    <!-- random -->
    <g transform="translate(369.18424 293.867279)scale(0.17 -0.17)">
     <use xlink:href="#DejaVuSans-72"/>
     <use x="41.113281" xlink:href="#DejaVuSans-61"/>
     <use x="102.392578" xlink:href="#DejaVuSans-6e"/>
     <use x="165.771484" xlink:href="#DejaVuSans-64"/>
     <use x="229.248047" xlink:href="#DejaVuSans-6f"/>
     <use x="290.429688" xlink:href="#DejaVuSans-6d"/>
    </g>
   </g>
   <g id="text_11">
    <!-- M -->
    <defs>
     <path d="M 9.8125 72.90625 
L 24.515625 72.90625 
L 43.109375 23.296875 
L 61.8125 72.90625 
L 76.515625 72.90625 
L 76.515625 0 
L 66.890625 0 
L 66.890625 64.015625 
L 48.09375 14.015625 
L 38.1875 14.015625 
L 19.390625 64.015625 
L 19.390625 0 
L 9.8125 0 
z
" id="DejaVuSans-4d"/>
    </defs>
    <g transform="translate(369.18424 239.112154)scale(0.17 -0.17)">
     <use xlink:href="#DejaVuSans-4d"/>
    </g>
   </g>
   <g id="text_12">
    <!-- S -->
    <defs>
     <path d="M 53.515625 70.515625 
L 53.515625 60.890625 
Q 47.90625 63.578125 42.921875 64.890625 
Q 37.9375 66.21875 33.296875 66.21875 
Q 25.25 66.21875 20.875 63.09375 
Q 16.5 59.96875 16.5 54.203125 
Q 16.5 49.359375 19.40625 46.890625 
Q 22.3125 44.4375 30.421875 42.921875 
L 36.375 41.703125 
Q 47.40625 39.59375 52.65625 34.296875 
Q 57.90625 29 57.90625 20.125 
Q 57.90625 9.515625 50.796875 4.046875 
Q 43.703125 -1.421875 29.984375 -1.421875 
Q 24.8125 -1.421875 18.96875 -0.25 
Q 13.140625 0.921875 6.890625 3.21875 
L 6.890625 13.375 
Q 12.890625 10.015625 18.65625 8.296875 
Q 24.421875 6.59375 29.984375 6.59375 
Q 38.421875 6.59375 43.015625 9.90625 
Q 47.609375 13.234375 47.609375 19.390625 
Q 47.609375 24.75 44.3125 27.78125 
Q 41.015625 30.8125 33.5 32.328125 
L 27.484375 33.5 
Q 16.453125 35.6875 11.515625 40.375 
Q 6.59375 45.0625 6.59375 53.421875 
Q 6.59375 63.09375 13.40625 68.65625 
Q 20.21875 74.21875 32.171875 74.21875 
Q 37.3125 74.21875 42.625 73.28125 
Q 47.953125 72.359375 53.515625 70.515625 
z
" id="DejaVuSans-53"/>
    </defs>
    <g transform="translate(369.18424 184.357029)scale(0.17 -0.17)">
     <use xlink:href="#DejaVuSans-53"/>
    </g>
   </g>
   <g id="text_13">
    <!-- MeanM -->
    <g transform="translate(369.18424 129.601904)scale(0.17 -0.17)">
     <use xlink:href="#DejaVuSans-4d"/>
     <use x="86.279297" xlink:href="#DejaVuSans-65"/>
     <use x="147.802734" xlink:href="#DejaVuSans-61"/>
     <use x="209.082031" xlink:href="#DejaVuSans-6e"/>
     <use x="272.460938" xlink:href="#DejaVuSans-4d"/>
    </g>
   </g>
   <g id="text_14">
    <!-- MeanS -->
    <g transform="translate(369.18424 74.846779)scale(0.17 -0.17)">
     <use xlink:href="#DejaVuSans-4d"/>
     <use x="86.279297" xlink:href="#DejaVuSans-65"/>
     <use x="147.802734" xlink:href="#DejaVuSans-61"/>
     <use x="209.082031" xlink:href="#DejaVuSans-6e"/>
     <use x="272.460938" xlink:href="#DejaVuSans-53"/>
    </g>
   </g>
   <g id="text_15">
    <!-- best09 -->
    <defs>
     <path d="M 48.6875 27.296875 
Q 48.6875 37.203125 44.609375 42.84375 
Q 40.53125 48.484375 33.40625 48.484375 
Q 26.265625 48.484375 22.1875 42.84375 
Q 18.109375 37.203125 18.109375 27.296875 
Q 18.109375 17.390625 22.1875 11.75 
Q 26.265625 6.109375 33.40625 6.109375 
Q 40.53125 6.109375 44.609375 11.75 
Q 48.6875 17.390625 48.6875 27.296875 
z
M 18.109375 46.390625 
Q 20.953125 51.265625 25.265625 53.625 
Q 29.59375 56 35.59375 56 
Q 45.5625 56 51.78125 48.09375 
Q 58.015625 40.1875 58.015625 27.296875 
Q 58.015625 14.40625 51.78125 6.484375 
Q 45.5625 -1.421875 35.59375 -1.421875 
Q 29.59375 -1.421875 25.265625 0.953125 
Q 20.953125 3.328125 18.109375 8.203125 
L 18.109375 0 
L 9.078125 0 
L 9.078125 75.984375 
L 18.109375 75.984375 
z
" id="DejaVuSans-62"/>
     <path d="M 10.984375 1.515625 
L 10.984375 10.5 
Q 14.703125 8.734375 18.5 7.8125 
Q 22.3125 6.890625 25.984375 6.890625 
Q 35.75 6.890625 40.890625 13.453125 
Q 46.046875 20.015625 46.78125 33.40625 
Q 43.953125 29.203125 39.59375 26.953125 
Q 35.25 24.703125 29.984375 24.703125 
Q 19.046875 24.703125 12.671875 31.3125 
Q 6.296875 37.9375 6.296875 49.421875 
Q 6.296875 60.640625 12.9375 67.421875 
Q 19.578125 74.21875 30.609375 74.21875 
Q 43.265625 74.21875 49.921875 64.515625 
Q 56.59375 54.828125 56.59375 36.375 
Q 56.59375 19.140625 48.40625 8.859375 
Q 40.234375 -1.421875 26.421875 -1.421875 
Q 22.703125 -1.421875 18.890625 -0.6875 
Q 15.09375 0.046875 10.984375 1.515625 
z
M 30.609375 32.421875 
Q 37.25 32.421875 41.125 36.953125 
Q 45.015625 41.5 45.015625 49.421875 
Q 45.015625 57.28125 41.125 61.84375 
Q 37.25 66.40625 30.609375 66.40625 
Q 23.96875 66.40625 20.09375 61.84375 
Q 16.21875 57.28125 16.21875 49.421875 
Q 16.21875 41.5 20.09375 36.953125 
Q 23.96875 32.421875 30.609375 32.421875 
z
" id="DejaVuSans-39"/>
    </defs>
    <g transform="translate(369.18424 20.091654)scale(0.17 -0.17)">
     <use xlink:href="#DejaVuSans-62"/>
     <use x="63.476562" xlink:href="#DejaVuSans-65"/>
     <use x="125" xlink:href="#DejaVuSans-73"/>
     <use x="177.099609" xlink:href="#DejaVuSans-74"/>
     <use x="216.308594" xlink:href="#DejaVuSans-30"/>
     <use x="279.931641" xlink:href="#DejaVuSans-39"/>
    </g>
   </g>
   <g id="text_16">
    <!-- bbob f1-f24, 5-D -->
    <defs>
     <path d="M 10.796875 72.90625 
L 49.515625 72.90625 
L 49.515625 64.59375 
L 19.828125 64.59375 
L 19.828125 46.734375 
Q 21.96875 47.46875 24.109375 47.828125 
Q 26.265625 48.1875 28.421875 48.1875 
Q 40.625 48.1875 47.75 41.5 
Q 54.890625 34.8125 54.890625 23.390625 
Q 54.890625 11.625 47.5625 5.09375 
Q 40.234375 -1.421875 26.90625 -1.421875 
Q 22.3125 -1.421875 17.546875 -0.640625 
Q 12.796875 0.140625 7.71875 1.703125 
L 7.71875 11.625 
Q 12.109375 9.234375 16.796875 8.0625 
Q 21.484375 6.890625 26.703125 6.890625 
Q 35.15625 6.890625 40.078125 11.328125 
Q 45.015625 15.765625 45.015625 23.390625 
Q 45.015625 31 40.078125 35.4375 
Q 35.15625 39.890625 26.703125 39.890625 
Q 22.75 39.890625 18.8125 39.015625 
Q 14.890625 38.140625 10.796875 36.28125 
z
" id="DejaVuSans-35"/>
     <path d="M 19.671875 64.796875 
L 19.671875 8.109375 
L 31.59375 8.109375 
Q 46.6875 8.109375 53.6875 14.9375 
Q 60.6875 21.78125 60.6875 36.53125 
Q 60.6875 51.171875 53.6875 57.984375 
Q 46.6875 64.796875 31.59375 64.796875 
z
M 9.8125 72.90625 
L 30.078125 72.90625 
Q 51.265625 72.90625 61.171875 64.09375 
Q 71.09375 55.28125 71.09375 36.53125 
Q 71.09375 17.671875 61.125 8.828125 
Q 51.171875 0 30.078125 0 
L 9.8125 0 
z
" id="DejaVuSans-44"/>
    </defs>
    <g transform="translate(58.89048 17.475982)scale(0.102 -0.102)">
     <use xlink:href="#DejaVuSans-62"/>
     <use x="63.476562" xlink:href="#DejaVuSans-62"/>
     <use x="126.953125" xlink:href="#DejaVuSans-6f"/>
     <use x="188.134766" xlink:href="#DejaVuSans-62"/>
     <use x="251.611328" xlink:href="#DejaVuSans-20"/>
     <use x="283.398438" xlink:href="#DejaVuSans-66"/>
     <use x="318.603516" xlink:href="#DejaVuSans-31"/>
     <use x="382.226562" xlink:href="#DejaVuSans-2d"/>
     <use x="418.310547" xlink:href="#DejaVuSans-66"/>
     <use x="453.515625" xlink:href="#DejaVuSans-32"/>
     <use x="517.138672" xlink:href="#DejaVuSans-34"/>
     <use x="580.761719" xlink:href="#DejaVuSans-2c"/>
     <use x="612.548828" xlink:href="#DejaVuSans-20"/>
     <use x="644.335938" xlink:href="#DejaVuSans-35"/>
     <use x="707.958984" xlink:href="#DejaVuSans-2d"/>
     <use x="744.042969" xlink:href="#DejaVuSans-44"/>
    </g>
    <!-- 8 targets RLs/dim: 0.5..20 -->
    <defs>
     <path d="M 44.390625 34.1875 
Q 47.5625 33.109375 50.5625 29.59375 
Q 53.5625 26.078125 56.59375 19.921875 
L 66.609375 0 
L 56 0 
L 46.6875 18.703125 
Q 43.0625 26.03125 39.671875 28.421875 
Q 36.28125 30.8125 30.421875 30.8125 
L 19.671875 30.8125 
L 19.671875 0 
L 9.8125 0 
L 9.8125 72.90625 
L 32.078125 72.90625 
Q 44.578125 72.90625 50.734375 67.671875 
Q 56.890625 62.453125 56.890625 51.90625 
Q 56.890625 45.015625 53.6875 40.46875 
Q 50.484375 35.9375 44.390625 34.1875 
z
M 19.671875 64.796875 
L 19.671875 38.921875 
L 32.078125 38.921875 
Q 39.203125 38.921875 42.84375 42.21875 
Q 46.484375 45.515625 46.484375 51.90625 
Q 46.484375 58.296875 42.84375 61.546875 
Q 39.203125 64.796875 32.078125 64.796875 
z
" id="DejaVuSans-52"/>
     <path d="M 9.8125 72.90625 
L 19.671875 72.90625 
L 19.671875 8.296875 
L 55.171875 8.296875 
L 55.171875 0 
L 9.8125 0 
z
" id="DejaVuSans-4c"/>
     <path d="M 11.71875 12.40625 
L 22.015625 12.40625 
L 22.015625 0 
L 11.71875 0 
z
M 11.71875 51.703125 
L 22.015625 51.703125 
L 22.015625 39.3125 
L 11.71875 39.3125 
z
" id="DejaVuSans-3a"/>
    </defs>
    <g transform="translate(58.89048 28.89775)scale(0.102 -0.102)">
     <use xlink:href="#DejaVuSans-38"/>
     <use x="63.623047" xlink:href="#DejaVuSans-20"/>
     <use x="95.410156" xlink:href="#DejaVuSans-74"/>
     <use x="134.619141" xlink:href="#DejaVuSans-61"/>
     <use x="195.898438" xlink:href="#DejaVuSans-72"/>
     <use x="236.996094" xlink:href="#DejaVuSans-67"/>
     <use x="300.472656" xlink:href="#DejaVuSans-65"/>
     <use x="361.996094" xlink:href="#DejaVuSans-74"/>
     <use x="401.205078" xlink:href="#DejaVuSans-73"/>
     <use x="453.304688" xlink:href="#DejaVuSans-20"/>
     <use x="485.091797" xlink:href="#DejaVuSans-52"/>
     <use x="554.574219" xlink:href="#DejaVuSans-4c"/>
     <use x="610.287109" xlink:href="#DejaVuSans-73"/>
     <use x="662.386719" xlink:href="#DejaVuSans-2f"/>
     <use x="696.078125" xlink:href="#DejaVuSans-64"/>
     <use x="759.554688" xlink:href="#DejaVuSans-69"/>
     <use x="787.337891" xlink:href="#DejaVuSans-6d"/>
     <use x="884.75" xlink:href="#DejaVuSans-3a"/>
     <use x="918.441406" xlink:href="#DejaVuSans-20"/>
     <use x="950.228516" xlink:href="#DejaVuSans-30"/>
     <use x="1013.851562" xlink:href="#DejaVuSans-2e"/>
     <use x="1045.638672" xlink:href="#DejaVuSans-35"/>
     <use x="1109.261719" xlink:href="#DejaVuSans-2e"/>
     <use x="1141.048828" xlink:href="#DejaVuSans-2e"/>
     <use x="1172.835938" xlink:href="#DejaVuSans-32"/>
     <use x="1236.458984" xlink:href="#DejaVuSans-30"/>
    </g>
    <!--   from /home/local/EMSE2000/leriche/AESOP/EXPE_DOCOCO/bestCustomAlg -->
    <defs>
     <path d="M 54.890625 33.015625 
L 54.890625 0 
L 45.90625 0 
L 45.90625 32.71875 
Q 45.90625 40.484375 42.875 44.328125 
Q 39.84375 48.1875 33.796875 48.1875 
Q 26.515625 48.1875 22.3125 43.546875 
Q 18.109375 38.921875 18.109375 30.90625 
L 18.109375 0 
L 9.078125 0 
L 9.078125 75.984375 
L 18.109375 75.984375 
L 18.109375 46.1875 
Q 21.34375 51.125 25.703125 53.5625 
Q 30.078125 56 35.796875 56 
Q 45.21875 56 50.046875 50.171875 
Q 54.890625 44.34375 54.890625 33.015625 
z
" id="DejaVuSans-68"/>
     <path d="M 9.8125 72.90625 
L 55.90625 72.90625 
L 55.90625 64.59375 
L 19.671875 64.59375 
L 19.671875 43.015625 
L 54.390625 43.015625 
L 54.390625 34.71875 
L 19.671875 34.71875 
L 19.671875 8.296875 
L 56.78125 8.296875 
L 56.78125 0 
L 9.8125 0 
z
" id="DejaVuSans-45"/>
     <path d="M 34.1875 63.1875 
L 20.796875 26.90625 
L 47.609375 26.90625 
z
M 28.609375 72.90625 
L 39.796875 72.90625 
L 67.578125 0 
L 57.328125 0 
L 50.6875 18.703125 
L 17.828125 18.703125 
L 11.1875 0 
L 0.78125 0 
z
" id="DejaVuSans-41"/>
     <path d="M 39.40625 66.21875 
Q 28.65625 66.21875 22.328125 58.203125 
Q 16.015625 50.203125 16.015625 36.375 
Q 16.015625 22.609375 22.328125 14.59375 
Q 28.65625 6.59375 39.40625 6.59375 
Q 50.140625 6.59375 56.421875 14.59375 
Q 62.703125 22.609375 62.703125 36.375 
Q 62.703125 50.203125 56.421875 58.203125 
Q 50.140625 66.21875 39.40625 66.21875 
z
M 39.40625 74.21875 
Q 54.734375 74.21875 63.90625 63.9375 
Q 73.09375 53.65625 73.09375 36.375 
Q 73.09375 19.140625 63.90625 8.859375 
Q 54.734375 -1.421875 39.40625 -1.421875 
Q 24.03125 -1.421875 14.8125 8.828125 
Q 5.609375 19.09375 5.609375 36.375 
Q 5.609375 53.65625 14.8125 63.9375 
Q 24.03125 74.21875 39.40625 74.21875 
z
" id="DejaVuSans-4f"/>
     <path d="M 19.671875 64.796875 
L 19.671875 37.40625 
L 32.078125 37.40625 
Q 38.96875 37.40625 42.71875 40.96875 
Q 46.484375 44.53125 46.484375 51.125 
Q 46.484375 57.671875 42.71875 61.234375 
Q 38.96875 64.796875 32.078125 64.796875 
z
M 9.8125 72.90625 
L 32.078125 72.90625 
Q 44.34375 72.90625 50.609375 67.359375 
Q 56.890625 61.8125 56.890625 51.125 
Q 56.890625 40.328125 50.609375 34.8125 
Q 44.34375 29.296875 32.078125 29.296875 
L 19.671875 29.296875 
L 19.671875 0 
L 9.8125 0 
z
" id="DejaVuSans-50"/>
     <path d="M 6.296875 72.90625 
L 16.890625 72.90625 
L 35.015625 45.796875 
L 53.21875 72.90625 
L 63.8125 72.90625 
L 40.375 37.890625 
L 65.375 0 
L 54.78125 0 
L 34.28125 31 
L 13.625 0 
L 2.984375 0 
L 29 38.921875 
z
" id="DejaVuSans-58"/>
     <path d="M 50.984375 -16.609375 
L 50.984375 -23.578125 
L -0.984375 -23.578125 
L -0.984375 -16.609375 
z
" id="DejaVuSans-5f"/>
     <path d="M 64.40625 67.28125 
L 64.40625 56.890625 
Q 59.421875 61.53125 53.78125 63.8125 
Q 48.140625 66.109375 41.796875 66.109375 
Q 29.296875 66.109375 22.65625 58.46875 
Q 16.015625 50.828125 16.015625 36.375 
Q 16.015625 21.96875 22.65625 14.328125 
Q 29.296875 6.6875 41.796875 6.6875 
Q 48.140625 6.6875 53.78125 8.984375 
Q 59.421875 11.28125 64.40625 15.921875 
L 64.40625 5.609375 
Q 59.234375 2.09375 53.4375 0.328125 
Q 47.65625 -1.421875 41.21875 -1.421875 
Q 24.65625 -1.421875 15.125 8.703125 
Q 5.609375 18.84375 5.609375 36.375 
Q 5.609375 53.953125 15.125 64.078125 
Q 24.65625 74.21875 41.21875 74.21875 
Q 47.75 74.21875 53.53125 72.484375 
Q 59.328125 70.75 64.40625 67.28125 
z
" id="DejaVuSans-43"/>
    </defs>
    <g transform="translate(58.89048 40.319519)scale(0.102 -0.102)">
     <use xlink:href="#DejaVuSans-20"/>
     <use x="31.787109" xlink:href="#DejaVuSans-20"/>
     <use x="63.574219" xlink:href="#DejaVuSans-66"/>
     <use x="98.779297" xlink:href="#DejaVuSans-72"/>
     <use x="139.861328" xlink:href="#DejaVuSans-6f"/>
     <use x="201.042969" xlink:href="#DejaVuSans-6d"/>
     <use x="298.455078" xlink:href="#DejaVuSans-20"/>
     <use x="330.242188" xlink:href="#DejaVuSans-2f"/>
     <use x="363.933594" xlink:href="#DejaVuSans-68"/>
     <use x="427.3125" xlink:href="#DejaVuSans-6f"/>
     <use x="488.494141" xlink:href="#DejaVuSans-6d"/>
     <use x="585.90625" xlink:href="#DejaVuSans-65"/>
     <use x="647.429688" xlink:href="#DejaVuSans-2f"/>
     <use x="681.121094" xlink:href="#DejaVuSans-6c"/>
     <use x="708.904297" xlink:href="#DejaVuSans-6f"/>
     <use x="770.085938" xlink:href="#DejaVuSans-63"/>
     <use x="825.066406" xlink:href="#DejaVuSans-61"/>
     <use x="886.345703" xlink:href="#DejaVuSans-6c"/>
     <use x="914.128906" xlink:href="#DejaVuSans-2f"/>
     <use x="947.820312" xlink:href="#DejaVuSans-45"/>
     <use x="1011.003906" xlink:href="#DejaVuSans-4d"/>
     <use x="1097.283203" xlink:href="#DejaVuSans-53"/>
     <use x="1160.759766" xlink:href="#DejaVuSans-45"/>
     <use x="1223.943359" xlink:href="#DejaVuSans-32"/>
     <use x="1287.566406" xlink:href="#DejaVuSans-30"/>
     <use x="1351.189453" xlink:href="#DejaVuSans-30"/>
     <use x="1414.8125" xlink:href="#DejaVuSans-30"/>
     <use x="1478.435547" xlink:href="#DejaVuSans-2f"/>
     <use x="1512.126953" xlink:href="#DejaVuSans-6c"/>
     <use x="1539.910156" xlink:href="#DejaVuSans-65"/>
     <use x="1601.433594" xlink:href="#DejaVuSans-72"/>
     <use x="1642.546875" xlink:href="#DejaVuSans-69"/>
     <use x="1670.330078" xlink:href="#DejaVuSans-63"/>
     <use x="1725.310547" xlink:href="#DejaVuSans-68"/>
     <use x="1788.689453" xlink:href="#DejaVuSans-65"/>
     <use x="1850.212891" xlink:href="#DejaVuSans-2f"/>
     <use x="1883.904297" xlink:href="#DejaVuSans-41"/>
     <use x="1952.3125" xlink:href="#DejaVuSans-45"/>
     <use x="2015.496094" xlink:href="#DejaVuSans-53"/>
     <use x="2078.972656" xlink:href="#DejaVuSans-4f"/>
     <use x="2157.683594" xlink:href="#DejaVuSans-50"/>
     <use x="2217.986328" xlink:href="#DejaVuSans-2f"/>
     <use x="2251.677734" xlink:href="#DejaVuSans-45"/>
     <use x="2314.861328" xlink:href="#DejaVuSans-58"/>
     <use x="2383.367188" xlink:href="#DejaVuSans-50"/>
     <use x="2443.669922" xlink:href="#DejaVuSans-45"/>
     <use x="2506.853516" xlink:href="#DejaVuSans-5f"/>
     <use x="2556.853516" xlink:href="#DejaVuSans-44"/>
     <use x="2633.855469" xlink:href="#DejaVuSans-4f"/>
     <use x="2712.566406" xlink:href="#DejaVuSans-43"/>
     <use x="2782.390625" xlink:href="#DejaVuSans-4f"/>
     <use x="2861.101562" xlink:href="#DejaVuSans-43"/>
     <use x="2930.925781" xlink:href="#DejaVuSans-4f"/>
     <use x="3009.636719" xlink:href="#DejaVuSans-2f"/>
     <use x="3043.328125" xlink:href="#DejaVuSans-62"/>
     <use x="3106.804688" xlink:href="#DejaVuSans-65"/>
     <use x="3168.328125" xlink:href="#DejaVuSans-73"/>
     <use x="3220.427734" xlink:href="#DejaVuSans-74"/>
     <use x="3259.636719" xlink:href="#DejaVuSans-43"/>
     <use x="3329.460938" xlink:href="#DejaVuSans-75"/>
     <use x="3392.839844" xlink:href="#DejaVuSans-73"/>
     <use x="3444.939453" xlink:href="#DejaVuSans-74"/>
     <use x="3484.148438" xlink:href="#DejaVuSans-6f"/>
     <use x="3545.330078" xlink:href="#DejaVuSans-6d"/>
     <use x="3642.742188" xlink:href="#DejaVuSans-41"/>
     <use x="3711.150391" xlink:href="#DejaVuSans-6c"/>
     <use x="3738.933594" xlink:href="#DejaVuSans-67"/>
    </g>
    <!-- 15 instances -->
    <g transform="translate(58.89048 52.024975)scale(0.102 -0.102)">
     <use xlink:href="#DejaVuSans-31"/>
     <use x="63.623047" xlink:href="#DejaVuSans-35"/>
     <use x="127.246094" xlink:href="#DejaVuSans-20"/>
     <use x="159.033203" xlink:href="#DejaVuSans-69"/>
     <use x="186.816406" xlink:href="#DejaVuSans-6e"/>
     <use x="250.195312" xlink:href="#DejaVuSans-73"/>
     <use x="302.294922" xlink:href="#DejaVuSans-74"/>
     <use x="341.503906" xlink:href="#DejaVuSans-61"/>
     <use x="402.783203" xlink:href="#DejaVuSans-6e"/>
     <use x="466.162109" xlink:href="#DejaVuSans-63"/>
     <use x="521.142578" xlink:href="#DejaVuSans-65"/>
     <use x="582.666016" xlink:href="#DejaVuSans-73"/>
    </g>
   </g>
   <g id="text_17">
    <!-- v2.3.1 -->
    <defs>
     <path d="M 40.578125 39.3125 
Q 47.65625 37.796875 51.625 33 
Q 55.609375 28.21875 55.609375 21.1875 
Q 55.609375 10.40625 48.1875 4.484375 
Q 40.765625 -1.421875 27.09375 -1.421875 
Q 22.515625 -1.421875 17.65625 -0.515625 
Q 12.796875 0.390625 7.625 2.203125 
L 7.625 11.71875 
Q 11.71875 9.328125 16.59375 8.109375 
Q 21.484375 6.890625 26.8125 6.890625 
Q 36.078125 6.890625 40.9375 10.546875 
Q 45.796875 14.203125 45.796875 21.1875 
Q 45.796875 27.640625 41.28125 31.265625 
Q 36.765625 34.90625 28.71875 34.90625 
L 20.21875 34.90625 
L 20.21875 43.015625 
L 29.109375 43.015625 
Q 36.375 43.015625 40.234375 45.921875 
Q 44.09375 48.828125 44.09375 54.296875 
Q 44.09375 59.90625 40.109375 62.90625 
Q 36.140625 65.921875 28.71875 65.921875 
Q 24.65625 65.921875 20.015625 65.03125 
Q 15.375 64.15625 9.8125 62.3125 
L 9.8125 71.09375 
Q 15.4375 72.65625 20.34375 73.4375 
Q 25.25 74.21875 29.59375 74.21875 
Q 40.828125 74.21875 47.359375 69.109375 
Q 53.90625 64.015625 53.90625 55.328125 
Q 53.90625 49.265625 50.4375 45.09375 
Q 46.96875 40.921875 40.578125 39.3125 
z
" id="DejaVuSans-33"/>
    </defs>
    <g style="fill:#808080;" transform="translate(178.96275 289.919965)scale(0.1 -0.1)">
     <use xlink:href="#DejaVuSans-76"/>
     <use x="59.179688" xlink:href="#DejaVuSans-32"/>
     <use x="122.802734" xlink:href="#DejaVuSans-2e"/>
     <use x="154.589844" xlink:href="#DejaVuSans-33"/>
     <use x="218.212891" xlink:href="#DejaVuSans-2e"/>
     <use x="250" xlink:href="#DejaVuSans-31"/>
    </g>
   </g>
  </g>
 </g>
 <defs>
  <clipPath id="pb4470d2822">
   <rect height="288.034772" width="277.048" x="56.12" y="6.845228"/>
  </clipPath>
 </defs>
</svg>
