<?xml version="1.0" encoding="utf-8" standalone="no"?>
<!DOCTYPE svg PUBLIC "-//W3C//DTD SVG 1.1//EN"
  "http://www.w3.org/Graphics/SVG/1.1/DTD/svg11.dtd">
<!-- Created with matplotlib (http://matplotlib.org/) -->
<svg height="345.6pt" version="1.1" viewBox="0 0 460.8 345.6" width="460.8pt" xmlns="http://www.w3.org/2000/svg" xmlns:xlink="http://www.w3.org/1999/xlink">
 <defs>
  <style type="text/css">
*{stroke-linecap:butt;stroke-linejoin:round;}
  </style>
 </defs>
 <g id="figure_1">
  <g id="patch_1">
   <path d="M 0 345.6 
L 460.8 345.6 
L 460.8 0 
L 0 0 
z
" style="fill:#ffffff;"/>
  </g>
  <g id="axes_1">
   <g id="patch_2">
    <path d="M 56.12 294.88 
L 333.168 294.88 
L 333.168 6.845228 
L 56.12 6.845228 
z
" style="fill:#ffffff;"/>
   </g>
   <g id="line2d_1">
    <path d="M 56.12 294.88 
L 56.12 251.727318 
L 89.147574 251.727318 
L 89.147574 212.327043 
L 112.58101 212.327043 
L 112.58101 208.574636 
L 130.757396 208.574636 
L 130.757396 206.698432 
L 145.608584 206.698432 
L 145.608584 202.946025 
L 158.165085 202.946025 
L 158.165085 184.183989 
L 169.04202 184.183989 
L 169.04202 174.802971 
L 178.636158 174.802971 
L 178.636158 169.174361 
L 187.218406 169.174361 
L 187.218406 165.421954 
L 194.981994 165.421954 
L 194.981994 152.288529 
L 202.069594 152.288529 
L 202.069594 150.412325 
L 208.589554 150.412325 
L 208.589554 146.659918 
L 214.626095 146.659918 
L 214.626095 141.031307 
L 220.24598 141.031307 
L 220.24598 133.526493 
L 225.503031 133.526493 
L 225.503031 127.897882 
L 230.441271 127.897882 
L 230.441271 122.269271 
L 235.097168 122.269271 
L 235.097168 114.764457 
L 239.501268 114.764457 
L 239.501268 111.01205 
L 243.679416 111.01205 
L 243.679416 109.135846 
L 247.653669 109.135846 
L 247.653669 97.878625 
L 251.443004 97.878625 
L 251.443004 96.002421 
L 255.063868 96.002421 
L 255.063868 86.621404 
L 258.530604 86.621404 
L 258.530604 82.868996 
L 261.855802 82.868996 
L 261.855802 79.116589 
L 265.050565 79.116589 
L 265.050565 77.240386 
L 276.70699 77.240386 
L 276.70699 71.611775 
L 279.377918 71.611775 
L 279.377918 65.983164 
L 281.964041 65.983164 
L 281.964041 60.354554 
L 284.470578 60.354554 
L 284.470578 58.47835 
L 286.902281 58.47835 
L 286.902281 56.602146 
L 289.263491 56.602146 
L 289.263491 54.725943 
L 293.789989 54.725943 
L 293.789989 50.973536 
L 300.140426 50.973536 
L 300.140426 49.097332 
L 302.151788 49.097332 
L 302.151788 43.468721 
L 304.114679 43.468721 
L 304.114679 34.087704 
L 307.904014 34.087704 
L 307.904014 32.2115 
L 309.734564 32.2115 
L 309.734564 26.582889 
L 311.524878 26.582889 
L 311.524878 24.706686 
L 314.991615 24.706686 
L 314.991615 22.830482 
L 321.511575 22.830482 
L 321.511575 20.954279 
L 326.0804 20.954279 
L 326.0804 19.078075 
L 331.798959 19.078075 
L 331.798959 17.201871 
L 333.168 17.201871 
" style="fill:none;stroke:#f5deb3;stroke-linecap:square;stroke-width:4;"/>
   </g>
   <g id="line2d_2">
    <defs>
     <path d="M -0 7.778175 
L 7.778175 0 
L 0 -7.778175 
L -7.778175 -0 
z
" id="m0f1a8804a9" style="stroke:#f5deb3;stroke-linejoin:miter;stroke-width:1.5;"/>
    </defs>
    <g>
     <use style="fill:#f5deb3;stroke:#f5deb3;stroke-linejoin:miter;stroke-width:1.5;" x="145.608584" xlink:href="#m0f1a8804a9" y="206.698432"/>
     <use style="fill:#f5deb3;stroke:#f5deb3;stroke-linejoin:miter;stroke-width:1.5;" x="214.626095" xlink:href="#m0f1a8804a9" y="146.659918"/>
     <use style="fill:#f5deb3;stroke:#f5deb3;stroke-linejoin:miter;stroke-width:1.5;" x="265.050565" xlink:href="#m0f1a8804a9" y="79.116589"/>
     <use style="fill:#f5deb3;stroke:#f5deb3;stroke-linejoin:miter;stroke-width:1.5;" x="321.511575" xlink:href="#m0f1a8804a9" y="22.830482"/>
     <use style="fill:#f5deb3;stroke:#f5deb3;stroke-linejoin:miter;stroke-width:1.5;" x="331.798959" xlink:href="#m0f1a8804a9" y="17.201871"/>
     <use style="fill:#f5deb3;stroke:#f5deb3;stroke-linejoin:miter;stroke-width:1.5;" x="333.168" xlink:href="#m0f1a8804a9" y="17.201871"/>
    </g>
   </g>
   <g id="line2d_3">
    <path style="fill:none;stroke:#f5deb3;stroke-linecap:square;stroke-width:4;"/>
    <g/>
   </g>
   <g id="line2d_4">
    <path d="M 333.168 17.201871 
L 363.64328 15.400716 
" style="fill:none;stroke:#f5deb3;stroke-linecap:square;stroke-width:4;"/>
    <g>
     <use style="fill:#f5deb3;stroke:#f5deb3;stroke-linejoin:miter;stroke-width:1.5;" x="333.168" xlink:href="#m0f1a8804a9" y="17.201871"/>
     <use style="fill:#f5deb3;stroke:#f5deb3;stroke-linejoin:miter;stroke-width:1.5;" x="363.64328" xlink:href="#m0f1a8804a9" y="15.400716"/>
    </g>
   </g>
   <g id="matplotlib.axis_1">
    <g id="xtick_1">
     <g id="line2d_5">
      <path clip-path="url(#p92cf914006)" d="M 56.12 294.88 
L 56.12 6.845228 
" style="fill:none;stroke:#b0b0b0;stroke-linecap:square;stroke-width:0.8;"/>
     </g>
     <g id="line2d_6">
      <defs>
       <path d="M 0 0 
L 0 3.5 
" id="mff5da283d5" style="stroke:#000000;stroke-width:0.8;"/>
      </defs>
      <g>
       <use style="stroke:#000000;stroke-width:0.8;" x="56.12" xlink:href="#mff5da283d5" y="294.88"/>
      </g>
     </g>
     <g id="text_1">
      <!-- 0 -->
      <defs>
       <path d="M 31.78125 66.40625 
Q 24.171875 66.40625 20.328125 58.90625 
Q 16.5 51.421875 16.5 36.375 
Q 16.5 21.390625 20.328125 13.890625 
Q 24.171875 6.390625 31.78125 6.390625 
Q 39.453125 6.390625 43.28125 13.890625 
Q 47.125 21.390625 47.125 36.375 
Q 47.125 51.421875 43.28125 58.90625 
Q 39.453125 66.40625 31.78125 66.40625 
z
M 31.78125 74.21875 
Q 44.046875 74.21875 50.515625 64.515625 
Q 56.984375 54.828125 56.984375 36.375 
Q 56.984375 17.96875 50.515625 8.265625 
Q 44.046875 -1.421875 31.78125 -1.421875 
Q 19.53125 -1.421875 13.0625 8.265625 
Q 6.59375 17.96875 6.59375 36.375 
Q 6.59375 54.828125 13.0625 64.515625 
Q 19.53125 74.21875 31.78125 74.21875 
z
" id="DejaVuSans-30"/>
      </defs>
      <g transform="translate(49.7575 317.076875)scale(0.2 -0.2)">
       <use xlink:href="#DejaVuSans-30"/>
      </g>
     </g>
    </g>
    <g id="xtick_2">
     <g id="line2d_7">
      <path clip-path="url(#p92cf914006)" d="M 56.12 294.88 
L 56.12 6.845228 
" style="fill:none;stroke:#b0b0b0;stroke-linecap:square;stroke-width:0.8;"/>
     </g>
     <g id="line2d_8">
      <defs>
       <path d="M 0 0 
L 0 2 
" id="maebbe296a0" style="stroke:#000000;stroke-width:0.6;"/>
      </defs>
      <g>
       <use style="stroke:#000000;stroke-width:0.6;" x="56.12" xlink:href="#maebbe296a0" y="294.88"/>
      </g>
     </g>
    </g>
    <g id="xtick_3">
     <g id="line2d_9">
      <path clip-path="url(#p92cf914006)" d="M 243.679416 294.88 
L 243.679416 6.845228 
" style="fill:none;stroke:#b0b0b0;stroke-linecap:square;stroke-width:0.8;"/>
     </g>
     <g id="line2d_10">
      <g>
       <use style="stroke:#000000;stroke-width:0.6;" x="243.679416" xlink:href="#maebbe296a0" y="294.88"/>
      </g>
     </g>
    </g>
    <g id="text_2">
     <!-- log10(# f-evals / dimension) -->
     <defs>
      <path d="M 9.421875 75.984375 
L 18.40625 75.984375 
L 18.40625 0 
L 9.421875 0 
z
" id="DejaVuSans-6c"/>
      <path d="M 30.609375 48.390625 
Q 23.390625 48.390625 19.1875 42.75 
Q 14.984375 37.109375 14.984375 27.296875 
Q 14.984375 17.484375 19.15625 11.84375 
Q 23.34375 6.203125 30.609375 6.203125 
Q 37.796875 6.203125 41.984375 11.859375 
Q 46.1875 17.53125 46.1875 27.296875 
Q 46.1875 37.015625 41.984375 42.703125 
Q 37.796875 48.390625 30.609375 48.390625 
z
M 30.609375 56 
Q 42.328125 56 49.015625 48.375 
Q 55.71875 40.765625 55.71875 27.296875 
Q 55.71875 13.875 49.015625 6.21875 
Q 42.328125 -1.421875 30.609375 -1.421875 
Q 18.84375 -1.421875 12.171875 6.21875 
Q 5.515625 13.875 5.515625 27.296875 
Q 5.515625 40.765625 12.171875 48.375 
Q 18.84375 56 30.609375 56 
z
" id="DejaVuSans-6f"/>
      <path d="M 45.40625 27.984375 
Q 45.40625 37.75 41.375 43.109375 
Q 37.359375 48.484375 30.078125 48.484375 
Q 22.859375 48.484375 18.828125 43.109375 
Q 14.796875 37.75 14.796875 27.984375 
Q 14.796875 18.265625 18.828125 12.890625 
Q 22.859375 7.515625 30.078125 7.515625 
Q 37.359375 7.515625 41.375 12.890625 
Q 45.40625 18.265625 45.40625 27.984375 
z
M 54.390625 6.78125 
Q 54.390625 -7.171875 48.1875 -13.984375 
Q 42 -20.796875 29.203125 -20.796875 
Q 24.46875 -20.796875 20.265625 -20.09375 
Q 16.0625 -19.390625 12.109375 -17.921875 
L 12.109375 -9.1875 
Q 16.0625 -11.328125 19.921875 -12.34375 
Q 23.78125 -13.375 27.78125 -13.375 
Q 36.625 -13.375 41.015625 -8.765625 
Q 45.40625 -4.15625 45.40625 5.171875 
L 45.40625 9.625 
Q 42.625 4.78125 38.28125 2.390625 
Q 33.9375 0 27.875 0 
Q 17.828125 0 11.671875 7.65625 
Q 5.515625 15.328125 5.515625 27.984375 
Q 5.515625 40.671875 11.671875 48.328125 
Q 17.828125 56 27.875 56 
Q 33.9375 56 38.28125 53.609375 
Q 42.625 51.21875 45.40625 46.390625 
L 45.40625 54.6875 
L 54.390625 54.6875 
z
" id="DejaVuSans-67"/>
      <path d="M 12.40625 8.296875 
L 28.515625 8.296875 
L 28.515625 63.921875 
L 10.984375 60.40625 
L 10.984375 69.390625 
L 28.421875 72.90625 
L 38.28125 72.90625 
L 38.28125 8.296875 
L 54.390625 8.296875 
L 54.390625 0 
L 12.40625 0 
z
" id="DejaVuSans-31"/>
      <path d="M 31 75.875 
Q 24.46875 64.65625 21.28125 53.65625 
Q 18.109375 42.671875 18.109375 31.390625 
Q 18.109375 20.125 21.3125 9.0625 
Q 24.515625 -2 31 -13.1875 
L 23.1875 -13.1875 
Q 15.875 -1.703125 12.234375 9.375 
Q 8.59375 20.453125 8.59375 31.390625 
Q 8.59375 42.28125 12.203125 53.3125 
Q 15.828125 64.359375 23.1875 75.875 
z
" id="DejaVuSans-28"/>
      <path d="M 51.125 44 
L 36.921875 44 
L 32.8125 27.6875 
L 47.125 27.6875 
z
M 43.796875 71.78125 
L 38.71875 51.515625 
L 52.984375 51.515625 
L 58.109375 71.78125 
L 65.921875 71.78125 
L 60.890625 51.515625 
L 76.125 51.515625 
L 76.125 44 
L 58.984375 44 
L 54.984375 27.6875 
L 70.515625 27.6875 
L 70.515625 20.21875 
L 53.078125 20.21875 
L 48 0 
L 40.1875 0 
L 45.21875 20.21875 
L 30.90625 20.21875 
L 25.875 0 
L 18.015625 0 
L 23.09375 20.21875 
L 7.71875 20.21875 
L 7.71875 27.6875 
L 24.90625 27.6875 
L 29 44 
L 13.28125 44 
L 13.28125 51.515625 
L 30.90625 51.515625 
L 35.890625 71.78125 
z
" id="DejaVuSans-23"/>
      <path id="DejaVuSans-20"/>
      <path d="M 37.109375 75.984375 
L 37.109375 68.5 
L 28.515625 68.5 
Q 23.6875 68.5 21.796875 66.546875 
Q 19.921875 64.59375 19.921875 59.515625 
L 19.921875 54.6875 
L 34.71875 54.6875 
L 34.71875 47.703125 
L 19.921875 47.703125 
L 19.921875 0 
L 10.890625 0 
L 10.890625 47.703125 
L 2.296875 47.703125 
L 2.296875 54.6875 
L 10.890625 54.6875 
L 10.890625 58.5 
Q 10.890625 67.625 15.140625 71.796875 
Q 19.390625 75.984375 28.609375 75.984375 
z
" id="DejaVuSans-66"/>
      <path d="M 4.890625 31.390625 
L 31.203125 31.390625 
L 31.203125 23.390625 
L 4.890625 23.390625 
z
" id="DejaVuSans-2d"/>
      <path d="M 56.203125 29.59375 
L 56.203125 25.203125 
L 14.890625 25.203125 
Q 15.484375 15.921875 20.484375 11.0625 
Q 25.484375 6.203125 34.421875 6.203125 
Q 39.59375 6.203125 44.453125 7.46875 
Q 49.3125 8.734375 54.109375 11.28125 
L 54.109375 2.78125 
Q 49.265625 0.734375 44.1875 -0.34375 
Q 39.109375 -1.421875 33.890625 -1.421875 
Q 20.796875 -1.421875 13.15625 6.1875 
Q 5.515625 13.8125 5.515625 26.8125 
Q 5.515625 40.234375 12.765625 48.109375 
Q 20.015625 56 32.328125 56 
Q 43.359375 56 49.78125 48.890625 
Q 56.203125 41.796875 56.203125 29.59375 
z
M 47.21875 32.234375 
Q 47.125 39.59375 43.09375 43.984375 
Q 39.0625 48.390625 32.421875 48.390625 
Q 24.90625 48.390625 20.390625 44.140625 
Q 15.875 39.890625 15.1875 32.171875 
z
" id="DejaVuSans-65"/>
      <path d="M 2.984375 54.6875 
L 12.5 54.6875 
L 29.59375 8.796875 
L 46.6875 54.6875 
L 56.203125 54.6875 
L 35.6875 0 
L 23.484375 0 
z
" id="DejaVuSans-76"/>
      <path d="M 34.28125 27.484375 
Q 23.390625 27.484375 19.1875 25 
Q 14.984375 22.515625 14.984375 16.5 
Q 14.984375 11.71875 18.140625 8.90625 
Q 21.296875 6.109375 26.703125 6.109375 
Q 34.1875 6.109375 38.703125 11.40625 
Q 43.21875 16.703125 43.21875 25.484375 
L 43.21875 27.484375 
z
M 52.203125 31.203125 
L 52.203125 0 
L 43.21875 0 
L 43.21875 8.296875 
Q 40.140625 3.328125 35.546875 0.953125 
Q 30.953125 -1.421875 24.3125 -1.421875 
Q 15.921875 -1.421875 10.953125 3.296875 
Q 6 8.015625 6 15.921875 
Q 6 25.140625 12.171875 29.828125 
Q 18.359375 34.515625 30.609375 34.515625 
L 43.21875 34.515625 
L 43.21875 35.40625 
Q 43.21875 41.609375 39.140625 45 
Q 35.0625 48.390625 27.6875 48.390625 
Q 23 48.390625 18.546875 47.265625 
Q 14.109375 46.140625 10.015625 43.890625 
L 10.015625 52.203125 
Q 14.9375 54.109375 19.578125 55.046875 
Q 24.21875 56 28.609375 56 
Q 40.484375 56 46.34375 49.84375 
Q 52.203125 43.703125 52.203125 31.203125 
z
" id="DejaVuSans-61"/>
      <path d="M 44.28125 53.078125 
L 44.28125 44.578125 
Q 40.484375 46.53125 36.375 47.5 
Q 32.28125 48.484375 27.875 48.484375 
Q 21.1875 48.484375 17.84375 46.4375 
Q 14.5 44.390625 14.5 40.28125 
Q 14.5 37.15625 16.890625 35.375 
Q 19.28125 33.59375 26.515625 31.984375 
L 29.59375 31.296875 
Q 39.15625 29.25 43.1875 25.515625 
Q 47.21875 21.78125 47.21875 15.09375 
Q 47.21875 7.46875 41.1875 3.015625 
Q 35.15625 -1.421875 24.609375 -1.421875 
Q 20.21875 -1.421875 15.453125 -0.5625 
Q 10.6875 0.296875 5.421875 2 
L 5.421875 11.28125 
Q 10.40625 8.6875 15.234375 7.390625 
Q 20.0625 6.109375 24.8125 6.109375 
Q 31.15625 6.109375 34.5625 8.28125 
Q 37.984375 10.453125 37.984375 14.40625 
Q 37.984375 18.0625 35.515625 20.015625 
Q 33.0625 21.96875 24.703125 23.78125 
L 21.578125 24.515625 
Q 13.234375 26.265625 9.515625 29.90625 
Q 5.8125 33.546875 5.8125 39.890625 
Q 5.8125 47.609375 11.28125 51.796875 
Q 16.75 56 26.8125 56 
Q 31.78125 56 36.171875 55.265625 
Q 40.578125 54.546875 44.28125 53.078125 
z
" id="DejaVuSans-73"/>
      <path d="M 25.390625 72.90625 
L 33.6875 72.90625 
L 8.296875 -9.28125 
L 0 -9.28125 
z
" id="DejaVuSans-2f"/>
      <path d="M 45.40625 46.390625 
L 45.40625 75.984375 
L 54.390625 75.984375 
L 54.390625 0 
L 45.40625 0 
L 45.40625 8.203125 
Q 42.578125 3.328125 38.25 0.953125 
Q 33.9375 -1.421875 27.875 -1.421875 
Q 17.96875 -1.421875 11.734375 6.484375 
Q 5.515625 14.40625 5.515625 27.296875 
Q 5.515625 40.1875 11.734375 48.09375 
Q 17.96875 56 27.875 56 
Q 33.9375 56 38.25 53.625 
Q 42.578125 51.265625 45.40625 46.390625 
z
M 14.796875 27.296875 
Q 14.796875 17.390625 18.875 11.75 
Q 22.953125 6.109375 30.078125 6.109375 
Q 37.203125 6.109375 41.296875 11.75 
Q 45.40625 17.390625 45.40625 27.296875 
Q 45.40625 37.203125 41.296875 42.84375 
Q 37.203125 48.484375 30.078125 48.484375 
Q 22.953125 48.484375 18.875 42.84375 
Q 14.796875 37.203125 14.796875 27.296875 
z
" id="DejaVuSans-64"/>
      <path d="M 9.421875 54.6875 
L 18.40625 54.6875 
L 18.40625 0 
L 9.421875 0 
z
M 9.421875 75.984375 
L 18.40625 75.984375 
L 18.40625 64.59375 
L 9.421875 64.59375 
z
" id="DejaVuSans-69"/>
      <path d="M 52 44.1875 
Q 55.375 50.25 60.0625 53.125 
Q 64.75 56 71.09375 56 
Q 79.640625 56 84.28125 50.015625 
Q 88.921875 44.046875 88.921875 33.015625 
L 88.921875 0 
L 79.890625 0 
L 79.890625 32.71875 
Q 79.890625 40.578125 77.09375 44.375 
Q 74.3125 48.1875 68.609375 48.1875 
Q 61.625 48.1875 57.5625 43.546875 
Q 53.515625 38.921875 53.515625 30.90625 
L 53.515625 0 
L 44.484375 0 
L 44.484375 32.71875 
Q 44.484375 40.625 41.703125 44.40625 
Q 38.921875 48.1875 33.109375 48.1875 
Q 26.21875 48.1875 22.15625 43.53125 
Q 18.109375 38.875 18.109375 30.90625 
L 18.109375 0 
L 9.078125 0 
L 9.078125 54.6875 
L 18.109375 54.6875 
L 18.109375 46.1875 
Q 21.1875 51.21875 25.484375 53.609375 
Q 29.78125 56 35.6875 56 
Q 41.65625 56 45.828125 52.96875 
Q 50 49.953125 52 44.1875 
z
" id="DejaVuSans-6d"/>
      <path d="M 54.890625 33.015625 
L 54.890625 0 
L 45.90625 0 
L 45.90625 32.71875 
Q 45.90625 40.484375 42.875 44.328125 
Q 39.84375 48.1875 33.796875 48.1875 
Q 26.515625 48.1875 22.3125 43.546875 
Q 18.109375 38.921875 18.109375 30.90625 
L 18.109375 0 
L 9.078125 0 
L 9.078125 54.6875 
L 18.109375 54.6875 
L 18.109375 46.1875 
Q 21.34375 51.125 25.703125 53.5625 
Q 30.078125 56 35.796875 56 
Q 45.21875 56 50.046875 50.171875 
Q 54.890625 44.34375 54.890625 33.015625 
z
" id="DejaVuSans-6e"/>
      <path d="M 8.015625 75.875 
L 15.828125 75.875 
Q 23.140625 64.359375 26.78125 53.3125 
Q 30.421875 42.28125 30.421875 31.390625 
Q 30.421875 20.453125 26.78125 9.375 
Q 23.140625 -1.703125 15.828125 -13.1875 
L 8.015625 -13.1875 
Q 14.5 -2 17.703125 9.0625 
Q 20.90625 20.125 20.90625 31.390625 
Q 20.90625 42.671875 17.703125 53.65625 
Q 14.5 64.65625 8.015625 75.875 
z
" id="DejaVuSans-29"/>
     </defs>
     <g transform="translate(73.803219 338.153594)scale(0.17 -0.17)">
      <use xlink:href="#DejaVuSans-6c"/>
      <use x="27.783203" xlink:href="#DejaVuSans-6f"/>
      <use x="88.964844" xlink:href="#DejaVuSans-67"/>
      <use x="152.441406" xlink:href="#DejaVuSans-31"/>
      <use x="216.064453" xlink:href="#DejaVuSans-30"/>
      <use x="279.6875" xlink:href="#DejaVuSans-28"/>
      <use x="318.701172" xlink:href="#DejaVuSans-23"/>
      <use x="402.490234" xlink:href="#DejaVuSans-20"/>
      <use x="434.277344" xlink:href="#DejaVuSans-66"/>
      <use x="469.404297" xlink:href="#DejaVuSans-2d"/>
      <use x="505.488281" xlink:href="#DejaVuSans-65"/>
      <use x="567.011719" xlink:href="#DejaVuSans-76"/>
      <use x="626.191406" xlink:href="#DejaVuSans-61"/>
      <use x="687.470703" xlink:href="#DejaVuSans-6c"/>
      <use x="715.253906" xlink:href="#DejaVuSans-73"/>
      <use x="767.353516" xlink:href="#DejaVuSans-20"/>
      <use x="799.140625" xlink:href="#DejaVuSans-2f"/>
      <use x="832.832031" xlink:href="#DejaVuSans-20"/>
      <use x="864.619141" xlink:href="#DejaVuSans-64"/>
      <use x="928.095703" xlink:href="#DejaVuSans-69"/>
      <use x="955.878906" xlink:href="#DejaVuSans-6d"/>
      <use x="1053.291016" xlink:href="#DejaVuSans-65"/>
      <use x="1114.814453" xlink:href="#DejaVuSans-6e"/>
      <use x="1178.193359" xlink:href="#DejaVuSans-73"/>
      <use x="1230.292969" xlink:href="#DejaVuSans-69"/>
      <use x="1258.076172" xlink:href="#DejaVuSans-6f"/>
      <use x="1319.257812" xlink:href="#DejaVuSans-6e"/>
      <use x="1382.636719" xlink:href="#DejaVuSans-29"/>
     </g>
    </g>
   </g>
   <g id="matplotlib.axis_2">
    <g id="ytick_1">
     <g id="line2d_11">
      <path clip-path="url(#p92cf914006)" d="M 56.12 294.88 
L 333.168 294.88 
" style="fill:none;stroke:#b0b0b0;stroke-linecap:square;stroke-width:0.8;"/>
     </g>
     <g id="line2d_12">
      <defs>
       <path d="M 0 0 
L -3.5 0 
" id="mb7f3012e4d" style="stroke:#000000;stroke-width:0.8;"/>
      </defs>
      <g>
       <use style="stroke:#000000;stroke-width:0.8;" x="56.12" xlink:href="#mb7f3012e4d" y="294.88"/>
      </g>
     </g>
     <g id="text_3">
      <!-- 0.0 -->
      <defs>
       <path d="M 10.6875 12.40625 
L 21 12.40625 
L 21 0 
L 10.6875 0 
z
" id="DejaVuSans-2e"/>
      </defs>
      <g transform="translate(23.675 300.95875)scale(0.16 -0.16)">
       <use xlink:href="#DejaVuSans-30"/>
       <use x="63.623047" xlink:href="#DejaVuSans-2e"/>
       <use x="95.410156" xlink:href="#DejaVuSans-30"/>
      </g>
     </g>
    </g>
    <g id="ytick_2">
     <g id="line2d_13">
      <path clip-path="url(#p92cf914006)" d="M 56.12 237.843411 
L 333.168 237.843411 
" style="fill:none;stroke:#b0b0b0;stroke-linecap:square;stroke-width:0.8;"/>
     </g>
     <g id="line2d_14">
      <g>
       <use style="stroke:#000000;stroke-width:0.8;" x="56.12" xlink:href="#mb7f3012e4d" y="237.843411"/>
      </g>
     </g>
     <g id="text_4">
      <!-- 0.2 -->
      <defs>
       <path d="M 19.1875 8.296875 
L 53.609375 8.296875 
L 53.609375 0 
L 7.328125 0 
L 7.328125 8.296875 
Q 12.9375 14.109375 22.625 23.890625 
Q 32.328125 33.6875 34.8125 36.53125 
Q 39.546875 41.84375 41.421875 45.53125 
Q 43.3125 49.21875 43.3125 52.78125 
Q 43.3125 58.59375 39.234375 62.25 
Q 35.15625 65.921875 28.609375 65.921875 
Q 23.96875 65.921875 18.8125 64.3125 
Q 13.671875 62.703125 7.8125 59.421875 
L 7.8125 69.390625 
Q 13.765625 71.78125 18.9375 73 
Q 24.125 74.21875 28.421875 74.21875 
Q 39.75 74.21875 46.484375 68.546875 
Q 53.21875 62.890625 53.21875 53.421875 
Q 53.21875 48.921875 51.53125 44.890625 
Q 49.859375 40.875 45.40625 35.40625 
Q 44.1875 33.984375 37.640625 27.21875 
Q 31.109375 20.453125 19.1875 8.296875 
z
" id="DejaVuSans-32"/>
      </defs>
      <g transform="translate(23.675 243.922161)scale(0.16 -0.16)">
       <use xlink:href="#DejaVuSans-30"/>
       <use x="63.623047" xlink:href="#DejaVuSans-2e"/>
       <use x="95.410156" xlink:href="#DejaVuSans-32"/>
      </g>
     </g>
    </g>
    <g id="ytick_3">
     <g id="line2d_15">
      <path clip-path="url(#p92cf914006)" d="M 56.12 180.806823 
L 333.168 180.806823 
" style="fill:none;stroke:#b0b0b0;stroke-linecap:square;stroke-width:0.8;"/>
     </g>
     <g id="line2d_16">
      <g>
       <use style="stroke:#000000;stroke-width:0.8;" x="56.12" xlink:href="#mb7f3012e4d" y="180.806823"/>
      </g>
     </g>
     <g id="text_5">
      <!-- 0.4 -->
      <defs>
       <path d="M 37.796875 64.3125 
L 12.890625 25.390625 
L 37.796875 25.390625 
z
M 35.203125 72.90625 
L 47.609375 72.90625 
L 47.609375 25.390625 
L 58.015625 25.390625 
L 58.015625 17.1875 
L 47.609375 17.1875 
L 47.609375 0 
L 37.796875 0 
L 37.796875 17.1875 
L 4.890625 17.1875 
L 4.890625 26.703125 
z
" id="DejaVuSans-34"/>
      </defs>
      <g transform="translate(23.675 186.885573)scale(0.16 -0.16)">
       <use xlink:href="#DejaVuSans-30"/>
       <use x="63.623047" xlink:href="#DejaVuSans-2e"/>
       <use x="95.410156" xlink:href="#DejaVuSans-34"/>
      </g>
     </g>
    </g>
    <g id="ytick_4">
     <g id="line2d_17">
      <path clip-path="url(#p92cf914006)" d="M 56.12 123.770234 
L 333.168 123.770234 
" style="fill:none;stroke:#b0b0b0;stroke-linecap:square;stroke-width:0.8;"/>
     </g>
     <g id="line2d_18">
      <g>
       <use style="stroke:#000000;stroke-width:0.8;" x="56.12" xlink:href="#mb7f3012e4d" y="123.770234"/>
      </g>
     </g>
     <g id="text_6">
      <!-- 0.6 -->
      <defs>
       <path d="M 33.015625 40.375 
Q 26.375 40.375 22.484375 35.828125 
Q 18.609375 31.296875 18.609375 23.390625 
Q 18.609375 15.53125 22.484375 10.953125 
Q 26.375 6.390625 33.015625 6.390625 
Q 39.65625 6.390625 43.53125 10.953125 
Q 47.40625 15.53125 47.40625 23.390625 
Q 47.40625 31.296875 43.53125 35.828125 
Q 39.65625 40.375 33.015625 40.375 
z
M 52.59375 71.296875 
L 52.59375 62.3125 
Q 48.875 64.0625 45.09375 64.984375 
Q 41.3125 65.921875 37.59375 65.921875 
Q 27.828125 65.921875 22.671875 59.328125 
Q 17.53125 52.734375 16.796875 39.40625 
Q 19.671875 43.65625 24.015625 45.921875 
Q 28.375 48.1875 33.59375 48.1875 
Q 44.578125 48.1875 50.953125 41.515625 
Q 57.328125 34.859375 57.328125 23.390625 
Q 57.328125 12.15625 50.6875 5.359375 
Q 44.046875 -1.421875 33.015625 -1.421875 
Q 20.359375 -1.421875 13.671875 8.265625 
Q 6.984375 17.96875 6.984375 36.375 
Q 6.984375 53.65625 15.1875 63.9375 
Q 23.390625 74.21875 37.203125 74.21875 
Q 40.921875 74.21875 44.703125 73.484375 
Q 48.484375 72.75 52.59375 71.296875 
z
" id="DejaVuSans-36"/>
      </defs>
      <g transform="translate(23.675 129.848984)scale(0.16 -0.16)">
       <use xlink:href="#DejaVuSans-30"/>
       <use x="63.623047" xlink:href="#DejaVuSans-2e"/>
       <use x="95.410156" xlink:href="#DejaVuSans-36"/>
      </g>
     </g>
    </g>
    <g id="ytick_5">
     <g id="line2d_19">
      <path clip-path="url(#p92cf914006)" d="M 56.12 66.733646 
L 333.168 66.733646 
" style="fill:none;stroke:#b0b0b0;stroke-linecap:square;stroke-width:0.8;"/>
     </g>
     <g id="line2d_20">
      <g>
       <use style="stroke:#000000;stroke-width:0.8;" x="56.12" xlink:href="#mb7f3012e4d" y="66.733646"/>
      </g>
     </g>
     <g id="text_7">
      <!-- 0.8 -->
      <defs>
       <path d="M 31.78125 34.625 
Q 24.75 34.625 20.71875 30.859375 
Q 16.703125 27.09375 16.703125 20.515625 
Q 16.703125 13.921875 20.71875 10.15625 
Q 24.75 6.390625 31.78125 6.390625 
Q 38.8125 6.390625 42.859375 10.171875 
Q 46.921875 13.96875 46.921875 20.515625 
Q 46.921875 27.09375 42.890625 30.859375 
Q 38.875 34.625 31.78125 34.625 
z
M 21.921875 38.8125 
Q 15.578125 40.375 12.03125 44.71875 
Q 8.5 49.078125 8.5 55.328125 
Q 8.5 64.0625 14.71875 69.140625 
Q 20.953125 74.21875 31.78125 74.21875 
Q 42.671875 74.21875 48.875 69.140625 
Q 55.078125 64.0625 55.078125 55.328125 
Q 55.078125 49.078125 51.53125 44.71875 
Q 48 40.375 41.703125 38.8125 
Q 48.828125 37.15625 52.796875 32.3125 
Q 56.78125 27.484375 56.78125 20.515625 
Q 56.78125 9.90625 50.3125 4.234375 
Q 43.84375 -1.421875 31.78125 -1.421875 
Q 19.734375 -1.421875 13.25 4.234375 
Q 6.78125 9.90625 6.78125 20.515625 
Q 6.78125 27.484375 10.78125 32.3125 
Q 14.796875 37.15625 21.921875 38.8125 
z
M 18.3125 54.390625 
Q 18.3125 48.734375 21.84375 45.5625 
Q 25.390625 42.390625 31.78125 42.390625 
Q 38.140625 42.390625 41.71875 45.5625 
Q 45.3125 48.734375 45.3125 54.390625 
Q 45.3125 60.0625 41.71875 63.234375 
Q 38.140625 66.40625 31.78125 66.40625 
Q 25.390625 66.40625 21.84375 63.234375 
Q 18.3125 60.0625 18.3125 54.390625 
z
" id="DejaVuSans-38"/>
      </defs>
      <g transform="translate(23.675 72.812396)scale(0.16 -0.16)">
       <use xlink:href="#DejaVuSans-30"/>
       <use x="63.623047" xlink:href="#DejaVuSans-2e"/>
       <use x="95.410156" xlink:href="#DejaVuSans-38"/>
      </g>
     </g>
    </g>
    <g id="ytick_6">
     <g id="line2d_21">
      <path clip-path="url(#p92cf914006)" d="M 56.12 9.697057 
L 333.168 9.697057 
" style="fill:none;stroke:#b0b0b0;stroke-linecap:square;stroke-width:0.8;"/>
     </g>
     <g id="line2d_22">
      <g>
       <use style="stroke:#000000;stroke-width:0.8;" x="56.12" xlink:href="#mb7f3012e4d" y="9.697057"/>
      </g>
     </g>
     <g id="text_8">
      <!-- 1.0 -->
      <g transform="translate(23.675 15.775807)scale(0.16 -0.16)">
       <use xlink:href="#DejaVuSans-31"/>
       <use x="63.623047" xlink:href="#DejaVuSans-2e"/>
       <use x="95.410156" xlink:href="#DejaVuSans-30"/>
      </g>
     </g>
    </g>
    <g id="text_9">
     <!-- Fraction of function,target pairs -->
     <defs>
      <path d="M 9.8125 72.90625 
L 51.703125 72.90625 
L 51.703125 64.59375 
L 19.671875 64.59375 
L 19.671875 43.109375 
L 48.578125 43.109375 
L 48.578125 34.8125 
L 19.671875 34.8125 
L 19.671875 0 
L 9.8125 0 
z
" id="DejaVuSans-46"/>
      <path d="M 41.109375 46.296875 
Q 39.59375 47.171875 37.8125 47.578125 
Q 36.03125 48 33.890625 48 
Q 26.265625 48 22.1875 43.046875 
Q 18.109375 38.09375 18.109375 28.8125 
L 18.109375 0 
L 9.078125 0 
L 9.078125 54.6875 
L 18.109375 54.6875 
L 18.109375 46.1875 
Q 20.953125 51.171875 25.484375 53.578125 
Q 30.03125 56 36.53125 56 
Q 37.453125 56 38.578125 55.875 
Q 39.703125 55.765625 41.0625 55.515625 
z
" id="DejaVuSans-72"/>
      <path d="M 48.78125 52.59375 
L 48.78125 44.1875 
Q 44.96875 46.296875 41.140625 47.34375 
Q 37.3125 48.390625 33.40625 48.390625 
Q 24.65625 48.390625 19.8125 42.84375 
Q 14.984375 37.3125 14.984375 27.296875 
Q 14.984375 17.28125 19.8125 11.734375 
Q 24.65625 6.203125 33.40625 6.203125 
Q 37.3125 6.203125 41.140625 7.25 
Q 44.96875 8.296875 48.78125 10.40625 
L 48.78125 2.09375 
Q 45.015625 0.34375 40.984375 -0.53125 
Q 36.96875 -1.421875 32.421875 -1.421875 
Q 20.0625 -1.421875 12.78125 6.34375 
Q 5.515625 14.109375 5.515625 27.296875 
Q 5.515625 40.671875 12.859375 48.328125 
Q 20.21875 56 33.015625 56 
Q 37.15625 56 41.109375 55.140625 
Q 45.0625 54.296875 48.78125 52.59375 
z
" id="DejaVuSans-63"/>
      <path d="M 18.3125 70.21875 
L 18.3125 54.6875 
L 36.8125 54.6875 
L 36.8125 47.703125 
L 18.3125 47.703125 
L 18.3125 18.015625 
Q 18.3125 11.328125 20.140625 9.421875 
Q 21.96875 7.515625 27.59375 7.515625 
L 36.8125 7.515625 
L 36.8125 0 
L 27.59375 0 
Q 17.1875 0 13.234375 3.875 
Q 9.28125 7.765625 9.28125 18.015625 
L 9.28125 47.703125 
L 2.6875 47.703125 
L 2.6875 54.6875 
L 9.28125 54.6875 
L 9.28125 70.21875 
z
" id="DejaVuSans-74"/>
      <path d="M 8.5 21.578125 
L 8.5 54.6875 
L 17.484375 54.6875 
L 17.484375 21.921875 
Q 17.484375 14.15625 20.5 10.265625 
Q 23.53125 6.390625 29.59375 6.390625 
Q 36.859375 6.390625 41.078125 11.03125 
Q 45.3125 15.671875 45.3125 23.6875 
L 45.3125 54.6875 
L 54.296875 54.6875 
L 54.296875 0 
L 45.3125 0 
L 45.3125 8.40625 
Q 42.046875 3.421875 37.71875 1 
Q 33.40625 -1.421875 27.6875 -1.421875 
Q 18.265625 -1.421875 13.375 4.4375 
Q 8.5 10.296875 8.5 21.578125 
z
M 31.109375 56 
z
" id="DejaVuSans-75"/>
      <path d="M 11.71875 12.40625 
L 22.015625 12.40625 
L 22.015625 4 
L 14.015625 -11.625 
L 7.71875 -11.625 
L 11.71875 4 
z
" id="DejaVuSans-2c"/>
      <path d="M 18.109375 8.203125 
L 18.109375 -20.796875 
L 9.078125 -20.796875 
L 9.078125 54.6875 
L 18.109375 54.6875 
L 18.109375 46.390625 
Q 20.953125 51.265625 25.265625 53.625 
Q 29.59375 56 35.59375 56 
Q 45.5625 56 51.78125 48.09375 
Q 58.015625 40.1875 58.015625 27.296875 
Q 58.015625 14.40625 51.78125 6.484375 
Q 45.5625 -1.421875 35.59375 -1.421875 
Q 29.59375 -1.421875 25.265625 0.953125 
Q 20.953125 3.328125 18.109375 8.203125 
z
M 48.6875 27.296875 
Q 48.6875 37.203125 44.609375 42.84375 
Q 40.53125 48.484375 33.40625 48.484375 
Q 26.265625 48.484375 22.1875 42.84375 
Q 18.109375 37.203125 18.109375 27.296875 
Q 18.109375 17.390625 22.1875 11.75 
Q 26.265625 6.109375 33.40625 6.109375 
Q 40.53125 6.109375 44.609375 11.75 
Q 48.6875 17.390625 48.6875 27.296875 
z
" id="DejaVuSans-70"/>
     </defs>
     <g transform="translate(16.139531 286.001989)rotate(-90)scale(0.17 -0.17)">
      <use xlink:href="#DejaVuSans-46"/>
      <use x="57.410156" xlink:href="#DejaVuSans-72"/>
      <use x="98.523438" xlink:href="#DejaVuSans-61"/>
      <use x="159.802734" xlink:href="#DejaVuSans-63"/>
      <use x="214.783203" xlink:href="#DejaVuSans-74"/>
      <use x="253.992188" xlink:href="#DejaVuSans-69"/>
      <use x="281.775391" xlink:href="#DejaVuSans-6f"/>
      <use x="342.957031" xlink:href="#DejaVuSans-6e"/>
      <use x="406.335938" xlink:href="#DejaVuSans-20"/>
      <use x="438.123047" xlink:href="#DejaVuSans-6f"/>
      <use x="499.304688" xlink:href="#DejaVuSans-66"/>
      <use x="534.509766" xlink:href="#DejaVuSans-20"/>
      <use x="566.296875" xlink:href="#DejaVuSans-66"/>
      <use x="601.501953" xlink:href="#DejaVuSans-75"/>
      <use x="664.880859" xlink:href="#DejaVuSans-6e"/>
      <use x="728.259766" xlink:href="#DejaVuSans-63"/>
      <use x="783.240234" xlink:href="#DejaVuSans-74"/>
      <use x="822.449219" xlink:href="#DejaVuSans-69"/>
      <use x="850.232422" xlink:href="#DejaVuSans-6f"/>
      <use x="911.414062" xlink:href="#DejaVuSans-6e"/>
      <use x="974.792969" xlink:href="#DejaVuSans-2c"/>
      <use x="1006.580078" xlink:href="#DejaVuSans-74"/>
      <use x="1045.789062" xlink:href="#DejaVuSans-61"/>
      <use x="1107.068359" xlink:href="#DejaVuSans-72"/>
      <use x="1148.166016" xlink:href="#DejaVuSans-67"/>
      <use x="1211.642578" xlink:href="#DejaVuSans-65"/>
      <use x="1273.166016" xlink:href="#DejaVuSans-74"/>
      <use x="1312.375" xlink:href="#DejaVuSans-20"/>
      <use x="1344.162109" xlink:href="#DejaVuSans-70"/>
      <use x="1407.638672" xlink:href="#DejaVuSans-61"/>
      <use x="1468.917969" xlink:href="#DejaVuSans-69"/>
      <use x="1496.701172" xlink:href="#DejaVuSans-72"/>
      <use x="1537.814453" xlink:href="#DejaVuSans-73"/>
     </g>
    </g>
   </g>
   <g id="line2d_23">
    <defs>
     <path d="M 0 1.5 
C 0.397805 1.5 0.77937 1.341951 1.06066 1.06066 
C 1.341951 0.77937 1.5 0.397805 1.5 0 
C 1.5 -0.397805 1.341951 -0.77937 1.06066 -1.06066 
C 0.77937 -1.341951 0.397805 -1.5 0 -1.5 
C -0.397805 -1.5 -0.77937 -1.341951 -1.06066 -1.06066 
C -1.341951 -0.77937 -1.5 -0.397805 -1.5 0 
C -1.5 0.397805 -1.341951 0.77937 -1.06066 1.06066 
C -0.77937 1.341951 -0.397805 1.5 0 1.5 
z
" id="m948727c044" style="stroke:#f5deb3;"/>
    </defs>
    <g>
     <use style="fill:#f5deb3;stroke:#f5deb3;" x="362.49239" xlink:href="#m948727c044" y="11.573261"/>
     <use style="fill:#f5deb3;stroke:#f5deb3;" x="362.49239" xlink:href="#m948727c044" y="11.573261"/>
    </g>
   </g>
   <g id="line2d_24">
    <defs>
     <path d="M 0 1.5 
C 0.397805 1.5 0.77937 1.341951 1.06066 1.06066 
C 1.341951 0.77937 1.5 0.397805 1.5 0 
C 1.5 -0.397805 1.341951 -0.77937 1.06066 -1.06066 
C 0.77937 -1.341951 0.397805 -1.5 0 -1.5 
C -0.397805 -1.5 -0.77937 -1.341951 -1.06066 -1.06066 
C -1.341951 -0.77937 -1.5 -0.397805 -1.5 0 
C -1.5 0.397805 -1.341951 0.77937 -1.06066 1.06066 
C -0.77937 1.341951 -0.397805 1.5 0 1.5 
z
" id="m9d5ebb071b" style="stroke:#000080;"/>
    </defs>
    <g>
     <use style="fill:#000080;stroke:#000080;" x="399.223147" xlink:href="#m9d5ebb071b" y="88.497607"/>
     <use style="fill:#000080;stroke:#000080;" x="399.223147" xlink:href="#m9d5ebb071b" y="88.497607"/>
    </g>
   </g>
   <g id="line2d_25">
    <path d="M -0.34101 294.88 
L -0.34101 263.17216 
L 56.12 263.17216 
L 56.12 242.15868 
L 89.147574 242.15868 
L 89.147574 228.462394 
L 112.58101 228.462394 
L 112.58101 219.081376 
L 130.757396 219.081376 
L 130.757396 207.261293 
L 145.608584 207.261293 
L 145.608584 200.31934 
L 158.165085 200.31934 
L 158.165085 193.002146 
L 169.04202 193.002146 
L 169.04202 189.62498 
L 178.636158 189.62498 
L 178.636158 183.433508 
L 187.218406 183.433508 
L 187.218406 180.619203 
L 194.981994 180.619203 
L 194.981994 178.367758 
L 202.069594 178.367758 
L 202.069594 174.615351 
L 208.589554 174.615351 
L 208.589554 172.363907 
L 214.626095 172.363907 
L 214.626095 167.485778 
L 220.24598 167.485778 
L 220.24598 164.108611 
L 225.503031 164.108611 
L 225.503031 161.857167 
L 230.441271 161.857167 
L 230.441271 157.541899 
L 235.097168 157.541899 
L 235.097168 155.853315 
L 239.501268 155.853315 
L 239.501268 153.977112 
L 243.679416 153.977112 
L 243.679416 152.663769 
L 247.653669 152.663769 
L 247.653669 150.975186 
L 251.443004 150.975186 
L 251.443004 149.286603 
L 255.063868 149.286603 
L 255.063868 148.348501 
L 258.530604 148.348501 
L 258.530604 146.284677 
L 261.855802 146.284677 
L 261.855802 144.596094 
L 265.050565 144.596094 
L 265.050565 143.845613 
L 268.124742 143.845613 
L 268.124742 143.095131 
L 271.087105 143.095131 
L 271.087105 142.907511 
L 273.945504 142.907511 
L 273.945504 139.905585 
L 276.70699 139.905585 
L 276.70699 138.029381 
L 279.377918 138.029381 
L 279.377918 136.528419 
L 281.964041 136.528419 
L 281.964041 135.965558 
L 284.470578 135.965558 
L 284.470578 132.963632 
L 286.902281 132.963632 
L 286.902281 132.02553 
L 289.263491 132.02553 
L 289.263491 131.462669 
L 291.558178 131.462669 
L 291.558178 129.961706 
L 293.789989 129.961706 
L 293.789989 128.648364 
L 295.962279 128.648364 
L 295.962279 128.273123 
L 298.078138 128.273123 
L 298.078138 127.710262 
L 300.140426 127.710262 
L 300.140426 127.335021 
L 302.151788 127.335021 
L 302.151788 127.147401 
L 304.114679 127.147401 
L 304.114679 126.396919 
L 306.031379 126.396919 
L 306.031379 126.021679 
L 307.904014 126.021679 
L 307.904014 124.895956 
L 309.734564 124.895956 
L 309.734564 124.708336 
L 311.524878 124.708336 
L 311.524878 123.207373 
L 313.276688 123.207373 
L 313.276688 122.269271 
L 314.991615 122.269271 
L 314.991615 121.51879 
L 316.67118 121.51879 
L 316.67118 120.955929 
L 318.316812 120.955929 
L 318.316812 120.393068 
L 319.929855 120.393068 
L 319.929855 119.830207 
L 321.511575 119.830207 
L 321.511575 119.642586 
L 323.063165 119.642586 
L 323.063165 119.267346 
L 324.585752 119.267346 
L 324.585752 118.141624 
L 326.0804 118.141624 
L 326.0804 117.954003 
L 327.548115 117.954003 
L 327.548115 117.578763 
L 328.989852 117.578763 
L 328.989852 116.45304 
L 330.406515 116.45304 
L 330.406515 116.0778 
L 331.798959 116.0778 
L 331.798959 115.327318 
L 333.168 115.327318 
L 333.168 114.201596 
L 333.168 114.201596 
" style="fill:none;stroke:#000080;stroke-linecap:square;stroke-width:1.5;"/>
   </g>
   <g id="line2d_26">
    <defs>
     <path d="M 0 6 
C 1.591219 6 3.117479 5.367802 4.242641 4.242641 
C 5.367802 3.117479 6 1.591219 6 0 
C 6 -1.591219 5.367802 -3.117479 4.242641 -4.242641 
C 3.117479 -5.367802 1.591219 -6 0 -6 
C -1.591219 -6 -3.117479 -5.367802 -4.242641 -4.242641 
C -5.367802 -3.117479 -6 -1.591219 -6 0 
C -6 1.591219 -5.367802 3.117479 -4.242641 4.242641 
C -3.117479 5.367802 -1.591219 6 0 6 
z
" id="mab4d286a8c" style="stroke:#000080;stroke-width:1.5;"/>
    </defs>
    <g>
     <use style="fill-opacity:0;stroke:#000080;stroke-width:1.5;" x="89.147574" xlink:href="#mab4d286a8c" y="228.462394"/>
     <use style="fill-opacity:0;stroke:#000080;stroke-width:1.5;" x="158.165085" xlink:href="#mab4d286a8c" y="193.002146"/>
     <use style="fill-opacity:0;stroke:#000080;stroke-width:1.5;" x="225.503031" xlink:href="#mab4d286a8c" y="161.857167"/>
     <use style="fill-opacity:0;stroke:#000080;stroke-width:1.5;" x="284.470578" xlink:href="#mab4d286a8c" y="135.965558"/>
     <use style="fill-opacity:0;stroke:#000080;stroke-width:1.5;" x="333.168" xlink:href="#mab4d286a8c" y="115.327318"/>
     <use style="fill-opacity:0;stroke:#000080;stroke-width:1.5;" x="333.168" xlink:href="#mab4d286a8c" y="115.327318"/>
     <use style="fill-opacity:0;stroke:#000080;stroke-width:1.5;" x="333.168" xlink:href="#mab4d286a8c" y="114.201596"/>
    </g>
   </g>
   <g id="line2d_27">
    <path style="fill:none;stroke:#000080;stroke-linecap:square;stroke-width:1.5;"/>
    <g/>
   </g>
   <g id="line2d_28">
    <path clip-path="url(#p92cf914006)" d="M 333.168 114.201596 
" style="fill:none;stroke:#000080;stroke-linecap:square;stroke-width:1.5;"/>
    <defs>
     <path d="M -12 12 
L 12 -12 
M -12 -12 
L 12 12 
" id="m0def680720" style="stroke:#000080;"/>
    </defs>
    <g clip-path="url(#p92cf914006)">
     <use style="fill:#000080;stroke:#000080;" x="333.168" xlink:href="#m0def680720" y="114.201596"/>
    </g>
   </g>
   <g id="line2d_29">
    <defs>
     <path d="M 0 1.5 
C 0.397805 1.5 0.77937 1.341951 1.06066 1.06066 
C 1.341951 0.77937 1.5 0.397805 1.5 0 
C 1.5 -0.397805 1.341951 -0.77937 1.06066 -1.06066 
C 0.77937 -1.341951 0.397805 -1.5 0 -1.5 
C -0.397805 -1.5 -0.77937 -1.341951 -1.06066 -1.06066 
C -1.341951 -0.77937 -1.5 -0.397805 -1.5 0 
C -1.5 0.397805 -1.341951 0.77937 -1.06066 1.06066 
C -0.77937 1.341951 -0.397805 1.5 0 1.5 
z
" id="m77cce3070a" style="stroke:#ff00ff;"/>
    </defs>
    <g>
     <use style="fill:#ff00ff;stroke:#ff00ff;" x="392.299939" xlink:href="#m77cce3070a" y="35.776287"/>
     <use style="fill:#ff00ff;stroke:#ff00ff;" x="392.299939" xlink:href="#m77cce3070a" y="35.776287"/>
    </g>
   </g>
   <g id="line2d_30">
    <path d="M -0.34101 294.88 
L -0.34101 264.485502 
L 56.12 264.485502 
L 56.12 240.282476 
L 89.147574 240.282476 
L 89.147574 224.522366 
L 112.58101 224.522366 
L 112.58101 213.828006 
L 130.757396 213.828006 
L 130.757396 201.445062 
L 145.608584 201.445062 
L 145.608584 194.690729 
L 158.165085 194.690729 
L 158.165085 187.373535 
L 169.04202 187.373535 
L 169.04202 182.683026 
L 178.636158 182.683026 
L 178.636158 177.242036 
L 187.218406 177.242036 
L 187.218406 172.926768 
L 194.981994 172.926768 
L 194.981994 169.924842 
L 202.069594 169.924842 
L 202.069594 167.110537 
L 208.589554 167.110537 
L 208.589554 161.481926 
L 214.626095 161.481926 
L 214.626095 157.166658 
L 220.24598 157.166658 
L 220.24598 153.977112 
L 225.503031 153.977112 
L 225.503031 141.406548 
L 230.441271 141.406548 
L 230.441271 134.652215 
L 235.097168 134.652215 
L 235.097168 129.211225 
L 239.501268 129.211225 
L 239.501268 125.646438 
L 243.679416 125.646438 
L 243.679416 123.207373 
L 247.653669 123.207373 
L 247.653669 119.267346 
L 251.443004 119.267346 
L 251.443004 115.514939 
L 255.063868 115.514939 
L 255.063868 111.01205 
L 258.530604 111.01205 
L 258.530604 105.75868 
L 261.855802 105.75868 
L 261.855802 102.944375 
L 265.050565 102.944375 
L 265.050565 98.441486 
L 268.124742 98.441486 
L 268.124742 95.814801 
L 271.087105 95.814801 
L 271.087105 94.876699 
L 273.945504 94.876699 
L 273.945504 90.373811 
L 276.70699 90.373811 
L 276.70699 88.497607 
L 279.377918 88.497607 
L 279.377918 85.870922 
L 281.964041 85.870922 
L 281.964041 83.807098 
L 284.470578 83.807098 
L 284.470578 79.30421 
L 286.902281 79.30421 
L 286.902281 77.803247 
L 289.263491 77.803247 
L 289.263491 74.801321 
L 291.558178 74.801321 
L 291.558178 74.23846 
L 293.789989 74.23846 
L 293.789989 73.863219 
L 295.962279 73.863219 
L 295.962279 72.549877 
L 298.078138 72.549877 
L 298.078138 71.424155 
L 300.140426 71.424155 
L 300.140426 70.298433 
L 302.151788 70.298433 
L 302.151788 68.98509 
L 304.114679 68.98509 
L 304.114679 67.296507 
L 306.031379 67.296507 
L 306.031379 66.170785 
L 307.904014 66.170785 
L 307.904014 63.91934 
L 309.734564 63.91934 
L 309.734564 63.168859 
L 311.524878 63.168859 
L 311.524878 62.605998 
L 313.276688 62.605998 
L 313.276688 61.667896 
L 314.991615 61.667896 
L 314.991615 60.542174 
L 316.67118 60.542174 
L 316.67118 58.47835 
L 319.929855 58.47835 
L 319.929855 57.165008 
L 321.511575 57.165008 
L 321.511575 56.226906 
L 323.063165 56.226906 
L 323.063165 55.476424 
L 324.585752 55.476424 
L 324.585752 55.101184 
L 326.0804 55.101184 
L 326.0804 53.600221 
L 330.406515 53.600221 
L 330.406515 53.03736 
L 331.798959 53.03736 
L 331.798959 52.474499 
L 333.168 52.474499 
L 333.168 51.161156 
L 333.168 51.161156 
" style="fill:none;stroke:#ff00ff;stroke-linecap:square;stroke-width:1.5;"/>
   </g>
   <g id="line2d_31">
    <defs>
     <path d="M -0 8.485281 
L 5.091169 0 
L 0 -8.485281 
L -5.091169 -0 
z
" id="m8351e6c1aa" style="stroke:#ff00ff;stroke-linejoin:miter;stroke-width:1.5;"/>
    </defs>
    <g>
     <use style="fill-opacity:0;stroke:#ff00ff;stroke-linejoin:miter;stroke-width:1.5;" x="145.608584" xlink:href="#m8351e6c1aa" y="201.445062"/>
     <use style="fill-opacity:0;stroke:#ff00ff;stroke-linejoin:miter;stroke-width:1.5;" x="208.589554" xlink:href="#m8351e6c1aa" y="167.110537"/>
     <use style="fill-opacity:0;stroke:#ff00ff;stroke-linejoin:miter;stroke-width:1.5;" x="255.063868" xlink:href="#m8351e6c1aa" y="115.514939"/>
     <use style="fill-opacity:0;stroke:#ff00ff;stroke-linejoin:miter;stroke-width:1.5;" x="286.902281" xlink:href="#m8351e6c1aa" y="77.803247"/>
     <use style="fill-opacity:0;stroke:#ff00ff;stroke-linejoin:miter;stroke-width:1.5;" x="333.168" xlink:href="#m8351e6c1aa" y="52.474499"/>
     <use style="fill-opacity:0;stroke:#ff00ff;stroke-linejoin:miter;stroke-width:1.5;" x="333.168" xlink:href="#m8351e6c1aa" y="52.474499"/>
     <use style="fill-opacity:0;stroke:#ff00ff;stroke-linejoin:miter;stroke-width:1.5;" x="333.168" xlink:href="#m8351e6c1aa" y="51.161156"/>
    </g>
   </g>
   <g id="line2d_32">
    <path style="fill:none;stroke:#ff00ff;stroke-linecap:square;stroke-width:1.5;"/>
    <g/>
   </g>
   <g id="line2d_33">
    <path clip-path="url(#p92cf914006)" d="M 333.168 51.161156 
" style="fill:none;stroke:#ff00ff;stroke-linecap:square;stroke-width:1.5;"/>
    <defs>
     <path d="M -12 12 
L 12 -12 
M -12 -12 
L 12 12 
" id="m642ded45bc" style="stroke:#ff00ff;"/>
    </defs>
    <g clip-path="url(#p92cf914006)">
     <use style="fill:#ff00ff;stroke:#ff00ff;" x="333.168" xlink:href="#m642ded45bc" y="51.161156"/>
    </g>
   </g>
   <g id="line2d_34">
    <defs>
     <path d="M 0 1.5 
C 0.397805 1.5 0.77937 1.341951 1.06066 1.06066 
C 1.341951 0.77937 1.5 0.397805 1.5 0 
C 1.5 -0.397805 1.341951 -0.77937 1.06066 -1.06066 
C 0.77937 -1.341951 0.397805 -1.5 0 -1.5 
C -0.397805 -1.5 -0.77937 -1.341951 -1.06066 -1.06066 
C -1.341951 -0.77937 -1.5 -0.397805 -1.5 0 
C -1.5 0.397805 -1.341951 0.77937 -1.06066 1.06066 
C -0.77937 1.341951 -0.397805 1.5 0 1.5 
z
" id="m613cf69510" style="stroke:#ffa500;"/>
    </defs>
    <g>
     <use style="fill:#ffa500;stroke:#ffa500;" x="398.007363" xlink:href="#m613cf69510" y="32.774361"/>
     <use style="fill:#ffa500;stroke:#ffa500;" x="398.007363" xlink:href="#m613cf69510" y="32.774361"/>
    </g>
   </g>
   <g id="line2d_35">
    <path d="M -0.34101 294.88 
L -0.34101 261.483576 
L 56.12 261.483576 
L 56.12 240.657717 
L 89.147574 240.657717 
L 89.147574 223.771885 
L 112.58101 223.771885 
L 112.58101 204.634608 
L 130.757396 204.634608 
L 130.757396 198.630757 
L 145.608584 198.630757 
L 145.608584 193.002146 
L 158.165085 193.002146 
L 158.165085 183.433508 
L 169.04202 183.433508 
L 169.04202 173.677249 
L 178.636158 173.677249 
L 178.636158 166.360055 
L 187.218406 166.360055 
L 187.218406 158.855241 
L 194.981994 158.855241 
L 194.981994 153.03901 
L 202.069594 153.03901 
L 202.069594 146.659918 
L 208.589554 146.659918 
L 208.589554 141.218928 
L 214.626095 141.218928 
L 214.626095 134.652215 
L 220.24598 134.652215 
L 220.24598 130.336947 
L 225.503031 130.336947 
L 225.503031 126.021679 
L 230.441271 126.021679 
L 230.441271 123.019753 
L 235.097168 123.019753 
L 235.097168 119.642586 
L 239.501268 119.642586 
L 239.501268 115.327318 
L 243.679416 115.327318 
L 243.679416 111.387291 
L 247.653669 111.387291 
L 247.653669 106.884402 
L 251.443004 106.884402 
L 251.443004 104.070097 
L 255.063868 104.070097 
L 255.063868 99.942449 
L 258.530604 99.942449 
L 258.530604 95.814801 
L 261.855802 95.814801 
L 261.855802 92.812875 
L 265.050565 92.812875 
L 265.050565 91.311913 
L 268.124742 91.311913 
L 268.124742 88.872848 
L 271.087105 88.872848 
L 271.087105 86.433783 
L 273.945504 86.433783 
L 273.945504 83.807098 
L 276.70699 83.807098 
L 276.70699 81.930895 
L 279.377918 81.930895 
L 279.377918 80.054691 
L 281.964041 80.054691 
L 281.964041 77.990867 
L 284.470578 77.990867 
L 284.470578 76.865145 
L 286.902281 76.865145 
L 286.902281 75.176562 
L 289.263491 75.176562 
L 289.263491 72.549877 
L 291.558178 72.549877 
L 291.558178 71.048914 
L 293.789989 71.048914 
L 293.789989 69.735571 
L 295.962279 69.735571 
L 295.962279 68.234609 
L 298.078138 68.234609 
L 298.078138 66.170785 
L 300.140426 66.170785 
L 300.140426 64.669822 
L 302.151788 64.669822 
L 302.151788 64.294581 
L 304.114679 64.294581 
L 304.114679 63.73172 
L 306.031379 63.73172 
L 306.031379 61.292655 
L 307.904014 61.292655 
L 307.904014 59.791693 
L 309.734564 59.791693 
L 309.734564 59.416452 
L 311.524878 59.416452 
L 311.524878 58.29073 
L 313.276688 58.29073 
L 313.276688 57.352628 
L 316.67118 57.352628 
L 316.67118 56.602146 
L 318.316812 56.602146 
L 318.316812 56.039285 
L 319.929855 56.039285 
L 319.929855 55.288804 
L 321.511575 55.288804 
L 321.511575 54.163082 
L 323.063165 54.163082 
L 323.063165 53.600221 
L 324.585752 53.600221 
L 324.585752 53.03736 
L 326.0804 53.03736 
L 326.0804 52.849739 
L 327.548115 52.849739 
L 327.548115 52.286878 
L 328.989852 52.286878 
L 328.989852 49.660193 
L 330.406515 49.660193 
L 330.406515 48.534471 
L 331.798959 48.534471 
L 331.798959 47.033508 
L 333.168 47.033508 
L 333.168 46.283027 
L 333.168 46.283027 
" style="fill:none;stroke:#ffa500;stroke-linecap:square;stroke-width:1.5;"/>
   </g>
   <g id="line2d_36">
    <defs>
     <path d="M 0 -6 
L -1.347084 -1.854102 
L -5.706339 -1.854102 
L -2.179628 0.708204 
L -3.526712 4.854102 
L -0 2.291796 
L 3.526712 4.854102 
L 2.179628 0.708204 
L 5.706339 -1.854102 
L 1.347084 -1.854102 
z
" id="m57638d4c06" style="stroke:#ffa500;stroke-linejoin:bevel;stroke-width:1.5;"/>
    </defs>
    <g>
     <use style="fill-opacity:0;stroke:#ffa500;stroke-linejoin:bevel;stroke-width:1.5;" x="89.147574" xlink:href="#m57638d4c06" y="223.771885"/>
     <use style="fill-opacity:0;stroke:#ffa500;stroke-linejoin:bevel;stroke-width:1.5;" x="158.165085" xlink:href="#m57638d4c06" y="193.002146"/>
     <use style="fill-opacity:0;stroke:#ffa500;stroke-linejoin:bevel;stroke-width:1.5;" x="214.626095" xlink:href="#m57638d4c06" y="141.218928"/>
     <use style="fill-opacity:0;stroke:#ffa500;stroke-linejoin:bevel;stroke-width:1.5;" x="271.087105" xlink:href="#m57638d4c06" y="88.872848"/>
     <use style="fill-opacity:0;stroke:#ffa500;stroke-linejoin:bevel;stroke-width:1.5;" x="328.989852" xlink:href="#m57638d4c06" y="49.660193"/>
     <use style="fill-opacity:0;stroke:#ffa500;stroke-linejoin:bevel;stroke-width:1.5;" x="333.168" xlink:href="#m57638d4c06" y="47.033508"/>
     <use style="fill-opacity:0;stroke:#ffa500;stroke-linejoin:bevel;stroke-width:1.5;" x="333.168" xlink:href="#m57638d4c06" y="46.283027"/>
    </g>
   </g>
   <g id="line2d_37">
    <path style="fill:none;stroke:#ffa500;stroke-linecap:square;stroke-width:1.5;"/>
    <g/>
   </g>
   <g id="line2d_38">
    <path clip-path="url(#p92cf914006)" d="M 333.168 46.283027 
" style="fill:none;stroke:#ffa500;stroke-linecap:square;stroke-width:1.5;"/>
    <defs>
     <path d="M -12 12 
L 12 -12 
M -12 -12 
L 12 12 
" id="m4b8983a40d" style="stroke:#ffa500;"/>
    </defs>
    <g clip-path="url(#p92cf914006)">
     <use style="fill:#ffa500;stroke:#ffa500;" x="333.168" xlink:href="#m4b8983a40d" y="46.283027"/>
    </g>
   </g>
   <g id="line2d_39">
    <defs>
     <path d="M 0 1.5 
C 0.397805 1.5 0.77937 1.341951 1.06066 1.06066 
C 1.341951 0.77937 1.5 0.397805 1.5 0 
C 1.5 -0.397805 1.341951 -0.77937 1.06066 -1.06066 
C 0.77937 -1.341951 0.397805 -1.5 0 -1.5 
C -0.397805 -1.5 -0.77937 -1.341951 -1.06066 -1.06066 
C -1.341951 -0.77937 -1.5 -0.397805 -1.5 0 
C -1.5 0.397805 -1.341951 0.77937 -1.06066 1.06066 
C -0.77937 1.341951 -0.397805 1.5 0 1.5 
z
" id="mdf1245e8ec" style="stroke:#6495ed;"/>
    </defs>
    <g>
     <use style="fill:#6495ed;stroke:#6495ed;" x="399.223147" xlink:href="#mdf1245e8ec" y="32.774361"/>
     <use style="fill:#6495ed;stroke:#6495ed;" x="399.223147" xlink:href="#mdf1245e8ec" y="32.774361"/>
    </g>
   </g>
   <g id="line2d_40">
    <path d="M -0.34101 294.88 
L -0.34101 259.607373 
L 56.12 259.607373 
L 56.12 229.588116 
L 89.147574 229.588116 
L 89.147574 215.328969 
L 112.58101 215.328969 
L 112.58101 208.011775 
L 130.757396 208.011775 
L 130.757396 201.445062 
L 145.608584 201.445062 
L 145.608584 199.005998 
L 158.165085 199.005998 
L 158.165085 194.503109 
L 169.04202 194.503109 
L 169.04202 191.876424 
L 178.636158 191.876424 
L 178.636158 186.060193 
L 187.218406 186.060193 
L 187.218406 183.245888 
L 194.981994 183.245888 
L 194.981994 177.992518 
L 202.069594 177.992518 
L 202.069594 172.176286 
L 208.589554 172.176286 
L 208.589554 168.98674 
L 214.626095 168.98674 
L 214.626095 165.234333 
L 220.24598 165.234333 
L 220.24598 161.481926 
L 225.503031 161.481926 
L 225.503031 146.659918 
L 230.441271 146.659918 
L 230.441271 139.155104 
L 235.097168 139.155104 
L 235.097168 134.839835 
L 239.501268 134.839835 
L 239.501268 129.586465 
L 243.679416 129.586465 
L 243.679416 118.329244 
L 247.653669 118.329244 
L 247.653669 117.203522 
L 251.443004 117.203522 
L 251.443004 115.139698 
L 255.063868 115.139698 
L 255.063868 111.574911 
L 258.530604 111.574911 
L 258.530604 108.010124 
L 261.855802 108.010124 
L 261.855802 102.381514 
L 265.050565 102.381514 
L 265.050565 101.255791 
L 268.124742 101.255791 
L 268.124742 98.629106 
L 271.087105 98.629106 
L 271.087105 96.752903 
L 273.945504 96.752903 
L 273.945504 94.876699 
L 276.70699 94.876699 
L 276.70699 88.872848 
L 279.377918 88.872848 
L 279.377918 87.184265 
L 281.964041 87.184265 
L 281.964041 85.870922 
L 284.470578 85.870922 
L 284.470578 83.807098 
L 286.902281 83.807098 
L 286.902281 80.429932 
L 289.263491 80.429932 
L 289.263491 77.240386 
L 291.558178 77.240386 
L 291.558178 75.364182 
L 293.789989 75.364182 
L 293.789989 74.23846 
L 295.962279 74.23846 
L 295.962279 73.112738 
L 298.078138 73.112738 
L 298.078138 72.362256 
L 300.140426 72.362256 
L 300.140426 69.360331 
L 302.151788 69.360331 
L 302.151788 67.296507 
L 304.114679 67.296507 
L 304.114679 65.795544 
L 306.031379 65.795544 
L 306.031379 64.857442 
L 307.904014 64.857442 
L 307.904014 64.294581 
L 309.734564 64.294581 
L 309.734564 62.043137 
L 311.524878 62.043137 
L 311.524878 61.667896 
L 313.276688 61.667896 
L 313.276688 60.729794 
L 314.991615 60.729794 
L 314.991615 59.979313 
L 316.67118 59.979313 
L 316.67118 58.66597 
L 318.316812 58.66597 
L 318.316812 56.039285 
L 319.929855 56.039285 
L 319.929855 54.725943 
L 321.511575 54.725943 
L 321.511575 54.163082 
L 324.585752 54.163082 
L 324.585752 53.600221 
L 326.0804 53.600221 
L 326.0804 50.035434 
L 327.548115 50.035434 
L 327.548115 49.847814 
L 331.798959 49.847814 
L 331.798959 49.472573 
L 333.168 49.472573 
L 333.168 48.909712 
L 333.168 48.909712 
" style="fill:none;stroke:#6495ed;stroke-linecap:square;stroke-width:1.5;"/>
   </g>
   <g id="line2d_41">
    <defs>
     <path d="M -0 6 
L 6 -6 
L -6 -6 
z
" id="m51fdd3c9b5" style="stroke:#6495ed;stroke-linejoin:miter;stroke-width:1.5;"/>
    </defs>
    <g>
     <use style="fill-opacity:0;stroke:#6495ed;stroke-linejoin:miter;stroke-width:1.5;" x="89.147574" xlink:href="#m51fdd3c9b5" y="229.588116"/>
     <use style="fill-opacity:0;stroke:#6495ed;stroke-linejoin:miter;stroke-width:1.5;" x="169.04202" xlink:href="#m51fdd3c9b5" y="191.876424"/>
     <use style="fill-opacity:0;stroke:#6495ed;stroke-linejoin:miter;stroke-width:1.5;" x="220.24598" xlink:href="#m51fdd3c9b5" y="161.481926"/>
     <use style="fill-opacity:0;stroke:#6495ed;stroke-linejoin:miter;stroke-width:1.5;" x="271.087105" xlink:href="#m51fdd3c9b5" y="96.752903"/>
     <use style="fill-opacity:0;stroke:#6495ed;stroke-linejoin:miter;stroke-width:1.5;" x="314.991615" xlink:href="#m51fdd3c9b5" y="59.979313"/>
     <use style="fill-opacity:0;stroke:#6495ed;stroke-linejoin:miter;stroke-width:1.5;" x="333.168" xlink:href="#m51fdd3c9b5" y="49.472573"/>
     <use style="fill-opacity:0;stroke:#6495ed;stroke-linejoin:miter;stroke-width:1.5;" x="333.168" xlink:href="#m51fdd3c9b5" y="48.909712"/>
    </g>
   </g>
   <g id="line2d_42">
    <path style="fill:none;stroke:#6495ed;stroke-linecap:square;stroke-width:1.5;"/>
    <g/>
   </g>
   <g id="line2d_43">
    <path clip-path="url(#p92cf914006)" d="M 333.168 48.909712 
" style="fill:none;stroke:#6495ed;stroke-linecap:square;stroke-width:1.5;"/>
    <defs>
     <path d="M -12 12 
L 12 -12 
M -12 -12 
L 12 12 
" id="m9ecaae30ed" style="stroke:#6495ed;"/>
    </defs>
    <g clip-path="url(#p92cf914006)">
     <use style="fill:#6495ed;stroke:#6495ed;" x="333.168" xlink:href="#m9ecaae30ed" y="48.909712"/>
    </g>
   </g>
   <g id="line2d_44">
    <defs>
     <path d="M 0 1.5 
C 0.397805 1.5 0.77937 1.341951 1.06066 1.06066 
C 1.341951 0.77937 1.5 0.397805 1.5 0 
C 1.5 -0.397805 1.341951 -0.77937 1.06066 -1.06066 
C 0.77937 -1.341951 0.397805 -1.5 0 -1.5 
C -0.397805 -1.5 -0.77937 -1.341951 -1.06066 -1.06066 
C -1.341951 -0.77937 -1.5 -0.397805 -1.5 0 
C -1.5 0.397805 -1.341951 0.77937 -1.06066 1.06066 
C -0.77937 1.341951 -0.397805 1.5 0 1.5 
z
" id="mc1b6d9f1fd" style="stroke:#ff0000;"/>
    </defs>
    <g>
     <use style="fill:#ff0000;stroke:#ff0000;" x="399.223147" xlink:href="#mc1b6d9f1fd" y="31.085778"/>
     <use style="fill:#ff0000;stroke:#ff0000;" x="399.223147" xlink:href="#mc1b6d9f1fd" y="31.085778"/>
    </g>
   </g>
   <g id="line2d_45">
    <path d="M -0.34101 294.88 
L -0.34101 264.297882 
L 56.12 264.297882 
L 56.12 250.038735 
L 89.147574 250.038735 
L 89.147574 233.340523 
L 112.58101 233.340523 
L 112.58101 218.893755 
L 130.757396 218.893755 
L 130.757396 206.698432 
L 145.608584 206.698432 
L 145.608584 200.694581 
L 158.165085 200.694581 
L 158.165085 186.998295 
L 169.04202 186.998295 
L 169.04202 176.866795 
L 178.636158 176.866795 
L 178.636158 165.046713 
L 187.218406 165.046713 
L 187.218406 156.603797 
L 194.981994 156.603797 
L 194.981994 146.659918 
L 202.069594 146.659918 
L 202.069594 142.71989 
L 208.589554 142.71989 
L 208.589554 139.342724 
L 214.626095 139.342724 
L 214.626095 134.089354 
L 220.24598 134.089354 
L 220.24598 126.77216 
L 225.503031 126.77216 
L 225.503031 118.329244 
L 230.441271 118.329244 
L 230.441271 113.638735 
L 235.097168 113.638735 
L 235.097168 110.261569 
L 239.501268 110.261569 
L 239.501268 106.696782 
L 243.679416 106.696782 
L 243.679416 104.445338 
L 247.653669 104.445338 
L 247.653669 99.191968 
L 251.443004 99.191968 
L 251.443004 96.940523 
L 255.063868 96.940523 
L 255.063868 95.06432 
L 258.530604 95.06432 
L 258.530604 91.687153 
L 261.855802 91.687153 
L 261.855802 89.060468 
L 265.050565 89.060468 
L 265.050565 83.994719 
L 268.124742 83.994719 
L 268.124742 82.306135 
L 271.087105 82.306135 
L 271.087105 81.368034 
L 273.945504 81.368034 
L 273.945504 80.617552 
L 276.70699 80.617552 
L 276.70699 79.867071 
L 279.377918 79.867071 
L 279.377918 75.927043 
L 281.964041 75.927043 
L 281.964041 75.364182 
L 284.470578 75.364182 
L 284.470578 73.863219 
L 286.902281 73.863219 
L 286.902281 72.174636 
L 289.263491 72.174636 
L 289.263491 71.236534 
L 291.558178 71.236534 
L 291.558178 68.79747 
L 293.789989 68.79747 
L 293.789989 68.234609 
L 295.962279 68.234609 
L 295.962279 67.671748 
L 298.078138 67.671748 
L 298.078138 64.669822 
L 300.140426 64.669822 
L 300.140426 64.106961 
L 302.151788 64.106961 
L 302.151788 59.791693 
L 304.114679 59.791693 
L 304.114679 59.604072 
L 306.031379 59.604072 
L 306.031379 57.727869 
L 307.904014 57.727869 
L 307.904014 56.226906 
L 309.734564 56.226906 
L 309.734564 55.851665 
L 311.524878 55.851665 
L 311.524878 53.22498 
L 313.276688 53.22498 
L 313.276688 52.286878 
L 314.991615 52.286878 
L 314.991615 50.785915 
L 316.67118 50.785915 
L 316.67118 50.035434 
L 318.316812 50.035434 
L 318.316812 49.472573 
L 319.929855 49.472573 
L 319.929855 47.408749 
L 323.063165 47.408749 
L 323.063165 46.470647 
L 324.585752 46.470647 
L 324.585752 46.283027 
L 326.0804 46.283027 
L 326.0804 45.344925 
L 327.548115 45.344925 
L 327.548115 43.656342 
L 328.989852 43.656342 
L 328.989852 43.468721 
L 330.406515 43.468721 
L 330.406515 43.093481 
L 331.798959 43.093481 
L 331.798959 42.53062 
L 333.168 42.53062 
L 333.168 42.155379 
L 333.168 42.155379 
" style="fill:none;stroke:#ff0000;stroke-linecap:square;stroke-width:1.5;"/>
   </g>
   <g id="line2d_46">
    <defs>
     <path d="M 0 -6 
L -5.196152 -3 
L -5.196152 3 
L -0 6 
L 5.196152 3 
L 5.196152 -3 
z
" id="m148bd09590" style="stroke:#ff0000;stroke-linejoin:miter;stroke-width:1.5;"/>
    </defs>
    <g>
     <use style="fill-opacity:0;stroke:#ff0000;stroke-linejoin:miter;stroke-width:1.5;" x="112.58101" xlink:href="#m148bd09590" y="218.893755"/>
     <use style="fill-opacity:0;stroke:#ff0000;stroke-linejoin:miter;stroke-width:1.5;" x="169.04202" xlink:href="#m148bd09590" y="186.998295"/>
     <use style="fill-opacity:0;stroke:#ff0000;stroke-linejoin:miter;stroke-width:1.5;" x="214.626095" xlink:href="#m148bd09590" y="134.089354"/>
     <use style="fill-opacity:0;stroke:#ff0000;stroke-linejoin:miter;stroke-width:1.5;" x="284.470578" xlink:href="#m148bd09590" y="75.364182"/>
     <use style="fill-opacity:0;stroke:#ff0000;stroke-linejoin:miter;stroke-width:1.5;" x="333.168" xlink:href="#m148bd09590" y="42.53062"/>
     <use style="fill-opacity:0;stroke:#ff0000;stroke-linejoin:miter;stroke-width:1.5;" x="333.168" xlink:href="#m148bd09590" y="42.53062"/>
     <use style="fill-opacity:0;stroke:#ff0000;stroke-linejoin:miter;stroke-width:1.5;" x="333.168" xlink:href="#m148bd09590" y="42.155379"/>
    </g>
   </g>
   <g id="line2d_47">
    <path style="fill:none;stroke:#ff0000;stroke-linecap:square;stroke-width:1.5;"/>
    <g/>
   </g>
   <g id="line2d_48">
    <path clip-path="url(#p92cf914006)" d="M 333.168 42.155379 
" style="fill:none;stroke:#ff0000;stroke-linecap:square;stroke-width:1.5;"/>
    <defs>
     <path d="M -12 12 
L 12 -12 
M -12 -12 
L 12 12 
" id="m786ecdfaf7" style="stroke:#ff0000;"/>
    </defs>
    <g clip-path="url(#p92cf914006)">
     <use style="fill:#ff0000;stroke:#ff0000;" x="333.168" xlink:href="#m786ecdfaf7" y="42.155379"/>
    </g>
   </g>
   <g id="line2d_49">
    <path d="M 333.168 114.201596 
L 363.64328 289.176341 
" style="fill:none;stroke:#000080;stroke-linecap:square;stroke-width:1.5;"/>
    <g>
     <use style="fill-opacity:0;stroke:#000080;stroke-width:1.5;" x="333.168" xlink:href="#mab4d286a8c" y="114.201596"/>
     <use style="fill-opacity:0;stroke:#000080;stroke-width:1.5;" x="363.64328" xlink:href="#mab4d286a8c" y="289.176341"/>
    </g>
   </g>
   <g id="line2d_50">
    <path d="M 333.168 51.161156 
L 363.64328 234.421216 
" style="fill:none;stroke:#ff00ff;stroke-linecap:square;stroke-width:1.5;"/>
    <g>
     <use style="fill-opacity:0;stroke:#ff00ff;stroke-linejoin:miter;stroke-width:1.5;" x="333.168" xlink:href="#m8351e6c1aa" y="51.161156"/>
     <use style="fill-opacity:0;stroke:#ff00ff;stroke-linejoin:miter;stroke-width:1.5;" x="363.64328" xlink:href="#m8351e6c1aa" y="234.421216"/>
    </g>
   </g>
   <g id="line2d_51">
    <path d="M 333.168 48.909712 
L 363.64328 179.666091 
" style="fill:none;stroke:#6495ed;stroke-linecap:square;stroke-width:1.5;"/>
    <g>
     <use style="fill-opacity:0;stroke:#6495ed;stroke-linejoin:miter;stroke-width:1.5;" x="333.168" xlink:href="#m51fdd3c9b5" y="48.909712"/>
     <use style="fill-opacity:0;stroke:#6495ed;stroke-linejoin:miter;stroke-width:1.5;" x="363.64328" xlink:href="#m51fdd3c9b5" y="179.666091"/>
    </g>
   </g>
   <g id="line2d_52">
    <path d="M 333.168 46.283027 
L 363.64328 124.910966 
" style="fill:none;stroke:#ffa500;stroke-linecap:square;stroke-width:1.5;"/>
    <g>
     <use style="fill-opacity:0;stroke:#ffa500;stroke-linejoin:bevel;stroke-width:1.5;" x="333.168" xlink:href="#m57638d4c06" y="46.283027"/>
     <use style="fill-opacity:0;stroke:#ffa500;stroke-linejoin:bevel;stroke-width:1.5;" x="363.64328" xlink:href="#m57638d4c06" y="124.910966"/>
    </g>
   </g>
   <g id="line2d_53">
    <path d="M 333.168 42.155379 
L 363.64328 70.155841 
" style="fill:none;stroke:#ff0000;stroke-linecap:square;stroke-width:1.5;"/>
    <g>
     <use style="fill-opacity:0;stroke:#ff0000;stroke-linejoin:miter;stroke-width:1.5;" x="333.168" xlink:href="#m148bd09590" y="42.155379"/>
     <use style="fill-opacity:0;stroke:#ff0000;stroke-linejoin:miter;stroke-width:1.5;" x="363.64328" xlink:href="#m148bd09590" y="70.155841"/>
    </g>
   </g>
   <g id="line2d_54">
    <path d="M 333.168 294.88 
L 333.168 9.697057 
" style="fill:none;stroke:#000000;stroke-linecap:square;stroke-width:1.5;"/>
   </g>
   <g id="patch_3">
    <path d="M 56.12 294.88 
L 56.12 6.845228 
" style="fill:none;stroke:#000000;stroke-linecap:square;stroke-linejoin:miter;stroke-width:0.8;"/>
   </g>
   <g id="patch_4">
    <path d="M 333.168 294.88 
L 333.168 6.845228 
" style="fill:none;stroke:#000000;stroke-linecap:square;stroke-linejoin:miter;stroke-width:0.8;"/>
   </g>
   <g id="patch_5">
    <path d="M 56.12 294.88 
L 333.168 294.88 
" style="fill:none;stroke:#000000;stroke-linecap:square;stroke-linejoin:miter;stroke-width:0.8;"/>
   </g>
   <g id="patch_6">
    <path d="M 56.12 6.845228 
L 333.168 6.845228 
" style="fill:none;stroke:#000000;stroke-linecap:square;stroke-linejoin:miter;stroke-width:0.8;"/>
   </g>
   <g id="text_10">
    <!-- random -->
    <g transform="translate(369.18424 293.867279)scale(0.17 -0.17)">
     <use xlink:href="#DejaVuSans-72"/>
     <use x="41.113281" xlink:href="#DejaVuSans-61"/>
     <use x="102.392578" xlink:href="#DejaVuSans-6e"/>
     <use x="165.771484" xlink:href="#DejaVuSans-64"/>
     <use x="229.248047" xlink:href="#DejaVuSans-6f"/>
     <use x="290.429688" xlink:href="#DejaVuSans-6d"/>
    </g>
   </g>
   <g id="text_11">
    <!-- M -->
    <defs>
     <path d="M 9.8125 72.90625 
L 24.515625 72.90625 
L 43.109375 23.296875 
L 61.8125 72.90625 
L 76.515625 72.90625 
L 76.515625 0 
L 66.890625 0 
L 66.890625 64.015625 
L 48.09375 14.015625 
L 38.1875 14.015625 
L 19.390625 64.015625 
L 19.390625 0 
L 9.8125 0 
z
" id="DejaVuSans-4d"/>
    </defs>
    <g transform="translate(369.18424 239.112154)scale(0.17 -0.17)">
     <use xlink:href="#DejaVuSans-4d"/>
    </g>
   </g>
   <g id="text_12">
    <!-- MeanM -->
    <g transform="translate(369.18424 184.357029)scale(0.17 -0.17)">
     <use xlink:href="#DejaVuSans-4d"/>
     <use x="86.279297" xlink:href="#DejaVuSans-65"/>
     <use x="147.802734" xlink:href="#DejaVuSans-61"/>
     <use x="209.082031" xlink:href="#DejaVuSans-6e"/>
     <use x="272.460938" xlink:href="#DejaVuSans-4d"/>
    </g>
   </g>
   <g id="text_13">
    <!-- S -->
    <defs>
     <path d="M 53.515625 70.515625 
L 53.515625 60.890625 
Q 47.90625 63.578125 42.921875 64.890625 
Q 37.9375 66.21875 33.296875 66.21875 
Q 25.25 66.21875 20.875 63.09375 
Q 16.5 59.96875 16.5 54.203125 
Q 16.5 49.359375 19.40625 46.890625 
Q 22.3125 44.4375 30.421875 42.921875 
L 36.375 41.703125 
Q 47.40625 39.59375 52.65625 34.296875 
Q 57.90625 29 57.90625 20.125 
Q 57.90625 9.515625 50.796875 4.046875 
Q 43.703125 -1.421875 29.984375 -1.421875 
Q 24.8125 -1.421875 18.96875 -0.25 
Q 13.140625 0.921875 6.890625 3.21875 
L 6.890625 13.375 
Q 12.890625 10.015625 18.65625 8.296875 
Q 24.421875 6.59375 29.984375 6.59375 
Q 38.421875 6.59375 43.015625 9.90625 
Q 47.609375 13.234375 47.609375 19.390625 
Q 47.609375 24.75 44.3125 27.78125 
Q 41.015625 30.8125 33.5 32.328125 
L 27.484375 33.5 
Q 16.453125 35.6875 11.515625 40.375 
Q 6.59375 45.0625 6.59375 53.421875 
Q 6.59375 63.09375 13.40625 68.65625 
Q 20.21875 74.21875 32.171875 74.21875 
Q 37.3125 74.21875 42.625 73.28125 
Q 47.953125 72.359375 53.515625 70.515625 
z
" id="DejaVuSans-53"/>
    </defs>
    <g transform="translate(369.18424 129.601904)scale(0.17 -0.17)">
     <use xlink:href="#DejaVuSans-53"/>
    </g>
   </g>
   <g id="text_14">
    <!-- MeanS -->
    <g transform="translate(369.18424 74.846779)scale(0.17 -0.17)">
     <use xlink:href="#DejaVuSans-4d"/>
     <use x="86.279297" xlink:href="#DejaVuSans-65"/>
     <use x="147.802734" xlink:href="#DejaVuSans-61"/>
     <use x="209.082031" xlink:href="#DejaVuSans-6e"/>
     <use x="272.460938" xlink:href="#DejaVuSans-53"/>
    </g>
   </g>
   <g id="text_15">
    <!-- best09 -->
    <defs>
     <path d="M 48.6875 27.296875 
Q 48.6875 37.203125 44.609375 42.84375 
Q 40.53125 48.484375 33.40625 48.484375 
Q 26.265625 48.484375 22.1875 42.84375 
Q 18.109375 37.203125 18.109375 27.296875 
Q 18.109375 17.390625 22.1875 11.75 
Q 26.265625 6.109375 33.40625 6.109375 
Q 40.53125 6.109375 44.609375 11.75 
Q 48.6875 17.390625 48.6875 27.296875 
z
M 18.109375 46.390625 
Q 20.953125 51.265625 25.265625 53.625 
Q 29.59375 56 35.59375 56 
Q 45.5625 56 51.78125 48.09375 
Q 58.015625 40.1875 58.015625 27.296875 
Q 58.015625 14.40625 51.78125 6.484375 
Q 45.5625 -1.421875 35.59375 -1.421875 
Q 29.59375 -1.421875 25.265625 0.953125 
Q 20.953125 3.328125 18.109375 8.203125 
L 18.109375 0 
L 9.078125 0 
L 9.078125 75.984375 
L 18.109375 75.984375 
z
" id="DejaVuSans-62"/>
     <path d="M 10.984375 1.515625 
L 10.984375 10.5 
Q 14.703125 8.734375 18.5 7.8125 
Q 22.3125 6.890625 25.984375 6.890625 
Q 35.75 6.890625 40.890625 13.453125 
Q 46.046875 20.015625 46.78125 33.40625 
Q 43.953125 29.203125 39.59375 26.953125 
Q 35.25 24.703125 29.984375 24.703125 
Q 19.046875 24.703125 12.671875 31.3125 
Q 6.296875 37.9375 6.296875 49.421875 
Q 6.296875 60.640625 12.9375 67.421875 
Q 19.578125 74.21875 30.609375 74.21875 
Q 43.265625 74.21875 49.921875 64.515625 
Q 56.59375 54.828125 56.59375 36.375 
Q 56.59375 19.140625 48.40625 8.859375 
Q 40.234375 -1.421875 26.421875 -1.421875 
Q 22.703125 -1.421875 18.890625 -0.6875 
Q 15.09375 0.046875 10.984375 1.515625 
z
M 30.609375 32.421875 
Q 37.25 32.421875 41.125 36.953125 
Q 45.015625 41.5 45.015625 49.421875 
Q 45.015625 57.28125 41.125 61.84375 
Q 37.25 66.40625 30.609375 66.40625 
Q 23.96875 66.40625 20.09375 61.84375 
Q 16.21875 57.28125 16.21875 49.421875 
Q 16.21875 41.5 20.09375 36.953125 
Q 23.96875 32.421875 30.609375 32.421875 
z
" id="DejaVuSans-39"/>
    </defs>
    <g transform="translate(369.18424 20.091654)scale(0.17 -0.17)">
     <use xlink:href="#DejaVuSans-62"/>
     <use x="63.476562" xlink:href="#DejaVuSans-65"/>
     <use x="125" xlink:href="#DejaVuSans-73"/>
     <use x="177.099609" xlink:href="#DejaVuSans-74"/>
     <use x="216.308594" xlink:href="#DejaVuSans-30"/>
     <use x="279.931641" xlink:href="#DejaVuSans-39"/>
    </g>
   </g>
   <g id="text_16">
    <!-- bbob f1-f24, 2-D -->
    <defs>
     <path d="M 19.671875 64.796875 
L 19.671875 8.109375 
L 31.59375 8.109375 
Q 46.6875 8.109375 53.6875 14.9375 
Q 60.6875 21.78125 60.6875 36.53125 
Q 60.6875 51.171875 53.6875 57.984375 
Q 46.6875 64.796875 31.59375 64.796875 
z
M 9.8125 72.90625 
L 30.078125 72.90625 
Q 51.265625 72.90625 61.171875 64.09375 
Q 71.09375 55.28125 71.09375 36.53125 
Q 71.09375 17.671875 61.125 8.828125 
Q 51.171875 0 30.078125 0 
L 9.8125 0 
z
" id="DejaVuSans-44"/>
    </defs>
    <g transform="translate(58.89048 17.475982)scale(0.102 -0.102)">
     <use xlink:href="#DejaVuSans-62"/>
     <use x="63.476562" xlink:href="#DejaVuSans-62"/>
     <use x="126.953125" xlink:href="#DejaVuSans-6f"/>
     <use x="188.134766" xlink:href="#DejaVuSans-62"/>
     <use x="251.611328" xlink:href="#DejaVuSans-20"/>
     <use x="283.398438" xlink:href="#DejaVuSans-66"/>
     <use x="318.603516" xlink:href="#DejaVuSans-31"/>
     <use x="382.226562" xlink:href="#DejaVuSans-2d"/>
     <use x="418.310547" xlink:href="#DejaVuSans-66"/>
     <use x="453.515625" xlink:href="#DejaVuSans-32"/>
     <use x="517.138672" xlink:href="#DejaVuSans-34"/>
     <use x="580.761719" xlink:href="#DejaVuSans-2c"/>
     <use x="612.548828" xlink:href="#DejaVuSans-20"/>
     <use x="644.335938" xlink:href="#DejaVuSans-32"/>
     <use x="707.958984" xlink:href="#DejaVuSans-2d"/>
     <use x="744.042969" xlink:href="#DejaVuSans-44"/>
    </g>
    <!-- 8 targets RLs/dim: 0.5..20 -->
    <defs>
     <path d="M 44.390625 34.1875 
Q 47.5625 33.109375 50.5625 29.59375 
Q 53.5625 26.078125 56.59375 19.921875 
L 66.609375 0 
L 56 0 
L 46.6875 18.703125 
Q 43.0625 26.03125 39.671875 28.421875 
Q 36.28125 30.8125 30.421875 30.8125 
L 19.671875 30.8125 
L 19.671875 0 
L 9.8125 0 
L 9.8125 72.90625 
L 32.078125 72.90625 
Q 44.578125 72.90625 50.734375 67.671875 
Q 56.890625 62.453125 56.890625 51.90625 
Q 56.890625 45.015625 53.6875 40.46875 
Q 50.484375 35.9375 44.390625 34.1875 
z
M 19.671875 64.796875 
L 19.671875 38.921875 
L 32.078125 38.921875 
Q 39.203125 38.921875 42.84375 42.21875 
Q 46.484375 45.515625 46.484375 51.90625 
Q 46.484375 58.296875 42.84375 61.546875 
Q 39.203125 64.796875 32.078125 64.796875 
z
" id="DejaVuSans-52"/>
     <path d="M 9.8125 72.90625 
L 19.671875 72.90625 
L 19.671875 8.296875 
L 55.171875 8.296875 
L 55.171875 0 
L 9.8125 0 
z
" id="DejaVuSans-4c"/>
     <path d="M 11.71875 12.40625 
L 22.015625 12.40625 
L 22.015625 0 
L 11.71875 0 
z
M 11.71875 51.703125 
L 22.015625 51.703125 
L 22.015625 39.3125 
L 11.71875 39.3125 
z
" id="DejaVuSans-3a"/>
     <path d="M 10.796875 72.90625 
L 49.515625 72.90625 
L 49.515625 64.59375 
L 19.828125 64.59375 
L 19.828125 46.734375 
Q 21.96875 47.46875 24.109375 47.828125 
Q 26.265625 48.1875 28.421875 48.1875 
Q 40.625 48.1875 47.75 41.5 
Q 54.890625 34.8125 54.890625 23.390625 
Q 54.890625 11.625 47.5625 5.09375 
Q 40.234375 -1.421875 26.90625 -1.421875 
Q 22.3125 -1.421875 17.546875 -0.640625 
Q 12.796875 0.140625 7.71875 1.703125 
L 7.71875 11.625 
Q 12.109375 9.234375 16.796875 8.0625 
Q 21.484375 6.890625 26.703125 6.890625 
Q 35.15625 6.890625 40.078125 11.328125 
Q 45.015625 15.765625 45.015625 23.390625 
Q 45.015625 31 40.078125 35.4375 
Q 35.15625 39.890625 26.703125 39.890625 
Q 22.75 39.890625 18.8125 39.015625 
Q 14.890625 38.140625 10.796875 36.28125 
z
" id="DejaVuSans-35"/>
    </defs>
    <g transform="translate(58.89048 28.89775)scale(0.102 -0.102)">
     <use xlink:href="#DejaVuSans-38"/>
     <use x="63.623047" xlink:href="#DejaVuSans-20"/>
     <use x="95.410156" xlink:href="#DejaVuSans-74"/>
     <use x="134.619141" xlink:href="#DejaVuSans-61"/>
     <use x="195.898438" xlink:href="#DejaVuSans-72"/>
     <use x="236.996094" xlink:href="#DejaVuSans-67"/>
     <use x="300.472656" xlink:href="#DejaVuSans-65"/>
     <use x="361.996094" xlink:href="#DejaVuSans-74"/>
     <use x="401.205078" xlink:href="#DejaVuSans-73"/>
     <use x="453.304688" xlink:href="#DejaVuSans-20"/>
     <use x="485.091797" xlink:href="#DejaVuSans-52"/>
     <use x="554.574219" xlink:href="#DejaVuSans-4c"/>
     <use x="610.287109" xlink:href="#DejaVuSans-73"/>
     <use x="662.386719" xlink:href="#DejaVuSans-2f"/>
     <use x="696.078125" xlink:href="#DejaVuSans-64"/>
     <use x="759.554688" xlink:href="#DejaVuSans-69"/>
     <use x="787.337891" xlink:href="#DejaVuSans-6d"/>
     <use x="884.75" xlink:href="#DejaVuSans-3a"/>
     <use x="918.441406" xlink:href="#DejaVuSans-20"/>
     <use x="950.228516" xlink:href="#DejaVuSans-30"/>
     <use x="1013.851562" xlink:href="#DejaVuSans-2e"/>
     <use x="1045.638672" xlink:href="#DejaVuSans-35"/>
     <use x="1109.261719" xlink:href="#DejaVuSans-2e"/>
     <use x="1141.048828" xlink:href="#DejaVuSans-2e"/>
     <use x="1172.835938" xlink:href="#DejaVuSans-32"/>
     <use x="1236.458984" xlink:href="#DejaVuSans-30"/>
    </g>
    <!--   from /home/local/EMSE2000/leriche/AESOP/EXPE_DOCOCO/bestCustomAlg -->
    <defs>
     <path d="M 54.890625 33.015625 
L 54.890625 0 
L 45.90625 0 
L 45.90625 32.71875 
Q 45.90625 40.484375 42.875 44.328125 
Q 39.84375 48.1875 33.796875 48.1875 
Q 26.515625 48.1875 22.3125 43.546875 
Q 18.109375 38.921875 18.109375 30.90625 
L 18.109375 0 
L 9.078125 0 
L 9.078125 75.984375 
L 18.109375 75.984375 
L 18.109375 46.1875 
Q 21.34375 51.125 25.703125 53.5625 
Q 30.078125 56 35.796875 56 
Q 45.21875 56 50.046875 50.171875 
Q 54.890625 44.34375 54.890625 33.015625 
z
" id="DejaVuSans-68"/>
     <path d="M 9.8125 72.90625 
L 55.90625 72.90625 
L 55.90625 64.59375 
L 19.671875 64.59375 
L 19.671875 43.015625 
L 54.390625 43.015625 
L 54.390625 34.71875 
L 19.671875 34.71875 
L 19.671875 8.296875 
L 56.78125 8.296875 
L 56.78125 0 
L 9.8125 0 
z
" id="DejaVuSans-45"/>
     <path d="M 34.1875 63.1875 
L 20.796875 26.90625 
L 47.609375 26.90625 
z
M 28.609375 72.90625 
L 39.796875 72.90625 
L 67.578125 0 
L 57.328125 0 
L 50.6875 18.703125 
L 17.828125 18.703125 
L 11.1875 0 
L 0.78125 0 
z
" id="DejaVuSans-41"/>
     <path d="M 39.40625 66.21875 
Q 28.65625 66.21875 22.328125 58.203125 
Q 16.015625 50.203125 16.015625 36.375 
Q 16.015625 22.609375 22.328125 14.59375 
Q 28.65625 6.59375 39.40625 6.59375 
Q 50.140625 6.59375 56.421875 14.59375 
Q 62.703125 22.609375 62.703125 36.375 
Q 62.703125 50.203125 56.421875 58.203125 
Q 50.140625 66.21875 39.40625 66.21875 
z
M 39.40625 74.21875 
Q 54.734375 74.21875 63.90625 63.9375 
Q 73.09375 53.65625 73.09375 36.375 
Q 73.09375 19.140625 63.90625 8.859375 
Q 54.734375 -1.421875 39.40625 -1.421875 
Q 24.03125 -1.421875 14.8125 8.828125 
Q 5.609375 19.09375 5.609375 36.375 
Q 5.609375 53.65625 14.8125 63.9375 
Q 24.03125 74.21875 39.40625 74.21875 
z
" id="DejaVuSans-4f"/>
     <path d="M 19.671875 64.796875 
L 19.671875 37.40625 
L 32.078125 37.40625 
Q 38.96875 37.40625 42.71875 40.96875 
Q 46.484375 44.53125 46.484375 51.125 
Q 46.484375 57.671875 42.71875 61.234375 
Q 38.96875 64.796875 32.078125 64.796875 
z
M 9.8125 72.90625 
L 32.078125 72.90625 
Q 44.34375 72.90625 50.609375 67.359375 
Q 56.890625 61.8125 56.890625 51.125 
Q 56.890625 40.328125 50.609375 34.8125 
Q 44.34375 29.296875 32.078125 29.296875 
L 19.671875 29.296875 
L 19.671875 0 
L 9.8125 0 
z
" id="DejaVuSans-50"/>
     <path d="M 6.296875 72.90625 
L 16.890625 72.90625 
L 35.015625 45.796875 
L 53.21875 72.90625 
L 63.8125 72.90625 
L 40.375 37.890625 
L 65.375 0 
L 54.78125 0 
L 34.28125 31 
L 13.625 0 
L 2.984375 0 
L 29 38.921875 
z
" id="DejaVuSans-58"/>
     <path d="M 50.984375 -16.609375 
L 50.984375 -23.578125 
L -0.984375 -23.578125 
L -0.984375 -16.609375 
z
" id="DejaVuSans-5f"/>
     <path d="M 64.40625 67.28125 
L 64.40625 56.890625 
Q 59.421875 61.53125 53.78125 63.8125 
Q 48.140625 66.109375 41.796875 66.109375 
Q 29.296875 66.109375 22.65625 58.46875 
Q 16.015625 50.828125 16.015625 36.375 
Q 16.015625 21.96875 22.65625 14.328125 
Q 29.296875 6.6875 41.796875 6.6875 
Q 48.140625 6.6875 53.78125 8.984375 
Q 59.421875 11.28125 64.40625 15.921875 
L 64.40625 5.609375 
Q 59.234375 2.09375 53.4375 0.328125 
Q 47.65625 -1.421875 41.21875 -1.421875 
Q 24.65625 -1.421875 15.125 8.703125 
Q 5.609375 18.84375 5.609375 36.375 
Q 5.609375 53.953125 15.125 64.078125 
Q 24.65625 74.21875 41.21875 74.21875 
Q 47.75 74.21875 53.53125 72.484375 
Q 59.328125 70.75 64.40625 67.28125 
z
" id="DejaVuSans-43"/>
    </defs>
    <g transform="translate(58.89048 40.319519)scale(0.102 -0.102)">
     <use xlink:href="#DejaVuSans-20"/>
     <use x="31.787109" xlink:href="#DejaVuSans-20"/>
     <use x="63.574219" xlink:href="#DejaVuSans-66"/>
     <use x="98.779297" xlink:href="#DejaVuSans-72"/>
     <use x="139.861328" xlink:href="#DejaVuSans-6f"/>
     <use x="201.042969" xlink:href="#DejaVuSans-6d"/>
     <use x="298.455078" xlink:href="#DejaVuSans-20"/>
     <use x="330.242188" xlink:href="#DejaVuSans-2f"/>
     <use x="363.933594" xlink:href="#DejaVuSans-68"/>
     <use x="427.3125" xlink:href="#DejaVuSans-6f"/>
     <use x="488.494141" xlink:href="#DejaVuSans-6d"/>
     <use x="585.90625" xlink:href="#DejaVuSans-65"/>
     <use x="647.429688" xlink:href="#DejaVuSans-2f"/>
     <use x="681.121094" xlink:href="#DejaVuSans-6c"/>
     <use x="708.904297" xlink:href="#DejaVuSans-6f"/>
     <use x="770.085938" xlink:href="#DejaVuSans-63"/>
     <use x="825.066406" xlink:href="#DejaVuSans-61"/>
     <use x="886.345703" xlink:href="#DejaVuSans-6c"/>
     <use x="914.128906" xlink:href="#DejaVuSans-2f"/>
     <use x="947.820312" xlink:href="#DejaVuSans-45"/>
     <use x="1011.003906" xlink:href="#DejaVuSans-4d"/>
     <use x="1097.283203" xlink:href="#DejaVuSans-53"/>
     <use x="1160.759766" xlink:href="#DejaVuSans-45"/>
     <use x="1223.943359" xlink:href="#DejaVuSans-32"/>
     <use x="1287.566406" xlink:href="#DejaVuSans-30"/>
     <use x="1351.189453" xlink:href="#DejaVuSans-30"/>
     <use x="1414.8125" xlink:href="#DejaVuSans-30"/>
     <use x="1478.435547" xlink:href="#DejaVuSans-2f"/>
     <use x="1512.126953" xlink:href="#DejaVuSans-6c"/>
     <use x="1539.910156" xlink:href="#DejaVuSans-65"/>
     <use x="1601.433594" xlink:href="#DejaVuSans-72"/>
     <use x="1642.546875" xlink:href="#DejaVuSans-69"/>
     <use x="1670.330078" xlink:href="#DejaVuSans-63"/>
     <use x="1725.310547" xlink:href="#DejaVuSans-68"/>
     <use x="1788.689453" xlink:href="#DejaVuSans-65"/>
     <use x="1850.212891" xlink:href="#DejaVuSans-2f"/>
     <use x="1883.904297" xlink:href="#DejaVuSans-41"/>
     <use x="1952.3125" xlink:href="#DejaVuSans-45"/>
     <use x="2015.496094" xlink:href="#DejaVuSans-53"/>
     <use x="2078.972656" xlink:href="#DejaVuSans-4f"/>
     <use x="2157.683594" xlink:href="#DejaVuSans-50"/>
     <use x="2217.986328" xlink:href="#DejaVuSans-2f"/>
     <use x="2251.677734" xlink:href="#DejaVuSans-45"/>
     <use x="2314.861328" xlink:href="#DejaVuSans-58"/>
     <use x="2383.367188" xlink:href="#DejaVuSans-50"/>
     <use x="2443.669922" xlink:href="#DejaVuSans-45"/>
     <use x="2506.853516" xlink:href="#DejaVuSans-5f"/>
     <use x="2556.853516" xlink:href="#DejaVuSans-44"/>
     <use x="2633.855469" xlink:href="#DejaVuSans-4f"/>
     <use x="2712.566406" xlink:href="#DejaVuSans-43"/>
     <use x="2782.390625" xlink:href="#DejaVuSans-4f"/>
     <use x="2861.101562" xlink:href="#DejaVuSans-43"/>
     <use x="2930.925781" xlink:href="#DejaVuSans-4f"/>
     <use x="3009.636719" xlink:href="#DejaVuSans-2f"/>
     <use x="3043.328125" xlink:href="#DejaVuSans-62"/>
     <use x="3106.804688" xlink:href="#DejaVuSans-65"/>
     <use x="3168.328125" xlink:href="#DejaVuSans-73"/>
     <use x="3220.427734" xlink:href="#DejaVuSans-74"/>
     <use x="3259.636719" xlink:href="#DejaVuSans-43"/>
     <use x="3329.460938" xlink:href="#DejaVuSans-75"/>
     <use x="3392.839844" xlink:href="#DejaVuSans-73"/>
     <use x="3444.939453" xlink:href="#DejaVuSans-74"/>
     <use x="3484.148438" xlink:href="#DejaVuSans-6f"/>
     <use x="3545.330078" xlink:href="#DejaVuSans-6d"/>
     <use x="3642.742188" xlink:href="#DejaVuSans-41"/>
     <use x="3711.150391" xlink:href="#DejaVuSans-6c"/>
     <use x="3738.933594" xlink:href="#DejaVuSans-67"/>
    </g>
    <!-- 15 instances -->
    <g transform="translate(58.89048 52.024975)scale(0.102 -0.102)">
     <use xlink:href="#DejaVuSans-31"/>
     <use x="63.623047" xlink:href="#DejaVuSans-35"/>
     <use x="127.246094" xlink:href="#DejaVuSans-20"/>
     <use x="159.033203" xlink:href="#DejaVuSans-69"/>
     <use x="186.816406" xlink:href="#DejaVuSans-6e"/>
     <use x="250.195312" xlink:href="#DejaVuSans-73"/>
     <use x="302.294922" xlink:href="#DejaVuSans-74"/>
     <use x="341.503906" xlink:href="#DejaVuSans-61"/>
     <use x="402.783203" xlink:href="#DejaVuSans-6e"/>
     <use x="466.162109" xlink:href="#DejaVuSans-63"/>
     <use x="521.142578" xlink:href="#DejaVuSans-65"/>
     <use x="582.666016" xlink:href="#DejaVuSans-73"/>
    </g>
   </g>
   <g id="text_17">
    <!-- v2.3.1 -->
    <defs>
     <path d="M 40.578125 39.3125 
Q 47.65625 37.796875 51.625 33 
Q 55.609375 28.21875 55.609375 21.1875 
Q 55.609375 10.40625 48.1875 4.484375 
Q 40.765625 -1.421875 27.09375 -1.421875 
Q 22.515625 -1.421875 17.65625 -0.515625 
Q 12.796875 0.390625 7.625 2.203125 
L 7.625 11.71875 
Q 11.71875 9.328125 16.59375 8.109375 
Q 21.484375 6.890625 26.8125 6.890625 
Q 36.078125 6.890625 40.9375 10.546875 
Q 45.796875 14.203125 45.796875 21.1875 
Q 45.796875 27.640625 41.28125 31.265625 
Q 36.765625 34.90625 28.71875 34.90625 
L 20.21875 34.90625 
L 20.21875 43.015625 
L 29.109375 43.015625 
Q 36.375 43.015625 40.234375 45.921875 
Q 44.09375 48.828125 44.09375 54.296875 
Q 44.09375 59.90625 40.109375 62.90625 
Q 36.140625 65.921875 28.71875 65.921875 
Q 24.65625 65.921875 20.015625 65.03125 
Q 15.375 64.15625 9.8125 62.3125 
L 9.8125 71.09375 
Q 15.4375 72.65625 20.34375 73.4375 
Q 25.25 74.21875 29.59375 74.21875 
Q 40.828125 74.21875 47.359375 69.109375 
Q 53.90625 64.015625 53.90625 55.328125 
Q 53.90625 49.265625 50.4375 45.09375 
Q 46.96875 40.921875 40.578125 39.3125 
z
" id="DejaVuSans-33"/>
    </defs>
    <g style="fill:#808080;" transform="translate(178.96275 289.919965)scale(0.1 -0.1)">
     <use xlink:href="#DejaVuSans-76"/>
     <use x="59.179688" xlink:href="#DejaVuSans-32"/>
     <use x="122.802734" xlink:href="#DejaVuSans-2e"/>
     <use x="154.589844" xlink:href="#DejaVuSans-33"/>
     <use x="218.212891" xlink:href="#DejaVuSans-2e"/>
     <use x="250" xlink:href="#DejaVuSans-31"/>
    </g>
   </g>
  </g>
 </g>
 <defs>
  <clipPath id="p92cf914006">
   <rect height="288.034772" width="277.048" x="56.12" y="6.845228"/>
  </clipPath>
 </defs>
</svg>
