<?xml version="1.0" encoding="utf-8" standalone="no"?>
<!DOCTYPE svg PUBLIC "-//W3C//DTD SVG 1.1//EN"
  "http://www.w3.org/Graphics/SVG/1.1/DTD/svg11.dtd">
<!-- Created with matplotlib (https://matplotlib.org/) -->
<svg height="345.6pt" version="1.1" viewBox="0 0 460.8 345.6" width="460.8pt" xmlns="http://www.w3.org/2000/svg" xmlns:xlink="http://www.w3.org/1999/xlink">
 <metadata>
  <rdf:RDF xmlns:cc="http://creativecommons.org/ns#" xmlns:dc="http://purl.org/dc/elements/1.1/" xmlns:rdf="http://www.w3.org/1999/02/22-rdf-syntax-ns#">
   <cc:Work>
    <dc:type rdf:resource="http://purl.org/dc/dcmitype/StillImage"/>
    <dc:date>2020-12-01T10:58:43.261405</dc:date>
    <dc:format>image/svg+xml</dc:format>
    <dc:creator>
     <cc:Agent>
      <dc:title>Matplotlib v3.3.3, https://matplotlib.org/</dc:title>
     </cc:Agent>
    </dc:creator>
   </cc:Work>
  </rdf:RDF>
 </metadata>
 <defs>
  <style type="text/css">*{stroke-linecap:butt;stroke-linejoin:round;}</style>
 </defs>
 <g id="figure_1">
  <g id="patch_1">
   <path d="M 0 345.6 
L 460.8 345.6 
L 460.8 0 
L 0 0 
z
" style="fill:#ffffff;"/>
  </g>
  <g id="axes_1">
   <g id="patch_2">
    <path d="M 57.6 298.944 
L 338.688 298.944 
L 338.688 3.456 
L 57.6 3.456 
z
" style="fill:#ffffff;"/>
   </g>
   <g id="line2d_1">
    <path d="M 15.383411 298.944 
L 15.383411 274.563802 
L 39.158561 274.563802 
L 39.158561 262.373703 
L 57.6 262.373703 
L 57.6 250.183604 
L 72.667753 250.183604 
L 72.667753 237.993505 
L 106.176945 237.993505 
L 106.176945 225.803406 
L 114.884342 225.803406 
L 114.884342 213.613307 
L 122.761141 213.613307 
L 122.761141 201.423208 
L 148.393534 201.423208 
L 148.393534 189.233109 
L 153.727245 189.233109 
L 153.727245 177.04301 
L 211.011587 177.04301 
L 211.011587 152.662812 
L 213.554675 152.662812 
L 213.554675 140.472713 
L 223.009986 140.472713 
L 223.009986 128.282614 
L 241.00349 128.282614 
L 241.00349 116.092515 
L 244.52078 116.092515 
L 244.52078 103.902416 
L 274.512682 103.902416 
L 274.512682 91.712317 
L 290.769575 91.712317 
L 290.769575 79.522218 
L 299.181287 79.522218 
L 299.181287 67.332119 
L 312.300863 67.332119 
L 312.300863 55.14202 
L 318.857556 55.14202 
L 318.857556 42.951921 
L 326.861597 42.951921 
L 326.861597 30.761822 
L 338.688 30.761822 
" style="fill:none;stroke:#f5deb3;stroke-linecap:square;stroke-width:4;"/>
   </g>
   <g id="line2d_2">
    <defs>
     <path d="M -0 7.778175 
L 7.778175 0 
L 0 -7.778175 
L -7.778175 -0 
z
" id="ma94f652e5e" style="stroke:#f5deb3;stroke-linejoin:miter;stroke-width:1.5;"/>
    </defs>
    <g>
     <use style="fill:#f5deb3;stroke:#f5deb3;stroke-linejoin:miter;stroke-width:1.5;" x="114.884342" xlink:href="#ma94f652e5e" y="213.613307"/>
     <use style="fill:#f5deb3;stroke:#f5deb3;stroke-linejoin:miter;stroke-width:1.5;" x="153.727245" xlink:href="#ma94f652e5e" y="177.04301"/>
     <use style="fill:#f5deb3;stroke:#f5deb3;stroke-linejoin:miter;stroke-width:1.5;" x="223.009986" xlink:href="#ma94f652e5e" y="140.472713"/>
     <use style="fill:#f5deb3;stroke:#f5deb3;stroke-linejoin:miter;stroke-width:1.5;" x="290.769575" xlink:href="#ma94f652e5e" y="79.522218"/>
     <use style="fill:#f5deb3;stroke:#f5deb3;stroke-linejoin:miter;stroke-width:1.5;" x="326.861597" xlink:href="#ma94f652e5e" y="42.951921"/>
     <use style="fill:#f5deb3;stroke:#f5deb3;stroke-linejoin:miter;stroke-width:1.5;" x="326.861597" xlink:href="#ma94f652e5e" y="30.761822"/>
     <use style="fill:#f5deb3;stroke:#f5deb3;stroke-linejoin:miter;stroke-width:1.5;" x="338.688" xlink:href="#ma94f652e5e" y="30.761822"/>
    </g>
   </g>
   <g id="line2d_3">
    <path style="fill:none;stroke:#f5deb3;stroke-linecap:square;stroke-width:4;"/>
    <g/>
   </g>
   <g id="line2d_4">
    <path d="M 338.688 30.761822 
L 369.60768 12.232871 
" style="fill:none;stroke:#f5deb3;stroke-linecap:square;stroke-width:4;"/>
    <g>
     <use style="fill:#f5deb3;stroke:#f5deb3;stroke-linejoin:miter;stroke-width:1.5;" x="338.688" xlink:href="#ma94f652e5e" y="30.761822"/>
     <use style="fill:#f5deb3;stroke:#f5deb3;stroke-linejoin:miter;stroke-width:1.5;" x="369.60768" xlink:href="#ma94f652e5e" y="12.232871"/>
    </g>
   </g>
   <g id="matplotlib.axis_1">
    <g id="xtick_1">
     <g id="line2d_5">
      <path clip-path="url(#pa73085670a)" d="M 57.6 298.944 
L 57.6 3.456 
" style="fill:none;stroke:#b0b0b0;stroke-linecap:square;stroke-width:0.8;"/>
     </g>
     <g id="line2d_6">
      <defs>
       <path d="M 0 0 
L 0 3.5 
" id="m4d3ebf382c" style="stroke:#000000;stroke-width:0.8;"/>
      </defs>
      <g>
       <use style="stroke:#000000;stroke-width:0.8;" x="57.6" xlink:href="#m4d3ebf382c" y="298.944"/>
      </g>
     </g>
     <g id="text_1">
      <!-- 0 -->
      <g transform="translate(51.2375 321.140875)scale(0.2 -0.2)">
       <defs>
        <path d="M 31.78125 66.40625 
Q 24.171875 66.40625 20.328125 58.90625 
Q 16.5 51.421875 16.5 36.375 
Q 16.5 21.390625 20.328125 13.890625 
Q 24.171875 6.390625 31.78125 6.390625 
Q 39.453125 6.390625 43.28125 13.890625 
Q 47.125 21.390625 47.125 36.375 
Q 47.125 51.421875 43.28125 58.90625 
Q 39.453125 66.40625 31.78125 66.40625 
z
M 31.78125 74.21875 
Q 44.046875 74.21875 50.515625 64.515625 
Q 56.984375 54.828125 56.984375 36.375 
Q 56.984375 17.96875 50.515625 8.265625 
Q 44.046875 -1.421875 31.78125 -1.421875 
Q 19.53125 -1.421875 13.0625 8.265625 
Q 6.59375 17.96875 6.59375 36.375 
Q 6.59375 54.828125 13.0625 64.515625 
Q 19.53125 74.21875 31.78125 74.21875 
z
" id="DejaVuSans-48"/>
       </defs>
       <use xlink:href="#DejaVuSans-48"/>
      </g>
     </g>
    </g>
    <g id="xtick_2">
     <g id="line2d_7">
      <path clip-path="url(#pa73085670a)" d="M 247.894466 298.944 
L 247.894466 3.456 
" style="fill:none;stroke:#b0b0b0;stroke-linecap:square;stroke-width:0.8;"/>
     </g>
     <g id="line2d_8">
      <defs>
       <path d="M 0 0 
L 0 2 
" id="m7eac5f8d4b" style="stroke:#000000;stroke-width:0.6;"/>
      </defs>
      <g>
       <use style="stroke:#000000;stroke-width:0.6;" x="247.894466" xlink:href="#m7eac5f8d4b" y="298.944"/>
      </g>
     </g>
    </g>
    <g id="text_2">
     <!-- log10(# f-evals / dimension) -->
     <g transform="translate(77.764078 342.217594)scale(0.17 -0.17)">
      <defs>
       <path d="M 9.421875 75.984375 
L 18.40625 75.984375 
L 18.40625 0 
L 9.421875 0 
z
" id="DejaVuSans-108"/>
       <path d="M 30.609375 48.390625 
Q 23.390625 48.390625 19.1875 42.75 
Q 14.984375 37.109375 14.984375 27.296875 
Q 14.984375 17.484375 19.15625 11.84375 
Q 23.34375 6.203125 30.609375 6.203125 
Q 37.796875 6.203125 41.984375 11.859375 
Q 46.1875 17.53125 46.1875 27.296875 
Q 46.1875 37.015625 41.984375 42.703125 
Q 37.796875 48.390625 30.609375 48.390625 
z
M 30.609375 56 
Q 42.328125 56 49.015625 48.375 
Q 55.71875 40.765625 55.71875 27.296875 
Q 55.71875 13.875 49.015625 6.21875 
Q 42.328125 -1.421875 30.609375 -1.421875 
Q 18.84375 -1.421875 12.171875 6.21875 
Q 5.515625 13.875 5.515625 27.296875 
Q 5.515625 40.765625 12.171875 48.375 
Q 18.84375 56 30.609375 56 
z
" id="DejaVuSans-111"/>
       <path d="M 45.40625 27.984375 
Q 45.40625 37.75 41.375 43.109375 
Q 37.359375 48.484375 30.078125 48.484375 
Q 22.859375 48.484375 18.828125 43.109375 
Q 14.796875 37.75 14.796875 27.984375 
Q 14.796875 18.265625 18.828125 12.890625 
Q 22.859375 7.515625 30.078125 7.515625 
Q 37.359375 7.515625 41.375 12.890625 
Q 45.40625 18.265625 45.40625 27.984375 
z
M 54.390625 6.78125 
Q 54.390625 -7.171875 48.1875 -13.984375 
Q 42 -20.796875 29.203125 -20.796875 
Q 24.46875 -20.796875 20.265625 -20.09375 
Q 16.0625 -19.390625 12.109375 -17.921875 
L 12.109375 -9.1875 
Q 16.0625 -11.328125 19.921875 -12.34375 
Q 23.78125 -13.375 27.78125 -13.375 
Q 36.625 -13.375 41.015625 -8.765625 
Q 45.40625 -4.15625 45.40625 5.171875 
L 45.40625 9.625 
Q 42.625 4.78125 38.28125 2.390625 
Q 33.9375 0 27.875 0 
Q 17.828125 0 11.671875 7.65625 
Q 5.515625 15.328125 5.515625 27.984375 
Q 5.515625 40.671875 11.671875 48.328125 
Q 17.828125 56 27.875 56 
Q 33.9375 56 38.28125 53.609375 
Q 42.625 51.21875 45.40625 46.390625 
L 45.40625 54.6875 
L 54.390625 54.6875 
z
" id="DejaVuSans-103"/>
       <path d="M 12.40625 8.296875 
L 28.515625 8.296875 
L 28.515625 63.921875 
L 10.984375 60.40625 
L 10.984375 69.390625 
L 28.421875 72.90625 
L 38.28125 72.90625 
L 38.28125 8.296875 
L 54.390625 8.296875 
L 54.390625 0 
L 12.40625 0 
z
" id="DejaVuSans-49"/>
       <path d="M 31 75.875 
Q 24.46875 64.65625 21.28125 53.65625 
Q 18.109375 42.671875 18.109375 31.390625 
Q 18.109375 20.125 21.3125 9.0625 
Q 24.515625 -2 31 -13.1875 
L 23.1875 -13.1875 
Q 15.875 -1.703125 12.234375 9.375 
Q 8.59375 20.453125 8.59375 31.390625 
Q 8.59375 42.28125 12.203125 53.3125 
Q 15.828125 64.359375 23.1875 75.875 
z
" id="DejaVuSans-40"/>
       <path d="M 51.125 44 
L 36.921875 44 
L 32.8125 27.6875 
L 47.125 27.6875 
z
M 43.796875 71.78125 
L 38.71875 51.515625 
L 52.984375 51.515625 
L 58.109375 71.78125 
L 65.921875 71.78125 
L 60.890625 51.515625 
L 76.125 51.515625 
L 76.125 44 
L 58.984375 44 
L 54.984375 27.6875 
L 70.515625 27.6875 
L 70.515625 20.21875 
L 53.078125 20.21875 
L 48 0 
L 40.1875 0 
L 45.21875 20.21875 
L 30.90625 20.21875 
L 25.875 0 
L 18.015625 0 
L 23.09375 20.21875 
L 7.71875 20.21875 
L 7.71875 27.6875 
L 24.90625 27.6875 
L 29 44 
L 13.28125 44 
L 13.28125 51.515625 
L 30.90625 51.515625 
L 35.890625 71.78125 
z
" id="DejaVuSans-35"/>
       <path id="DejaVuSans-32"/>
       <path d="M 37.109375 75.984375 
L 37.109375 68.5 
L 28.515625 68.5 
Q 23.6875 68.5 21.796875 66.546875 
Q 19.921875 64.59375 19.921875 59.515625 
L 19.921875 54.6875 
L 34.71875 54.6875 
L 34.71875 47.703125 
L 19.921875 47.703125 
L 19.921875 0 
L 10.890625 0 
L 10.890625 47.703125 
L 2.296875 47.703125 
L 2.296875 54.6875 
L 10.890625 54.6875 
L 10.890625 58.5 
Q 10.890625 67.625 15.140625 71.796875 
Q 19.390625 75.984375 28.609375 75.984375 
z
" id="DejaVuSans-102"/>
       <path d="M 4.890625 31.390625 
L 31.203125 31.390625 
L 31.203125 23.390625 
L 4.890625 23.390625 
z
" id="DejaVuSans-45"/>
       <path d="M 56.203125 29.59375 
L 56.203125 25.203125 
L 14.890625 25.203125 
Q 15.484375 15.921875 20.484375 11.0625 
Q 25.484375 6.203125 34.421875 6.203125 
Q 39.59375 6.203125 44.453125 7.46875 
Q 49.3125 8.734375 54.109375 11.28125 
L 54.109375 2.78125 
Q 49.265625 0.734375 44.1875 -0.34375 
Q 39.109375 -1.421875 33.890625 -1.421875 
Q 20.796875 -1.421875 13.15625 6.1875 
Q 5.515625 13.8125 5.515625 26.8125 
Q 5.515625 40.234375 12.765625 48.109375 
Q 20.015625 56 32.328125 56 
Q 43.359375 56 49.78125 48.890625 
Q 56.203125 41.796875 56.203125 29.59375 
z
M 47.21875 32.234375 
Q 47.125 39.59375 43.09375 43.984375 
Q 39.0625 48.390625 32.421875 48.390625 
Q 24.90625 48.390625 20.390625 44.140625 
Q 15.875 39.890625 15.1875 32.171875 
z
" id="DejaVuSans-101"/>
       <path d="M 2.984375 54.6875 
L 12.5 54.6875 
L 29.59375 8.796875 
L 46.6875 54.6875 
L 56.203125 54.6875 
L 35.6875 0 
L 23.484375 0 
z
" id="DejaVuSans-118"/>
       <path d="M 34.28125 27.484375 
Q 23.390625 27.484375 19.1875 25 
Q 14.984375 22.515625 14.984375 16.5 
Q 14.984375 11.71875 18.140625 8.90625 
Q 21.296875 6.109375 26.703125 6.109375 
Q 34.1875 6.109375 38.703125 11.40625 
Q 43.21875 16.703125 43.21875 25.484375 
L 43.21875 27.484375 
z
M 52.203125 31.203125 
L 52.203125 0 
L 43.21875 0 
L 43.21875 8.296875 
Q 40.140625 3.328125 35.546875 0.953125 
Q 30.953125 -1.421875 24.3125 -1.421875 
Q 15.921875 -1.421875 10.953125 3.296875 
Q 6 8.015625 6 15.921875 
Q 6 25.140625 12.171875 29.828125 
Q 18.359375 34.515625 30.609375 34.515625 
L 43.21875 34.515625 
L 43.21875 35.40625 
Q 43.21875 41.609375 39.140625 45 
Q 35.0625 48.390625 27.6875 48.390625 
Q 23 48.390625 18.546875 47.265625 
Q 14.109375 46.140625 10.015625 43.890625 
L 10.015625 52.203125 
Q 14.9375 54.109375 19.578125 55.046875 
Q 24.21875 56 28.609375 56 
Q 40.484375 56 46.34375 49.84375 
Q 52.203125 43.703125 52.203125 31.203125 
z
" id="DejaVuSans-97"/>
       <path d="M 44.28125 53.078125 
L 44.28125 44.578125 
Q 40.484375 46.53125 36.375 47.5 
Q 32.28125 48.484375 27.875 48.484375 
Q 21.1875 48.484375 17.84375 46.4375 
Q 14.5 44.390625 14.5 40.28125 
Q 14.5 37.15625 16.890625 35.375 
Q 19.28125 33.59375 26.515625 31.984375 
L 29.59375 31.296875 
Q 39.15625 29.25 43.1875 25.515625 
Q 47.21875 21.78125 47.21875 15.09375 
Q 47.21875 7.46875 41.1875 3.015625 
Q 35.15625 -1.421875 24.609375 -1.421875 
Q 20.21875 -1.421875 15.453125 -0.5625 
Q 10.6875 0.296875 5.421875 2 
L 5.421875 11.28125 
Q 10.40625 8.6875 15.234375 7.390625 
Q 20.0625 6.109375 24.8125 6.109375 
Q 31.15625 6.109375 34.5625 8.28125 
Q 37.984375 10.453125 37.984375 14.40625 
Q 37.984375 18.0625 35.515625 20.015625 
Q 33.0625 21.96875 24.703125 23.78125 
L 21.578125 24.515625 
Q 13.234375 26.265625 9.515625 29.90625 
Q 5.8125 33.546875 5.8125 39.890625 
Q 5.8125 47.609375 11.28125 51.796875 
Q 16.75 56 26.8125 56 
Q 31.78125 56 36.171875 55.265625 
Q 40.578125 54.546875 44.28125 53.078125 
z
" id="DejaVuSans-115"/>
       <path d="M 25.390625 72.90625 
L 33.6875 72.90625 
L 8.296875 -9.28125 
L 0 -9.28125 
z
" id="DejaVuSans-47"/>
       <path d="M 45.40625 46.390625 
L 45.40625 75.984375 
L 54.390625 75.984375 
L 54.390625 0 
L 45.40625 0 
L 45.40625 8.203125 
Q 42.578125 3.328125 38.25 0.953125 
Q 33.9375 -1.421875 27.875 -1.421875 
Q 17.96875 -1.421875 11.734375 6.484375 
Q 5.515625 14.40625 5.515625 27.296875 
Q 5.515625 40.1875 11.734375 48.09375 
Q 17.96875 56 27.875 56 
Q 33.9375 56 38.25 53.625 
Q 42.578125 51.265625 45.40625 46.390625 
z
M 14.796875 27.296875 
Q 14.796875 17.390625 18.875 11.75 
Q 22.953125 6.109375 30.078125 6.109375 
Q 37.203125 6.109375 41.296875 11.75 
Q 45.40625 17.390625 45.40625 27.296875 
Q 45.40625 37.203125 41.296875 42.84375 
Q 37.203125 48.484375 30.078125 48.484375 
Q 22.953125 48.484375 18.875 42.84375 
Q 14.796875 37.203125 14.796875 27.296875 
z
" id="DejaVuSans-100"/>
       <path d="M 9.421875 54.6875 
L 18.40625 54.6875 
L 18.40625 0 
L 9.421875 0 
z
M 9.421875 75.984375 
L 18.40625 75.984375 
L 18.40625 64.59375 
L 9.421875 64.59375 
z
" id="DejaVuSans-105"/>
       <path d="M 52 44.1875 
Q 55.375 50.25 60.0625 53.125 
Q 64.75 56 71.09375 56 
Q 79.640625 56 84.28125 50.015625 
Q 88.921875 44.046875 88.921875 33.015625 
L 88.921875 0 
L 79.890625 0 
L 79.890625 32.71875 
Q 79.890625 40.578125 77.09375 44.375 
Q 74.3125 48.1875 68.609375 48.1875 
Q 61.625 48.1875 57.5625 43.546875 
Q 53.515625 38.921875 53.515625 30.90625 
L 53.515625 0 
L 44.484375 0 
L 44.484375 32.71875 
Q 44.484375 40.625 41.703125 44.40625 
Q 38.921875 48.1875 33.109375 48.1875 
Q 26.21875 48.1875 22.15625 43.53125 
Q 18.109375 38.875 18.109375 30.90625 
L 18.109375 0 
L 9.078125 0 
L 9.078125 54.6875 
L 18.109375 54.6875 
L 18.109375 46.1875 
Q 21.1875 51.21875 25.484375 53.609375 
Q 29.78125 56 35.6875 56 
Q 41.65625 56 45.828125 52.96875 
Q 50 49.953125 52 44.1875 
z
" id="DejaVuSans-109"/>
       <path d="M 54.890625 33.015625 
L 54.890625 0 
L 45.90625 0 
L 45.90625 32.71875 
Q 45.90625 40.484375 42.875 44.328125 
Q 39.84375 48.1875 33.796875 48.1875 
Q 26.515625 48.1875 22.3125 43.546875 
Q 18.109375 38.921875 18.109375 30.90625 
L 18.109375 0 
L 9.078125 0 
L 9.078125 54.6875 
L 18.109375 54.6875 
L 18.109375 46.1875 
Q 21.34375 51.125 25.703125 53.5625 
Q 30.078125 56 35.796875 56 
Q 45.21875 56 50.046875 50.171875 
Q 54.890625 44.34375 54.890625 33.015625 
z
" id="DejaVuSans-110"/>
       <path d="M 8.015625 75.875 
L 15.828125 75.875 
Q 23.140625 64.359375 26.78125 53.3125 
Q 30.421875 42.28125 30.421875 31.390625 
Q 30.421875 20.453125 26.78125 9.375 
Q 23.140625 -1.703125 15.828125 -13.1875 
L 8.015625 -13.1875 
Q 14.5 -2 17.703125 9.0625 
Q 20.90625 20.125 20.90625 31.390625 
Q 20.90625 42.671875 17.703125 53.65625 
Q 14.5 64.65625 8.015625 75.875 
z
" id="DejaVuSans-41"/>
      </defs>
      <use xlink:href="#DejaVuSans-108"/>
      <use x="27.783203" xlink:href="#DejaVuSans-111"/>
      <use x="88.964844" xlink:href="#DejaVuSans-103"/>
      <use x="152.441406" xlink:href="#DejaVuSans-49"/>
      <use x="216.064453" xlink:href="#DejaVuSans-48"/>
      <use x="279.6875" xlink:href="#DejaVuSans-40"/>
      <use x="318.701172" xlink:href="#DejaVuSans-35"/>
      <use x="402.490234" xlink:href="#DejaVuSans-32"/>
      <use x="434.277344" xlink:href="#DejaVuSans-102"/>
      <use x="463.982422" xlink:href="#DejaVuSans-45"/>
      <use x="500.066406" xlink:href="#DejaVuSans-101"/>
      <use x="561.589844" xlink:href="#DejaVuSans-118"/>
      <use x="620.769531" xlink:href="#DejaVuSans-97"/>
      <use x="682.048828" xlink:href="#DejaVuSans-108"/>
      <use x="709.832031" xlink:href="#DejaVuSans-115"/>
      <use x="761.931641" xlink:href="#DejaVuSans-32"/>
      <use x="793.71875" xlink:href="#DejaVuSans-47"/>
      <use x="827.410156" xlink:href="#DejaVuSans-32"/>
      <use x="859.197266" xlink:href="#DejaVuSans-100"/>
      <use x="922.673828" xlink:href="#DejaVuSans-105"/>
      <use x="950.457031" xlink:href="#DejaVuSans-109"/>
      <use x="1047.869141" xlink:href="#DejaVuSans-101"/>
      <use x="1109.392578" xlink:href="#DejaVuSans-110"/>
      <use x="1172.771484" xlink:href="#DejaVuSans-115"/>
      <use x="1224.871094" xlink:href="#DejaVuSans-105"/>
      <use x="1252.654297" xlink:href="#DejaVuSans-111"/>
      <use x="1313.835938" xlink:href="#DejaVuSans-110"/>
      <use x="1377.214844" xlink:href="#DejaVuSans-41"/>
     </g>
    </g>
   </g>
   <g id="matplotlib.axis_2">
    <g id="ytick_1">
     <g id="line2d_9">
      <path clip-path="url(#pa73085670a)" d="M 57.6 298.944 
L 338.688 298.944 
" style="fill:none;stroke:#b0b0b0;stroke-linecap:square;stroke-width:0.8;"/>
     </g>
     <g id="line2d_10">
      <defs>
       <path d="M 0 0 
L -3.5 0 
" id="m7531846df6" style="stroke:#000000;stroke-width:0.8;"/>
      </defs>
      <g>
       <use style="stroke:#000000;stroke-width:0.8;" x="57.6" xlink:href="#m7531846df6" y="298.944"/>
      </g>
     </g>
     <g id="text_3">
      <!-- 0.0 -->
      <g transform="translate(25.155 305.02275)scale(0.16 -0.16)">
       <defs>
        <path d="M 10.6875 12.40625 
L 21 12.40625 
L 21 0 
L 10.6875 0 
z
" id="DejaVuSans-46"/>
       </defs>
       <use xlink:href="#DejaVuSans-48"/>
       <use x="63.623047" xlink:href="#DejaVuSans-46"/>
       <use x="95.410156" xlink:href="#DejaVuSans-48"/>
      </g>
     </g>
    </g>
    <g id="ytick_2">
     <g id="line2d_11">
      <path clip-path="url(#pa73085670a)" d="M 57.6 240.431525 
L 338.688 240.431525 
" style="fill:none;stroke:#b0b0b0;stroke-linecap:square;stroke-width:0.8;"/>
     </g>
     <g id="line2d_12">
      <g>
       <use style="stroke:#000000;stroke-width:0.8;" x="57.6" xlink:href="#m7531846df6" y="240.431525"/>
      </g>
     </g>
     <g id="text_4">
      <!-- 0.2 -->
      <g transform="translate(25.155 246.510275)scale(0.16 -0.16)">
       <defs>
        <path d="M 19.1875 8.296875 
L 53.609375 8.296875 
L 53.609375 0 
L 7.328125 0 
L 7.328125 8.296875 
Q 12.9375 14.109375 22.625 23.890625 
Q 32.328125 33.6875 34.8125 36.53125 
Q 39.546875 41.84375 41.421875 45.53125 
Q 43.3125 49.21875 43.3125 52.78125 
Q 43.3125 58.59375 39.234375 62.25 
Q 35.15625 65.921875 28.609375 65.921875 
Q 23.96875 65.921875 18.8125 64.3125 
Q 13.671875 62.703125 7.8125 59.421875 
L 7.8125 69.390625 
Q 13.765625 71.78125 18.9375 73 
Q 24.125 74.21875 28.421875 74.21875 
Q 39.75 74.21875 46.484375 68.546875 
Q 53.21875 62.890625 53.21875 53.421875 
Q 53.21875 48.921875 51.53125 44.890625 
Q 49.859375 40.875 45.40625 35.40625 
Q 44.1875 33.984375 37.640625 27.21875 
Q 31.109375 20.453125 19.1875 8.296875 
z
" id="DejaVuSans-50"/>
       </defs>
       <use xlink:href="#DejaVuSans-48"/>
       <use x="63.623047" xlink:href="#DejaVuSans-46"/>
       <use x="95.410156" xlink:href="#DejaVuSans-50"/>
      </g>
     </g>
    </g>
    <g id="ytick_3">
     <g id="line2d_13">
      <path clip-path="url(#pa73085670a)" d="M 57.6 181.91905 
L 338.688 181.91905 
" style="fill:none;stroke:#b0b0b0;stroke-linecap:square;stroke-width:0.8;"/>
     </g>
     <g id="line2d_14">
      <g>
       <use style="stroke:#000000;stroke-width:0.8;" x="57.6" xlink:href="#m7531846df6" y="181.91905"/>
      </g>
     </g>
     <g id="text_5">
      <!-- 0.4 -->
      <g transform="translate(25.155 187.9978)scale(0.16 -0.16)">
       <defs>
        <path d="M 37.796875 64.3125 
L 12.890625 25.390625 
L 37.796875 25.390625 
z
M 35.203125 72.90625 
L 47.609375 72.90625 
L 47.609375 25.390625 
L 58.015625 25.390625 
L 58.015625 17.1875 
L 47.609375 17.1875 
L 47.609375 0 
L 37.796875 0 
L 37.796875 17.1875 
L 4.890625 17.1875 
L 4.890625 26.703125 
z
" id="DejaVuSans-52"/>
       </defs>
       <use xlink:href="#DejaVuSans-48"/>
       <use x="63.623047" xlink:href="#DejaVuSans-46"/>
       <use x="95.410156" xlink:href="#DejaVuSans-52"/>
      </g>
     </g>
    </g>
    <g id="ytick_4">
     <g id="line2d_15">
      <path clip-path="url(#pa73085670a)" d="M 57.6 123.406574 
L 338.688 123.406574 
" style="fill:none;stroke:#b0b0b0;stroke-linecap:square;stroke-width:0.8;"/>
     </g>
     <g id="line2d_16">
      <g>
       <use style="stroke:#000000;stroke-width:0.8;" x="57.6" xlink:href="#m7531846df6" y="123.406574"/>
      </g>
     </g>
     <g id="text_6">
      <!-- 0.6 -->
      <g transform="translate(25.155 129.485324)scale(0.16 -0.16)">
       <defs>
        <path d="M 33.015625 40.375 
Q 26.375 40.375 22.484375 35.828125 
Q 18.609375 31.296875 18.609375 23.390625 
Q 18.609375 15.53125 22.484375 10.953125 
Q 26.375 6.390625 33.015625 6.390625 
Q 39.65625 6.390625 43.53125 10.953125 
Q 47.40625 15.53125 47.40625 23.390625 
Q 47.40625 31.296875 43.53125 35.828125 
Q 39.65625 40.375 33.015625 40.375 
z
M 52.59375 71.296875 
L 52.59375 62.3125 
Q 48.875 64.0625 45.09375 64.984375 
Q 41.3125 65.921875 37.59375 65.921875 
Q 27.828125 65.921875 22.671875 59.328125 
Q 17.53125 52.734375 16.796875 39.40625 
Q 19.671875 43.65625 24.015625 45.921875 
Q 28.375 48.1875 33.59375 48.1875 
Q 44.578125 48.1875 50.953125 41.515625 
Q 57.328125 34.859375 57.328125 23.390625 
Q 57.328125 12.15625 50.6875 5.359375 
Q 44.046875 -1.421875 33.015625 -1.421875 
Q 20.359375 -1.421875 13.671875 8.265625 
Q 6.984375 17.96875 6.984375 36.375 
Q 6.984375 53.65625 15.1875 63.9375 
Q 23.390625 74.21875 37.203125 74.21875 
Q 40.921875 74.21875 44.703125 73.484375 
Q 48.484375 72.75 52.59375 71.296875 
z
" id="DejaVuSans-54"/>
       </defs>
       <use xlink:href="#DejaVuSans-48"/>
       <use x="63.623047" xlink:href="#DejaVuSans-46"/>
       <use x="95.410156" xlink:href="#DejaVuSans-54"/>
      </g>
     </g>
    </g>
    <g id="ytick_5">
     <g id="line2d_17">
      <path clip-path="url(#pa73085670a)" d="M 57.6 64.894099 
L 338.688 64.894099 
" style="fill:none;stroke:#b0b0b0;stroke-linecap:square;stroke-width:0.8;"/>
     </g>
     <g id="line2d_18">
      <g>
       <use style="stroke:#000000;stroke-width:0.8;" x="57.6" xlink:href="#m7531846df6" y="64.894099"/>
      </g>
     </g>
     <g id="text_7">
      <!-- 0.8 -->
      <g transform="translate(25.155 70.972849)scale(0.16 -0.16)">
       <defs>
        <path d="M 31.78125 34.625 
Q 24.75 34.625 20.71875 30.859375 
Q 16.703125 27.09375 16.703125 20.515625 
Q 16.703125 13.921875 20.71875 10.15625 
Q 24.75 6.390625 31.78125 6.390625 
Q 38.8125 6.390625 42.859375 10.171875 
Q 46.921875 13.96875 46.921875 20.515625 
Q 46.921875 27.09375 42.890625 30.859375 
Q 38.875 34.625 31.78125 34.625 
z
M 21.921875 38.8125 
Q 15.578125 40.375 12.03125 44.71875 
Q 8.5 49.078125 8.5 55.328125 
Q 8.5 64.0625 14.71875 69.140625 
Q 20.953125 74.21875 31.78125 74.21875 
Q 42.671875 74.21875 48.875 69.140625 
Q 55.078125 64.0625 55.078125 55.328125 
Q 55.078125 49.078125 51.53125 44.71875 
Q 48 40.375 41.703125 38.8125 
Q 48.828125 37.15625 52.796875 32.3125 
Q 56.78125 27.484375 56.78125 20.515625 
Q 56.78125 9.90625 50.3125 4.234375 
Q 43.84375 -1.421875 31.78125 -1.421875 
Q 19.734375 -1.421875 13.25 4.234375 
Q 6.78125 9.90625 6.78125 20.515625 
Q 6.78125 27.484375 10.78125 32.3125 
Q 14.796875 37.15625 21.921875 38.8125 
z
M 18.3125 54.390625 
Q 18.3125 48.734375 21.84375 45.5625 
Q 25.390625 42.390625 31.78125 42.390625 
Q 38.140625 42.390625 41.71875 45.5625 
Q 45.3125 48.734375 45.3125 54.390625 
Q 45.3125 60.0625 41.71875 63.234375 
Q 38.140625 66.40625 31.78125 66.40625 
Q 25.390625 66.40625 21.84375 63.234375 
Q 18.3125 60.0625 18.3125 54.390625 
z
" id="DejaVuSans-56"/>
       </defs>
       <use xlink:href="#DejaVuSans-48"/>
       <use x="63.623047" xlink:href="#DejaVuSans-46"/>
       <use x="95.410156" xlink:href="#DejaVuSans-56"/>
      </g>
     </g>
    </g>
    <g id="ytick_6">
     <g id="line2d_19">
      <path clip-path="url(#pa73085670a)" d="M 57.6 6.381624 
L 338.688 6.381624 
" style="fill:none;stroke:#b0b0b0;stroke-linecap:square;stroke-width:0.8;"/>
     </g>
     <g id="line2d_20">
      <g>
       <use style="stroke:#000000;stroke-width:0.8;" x="57.6" xlink:href="#m7531846df6" y="6.381624"/>
      </g>
     </g>
     <g id="text_8">
      <!-- 1.0 -->
      <g transform="translate(25.155 12.460374)scale(0.16 -0.16)">
       <use xlink:href="#DejaVuSans-49"/>
       <use x="63.623047" xlink:href="#DejaVuSans-46"/>
       <use x="95.410156" xlink:href="#DejaVuSans-48"/>
      </g>
     </g>
    </g>
    <g id="text_9">
     <!-- Fraction of function,target pairs -->
     <g transform="translate(17.619531 285.585)rotate(-90)scale(0.17 -0.17)">
      <defs>
       <path d="M 9.8125 72.90625 
L 51.703125 72.90625 
L 51.703125 64.59375 
L 19.671875 64.59375 
L 19.671875 43.109375 
L 48.578125 43.109375 
L 48.578125 34.8125 
L 19.671875 34.8125 
L 19.671875 0 
L 9.8125 0 
z
" id="DejaVuSans-70"/>
       <path d="M 41.109375 46.296875 
Q 39.59375 47.171875 37.8125 47.578125 
Q 36.03125 48 33.890625 48 
Q 26.265625 48 22.1875 43.046875 
Q 18.109375 38.09375 18.109375 28.8125 
L 18.109375 0 
L 9.078125 0 
L 9.078125 54.6875 
L 18.109375 54.6875 
L 18.109375 46.1875 
Q 20.953125 51.171875 25.484375 53.578125 
Q 30.03125 56 36.53125 56 
Q 37.453125 56 38.578125 55.875 
Q 39.703125 55.765625 41.0625 55.515625 
z
" id="DejaVuSans-114"/>
       <path d="M 48.78125 52.59375 
L 48.78125 44.1875 
Q 44.96875 46.296875 41.140625 47.34375 
Q 37.3125 48.390625 33.40625 48.390625 
Q 24.65625 48.390625 19.8125 42.84375 
Q 14.984375 37.3125 14.984375 27.296875 
Q 14.984375 17.28125 19.8125 11.734375 
Q 24.65625 6.203125 33.40625 6.203125 
Q 37.3125 6.203125 41.140625 7.25 
Q 44.96875 8.296875 48.78125 10.40625 
L 48.78125 2.09375 
Q 45.015625 0.34375 40.984375 -0.53125 
Q 36.96875 -1.421875 32.421875 -1.421875 
Q 20.0625 -1.421875 12.78125 6.34375 
Q 5.515625 14.109375 5.515625 27.296875 
Q 5.515625 40.671875 12.859375 48.328125 
Q 20.21875 56 33.015625 56 
Q 37.15625 56 41.109375 55.140625 
Q 45.0625 54.296875 48.78125 52.59375 
z
" id="DejaVuSans-99"/>
       <path d="M 18.3125 70.21875 
L 18.3125 54.6875 
L 36.8125 54.6875 
L 36.8125 47.703125 
L 18.3125 47.703125 
L 18.3125 18.015625 
Q 18.3125 11.328125 20.140625 9.421875 
Q 21.96875 7.515625 27.59375 7.515625 
L 36.8125 7.515625 
L 36.8125 0 
L 27.59375 0 
Q 17.1875 0 13.234375 3.875 
Q 9.28125 7.765625 9.28125 18.015625 
L 9.28125 47.703125 
L 2.6875 47.703125 
L 2.6875 54.6875 
L 9.28125 54.6875 
L 9.28125 70.21875 
z
" id="DejaVuSans-116"/>
       <path d="M 8.5 21.578125 
L 8.5 54.6875 
L 17.484375 54.6875 
L 17.484375 21.921875 
Q 17.484375 14.15625 20.5 10.265625 
Q 23.53125 6.390625 29.59375 6.390625 
Q 36.859375 6.390625 41.078125 11.03125 
Q 45.3125 15.671875 45.3125 23.6875 
L 45.3125 54.6875 
L 54.296875 54.6875 
L 54.296875 0 
L 45.3125 0 
L 45.3125 8.40625 
Q 42.046875 3.421875 37.71875 1 
Q 33.40625 -1.421875 27.6875 -1.421875 
Q 18.265625 -1.421875 13.375 4.4375 
Q 8.5 10.296875 8.5 21.578125 
z
M 31.109375 56 
z
" id="DejaVuSans-117"/>
       <path d="M 11.71875 12.40625 
L 22.015625 12.40625 
L 22.015625 4 
L 14.015625 -11.625 
L 7.71875 -11.625 
L 11.71875 4 
z
" id="DejaVuSans-44"/>
       <path d="M 18.109375 8.203125 
L 18.109375 -20.796875 
L 9.078125 -20.796875 
L 9.078125 54.6875 
L 18.109375 54.6875 
L 18.109375 46.390625 
Q 20.953125 51.265625 25.265625 53.625 
Q 29.59375 56 35.59375 56 
Q 45.5625 56 51.78125 48.09375 
Q 58.015625 40.1875 58.015625 27.296875 
Q 58.015625 14.40625 51.78125 6.484375 
Q 45.5625 -1.421875 35.59375 -1.421875 
Q 29.59375 -1.421875 25.265625 0.953125 
Q 20.953125 3.328125 18.109375 8.203125 
z
M 48.6875 27.296875 
Q 48.6875 37.203125 44.609375 42.84375 
Q 40.53125 48.484375 33.40625 48.484375 
Q 26.265625 48.484375 22.1875 42.84375 
Q 18.109375 37.203125 18.109375 27.296875 
Q 18.109375 17.390625 22.1875 11.75 
Q 26.265625 6.109375 33.40625 6.109375 
Q 40.53125 6.109375 44.609375 11.75 
Q 48.6875 17.390625 48.6875 27.296875 
z
" id="DejaVuSans-112"/>
      </defs>
      <use xlink:href="#DejaVuSans-70"/>
      <use x="50.269531" xlink:href="#DejaVuSans-114"/>
      <use x="91.382812" xlink:href="#DejaVuSans-97"/>
      <use x="152.662109" xlink:href="#DejaVuSans-99"/>
      <use x="207.642578" xlink:href="#DejaVuSans-116"/>
      <use x="246.851562" xlink:href="#DejaVuSans-105"/>
      <use x="274.634766" xlink:href="#DejaVuSans-111"/>
      <use x="335.816406" xlink:href="#DejaVuSans-110"/>
      <use x="399.195312" xlink:href="#DejaVuSans-32"/>
      <use x="430.982422" xlink:href="#DejaVuSans-111"/>
      <use x="492.164062" xlink:href="#DejaVuSans-102"/>
      <use x="527.369141" xlink:href="#DejaVuSans-32"/>
      <use x="559.15625" xlink:href="#DejaVuSans-102"/>
      <use x="594.361328" xlink:href="#DejaVuSans-117"/>
      <use x="657.740234" xlink:href="#DejaVuSans-110"/>
      <use x="721.119141" xlink:href="#DejaVuSans-99"/>
      <use x="776.099609" xlink:href="#DejaVuSans-116"/>
      <use x="815.308594" xlink:href="#DejaVuSans-105"/>
      <use x="843.091797" xlink:href="#DejaVuSans-111"/>
      <use x="904.273438" xlink:href="#DejaVuSans-110"/>
      <use x="967.652344" xlink:href="#DejaVuSans-44"/>
      <use x="999.439453" xlink:href="#DejaVuSans-116"/>
      <use x="1038.648438" xlink:href="#DejaVuSans-97"/>
      <use x="1099.927734" xlink:href="#DejaVuSans-114"/>
      <use x="1139.291016" xlink:href="#DejaVuSans-103"/>
      <use x="1202.767578" xlink:href="#DejaVuSans-101"/>
      <use x="1264.291016" xlink:href="#DejaVuSans-116"/>
      <use x="1303.5" xlink:href="#DejaVuSans-32"/>
      <use x="1335.287109" xlink:href="#DejaVuSans-112"/>
      <use x="1398.763672" xlink:href="#DejaVuSans-97"/>
      <use x="1460.042969" xlink:href="#DejaVuSans-105"/>
      <use x="1487.826172" xlink:href="#DejaVuSans-114"/>
      <use x="1528.939453" xlink:href="#DejaVuSans-115"/>
     </g>
    </g>
   </g>
   <g id="line2d_21">
    <defs>
     <path d="M 0 1.5 
C 0.397805 1.5 0.77937 1.341951 1.06066 1.06066 
C 1.341951 0.77937 1.5 0.397805 1.5 0 
C 1.5 -0.397805 1.341951 -0.77937 1.06066 -1.06066 
C 0.77937 -1.341951 0.397805 -1.5 0 -1.5 
C -0.397805 -1.5 -0.77937 -1.341951 -1.06066 -1.06066 
C -1.341951 -0.77937 -1.5 -0.397805 -1.5 0 
C -1.5 0.397805 -1.341951 0.77937 -1.06066 1.06066 
C -0.77937 1.341951 -0.397805 1.5 0 1.5 
z
" id="md365cc6182" style="stroke:#f5deb3;"/>
    </defs>
    <g>
     <use style="fill:#f5deb3;stroke:#f5deb3;" x="378.896948" xlink:href="#md365cc6182" y="18.571723"/>
     <use style="fill:#f5deb3;stroke:#f5deb3;" x="378.896948" xlink:href="#md365cc6182" y="18.571723"/>
    </g>
   </g>
   <g id="line2d_22">
    <defs>
     <path d="M 0 1.5 
C 0.397805 1.5 0.77937 1.341951 1.06066 1.06066 
C 1.341951 0.77937 1.5 0.397805 1.5 0 
C 1.5 -0.397805 1.341951 -0.77937 1.06066 -1.06066 
C 0.77937 -1.341951 0.397805 -1.5 0 -1.5 
C -0.397805 -1.5 -0.77937 -1.341951 -1.06066 -1.06066 
C -1.341951 -0.77937 -1.5 -0.397805 -1.5 0 
C -1.5 0.397805 -1.341951 0.77937 -1.06066 1.06066 
C -0.77937 1.341951 -0.397805 1.5 0 1.5 
z
" id="m55db7449ee" style="stroke:#000080;"/>
    </defs>
    <g>
     <use style="fill:#000080;stroke:#000080;" x="405.828729" xlink:href="#m55db7449ee" y="120.968554"/>
     <use style="fill:#000080;stroke:#000080;" x="405.828729" xlink:href="#m55db7449ee" y="120.968554"/>
    </g>
   </g>
   <g id="line2d_23">
    <path d="M -1 272.125782 
L 15.383411 272.125782 
L 15.383411 266.030733 
L 39.158561 266.030733 
L 39.158561 257.497663 
L 57.6 257.497663 
L 57.6 250.183604 
L 72.667753 250.183604 
L 72.667753 246.526574 
L 85.407356 246.526574 
L 85.407356 242.869545 
L 96.442903 242.869545 
L 96.442903 239.212515 
L 106.176945 239.212515 
L 106.176945 237.993505 
L 114.884342 237.993505 
L 114.884342 233.117465 
L 122.761141 233.117465 
L 122.761141 228.241426 
L 129.952095 228.241426 
L 129.952095 224.584396 
L 136.567132 224.584396 
L 136.567132 223.365386 
L 142.691699 223.365386 
L 142.691699 222.146376 
L 148.393534 222.146376 
L 148.393534 211.175287 
L 153.727245 211.175287 
L 153.727245 208.737267 
L 158.737497 208.737267 
L 158.737497 206.299248 
L 163.461287 206.299248 
L 163.461287 205.080238 
L 167.92961 205.080238 
L 167.92961 202.642218 
L 172.168684 202.642218 
L 172.168684 201.423208 
L 180.045483 201.423208 
L 180.045483 198.985188 
L 187.236437 198.985188 
L 187.236437 196.547168 
L 190.610124 196.547168 
L 190.610124 194.109149 
L 199.976041 194.109149 
L 199.976041 192.890139 
L 202.876122 192.890139 
L 202.876122 191.671129 
L 205.677876 191.671129 
L 205.677876 190.452119 
L 208.387753 190.452119 
L 208.387753 188.014099 
L 211.011587 188.014099 
L 211.011587 186.795089 
L 213.554675 186.795089 
L 213.554675 184.357069 
L 216.021839 184.357069 
L 216.021839 183.138059 
L 223.009986 183.138059 
L 223.009986 181.91905 
L 225.213952 181.91905 
L 225.213952 180.70004 
L 229.453027 180.70004 
L 229.453027 179.48103 
L 241.00349 179.48103 
L 241.00349 177.04301 
L 246.224837 177.04301 
L 246.224837 174.60499 
L 247.894466 174.60499 
L 247.894466 172.16697 
L 251.135816 172.16697 
L 251.135816 169.72895 
L 252.710032 169.72895 
L 252.710032 168.509941 
L 255.771265 168.509941 
L 255.771265 167.290931 
L 260.160464 167.290931 
L 260.160464 166.071921 
L 264.328264 166.071921 
L 264.328264 164.852911 
L 273.306181 164.852911 
L 273.306181 163.633901 
L 276.874095 163.633901 
L 276.874095 162.414891 
L 283.578621 162.414891 
L 283.578621 161.195881 
L 288.778061 161.195881 
L 288.778061 158.757861 
L 297.384612 158.757861 
L 297.384612 157.538851 
L 299.181287 157.538851 
L 299.181287 155.100832 
L 300.065187 155.100832 
L 300.065187 152.662812 
L 311.539164 152.662812 
L 311.539164 151.443802 
L 316.007486 151.443802 
L 316.007486 150.224792 
L 316.729271 150.224792 
L 316.729271 149.005782 
L 319.554977 149.005782 
L 319.554977 147.786772 
L 320.932406 147.786772 
L 320.932406 146.567762 
L 325.580272 146.567762 
L 325.580272 145.348752 
L 326.861597 145.348752 
L 326.861597 144.129743 
L 331.797024 144.129743 
L 331.797024 142.910733 
L 334.158437 142.910733 
L 334.158437 141.691723 
L 337.018371 141.691723 
L 337.018371 140.472713 
L 338.135196 140.472713 
L 338.135196 139.253703 
L 338.688 139.253703 
" style="fill:none;stroke:#000080;stroke-linecap:square;stroke-width:1.5;"/>
   </g>
   <g id="line2d_24">
    <defs>
     <path d="M 0 6 
C 1.591219 6 3.117479 5.367802 4.242641 4.242641 
C 5.367802 3.117479 6 1.591219 6 0 
C 6 -1.591219 5.367802 -3.117479 4.242641 -4.242641 
C 3.117479 -5.367802 1.591219 -6 0 -6 
C -1.591219 -6 -3.117479 -5.367802 -4.242641 -4.242641 
C -5.367802 -3.117479 -6 -1.591219 -6 0 
C -6 1.591219 -5.367802 3.117479 -4.242641 4.242641 
C -3.117479 5.367802 -1.591219 6 0 6 
z
" id="mcbf3434bf7" style="stroke:#000080;stroke-width:1.5;"/>
    </defs>
    <g>
     <use style="fill-opacity:0;stroke:#000080;stroke-width:1.5;" x="106.176945" xlink:href="#mcbf3434bf7" y="237.993505"/>
     <use style="fill-opacity:0;stroke:#000080;stroke-width:1.5;" x="167.92961" xlink:href="#mcbf3434bf7" y="205.080238"/>
     <use style="fill-opacity:0;stroke:#000080;stroke-width:1.5;" x="241.00349" xlink:href="#mcbf3434bf7" y="177.04301"/>
     <use style="fill-opacity:0;stroke:#000080;stroke-width:1.5;" x="300.065187" xlink:href="#mcbf3434bf7" y="155.100832"/>
     <use style="fill-opacity:0;stroke:#000080;stroke-width:1.5;" x="338.135196" xlink:href="#mcbf3434bf7" y="139.253703"/>
     <use style="fill-opacity:0;stroke:#000080;stroke-width:1.5;" x="338.135196" xlink:href="#mcbf3434bf7" y="139.253703"/>
     <use style="fill-opacity:0;stroke:#000080;stroke-width:1.5;" x="338.688" xlink:href="#mcbf3434bf7" y="139.253703"/>
    </g>
   </g>
   <g id="line2d_25">
    <path style="fill:none;stroke:#000080;stroke-linecap:square;stroke-width:1.5;"/>
    <g/>
   </g>
   <g id="line2d_26">
    <path clip-path="url(#pa73085670a)" d="M 338.688 139.253703 
" style="fill:none;stroke:#000080;stroke-linecap:square;stroke-width:1.5;"/>
    <defs>
     <path d="M -12 12 
L 12 -12 
M -12 -12 
L 12 12 
" id="m01bf9c061b" style="stroke:#000080;"/>
    </defs>
    <g clip-path="url(#pa73085670a)">
     <use style="fill:#000080;stroke:#000080;" x="338.688" xlink:href="#m01bf9c061b" y="139.253703"/>
    </g>
   </g>
   <g id="line2d_27">
    <defs>
     <path d="M 0 1.5 
C 0.397805 1.5 0.77937 1.341951 1.06066 1.06066 
C 1.341951 0.77937 1.5 0.397805 1.5 0 
C 1.5 -0.397805 1.341951 -0.77937 1.06066 -1.06066 
C 0.77937 -1.341951 0.397805 -1.5 0 -1.5 
C -0.397805 -1.5 -0.77937 -1.341951 -1.06066 -1.06066 
C -1.341951 -0.77937 -1.5 -0.397805 -1.5 0 
C -1.5 0.397805 -1.341951 0.77937 -1.06066 1.06066 
C -0.77937 1.341951 -0.397805 1.5 0 1.5 
z
" id="me4e8ee8942" style="stroke:#ff00ff;"/>
    </defs>
    <g>
     <use style="fill:#ff00ff;stroke:#ff00ff;" x="401.047387" xlink:href="#me4e8ee8942" y="44.170931"/>
     <use style="fill:#ff00ff;stroke:#ff00ff;" x="401.047387" xlink:href="#me4e8ee8942" y="44.170931"/>
    </g>
   </g>
   <g id="line2d_28">
    <path d="M -1 291.629941 
L 15.383411 291.629941 
L 15.383411 272.125782 
L 39.158561 272.125782 
L 39.158561 266.030733 
L 57.6 266.030733 
L 57.6 257.497663 
L 72.667753 257.497663 
L 72.667753 255.059644 
L 85.407356 255.059644 
L 85.407356 246.526574 
L 96.442903 246.526574 
L 96.442903 242.869545 
L 106.176945 242.869545 
L 106.176945 235.555485 
L 114.884342 235.555485 
L 114.884342 234.336475 
L 122.761141 234.336475 
L 122.761141 231.898455 
L 129.952095 231.898455 
L 129.952095 230.679446 
L 142.691699 230.679446 
L 142.691699 225.803406 
L 148.393534 225.803406 
L 148.393534 223.365386 
L 153.727245 223.365386 
L 153.727245 219.708356 
L 158.737497 219.708356 
L 158.737497 217.270337 
L 163.461287 217.270337 
L 163.461287 216.051327 
L 167.92961 216.051327 
L 167.92961 213.613307 
L 172.168684 213.613307 
L 172.168684 209.956277 
L 176.200891 209.956277 
L 176.200891 198.985188 
L 180.045483 198.985188 
L 180.045483 195.328158 
L 183.719147 195.328158 
L 183.719147 194.109149 
L 199.976041 194.109149 
L 199.976041 190.452119 
L 205.677876 190.452119 
L 205.677876 188.014099 
L 208.387753 188.014099 
L 208.387753 181.91905 
L 216.021839 181.91905 
L 216.021839 180.70004 
L 218.41748 180.70004 
L 218.41748 174.60499 
L 220.745629 174.60499 
L 220.745629 173.38598 
L 225.213952 173.38598 
L 225.213952 172.16697 
L 227.360666 172.16697 
L 227.360666 158.757861 
L 229.453027 158.757861 
L 229.453027 153.881822 
L 231.493719 153.881822 
L 231.493719 145.348752 
L 233.485233 145.348752 
L 233.485233 144.129743 
L 235.429884 144.129743 
L 235.429884 139.253703 
L 237.329825 139.253703 
L 237.329825 135.596673 
L 239.187069 135.596673 
L 239.187069 134.377663 
L 241.00349 134.377663 
L 241.00349 128.282614 
L 242.780845 128.282614 
L 242.780845 124.625584 
L 244.52078 124.625584 
L 244.52078 123.406574 
L 246.224837 123.406574 
L 246.224837 119.749545 
L 247.894466 119.749545 
L 247.894466 113.654495 
L 249.531031 113.654495 
L 249.531031 111.216475 
L 251.135816 111.216475 
L 251.135816 108.778455 
L 252.710032 108.778455 
L 252.710032 107.559446 
L 254.254821 107.559446 
L 254.254821 105.121426 
L 257.260383 105.121426 
L 257.260383 102.683406 
L 258.723144 102.683406 
L 258.723144 97.807366 
L 260.160464 97.807366 
L 260.160464 95.369347 
L 262.962219 95.369347 
L 262.962219 92.931327 
L 264.328264 92.931327 
L 264.328264 91.712317 
L 266.994425 91.712317 
L 266.994425 90.493307 
L 268.29593 90.493307 
L 268.29593 89.274297 
L 269.577255 89.274297 
L 269.577255 86.836277 
L 270.839018 86.836277 
L 270.839018 85.617267 
L 272.081805 85.617267 
L 272.081805 84.398257 
L 273.306181 84.398257 
L 273.306181 80.741228 
L 275.701822 80.741228 
L 275.701822 79.522218 
L 276.874095 79.522218 
L 276.874095 78.303208 
L 278.029972 78.303208 
L 278.029972 77.084198 
L 279.169905 77.084198 
L 279.169905 74.646178 
L 281.403658 74.646178 
L 281.403658 73.427168 
L 285.69781 73.427168 
L 285.69781 72.208158 
L 288.778061 72.208158 
L 288.778061 70.989149 
L 289.779817 70.989149 
L 289.779817 69.770139 
L 293.669656 69.770139 
L 293.669656 68.551129 
L 295.548006 68.551129 
L 295.548006 67.332119 
L 297.384612 67.332119 
L 297.384612 63.675089 
L 301.805122 63.675089 
L 301.805122 62.456079 
L 305.178808 62.456079 
L 305.178808 61.237069 
L 306.001141 61.237069 
L 306.001141 60.018059 
L 311.539164 60.018059 
L 311.539164 58.79905 
L 316.007486 58.79905 
L 316.007486 57.58004 
L 329.980603 57.58004 
L 329.980603 56.36103 
L 331.195975 56.36103 
L 331.195975 55.14202 
L 335.886246 55.14202 
L 335.886246 53.92301 
L 336.454247 53.92301 
L 336.454247 52.704 
L 338.688 52.704 
L 338.688 52.704 
" style="fill:none;stroke:#ff00ff;stroke-linecap:square;stroke-width:1.5;"/>
   </g>
   <g id="line2d_29">
    <defs>
     <path d="M -0 8.485281 
L 5.091169 0 
L 0 -8.485281 
L -5.091169 -0 
z
" id="m71b391ef28" style="stroke:#ff00ff;stroke-linejoin:miter;stroke-width:1.5;"/>
    </defs>
    <g>
     <use style="fill-opacity:0;stroke:#ff00ff;stroke-linejoin:miter;stroke-width:1.5;" x="96.442903" xlink:href="#m71b391ef28" y="242.869545"/>
     <use style="fill-opacity:0;stroke:#ff00ff;stroke-linejoin:miter;stroke-width:1.5;" x="167.92961" xlink:href="#m71b391ef28" y="216.051327"/>
     <use style="fill-opacity:0;stroke:#ff00ff;stroke-linejoin:miter;stroke-width:1.5;" x="208.387753" xlink:href="#m71b391ef28" y="181.91905"/>
     <use style="fill-opacity:0;stroke:#ff00ff;stroke-linejoin:miter;stroke-width:1.5;" x="251.135816" xlink:href="#m71b391ef28" y="108.778455"/>
     <use style="fill-opacity:0;stroke:#ff00ff;stroke-linejoin:miter;stroke-width:1.5;" x="295.548006" xlink:href="#m71b391ef28" y="67.332119"/>
     <use style="fill-opacity:0;stroke:#ff00ff;stroke-linejoin:miter;stroke-width:1.5;" x="336.454247" xlink:href="#m71b391ef28" y="52.704"/>
     <use style="fill-opacity:0;stroke:#ff00ff;stroke-linejoin:miter;stroke-width:1.5;" x="338.688" xlink:href="#m71b391ef28" y="52.704"/>
    </g>
   </g>
   <g id="line2d_30">
    <path style="fill:none;stroke:#ff00ff;stroke-linecap:square;stroke-width:1.5;"/>
    <g/>
   </g>
   <g id="line2d_31">
    <path clip-path="url(#pa73085670a)" d="M 338.688 52.704 
" style="fill:none;stroke:#ff00ff;stroke-linecap:square;stroke-width:1.5;"/>
    <defs>
     <path d="M -12 12 
L 12 -12 
M -12 -12 
L 12 12 
" id="m93bd3f0f73" style="stroke:#ff00ff;"/>
    </defs>
    <g clip-path="url(#pa73085670a)">
     <use style="fill:#ff00ff;stroke:#ff00ff;" x="338.688" xlink:href="#m93bd3f0f73" y="52.704"/>
    </g>
   </g>
   <g id="line2d_32">
    <defs>
     <path d="M 0 1.5 
C 0.397805 1.5 0.77937 1.341951 1.06066 1.06066 
C 1.341951 0.77937 1.5 0.397805 1.5 0 
C 1.5 -0.397805 1.341951 -0.77937 1.06066 -1.06066 
C 0.77937 -1.341951 0.397805 -1.5 0 -1.5 
C -0.397805 -1.5 -0.77937 -1.341951 -1.06066 -1.06066 
C -1.341951 -0.77937 -1.5 -0.397805 -1.5 0 
C -1.5 0.397805 -1.341951 0.77937 -1.06066 1.06066 
C -0.77937 1.341951 -0.397805 1.5 0 1.5 
z
" id="m489d203923" style="stroke:#ff7500;"/>
    </defs>
    <g>
     <use style="fill:#ff7500;stroke:#ff7500;" x="394.583337" xlink:href="#m489d203923" y="42.951921"/>
     <use style="fill:#ff7500;stroke:#ff7500;" x="394.583337" xlink:href="#m489d203923" y="42.951921"/>
    </g>
   </g>
   <g id="line2d_33">
    <path d="M -1 287.972911 
L 15.383411 287.972911 
L 15.383411 283.096871 
L 39.158561 283.096871 
L 39.158561 274.563802 
L 57.6 274.563802 
L 57.6 268.468752 
L 72.667753 268.468752 
L 72.667753 267.249743 
L 85.407356 267.249743 
L 85.407356 259.935683 
L 96.442903 259.935683 
L 96.442903 255.059644 
L 106.176945 255.059644 
L 106.176945 252.621624 
L 114.884342 252.621624 
L 114.884342 247.745584 
L 122.761141 247.745584 
L 122.761141 240.431525 
L 129.952095 240.431525 
L 129.952095 223.365386 
L 136.567132 223.365386 
L 136.567132 217.270337 
L 142.691699 217.270337 
L 142.691699 213.613307 
L 148.393534 213.613307 
L 148.393534 205.080238 
L 153.727245 205.080238 
L 153.727245 197.766178 
L 158.737497 197.766178 
L 158.737497 191.671129 
L 163.461287 191.671129 
L 163.461287 184.357069 
L 167.92961 184.357069 
L 167.92961 179.48103 
L 172.168684 179.48103 
L 172.168684 174.60499 
L 176.200891 174.60499 
L 176.200891 164.852911 
L 180.045483 164.852911 
L 180.045483 158.757861 
L 183.719147 158.757861 
L 183.719147 153.881822 
L 187.236437 153.881822 
L 187.236437 147.786772 
L 190.610124 147.786772 
L 190.610124 142.910733 
L 193.851474 142.910733 
L 193.851474 136.815683 
L 196.970479 136.815683 
L 196.970479 130.720634 
L 199.976041 130.720634 
L 199.976041 125.844594 
L 202.876122 125.844594 
L 202.876122 120.968554 
L 208.387753 120.968554 
L 208.387753 119.749545 
L 211.011587 119.749545 
L 211.011587 116.092515 
L 213.554675 116.092515 
L 213.554675 114.873505 
L 216.021839 114.873505 
L 216.021839 113.654495 
L 218.41748 113.654495 
L 218.41748 109.997465 
L 220.745629 109.997465 
L 220.745629 108.778455 
L 223.009986 108.778455 
L 223.009986 107.559446 
L 225.213952 107.559446 
L 225.213952 106.340436 
L 229.453027 106.340436 
L 229.453027 103.902416 
L 233.485233 103.902416 
L 233.485233 102.683406 
L 235.429884 102.683406 
L 235.429884 101.464396 
L 237.329825 101.464396 
L 237.329825 100.245386 
L 241.00349 100.245386 
L 241.00349 96.588356 
L 246.224837 96.588356 
L 246.224837 95.369347 
L 247.894466 95.369347 
L 247.894466 91.712317 
L 252.710032 91.712317 
L 252.710032 90.493307 
L 254.254821 90.493307 
L 254.254821 88.055287 
L 255.771265 88.055287 
L 255.771265 86.836277 
L 257.260383 86.836277 
L 257.260383 85.617267 
L 258.723144 85.617267 
L 258.723144 84.398257 
L 260.160464 84.398257 
L 260.160464 81.960238 
L 262.962219 81.960238 
L 262.962219 80.741228 
L 266.994425 80.741228 
L 266.994425 79.522218 
L 269.577255 79.522218 
L 269.577255 78.303208 
L 272.081805 78.303208 
L 272.081805 77.084198 
L 273.306181 77.084198 
L 273.306181 75.865188 
L 274.512682 75.865188 
L 274.512682 73.427168 
L 275.701822 73.427168 
L 275.701822 72.208158 
L 278.029972 72.208158 
L 278.029972 70.989149 
L 280.294328 70.989149 
L 280.294328 68.551129 
L 282.498294 68.551129 
L 282.498294 66.113109 
L 289.779817 66.113109 
L 289.779817 64.894099 
L 309.211014 64.894099 
L 309.211014 62.456079 
L 314.544725 62.456079 
L 314.544725 61.237069 
L 322.956438 61.237069 
L 322.956438 60.018059 
L 324.932082 60.018059 
L 324.932082 58.79905 
L 334.738396 58.79905 
L 334.738396 57.58004 
L 335.314314 57.58004 
L 335.314314 56.36103 
L 335.886246 56.36103 
L 335.886246 55.14202 
L 338.688 55.14202 
L 338.688 55.14202 
" style="fill:none;stroke:#ff7500;stroke-linecap:square;stroke-width:1.5;"/>
   </g>
   <g id="line2d_34">
    <defs>
     <path d="M 0 -6 
L -1.347084 -1.854102 
L -5.706339 -1.854102 
L -2.179628 0.708204 
L -3.526712 4.854102 
L -0 2.291796 
L 3.526712 4.854102 
L 2.179628 0.708204 
L 5.706339 -1.854102 
L 1.347084 -1.854102 
z
" id="mcf4576b6a9" style="stroke:#ff7500;stroke-linejoin:bevel;stroke-width:1.5;"/>
    </defs>
    <g>
     <use style="fill-opacity:0;stroke:#ff7500;stroke-linejoin:bevel;stroke-width:1.5;" x="96.442903" xlink:href="#mcf4576b6a9" y="259.935683"/>
     <use style="fill-opacity:0;stroke:#ff7500;stroke-linejoin:bevel;stroke-width:1.5;" x="142.691699" xlink:href="#mcf4576b6a9" y="213.613307"/>
     <use style="fill-opacity:0;stroke:#ff7500;stroke-linejoin:bevel;stroke-width:1.5;" x="187.236437" xlink:href="#mcf4576b6a9" y="147.786772"/>
     <use style="fill-opacity:0;stroke:#ff7500;stroke-linejoin:bevel;stroke-width:1.5;" x="247.894466" xlink:href="#mcf4576b6a9" y="95.369347"/>
     <use style="fill-opacity:0;stroke:#ff7500;stroke-linejoin:bevel;stroke-width:1.5;" x="289.779817" xlink:href="#mcf4576b6a9" y="66.113109"/>
     <use style="fill-opacity:0;stroke:#ff7500;stroke-linejoin:bevel;stroke-width:1.5;" x="335.886246" xlink:href="#mcf4576b6a9" y="55.14202"/>
     <use style="fill-opacity:0;stroke:#ff7500;stroke-linejoin:bevel;stroke-width:1.5;" x="335.886246" xlink:href="#mcf4576b6a9" y="55.14202"/>
     <use style="fill-opacity:0;stroke:#ff7500;stroke-linejoin:bevel;stroke-width:1.5;" x="338.688" xlink:href="#mcf4576b6a9" y="55.14202"/>
    </g>
   </g>
   <g id="line2d_35">
    <path style="fill:none;stroke:#ff7500;stroke-linecap:square;stroke-width:1.5;"/>
    <g/>
   </g>
   <g id="line2d_36">
    <path clip-path="url(#pa73085670a)" d="M 338.688 55.14202 
" style="fill:none;stroke:#ff7500;stroke-linecap:square;stroke-width:1.5;"/>
    <defs>
     <path d="M -12 12 
L 12 -12 
M -12 -12 
L 12 12 
" id="m4617f39aab" style="stroke:#ff7500;"/>
    </defs>
    <g clip-path="url(#pa73085670a)">
     <use style="fill:#ff7500;stroke:#ff7500;" x="338.688" xlink:href="#m4617f39aab" y="55.14202"/>
    </g>
   </g>
   <g id="line2d_37">
    <defs>
     <path d="M 0 1.5 
C 0.397805 1.5 0.77937 1.341951 1.06066 1.06066 
C 1.341951 0.77937 1.5 0.397805 1.5 0 
C 1.5 -0.397805 1.341951 -0.77937 1.06066 -1.06066 
C 0.77937 -1.341951 0.397805 -1.5 0 -1.5 
C -0.397805 -1.5 -0.77937 -1.341951 -1.06066 -1.06066 
C -1.341951 -0.77937 -1.5 -0.397805 -1.5 0 
C -1.5 0.397805 -1.341951 0.77937 -1.06066 1.06066 
C -0.77937 1.341951 -0.397805 1.5 0 1.5 
z
" id="mcf88b2d435" style="stroke:#6495ed;"/>
    </defs>
    <g>
     <use style="fill:#6495ed;stroke:#6495ed;" x="395.419539" xlink:href="#mcf88b2d435" y="33.199842"/>
     <use style="fill:#6495ed;stroke:#6495ed;" x="395.419539" xlink:href="#mcf88b2d435" y="33.199842"/>
    </g>
   </g>
   <g id="line2d_38">
    <path d="M -1 270.906772 
L 15.383411 270.906772 
L 15.383411 266.030733 
L 39.158561 266.030733 
L 39.158561 253.840634 
L 57.6 253.840634 
L 57.6 244.088554 
L 72.667753 244.088554 
L 72.667753 237.993505 
L 85.407356 237.993505 
L 85.407356 231.898455 
L 96.442903 231.898455 
L 96.442903 225.803406 
L 106.176945 225.803406 
L 106.176945 222.146376 
L 122.761141 222.146376 
L 122.761141 220.927366 
L 129.952095 220.927366 
L 129.952095 213.613307 
L 136.567132 213.613307 
L 136.567132 209.956277 
L 142.691699 209.956277 
L 142.691699 208.737267 
L 148.393534 208.737267 
L 148.393534 207.518257 
L 153.727245 207.518257 
L 153.727245 203.861228 
L 158.737497 203.861228 
L 158.737497 201.423208 
L 163.461287 201.423208 
L 163.461287 198.985188 
L 172.168684 198.985188 
L 172.168684 195.328158 
L 180.045483 195.328158 
L 180.045483 192.890139 
L 183.719147 192.890139 
L 183.719147 188.014099 
L 187.236437 188.014099 
L 187.236437 186.795089 
L 190.610124 186.795089 
L 190.610124 184.357069 
L 196.970479 184.357069 
L 196.970479 181.91905 
L 199.976041 181.91905 
L 199.976041 180.70004 
L 202.876122 180.70004 
L 202.876122 179.48103 
L 218.41748 179.48103 
L 218.41748 177.04301 
L 220.745629 177.04301 
L 220.745629 175.824 
L 227.360666 175.824 
L 227.360666 173.38598 
L 237.329825 173.38598 
L 237.329825 169.72895 
L 239.187069 169.72895 
L 239.187069 166.071921 
L 241.00349 166.071921 
L 241.00349 163.633901 
L 244.52078 163.633901 
L 244.52078 162.414891 
L 249.531031 162.414891 
L 249.531031 161.195881 
L 251.135816 161.195881 
L 251.135816 159.976871 
L 252.710032 159.976871 
L 252.710032 158.757861 
L 254.254821 158.757861 
L 254.254821 156.319842 
L 255.771265 156.319842 
L 255.771265 155.100832 
L 264.328264 155.100832 
L 264.328264 153.881822 
L 269.577255 153.881822 
L 269.577255 147.786772 
L 275.701822 147.786772 
L 275.701822 146.567762 
L 276.874095 146.567762 
L 276.874095 144.129743 
L 279.169905 144.129743 
L 279.169905 142.910733 
L 282.498294 142.910733 
L 282.498294 139.253703 
L 286.737369 139.253703 
L 286.737369 138.034693 
L 291.74762 138.034693 
L 291.74762 131.939644 
L 296.471411 131.939644 
L 296.471411 130.720634 
L 300.065187 130.720634 
L 300.065187 129.501624 
L 306.001141 129.501624 
L 306.001141 123.406574 
L 306.815373 123.406574 
L 306.815373 113.654495 
L 307.621661 113.654495 
L 307.621661 107.559446 
L 308.420158 107.559446 
L 308.420158 100.245386 
L 309.994374 100.245386 
L 309.994374 96.588356 
L 310.770378 96.588356 
L 310.770378 94.150337 
L 311.539164 94.150337 
L 311.539164 90.493307 
L 313.80352 90.493307 
L 313.80352 85.617267 
L 314.544725 85.617267 
L 314.544725 84.398257 
L 315.279342 84.398257 
L 315.279342 83.179248 
L 316.007486 83.179248 
L 316.007486 81.960238 
L 316.729271 81.960238 
L 316.729271 78.303208 
L 317.444807 78.303208 
L 317.444807 75.865188 
L 318.1542 75.865188 
L 318.1542 73.427168 
L 318.857556 73.427168 
L 318.857556 72.208158 
L 319.554977 72.208158 
L 319.554977 70.989149 
L 320.246561 70.989149 
L 320.246561 68.551129 
L 320.932406 68.551129 
L 320.932406 66.113109 
L 321.612606 66.113109 
L 321.612606 64.894099 
L 322.287253 64.894099 
L 322.287253 63.675089 
L 324.278767 63.675089 
L 324.278767 62.456079 
L 324.932082 62.456079 
L 324.932082 61.237069 
L 325.580272 61.237069 
L 325.580272 56.36103 
L 326.223418 56.36103 
L 326.223418 55.14202 
L 334.738396 55.14202 
L 334.738396 53.92301 
L 335.314314 53.92301 
L 335.314314 52.704 
L 336.454247 52.704 
L 336.454247 46.60895 
L 337.018371 46.60895 
L 337.018371 45.389941 
L 337.57867 45.389941 
L 337.57867 44.170931 
L 338.688 44.170931 
L 338.688 44.170931 
" style="fill:none;stroke:#6495ed;stroke-linecap:square;stroke-width:1.5;"/>
   </g>
   <g id="line2d_39">
    <defs>
     <path d="M -0 6 
L 6 -6 
L -6 -6 
z
" id="md3faea2429" style="stroke:#6495ed;stroke-linejoin:miter;stroke-width:1.5;"/>
    </defs>
    <g>
     <use style="fill-opacity:0;stroke:#6495ed;stroke-linejoin:miter;stroke-width:1.5;" x="72.667753" xlink:href="#md3faea2429" y="244.088554"/>
     <use style="fill-opacity:0;stroke:#6495ed;stroke-linejoin:miter;stroke-width:1.5;" x="129.952095" xlink:href="#md3faea2429" y="213.613307"/>
     <use style="fill-opacity:0;stroke:#6495ed;stroke-linejoin:miter;stroke-width:1.5;" x="202.876122" xlink:href="#md3faea2429" y="180.70004"/>
     <use style="fill-opacity:0;stroke:#6495ed;stroke-linejoin:miter;stroke-width:1.5;" x="276.874095" xlink:href="#md3faea2429" y="144.129743"/>
     <use style="fill-opacity:0;stroke:#6495ed;stroke-linejoin:miter;stroke-width:1.5;" x="308.420158" xlink:href="#md3faea2429" y="107.559446"/>
     <use style="fill-opacity:0;stroke:#6495ed;stroke-linejoin:miter;stroke-width:1.5;" x="337.57867" xlink:href="#md3faea2429" y="44.170931"/>
     <use style="fill-opacity:0;stroke:#6495ed;stroke-linejoin:miter;stroke-width:1.5;" x="337.57867" xlink:href="#md3faea2429" y="44.170931"/>
     <use style="fill-opacity:0;stroke:#6495ed;stroke-linejoin:miter;stroke-width:1.5;" x="338.688" xlink:href="#md3faea2429" y="44.170931"/>
    </g>
   </g>
   <g id="line2d_40">
    <path style="fill:none;stroke:#6495ed;stroke-linecap:square;stroke-width:1.5;"/>
    <g/>
   </g>
   <g id="line2d_41">
    <path clip-path="url(#pa73085670a)" d="M 338.688 44.170931 
" style="fill:none;stroke:#6495ed;stroke-linecap:square;stroke-width:1.5;"/>
    <defs>
     <path d="M -12 12 
L 12 -12 
M -12 -12 
L 12 12 
" id="m1bb36a41e5" style="stroke:#6495ed;"/>
    </defs>
    <g clip-path="url(#pa73085670a)">
     <use style="fill:#6495ed;stroke:#6495ed;" x="338.688" xlink:href="#m1bb36a41e5" y="44.170931"/>
    </g>
   </g>
   <g id="line2d_42">
    <defs>
     <path d="M 0 1.5 
C 0.397805 1.5 0.77937 1.341951 1.06066 1.06066 
C 1.341951 0.77937 1.5 0.397805 1.5 0 
C 1.5 -0.397805 1.341951 -0.77937 1.06066 -1.06066 
C 0.77937 -1.341951 0.397805 -1.5 0 -1.5 
C -0.397805 -1.5 -0.77937 -1.341951 -1.06066 -1.06066 
C -1.341951 -0.77937 -1.5 -0.397805 -1.5 0 
C -1.5 0.397805 -1.341951 0.77937 -1.06066 1.06066 
C -0.77937 1.341951 -0.397805 1.5 0 1.5 
z
" id="maeeaf521e3" style="stroke:#ff0000;"/>
    </defs>
    <g>
     <use style="fill:#ff0000;stroke:#ff0000;" x="402.841277" xlink:href="#maeeaf521e3" y="55.14202"/>
     <use style="fill:#ff0000;stroke:#ff0000;" x="402.841277" xlink:href="#maeeaf521e3" y="55.14202"/>
    </g>
   </g>
   <g id="line2d_43">
    <path d="M -1 278.220832 
L 15.383411 278.220832 
L 15.383411 263.592713 
L 39.158561 263.592713 
L 39.158561 253.840634 
L 57.6 253.840634 
L 57.6 246.526574 
L 72.667753 246.526574 
L 72.667753 240.431525 
L 85.407356 240.431525 
L 85.407356 235.555485 
L 106.176945 235.555485 
L 106.176945 234.336475 
L 114.884342 234.336475 
L 114.884342 229.460436 
L 122.761141 229.460436 
L 122.761141 227.022416 
L 129.952095 227.022416 
L 129.952095 223.365386 
L 136.567132 223.365386 
L 136.567132 218.489347 
L 142.691699 218.489347 
L 142.691699 214.832317 
L 148.393534 214.832317 
L 148.393534 211.175287 
L 153.727245 211.175287 
L 153.727245 200.204198 
L 163.461287 200.204198 
L 163.461287 197.766178 
L 167.92961 197.766178 
L 167.92961 195.328158 
L 172.168684 195.328158 
L 172.168684 194.109149 
L 176.200891 194.109149 
L 176.200891 192.890139 
L 183.719147 192.890139 
L 183.719147 190.452119 
L 190.610124 190.452119 
L 190.610124 189.233109 
L 193.851474 189.233109 
L 193.851474 186.795089 
L 199.976041 186.795089 
L 199.976041 183.138059 
L 202.876122 183.138059 
L 202.876122 181.91905 
L 205.677876 181.91905 
L 205.677876 178.26202 
L 208.387753 178.26202 
L 208.387753 174.60499 
L 213.554675 174.60499 
L 213.554675 173.38598 
L 216.021839 173.38598 
L 216.021839 172.16697 
L 225.213952 172.16697 
L 225.213952 169.72895 
L 227.360666 169.72895 
L 227.360666 146.567762 
L 229.453027 146.567762 
L 229.453027 142.910733 
L 231.493719 142.910733 
L 231.493719 141.691723 
L 233.485233 141.691723 
L 233.485233 135.596673 
L 235.429884 135.596673 
L 235.429884 130.720634 
L 237.329825 130.720634 
L 237.329825 127.063604 
L 239.187069 127.063604 
L 239.187069 122.187564 
L 241.00349 122.187564 
L 241.00349 119.749545 
L 242.780845 119.749545 
L 242.780845 113.654495 
L 244.52078 113.654495 
L 244.52078 111.216475 
L 246.224837 111.216475 
L 246.224837 106.340436 
L 247.894466 106.340436 
L 247.894466 105.121426 
L 249.531031 105.121426 
L 249.531031 101.464396 
L 251.135816 101.464396 
L 251.135816 100.245386 
L 252.710032 100.245386 
L 252.710032 92.931327 
L 254.254821 92.931327 
L 254.254821 90.493307 
L 257.260383 90.493307 
L 257.260383 89.274297 
L 261.573214 89.274297 
L 261.573214 88.055287 
L 262.962219 88.055287 
L 262.962219 85.617267 
L 265.672095 85.617267 
L 265.672095 84.398257 
L 270.839018 84.398257 
L 270.839018 83.179248 
L 272.081805 83.179248 
L 272.081805 80.741228 
L 275.701822 80.741228 
L 275.701822 79.522218 
L 279.169905 79.522218 
L 279.169905 78.303208 
L 280.294328 78.303208 
L 280.294328 77.084198 
L 286.737369 77.084198 
L 286.737369 75.865188 
L 287.764013 75.865188 
L 287.764013 73.427168 
L 288.778061 73.427168 
L 288.778061 72.208158 
L 293.669656 72.208158 
L 293.669656 70.989149 
L 294.614168 70.989149 
L 294.614168 69.770139 
L 305.178808 69.770139 
L 305.178808 68.551129 
L 309.994374 68.551129 
L 309.994374 67.332119 
L 312.300863 67.332119 
L 312.300863 66.113109 
L 320.932406 66.113109 
L 320.932406 64.894099 
L 323.620247 64.894099 
L 323.620247 63.675089 
L 332.393733 63.675089 
L 332.393733 62.456079 
L 336.454247 62.456079 
L 336.454247 61.237069 
L 338.688 61.237069 
L 338.688 61.237069 
" style="fill:none;stroke:#ff0000;stroke-linecap:square;stroke-width:1.5;"/>
   </g>
   <g id="line2d_44">
    <defs>
     <path d="M 0 -6 
L -5.196152 -3 
L -5.196152 3 
L -0 6 
L 5.196152 3 
L 5.196152 -3 
z
" id="mc504df233e" style="stroke:#ff0000;stroke-linejoin:miter;stroke-width:1.5;"/>
    </defs>
    <g>
     <use style="fill-opacity:0;stroke:#ff0000;stroke-linejoin:miter;stroke-width:1.5;" x="85.407356" xlink:href="#mc504df233e" y="235.555485"/>
     <use style="fill-opacity:0;stroke:#ff0000;stroke-linejoin:miter;stroke-width:1.5;" x="148.393534" xlink:href="#mc504df233e" y="211.175287"/>
     <use style="fill-opacity:0;stroke:#ff0000;stroke-linejoin:miter;stroke-width:1.5;" x="205.677876" xlink:href="#mc504df233e" y="178.26202"/>
     <use style="fill-opacity:0;stroke:#ff0000;stroke-linejoin:miter;stroke-width:1.5;" x="251.135816" xlink:href="#mc504df233e" y="100.245386"/>
     <use style="fill-opacity:0;stroke:#ff0000;stroke-linejoin:miter;stroke-width:1.5;" x="312.300863" xlink:href="#mc504df233e" y="67.332119"/>
     <use style="fill-opacity:0;stroke:#ff0000;stroke-linejoin:miter;stroke-width:1.5;" x="336.454247" xlink:href="#mc504df233e" y="61.237069"/>
     <use style="fill-opacity:0;stroke:#ff0000;stroke-linejoin:miter;stroke-width:1.5;" x="338.688" xlink:href="#mc504df233e" y="61.237069"/>
    </g>
   </g>
   <g id="line2d_45">
    <path style="fill:none;stroke:#ff0000;stroke-linecap:square;stroke-width:1.5;"/>
    <g/>
   </g>
   <g id="line2d_46">
    <path clip-path="url(#pa73085670a)" d="M 338.688 61.237069 
" style="fill:none;stroke:#ff0000;stroke-linecap:square;stroke-width:1.5;"/>
    <defs>
     <path d="M -12 12 
L 12 -12 
M -12 -12 
L 12 12 
" id="m23ca839f14" style="stroke:#ff0000;"/>
    </defs>
    <g clip-path="url(#pa73085670a)">
     <use style="fill:#ff0000;stroke:#ff0000;" x="338.688" xlink:href="#m23ca839f14" y="61.237069"/>
    </g>
   </g>
   <g id="line2d_47">
    <defs>
     <path d="M 0 1.5 
C 0.397805 1.5 0.77937 1.341951 1.06066 1.06066 
C 1.341951 0.77937 1.5 0.397805 1.5 0 
C 1.5 -0.397805 1.341951 -0.77937 1.06066 -1.06066 
C 0.77937 -1.341951 0.397805 -1.5 0 -1.5 
C -0.397805 -1.5 -0.77937 -1.341951 -1.06066 -1.06066 
C -1.341951 -0.77937 -1.5 -0.397805 -1.5 0 
C -1.5 0.397805 -1.341951 0.77937 -1.06066 1.06066 
C -0.77937 1.341951 -0.397805 1.5 0 1.5 
z
" id="mb713747295" style="stroke:#9acd32;"/>
    </defs>
    <g>
     <use style="fill:#9acd32;stroke:#9acd32;" x="404.844862" xlink:href="#mb713747295" y="51.48499"/>
     <use style="fill:#9acd32;stroke:#9acd32;" x="404.844862" xlink:href="#mb713747295" y="51.48499"/>
    </g>
   </g>
   <g id="line2d_48">
    <path d="M -1 266.030733 
L 15.383411 266.030733 
L 15.383411 259.935683 
L 39.158561 259.935683 
L 39.158561 258.716673 
L 57.6 258.716673 
L 57.6 252.621624 
L 72.667753 252.621624 
L 72.667753 242.869545 
L 85.407356 242.869545 
L 85.407356 234.336475 
L 96.442903 234.336475 
L 96.442903 230.679446 
L 106.176945 230.679446 
L 106.176945 227.022416 
L 114.884342 227.022416 
L 114.884342 205.080238 
L 122.761141 205.080238 
L 122.761141 202.642218 
L 129.952095 202.642218 
L 129.952095 200.204198 
L 136.567132 200.204198 
L 136.567132 194.109149 
L 142.691699 194.109149 
L 142.691699 184.357069 
L 148.393534 184.357069 
L 148.393534 175.824 
L 153.727245 175.824 
L 153.727245 174.60499 
L 158.737497 174.60499 
L 158.737497 163.633901 
L 163.461287 163.633901 
L 163.461287 155.100832 
L 167.92961 155.100832 
L 167.92961 150.224792 
L 172.168684 150.224792 
L 172.168684 144.129743 
L 180.045483 144.129743 
L 180.045483 138.034693 
L 183.719147 138.034693 
L 183.719147 134.377663 
L 187.236437 134.377663 
L 187.236437 131.939644 
L 190.610124 131.939644 
L 190.610124 129.501624 
L 193.851474 129.501624 
L 193.851474 128.282614 
L 196.970479 128.282614 
L 196.970479 120.968554 
L 199.976041 120.968554 
L 199.976041 119.749545 
L 213.554675 119.749545 
L 213.554675 116.092515 
L 216.021839 116.092515 
L 216.021839 109.997465 
L 220.745629 109.997465 
L 220.745629 106.340436 
L 225.213952 106.340436 
L 225.213952 105.121426 
L 227.360666 105.121426 
L 227.360666 102.683406 
L 229.453027 102.683406 
L 229.453027 100.245386 
L 231.493719 100.245386 
L 231.493719 99.026376 
L 233.485233 99.026376 
L 233.485233 97.807366 
L 237.329825 97.807366 
L 237.329825 96.588356 
L 244.52078 96.588356 
L 244.52078 95.369347 
L 246.224837 95.369347 
L 246.224837 94.150337 
L 249.531031 94.150337 
L 249.531031 91.712317 
L 251.135816 91.712317 
L 251.135816 90.493307 
L 252.710032 90.493307 
L 252.710032 89.274297 
L 257.260383 89.274297 
L 257.260383 88.055287 
L 260.160464 88.055287 
L 260.160464 86.836277 
L 265.672095 86.836277 
L 265.672095 85.617267 
L 270.839018 85.617267 
L 270.839018 83.179248 
L 273.306181 83.179248 
L 273.306181 80.741228 
L 279.169905 80.741228 
L 279.169905 79.522218 
L 287.764013 79.522218 
L 287.764013 78.303208 
L 297.384612 78.303208 
L 297.384612 77.084198 
L 299.181287 77.084198 
L 299.181287 75.865188 
L 305.178808 75.865188 
L 305.178808 74.646178 
L 306.001141 74.646178 
L 306.001141 73.427168 
L 306.815373 73.427168 
L 306.815373 72.208158 
L 311.539164 72.208158 
L 311.539164 70.989149 
L 331.195975 70.989149 
L 331.195975 69.770139 
L 338.688 69.770139 
" style="fill:none;stroke:#9acd32;stroke-linecap:square;stroke-width:1.5;"/>
   </g>
   <g id="line2d_49">
    <defs>
     <path d="M 0 -6 
L -6 6 
L 6 6 
z
" id="m26c35da511" style="stroke:#9acd32;stroke-linejoin:miter;stroke-width:1.5;"/>
    </defs>
    <g>
     <use style="fill-opacity:0;stroke:#9acd32;stroke-linejoin:miter;stroke-width:1.5;" x="106.176945" xlink:href="#m26c35da511" y="230.679446"/>
     <use style="fill-opacity:0;stroke:#9acd32;stroke-linejoin:miter;stroke-width:1.5;" x="148.393534" xlink:href="#m26c35da511" y="175.824"/>
     <use style="fill-opacity:0;stroke:#9acd32;stroke-linejoin:miter;stroke-width:1.5;" x="196.970479" xlink:href="#m26c35da511" y="120.968554"/>
     <use style="fill-opacity:0;stroke:#9acd32;stroke-linejoin:miter;stroke-width:1.5;" x="237.329825" xlink:href="#m26c35da511" y="97.807366"/>
     <use style="fill-opacity:0;stroke:#9acd32;stroke-linejoin:miter;stroke-width:1.5;" x="299.181287" xlink:href="#m26c35da511" y="75.865188"/>
     <use style="fill-opacity:0;stroke:#9acd32;stroke-linejoin:miter;stroke-width:1.5;" x="331.195975" xlink:href="#m26c35da511" y="69.770139"/>
     <use style="fill-opacity:0;stroke:#9acd32;stroke-linejoin:miter;stroke-width:1.5;" x="338.688" xlink:href="#m26c35da511" y="69.770139"/>
    </g>
   </g>
   <g id="line2d_50">
    <path style="fill:none;stroke:#9acd32;stroke-linecap:square;stroke-width:1.5;"/>
    <g/>
   </g>
   <g id="line2d_51">
    <path clip-path="url(#pa73085670a)" d="M 338.688 69.770139 
" style="fill:none;stroke:#9acd32;stroke-linecap:square;stroke-width:1.5;"/>
    <defs>
     <path d="M -12 12 
L 12 -12 
M -12 -12 
L 12 12 
" id="mb4ef0d1b65" style="stroke:#9acd32;"/>
    </defs>
    <g clip-path="url(#pa73085670a)">
     <use style="fill:#9acd32;stroke:#9acd32;" x="338.688" xlink:href="#mb4ef0d1b65" y="69.770139"/>
    </g>
   </g>
   <g id="line2d_52">
    <defs>
     <path d="M 0 1.5 
C 0.397805 1.5 0.77937 1.341951 1.06066 1.06066 
C 1.341951 0.77937 1.5 0.397805 1.5 0 
C 1.5 -0.397805 1.341951 -0.77937 1.06066 -1.06066 
C 0.77937 -1.341951 0.397805 -1.5 0 -1.5 
C -0.397805 -1.5 -0.77937 -1.341951 -1.06066 -1.06066 
C -1.341951 -0.77937 -1.5 -0.397805 -1.5 0 
C -1.5 0.397805 -1.341951 0.77937 -1.06066 1.06066 
C -0.77937 1.341951 -0.397805 1.5 0 1.5 
z
" id="md743570295" style="stroke:#00bfbf;"/>
    </defs>
    <g>
     <use style="fill:#00bfbf;stroke:#00bfbf;" x="389.081366" xlink:href="#md743570295" y="55.14202"/>
     <use style="fill:#00bfbf;stroke:#00bfbf;" x="389.081366" xlink:href="#md743570295" y="55.14202"/>
    </g>
   </g>
   <g id="line2d_53">
    <path d="M -1 283.096871 
L 15.383411 283.096871 
L 15.383411 275.782812 
L 39.158561 275.782812 
L 39.158561 259.935683 
L 57.6 259.935683 
L 57.6 252.621624 
L 72.667753 252.621624 
L 72.667753 246.526574 
L 96.442903 246.526574 
L 96.442903 245.307564 
L 106.176945 245.307564 
L 106.176945 237.993505 
L 114.884342 237.993505 
L 114.884342 229.460436 
L 122.761141 229.460436 
L 122.761141 225.803406 
L 129.952095 225.803406 
L 129.952095 223.365386 
L 136.567132 223.365386 
L 136.567132 214.832317 
L 142.691699 214.832317 
L 142.691699 213.613307 
L 148.393534 213.613307 
L 148.393534 209.956277 
L 153.727245 209.956277 
L 153.727245 206.299248 
L 158.737497 206.299248 
L 158.737497 205.080238 
L 167.92961 205.080238 
L 167.92961 203.861228 
L 172.168684 203.861228 
L 172.168684 198.985188 
L 176.200891 198.985188 
L 176.200891 196.547168 
L 180.045483 196.547168 
L 180.045483 192.890139 
L 183.719147 192.890139 
L 183.719147 190.452119 
L 187.236437 190.452119 
L 187.236437 185.576079 
L 190.610124 185.576079 
L 190.610124 184.357069 
L 202.876122 184.357069 
L 202.876122 181.91905 
L 205.677876 181.91905 
L 205.677876 180.70004 
L 211.011587 180.70004 
L 211.011587 179.48103 
L 213.554675 179.48103 
L 213.554675 178.26202 
L 216.021839 178.26202 
L 216.021839 177.04301 
L 218.41748 177.04301 
L 218.41748 174.60499 
L 225.213952 174.60499 
L 225.213952 169.72895 
L 229.453027 169.72895 
L 229.453027 168.509941 
L 231.493719 168.509941 
L 231.493719 166.071921 
L 237.329825 166.071921 
L 237.329825 162.414891 
L 247.894466 162.414891 
L 247.894466 161.195881 
L 252.710032 161.195881 
L 252.710032 159.976871 
L 264.328264 159.976871 
L 264.328264 158.757861 
L 268.29593 158.757861 
L 268.29593 156.319842 
L 269.577255 156.319842 
L 269.577255 152.662812 
L 273.306181 152.662812 
L 273.306181 151.443802 
L 274.512682 151.443802 
L 274.512682 150.224792 
L 282.498294 150.224792 
L 282.498294 149.005782 
L 283.578621 149.005782 
L 283.578621 146.567762 
L 285.69781 146.567762 
L 285.69781 145.348752 
L 289.779817 145.348752 
L 289.779817 141.691723 
L 290.769575 141.691723 
L 290.769575 140.472713 
L 296.471411 140.472713 
L 296.471411 139.253703 
L 297.384612 139.253703 
L 297.384612 134.377663 
L 298.287832 134.377663 
L 298.287832 133.158653 
L 305.178808 133.158653 
L 305.178808 131.939644 
L 306.001141 131.939644 
L 306.001141 124.625584 
L 306.815373 124.625584 
L 306.815373 116.092515 
L 307.621661 116.092515 
L 307.621661 111.216475 
L 308.420158 111.216475 
L 308.420158 106.340436 
L 309.211014 106.340436 
L 309.211014 102.683406 
L 309.994374 102.683406 
L 309.994374 100.245386 
L 312.300863 100.245386 
L 312.300863 99.026376 
L 313.055607 99.026376 
L 313.055607 96.588356 
L 313.80352 96.588356 
L 313.80352 90.493307 
L 314.544725 90.493307 
L 314.544725 89.274297 
L 315.279342 89.274297 
L 315.279342 86.836277 
L 316.007486 86.836277 
L 316.007486 84.398257 
L 316.729271 84.398257 
L 316.729271 83.179248 
L 318.1542 83.179248 
L 318.1542 81.960238 
L 320.246561 81.960238 
L 320.246561 80.741228 
L 321.612606 80.741228 
L 321.612606 79.522218 
L 322.956438 79.522218 
L 322.956438 78.303208 
L 324.278767 78.303208 
L 324.278767 75.865188 
L 326.223418 75.865188 
L 326.223418 74.646178 
L 328.74709 74.646178 
L 328.74709 73.427168 
L 332.393733 73.427168 
L 332.393733 72.208158 
L 334.738396 72.208158 
L 334.738396 70.989149 
L 335.886246 70.989149 
L 335.886246 69.770139 
L 338.135196 69.770139 
L 338.135196 68.551129 
L 338.688 68.551129 
L 338.688 67.332119 
L 338.688 67.332119 
" style="fill:none;stroke:#00bfbf;stroke-linecap:square;stroke-width:1.5;"/>
   </g>
   <g id="line2d_54">
    <defs>
     <path d="M 0 -6 
L -5.706339 -1.854102 
L -3.526712 4.854102 
L 3.526712 4.854102 
L 5.706339 -1.854102 
z
" id="m8c20a09883" style="stroke:#00bfbf;stroke-linejoin:miter;stroke-width:1.5;"/>
    </defs>
    <g>
     <use style="fill-opacity:0;stroke:#00bfbf;stroke-linejoin:miter;stroke-width:1.5;" x="114.884342" xlink:href="#m8c20a09883" y="229.460436"/>
     <use style="fill-opacity:0;stroke:#00bfbf;stroke-linejoin:miter;stroke-width:1.5;" x="158.737497" xlink:href="#m8c20a09883" y="205.080238"/>
     <use style="fill-opacity:0;stroke:#00bfbf;stroke-linejoin:miter;stroke-width:1.5;" x="231.493719" xlink:href="#m8c20a09883" y="168.509941"/>
     <use style="fill-opacity:0;stroke:#00bfbf;stroke-linejoin:miter;stroke-width:1.5;" x="289.779817" xlink:href="#m8c20a09883" y="141.691723"/>
     <use style="fill-opacity:0;stroke:#00bfbf;stroke-linejoin:miter;stroke-width:1.5;" x="326.223418" xlink:href="#m8c20a09883" y="74.646178"/>
     <use style="fill-opacity:0;stroke:#00bfbf;stroke-linejoin:miter;stroke-width:1.5;" x="338.688" xlink:href="#m8c20a09883" y="68.551129"/>
     <use style="fill-opacity:0;stroke:#00bfbf;stroke-linejoin:miter;stroke-width:1.5;" x="338.688" xlink:href="#m8c20a09883" y="67.332119"/>
    </g>
   </g>
   <g id="line2d_55">
    <path style="fill:none;stroke:#00bfbf;stroke-linecap:square;stroke-width:1.5;"/>
    <g/>
   </g>
   <g id="line2d_56">
    <path clip-path="url(#pa73085670a)" d="M 338.688 67.332119 
" style="fill:none;stroke:#00bfbf;stroke-linecap:square;stroke-width:1.5;"/>
    <defs>
     <path d="M -12 12 
L 12 -12 
M -12 -12 
L 12 12 
" id="m3ce604bbed" style="stroke:#00bfbf;"/>
    </defs>
    <g clip-path="url(#pa73085670a)">
     <use style="fill:#00bfbf;stroke:#00bfbf;" x="338.688" xlink:href="#m3ce604bbed" y="67.332119"/>
    </g>
   </g>
   <g id="line2d_57">
    <path d="M 338.688 139.253703 
L 369.60768 293.092752 
" style="fill:none;stroke:#000080;stroke-linecap:square;stroke-width:1.5;"/>
    <g>
     <use style="fill-opacity:0;stroke:#000080;stroke-width:1.5;" x="338.688" xlink:href="#mcbf3434bf7" y="139.253703"/>
     <use style="fill-opacity:0;stroke:#000080;stroke-width:1.5;" x="369.60768" xlink:href="#mcbf3434bf7" y="293.092752"/>
    </g>
   </g>
   <g id="line2d_58">
    <path d="M 338.688 69.770139 
L 369.60768 252.969912 
" style="fill:none;stroke:#9acd32;stroke-linecap:square;stroke-width:1.5;"/>
    <g>
     <use style="fill-opacity:0;stroke:#9acd32;stroke-linejoin:miter;stroke-width:1.5;" x="338.688" xlink:href="#m26c35da511" y="69.770139"/>
     <use style="fill-opacity:0;stroke:#9acd32;stroke-linejoin:miter;stroke-width:1.5;" x="369.60768" xlink:href="#m26c35da511" y="252.969912"/>
    </g>
   </g>
   <g id="line2d_59">
    <path d="M 338.688 67.332119 
L 369.60768 212.847072 
" style="fill:none;stroke:#00bfbf;stroke-linecap:square;stroke-width:1.5;"/>
    <g>
     <use style="fill-opacity:0;stroke:#00bfbf;stroke-linejoin:miter;stroke-width:1.5;" x="338.688" xlink:href="#m8c20a09883" y="67.332119"/>
     <use style="fill-opacity:0;stroke:#00bfbf;stroke-linejoin:miter;stroke-width:1.5;" x="369.60768" xlink:href="#m8c20a09883" y="212.847072"/>
    </g>
   </g>
   <g id="line2d_60">
    <path d="M 338.688 61.237069 
L 369.60768 172.724232 
" style="fill:none;stroke:#ff0000;stroke-linecap:square;stroke-width:1.5;"/>
    <g>
     <use style="fill-opacity:0;stroke:#ff0000;stroke-linejoin:miter;stroke-width:1.5;" x="338.688" xlink:href="#mc504df233e" y="61.237069"/>
     <use style="fill-opacity:0;stroke:#ff0000;stroke-linejoin:miter;stroke-width:1.5;" x="369.60768" xlink:href="#mc504df233e" y="172.724232"/>
    </g>
   </g>
   <g id="line2d_61">
    <path d="M 338.688 55.14202 
L 369.60768 132.601392 
" style="fill:none;stroke:#ff7500;stroke-linecap:square;stroke-width:1.5;"/>
    <g>
     <use style="fill-opacity:0;stroke:#ff7500;stroke-linejoin:bevel;stroke-width:1.5;" x="338.688" xlink:href="#mcf4576b6a9" y="55.14202"/>
     <use style="fill-opacity:0;stroke:#ff7500;stroke-linejoin:bevel;stroke-width:1.5;" x="369.60768" xlink:href="#mcf4576b6a9" y="132.601392"/>
    </g>
   </g>
   <g id="line2d_62">
    <path d="M 338.688 52.704 
L 369.60768 92.478552 
" style="fill:none;stroke:#ff00ff;stroke-linecap:square;stroke-width:1.5;"/>
    <g>
     <use style="fill-opacity:0;stroke:#ff00ff;stroke-linejoin:miter;stroke-width:1.5;" x="338.688" xlink:href="#m71b391ef28" y="52.704"/>
     <use style="fill-opacity:0;stroke:#ff00ff;stroke-linejoin:miter;stroke-width:1.5;" x="369.60768" xlink:href="#m71b391ef28" y="92.478552"/>
    </g>
   </g>
   <g id="line2d_63">
    <path d="M 338.688 44.170931 
L 369.60768 52.355711 
" style="fill:none;stroke:#6495ed;stroke-linecap:square;stroke-width:1.5;"/>
    <g>
     <use style="fill-opacity:0;stroke:#6495ed;stroke-linejoin:miter;stroke-width:1.5;" x="338.688" xlink:href="#md3faea2429" y="44.170931"/>
     <use style="fill-opacity:0;stroke:#6495ed;stroke-linejoin:miter;stroke-width:1.5;" x="369.60768" xlink:href="#md3faea2429" y="52.355711"/>
    </g>
   </g>
   <g id="line2d_64">
    <path d="M 338.688 298.944 
L 338.688 6.381624 
" style="fill:none;stroke:#000000;stroke-linecap:square;stroke-width:1.5;"/>
   </g>
   <g id="patch_3">
    <path d="M 57.6 298.944 
L 57.6 3.456 
" style="fill:none;stroke:#000000;stroke-linecap:square;stroke-linejoin:miter;stroke-width:0.8;"/>
   </g>
   <g id="patch_4">
    <path d="M 338.688 298.944 
L 338.688 3.456 
" style="fill:none;stroke:#000000;stroke-linecap:square;stroke-linejoin:miter;stroke-width:0.8;"/>
   </g>
   <g id="patch_5">
    <path d="M 57.6 298.944 
L 338.688 298.944 
" style="fill:none;stroke:#000000;stroke-linecap:square;stroke-linejoin:miter;stroke-width:0.8;"/>
   </g>
   <g id="patch_6">
    <path d="M 57.6 3.456 
L 338.688 3.456 
" style="fill:none;stroke:#000000;stroke-linecap:square;stroke-linejoin:miter;stroke-width:0.8;"/>
   </g>
   <g id="text_10">
    <!-- random -->
    <g transform="translate(375.22944 297.78369)scale(0.17 -0.17)">
     <use xlink:href="#DejaVuSans-114"/>
     <use x="41.113281" xlink:href="#DejaVuSans-97"/>
     <use x="102.392578" xlink:href="#DejaVuSans-110"/>
     <use x="165.771484" xlink:href="#DejaVuSans-100"/>
     <use x="229.248047" xlink:href="#DejaVuSans-111"/>
     <use x="290.429688" xlink:href="#DejaVuSans-109"/>
    </g>
   </g>
   <g id="text_11">
    <!-- ScalS -->
    <g transform="translate(375.22944 257.66085)scale(0.17 -0.17)">
     <defs>
      <path d="M 53.515625 70.515625 
L 53.515625 60.890625 
Q 47.90625 63.578125 42.921875 64.890625 
Q 37.9375 66.21875 33.296875 66.21875 
Q 25.25 66.21875 20.875 63.09375 
Q 16.5 59.96875 16.5 54.203125 
Q 16.5 49.359375 19.40625 46.890625 
Q 22.3125 44.4375 30.421875 42.921875 
L 36.375 41.703125 
Q 47.40625 39.59375 52.65625 34.296875 
Q 57.90625 29 57.90625 20.125 
Q 57.90625 9.515625 50.796875 4.046875 
Q 43.703125 -1.421875 29.984375 -1.421875 
Q 24.8125 -1.421875 18.96875 -0.25 
Q 13.140625 0.921875 6.890625 3.21875 
L 6.890625 13.375 
Q 12.890625 10.015625 18.65625 8.296875 
Q 24.421875 6.59375 29.984375 6.59375 
Q 38.421875 6.59375 43.015625 9.90625 
Q 47.609375 13.234375 47.609375 19.390625 
Q 47.609375 24.75 44.3125 27.78125 
Q 41.015625 30.8125 33.5 32.328125 
L 27.484375 33.5 
Q 16.453125 35.6875 11.515625 40.375 
Q 6.59375 45.0625 6.59375 53.421875 
Q 6.59375 63.09375 13.40625 68.65625 
Q 20.21875 74.21875 32.171875 74.21875 
Q 37.3125 74.21875 42.625 73.28125 
Q 47.953125 72.359375 53.515625 70.515625 
z
" id="DejaVuSans-83"/>
     </defs>
     <use xlink:href="#DejaVuSans-83"/>
     <use x="63.476562" xlink:href="#DejaVuSans-99"/>
     <use x="118.457031" xlink:href="#DejaVuSans-97"/>
     <use x="179.736328" xlink:href="#DejaVuSans-108"/>
     <use x="207.519531" xlink:href="#DejaVuSans-83"/>
    </g>
   </g>
   <g id="text_12">
    <!-- ScalL -->
    <g transform="translate(375.22944 217.53801)scale(0.17 -0.17)">
     <defs>
      <path d="M 9.8125 72.90625 
L 19.671875 72.90625 
L 19.671875 8.296875 
L 55.171875 8.296875 
L 55.171875 0 
L 9.8125 0 
z
" id="DejaVuSans-76"/>
     </defs>
     <use xlink:href="#DejaVuSans-83"/>
     <use x="63.476562" xlink:href="#DejaVuSans-99"/>
     <use x="118.457031" xlink:href="#DejaVuSans-97"/>
     <use x="179.736328" xlink:href="#DejaVuSans-108"/>
     <use x="207.519531" xlink:href="#DejaVuSans-76"/>
    </g>
   </g>
   <g id="text_13">
    <!-- ScalM -->
    <g transform="translate(375.22944 177.415169)scale(0.17 -0.17)">
     <defs>
      <path d="M 9.8125 72.90625 
L 24.515625 72.90625 
L 43.109375 23.296875 
L 61.8125 72.90625 
L 76.515625 72.90625 
L 76.515625 0 
L 66.890625 0 
L 66.890625 64.015625 
L 48.09375 14.015625 
L 38.1875 14.015625 
L 19.390625 64.015625 
L 19.390625 0 
L 9.8125 0 
z
" id="DejaVuSans-77"/>
     </defs>
     <use xlink:href="#DejaVuSans-83"/>
     <use x="63.476562" xlink:href="#DejaVuSans-99"/>
     <use x="118.457031" xlink:href="#DejaVuSans-97"/>
     <use x="179.736328" xlink:href="#DejaVuSans-108"/>
     <use x="207.519531" xlink:href="#DejaVuSans-77"/>
    </g>
   </g>
   <g id="text_14">
    <!-- S -->
    <g transform="translate(375.22944 137.292329)scale(0.17 -0.17)">
     <use xlink:href="#DejaVuSans-83"/>
    </g>
   </g>
   <g id="text_15">
    <!-- M -->
    <g transform="translate(375.22944 97.169489)scale(0.17 -0.17)">
     <use xlink:href="#DejaVuSans-77"/>
    </g>
   </g>
   <g id="text_16">
    <!-- L -->
    <g transform="translate(375.22944 57.046649)scale(0.17 -0.17)">
     <use xlink:href="#DejaVuSans-76"/>
    </g>
   </g>
   <g id="text_17">
    <!-- best09 -->
    <g transform="translate(375.22944 16.923809)scale(0.17 -0.17)">
     <defs>
      <path d="M 48.6875 27.296875 
Q 48.6875 37.203125 44.609375 42.84375 
Q 40.53125 48.484375 33.40625 48.484375 
Q 26.265625 48.484375 22.1875 42.84375 
Q 18.109375 37.203125 18.109375 27.296875 
Q 18.109375 17.390625 22.1875 11.75 
Q 26.265625 6.109375 33.40625 6.109375 
Q 40.53125 6.109375 44.609375 11.75 
Q 48.6875 17.390625 48.6875 27.296875 
z
M 18.109375 46.390625 
Q 20.953125 51.265625 25.265625 53.625 
Q 29.59375 56 35.59375 56 
Q 45.5625 56 51.78125 48.09375 
Q 58.015625 40.1875 58.015625 27.296875 
Q 58.015625 14.40625 51.78125 6.484375 
Q 45.5625 -1.421875 35.59375 -1.421875 
Q 29.59375 -1.421875 25.265625 0.953125 
Q 20.953125 3.328125 18.109375 8.203125 
L 18.109375 0 
L 9.078125 0 
L 9.078125 75.984375 
L 18.109375 75.984375 
z
" id="DejaVuSans-98"/>
      <path d="M 10.984375 1.515625 
L 10.984375 10.5 
Q 14.703125 8.734375 18.5 7.8125 
Q 22.3125 6.890625 25.984375 6.890625 
Q 35.75 6.890625 40.890625 13.453125 
Q 46.046875 20.015625 46.78125 33.40625 
Q 43.953125 29.203125 39.59375 26.953125 
Q 35.25 24.703125 29.984375 24.703125 
Q 19.046875 24.703125 12.671875 31.3125 
Q 6.296875 37.9375 6.296875 49.421875 
Q 6.296875 60.640625 12.9375 67.421875 
Q 19.578125 74.21875 30.609375 74.21875 
Q 43.265625 74.21875 49.921875 64.515625 
Q 56.59375 54.828125 56.59375 36.375 
Q 56.59375 19.140625 48.40625 8.859375 
Q 40.234375 -1.421875 26.421875 -1.421875 
Q 22.703125 -1.421875 18.890625 -0.6875 
Q 15.09375 0.046875 10.984375 1.515625 
z
M 30.609375 32.421875 
Q 37.25 32.421875 41.125 36.953125 
Q 45.015625 41.5 45.015625 49.421875 
Q 45.015625 57.28125 41.125 61.84375 
Q 37.25 66.40625 30.609375 66.40625 
Q 23.96875 66.40625 20.09375 61.84375 
Q 16.21875 57.28125 16.21875 49.421875 
Q 16.21875 41.5 20.09375 36.953125 
Q 23.96875 32.421875 30.609375 32.421875 
z
" id="DejaVuSans-57"/>
     </defs>
     <use xlink:href="#DejaVuSans-98"/>
     <use x="63.476562" xlink:href="#DejaVuSans-101"/>
     <use x="125" xlink:href="#DejaVuSans-115"/>
     <use x="177.099609" xlink:href="#DejaVuSans-116"/>
     <use x="216.308594" xlink:href="#DejaVuSans-48"/>
     <use x="279.931641" xlink:href="#DejaVuSans-57"/>
    </g>
   </g>
   <g id="text_18">
    <!-- bbob f20-f24, 5-D -->
    <g transform="translate(60.41088 14.161286)scale(0.102 -0.102)">
     <defs>
      <path d="M 10.796875 72.90625 
L 49.515625 72.90625 
L 49.515625 64.59375 
L 19.828125 64.59375 
L 19.828125 46.734375 
Q 21.96875 47.46875 24.109375 47.828125 
Q 26.265625 48.1875 28.421875 48.1875 
Q 40.625 48.1875 47.75 41.5 
Q 54.890625 34.8125 54.890625 23.390625 
Q 54.890625 11.625 47.5625 5.09375 
Q 40.234375 -1.421875 26.90625 -1.421875 
Q 22.3125 -1.421875 17.546875 -0.640625 
Q 12.796875 0.140625 7.71875 1.703125 
L 7.71875 11.625 
Q 12.109375 9.234375 16.796875 8.0625 
Q 21.484375 6.890625 26.703125 6.890625 
Q 35.15625 6.890625 40.078125 11.328125 
Q 45.015625 15.765625 45.015625 23.390625 
Q 45.015625 31 40.078125 35.4375 
Q 35.15625 39.890625 26.703125 39.890625 
Q 22.75 39.890625 18.8125 39.015625 
Q 14.890625 38.140625 10.796875 36.28125 
z
" id="DejaVuSans-53"/>
      <path d="M 19.671875 64.796875 
L 19.671875 8.109375 
L 31.59375 8.109375 
Q 46.6875 8.109375 53.6875 14.9375 
Q 60.6875 21.78125 60.6875 36.53125 
Q 60.6875 51.171875 53.6875 57.984375 
Q 46.6875 64.796875 31.59375 64.796875 
z
M 9.8125 72.90625 
L 30.078125 72.90625 
Q 51.265625 72.90625 61.171875 64.09375 
Q 71.09375 55.28125 71.09375 36.53125 
Q 71.09375 17.671875 61.125 8.828125 
Q 51.171875 0 30.078125 0 
L 9.8125 0 
z
" id="DejaVuSans-68"/>
     </defs>
     <use xlink:href="#DejaVuSans-98"/>
     <use x="63.476562" xlink:href="#DejaVuSans-98"/>
     <use x="126.953125" xlink:href="#DejaVuSans-111"/>
     <use x="188.134766" xlink:href="#DejaVuSans-98"/>
     <use x="251.611328" xlink:href="#DejaVuSans-32"/>
     <use x="283.398438" xlink:href="#DejaVuSans-102"/>
     <use x="318.603516" xlink:href="#DejaVuSans-50"/>
     <use x="382.226562" xlink:href="#DejaVuSans-48"/>
     <use x="445.849609" xlink:href="#DejaVuSans-45"/>
     <use x="481.933594" xlink:href="#DejaVuSans-102"/>
     <use x="517.138672" xlink:href="#DejaVuSans-50"/>
     <use x="580.761719" xlink:href="#DejaVuSans-52"/>
     <use x="644.384766" xlink:href="#DejaVuSans-44"/>
     <use x="676.171875" xlink:href="#DejaVuSans-32"/>
     <use x="707.958984" xlink:href="#DejaVuSans-53"/>
     <use x="771.582031" xlink:href="#DejaVuSans-45"/>
     <use x="807.666016" xlink:href="#DejaVuSans-68"/>
    </g>
    <!-- 8 targets RLs/dim: 0.5..20 -->
    <g transform="translate(60.41088 25.583055)scale(0.102 -0.102)">
     <defs>
      <path d="M 44.390625 34.1875 
Q 47.5625 33.109375 50.5625 29.59375 
Q 53.5625 26.078125 56.59375 19.921875 
L 66.609375 0 
L 56 0 
L 46.6875 18.703125 
Q 43.0625 26.03125 39.671875 28.421875 
Q 36.28125 30.8125 30.421875 30.8125 
L 19.671875 30.8125 
L 19.671875 0 
L 9.8125 0 
L 9.8125 72.90625 
L 32.078125 72.90625 
Q 44.578125 72.90625 50.734375 67.671875 
Q 56.890625 62.453125 56.890625 51.90625 
Q 56.890625 45.015625 53.6875 40.46875 
Q 50.484375 35.9375 44.390625 34.1875 
z
M 19.671875 64.796875 
L 19.671875 38.921875 
L 32.078125 38.921875 
Q 39.203125 38.921875 42.84375 42.21875 
Q 46.484375 45.515625 46.484375 51.90625 
Q 46.484375 58.296875 42.84375 61.546875 
Q 39.203125 64.796875 32.078125 64.796875 
z
" id="DejaVuSans-82"/>
      <path d="M 11.71875 12.40625 
L 22.015625 12.40625 
L 22.015625 0 
L 11.71875 0 
z
M 11.71875 51.703125 
L 22.015625 51.703125 
L 22.015625 39.3125 
L 11.71875 39.3125 
z
" id="DejaVuSans-58"/>
     </defs>
     <use xlink:href="#DejaVuSans-56"/>
     <use x="63.623047" xlink:href="#DejaVuSans-32"/>
     <use x="95.410156" xlink:href="#DejaVuSans-116"/>
     <use x="134.619141" xlink:href="#DejaVuSans-97"/>
     <use x="195.898438" xlink:href="#DejaVuSans-114"/>
     <use x="235.261719" xlink:href="#DejaVuSans-103"/>
     <use x="298.738281" xlink:href="#DejaVuSans-101"/>
     <use x="360.261719" xlink:href="#DejaVuSans-116"/>
     <use x="399.470703" xlink:href="#DejaVuSans-115"/>
     <use x="451.570312" xlink:href="#DejaVuSans-32"/>
     <use x="483.357422" xlink:href="#DejaVuSans-82"/>
     <use x="552.839844" xlink:href="#DejaVuSans-76"/>
     <use x="608.552734" xlink:href="#DejaVuSans-115"/>
     <use x="660.652344" xlink:href="#DejaVuSans-47"/>
     <use x="694.34375" xlink:href="#DejaVuSans-100"/>
     <use x="757.820312" xlink:href="#DejaVuSans-105"/>
     <use x="785.603516" xlink:href="#DejaVuSans-109"/>
     <use x="883.015625" xlink:href="#DejaVuSans-58"/>
     <use x="916.707031" xlink:href="#DejaVuSans-32"/>
     <use x="948.494141" xlink:href="#DejaVuSans-48"/>
     <use x="1012.117188" xlink:href="#DejaVuSans-46"/>
     <use x="1043.904297" xlink:href="#DejaVuSans-53"/>
     <use x="1107.527344" xlink:href="#DejaVuSans-46"/>
     <use x="1139.314453" xlink:href="#DejaVuSans-46"/>
     <use x="1171.101562" xlink:href="#DejaVuSans-50"/>
     <use x="1234.724609" xlink:href="#DejaVuSans-48"/>
    </g>
    <!--   from /home/local/EMSE2000/leriche/AESOP/EXPE_DOCOCO/bestCustomAlg -->
    <g transform="translate(60.41088 37.004824)scale(0.102 -0.102)">
     <defs>
      <path d="M 54.890625 33.015625 
L 54.890625 0 
L 45.90625 0 
L 45.90625 32.71875 
Q 45.90625 40.484375 42.875 44.328125 
Q 39.84375 48.1875 33.796875 48.1875 
Q 26.515625 48.1875 22.3125 43.546875 
Q 18.109375 38.921875 18.109375 30.90625 
L 18.109375 0 
L 9.078125 0 
L 9.078125 75.984375 
L 18.109375 75.984375 
L 18.109375 46.1875 
Q 21.34375 51.125 25.703125 53.5625 
Q 30.078125 56 35.796875 56 
Q 45.21875 56 50.046875 50.171875 
Q 54.890625 44.34375 54.890625 33.015625 
z
" id="DejaVuSans-104"/>
      <path d="M 9.8125 72.90625 
L 55.90625 72.90625 
L 55.90625 64.59375 
L 19.671875 64.59375 
L 19.671875 43.015625 
L 54.390625 43.015625 
L 54.390625 34.71875 
L 19.671875 34.71875 
L 19.671875 8.296875 
L 56.78125 8.296875 
L 56.78125 0 
L 9.8125 0 
z
" id="DejaVuSans-69"/>
      <path d="M 34.1875 63.1875 
L 20.796875 26.90625 
L 47.609375 26.90625 
z
M 28.609375 72.90625 
L 39.796875 72.90625 
L 67.578125 0 
L 57.328125 0 
L 50.6875 18.703125 
L 17.828125 18.703125 
L 11.1875 0 
L 0.78125 0 
z
" id="DejaVuSans-65"/>
      <path d="M 39.40625 66.21875 
Q 28.65625 66.21875 22.328125 58.203125 
Q 16.015625 50.203125 16.015625 36.375 
Q 16.015625 22.609375 22.328125 14.59375 
Q 28.65625 6.59375 39.40625 6.59375 
Q 50.140625 6.59375 56.421875 14.59375 
Q 62.703125 22.609375 62.703125 36.375 
Q 62.703125 50.203125 56.421875 58.203125 
Q 50.140625 66.21875 39.40625 66.21875 
z
M 39.40625 74.21875 
Q 54.734375 74.21875 63.90625 63.9375 
Q 73.09375 53.65625 73.09375 36.375 
Q 73.09375 19.140625 63.90625 8.859375 
Q 54.734375 -1.421875 39.40625 -1.421875 
Q 24.03125 -1.421875 14.8125 8.828125 
Q 5.609375 19.09375 5.609375 36.375 
Q 5.609375 53.65625 14.8125 63.9375 
Q 24.03125 74.21875 39.40625 74.21875 
z
" id="DejaVuSans-79"/>
      <path d="M 19.671875 64.796875 
L 19.671875 37.40625 
L 32.078125 37.40625 
Q 38.96875 37.40625 42.71875 40.96875 
Q 46.484375 44.53125 46.484375 51.125 
Q 46.484375 57.671875 42.71875 61.234375 
Q 38.96875 64.796875 32.078125 64.796875 
z
M 9.8125 72.90625 
L 32.078125 72.90625 
Q 44.34375 72.90625 50.609375 67.359375 
Q 56.890625 61.8125 56.890625 51.125 
Q 56.890625 40.328125 50.609375 34.8125 
Q 44.34375 29.296875 32.078125 29.296875 
L 19.671875 29.296875 
L 19.671875 0 
L 9.8125 0 
z
" id="DejaVuSans-80"/>
      <path d="M 6.296875 72.90625 
L 16.890625 72.90625 
L 35.015625 45.796875 
L 53.21875 72.90625 
L 63.8125 72.90625 
L 40.375 37.890625 
L 65.375 0 
L 54.78125 0 
L 34.28125 31 
L 13.625 0 
L 2.984375 0 
L 29 38.921875 
z
" id="DejaVuSans-88"/>
      <path d="M 50.984375 -16.609375 
L 50.984375 -23.578125 
L -0.984375 -23.578125 
L -0.984375 -16.609375 
z
" id="DejaVuSans-95"/>
      <path d="M 64.40625 67.28125 
L 64.40625 56.890625 
Q 59.421875 61.53125 53.78125 63.8125 
Q 48.140625 66.109375 41.796875 66.109375 
Q 29.296875 66.109375 22.65625 58.46875 
Q 16.015625 50.828125 16.015625 36.375 
Q 16.015625 21.96875 22.65625 14.328125 
Q 29.296875 6.6875 41.796875 6.6875 
Q 48.140625 6.6875 53.78125 8.984375 
Q 59.421875 11.28125 64.40625 15.921875 
L 64.40625 5.609375 
Q 59.234375 2.09375 53.4375 0.328125 
Q 47.65625 -1.421875 41.21875 -1.421875 
Q 24.65625 -1.421875 15.125 8.703125 
Q 5.609375 18.84375 5.609375 36.375 
Q 5.609375 53.953125 15.125 64.078125 
Q 24.65625 74.21875 41.21875 74.21875 
Q 47.75 74.21875 53.53125 72.484375 
Q 59.328125 70.75 64.40625 67.28125 
z
" id="DejaVuSans-67"/>
     </defs>
     <use xlink:href="#DejaVuSans-32"/>
     <use x="31.787109" xlink:href="#DejaVuSans-32"/>
     <use x="63.574219" xlink:href="#DejaVuSans-102"/>
     <use x="98.779297" xlink:href="#DejaVuSans-114"/>
     <use x="137.642578" xlink:href="#DejaVuSans-111"/>
     <use x="198.824219" xlink:href="#DejaVuSans-109"/>
     <use x="296.236328" xlink:href="#DejaVuSans-32"/>
     <use x="328.023438" xlink:href="#DejaVuSans-47"/>
     <use x="361.714844" xlink:href="#DejaVuSans-104"/>
     <use x="425.09375" xlink:href="#DejaVuSans-111"/>
     <use x="486.275391" xlink:href="#DejaVuSans-109"/>
     <use x="583.6875" xlink:href="#DejaVuSans-101"/>
     <use x="645.210938" xlink:href="#DejaVuSans-47"/>
     <use x="678.902344" xlink:href="#DejaVuSans-108"/>
     <use x="706.685547" xlink:href="#DejaVuSans-111"/>
     <use x="767.867188" xlink:href="#DejaVuSans-99"/>
     <use x="822.847656" xlink:href="#DejaVuSans-97"/>
     <use x="884.126953" xlink:href="#DejaVuSans-108"/>
     <use x="911.910156" xlink:href="#DejaVuSans-47"/>
     <use x="945.601562" xlink:href="#DejaVuSans-69"/>
     <use x="1008.785156" xlink:href="#DejaVuSans-77"/>
     <use x="1095.064453" xlink:href="#DejaVuSans-83"/>
     <use x="1158.541016" xlink:href="#DejaVuSans-69"/>
     <use x="1221.724609" xlink:href="#DejaVuSans-50"/>
     <use x="1285.347656" xlink:href="#DejaVuSans-48"/>
     <use x="1348.970703" xlink:href="#DejaVuSans-48"/>
     <use x="1412.59375" xlink:href="#DejaVuSans-48"/>
     <use x="1476.216797" xlink:href="#DejaVuSans-47"/>
     <use x="1509.908203" xlink:href="#DejaVuSans-108"/>
     <use x="1537.691406" xlink:href="#DejaVuSans-101"/>
     <use x="1599.214844" xlink:href="#DejaVuSans-114"/>
     <use x="1640.328125" xlink:href="#DejaVuSans-105"/>
     <use x="1668.111328" xlink:href="#DejaVuSans-99"/>
     <use x="1723.091797" xlink:href="#DejaVuSans-104"/>
     <use x="1786.470703" xlink:href="#DejaVuSans-101"/>
     <use x="1847.994141" xlink:href="#DejaVuSans-47"/>
     <use x="1881.685547" xlink:href="#DejaVuSans-65"/>
     <use x="1950.09375" xlink:href="#DejaVuSans-69"/>
     <use x="2013.277344" xlink:href="#DejaVuSans-83"/>
     <use x="2076.753906" xlink:href="#DejaVuSans-79"/>
     <use x="2155.464844" xlink:href="#DejaVuSans-80"/>
     <use x="2215.767578" xlink:href="#DejaVuSans-47"/>
     <use x="2249.458984" xlink:href="#DejaVuSans-69"/>
     <use x="2312.642578" xlink:href="#DejaVuSans-88"/>
     <use x="2381.148438" xlink:href="#DejaVuSans-80"/>
     <use x="2441.451172" xlink:href="#DejaVuSans-69"/>
     <use x="2504.634766" xlink:href="#DejaVuSans-95"/>
     <use x="2554.634766" xlink:href="#DejaVuSans-68"/>
     <use x="2631.636719" xlink:href="#DejaVuSans-79"/>
     <use x="2710.347656" xlink:href="#DejaVuSans-67"/>
     <use x="2780.171875" xlink:href="#DejaVuSans-79"/>
     <use x="2858.882812" xlink:href="#DejaVuSans-67"/>
     <use x="2928.707031" xlink:href="#DejaVuSans-79"/>
     <use x="3007.417969" xlink:href="#DejaVuSans-47"/>
     <use x="3041.109375" xlink:href="#DejaVuSans-98"/>
     <use x="3104.585938" xlink:href="#DejaVuSans-101"/>
     <use x="3166.109375" xlink:href="#DejaVuSans-115"/>
     <use x="3218.208984" xlink:href="#DejaVuSans-116"/>
     <use x="3257.417969" xlink:href="#DejaVuSans-67"/>
     <use x="3327.242188" xlink:href="#DejaVuSans-117"/>
     <use x="3390.621094" xlink:href="#DejaVuSans-115"/>
     <use x="3442.720703" xlink:href="#DejaVuSans-116"/>
     <use x="3481.929688" xlink:href="#DejaVuSans-111"/>
     <use x="3543.111328" xlink:href="#DejaVuSans-109"/>
     <use x="3640.523438" xlink:href="#DejaVuSans-65"/>
     <use x="3708.931641" xlink:href="#DejaVuSans-108"/>
     <use x="3736.714844" xlink:href="#DejaVuSans-103"/>
    </g>
    <!-- 15 instances -->
    <g transform="translate(60.41088 48.71028)scale(0.102 -0.102)">
     <use xlink:href="#DejaVuSans-49"/>
     <use x="63.623047" xlink:href="#DejaVuSans-53"/>
     <use x="127.246094" xlink:href="#DejaVuSans-32"/>
     <use x="159.033203" xlink:href="#DejaVuSans-105"/>
     <use x="186.816406" xlink:href="#DejaVuSans-110"/>
     <use x="250.195312" xlink:href="#DejaVuSans-115"/>
     <use x="302.294922" xlink:href="#DejaVuSans-116"/>
     <use x="341.503906" xlink:href="#DejaVuSans-97"/>
     <use x="402.783203" xlink:href="#DejaVuSans-110"/>
     <use x="466.162109" xlink:href="#DejaVuSans-99"/>
     <use x="521.142578" xlink:href="#DejaVuSans-101"/>
     <use x="582.666016" xlink:href="#DejaVuSans-115"/>
    </g>
   </g>
   <g id="text_19">
    <!-- v2.3.3.84 -->
    <g style="fill:#808080;" transform="translate(174.511187 293.909432)scale(0.1 -0.1)">
     <defs>
      <path d="M 40.578125 39.3125 
Q 47.65625 37.796875 51.625 33 
Q 55.609375 28.21875 55.609375 21.1875 
Q 55.609375 10.40625 48.1875 4.484375 
Q 40.765625 -1.421875 27.09375 -1.421875 
Q 22.515625 -1.421875 17.65625 -0.515625 
Q 12.796875 0.390625 7.625 2.203125 
L 7.625 11.71875 
Q 11.71875 9.328125 16.59375 8.109375 
Q 21.484375 6.890625 26.8125 6.890625 
Q 36.078125 6.890625 40.9375 10.546875 
Q 45.796875 14.203125 45.796875 21.1875 
Q 45.796875 27.640625 41.28125 31.265625 
Q 36.765625 34.90625 28.71875 34.90625 
L 20.21875 34.90625 
L 20.21875 43.015625 
L 29.109375 43.015625 
Q 36.375 43.015625 40.234375 45.921875 
Q 44.09375 48.828125 44.09375 54.296875 
Q 44.09375 59.90625 40.109375 62.90625 
Q 36.140625 65.921875 28.71875 65.921875 
Q 24.65625 65.921875 20.015625 65.03125 
Q 15.375 64.15625 9.8125 62.3125 
L 9.8125 71.09375 
Q 15.4375 72.65625 20.34375 73.4375 
Q 25.25 74.21875 29.59375 74.21875 
Q 40.828125 74.21875 47.359375 69.109375 
Q 53.90625 64.015625 53.90625 55.328125 
Q 53.90625 49.265625 50.4375 45.09375 
Q 46.96875 40.921875 40.578125 39.3125 
z
" id="DejaVuSans-51"/>
     </defs>
     <use xlink:href="#DejaVuSans-118"/>
     <use x="59.179688" xlink:href="#DejaVuSans-50"/>
     <use x="122.802734" xlink:href="#DejaVuSans-46"/>
     <use x="154.589844" xlink:href="#DejaVuSans-51"/>
     <use x="218.212891" xlink:href="#DejaVuSans-46"/>
     <use x="250" xlink:href="#DejaVuSans-51"/>
     <use x="313.623047" xlink:href="#DejaVuSans-46"/>
     <use x="345.410156" xlink:href="#DejaVuSans-56"/>
     <use x="409.033203" xlink:href="#DejaVuSans-52"/>
    </g>
   </g>
  </g>
 </g>
 <defs>
  <clipPath id="pa73085670a">
   <rect height="295.488" width="281.088" x="57.6" y="3.456"/>
  </clipPath>
 </defs>
</svg>
