<?xml version="1.0" encoding="utf-8" standalone="no"?>
<!DOCTYPE svg PUBLIC "-//W3C//DTD SVG 1.1//EN"
  "http://www.w3.org/Graphics/SVG/1.1/DTD/svg11.dtd">
<!-- Created with matplotlib (https://matplotlib.org/) -->
<svg height="345.6pt" version="1.1" viewBox="0 0 460.8 345.6" width="460.8pt" xmlns="http://www.w3.org/2000/svg" xmlns:xlink="http://www.w3.org/1999/xlink">
 <metadata>
  <rdf:RDF xmlns:cc="http://creativecommons.org/ns#" xmlns:dc="http://purl.org/dc/elements/1.1/" xmlns:rdf="http://www.w3.org/1999/02/22-rdf-syntax-ns#">
   <cc:Work>
    <dc:type rdf:resource="http://purl.org/dc/dcmitype/StillImage"/>
    <dc:date>2020-12-01T10:58:44.379837</dc:date>
    <dc:format>image/svg+xml</dc:format>
    <dc:creator>
     <cc:Agent>
      <dc:title>Matplotlib v3.3.3, https://matplotlib.org/</dc:title>
     </cc:Agent>
    </dc:creator>
   </cc:Work>
  </rdf:RDF>
 </metadata>
 <defs>
  <style type="text/css">*{stroke-linecap:butt;stroke-linejoin:round;}</style>
 </defs>
 <g id="figure_1">
  <g id="patch_1">
   <path d="M 0 345.6 
L 460.8 345.6 
L 460.8 0 
L 0 0 
z
" style="fill:#ffffff;"/>
  </g>
  <g id="axes_1">
   <g id="patch_2">
    <path d="M 57.6 298.944 
L 338.688 298.944 
L 338.688 3.456 
L 57.6 3.456 
z
" style="fill:#ffffff;"/>
   </g>
   <g id="line2d_1">
    <path d="M 15.383411 298.944 
L 15.383411 257.149375 
L 72.667753 257.149375 
L 72.667753 246.700719 
L 85.407356 246.700719 
L 85.407356 225.803406 
L 96.442903 225.803406 
L 96.442903 215.35475 
L 153.727245 215.35475 
L 153.727245 194.457437 
L 158.737497 194.457437 
L 158.737497 184.008781 
L 163.461287 184.008781 
L 163.461287 173.560124 
L 193.851474 173.560124 
L 193.851474 152.662812 
L 199.976041 152.662812 
L 199.976041 142.214156 
L 205.677876 142.214156 
L 205.677876 131.765499 
L 227.360666 131.765499 
L 227.360666 121.316843 
L 229.453027 121.316843 
L 229.453027 110.868187 
L 237.329825 110.868187 
L 237.329825 100.41953 
L 252.710032 100.41953 
L 252.710032 89.970874 
L 254.254821 89.970874 
L 254.254821 69.073562 
L 255.771265 69.073562 
L 255.771265 58.624905 
L 287.764013 58.624905 
L 287.764013 48.176249 
L 316.007486 48.176249 
L 316.007486 37.727593 
L 328.74709 37.727593 
L 328.74709 27.278936 
L 329.980603 27.278936 
L 329.980603 16.83028 
L 330.590523 16.83028 
L 330.590523 6.381624 
L 338.688 6.381624 
" style="fill:none;stroke:#f5deb3;stroke-linecap:square;stroke-width:4;"/>
   </g>
   <g id="line2d_2">
    <defs>
     <path d="M -0 7.778175 
L 7.778175 0 
L 0 -7.778175 
L -7.778175 -0 
z
" id="mf87fb60d22" style="stroke:#f5deb3;stroke-linejoin:miter;stroke-width:1.5;"/>
    </defs>
    <g>
     <use style="fill:#f5deb3;stroke:#f5deb3;stroke-linejoin:miter;stroke-width:1.5;" x="96.442903" xlink:href="#mf87fb60d22" y="225.803406"/>
     <use style="fill:#f5deb3;stroke:#f5deb3;stroke-linejoin:miter;stroke-width:1.5;" x="163.461287" xlink:href="#mf87fb60d22" y="184.008781"/>
     <use style="fill:#f5deb3;stroke:#f5deb3;stroke-linejoin:miter;stroke-width:1.5;" x="205.677876" xlink:href="#mf87fb60d22" y="142.214156"/>
     <use style="fill:#f5deb3;stroke:#f5deb3;stroke-linejoin:miter;stroke-width:1.5;" x="254.254821" xlink:href="#mf87fb60d22" y="69.073562"/>
     <use style="fill:#f5deb3;stroke:#f5deb3;stroke-linejoin:miter;stroke-width:1.5;" x="316.007486" xlink:href="#mf87fb60d22" y="37.727593"/>
     <use style="fill:#f5deb3;stroke:#f5deb3;stroke-linejoin:miter;stroke-width:1.5;" x="330.590523" xlink:href="#mf87fb60d22" y="6.381624"/>
     <use style="fill:#f5deb3;stroke:#f5deb3;stroke-linejoin:miter;stroke-width:1.5;" x="338.688" xlink:href="#mf87fb60d22" y="6.381624"/>
    </g>
   </g>
   <g id="line2d_3">
    <path style="fill:none;stroke:#f5deb3;stroke-linecap:square;stroke-width:4;"/>
    <g/>
   </g>
   <g id="line2d_4">
    <path d="M 338.688 6.381624 
L 369.60768 12.232871 
" style="fill:none;stroke:#f5deb3;stroke-linecap:square;stroke-width:4;"/>
    <g>
     <use style="fill:#f5deb3;stroke:#f5deb3;stroke-linejoin:miter;stroke-width:1.5;" x="338.688" xlink:href="#mf87fb60d22" y="6.381624"/>
     <use style="fill:#f5deb3;stroke:#f5deb3;stroke-linejoin:miter;stroke-width:1.5;" x="369.60768" xlink:href="#mf87fb60d22" y="12.232871"/>
    </g>
   </g>
   <g id="matplotlib.axis_1">
    <g id="xtick_1">
     <g id="line2d_5">
      <path clip-path="url(#p98b0d297fd)" d="M 57.6 298.944 
L 57.6 3.456 
" style="fill:none;stroke:#b0b0b0;stroke-linecap:square;stroke-width:0.8;"/>
     </g>
     <g id="line2d_6">
      <defs>
       <path d="M 0 0 
L 0 3.5 
" id="m80d6a7783c" style="stroke:#000000;stroke-width:0.8;"/>
      </defs>
      <g>
       <use style="stroke:#000000;stroke-width:0.8;" x="57.6" xlink:href="#m80d6a7783c" y="298.944"/>
      </g>
     </g>
     <g id="text_1">
      <!-- 0 -->
      <g transform="translate(51.2375 321.140875)scale(0.2 -0.2)">
       <defs>
        <path d="M 31.78125 66.40625 
Q 24.171875 66.40625 20.328125 58.90625 
Q 16.5 51.421875 16.5 36.375 
Q 16.5 21.390625 20.328125 13.890625 
Q 24.171875 6.390625 31.78125 6.390625 
Q 39.453125 6.390625 43.28125 13.890625 
Q 47.125 21.390625 47.125 36.375 
Q 47.125 51.421875 43.28125 58.90625 
Q 39.453125 66.40625 31.78125 66.40625 
z
M 31.78125 74.21875 
Q 44.046875 74.21875 50.515625 64.515625 
Q 56.984375 54.828125 56.984375 36.375 
Q 56.984375 17.96875 50.515625 8.265625 
Q 44.046875 -1.421875 31.78125 -1.421875 
Q 19.53125 -1.421875 13.0625 8.265625 
Q 6.59375 17.96875 6.59375 36.375 
Q 6.59375 54.828125 13.0625 64.515625 
Q 19.53125 74.21875 31.78125 74.21875 
z
" id="DejaVuSans-48"/>
       </defs>
       <use xlink:href="#DejaVuSans-48"/>
      </g>
     </g>
    </g>
    <g id="xtick_2">
     <g id="line2d_7">
      <path clip-path="url(#p98b0d297fd)" d="M 247.894466 298.944 
L 247.894466 3.456 
" style="fill:none;stroke:#b0b0b0;stroke-linecap:square;stroke-width:0.8;"/>
     </g>
     <g id="line2d_8">
      <defs>
       <path d="M 0 0 
L 0 2 
" id="m903968f2ca" style="stroke:#000000;stroke-width:0.6;"/>
      </defs>
      <g>
       <use style="stroke:#000000;stroke-width:0.6;" x="247.894466" xlink:href="#m903968f2ca" y="298.944"/>
      </g>
     </g>
    </g>
    <g id="text_2">
     <!-- log10(# f-evals / dimension) -->
     <g transform="translate(77.764078 342.217594)scale(0.17 -0.17)">
      <defs>
       <path d="M 9.421875 75.984375 
L 18.40625 75.984375 
L 18.40625 0 
L 9.421875 0 
z
" id="DejaVuSans-108"/>
       <path d="M 30.609375 48.390625 
Q 23.390625 48.390625 19.1875 42.75 
Q 14.984375 37.109375 14.984375 27.296875 
Q 14.984375 17.484375 19.15625 11.84375 
Q 23.34375 6.203125 30.609375 6.203125 
Q 37.796875 6.203125 41.984375 11.859375 
Q 46.1875 17.53125 46.1875 27.296875 
Q 46.1875 37.015625 41.984375 42.703125 
Q 37.796875 48.390625 30.609375 48.390625 
z
M 30.609375 56 
Q 42.328125 56 49.015625 48.375 
Q 55.71875 40.765625 55.71875 27.296875 
Q 55.71875 13.875 49.015625 6.21875 
Q 42.328125 -1.421875 30.609375 -1.421875 
Q 18.84375 -1.421875 12.171875 6.21875 
Q 5.515625 13.875 5.515625 27.296875 
Q 5.515625 40.765625 12.171875 48.375 
Q 18.84375 56 30.609375 56 
z
" id="DejaVuSans-111"/>
       <path d="M 45.40625 27.984375 
Q 45.40625 37.75 41.375 43.109375 
Q 37.359375 48.484375 30.078125 48.484375 
Q 22.859375 48.484375 18.828125 43.109375 
Q 14.796875 37.75 14.796875 27.984375 
Q 14.796875 18.265625 18.828125 12.890625 
Q 22.859375 7.515625 30.078125 7.515625 
Q 37.359375 7.515625 41.375 12.890625 
Q 45.40625 18.265625 45.40625 27.984375 
z
M 54.390625 6.78125 
Q 54.390625 -7.171875 48.1875 -13.984375 
Q 42 -20.796875 29.203125 -20.796875 
Q 24.46875 -20.796875 20.265625 -20.09375 
Q 16.0625 -19.390625 12.109375 -17.921875 
L 12.109375 -9.1875 
Q 16.0625 -11.328125 19.921875 -12.34375 
Q 23.78125 -13.375 27.78125 -13.375 
Q 36.625 -13.375 41.015625 -8.765625 
Q 45.40625 -4.15625 45.40625 5.171875 
L 45.40625 9.625 
Q 42.625 4.78125 38.28125 2.390625 
Q 33.9375 0 27.875 0 
Q 17.828125 0 11.671875 7.65625 
Q 5.515625 15.328125 5.515625 27.984375 
Q 5.515625 40.671875 11.671875 48.328125 
Q 17.828125 56 27.875 56 
Q 33.9375 56 38.28125 53.609375 
Q 42.625 51.21875 45.40625 46.390625 
L 45.40625 54.6875 
L 54.390625 54.6875 
z
" id="DejaVuSans-103"/>
       <path d="M 12.40625 8.296875 
L 28.515625 8.296875 
L 28.515625 63.921875 
L 10.984375 60.40625 
L 10.984375 69.390625 
L 28.421875 72.90625 
L 38.28125 72.90625 
L 38.28125 8.296875 
L 54.390625 8.296875 
L 54.390625 0 
L 12.40625 0 
z
" id="DejaVuSans-49"/>
       <path d="M 31 75.875 
Q 24.46875 64.65625 21.28125 53.65625 
Q 18.109375 42.671875 18.109375 31.390625 
Q 18.109375 20.125 21.3125 9.0625 
Q 24.515625 -2 31 -13.1875 
L 23.1875 -13.1875 
Q 15.875 -1.703125 12.234375 9.375 
Q 8.59375 20.453125 8.59375 31.390625 
Q 8.59375 42.28125 12.203125 53.3125 
Q 15.828125 64.359375 23.1875 75.875 
z
" id="DejaVuSans-40"/>
       <path d="M 51.125 44 
L 36.921875 44 
L 32.8125 27.6875 
L 47.125 27.6875 
z
M 43.796875 71.78125 
L 38.71875 51.515625 
L 52.984375 51.515625 
L 58.109375 71.78125 
L 65.921875 71.78125 
L 60.890625 51.515625 
L 76.125 51.515625 
L 76.125 44 
L 58.984375 44 
L 54.984375 27.6875 
L 70.515625 27.6875 
L 70.515625 20.21875 
L 53.078125 20.21875 
L 48 0 
L 40.1875 0 
L 45.21875 20.21875 
L 30.90625 20.21875 
L 25.875 0 
L 18.015625 0 
L 23.09375 20.21875 
L 7.71875 20.21875 
L 7.71875 27.6875 
L 24.90625 27.6875 
L 29 44 
L 13.28125 44 
L 13.28125 51.515625 
L 30.90625 51.515625 
L 35.890625 71.78125 
z
" id="DejaVuSans-35"/>
       <path id="DejaVuSans-32"/>
       <path d="M 37.109375 75.984375 
L 37.109375 68.5 
L 28.515625 68.5 
Q 23.6875 68.5 21.796875 66.546875 
Q 19.921875 64.59375 19.921875 59.515625 
L 19.921875 54.6875 
L 34.71875 54.6875 
L 34.71875 47.703125 
L 19.921875 47.703125 
L 19.921875 0 
L 10.890625 0 
L 10.890625 47.703125 
L 2.296875 47.703125 
L 2.296875 54.6875 
L 10.890625 54.6875 
L 10.890625 58.5 
Q 10.890625 67.625 15.140625 71.796875 
Q 19.390625 75.984375 28.609375 75.984375 
z
" id="DejaVuSans-102"/>
       <path d="M 4.890625 31.390625 
L 31.203125 31.390625 
L 31.203125 23.390625 
L 4.890625 23.390625 
z
" id="DejaVuSans-45"/>
       <path d="M 56.203125 29.59375 
L 56.203125 25.203125 
L 14.890625 25.203125 
Q 15.484375 15.921875 20.484375 11.0625 
Q 25.484375 6.203125 34.421875 6.203125 
Q 39.59375 6.203125 44.453125 7.46875 
Q 49.3125 8.734375 54.109375 11.28125 
L 54.109375 2.78125 
Q 49.265625 0.734375 44.1875 -0.34375 
Q 39.109375 -1.421875 33.890625 -1.421875 
Q 20.796875 -1.421875 13.15625 6.1875 
Q 5.515625 13.8125 5.515625 26.8125 
Q 5.515625 40.234375 12.765625 48.109375 
Q 20.015625 56 32.328125 56 
Q 43.359375 56 49.78125 48.890625 
Q 56.203125 41.796875 56.203125 29.59375 
z
M 47.21875 32.234375 
Q 47.125 39.59375 43.09375 43.984375 
Q 39.0625 48.390625 32.421875 48.390625 
Q 24.90625 48.390625 20.390625 44.140625 
Q 15.875 39.890625 15.1875 32.171875 
z
" id="DejaVuSans-101"/>
       <path d="M 2.984375 54.6875 
L 12.5 54.6875 
L 29.59375 8.796875 
L 46.6875 54.6875 
L 56.203125 54.6875 
L 35.6875 0 
L 23.484375 0 
z
" id="DejaVuSans-118"/>
       <path d="M 34.28125 27.484375 
Q 23.390625 27.484375 19.1875 25 
Q 14.984375 22.515625 14.984375 16.5 
Q 14.984375 11.71875 18.140625 8.90625 
Q 21.296875 6.109375 26.703125 6.109375 
Q 34.1875 6.109375 38.703125 11.40625 
Q 43.21875 16.703125 43.21875 25.484375 
L 43.21875 27.484375 
z
M 52.203125 31.203125 
L 52.203125 0 
L 43.21875 0 
L 43.21875 8.296875 
Q 40.140625 3.328125 35.546875 0.953125 
Q 30.953125 -1.421875 24.3125 -1.421875 
Q 15.921875 -1.421875 10.953125 3.296875 
Q 6 8.015625 6 15.921875 
Q 6 25.140625 12.171875 29.828125 
Q 18.359375 34.515625 30.609375 34.515625 
L 43.21875 34.515625 
L 43.21875 35.40625 
Q 43.21875 41.609375 39.140625 45 
Q 35.0625 48.390625 27.6875 48.390625 
Q 23 48.390625 18.546875 47.265625 
Q 14.109375 46.140625 10.015625 43.890625 
L 10.015625 52.203125 
Q 14.9375 54.109375 19.578125 55.046875 
Q 24.21875 56 28.609375 56 
Q 40.484375 56 46.34375 49.84375 
Q 52.203125 43.703125 52.203125 31.203125 
z
" id="DejaVuSans-97"/>
       <path d="M 44.28125 53.078125 
L 44.28125 44.578125 
Q 40.484375 46.53125 36.375 47.5 
Q 32.28125 48.484375 27.875 48.484375 
Q 21.1875 48.484375 17.84375 46.4375 
Q 14.5 44.390625 14.5 40.28125 
Q 14.5 37.15625 16.890625 35.375 
Q 19.28125 33.59375 26.515625 31.984375 
L 29.59375 31.296875 
Q 39.15625 29.25 43.1875 25.515625 
Q 47.21875 21.78125 47.21875 15.09375 
Q 47.21875 7.46875 41.1875 3.015625 
Q 35.15625 -1.421875 24.609375 -1.421875 
Q 20.21875 -1.421875 15.453125 -0.5625 
Q 10.6875 0.296875 5.421875 2 
L 5.421875 11.28125 
Q 10.40625 8.6875 15.234375 7.390625 
Q 20.0625 6.109375 24.8125 6.109375 
Q 31.15625 6.109375 34.5625 8.28125 
Q 37.984375 10.453125 37.984375 14.40625 
Q 37.984375 18.0625 35.515625 20.015625 
Q 33.0625 21.96875 24.703125 23.78125 
L 21.578125 24.515625 
Q 13.234375 26.265625 9.515625 29.90625 
Q 5.8125 33.546875 5.8125 39.890625 
Q 5.8125 47.609375 11.28125 51.796875 
Q 16.75 56 26.8125 56 
Q 31.78125 56 36.171875 55.265625 
Q 40.578125 54.546875 44.28125 53.078125 
z
" id="DejaVuSans-115"/>
       <path d="M 25.390625 72.90625 
L 33.6875 72.90625 
L 8.296875 -9.28125 
L 0 -9.28125 
z
" id="DejaVuSans-47"/>
       <path d="M 45.40625 46.390625 
L 45.40625 75.984375 
L 54.390625 75.984375 
L 54.390625 0 
L 45.40625 0 
L 45.40625 8.203125 
Q 42.578125 3.328125 38.25 0.953125 
Q 33.9375 -1.421875 27.875 -1.421875 
Q 17.96875 -1.421875 11.734375 6.484375 
Q 5.515625 14.40625 5.515625 27.296875 
Q 5.515625 40.1875 11.734375 48.09375 
Q 17.96875 56 27.875 56 
Q 33.9375 56 38.25 53.625 
Q 42.578125 51.265625 45.40625 46.390625 
z
M 14.796875 27.296875 
Q 14.796875 17.390625 18.875 11.75 
Q 22.953125 6.109375 30.078125 6.109375 
Q 37.203125 6.109375 41.296875 11.75 
Q 45.40625 17.390625 45.40625 27.296875 
Q 45.40625 37.203125 41.296875 42.84375 
Q 37.203125 48.484375 30.078125 48.484375 
Q 22.953125 48.484375 18.875 42.84375 
Q 14.796875 37.203125 14.796875 27.296875 
z
" id="DejaVuSans-100"/>
       <path d="M 9.421875 54.6875 
L 18.40625 54.6875 
L 18.40625 0 
L 9.421875 0 
z
M 9.421875 75.984375 
L 18.40625 75.984375 
L 18.40625 64.59375 
L 9.421875 64.59375 
z
" id="DejaVuSans-105"/>
       <path d="M 52 44.1875 
Q 55.375 50.25 60.0625 53.125 
Q 64.75 56 71.09375 56 
Q 79.640625 56 84.28125 50.015625 
Q 88.921875 44.046875 88.921875 33.015625 
L 88.921875 0 
L 79.890625 0 
L 79.890625 32.71875 
Q 79.890625 40.578125 77.09375 44.375 
Q 74.3125 48.1875 68.609375 48.1875 
Q 61.625 48.1875 57.5625 43.546875 
Q 53.515625 38.921875 53.515625 30.90625 
L 53.515625 0 
L 44.484375 0 
L 44.484375 32.71875 
Q 44.484375 40.625 41.703125 44.40625 
Q 38.921875 48.1875 33.109375 48.1875 
Q 26.21875 48.1875 22.15625 43.53125 
Q 18.109375 38.875 18.109375 30.90625 
L 18.109375 0 
L 9.078125 0 
L 9.078125 54.6875 
L 18.109375 54.6875 
L 18.109375 46.1875 
Q 21.1875 51.21875 25.484375 53.609375 
Q 29.78125 56 35.6875 56 
Q 41.65625 56 45.828125 52.96875 
Q 50 49.953125 52 44.1875 
z
" id="DejaVuSans-109"/>
       <path d="M 54.890625 33.015625 
L 54.890625 0 
L 45.90625 0 
L 45.90625 32.71875 
Q 45.90625 40.484375 42.875 44.328125 
Q 39.84375 48.1875 33.796875 48.1875 
Q 26.515625 48.1875 22.3125 43.546875 
Q 18.109375 38.921875 18.109375 30.90625 
L 18.109375 0 
L 9.078125 0 
L 9.078125 54.6875 
L 18.109375 54.6875 
L 18.109375 46.1875 
Q 21.34375 51.125 25.703125 53.5625 
Q 30.078125 56 35.796875 56 
Q 45.21875 56 50.046875 50.171875 
Q 54.890625 44.34375 54.890625 33.015625 
z
" id="DejaVuSans-110"/>
       <path d="M 8.015625 75.875 
L 15.828125 75.875 
Q 23.140625 64.359375 26.78125 53.3125 
Q 30.421875 42.28125 30.421875 31.390625 
Q 30.421875 20.453125 26.78125 9.375 
Q 23.140625 -1.703125 15.828125 -13.1875 
L 8.015625 -13.1875 
Q 14.5 -2 17.703125 9.0625 
Q 20.90625 20.125 20.90625 31.390625 
Q 20.90625 42.671875 17.703125 53.65625 
Q 14.5 64.65625 8.015625 75.875 
z
" id="DejaVuSans-41"/>
      </defs>
      <use xlink:href="#DejaVuSans-108"/>
      <use x="27.783203" xlink:href="#DejaVuSans-111"/>
      <use x="88.964844" xlink:href="#DejaVuSans-103"/>
      <use x="152.441406" xlink:href="#DejaVuSans-49"/>
      <use x="216.064453" xlink:href="#DejaVuSans-48"/>
      <use x="279.6875" xlink:href="#DejaVuSans-40"/>
      <use x="318.701172" xlink:href="#DejaVuSans-35"/>
      <use x="402.490234" xlink:href="#DejaVuSans-32"/>
      <use x="434.277344" xlink:href="#DejaVuSans-102"/>
      <use x="463.982422" xlink:href="#DejaVuSans-45"/>
      <use x="500.066406" xlink:href="#DejaVuSans-101"/>
      <use x="561.589844" xlink:href="#DejaVuSans-118"/>
      <use x="620.769531" xlink:href="#DejaVuSans-97"/>
      <use x="682.048828" xlink:href="#DejaVuSans-108"/>
      <use x="709.832031" xlink:href="#DejaVuSans-115"/>
      <use x="761.931641" xlink:href="#DejaVuSans-32"/>
      <use x="793.71875" xlink:href="#DejaVuSans-47"/>
      <use x="827.410156" xlink:href="#DejaVuSans-32"/>
      <use x="859.197266" xlink:href="#DejaVuSans-100"/>
      <use x="922.673828" xlink:href="#DejaVuSans-105"/>
      <use x="950.457031" xlink:href="#DejaVuSans-109"/>
      <use x="1047.869141" xlink:href="#DejaVuSans-101"/>
      <use x="1109.392578" xlink:href="#DejaVuSans-110"/>
      <use x="1172.771484" xlink:href="#DejaVuSans-115"/>
      <use x="1224.871094" xlink:href="#DejaVuSans-105"/>
      <use x="1252.654297" xlink:href="#DejaVuSans-111"/>
      <use x="1313.835938" xlink:href="#DejaVuSans-110"/>
      <use x="1377.214844" xlink:href="#DejaVuSans-41"/>
     </g>
    </g>
   </g>
   <g id="matplotlib.axis_2">
    <g id="ytick_1">
     <g id="line2d_9">
      <path clip-path="url(#p98b0d297fd)" d="M 57.6 298.944 
L 338.688 298.944 
" style="fill:none;stroke:#b0b0b0;stroke-linecap:square;stroke-width:0.8;"/>
     </g>
     <g id="line2d_10">
      <defs>
       <path d="M 0 0 
L -3.5 0 
" id="mad7810d990" style="stroke:#000000;stroke-width:0.8;"/>
      </defs>
      <g>
       <use style="stroke:#000000;stroke-width:0.8;" x="57.6" xlink:href="#mad7810d990" y="298.944"/>
      </g>
     </g>
     <g id="text_3">
      <!-- 0.0 -->
      <g transform="translate(25.155 305.02275)scale(0.16 -0.16)">
       <defs>
        <path d="M 10.6875 12.40625 
L 21 12.40625 
L 21 0 
L 10.6875 0 
z
" id="DejaVuSans-46"/>
       </defs>
       <use xlink:href="#DejaVuSans-48"/>
       <use x="63.623047" xlink:href="#DejaVuSans-46"/>
       <use x="95.410156" xlink:href="#DejaVuSans-48"/>
      </g>
     </g>
    </g>
    <g id="ytick_2">
     <g id="line2d_11">
      <path clip-path="url(#p98b0d297fd)" d="M 57.6 240.431525 
L 338.688 240.431525 
" style="fill:none;stroke:#b0b0b0;stroke-linecap:square;stroke-width:0.8;"/>
     </g>
     <g id="line2d_12">
      <g>
       <use style="stroke:#000000;stroke-width:0.8;" x="57.6" xlink:href="#mad7810d990" y="240.431525"/>
      </g>
     </g>
     <g id="text_4">
      <!-- 0.2 -->
      <g transform="translate(25.155 246.510275)scale(0.16 -0.16)">
       <defs>
        <path d="M 19.1875 8.296875 
L 53.609375 8.296875 
L 53.609375 0 
L 7.328125 0 
L 7.328125 8.296875 
Q 12.9375 14.109375 22.625 23.890625 
Q 32.328125 33.6875 34.8125 36.53125 
Q 39.546875 41.84375 41.421875 45.53125 
Q 43.3125 49.21875 43.3125 52.78125 
Q 43.3125 58.59375 39.234375 62.25 
Q 35.15625 65.921875 28.609375 65.921875 
Q 23.96875 65.921875 18.8125 64.3125 
Q 13.671875 62.703125 7.8125 59.421875 
L 7.8125 69.390625 
Q 13.765625 71.78125 18.9375 73 
Q 24.125 74.21875 28.421875 74.21875 
Q 39.75 74.21875 46.484375 68.546875 
Q 53.21875 62.890625 53.21875 53.421875 
Q 53.21875 48.921875 51.53125 44.890625 
Q 49.859375 40.875 45.40625 35.40625 
Q 44.1875 33.984375 37.640625 27.21875 
Q 31.109375 20.453125 19.1875 8.296875 
z
" id="DejaVuSans-50"/>
       </defs>
       <use xlink:href="#DejaVuSans-48"/>
       <use x="63.623047" xlink:href="#DejaVuSans-46"/>
       <use x="95.410156" xlink:href="#DejaVuSans-50"/>
      </g>
     </g>
    </g>
    <g id="ytick_3">
     <g id="line2d_13">
      <path clip-path="url(#p98b0d297fd)" d="M 57.6 181.91905 
L 338.688 181.91905 
" style="fill:none;stroke:#b0b0b0;stroke-linecap:square;stroke-width:0.8;"/>
     </g>
     <g id="line2d_14">
      <g>
       <use style="stroke:#000000;stroke-width:0.8;" x="57.6" xlink:href="#mad7810d990" y="181.91905"/>
      </g>
     </g>
     <g id="text_5">
      <!-- 0.4 -->
      <g transform="translate(25.155 187.9978)scale(0.16 -0.16)">
       <defs>
        <path d="M 37.796875 64.3125 
L 12.890625 25.390625 
L 37.796875 25.390625 
z
M 35.203125 72.90625 
L 47.609375 72.90625 
L 47.609375 25.390625 
L 58.015625 25.390625 
L 58.015625 17.1875 
L 47.609375 17.1875 
L 47.609375 0 
L 37.796875 0 
L 37.796875 17.1875 
L 4.890625 17.1875 
L 4.890625 26.703125 
z
" id="DejaVuSans-52"/>
       </defs>
       <use xlink:href="#DejaVuSans-48"/>
       <use x="63.623047" xlink:href="#DejaVuSans-46"/>
       <use x="95.410156" xlink:href="#DejaVuSans-52"/>
      </g>
     </g>
    </g>
    <g id="ytick_4">
     <g id="line2d_15">
      <path clip-path="url(#p98b0d297fd)" d="M 57.6 123.406574 
L 338.688 123.406574 
" style="fill:none;stroke:#b0b0b0;stroke-linecap:square;stroke-width:0.8;"/>
     </g>
     <g id="line2d_16">
      <g>
       <use style="stroke:#000000;stroke-width:0.8;" x="57.6" xlink:href="#mad7810d990" y="123.406574"/>
      </g>
     </g>
     <g id="text_6">
      <!-- 0.6 -->
      <g transform="translate(25.155 129.485324)scale(0.16 -0.16)">
       <defs>
        <path d="M 33.015625 40.375 
Q 26.375 40.375 22.484375 35.828125 
Q 18.609375 31.296875 18.609375 23.390625 
Q 18.609375 15.53125 22.484375 10.953125 
Q 26.375 6.390625 33.015625 6.390625 
Q 39.65625 6.390625 43.53125 10.953125 
Q 47.40625 15.53125 47.40625 23.390625 
Q 47.40625 31.296875 43.53125 35.828125 
Q 39.65625 40.375 33.015625 40.375 
z
M 52.59375 71.296875 
L 52.59375 62.3125 
Q 48.875 64.0625 45.09375 64.984375 
Q 41.3125 65.921875 37.59375 65.921875 
Q 27.828125 65.921875 22.671875 59.328125 
Q 17.53125 52.734375 16.796875 39.40625 
Q 19.671875 43.65625 24.015625 45.921875 
Q 28.375 48.1875 33.59375 48.1875 
Q 44.578125 48.1875 50.953125 41.515625 
Q 57.328125 34.859375 57.328125 23.390625 
Q 57.328125 12.15625 50.6875 5.359375 
Q 44.046875 -1.421875 33.015625 -1.421875 
Q 20.359375 -1.421875 13.671875 8.265625 
Q 6.984375 17.96875 6.984375 36.375 
Q 6.984375 53.65625 15.1875 63.9375 
Q 23.390625 74.21875 37.203125 74.21875 
Q 40.921875 74.21875 44.703125 73.484375 
Q 48.484375 72.75 52.59375 71.296875 
z
" id="DejaVuSans-54"/>
       </defs>
       <use xlink:href="#DejaVuSans-48"/>
       <use x="63.623047" xlink:href="#DejaVuSans-46"/>
       <use x="95.410156" xlink:href="#DejaVuSans-54"/>
      </g>
     </g>
    </g>
    <g id="ytick_5">
     <g id="line2d_17">
      <path clip-path="url(#p98b0d297fd)" d="M 57.6 64.894099 
L 338.688 64.894099 
" style="fill:none;stroke:#b0b0b0;stroke-linecap:square;stroke-width:0.8;"/>
     </g>
     <g id="line2d_18">
      <g>
       <use style="stroke:#000000;stroke-width:0.8;" x="57.6" xlink:href="#mad7810d990" y="64.894099"/>
      </g>
     </g>
     <g id="text_7">
      <!-- 0.8 -->
      <g transform="translate(25.155 70.972849)scale(0.16 -0.16)">
       <defs>
        <path d="M 31.78125 34.625 
Q 24.75 34.625 20.71875 30.859375 
Q 16.703125 27.09375 16.703125 20.515625 
Q 16.703125 13.921875 20.71875 10.15625 
Q 24.75 6.390625 31.78125 6.390625 
Q 38.8125 6.390625 42.859375 10.171875 
Q 46.921875 13.96875 46.921875 20.515625 
Q 46.921875 27.09375 42.890625 30.859375 
Q 38.875 34.625 31.78125 34.625 
z
M 21.921875 38.8125 
Q 15.578125 40.375 12.03125 44.71875 
Q 8.5 49.078125 8.5 55.328125 
Q 8.5 64.0625 14.71875 69.140625 
Q 20.953125 74.21875 31.78125 74.21875 
Q 42.671875 74.21875 48.875 69.140625 
Q 55.078125 64.0625 55.078125 55.328125 
Q 55.078125 49.078125 51.53125 44.71875 
Q 48 40.375 41.703125 38.8125 
Q 48.828125 37.15625 52.796875 32.3125 
Q 56.78125 27.484375 56.78125 20.515625 
Q 56.78125 9.90625 50.3125 4.234375 
Q 43.84375 -1.421875 31.78125 -1.421875 
Q 19.734375 -1.421875 13.25 4.234375 
Q 6.78125 9.90625 6.78125 20.515625 
Q 6.78125 27.484375 10.78125 32.3125 
Q 14.796875 37.15625 21.921875 38.8125 
z
M 18.3125 54.390625 
Q 18.3125 48.734375 21.84375 45.5625 
Q 25.390625 42.390625 31.78125 42.390625 
Q 38.140625 42.390625 41.71875 45.5625 
Q 45.3125 48.734375 45.3125 54.390625 
Q 45.3125 60.0625 41.71875 63.234375 
Q 38.140625 66.40625 31.78125 66.40625 
Q 25.390625 66.40625 21.84375 63.234375 
Q 18.3125 60.0625 18.3125 54.390625 
z
" id="DejaVuSans-56"/>
       </defs>
       <use xlink:href="#DejaVuSans-48"/>
       <use x="63.623047" xlink:href="#DejaVuSans-46"/>
       <use x="95.410156" xlink:href="#DejaVuSans-56"/>
      </g>
     </g>
    </g>
    <g id="ytick_6">
     <g id="line2d_19">
      <path clip-path="url(#p98b0d297fd)" d="M 57.6 6.381624 
L 338.688 6.381624 
" style="fill:none;stroke:#b0b0b0;stroke-linecap:square;stroke-width:0.8;"/>
     </g>
     <g id="line2d_20">
      <g>
       <use style="stroke:#000000;stroke-width:0.8;" x="57.6" xlink:href="#mad7810d990" y="6.381624"/>
      </g>
     </g>
     <g id="text_8">
      <!-- 1.0 -->
      <g transform="translate(25.155 12.460374)scale(0.16 -0.16)">
       <use xlink:href="#DejaVuSans-49"/>
       <use x="63.623047" xlink:href="#DejaVuSans-46"/>
       <use x="95.410156" xlink:href="#DejaVuSans-48"/>
      </g>
     </g>
    </g>
    <g id="text_9">
     <!-- Fraction of function,target pairs -->
     <g transform="translate(17.619531 285.585)rotate(-90)scale(0.17 -0.17)">
      <defs>
       <path d="M 9.8125 72.90625 
L 51.703125 72.90625 
L 51.703125 64.59375 
L 19.671875 64.59375 
L 19.671875 43.109375 
L 48.578125 43.109375 
L 48.578125 34.8125 
L 19.671875 34.8125 
L 19.671875 0 
L 9.8125 0 
z
" id="DejaVuSans-70"/>
       <path d="M 41.109375 46.296875 
Q 39.59375 47.171875 37.8125 47.578125 
Q 36.03125 48 33.890625 48 
Q 26.265625 48 22.1875 43.046875 
Q 18.109375 38.09375 18.109375 28.8125 
L 18.109375 0 
L 9.078125 0 
L 9.078125 54.6875 
L 18.109375 54.6875 
L 18.109375 46.1875 
Q 20.953125 51.171875 25.484375 53.578125 
Q 30.03125 56 36.53125 56 
Q 37.453125 56 38.578125 55.875 
Q 39.703125 55.765625 41.0625 55.515625 
z
" id="DejaVuSans-114"/>
       <path d="M 48.78125 52.59375 
L 48.78125 44.1875 
Q 44.96875 46.296875 41.140625 47.34375 
Q 37.3125 48.390625 33.40625 48.390625 
Q 24.65625 48.390625 19.8125 42.84375 
Q 14.984375 37.3125 14.984375 27.296875 
Q 14.984375 17.28125 19.8125 11.734375 
Q 24.65625 6.203125 33.40625 6.203125 
Q 37.3125 6.203125 41.140625 7.25 
Q 44.96875 8.296875 48.78125 10.40625 
L 48.78125 2.09375 
Q 45.015625 0.34375 40.984375 -0.53125 
Q 36.96875 -1.421875 32.421875 -1.421875 
Q 20.0625 -1.421875 12.78125 6.34375 
Q 5.515625 14.109375 5.515625 27.296875 
Q 5.515625 40.671875 12.859375 48.328125 
Q 20.21875 56 33.015625 56 
Q 37.15625 56 41.109375 55.140625 
Q 45.0625 54.296875 48.78125 52.59375 
z
" id="DejaVuSans-99"/>
       <path d="M 18.3125 70.21875 
L 18.3125 54.6875 
L 36.8125 54.6875 
L 36.8125 47.703125 
L 18.3125 47.703125 
L 18.3125 18.015625 
Q 18.3125 11.328125 20.140625 9.421875 
Q 21.96875 7.515625 27.59375 7.515625 
L 36.8125 7.515625 
L 36.8125 0 
L 27.59375 0 
Q 17.1875 0 13.234375 3.875 
Q 9.28125 7.765625 9.28125 18.015625 
L 9.28125 47.703125 
L 2.6875 47.703125 
L 2.6875 54.6875 
L 9.28125 54.6875 
L 9.28125 70.21875 
z
" id="DejaVuSans-116"/>
       <path d="M 8.5 21.578125 
L 8.5 54.6875 
L 17.484375 54.6875 
L 17.484375 21.921875 
Q 17.484375 14.15625 20.5 10.265625 
Q 23.53125 6.390625 29.59375 6.390625 
Q 36.859375 6.390625 41.078125 11.03125 
Q 45.3125 15.671875 45.3125 23.6875 
L 45.3125 54.6875 
L 54.296875 54.6875 
L 54.296875 0 
L 45.3125 0 
L 45.3125 8.40625 
Q 42.046875 3.421875 37.71875 1 
Q 33.40625 -1.421875 27.6875 -1.421875 
Q 18.265625 -1.421875 13.375 4.4375 
Q 8.5 10.296875 8.5 21.578125 
z
M 31.109375 56 
z
" id="DejaVuSans-117"/>
       <path d="M 11.71875 12.40625 
L 22.015625 12.40625 
L 22.015625 4 
L 14.015625 -11.625 
L 7.71875 -11.625 
L 11.71875 4 
z
" id="DejaVuSans-44"/>
       <path d="M 18.109375 8.203125 
L 18.109375 -20.796875 
L 9.078125 -20.796875 
L 9.078125 54.6875 
L 18.109375 54.6875 
L 18.109375 46.390625 
Q 20.953125 51.265625 25.265625 53.625 
Q 29.59375 56 35.59375 56 
Q 45.5625 56 51.78125 48.09375 
Q 58.015625 40.1875 58.015625 27.296875 
Q 58.015625 14.40625 51.78125 6.484375 
Q 45.5625 -1.421875 35.59375 -1.421875 
Q 29.59375 -1.421875 25.265625 0.953125 
Q 20.953125 3.328125 18.109375 8.203125 
z
M 48.6875 27.296875 
Q 48.6875 37.203125 44.609375 42.84375 
Q 40.53125 48.484375 33.40625 48.484375 
Q 26.265625 48.484375 22.1875 42.84375 
Q 18.109375 37.203125 18.109375 27.296875 
Q 18.109375 17.390625 22.1875 11.75 
Q 26.265625 6.109375 33.40625 6.109375 
Q 40.53125 6.109375 44.609375 11.75 
Q 48.6875 17.390625 48.6875 27.296875 
z
" id="DejaVuSans-112"/>
      </defs>
      <use xlink:href="#DejaVuSans-70"/>
      <use x="50.269531" xlink:href="#DejaVuSans-114"/>
      <use x="91.382812" xlink:href="#DejaVuSans-97"/>
      <use x="152.662109" xlink:href="#DejaVuSans-99"/>
      <use x="207.642578" xlink:href="#DejaVuSans-116"/>
      <use x="246.851562" xlink:href="#DejaVuSans-105"/>
      <use x="274.634766" xlink:href="#DejaVuSans-111"/>
      <use x="335.816406" xlink:href="#DejaVuSans-110"/>
      <use x="399.195312" xlink:href="#DejaVuSans-32"/>
      <use x="430.982422" xlink:href="#DejaVuSans-111"/>
      <use x="492.164062" xlink:href="#DejaVuSans-102"/>
      <use x="527.369141" xlink:href="#DejaVuSans-32"/>
      <use x="559.15625" xlink:href="#DejaVuSans-102"/>
      <use x="594.361328" xlink:href="#DejaVuSans-117"/>
      <use x="657.740234" xlink:href="#DejaVuSans-110"/>
      <use x="721.119141" xlink:href="#DejaVuSans-99"/>
      <use x="776.099609" xlink:href="#DejaVuSans-116"/>
      <use x="815.308594" xlink:href="#DejaVuSans-105"/>
      <use x="843.091797" xlink:href="#DejaVuSans-111"/>
      <use x="904.273438" xlink:href="#DejaVuSans-110"/>
      <use x="967.652344" xlink:href="#DejaVuSans-44"/>
      <use x="999.439453" xlink:href="#DejaVuSans-116"/>
      <use x="1038.648438" xlink:href="#DejaVuSans-97"/>
      <use x="1099.927734" xlink:href="#DejaVuSans-114"/>
      <use x="1139.291016" xlink:href="#DejaVuSans-103"/>
      <use x="1202.767578" xlink:href="#DejaVuSans-101"/>
      <use x="1264.291016" xlink:href="#DejaVuSans-116"/>
      <use x="1303.5" xlink:href="#DejaVuSans-32"/>
      <use x="1335.287109" xlink:href="#DejaVuSans-112"/>
      <use x="1398.763672" xlink:href="#DejaVuSans-97"/>
      <use x="1460.042969" xlink:href="#DejaVuSans-105"/>
      <use x="1487.826172" xlink:href="#DejaVuSans-114"/>
      <use x="1528.939453" xlink:href="#DejaVuSans-115"/>
     </g>
    </g>
   </g>
   <g id="line2d_21">
    <defs>
     <path d="M 0 1.5 
C 0.397805 1.5 0.77937 1.341951 1.06066 1.06066 
C 1.341951 0.77937 1.5 0.397805 1.5 0 
C 1.5 -0.397805 1.341951 -0.77937 1.06066 -1.06066 
C 0.77937 -1.341951 0.397805 -1.5 0 -1.5 
C -0.397805 -1.5 -0.77937 -1.341951 -1.06066 -1.06066 
C -1.341951 -0.77937 -1.5 -0.397805 -1.5 0 
C -1.5 0.397805 -1.341951 0.77937 -1.06066 1.06066 
C -0.77937 1.341951 -0.397805 1.5 0 1.5 
z
" id="m1850b6e6d9" style="stroke:#f5deb3;"/>
    </defs>
    <g>
     <use style="fill:#f5deb3;stroke:#f5deb3;" x="330.590523" xlink:href="#m1850b6e6d9" y="6.381624"/>
     <use style="fill:#f5deb3;stroke:#f5deb3;" x="330.590523" xlink:href="#m1850b6e6d9" y="6.381624"/>
    </g>
   </g>
   <g id="line2d_22">
    <defs>
     <path d="M 0 1.5 
C 0.397805 1.5 0.77937 1.341951 1.06066 1.06066 
C 1.341951 0.77937 1.5 0.397805 1.5 0 
C 1.5 -0.397805 1.341951 -0.77937 1.06066 -1.06066 
C 0.77937 -1.341951 0.397805 -1.5 0 -1.5 
C -0.397805 -1.5 -0.77937 -1.341951 -1.06066 -1.06066 
C -1.341951 -0.77937 -1.5 -0.397805 -1.5 0 
C -1.5 0.397805 -1.341951 0.77937 -1.06066 1.06066 
C -0.77937 1.341951 -0.397805 1.5 0 1.5 
z
" id="m1d5f34915b" style="stroke:#000080;"/>
    </defs>
    <g>
     <use style="fill:#000080;stroke:#000080;" x="404.844862" xlink:href="#m1d5f34915b" y="145.348752"/>
     <use style="fill:#000080;stroke:#000080;" x="404.844862" xlink:href="#m1d5f34915b" y="145.348752"/>
    </g>
   </g>
   <g id="line2d_23">
    <path d="M -1 280.136419 
L 15.383411 280.136419 
L 15.383411 270.732628 
L 39.158561 270.732628 
L 39.158561 262.373703 
L 57.6 262.373703 
L 57.6 255.059644 
L 72.667753 255.059644 
L 72.667753 254.014778 
L 85.407356 254.014778 
L 85.407356 247.745584 
L 96.442903 247.745584 
L 96.442903 246.700719 
L 106.176945 246.700719 
L 106.176945 233.117465 
L 114.884342 233.117465 
L 114.884342 231.027734 
L 122.761141 231.027734 
L 122.761141 228.938003 
L 129.952095 228.938003 
L 129.952095 226.848272 
L 142.691699 226.848272 
L 142.691699 222.668809 
L 153.727245 222.668809 
L 153.727245 221.623943 
L 158.737497 221.623943 
L 158.737497 220.579078 
L 163.461287 220.579078 
L 163.461287 219.534212 
L 172.168684 219.534212 
L 172.168684 216.399615 
L 176.200891 216.399615 
L 176.200891 213.265018 
L 183.719147 213.265018 
L 183.719147 212.220153 
L 190.610124 212.220153 
L 190.610124 210.130421 
L 193.851474 210.130421 
L 193.851474 209.085556 
L 199.976041 209.085556 
L 199.976041 208.04069 
L 211.011587 208.04069 
L 211.011587 206.995825 
L 216.021839 206.995825 
L 216.021839 204.906093 
L 218.41748 204.906093 
L 218.41748 203.861228 
L 220.745629 203.861228 
L 220.745629 202.816362 
L 223.009986 202.816362 
L 223.009986 201.771496 
L 227.360666 201.771496 
L 227.360666 199.681765 
L 231.493719 199.681765 
L 231.493719 198.6369 
L 233.485233 198.6369 
L 233.485233 195.502303 
L 252.710032 195.502303 
L 252.710032 194.457437 
L 262.962219 194.457437 
L 262.962219 193.412571 
L 278.029972 193.412571 
L 278.029972 192.367706 
L 279.169905 192.367706 
L 279.169905 190.277975 
L 284.645008 190.277975 
L 284.645008 185.053646 
L 286.737369 185.053646 
L 286.737369 184.008781 
L 288.778061 184.008781 
L 288.778061 182.963915 
L 292.714226 182.963915 
L 292.714226 181.91905 
L 294.614168 181.91905 
L 294.614168 180.874184 
L 295.548006 180.874184 
L 295.548006 179.829318 
L 296.471411 179.829318 
L 296.471411 177.739587 
L 306.001141 177.739587 
L 306.001141 176.694721 
L 310.770378 176.694721 
L 310.770378 175.649856 
L 321.612606 175.649856 
L 321.612606 174.60499 
L 323.620247 174.60499 
L 323.620247 173.560124 
L 324.932082 173.560124 
L 324.932082 170.425528 
L 329.366148 170.425528 
L 329.366148 169.380662 
L 335.314314 169.380662 
L 335.314314 168.335796 
L 338.135196 168.335796 
L 338.135196 167.290931 
L 338.688 167.290931 
" style="fill:none;stroke:#000080;stroke-linecap:square;stroke-width:1.5;"/>
   </g>
   <g id="line2d_24">
    <defs>
     <path d="M 0 6 
C 1.591219 6 3.117479 5.367802 4.242641 4.242641 
C 5.367802 3.117479 6 1.591219 6 0 
C 6 -1.591219 5.367802 -3.117479 4.242641 -4.242641 
C 3.117479 -5.367802 1.591219 -6 0 -6 
C -1.591219 -6 -3.117479 -5.367802 -4.242641 -4.242641 
C -5.367802 -3.117479 -6 -1.591219 -6 0 
C -6 1.591219 -5.367802 3.117479 -4.242641 4.242641 
C -3.117479 5.367802 -1.591219 6 0 6 
z
" id="m9932ad01b0" style="stroke:#000080;stroke-width:1.5;"/>
    </defs>
    <g>
     <use style="fill-opacity:0;stroke:#000080;stroke-width:1.5;" x="96.442903" xlink:href="#m9932ad01b0" y="246.700719"/>
     <use style="fill-opacity:0;stroke:#000080;stroke-width:1.5;" x="129.952095" xlink:href="#m9932ad01b0" y="226.848272"/>
     <use style="fill-opacity:0;stroke:#000080;stroke-width:1.5;" x="216.021839" xlink:href="#m9932ad01b0" y="206.995825"/>
     <use style="fill-opacity:0;stroke:#000080;stroke-width:1.5;" x="262.962219" xlink:href="#m9932ad01b0" y="194.457437"/>
     <use style="fill-opacity:0;stroke:#000080;stroke-width:1.5;" x="324.932082" xlink:href="#m9932ad01b0" y="170.425528"/>
     <use style="fill-opacity:0;stroke:#000080;stroke-width:1.5;" x="338.135196" xlink:href="#m9932ad01b0" y="167.290931"/>
     <use style="fill-opacity:0;stroke:#000080;stroke-width:1.5;" x="338.688" xlink:href="#m9932ad01b0" y="167.290931"/>
    </g>
   </g>
   <g id="line2d_25">
    <path style="fill:none;stroke:#000080;stroke-linecap:square;stroke-width:1.5;"/>
    <g/>
   </g>
   <g id="line2d_26">
    <path clip-path="url(#p98b0d297fd)" d="M 338.688 167.290931 
" style="fill:none;stroke:#000080;stroke-linecap:square;stroke-width:1.5;"/>
    <defs>
     <path d="M -12 12 
L 12 -12 
M -12 -12 
L 12 12 
" id="me6972e4232" style="stroke:#000080;"/>
    </defs>
    <g clip-path="url(#p98b0d297fd)">
     <use style="fill:#000080;stroke:#000080;" x="338.688" xlink:href="#me6972e4232" y="167.290931"/>
    </g>
   </g>
   <g id="line2d_27">
    <defs>
     <path d="M 0 1.5 
C 0.397805 1.5 0.77937 1.341951 1.06066 1.06066 
C 1.341951 0.77937 1.5 0.397805 1.5 0 
C 1.5 -0.397805 1.341951 -0.77937 1.06066 -1.06066 
C 0.77937 -1.341951 0.397805 -1.5 0 -1.5 
C -0.397805 -1.5 -0.77937 -1.341951 -1.06066 -1.06066 
C -1.341951 -0.77937 -1.5 -0.397805 -1.5 0 
C -1.5 0.397805 -1.341951 0.77937 -1.06066 1.06066 
C -0.77937 1.341951 -0.397805 1.5 0 1.5 
z
" id="mc8d7f71635" style="stroke:#ff00ff;"/>
    </defs>
    <g>
     <use style="fill:#ff00ff;stroke:#ff00ff;" x="395.972342" xlink:href="#mc8d7f71635" y="49.221115"/>
     <use style="fill:#ff00ff;stroke:#ff00ff;" x="395.972342" xlink:href="#mc8d7f71635" y="49.221115"/>
    </g>
   </g>
   <g id="line2d_28">
    <path d="M -1 281.181284 
L 15.383411 281.181284 
L 15.383411 256.104509 
L 39.158561 256.104509 
L 39.158561 251.925047 
L 57.6 251.925047 
L 57.6 242.521256 
L 72.667753 242.521256 
L 72.667753 239.386659 
L 85.407356 239.386659 
L 85.407356 231.027734 
L 96.442903 231.027734 
L 96.442903 227.893137 
L 106.176945 227.893137 
L 106.176945 221.623943 
L 114.884342 221.623943 
L 114.884342 220.579078 
L 122.761141 220.579078 
L 122.761141 218.489347 
L 129.952095 218.489347 
L 129.952095 217.444481 
L 136.567132 217.444481 
L 136.567132 216.399615 
L 142.691699 216.399615 
L 142.691699 215.35475 
L 153.727245 215.35475 
L 153.727245 212.220153 
L 167.92961 212.220153 
L 167.92961 211.175287 
L 176.200891 211.175287 
L 176.200891 208.04069 
L 190.610124 208.04069 
L 190.610124 206.995825 
L 193.851474 206.995825 
L 193.851474 205.950959 
L 196.970479 205.950959 
L 196.970479 204.906093 
L 202.876122 204.906093 
L 202.876122 203.861228 
L 208.387753 203.861228 
L 208.387753 202.816362 
L 216.021839 202.816362 
L 216.021839 201.771496 
L 220.745629 201.771496 
L 220.745629 198.6369 
L 223.009986 198.6369 
L 223.009986 196.547168 
L 227.360666 196.547168 
L 227.360666 175.649856 
L 229.453027 175.649856 
L 229.453027 165.201199 
L 231.493719 165.201199 
L 231.493719 162.066603 
L 233.485233 162.066603 
L 233.485233 150.573081 
L 235.429884 150.573081 
L 235.429884 145.348752 
L 237.329825 145.348752 
L 237.329825 135.944962 
L 239.187069 135.944962 
L 239.187069 132.810365 
L 241.00349 132.810365 
L 241.00349 131.765499 
L 244.52078 131.765499 
L 244.52078 128.630902 
L 247.894466 128.630902 
L 247.894466 126.541171 
L 249.531031 126.541171 
L 249.531031 122.361709 
L 251.135816 122.361709 
L 251.135816 121.316843 
L 254.254821 121.316843 
L 254.254821 120.271977 
L 255.771265 120.271977 
L 255.771265 119.227112 
L 257.260383 119.227112 
L 257.260383 118.182246 
L 261.573214 118.182246 
L 261.573214 116.092515 
L 262.962219 116.092515 
L 262.962219 114.002784 
L 264.328264 114.002784 
L 264.328264 108.778455 
L 269.577255 108.778455 
L 269.577255 106.688724 
L 270.839018 106.688724 
L 270.839018 104.598993 
L 272.081805 104.598993 
L 272.081805 102.509262 
L 273.306181 102.509262 
L 273.306181 101.464396 
L 274.512682 101.464396 
L 274.512682 100.41953 
L 275.701822 100.41953 
L 275.701822 99.374665 
L 279.169905 99.374665 
L 279.169905 98.329799 
L 280.294328 98.329799 
L 280.294328 95.195202 
L 283.578621 95.195202 
L 283.578621 94.150337 
L 285.69781 94.150337 
L 285.69781 93.105471 
L 287.764013 93.105471 
L 287.764013 92.060605 
L 291.74762 92.060605 
L 291.74762 91.01574 
L 292.714226 91.01574 
L 292.714226 89.970874 
L 293.669656 89.970874 
L 293.669656 86.836277 
L 294.614168 86.836277 
L 294.614168 84.746546 
L 295.548006 84.746546 
L 295.548006 81.611949 
L 296.471411 81.611949 
L 296.471411 80.567083 
L 299.181287 80.567083 
L 299.181287 79.522218 
L 302.661542 79.522218 
L 302.661542 77.432487 
L 306.001141 77.432487 
L 306.001141 76.387621 
L 307.621661 76.387621 
L 307.621661 75.342755 
L 308.420158 75.342755 
L 308.420158 74.29789 
L 309.994374 74.29789 
L 309.994374 73.253024 
L 311.539164 73.253024 
L 311.539164 72.208158 
L 312.300863 72.208158 
L 312.300863 71.163293 
L 316.729271 71.163293 
L 316.729271 70.118427 
L 320.932406 70.118427 
L 320.932406 68.028696 
L 321.612606 68.028696 
L 321.612606 66.98383 
L 323.620247 66.98383 
L 323.620247 65.938965 
L 326.223418 65.938965 
L 326.223418 64.894099 
L 327.494886 64.894099 
L 327.494886 63.849233 
L 332.986164 63.849233 
L 332.986164 62.804368 
L 334.738396 62.804368 
L 334.738396 61.759502 
L 337.57867 61.759502 
L 337.57867 60.714636 
L 338.688 60.714636 
L 338.688 59.669771 
L 338.688 59.669771 
" style="fill:none;stroke:#ff00ff;stroke-linecap:square;stroke-width:1.5;"/>
   </g>
   <g id="line2d_29">
    <defs>
     <path d="M -0 8.485281 
L 5.091169 0 
L 0 -8.485281 
L -5.091169 -0 
z
" id="m20f1853c6d" style="stroke:#ff00ff;stroke-linejoin:miter;stroke-width:1.5;"/>
    </defs>
    <g>
     <use style="fill-opacity:0;stroke:#ff00ff;stroke-linejoin:miter;stroke-width:1.5;" x="72.667753" xlink:href="#m20f1853c6d" y="242.521256"/>
     <use style="fill-opacity:0;stroke:#ff00ff;stroke-linejoin:miter;stroke-width:1.5;" x="129.952095" xlink:href="#m20f1853c6d" y="217.444481"/>
     <use style="fill-opacity:0;stroke:#ff00ff;stroke-linejoin:miter;stroke-width:1.5;" x="202.876122" xlink:href="#m20f1853c6d" y="204.906093"/>
     <use style="fill-opacity:0;stroke:#ff00ff;stroke-linejoin:miter;stroke-width:1.5;" x="247.894466" xlink:href="#m20f1853c6d" y="126.541171"/>
     <use style="fill-opacity:0;stroke:#ff00ff;stroke-linejoin:miter;stroke-width:1.5;" x="299.181287" xlink:href="#m20f1853c6d" y="80.567083"/>
     <use style="fill-opacity:0;stroke:#ff00ff;stroke-linejoin:miter;stroke-width:1.5;" x="338.688" xlink:href="#m20f1853c6d" y="60.714636"/>
     <use style="fill-opacity:0;stroke:#ff00ff;stroke-linejoin:miter;stroke-width:1.5;" x="338.688" xlink:href="#m20f1853c6d" y="60.714636"/>
     <use style="fill-opacity:0;stroke:#ff00ff;stroke-linejoin:miter;stroke-width:1.5;" x="338.688" xlink:href="#m20f1853c6d" y="59.669771"/>
    </g>
   </g>
   <g id="line2d_30">
    <path style="fill:none;stroke:#ff00ff;stroke-linecap:square;stroke-width:1.5;"/>
    <g/>
   </g>
   <g id="line2d_31">
    <path clip-path="url(#p98b0d297fd)" d="M 338.688 59.669771 
" style="fill:none;stroke:#ff00ff;stroke-linecap:square;stroke-width:1.5;"/>
    <defs>
     <path d="M -12 12 
L 12 -12 
M -12 -12 
L 12 12 
" id="m439e64abed" style="stroke:#ff00ff;"/>
    </defs>
    <g clip-path="url(#p98b0d297fd)">
     <use style="fill:#ff00ff;stroke:#ff00ff;" x="338.688" xlink:href="#m439e64abed" y="59.669771"/>
    </g>
   </g>
   <g id="line2d_32">
    <defs>
     <path d="M 0 1.5 
C 0.397805 1.5 0.77937 1.341951 1.06066 1.06066 
C 1.341951 0.77937 1.5 0.397805 1.5 0 
C 1.5 -0.397805 1.341951 -0.77937 1.06066 -1.06066 
C 0.77937 -1.341951 0.397805 -1.5 0 -1.5 
C -0.397805 -1.5 -0.77937 -1.341951 -1.06066 -1.06066 
C -1.341951 -0.77937 -1.5 -0.397805 -1.5 0 
C -1.5 0.397805 -1.341951 0.77937 -1.06066 1.06066 
C -0.77937 1.341951 -0.397805 1.5 0 1.5 
z
" id="m210c398fa8" style="stroke:#ff7500;"/>
    </defs>
    <g>
     <use style="fill:#ff7500;stroke:#ff7500;" x="403.598325" xlink:href="#m210c398fa8" y="45.041652"/>
     <use style="fill:#ff7500;stroke:#ff7500;" x="403.598325" xlink:href="#m210c398fa8" y="45.041652"/>
    </g>
   </g>
   <g id="line2d_33">
    <path d="M -1 273.867225 
L 15.383411 273.867225 
L 15.383411 265.5083 
L 39.158561 265.5083 
L 39.158561 261.328837 
L 57.6 261.328837 
L 57.6 248.79045 
L 72.667753 248.79045 
L 72.667753 239.386659 
L 85.407356 239.386659 
L 85.407356 232.0726 
L 96.442903 232.0726 
L 96.442903 227.893137 
L 106.176945 227.893137 
L 106.176945 225.803406 
L 114.884342 225.803406 
L 114.884342 221.623943 
L 122.761141 221.623943 
L 122.761141 216.399615 
L 129.952095 216.399615 
L 129.952095 212.220153 
L 136.567132 212.220153 
L 136.567132 206.995825 
L 142.691699 206.995825 
L 142.691699 203.861228 
L 148.393534 203.861228 
L 148.393534 199.681765 
L 153.727245 199.681765 
L 153.727245 198.6369 
L 163.461287 198.6369 
L 163.461287 193.412571 
L 167.92961 193.412571 
L 167.92961 187.143378 
L 172.168684 187.143378 
L 172.168684 181.91905 
L 176.200891 181.91905 
L 176.200891 176.694721 
L 180.045483 176.694721 
L 180.045483 172.515259 
L 183.719147 172.515259 
L 183.719147 171.470393 
L 187.236437 171.470393 
L 187.236437 170.425528 
L 190.610124 170.425528 
L 190.610124 165.201199 
L 193.851474 165.201199 
L 193.851474 161.021737 
L 196.970479 161.021737 
L 196.970479 156.842274 
L 199.976041 156.842274 
L 199.976041 153.707678 
L 202.876122 153.707678 
L 202.876122 151.617946 
L 205.677876 151.617946 
L 205.677876 146.393618 
L 208.387753 146.393618 
L 208.387753 145.348752 
L 211.011587 145.348752 
L 211.011587 141.16929 
L 213.554675 141.16929 
L 213.554675 135.944962 
L 216.021839 135.944962 
L 216.021839 133.855231 
L 218.41748 133.855231 
L 218.41748 130.720634 
L 220.745629 130.720634 
L 220.745629 127.586037 
L 223.009986 127.586037 
L 223.009986 125.496306 
L 225.213952 125.496306 
L 225.213952 123.406574 
L 227.360666 123.406574 
L 227.360666 119.227112 
L 229.453027 119.227112 
L 229.453027 118.182246 
L 231.493719 118.182246 
L 231.493719 117.13738 
L 233.485233 117.13738 
L 233.485233 116.092515 
L 235.429884 116.092515 
L 235.429884 115.047649 
L 242.780845 115.047649 
L 242.780845 114.002784 
L 246.224837 114.002784 
L 246.224837 110.868187 
L 251.135816 110.868187 
L 251.135816 109.823321 
L 254.254821 109.823321 
L 254.254821 104.598993 
L 255.771265 104.598993 
L 255.771265 103.554127 
L 257.260383 103.554127 
L 257.260383 102.509262 
L 258.723144 102.509262 
L 258.723144 101.464396 
L 264.328264 101.464396 
L 264.328264 100.41953 
L 275.701822 100.41953 
L 275.701822 99.374665 
L 276.874095 99.374665 
L 276.874095 96.240068 
L 278.029972 96.240068 
L 278.029972 95.195202 
L 282.498294 95.195202 
L 282.498294 94.150337 
L 284.645008 94.150337 
L 284.645008 93.105471 
L 287.764013 93.105471 
L 287.764013 91.01574 
L 289.779817 91.01574 
L 289.779817 88.926008 
L 290.769575 88.926008 
L 290.769575 87.881143 
L 292.714226 87.881143 
L 292.714226 86.836277 
L 295.548006 86.836277 
L 295.548006 84.746546 
L 299.181287 84.746546 
L 299.181287 83.70168 
L 301.805122 83.70168 
L 301.805122 82.656815 
L 303.509179 82.656815 
L 303.509179 81.611949 
L 307.621661 81.611949 
L 307.621661 79.522218 
L 311.539164 79.522218 
L 311.539164 78.477352 
L 318.857556 78.477352 
L 318.857556 77.432487 
L 321.612606 77.432487 
L 321.612606 76.387621 
L 322.287253 76.387621 
L 322.287253 75.342755 
L 325.580272 75.342755 
L 325.580272 71.163293 
L 329.366148 71.163293 
L 329.366148 70.118427 
L 331.797024 70.118427 
L 331.797024 69.073562 
L 333.574379 69.073562 
L 333.574379 68.028696 
L 334.158437 68.028696 
L 334.158437 66.98383 
L 334.738396 66.98383 
L 334.738396 65.938965 
L 335.314314 65.938965 
L 335.314314 64.894099 
L 335.886246 64.894099 
L 335.886246 63.849233 
L 338.688 63.849233 
L 338.688 62.804368 
L 338.688 62.804368 
" style="fill:none;stroke:#ff7500;stroke-linecap:square;stroke-width:1.5;"/>
   </g>
   <g id="line2d_34">
    <defs>
     <path d="M 0 -6 
L -1.347084 -1.854102 
L -5.706339 -1.854102 
L -2.179628 0.708204 
L -3.526712 4.854102 
L -0 2.291796 
L 3.526712 4.854102 
L 2.179628 0.708204 
L 5.706339 -1.854102 
L 1.347084 -1.854102 
z
" id="mae5d4847e3" style="stroke:#ff7500;stroke-linejoin:bevel;stroke-width:1.5;"/>
    </defs>
    <g>
     <use style="fill-opacity:0;stroke:#ff7500;stroke-linejoin:bevel;stroke-width:1.5;" x="72.667753" xlink:href="#mae5d4847e3" y="239.386659"/>
     <use style="fill-opacity:0;stroke:#ff7500;stroke-linejoin:bevel;stroke-width:1.5;" x="122.761141" xlink:href="#mae5d4847e3" y="216.399615"/>
     <use style="fill-opacity:0;stroke:#ff7500;stroke-linejoin:bevel;stroke-width:1.5;" x="196.970479" xlink:href="#mae5d4847e3" y="161.021737"/>
     <use style="fill-opacity:0;stroke:#ff7500;stroke-linejoin:bevel;stroke-width:1.5;" x="233.485233" xlink:href="#mae5d4847e3" y="116.092515"/>
     <use style="fill-opacity:0;stroke:#ff7500;stroke-linejoin:bevel;stroke-width:1.5;" x="299.181287" xlink:href="#mae5d4847e3" y="83.70168"/>
     <use style="fill-opacity:0;stroke:#ff7500;stroke-linejoin:bevel;stroke-width:1.5;" x="338.688" xlink:href="#mae5d4847e3" y="63.849233"/>
     <use style="fill-opacity:0;stroke:#ff7500;stroke-linejoin:bevel;stroke-width:1.5;" x="338.688" xlink:href="#mae5d4847e3" y="63.849233"/>
     <use style="fill-opacity:0;stroke:#ff7500;stroke-linejoin:bevel;stroke-width:1.5;" x="338.688" xlink:href="#mae5d4847e3" y="62.804368"/>
    </g>
   </g>
   <g id="line2d_35">
    <path style="fill:none;stroke:#ff7500;stroke-linecap:square;stroke-width:1.5;"/>
    <g/>
   </g>
   <g id="line2d_36">
    <path clip-path="url(#p98b0d297fd)" d="M 338.688 62.804368 
" style="fill:none;stroke:#ff7500;stroke-linecap:square;stroke-width:1.5;"/>
    <defs>
     <path d="M -12 12 
L 12 -12 
M -12 -12 
L 12 12 
" id="me5a535f457" style="stroke:#ff7500;"/>
    </defs>
    <g clip-path="url(#p98b0d297fd)">
     <use style="fill:#ff7500;stroke:#ff7500;" x="338.688" xlink:href="#me5a535f457" y="62.804368"/>
    </g>
   </g>
   <g id="line2d_37">
    <defs>
     <path d="M 0 1.5 
C 0.397805 1.5 0.77937 1.341951 1.06066 1.06066 
C 1.341951 0.77937 1.5 0.397805 1.5 0 
C 1.5 -0.397805 1.341951 -0.77937 1.06066 -1.06066 
C 0.77937 -1.341951 0.397805 -1.5 0 -1.5 
C -0.397805 -1.5 -0.77937 -1.341951 -1.06066 -1.06066 
C -1.341951 -0.77937 -1.5 -0.397805 -1.5 0 
C -1.5 0.397805 -1.341951 0.77937 -1.06066 1.06066 
C -0.77937 1.341951 -0.397805 1.5 0 1.5 
z
" id="m2f7dcbfa61" style="stroke:#6495ed;"/>
    </defs>
    <g>
     <use style="fill:#6495ed;stroke:#6495ed;" x="394.583337" xlink:href="#m2f7dcbfa61" y="77.432487"/>
     <use style="fill:#6495ed;stroke:#6495ed;" x="394.583337" xlink:href="#m2f7dcbfa61" y="77.432487"/>
    </g>
   </g>
   <g id="line2d_38">
    <path d="M -1 277.001822 
L 15.383411 277.001822 
L 15.383411 270.732628 
L 39.158561 270.732628 
L 39.158561 262.373703 
L 57.6 262.373703 
L 57.6 260.283972 
L 72.667753 260.283972 
L 72.667753 257.149375 
L 85.407356 257.149375 
L 85.407356 250.880181 
L 96.442903 250.880181 
L 96.442903 245.655853 
L 106.176945 245.655853 
L 106.176945 243.566122 
L 114.884342 243.566122 
L 114.884342 240.431525 
L 122.761141 240.431525 
L 122.761141 238.341793 
L 129.952095 238.341793 
L 129.952095 236.252062 
L 136.567132 236.252062 
L 136.567132 235.207197 
L 142.691699 235.207197 
L 142.691699 229.982868 
L 148.393534 229.982868 
L 148.393534 228.938003 
L 163.461287 228.938003 
L 163.461287 227.893137 
L 172.168684 227.893137 
L 172.168684 226.848272 
L 176.200891 226.848272 
L 176.200891 224.75854 
L 180.045483 224.75854 
L 180.045483 223.713675 
L 187.236437 223.713675 
L 187.236437 220.579078 
L 190.610124 220.579078 
L 190.610124 217.444481 
L 199.976041 217.444481 
L 199.976041 216.399615 
L 208.387753 216.399615 
L 208.387753 215.35475 
L 213.554675 215.35475 
L 213.554675 213.265018 
L 227.360666 213.265018 
L 227.360666 212.220153 
L 229.453027 212.220153 
L 229.453027 211.175287 
L 235.429884 211.175287 
L 235.429884 210.130421 
L 237.329825 210.130421 
L 237.329825 209.085556 
L 239.187069 209.085556 
L 239.187069 206.995825 
L 241.00349 206.995825 
L 241.00349 204.906093 
L 249.531031 204.906093 
L 249.531031 202.816362 
L 251.135816 202.816362 
L 251.135816 201.771496 
L 252.710032 201.771496 
L 252.710032 197.592034 
L 254.254821 197.592034 
L 254.254821 195.502303 
L 258.723144 195.502303 
L 258.723144 194.457437 
L 260.160464 194.457437 
L 260.160464 193.412571 
L 262.962219 193.412571 
L 262.962219 192.367706 
L 264.328264 192.367706 
L 264.328264 191.32284 
L 268.29593 191.32284 
L 268.29593 190.277975 
L 270.839018 190.277975 
L 270.839018 189.233109 
L 275.701822 189.233109 
L 275.701822 188.188243 
L 278.029972 188.188243 
L 278.029972 187.143378 
L 288.778061 187.143378 
L 288.778061 185.053646 
L 292.714226 185.053646 
L 292.714226 184.008781 
L 296.471411 184.008781 
L 296.471411 182.963915 
L 306.001141 182.963915 
L 306.001141 164.156334 
L 306.815373 164.156334 
L 306.815373 156.842274 
L 307.621661 156.842274 
L 307.621661 151.617946 
L 308.420158 151.617946 
L 308.420158 148.483349 
L 309.211014 148.483349 
L 309.211014 147.438484 
L 309.994374 147.438484 
L 309.994374 146.393618 
L 310.770378 146.393618 
L 310.770378 145.348752 
L 311.539164 145.348752 
L 311.539164 142.214156 
L 312.300863 142.214156 
L 312.300863 133.855231 
L 313.80352 133.855231 
L 313.80352 132.810365 
L 314.544725 132.810365 
L 314.544725 131.765499 
L 316.007486 131.765499 
L 316.007486 129.675768 
L 317.444807 129.675768 
L 317.444807 127.586037 
L 318.1542 127.586037 
L 318.1542 126.541171 
L 318.857556 126.541171 
L 318.857556 125.496306 
L 319.554977 125.496306 
L 319.554977 123.406574 
L 320.246561 123.406574 
L 320.246561 122.361709 
L 320.932406 122.361709 
L 320.932406 121.316843 
L 322.956438 121.316843 
L 322.956438 118.182246 
L 323.620247 118.182246 
L 323.620247 117.13738 
L 324.278767 117.13738 
L 324.278767 115.047649 
L 324.932082 115.047649 
L 324.932082 112.957918 
L 326.223418 112.957918 
L 326.223418 110.868187 
L 326.861597 110.868187 
L 326.861597 108.778455 
L 328.74709 108.778455 
L 328.74709 106.688724 
L 329.366148 106.688724 
L 329.366148 104.598993 
L 329.980603 104.598993 
L 329.980603 102.509262 
L 330.590523 102.509262 
L 330.590523 101.464396 
L 331.195975 101.464396 
L 331.195975 100.41953 
L 333.574379 100.41953 
L 333.574379 96.240068 
L 334.738396 96.240068 
L 334.738396 95.195202 
L 335.314314 95.195202 
L 335.314314 94.150337 
L 335.886246 94.150337 
L 335.886246 91.01574 
L 336.454247 91.01574 
L 336.454247 89.970874 
L 337.018371 89.970874 
L 337.018371 87.881143 
L 338.688 87.881143 
L 338.688 86.836277 
L 338.688 86.836277 
" style="fill:none;stroke:#6495ed;stroke-linecap:square;stroke-width:1.5;"/>
   </g>
   <g id="line2d_39">
    <defs>
     <path d="M -0 6 
L 6 -6 
L -6 -6 
z
" id="me5741bef9d" style="stroke:#6495ed;stroke-linejoin:miter;stroke-width:1.5;"/>
    </defs>
    <g>
     <use style="fill-opacity:0;stroke:#6495ed;stroke-linejoin:miter;stroke-width:1.5;" x="114.884342" xlink:href="#me5741bef9d" y="243.566122"/>
     <use style="fill-opacity:0;stroke:#6495ed;stroke-linejoin:miter;stroke-width:1.5;" x="187.236437" xlink:href="#me5741bef9d" y="220.579078"/>
     <use style="fill-opacity:0;stroke:#6495ed;stroke-linejoin:miter;stroke-width:1.5;" x="254.254821" xlink:href="#me5741bef9d" y="197.592034"/>
     <use style="fill-opacity:0;stroke:#6495ed;stroke-linejoin:miter;stroke-width:1.5;" x="306.815373" xlink:href="#me5741bef9d" y="164.156334"/>
     <use style="fill-opacity:0;stroke:#6495ed;stroke-linejoin:miter;stroke-width:1.5;" x="338.688" xlink:href="#me5741bef9d" y="87.881143"/>
     <use style="fill-opacity:0;stroke:#6495ed;stroke-linejoin:miter;stroke-width:1.5;" x="338.688" xlink:href="#me5741bef9d" y="87.881143"/>
     <use style="fill-opacity:0;stroke:#6495ed;stroke-linejoin:miter;stroke-width:1.5;" x="338.688" xlink:href="#me5741bef9d" y="86.836277"/>
    </g>
   </g>
   <g id="line2d_40">
    <path style="fill:none;stroke:#6495ed;stroke-linecap:square;stroke-width:1.5;"/>
    <g/>
   </g>
   <g id="line2d_41">
    <path clip-path="url(#p98b0d297fd)" d="M 338.688 86.836277 
" style="fill:none;stroke:#6495ed;stroke-linecap:square;stroke-width:1.5;"/>
    <defs>
     <path d="M -12 12 
L 12 -12 
M -12 -12 
L 12 12 
" id="mb6dcc05c30" style="stroke:#6495ed;"/>
    </defs>
    <g clip-path="url(#p98b0d297fd)">
     <use style="fill:#6495ed;stroke:#6495ed;" x="338.688" xlink:href="#mb6dcc05c30" y="86.836277"/>
    </g>
   </g>
   <g id="line2d_42">
    <defs>
     <path d="M 0 1.5 
C 0.397805 1.5 0.77937 1.341951 1.06066 1.06066 
C 1.341951 0.77937 1.5 0.397805 1.5 0 
C 1.5 -0.397805 1.341951 -0.77937 1.06066 -1.06066 
C 0.77937 -1.341951 0.397805 -1.5 0 -1.5 
C -0.397805 -1.5 -0.77937 -1.341951 -1.06066 -1.06066 
C -1.341951 -0.77937 -1.5 -0.397805 -1.5 0 
C -1.5 0.397805 -1.341951 0.77937 -1.06066 1.06066 
C -0.77937 1.341951 -0.397805 1.5 0 1.5 
z
" id="m9507aef3c8" style="stroke:#ff0000;"/>
    </defs>
    <g>
     <use style="fill:#ff0000;stroke:#ff0000;" x="406.072876" xlink:href="#m9507aef3c8" y="84.746546"/>
     <use style="fill:#ff0000;stroke:#ff0000;" x="406.072876" xlink:href="#m9507aef3c8" y="84.746546"/>
    </g>
   </g>
   <g id="line2d_43">
    <path d="M -1 280.136419 
L 15.383411 280.136419 
L 15.383411 269.687762 
L 39.158561 269.687762 
L 39.158561 263.418569 
L 57.6 263.418569 
L 57.6 256.104509 
L 72.667753 256.104509 
L 72.667753 252.969912 
L 85.407356 252.969912 
L 85.407356 249.835315 
L 96.442903 249.835315 
L 96.442903 245.655853 
L 106.176945 245.655853 
L 106.176945 243.566122 
L 114.884342 243.566122 
L 114.884342 238.341793 
L 122.761141 238.341793 
L 122.761141 236.252062 
L 129.952095 236.252062 
L 129.952095 234.162331 
L 136.567132 234.162331 
L 136.567132 229.982868 
L 148.393534 229.982868 
L 148.393534 224.75854 
L 158.737497 224.75854 
L 158.737497 223.713675 
L 167.92961 223.713675 
L 167.92961 222.668809 
L 172.168684 222.668809 
L 172.168684 219.534212 
L 180.045483 219.534212 
L 180.045483 218.489347 
L 187.236437 218.489347 
L 187.236437 217.444481 
L 193.851474 217.444481 
L 193.851474 216.399615 
L 196.970479 216.399615 
L 196.970479 215.35475 
L 202.876122 215.35475 
L 202.876122 214.309884 
L 205.677876 214.309884 
L 205.677876 213.265018 
L 208.387753 213.265018 
L 208.387753 210.130421 
L 227.360666 210.130421 
L 227.360666 172.515259 
L 229.453027 172.515259 
L 229.453027 167.290931 
L 231.493719 167.290931 
L 231.493719 164.156334 
L 233.485233 164.156334 
L 233.485233 161.021737 
L 235.429884 161.021737 
L 235.429884 159.976871 
L 239.187069 159.976871 
L 239.187069 157.88714 
L 241.00349 157.88714 
L 241.00349 154.752543 
L 242.780845 154.752543 
L 242.780845 147.438484 
L 244.52078 147.438484 
L 244.52078 142.214156 
L 246.224837 142.214156 
L 246.224837 140.124424 
L 247.894466 140.124424 
L 247.894466 135.944962 
L 255.771265 135.944962 
L 255.771265 134.900096 
L 257.260383 134.900096 
L 257.260383 131.765499 
L 258.723144 131.765499 
L 258.723144 129.675768 
L 264.328264 129.675768 
L 264.328264 128.630902 
L 265.672095 128.630902 
L 265.672095 127.586037 
L 269.577255 127.586037 
L 269.577255 126.541171 
L 270.839018 126.541171 
L 270.839018 123.406574 
L 272.081805 123.406574 
L 272.081805 122.361709 
L 273.306181 122.361709 
L 273.306181 121.316843 
L 278.029972 121.316843 
L 278.029972 120.271977 
L 279.169905 120.271977 
L 279.169905 117.13738 
L 280.294328 117.13738 
L 280.294328 116.092515 
L 282.498294 116.092515 
L 282.498294 114.002784 
L 289.779817 114.002784 
L 289.779817 112.957918 
L 290.769575 112.957918 
L 290.769575 111.913052 
L 292.714226 111.913052 
L 292.714226 110.868187 
L 293.669656 110.868187 
L 293.669656 109.823321 
L 296.471411 109.823321 
L 296.471411 107.73359 
L 297.384612 107.73359 
L 297.384612 106.688724 
L 298.287832 106.688724 
L 298.287832 105.643859 
L 300.939733 105.643859 
L 300.939733 104.598993 
L 308.420158 104.598993 
L 308.420158 103.554127 
L 318.857556 103.554127 
L 318.857556 102.509262 
L 323.620247 102.509262 
L 323.620247 101.464396 
L 337.018371 101.464396 
L 337.018371 99.374665 
L 338.688 99.374665 
" style="fill:none;stroke:#ff0000;stroke-linecap:square;stroke-width:1.5;"/>
   </g>
   <g id="line2d_44">
    <defs>
     <path d="M 0 -6 
L -5.196152 -3 
L -5.196152 3 
L -0 6 
L 5.196152 3 
L 5.196152 -3 
z
" id="m827dc3d14b" style="stroke:#ff0000;stroke-linejoin:miter;stroke-width:1.5;"/>
    </defs>
    <g>
     <use style="fill-opacity:0;stroke:#ff0000;stroke-linejoin:miter;stroke-width:1.5;" x="122.761141" xlink:href="#m827dc3d14b" y="238.341793"/>
     <use style="fill-opacity:0;stroke:#ff0000;stroke-linejoin:miter;stroke-width:1.5;" x="196.970479" xlink:href="#m827dc3d14b" y="216.399615"/>
     <use style="fill-opacity:0;stroke:#ff0000;stroke-linejoin:miter;stroke-width:1.5;" x="227.360666" xlink:href="#m827dc3d14b" y="210.130421"/>
     <use style="fill-opacity:0;stroke:#ff0000;stroke-linejoin:miter;stroke-width:1.5;" x="269.577255" xlink:href="#m827dc3d14b" y="127.586037"/>
     <use style="fill-opacity:0;stroke:#ff0000;stroke-linejoin:miter;stroke-width:1.5;" x="337.018371" xlink:href="#m827dc3d14b" y="101.464396"/>
     <use style="fill-opacity:0;stroke:#ff0000;stroke-linejoin:miter;stroke-width:1.5;" x="337.018371" xlink:href="#m827dc3d14b" y="99.374665"/>
     <use style="fill-opacity:0;stroke:#ff0000;stroke-linejoin:miter;stroke-width:1.5;" x="338.688" xlink:href="#m827dc3d14b" y="99.374665"/>
    </g>
   </g>
   <g id="line2d_45">
    <path style="fill:none;stroke:#ff0000;stroke-linecap:square;stroke-width:1.5;"/>
    <g/>
   </g>
   <g id="line2d_46">
    <path clip-path="url(#p98b0d297fd)" d="M 338.688 99.374665 
" style="fill:none;stroke:#ff0000;stroke-linecap:square;stroke-width:1.5;"/>
    <defs>
     <path d="M -12 12 
L 12 -12 
M -12 -12 
L 12 12 
" id="m3f8cb56b65" style="stroke:#ff0000;"/>
    </defs>
    <g clip-path="url(#p98b0d297fd)">
     <use style="fill:#ff0000;stroke:#ff0000;" x="338.688" xlink:href="#m3f8cb56b65" y="99.374665"/>
    </g>
   </g>
   <g id="line2d_47">
    <defs>
     <path d="M 0 1.5 
C 0.397805 1.5 0.77937 1.341951 1.06066 1.06066 
C 1.341951 0.77937 1.5 0.397805 1.5 0 
C 1.5 -0.397805 1.341951 -0.77937 1.06066 -1.06066 
C 0.77937 -1.341951 0.397805 -1.5 0 -1.5 
C -0.397805 -1.5 -0.77937 -1.341951 -1.06066 -1.06066 
C -1.341951 -0.77937 -1.5 -0.397805 -1.5 0 
C -1.5 0.397805 -1.341951 0.77937 -1.06066 1.06066 
C -0.77937 1.341951 -0.397805 1.5 0 1.5 
z
" id="m390c628b7f" style="stroke:#9acd32;"/>
    </defs>
    <g>
     <use style="fill:#9acd32;stroke:#9acd32;" x="405.091929" xlink:href="#m390c628b7f" y="81.611949"/>
     <use style="fill:#9acd32;stroke:#9acd32;" x="405.091929" xlink:href="#m390c628b7f" y="81.611949"/>
    </g>
   </g>
   <g id="line2d_48">
    <path d="M -1 266.553165 
L 15.383411 266.553165 
L 15.383411 258.19424 
L 39.158561 258.19424 
L 39.158561 249.835315 
L 57.6 249.835315 
L 57.6 243.566122 
L 72.667753 243.566122 
L 72.667753 241.47639 
L 85.407356 241.47639 
L 85.407356 236.252062 
L 96.442903 236.252062 
L 96.442903 233.117465 
L 106.176945 233.117465 
L 106.176945 232.0726 
L 114.884342 232.0726 
L 114.884342 209.085556 
L 122.761141 209.085556 
L 122.761141 200.726631 
L 129.952095 200.726631 
L 129.952095 195.502303 
L 136.567132 195.502303 
L 136.567132 193.412571 
L 142.691699 193.412571 
L 142.691699 185.053646 
L 148.393534 185.053646 
L 148.393534 180.874184 
L 153.727245 180.874184 
L 153.727245 178.784453 
L 158.737497 178.784453 
L 158.737497 171.470393 
L 163.461287 171.470393 
L 163.461287 170.425528 
L 167.92961 170.425528 
L 167.92961 169.380662 
L 172.168684 169.380662 
L 172.168684 164.156334 
L 176.200891 164.156334 
L 176.200891 163.111468 
L 183.719147 163.111468 
L 183.719147 162.066603 
L 187.236437 162.066603 
L 187.236437 156.842274 
L 190.610124 156.842274 
L 190.610124 150.573081 
L 193.851474 150.573081 
L 193.851474 148.483349 
L 196.970479 148.483349 
L 196.970479 147.438484 
L 202.876122 147.438484 
L 202.876122 146.393618 
L 211.011587 146.393618 
L 211.011587 145.348752 
L 213.554675 145.348752 
L 213.554675 143.259021 
L 218.41748 143.259021 
L 218.41748 139.079559 
L 223.009986 139.079559 
L 223.009986 138.034693 
L 225.213952 138.034693 
L 225.213952 134.900096 
L 233.485233 134.900096 
L 233.485233 133.855231 
L 241.00349 133.855231 
L 241.00349 132.810365 
L 244.52078 132.810365 
L 244.52078 131.765499 
L 251.135816 131.765499 
L 251.135816 130.720634 
L 257.260383 130.720634 
L 257.260383 129.675768 
L 265.672095 129.675768 
L 265.672095 128.630902 
L 266.994425 128.630902 
L 266.994425 126.541171 
L 268.29593 126.541171 
L 268.29593 125.496306 
L 273.306181 125.496306 
L 273.306181 124.45144 
L 279.169905 124.45144 
L 279.169905 121.316843 
L 284.645008 121.316843 
L 284.645008 120.271977 
L 286.737369 120.271977 
L 286.737369 119.227112 
L 290.769575 119.227112 
L 290.769575 118.182246 
L 291.74762 118.182246 
L 291.74762 117.13738 
L 297.384612 117.13738 
L 297.384612 116.092515 
L 298.287832 116.092515 
L 298.287832 115.047649 
L 299.181287 115.047649 
L 299.181287 114.002784 
L 301.805122 114.002784 
L 301.805122 111.913052 
L 319.554977 111.913052 
L 319.554977 110.868187 
L 321.612606 110.868187 
L 321.612606 109.823321 
L 335.886246 109.823321 
L 335.886246 107.73359 
L 337.018371 107.73359 
L 337.018371 106.688724 
L 338.688 106.688724 
" style="fill:none;stroke:#9acd32;stroke-linecap:square;stroke-width:1.5;"/>
   </g>
   <g id="line2d_49">
    <defs>
     <path d="M 0 -6 
L -6 6 
L 6 6 
z
" id="m2b30204945" style="stroke:#9acd32;stroke-linejoin:miter;stroke-width:1.5;"/>
    </defs>
    <g>
     <use style="fill-opacity:0;stroke:#9acd32;stroke-linejoin:miter;stroke-width:1.5;" x="85.407356" xlink:href="#m2b30204945" y="236.252062"/>
     <use style="fill-opacity:0;stroke:#9acd32;stroke-linejoin:miter;stroke-width:1.5;" x="136.567132" xlink:href="#m2b30204945" y="193.412571"/>
     <use style="fill-opacity:0;stroke:#9acd32;stroke-linejoin:miter;stroke-width:1.5;" x="196.970479" xlink:href="#m2b30204945" y="147.438484"/>
     <use style="fill-opacity:0;stroke:#9acd32;stroke-linejoin:miter;stroke-width:1.5;" x="273.306181" xlink:href="#m2b30204945" y="124.45144"/>
     <use style="fill-opacity:0;stroke:#9acd32;stroke-linejoin:miter;stroke-width:1.5;" x="321.612606" xlink:href="#m2b30204945" y="109.823321"/>
     <use style="fill-opacity:0;stroke:#9acd32;stroke-linejoin:miter;stroke-width:1.5;" x="337.018371" xlink:href="#m2b30204945" y="106.688724"/>
     <use style="fill-opacity:0;stroke:#9acd32;stroke-linejoin:miter;stroke-width:1.5;" x="338.688" xlink:href="#m2b30204945" y="106.688724"/>
    </g>
   </g>
   <g id="line2d_50">
    <path style="fill:none;stroke:#9acd32;stroke-linecap:square;stroke-width:1.5;"/>
    <g/>
   </g>
   <g id="line2d_51">
    <path clip-path="url(#p98b0d297fd)" d="M 338.688 106.688724 
" style="fill:none;stroke:#9acd32;stroke-linecap:square;stroke-width:1.5;"/>
    <defs>
     <path d="M -12 12 
L 12 -12 
M -12 -12 
L 12 12 
" id="m495ed7564d" style="stroke:#9acd32;"/>
    </defs>
    <g clip-path="url(#p98b0d297fd)">
     <use style="fill:#9acd32;stroke:#9acd32;" x="338.688" xlink:href="#m495ed7564d" y="106.688724"/>
    </g>
   </g>
   <g id="line2d_52">
    <defs>
     <path d="M 0 1.5 
C 0.397805 1.5 0.77937 1.341951 1.06066 1.06066 
C 1.341951 0.77937 1.5 0.397805 1.5 0 
C 1.5 -0.397805 1.341951 -0.77937 1.06066 -1.06066 
C 0.77937 -1.341951 0.397805 -1.5 0 -1.5 
C -0.397805 -1.5 -0.77937 -1.341951 -1.06066 -1.06066 
C -1.341951 -0.77937 -1.5 -0.397805 -1.5 0 
C -1.5 0.397805 -1.341951 0.77937 -1.06066 1.06066 
C -0.77937 1.341951 -0.397805 1.5 0 1.5 
z
" id="m6bb98a9b31" style="stroke:#00bfbf;"/>
    </defs>
    <g>
     <use style="fill:#00bfbf;stroke:#00bfbf;" x="395.972342" xlink:href="#m6bb98a9b31" y="100.41953"/>
     <use style="fill:#00bfbf;stroke:#00bfbf;" x="395.972342" xlink:href="#m6bb98a9b31" y="100.41953"/>
    </g>
   </g>
   <g id="line2d_53">
    <path d="M -1 272.822359 
L 15.383411 272.822359 
L 15.383411 263.418569 
L 39.158561 263.418569 
L 39.158561 261.328837 
L 57.6 261.328837 
L 57.6 255.059644 
L 72.667753 255.059644 
L 72.667753 248.79045 
L 85.407356 248.79045 
L 85.407356 247.745584 
L 96.442903 247.745584 
L 96.442903 241.47639 
L 106.176945 241.47639 
L 106.176945 240.431525 
L 122.761141 240.431525 
L 122.761141 238.341793 
L 129.952095 238.341793 
L 129.952095 235.207197 
L 136.567132 235.207197 
L 136.567132 232.0726 
L 142.691699 232.0726 
L 142.691699 226.848272 
L 148.393534 226.848272 
L 148.393534 223.713675 
L 153.727245 223.713675 
L 153.727245 220.579078 
L 158.737497 220.579078 
L 158.737497 218.489347 
L 172.168684 218.489347 
L 172.168684 216.399615 
L 176.200891 216.399615 
L 176.200891 215.35475 
L 190.610124 215.35475 
L 190.610124 212.220153 
L 199.976041 212.220153 
L 199.976041 210.130421 
L 202.876122 210.130421 
L 202.876122 208.04069 
L 205.677876 208.04069 
L 205.677876 206.995825 
L 213.554675 206.995825 
L 213.554675 205.950959 
L 216.021839 205.950959 
L 216.021839 202.816362 
L 218.41748 202.816362 
L 218.41748 201.771496 
L 227.360666 201.771496 
L 227.360666 198.6369 
L 231.493719 198.6369 
L 231.493719 196.547168 
L 237.329825 196.547168 
L 237.329825 195.502303 
L 239.187069 195.502303 
L 239.187069 194.457437 
L 242.780845 194.457437 
L 242.780845 193.412571 
L 246.224837 193.412571 
L 246.224837 192.367706 
L 249.531031 192.367706 
L 249.531031 190.277975 
L 252.710032 190.277975 
L 252.710032 188.188243 
L 257.260383 188.188243 
L 257.260383 186.098512 
L 265.672095 186.098512 
L 265.672095 185.053646 
L 292.714226 185.053646 
L 292.714226 181.91905 
L 293.669656 181.91905 
L 293.669656 180.874184 
L 300.065187 180.874184 
L 300.065187 179.829318 
L 302.661542 179.829318 
L 302.661542 178.784453 
L 306.001141 178.784453 
L 306.001141 163.111468 
L 306.815373 163.111468 
L 306.815373 157.88714 
L 307.621661 157.88714 
L 307.621661 155.797409 
L 308.420158 155.797409 
L 308.420158 154.752543 
L 309.211014 154.752543 
L 309.211014 153.707678 
L 310.770378 153.707678 
L 310.770378 149.528215 
L 311.539164 149.528215 
L 311.539164 147.438484 
L 312.300863 147.438484 
L 312.300863 145.348752 
L 313.80352 145.348752 
L 313.80352 143.259021 
L 318.857556 143.259021 
L 318.857556 141.16929 
L 320.246561 141.16929 
L 320.246561 140.124424 
L 320.932406 140.124424 
L 320.932406 138.034693 
L 322.956438 138.034693 
L 322.956438 134.900096 
L 325.580272 134.900096 
L 325.580272 133.855231 
L 327.494886 133.855231 
L 327.494886 130.720634 
L 328.12336 130.720634 
L 328.12336 127.586037 
L 329.366148 127.586037 
L 329.366148 121.316843 
L 330.590523 121.316843 
L 330.590523 120.271977 
L 334.158437 120.271977 
L 334.158437 119.227112 
L 335.886246 119.227112 
L 335.886246 117.13738 
L 337.018371 117.13738 
L 337.018371 116.092515 
L 338.135196 116.092515 
L 338.135196 114.002784 
L 338.688 114.002784 
L 338.688 112.957918 
L 338.688 112.957918 
" style="fill:none;stroke:#00bfbf;stroke-linecap:square;stroke-width:1.5;"/>
   </g>
   <g id="line2d_54">
    <defs>
     <path d="M 0 -6 
L -5.706339 -1.854102 
L -3.526712 4.854102 
L 3.526712 4.854102 
L 5.706339 -1.854102 
z
" id="m855d6ce09d" style="stroke:#00bfbf;stroke-linejoin:miter;stroke-width:1.5;"/>
    </defs>
    <g>
     <use style="fill-opacity:0;stroke:#00bfbf;stroke-linejoin:miter;stroke-width:1.5;" x="96.442903" xlink:href="#m855d6ce09d" y="241.47639"/>
     <use style="fill-opacity:0;stroke:#00bfbf;stroke-linejoin:miter;stroke-width:1.5;" x="142.691699" xlink:href="#m855d6ce09d" y="226.848272"/>
     <use style="fill-opacity:0;stroke:#00bfbf;stroke-linejoin:miter;stroke-width:1.5;" x="213.554675" xlink:href="#m855d6ce09d" y="206.995825"/>
     <use style="fill-opacity:0;stroke:#00bfbf;stroke-linejoin:miter;stroke-width:1.5;" x="265.672095" xlink:href="#m855d6ce09d" y="186.098512"/>
     <use style="fill-opacity:0;stroke:#00bfbf;stroke-linejoin:miter;stroke-width:1.5;" x="320.932406" xlink:href="#m855d6ce09d" y="140.124424"/>
     <use style="fill-opacity:0;stroke:#00bfbf;stroke-linejoin:miter;stroke-width:1.5;" x="338.688" xlink:href="#m855d6ce09d" y="114.002784"/>
     <use style="fill-opacity:0;stroke:#00bfbf;stroke-linejoin:miter;stroke-width:1.5;" x="338.688" xlink:href="#m855d6ce09d" y="112.957918"/>
    </g>
   </g>
   <g id="line2d_55">
    <path style="fill:none;stroke:#00bfbf;stroke-linecap:square;stroke-width:1.5;"/>
    <g/>
   </g>
   <g id="line2d_56">
    <path clip-path="url(#p98b0d297fd)" d="M 338.688 112.957918 
" style="fill:none;stroke:#00bfbf;stroke-linecap:square;stroke-width:1.5;"/>
    <defs>
     <path d="M -12 12 
L 12 -12 
M -12 -12 
L 12 12 
" id="m980a7c4694" style="stroke:#00bfbf;"/>
    </defs>
    <g clip-path="url(#p98b0d297fd)">
     <use style="fill:#00bfbf;stroke:#00bfbf;" x="338.688" xlink:href="#m980a7c4694" y="112.957918"/>
    </g>
   </g>
   <g id="line2d_57">
    <path d="M 338.688 167.290931 
L 369.60768 293.092752 
" style="fill:none;stroke:#000080;stroke-linecap:square;stroke-width:1.5;"/>
    <g>
     <use style="fill-opacity:0;stroke:#000080;stroke-width:1.5;" x="338.688" xlink:href="#m9932ad01b0" y="167.290931"/>
     <use style="fill-opacity:0;stroke:#000080;stroke-width:1.5;" x="369.60768" xlink:href="#m9932ad01b0" y="293.092752"/>
    </g>
   </g>
   <g id="line2d_58">
    <path d="M 338.688 112.957918 
L 369.60768 252.969912 
" style="fill:none;stroke:#00bfbf;stroke-linecap:square;stroke-width:1.5;"/>
    <g>
     <use style="fill-opacity:0;stroke:#00bfbf;stroke-linejoin:miter;stroke-width:1.5;" x="338.688" xlink:href="#m855d6ce09d" y="112.957918"/>
     <use style="fill-opacity:0;stroke:#00bfbf;stroke-linejoin:miter;stroke-width:1.5;" x="369.60768" xlink:href="#m855d6ce09d" y="252.969912"/>
    </g>
   </g>
   <g id="line2d_59">
    <path d="M 338.688 106.688724 
L 369.60768 212.847072 
" style="fill:none;stroke:#9acd32;stroke-linecap:square;stroke-width:1.5;"/>
    <g>
     <use style="fill-opacity:0;stroke:#9acd32;stroke-linejoin:miter;stroke-width:1.5;" x="338.688" xlink:href="#m2b30204945" y="106.688724"/>
     <use style="fill-opacity:0;stroke:#9acd32;stroke-linejoin:miter;stroke-width:1.5;" x="369.60768" xlink:href="#m2b30204945" y="212.847072"/>
    </g>
   </g>
   <g id="line2d_60">
    <path d="M 338.688 99.374665 
L 369.60768 172.724232 
" style="fill:none;stroke:#ff0000;stroke-linecap:square;stroke-width:1.5;"/>
    <g>
     <use style="fill-opacity:0;stroke:#ff0000;stroke-linejoin:miter;stroke-width:1.5;" x="338.688" xlink:href="#m827dc3d14b" y="99.374665"/>
     <use style="fill-opacity:0;stroke:#ff0000;stroke-linejoin:miter;stroke-width:1.5;" x="369.60768" xlink:href="#m827dc3d14b" y="172.724232"/>
    </g>
   </g>
   <g id="line2d_61">
    <path d="M 338.688 86.836277 
L 369.60768 132.601392 
" style="fill:none;stroke:#6495ed;stroke-linecap:square;stroke-width:1.5;"/>
    <g>
     <use style="fill-opacity:0;stroke:#6495ed;stroke-linejoin:miter;stroke-width:1.5;" x="338.688" xlink:href="#me5741bef9d" y="86.836277"/>
     <use style="fill-opacity:0;stroke:#6495ed;stroke-linejoin:miter;stroke-width:1.5;" x="369.60768" xlink:href="#me5741bef9d" y="132.601392"/>
    </g>
   </g>
   <g id="line2d_62">
    <path d="M 338.688 62.804368 
L 369.60768 92.478552 
" style="fill:none;stroke:#ff7500;stroke-linecap:square;stroke-width:1.5;"/>
    <g>
     <use style="fill-opacity:0;stroke:#ff7500;stroke-linejoin:bevel;stroke-width:1.5;" x="338.688" xlink:href="#mae5d4847e3" y="62.804368"/>
     <use style="fill-opacity:0;stroke:#ff7500;stroke-linejoin:bevel;stroke-width:1.5;" x="369.60768" xlink:href="#mae5d4847e3" y="92.478552"/>
    </g>
   </g>
   <g id="line2d_63">
    <path d="M 338.688 59.669771 
L 369.60768 52.355711 
" style="fill:none;stroke:#ff00ff;stroke-linecap:square;stroke-width:1.5;"/>
    <g>
     <use style="fill-opacity:0;stroke:#ff00ff;stroke-linejoin:miter;stroke-width:1.5;" x="338.688" xlink:href="#m20f1853c6d" y="59.669771"/>
     <use style="fill-opacity:0;stroke:#ff00ff;stroke-linejoin:miter;stroke-width:1.5;" x="369.60768" xlink:href="#m20f1853c6d" y="52.355711"/>
    </g>
   </g>
   <g id="line2d_64">
    <path d="M 338.688 298.944 
L 338.688 6.381624 
" style="fill:none;stroke:#000000;stroke-linecap:square;stroke-width:1.5;"/>
   </g>
   <g id="patch_3">
    <path d="M 57.6 298.944 
L 57.6 3.456 
" style="fill:none;stroke:#000000;stroke-linecap:square;stroke-linejoin:miter;stroke-width:0.8;"/>
   </g>
   <g id="patch_4">
    <path d="M 338.688 298.944 
L 338.688 3.456 
" style="fill:none;stroke:#000000;stroke-linecap:square;stroke-linejoin:miter;stroke-width:0.8;"/>
   </g>
   <g id="patch_5">
    <path d="M 57.6 298.944 
L 338.688 298.944 
" style="fill:none;stroke:#000000;stroke-linecap:square;stroke-linejoin:miter;stroke-width:0.8;"/>
   </g>
   <g id="patch_6">
    <path d="M 57.6 3.456 
L 338.688 3.456 
" style="fill:none;stroke:#000000;stroke-linecap:square;stroke-linejoin:miter;stroke-width:0.8;"/>
   </g>
   <g id="text_10">
    <!-- random -->
    <g transform="translate(375.22944 297.78369)scale(0.17 -0.17)">
     <use xlink:href="#DejaVuSans-114"/>
     <use x="41.113281" xlink:href="#DejaVuSans-97"/>
     <use x="102.392578" xlink:href="#DejaVuSans-110"/>
     <use x="165.771484" xlink:href="#DejaVuSans-100"/>
     <use x="229.248047" xlink:href="#DejaVuSans-111"/>
     <use x="290.429688" xlink:href="#DejaVuSans-109"/>
    </g>
   </g>
   <g id="text_11">
    <!-- ScalL -->
    <g transform="translate(375.22944 257.66085)scale(0.17 -0.17)">
     <defs>
      <path d="M 53.515625 70.515625 
L 53.515625 60.890625 
Q 47.90625 63.578125 42.921875 64.890625 
Q 37.9375 66.21875 33.296875 66.21875 
Q 25.25 66.21875 20.875 63.09375 
Q 16.5 59.96875 16.5 54.203125 
Q 16.5 49.359375 19.40625 46.890625 
Q 22.3125 44.4375 30.421875 42.921875 
L 36.375 41.703125 
Q 47.40625 39.59375 52.65625 34.296875 
Q 57.90625 29 57.90625 20.125 
Q 57.90625 9.515625 50.796875 4.046875 
Q 43.703125 -1.421875 29.984375 -1.421875 
Q 24.8125 -1.421875 18.96875 -0.25 
Q 13.140625 0.921875 6.890625 3.21875 
L 6.890625 13.375 
Q 12.890625 10.015625 18.65625 8.296875 
Q 24.421875 6.59375 29.984375 6.59375 
Q 38.421875 6.59375 43.015625 9.90625 
Q 47.609375 13.234375 47.609375 19.390625 
Q 47.609375 24.75 44.3125 27.78125 
Q 41.015625 30.8125 33.5 32.328125 
L 27.484375 33.5 
Q 16.453125 35.6875 11.515625 40.375 
Q 6.59375 45.0625 6.59375 53.421875 
Q 6.59375 63.09375 13.40625 68.65625 
Q 20.21875 74.21875 32.171875 74.21875 
Q 37.3125 74.21875 42.625 73.28125 
Q 47.953125 72.359375 53.515625 70.515625 
z
" id="DejaVuSans-83"/>
      <path d="M 9.8125 72.90625 
L 19.671875 72.90625 
L 19.671875 8.296875 
L 55.171875 8.296875 
L 55.171875 0 
L 9.8125 0 
z
" id="DejaVuSans-76"/>
     </defs>
     <use xlink:href="#DejaVuSans-83"/>
     <use x="63.476562" xlink:href="#DejaVuSans-99"/>
     <use x="118.457031" xlink:href="#DejaVuSans-97"/>
     <use x="179.736328" xlink:href="#DejaVuSans-108"/>
     <use x="207.519531" xlink:href="#DejaVuSans-76"/>
    </g>
   </g>
   <g id="text_12">
    <!-- ScalS -->
    <g transform="translate(375.22944 217.53801)scale(0.17 -0.17)">
     <use xlink:href="#DejaVuSans-83"/>
     <use x="63.476562" xlink:href="#DejaVuSans-99"/>
     <use x="118.457031" xlink:href="#DejaVuSans-97"/>
     <use x="179.736328" xlink:href="#DejaVuSans-108"/>
     <use x="207.519531" xlink:href="#DejaVuSans-83"/>
    </g>
   </g>
   <g id="text_13">
    <!-- ScalM -->
    <g transform="translate(375.22944 177.415169)scale(0.17 -0.17)">
     <defs>
      <path d="M 9.8125 72.90625 
L 24.515625 72.90625 
L 43.109375 23.296875 
L 61.8125 72.90625 
L 76.515625 72.90625 
L 76.515625 0 
L 66.890625 0 
L 66.890625 64.015625 
L 48.09375 14.015625 
L 38.1875 14.015625 
L 19.390625 64.015625 
L 19.390625 0 
L 9.8125 0 
z
" id="DejaVuSans-77"/>
     </defs>
     <use xlink:href="#DejaVuSans-83"/>
     <use x="63.476562" xlink:href="#DejaVuSans-99"/>
     <use x="118.457031" xlink:href="#DejaVuSans-97"/>
     <use x="179.736328" xlink:href="#DejaVuSans-108"/>
     <use x="207.519531" xlink:href="#DejaVuSans-77"/>
    </g>
   </g>
   <g id="text_14">
    <!-- L -->
    <g transform="translate(375.22944 137.292329)scale(0.17 -0.17)">
     <use xlink:href="#DejaVuSans-76"/>
    </g>
   </g>
   <g id="text_15">
    <!-- S -->
    <g transform="translate(375.22944 97.169489)scale(0.17 -0.17)">
     <use xlink:href="#DejaVuSans-83"/>
    </g>
   </g>
   <g id="text_16">
    <!-- M -->
    <g transform="translate(375.22944 57.046649)scale(0.17 -0.17)">
     <use xlink:href="#DejaVuSans-77"/>
    </g>
   </g>
   <g id="text_17">
    <!-- best09 -->
    <g transform="translate(375.22944 16.923809)scale(0.17 -0.17)">
     <defs>
      <path d="M 48.6875 27.296875 
Q 48.6875 37.203125 44.609375 42.84375 
Q 40.53125 48.484375 33.40625 48.484375 
Q 26.265625 48.484375 22.1875 42.84375 
Q 18.109375 37.203125 18.109375 27.296875 
Q 18.109375 17.390625 22.1875 11.75 
Q 26.265625 6.109375 33.40625 6.109375 
Q 40.53125 6.109375 44.609375 11.75 
Q 48.6875 17.390625 48.6875 27.296875 
z
M 18.109375 46.390625 
Q 20.953125 51.265625 25.265625 53.625 
Q 29.59375 56 35.59375 56 
Q 45.5625 56 51.78125 48.09375 
Q 58.015625 40.1875 58.015625 27.296875 
Q 58.015625 14.40625 51.78125 6.484375 
Q 45.5625 -1.421875 35.59375 -1.421875 
Q 29.59375 -1.421875 25.265625 0.953125 
Q 20.953125 3.328125 18.109375 8.203125 
L 18.109375 0 
L 9.078125 0 
L 9.078125 75.984375 
L 18.109375 75.984375 
z
" id="DejaVuSans-98"/>
      <path d="M 10.984375 1.515625 
L 10.984375 10.5 
Q 14.703125 8.734375 18.5 7.8125 
Q 22.3125 6.890625 25.984375 6.890625 
Q 35.75 6.890625 40.890625 13.453125 
Q 46.046875 20.015625 46.78125 33.40625 
Q 43.953125 29.203125 39.59375 26.953125 
Q 35.25 24.703125 29.984375 24.703125 
Q 19.046875 24.703125 12.671875 31.3125 
Q 6.296875 37.9375 6.296875 49.421875 
Q 6.296875 60.640625 12.9375 67.421875 
Q 19.578125 74.21875 30.609375 74.21875 
Q 43.265625 74.21875 49.921875 64.515625 
Q 56.59375 54.828125 56.59375 36.375 
Q 56.59375 19.140625 48.40625 8.859375 
Q 40.234375 -1.421875 26.421875 -1.421875 
Q 22.703125 -1.421875 18.890625 -0.6875 
Q 15.09375 0.046875 10.984375 1.515625 
z
M 30.609375 32.421875 
Q 37.25 32.421875 41.125 36.953125 
Q 45.015625 41.5 45.015625 49.421875 
Q 45.015625 57.28125 41.125 61.84375 
Q 37.25 66.40625 30.609375 66.40625 
Q 23.96875 66.40625 20.09375 61.84375 
Q 16.21875 57.28125 16.21875 49.421875 
Q 16.21875 41.5 20.09375 36.953125 
Q 23.96875 32.421875 30.609375 32.421875 
z
" id="DejaVuSans-57"/>
     </defs>
     <use xlink:href="#DejaVuSans-98"/>
     <use x="63.476562" xlink:href="#DejaVuSans-101"/>
     <use x="125" xlink:href="#DejaVuSans-115"/>
     <use x="177.099609" xlink:href="#DejaVuSans-116"/>
     <use x="216.308594" xlink:href="#DejaVuSans-48"/>
     <use x="279.931641" xlink:href="#DejaVuSans-57"/>
    </g>
   </g>
   <g id="text_18">
    <!-- bbob f6-f9, 5-D -->
    <g transform="translate(60.41088 14.161286)scale(0.102 -0.102)">
     <defs>
      <path d="M 10.796875 72.90625 
L 49.515625 72.90625 
L 49.515625 64.59375 
L 19.828125 64.59375 
L 19.828125 46.734375 
Q 21.96875 47.46875 24.109375 47.828125 
Q 26.265625 48.1875 28.421875 48.1875 
Q 40.625 48.1875 47.75 41.5 
Q 54.890625 34.8125 54.890625 23.390625 
Q 54.890625 11.625 47.5625 5.09375 
Q 40.234375 -1.421875 26.90625 -1.421875 
Q 22.3125 -1.421875 17.546875 -0.640625 
Q 12.796875 0.140625 7.71875 1.703125 
L 7.71875 11.625 
Q 12.109375 9.234375 16.796875 8.0625 
Q 21.484375 6.890625 26.703125 6.890625 
Q 35.15625 6.890625 40.078125 11.328125 
Q 45.015625 15.765625 45.015625 23.390625 
Q 45.015625 31 40.078125 35.4375 
Q 35.15625 39.890625 26.703125 39.890625 
Q 22.75 39.890625 18.8125 39.015625 
Q 14.890625 38.140625 10.796875 36.28125 
z
" id="DejaVuSans-53"/>
      <path d="M 19.671875 64.796875 
L 19.671875 8.109375 
L 31.59375 8.109375 
Q 46.6875 8.109375 53.6875 14.9375 
Q 60.6875 21.78125 60.6875 36.53125 
Q 60.6875 51.171875 53.6875 57.984375 
Q 46.6875 64.796875 31.59375 64.796875 
z
M 9.8125 72.90625 
L 30.078125 72.90625 
Q 51.265625 72.90625 61.171875 64.09375 
Q 71.09375 55.28125 71.09375 36.53125 
Q 71.09375 17.671875 61.125 8.828125 
Q 51.171875 0 30.078125 0 
L 9.8125 0 
z
" id="DejaVuSans-68"/>
     </defs>
     <use xlink:href="#DejaVuSans-98"/>
     <use x="63.476562" xlink:href="#DejaVuSans-98"/>
     <use x="126.953125" xlink:href="#DejaVuSans-111"/>
     <use x="188.134766" xlink:href="#DejaVuSans-98"/>
     <use x="251.611328" xlink:href="#DejaVuSans-32"/>
     <use x="283.398438" xlink:href="#DejaVuSans-102"/>
     <use x="318.603516" xlink:href="#DejaVuSans-54"/>
     <use x="382.226562" xlink:href="#DejaVuSans-45"/>
     <use x="418.310547" xlink:href="#DejaVuSans-102"/>
     <use x="453.515625" xlink:href="#DejaVuSans-57"/>
     <use x="517.138672" xlink:href="#DejaVuSans-44"/>
     <use x="548.925781" xlink:href="#DejaVuSans-32"/>
     <use x="580.712891" xlink:href="#DejaVuSans-53"/>
     <use x="644.335938" xlink:href="#DejaVuSans-45"/>
     <use x="680.419922" xlink:href="#DejaVuSans-68"/>
    </g>
    <!-- 8 targets RLs/dim: 0.5..20 -->
    <g transform="translate(60.41088 25.583055)scale(0.102 -0.102)">
     <defs>
      <path d="M 44.390625 34.1875 
Q 47.5625 33.109375 50.5625 29.59375 
Q 53.5625 26.078125 56.59375 19.921875 
L 66.609375 0 
L 56 0 
L 46.6875 18.703125 
Q 43.0625 26.03125 39.671875 28.421875 
Q 36.28125 30.8125 30.421875 30.8125 
L 19.671875 30.8125 
L 19.671875 0 
L 9.8125 0 
L 9.8125 72.90625 
L 32.078125 72.90625 
Q 44.578125 72.90625 50.734375 67.671875 
Q 56.890625 62.453125 56.890625 51.90625 
Q 56.890625 45.015625 53.6875 40.46875 
Q 50.484375 35.9375 44.390625 34.1875 
z
M 19.671875 64.796875 
L 19.671875 38.921875 
L 32.078125 38.921875 
Q 39.203125 38.921875 42.84375 42.21875 
Q 46.484375 45.515625 46.484375 51.90625 
Q 46.484375 58.296875 42.84375 61.546875 
Q 39.203125 64.796875 32.078125 64.796875 
z
" id="DejaVuSans-82"/>
      <path d="M 11.71875 12.40625 
L 22.015625 12.40625 
L 22.015625 0 
L 11.71875 0 
z
M 11.71875 51.703125 
L 22.015625 51.703125 
L 22.015625 39.3125 
L 11.71875 39.3125 
z
" id="DejaVuSans-58"/>
     </defs>
     <use xlink:href="#DejaVuSans-56"/>
     <use x="63.623047" xlink:href="#DejaVuSans-32"/>
     <use x="95.410156" xlink:href="#DejaVuSans-116"/>
     <use x="134.619141" xlink:href="#DejaVuSans-97"/>
     <use x="195.898438" xlink:href="#DejaVuSans-114"/>
     <use x="235.261719" xlink:href="#DejaVuSans-103"/>
     <use x="298.738281" xlink:href="#DejaVuSans-101"/>
     <use x="360.261719" xlink:href="#DejaVuSans-116"/>
     <use x="399.470703" xlink:href="#DejaVuSans-115"/>
     <use x="451.570312" xlink:href="#DejaVuSans-32"/>
     <use x="483.357422" xlink:href="#DejaVuSans-82"/>
     <use x="552.839844" xlink:href="#DejaVuSans-76"/>
     <use x="608.552734" xlink:href="#DejaVuSans-115"/>
     <use x="660.652344" xlink:href="#DejaVuSans-47"/>
     <use x="694.34375" xlink:href="#DejaVuSans-100"/>
     <use x="757.820312" xlink:href="#DejaVuSans-105"/>
     <use x="785.603516" xlink:href="#DejaVuSans-109"/>
     <use x="883.015625" xlink:href="#DejaVuSans-58"/>
     <use x="916.707031" xlink:href="#DejaVuSans-32"/>
     <use x="948.494141" xlink:href="#DejaVuSans-48"/>
     <use x="1012.117188" xlink:href="#DejaVuSans-46"/>
     <use x="1043.904297" xlink:href="#DejaVuSans-53"/>
     <use x="1107.527344" xlink:href="#DejaVuSans-46"/>
     <use x="1139.314453" xlink:href="#DejaVuSans-46"/>
     <use x="1171.101562" xlink:href="#DejaVuSans-50"/>
     <use x="1234.724609" xlink:href="#DejaVuSans-48"/>
    </g>
    <!--   from /home/local/EMSE2000/leriche/AESOP/EXPE_DOCOCO/bestCustomAlg -->
    <g transform="translate(60.41088 37.004824)scale(0.102 -0.102)">
     <defs>
      <path d="M 54.890625 33.015625 
L 54.890625 0 
L 45.90625 0 
L 45.90625 32.71875 
Q 45.90625 40.484375 42.875 44.328125 
Q 39.84375 48.1875 33.796875 48.1875 
Q 26.515625 48.1875 22.3125 43.546875 
Q 18.109375 38.921875 18.109375 30.90625 
L 18.109375 0 
L 9.078125 0 
L 9.078125 75.984375 
L 18.109375 75.984375 
L 18.109375 46.1875 
Q 21.34375 51.125 25.703125 53.5625 
Q 30.078125 56 35.796875 56 
Q 45.21875 56 50.046875 50.171875 
Q 54.890625 44.34375 54.890625 33.015625 
z
" id="DejaVuSans-104"/>
      <path d="M 9.8125 72.90625 
L 55.90625 72.90625 
L 55.90625 64.59375 
L 19.671875 64.59375 
L 19.671875 43.015625 
L 54.390625 43.015625 
L 54.390625 34.71875 
L 19.671875 34.71875 
L 19.671875 8.296875 
L 56.78125 8.296875 
L 56.78125 0 
L 9.8125 0 
z
" id="DejaVuSans-69"/>
      <path d="M 34.1875 63.1875 
L 20.796875 26.90625 
L 47.609375 26.90625 
z
M 28.609375 72.90625 
L 39.796875 72.90625 
L 67.578125 0 
L 57.328125 0 
L 50.6875 18.703125 
L 17.828125 18.703125 
L 11.1875 0 
L 0.78125 0 
z
" id="DejaVuSans-65"/>
      <path d="M 39.40625 66.21875 
Q 28.65625 66.21875 22.328125 58.203125 
Q 16.015625 50.203125 16.015625 36.375 
Q 16.015625 22.609375 22.328125 14.59375 
Q 28.65625 6.59375 39.40625 6.59375 
Q 50.140625 6.59375 56.421875 14.59375 
Q 62.703125 22.609375 62.703125 36.375 
Q 62.703125 50.203125 56.421875 58.203125 
Q 50.140625 66.21875 39.40625 66.21875 
z
M 39.40625 74.21875 
Q 54.734375 74.21875 63.90625 63.9375 
Q 73.09375 53.65625 73.09375 36.375 
Q 73.09375 19.140625 63.90625 8.859375 
Q 54.734375 -1.421875 39.40625 -1.421875 
Q 24.03125 -1.421875 14.8125 8.828125 
Q 5.609375 19.09375 5.609375 36.375 
Q 5.609375 53.65625 14.8125 63.9375 
Q 24.03125 74.21875 39.40625 74.21875 
z
" id="DejaVuSans-79"/>
      <path d="M 19.671875 64.796875 
L 19.671875 37.40625 
L 32.078125 37.40625 
Q 38.96875 37.40625 42.71875 40.96875 
Q 46.484375 44.53125 46.484375 51.125 
Q 46.484375 57.671875 42.71875 61.234375 
Q 38.96875 64.796875 32.078125 64.796875 
z
M 9.8125 72.90625 
L 32.078125 72.90625 
Q 44.34375 72.90625 50.609375 67.359375 
Q 56.890625 61.8125 56.890625 51.125 
Q 56.890625 40.328125 50.609375 34.8125 
Q 44.34375 29.296875 32.078125 29.296875 
L 19.671875 29.296875 
L 19.671875 0 
L 9.8125 0 
z
" id="DejaVuSans-80"/>
      <path d="M 6.296875 72.90625 
L 16.890625 72.90625 
L 35.015625 45.796875 
L 53.21875 72.90625 
L 63.8125 72.90625 
L 40.375 37.890625 
L 65.375 0 
L 54.78125 0 
L 34.28125 31 
L 13.625 0 
L 2.984375 0 
L 29 38.921875 
z
" id="DejaVuSans-88"/>
      <path d="M 50.984375 -16.609375 
L 50.984375 -23.578125 
L -0.984375 -23.578125 
L -0.984375 -16.609375 
z
" id="DejaVuSans-95"/>
      <path d="M 64.40625 67.28125 
L 64.40625 56.890625 
Q 59.421875 61.53125 53.78125 63.8125 
Q 48.140625 66.109375 41.796875 66.109375 
Q 29.296875 66.109375 22.65625 58.46875 
Q 16.015625 50.828125 16.015625 36.375 
Q 16.015625 21.96875 22.65625 14.328125 
Q 29.296875 6.6875 41.796875 6.6875 
Q 48.140625 6.6875 53.78125 8.984375 
Q 59.421875 11.28125 64.40625 15.921875 
L 64.40625 5.609375 
Q 59.234375 2.09375 53.4375 0.328125 
Q 47.65625 -1.421875 41.21875 -1.421875 
Q 24.65625 -1.421875 15.125 8.703125 
Q 5.609375 18.84375 5.609375 36.375 
Q 5.609375 53.953125 15.125 64.078125 
Q 24.65625 74.21875 41.21875 74.21875 
Q 47.75 74.21875 53.53125 72.484375 
Q 59.328125 70.75 64.40625 67.28125 
z
" id="DejaVuSans-67"/>
     </defs>
     <use xlink:href="#DejaVuSans-32"/>
     <use x="31.787109" xlink:href="#DejaVuSans-32"/>
     <use x="63.574219" xlink:href="#DejaVuSans-102"/>
     <use x="98.779297" xlink:href="#DejaVuSans-114"/>
     <use x="137.642578" xlink:href="#DejaVuSans-111"/>
     <use x="198.824219" xlink:href="#DejaVuSans-109"/>
     <use x="296.236328" xlink:href="#DejaVuSans-32"/>
     <use x="328.023438" xlink:href="#DejaVuSans-47"/>
     <use x="361.714844" xlink:href="#DejaVuSans-104"/>
     <use x="425.09375" xlink:href="#DejaVuSans-111"/>
     <use x="486.275391" xlink:href="#DejaVuSans-109"/>
     <use x="583.6875" xlink:href="#DejaVuSans-101"/>
     <use x="645.210938" xlink:href="#DejaVuSans-47"/>
     <use x="678.902344" xlink:href="#DejaVuSans-108"/>
     <use x="706.685547" xlink:href="#DejaVuSans-111"/>
     <use x="767.867188" xlink:href="#DejaVuSans-99"/>
     <use x="822.847656" xlink:href="#DejaVuSans-97"/>
     <use x="884.126953" xlink:href="#DejaVuSans-108"/>
     <use x="911.910156" xlink:href="#DejaVuSans-47"/>
     <use x="945.601562" xlink:href="#DejaVuSans-69"/>
     <use x="1008.785156" xlink:href="#DejaVuSans-77"/>
     <use x="1095.064453" xlink:href="#DejaVuSans-83"/>
     <use x="1158.541016" xlink:href="#DejaVuSans-69"/>
     <use x="1221.724609" xlink:href="#DejaVuSans-50"/>
     <use x="1285.347656" xlink:href="#DejaVuSans-48"/>
     <use x="1348.970703" xlink:href="#DejaVuSans-48"/>
     <use x="1412.59375" xlink:href="#DejaVuSans-48"/>
     <use x="1476.216797" xlink:href="#DejaVuSans-47"/>
     <use x="1509.908203" xlink:href="#DejaVuSans-108"/>
     <use x="1537.691406" xlink:href="#DejaVuSans-101"/>
     <use x="1599.214844" xlink:href="#DejaVuSans-114"/>
     <use x="1640.328125" xlink:href="#DejaVuSans-105"/>
     <use x="1668.111328" xlink:href="#DejaVuSans-99"/>
     <use x="1723.091797" xlink:href="#DejaVuSans-104"/>
     <use x="1786.470703" xlink:href="#DejaVuSans-101"/>
     <use x="1847.994141" xlink:href="#DejaVuSans-47"/>
     <use x="1881.685547" xlink:href="#DejaVuSans-65"/>
     <use x="1950.09375" xlink:href="#DejaVuSans-69"/>
     <use x="2013.277344" xlink:href="#DejaVuSans-83"/>
     <use x="2076.753906" xlink:href="#DejaVuSans-79"/>
     <use x="2155.464844" xlink:href="#DejaVuSans-80"/>
     <use x="2215.767578" xlink:href="#DejaVuSans-47"/>
     <use x="2249.458984" xlink:href="#DejaVuSans-69"/>
     <use x="2312.642578" xlink:href="#DejaVuSans-88"/>
     <use x="2381.148438" xlink:href="#DejaVuSans-80"/>
     <use x="2441.451172" xlink:href="#DejaVuSans-69"/>
     <use x="2504.634766" xlink:href="#DejaVuSans-95"/>
     <use x="2554.634766" xlink:href="#DejaVuSans-68"/>
     <use x="2631.636719" xlink:href="#DejaVuSans-79"/>
     <use x="2710.347656" xlink:href="#DejaVuSans-67"/>
     <use x="2780.171875" xlink:href="#DejaVuSans-79"/>
     <use x="2858.882812" xlink:href="#DejaVuSans-67"/>
     <use x="2928.707031" xlink:href="#DejaVuSans-79"/>
     <use x="3007.417969" xlink:href="#DejaVuSans-47"/>
     <use x="3041.109375" xlink:href="#DejaVuSans-98"/>
     <use x="3104.585938" xlink:href="#DejaVuSans-101"/>
     <use x="3166.109375" xlink:href="#DejaVuSans-115"/>
     <use x="3218.208984" xlink:href="#DejaVuSans-116"/>
     <use x="3257.417969" xlink:href="#DejaVuSans-67"/>
     <use x="3327.242188" xlink:href="#DejaVuSans-117"/>
     <use x="3390.621094" xlink:href="#DejaVuSans-115"/>
     <use x="3442.720703" xlink:href="#DejaVuSans-116"/>
     <use x="3481.929688" xlink:href="#DejaVuSans-111"/>
     <use x="3543.111328" xlink:href="#DejaVuSans-109"/>
     <use x="3640.523438" xlink:href="#DejaVuSans-65"/>
     <use x="3708.931641" xlink:href="#DejaVuSans-108"/>
     <use x="3736.714844" xlink:href="#DejaVuSans-103"/>
    </g>
    <!-- 15 instances -->
    <g transform="translate(60.41088 48.71028)scale(0.102 -0.102)">
     <use xlink:href="#DejaVuSans-49"/>
     <use x="63.623047" xlink:href="#DejaVuSans-53"/>
     <use x="127.246094" xlink:href="#DejaVuSans-32"/>
     <use x="159.033203" xlink:href="#DejaVuSans-105"/>
     <use x="186.816406" xlink:href="#DejaVuSans-110"/>
     <use x="250.195312" xlink:href="#DejaVuSans-115"/>
     <use x="302.294922" xlink:href="#DejaVuSans-116"/>
     <use x="341.503906" xlink:href="#DejaVuSans-97"/>
     <use x="402.783203" xlink:href="#DejaVuSans-110"/>
     <use x="466.162109" xlink:href="#DejaVuSans-99"/>
     <use x="521.142578" xlink:href="#DejaVuSans-101"/>
     <use x="582.666016" xlink:href="#DejaVuSans-115"/>
    </g>
   </g>
   <g id="text_19">
    <!-- v2.3.3.84 -->
    <g style="fill:#808080;" transform="translate(174.511187 293.909432)scale(0.1 -0.1)">
     <defs>
      <path d="M 40.578125 39.3125 
Q 47.65625 37.796875 51.625 33 
Q 55.609375 28.21875 55.609375 21.1875 
Q 55.609375 10.40625 48.1875 4.484375 
Q 40.765625 -1.421875 27.09375 -1.421875 
Q 22.515625 -1.421875 17.65625 -0.515625 
Q 12.796875 0.390625 7.625 2.203125 
L 7.625 11.71875 
Q 11.71875 9.328125 16.59375 8.109375 
Q 21.484375 6.890625 26.8125 6.890625 
Q 36.078125 6.890625 40.9375 10.546875 
Q 45.796875 14.203125 45.796875 21.1875 
Q 45.796875 27.640625 41.28125 31.265625 
Q 36.765625 34.90625 28.71875 34.90625 
L 20.21875 34.90625 
L 20.21875 43.015625 
L 29.109375 43.015625 
Q 36.375 43.015625 40.234375 45.921875 
Q 44.09375 48.828125 44.09375 54.296875 
Q 44.09375 59.90625 40.109375 62.90625 
Q 36.140625 65.921875 28.71875 65.921875 
Q 24.65625 65.921875 20.015625 65.03125 
Q 15.375 64.15625 9.8125 62.3125 
L 9.8125 71.09375 
Q 15.4375 72.65625 20.34375 73.4375 
Q 25.25 74.21875 29.59375 74.21875 
Q 40.828125 74.21875 47.359375 69.109375 
Q 53.90625 64.015625 53.90625 55.328125 
Q 53.90625 49.265625 50.4375 45.09375 
Q 46.96875 40.921875 40.578125 39.3125 
z
" id="DejaVuSans-51"/>
     </defs>
     <use xlink:href="#DejaVuSans-118"/>
     <use x="59.179688" xlink:href="#DejaVuSans-50"/>
     <use x="122.802734" xlink:href="#DejaVuSans-46"/>
     <use x="154.589844" xlink:href="#DejaVuSans-51"/>
     <use x="218.212891" xlink:href="#DejaVuSans-46"/>
     <use x="250" xlink:href="#DejaVuSans-51"/>
     <use x="313.623047" xlink:href="#DejaVuSans-46"/>
     <use x="345.410156" xlink:href="#DejaVuSans-56"/>
     <use x="409.033203" xlink:href="#DejaVuSans-52"/>
    </g>
   </g>
  </g>
 </g>
 <defs>
  <clipPath id="p98b0d297fd">
   <rect height="295.488" width="281.088" x="57.6" y="3.456"/>
  </clipPath>
 </defs>
</svg>
