<?xml version="1.0" encoding="utf-8" standalone="no"?>
<!DOCTYPE svg PUBLIC "-//W3C//DTD SVG 1.1//EN"
  "http://www.w3.org/Graphics/SVG/1.1/DTD/svg11.dtd">
<!-- Created with matplotlib (http://matplotlib.org/) -->
<svg height="345.6pt" version="1.1" viewBox="0 0 460.8 345.6" width="460.8pt" xmlns="http://www.w3.org/2000/svg" xmlns:xlink="http://www.w3.org/1999/xlink">
 <defs>
  <style type="text/css">
*{stroke-linecap:butt;stroke-linejoin:round;}
  </style>
 </defs>
 <g id="figure_1">
  <g id="patch_1">
   <path d="M 0 345.6 
L 460.8 345.6 
L 460.8 0 
L 0 0 
z
" style="fill:#ffffff;"/>
  </g>
  <g id="axes_1">
   <g id="patch_2">
    <path d="M 56.12 294.88 
L 333.168 294.88 
L 333.168 6.845228 
L 56.12 6.845228 
z
" style="fill:#ffffff;"/>
   </g>
   <g id="line2d_1">
    <path d="M 14.510178 294.88 
L 14.510178 269.134318 
L 37.943615 269.134318 
L 37.943615 255.271258 
L 56.12 255.271258 
L 56.12 251.310384 
L 70.971188 251.310384 
L 70.971188 241.408198 
L 83.527689 241.408198 
L 83.527689 231.506013 
L 94.404625 231.506013 
L 94.404625 227.545138 
L 103.998762 227.545138 
L 103.998762 223.584264 
L 112.58101 223.584264 
L 112.58101 215.662516 
L 120.344598 215.662516 
L 120.344598 209.721205 
L 127.432198 209.721205 
L 127.432198 207.740767 
L 145.608584 207.740767 
L 145.608584 201.799456 
L 150.865635 201.799456 
L 150.865635 189.916834 
L 155.803875 189.916834 
L 155.803875 183.975522 
L 160.459772 183.975522 
L 160.459772 180.014648 
L 164.863873 180.014648 
L 164.863873 174.073337 
L 176.805608 174.073337 
L 176.805608 172.0929 
L 183.893209 172.0929 
L 183.893209 168.132025 
L 190.413169 168.132025 
L 190.413169 160.210277 
L 196.449709 160.210277 
L 196.449709 158.22984 
L 199.308109 158.22984 
L 199.308109 152.288529 
L 202.069594 152.288529 
L 202.069594 150.308091 
L 204.740523 150.308091 
L 204.740523 148.327654 
L 207.326645 148.327654 
L 207.326645 142.386343 
L 209.833182 142.386343 
L 209.833182 140.405906 
L 216.920782 140.405906 
L 216.920782 134.464595 
L 219.152594 134.464595 
L 219.152594 132.484158 
L 223.440743 132.484158 
L 223.440743 130.50372 
L 225.503031 130.50372 
L 225.503031 128.523283 
L 227.514393 128.523283 
L 227.514393 126.542846 
L 231.393984 126.542846 
L 231.393984 124.562409 
L 233.266618 124.562409 
L 233.266618 118.621098 
L 236.887482 118.621098 
L 236.887482 116.640661 
L 238.639292 116.640661 
L 238.639292 114.660224 
L 240.354219 114.660224 
L 240.354219 112.679787 
L 242.033784 112.679787 
L 242.033784 110.699349 
L 245.292459 110.699349 
L 245.292459 108.718912 
L 246.874179 108.718912 
L 246.874179 106.738475 
L 248.425769 106.738475 
L 248.425769 102.777601 
L 249.948356 102.777601 
L 249.948356 96.83629 
L 251.443004 96.83629 
L 251.443004 94.855853 
L 254.352457 94.855853 
L 254.352457 92.875415 
L 255.769119 92.875415 
L 255.769119 88.914541 
L 257.161563 88.914541 
L 257.161563 86.934104 
L 262.504857 86.934104 
L 262.504857 84.953667 
L 269.915056 84.953667 
L 269.915056 82.97323 
L 274.505342 82.97323 
L 274.505342 80.992793 
L 275.613604 80.992793 
L 275.613604 79.012356 
L 278.850693 79.012356 
L 278.850693 75.051482 
L 279.901753 75.051482 
L 279.901753 73.071044 
L 280.939423 73.071044 
L 280.939423 71.090607 
L 281.964041 71.090607 
L 281.964041 67.129733 
L 282.97593 67.129733 
L 282.97593 65.149296 
L 283.975403 65.149296 
L 283.975403 63.168859 
L 285.938293 63.168859 
L 285.938293 61.188422 
L 288.796693 61.188422 
L 288.796693 59.207985 
L 294.229107 59.207985 
L 294.229107 55.247111 
L 295.962279 55.247111 
L 295.962279 53.266673 
L 299.321766 53.266673 
L 299.321766 51.286236 
L 302.548169 51.286236 
L 302.548169 47.325362 
L 305.65163 47.325362 
L 305.65163 45.344925 
L 307.160118 45.344925 
L 307.160118 41.384051 
L 307.904014 41.384051 
L 307.904014 39.403614 
L 310.095788 39.403614 
L 310.095788 35.442739 
L 310.813467 35.442739 
L 310.813467 33.462302 
L 313.622574 33.462302 
L 313.622574 31.481865 
L 314.991615 31.481865 
L 314.991615 29.501428 
L 321.511575 29.501428 
L 321.511575 27.520991 
L 323.369968 27.520991 
L 323.369968 25.540554 
L 324.585752 25.540554 
L 324.585752 23.560117 
L 325.186906 23.560117 
L 325.186906 21.57968 
L 327.548115 21.57968 
L 327.548115 19.599243 
L 333.168 19.599243 
L 333.168 19.599243 
" style="fill:none;stroke:#f5deb3;stroke-linecap:square;stroke-width:4;"/>
   </g>
   <g id="line2d_2">
    <defs>
     <path d="M -0 7.778175 
L 7.778175 0 
L 0 -7.778175 
L -7.778175 -0 
z
" id="me3f887a1fb" style="stroke:#f5deb3;stroke-linejoin:miter;stroke-width:1.5;"/>
    </defs>
    <g>
     <use style="fill:#f5deb3;stroke:#f5deb3;stroke-linejoin:miter;stroke-width:1.5;" x="70.971188" xlink:href="#me3f887a1fb" y="241.408198"/>
     <use style="fill:#f5deb3;stroke:#f5deb3;stroke-linejoin:miter;stroke-width:1.5;" x="145.608584" xlink:href="#me3f887a1fb" y="201.799456"/>
     <use style="fill:#f5deb3;stroke:#f5deb3;stroke-linejoin:miter;stroke-width:1.5;" x="183.893209" xlink:href="#me3f887a1fb" y="168.132025"/>
     <use style="fill:#f5deb3;stroke:#f5deb3;stroke-linejoin:miter;stroke-width:1.5;" x="249.948356" xlink:href="#me3f887a1fb" y="102.777601"/>
     <use style="fill:#f5deb3;stroke:#f5deb3;stroke-linejoin:miter;stroke-width:1.5;" x="299.321766" xlink:href="#me3f887a1fb" y="53.266673"/>
     <use style="fill:#f5deb3;stroke:#f5deb3;stroke-linejoin:miter;stroke-width:1.5;" x="327.548115" xlink:href="#me3f887a1fb" y="19.599243"/>
     <use style="fill:#f5deb3;stroke:#f5deb3;stroke-linejoin:miter;stroke-width:1.5;" x="327.548115" xlink:href="#me3f887a1fb" y="19.599243"/>
     <use style="fill:#f5deb3;stroke:#f5deb3;stroke-linejoin:miter;stroke-width:1.5;" x="333.168" xlink:href="#me3f887a1fb" y="19.599243"/>
    </g>
   </g>
   <g id="line2d_3">
    <path style="fill:none;stroke:#f5deb3;stroke-linecap:square;stroke-width:4;"/>
    <g/>
   </g>
   <g id="line2d_4">
    <path d="M 333.168 19.599243 
L 363.64328 15.400716 
" style="fill:none;stroke:#f5deb3;stroke-linecap:square;stroke-width:4;"/>
    <g>
     <use style="fill:#f5deb3;stroke:#f5deb3;stroke-linejoin:miter;stroke-width:1.5;" x="333.168" xlink:href="#me3f887a1fb" y="19.599243"/>
     <use style="fill:#f5deb3;stroke:#f5deb3;stroke-linejoin:miter;stroke-width:1.5;" x="363.64328" xlink:href="#me3f887a1fb" y="15.400716"/>
    </g>
   </g>
   <g id="matplotlib.axis_1">
    <g id="xtick_1">
     <g id="line2d_5">
      <path clip-path="url(#p6a051fa221)" d="M 56.12 294.88 
L 56.12 6.845228 
" style="fill:none;stroke:#b0b0b0;stroke-linecap:square;stroke-width:0.8;"/>
     </g>
     <g id="line2d_6">
      <defs>
       <path d="M 0 0 
L 0 3.5 
" id="md6349baf30" style="stroke:#000000;stroke-width:0.8;"/>
      </defs>
      <g>
       <use style="stroke:#000000;stroke-width:0.8;" x="56.12" xlink:href="#md6349baf30" y="294.88"/>
      </g>
     </g>
     <g id="text_1">
      <!-- 0 -->
      <defs>
       <path d="M 31.78125 66.40625 
Q 24.171875 66.40625 20.328125 58.90625 
Q 16.5 51.421875 16.5 36.375 
Q 16.5 21.390625 20.328125 13.890625 
Q 24.171875 6.390625 31.78125 6.390625 
Q 39.453125 6.390625 43.28125 13.890625 
Q 47.125 21.390625 47.125 36.375 
Q 47.125 51.421875 43.28125 58.90625 
Q 39.453125 66.40625 31.78125 66.40625 
z
M 31.78125 74.21875 
Q 44.046875 74.21875 50.515625 64.515625 
Q 56.984375 54.828125 56.984375 36.375 
Q 56.984375 17.96875 50.515625 8.265625 
Q 44.046875 -1.421875 31.78125 -1.421875 
Q 19.53125 -1.421875 13.0625 8.265625 
Q 6.59375 17.96875 6.59375 36.375 
Q 6.59375 54.828125 13.0625 64.515625 
Q 19.53125 74.21875 31.78125 74.21875 
z
" id="DejaVuSans-30"/>
      </defs>
      <g transform="translate(49.7575 317.076875)scale(0.2 -0.2)">
       <use xlink:href="#DejaVuSans-30"/>
      </g>
     </g>
    </g>
    <g id="xtick_2">
     <g id="line2d_7">
      <path clip-path="url(#p6a051fa221)" d="M 56.12 294.88 
L 56.12 6.845228 
" style="fill:none;stroke:#b0b0b0;stroke-linecap:square;stroke-width:0.8;"/>
     </g>
     <g id="line2d_8">
      <defs>
       <path d="M 0 0 
L 0 2 
" id="m74bfd30426" style="stroke:#000000;stroke-width:0.6;"/>
      </defs>
      <g>
       <use style="stroke:#000000;stroke-width:0.6;" x="56.12" xlink:href="#m74bfd30426" y="294.88"/>
      </g>
     </g>
    </g>
    <g id="xtick_3">
     <g id="line2d_9">
      <path clip-path="url(#p6a051fa221)" d="M 243.679416 294.88 
L 243.679416 6.845228 
" style="fill:none;stroke:#b0b0b0;stroke-linecap:square;stroke-width:0.8;"/>
     </g>
     <g id="line2d_10">
      <g>
       <use style="stroke:#000000;stroke-width:0.6;" x="243.679416" xlink:href="#m74bfd30426" y="294.88"/>
      </g>
     </g>
    </g>
    <g id="text_2">
     <!-- log10(# f-evals / dimension) -->
     <defs>
      <path d="M 9.421875 75.984375 
L 18.40625 75.984375 
L 18.40625 0 
L 9.421875 0 
z
" id="DejaVuSans-6c"/>
      <path d="M 30.609375 48.390625 
Q 23.390625 48.390625 19.1875 42.75 
Q 14.984375 37.109375 14.984375 27.296875 
Q 14.984375 17.484375 19.15625 11.84375 
Q 23.34375 6.203125 30.609375 6.203125 
Q 37.796875 6.203125 41.984375 11.859375 
Q 46.1875 17.53125 46.1875 27.296875 
Q 46.1875 37.015625 41.984375 42.703125 
Q 37.796875 48.390625 30.609375 48.390625 
z
M 30.609375 56 
Q 42.328125 56 49.015625 48.375 
Q 55.71875 40.765625 55.71875 27.296875 
Q 55.71875 13.875 49.015625 6.21875 
Q 42.328125 -1.421875 30.609375 -1.421875 
Q 18.84375 -1.421875 12.171875 6.21875 
Q 5.515625 13.875 5.515625 27.296875 
Q 5.515625 40.765625 12.171875 48.375 
Q 18.84375 56 30.609375 56 
z
" id="DejaVuSans-6f"/>
      <path d="M 45.40625 27.984375 
Q 45.40625 37.75 41.375 43.109375 
Q 37.359375 48.484375 30.078125 48.484375 
Q 22.859375 48.484375 18.828125 43.109375 
Q 14.796875 37.75 14.796875 27.984375 
Q 14.796875 18.265625 18.828125 12.890625 
Q 22.859375 7.515625 30.078125 7.515625 
Q 37.359375 7.515625 41.375 12.890625 
Q 45.40625 18.265625 45.40625 27.984375 
z
M 54.390625 6.78125 
Q 54.390625 -7.171875 48.1875 -13.984375 
Q 42 -20.796875 29.203125 -20.796875 
Q 24.46875 -20.796875 20.265625 -20.09375 
Q 16.0625 -19.390625 12.109375 -17.921875 
L 12.109375 -9.1875 
Q 16.0625 -11.328125 19.921875 -12.34375 
Q 23.78125 -13.375 27.78125 -13.375 
Q 36.625 -13.375 41.015625 -8.765625 
Q 45.40625 -4.15625 45.40625 5.171875 
L 45.40625 9.625 
Q 42.625 4.78125 38.28125 2.390625 
Q 33.9375 0 27.875 0 
Q 17.828125 0 11.671875 7.65625 
Q 5.515625 15.328125 5.515625 27.984375 
Q 5.515625 40.671875 11.671875 48.328125 
Q 17.828125 56 27.875 56 
Q 33.9375 56 38.28125 53.609375 
Q 42.625 51.21875 45.40625 46.390625 
L 45.40625 54.6875 
L 54.390625 54.6875 
z
" id="DejaVuSans-67"/>
      <path d="M 12.40625 8.296875 
L 28.515625 8.296875 
L 28.515625 63.921875 
L 10.984375 60.40625 
L 10.984375 69.390625 
L 28.421875 72.90625 
L 38.28125 72.90625 
L 38.28125 8.296875 
L 54.390625 8.296875 
L 54.390625 0 
L 12.40625 0 
z
" id="DejaVuSans-31"/>
      <path d="M 31 75.875 
Q 24.46875 64.65625 21.28125 53.65625 
Q 18.109375 42.671875 18.109375 31.390625 
Q 18.109375 20.125 21.3125 9.0625 
Q 24.515625 -2 31 -13.1875 
L 23.1875 -13.1875 
Q 15.875 -1.703125 12.234375 9.375 
Q 8.59375 20.453125 8.59375 31.390625 
Q 8.59375 42.28125 12.203125 53.3125 
Q 15.828125 64.359375 23.1875 75.875 
z
" id="DejaVuSans-28"/>
      <path d="M 51.125 44 
L 36.921875 44 
L 32.8125 27.6875 
L 47.125 27.6875 
z
M 43.796875 71.78125 
L 38.71875 51.515625 
L 52.984375 51.515625 
L 58.109375 71.78125 
L 65.921875 71.78125 
L 60.890625 51.515625 
L 76.125 51.515625 
L 76.125 44 
L 58.984375 44 
L 54.984375 27.6875 
L 70.515625 27.6875 
L 70.515625 20.21875 
L 53.078125 20.21875 
L 48 0 
L 40.1875 0 
L 45.21875 20.21875 
L 30.90625 20.21875 
L 25.875 0 
L 18.015625 0 
L 23.09375 20.21875 
L 7.71875 20.21875 
L 7.71875 27.6875 
L 24.90625 27.6875 
L 29 44 
L 13.28125 44 
L 13.28125 51.515625 
L 30.90625 51.515625 
L 35.890625 71.78125 
z
" id="DejaVuSans-23"/>
      <path id="DejaVuSans-20"/>
      <path d="M 37.109375 75.984375 
L 37.109375 68.5 
L 28.515625 68.5 
Q 23.6875 68.5 21.796875 66.546875 
Q 19.921875 64.59375 19.921875 59.515625 
L 19.921875 54.6875 
L 34.71875 54.6875 
L 34.71875 47.703125 
L 19.921875 47.703125 
L 19.921875 0 
L 10.890625 0 
L 10.890625 47.703125 
L 2.296875 47.703125 
L 2.296875 54.6875 
L 10.890625 54.6875 
L 10.890625 58.5 
Q 10.890625 67.625 15.140625 71.796875 
Q 19.390625 75.984375 28.609375 75.984375 
z
" id="DejaVuSans-66"/>
      <path d="M 4.890625 31.390625 
L 31.203125 31.390625 
L 31.203125 23.390625 
L 4.890625 23.390625 
z
" id="DejaVuSans-2d"/>
      <path d="M 56.203125 29.59375 
L 56.203125 25.203125 
L 14.890625 25.203125 
Q 15.484375 15.921875 20.484375 11.0625 
Q 25.484375 6.203125 34.421875 6.203125 
Q 39.59375 6.203125 44.453125 7.46875 
Q 49.3125 8.734375 54.109375 11.28125 
L 54.109375 2.78125 
Q 49.265625 0.734375 44.1875 -0.34375 
Q 39.109375 -1.421875 33.890625 -1.421875 
Q 20.796875 -1.421875 13.15625 6.1875 
Q 5.515625 13.8125 5.515625 26.8125 
Q 5.515625 40.234375 12.765625 48.109375 
Q 20.015625 56 32.328125 56 
Q 43.359375 56 49.78125 48.890625 
Q 56.203125 41.796875 56.203125 29.59375 
z
M 47.21875 32.234375 
Q 47.125 39.59375 43.09375 43.984375 
Q 39.0625 48.390625 32.421875 48.390625 
Q 24.90625 48.390625 20.390625 44.140625 
Q 15.875 39.890625 15.1875 32.171875 
z
" id="DejaVuSans-65"/>
      <path d="M 2.984375 54.6875 
L 12.5 54.6875 
L 29.59375 8.796875 
L 46.6875 54.6875 
L 56.203125 54.6875 
L 35.6875 0 
L 23.484375 0 
z
" id="DejaVuSans-76"/>
      <path d="M 34.28125 27.484375 
Q 23.390625 27.484375 19.1875 25 
Q 14.984375 22.515625 14.984375 16.5 
Q 14.984375 11.71875 18.140625 8.90625 
Q 21.296875 6.109375 26.703125 6.109375 
Q 34.1875 6.109375 38.703125 11.40625 
Q 43.21875 16.703125 43.21875 25.484375 
L 43.21875 27.484375 
z
M 52.203125 31.203125 
L 52.203125 0 
L 43.21875 0 
L 43.21875 8.296875 
Q 40.140625 3.328125 35.546875 0.953125 
Q 30.953125 -1.421875 24.3125 -1.421875 
Q 15.921875 -1.421875 10.953125 3.296875 
Q 6 8.015625 6 15.921875 
Q 6 25.140625 12.171875 29.828125 
Q 18.359375 34.515625 30.609375 34.515625 
L 43.21875 34.515625 
L 43.21875 35.40625 
Q 43.21875 41.609375 39.140625 45 
Q 35.0625 48.390625 27.6875 48.390625 
Q 23 48.390625 18.546875 47.265625 
Q 14.109375 46.140625 10.015625 43.890625 
L 10.015625 52.203125 
Q 14.9375 54.109375 19.578125 55.046875 
Q 24.21875 56 28.609375 56 
Q 40.484375 56 46.34375 49.84375 
Q 52.203125 43.703125 52.203125 31.203125 
z
" id="DejaVuSans-61"/>
      <path d="M 44.28125 53.078125 
L 44.28125 44.578125 
Q 40.484375 46.53125 36.375 47.5 
Q 32.28125 48.484375 27.875 48.484375 
Q 21.1875 48.484375 17.84375 46.4375 
Q 14.5 44.390625 14.5 40.28125 
Q 14.5 37.15625 16.890625 35.375 
Q 19.28125 33.59375 26.515625 31.984375 
L 29.59375 31.296875 
Q 39.15625 29.25 43.1875 25.515625 
Q 47.21875 21.78125 47.21875 15.09375 
Q 47.21875 7.46875 41.1875 3.015625 
Q 35.15625 -1.421875 24.609375 -1.421875 
Q 20.21875 -1.421875 15.453125 -0.5625 
Q 10.6875 0.296875 5.421875 2 
L 5.421875 11.28125 
Q 10.40625 8.6875 15.234375 7.390625 
Q 20.0625 6.109375 24.8125 6.109375 
Q 31.15625 6.109375 34.5625 8.28125 
Q 37.984375 10.453125 37.984375 14.40625 
Q 37.984375 18.0625 35.515625 20.015625 
Q 33.0625 21.96875 24.703125 23.78125 
L 21.578125 24.515625 
Q 13.234375 26.265625 9.515625 29.90625 
Q 5.8125 33.546875 5.8125 39.890625 
Q 5.8125 47.609375 11.28125 51.796875 
Q 16.75 56 26.8125 56 
Q 31.78125 56 36.171875 55.265625 
Q 40.578125 54.546875 44.28125 53.078125 
z
" id="DejaVuSans-73"/>
      <path d="M 25.390625 72.90625 
L 33.6875 72.90625 
L 8.296875 -9.28125 
L 0 -9.28125 
z
" id="DejaVuSans-2f"/>
      <path d="M 45.40625 46.390625 
L 45.40625 75.984375 
L 54.390625 75.984375 
L 54.390625 0 
L 45.40625 0 
L 45.40625 8.203125 
Q 42.578125 3.328125 38.25 0.953125 
Q 33.9375 -1.421875 27.875 -1.421875 
Q 17.96875 -1.421875 11.734375 6.484375 
Q 5.515625 14.40625 5.515625 27.296875 
Q 5.515625 40.1875 11.734375 48.09375 
Q 17.96875 56 27.875 56 
Q 33.9375 56 38.25 53.625 
Q 42.578125 51.265625 45.40625 46.390625 
z
M 14.796875 27.296875 
Q 14.796875 17.390625 18.875 11.75 
Q 22.953125 6.109375 30.078125 6.109375 
Q 37.203125 6.109375 41.296875 11.75 
Q 45.40625 17.390625 45.40625 27.296875 
Q 45.40625 37.203125 41.296875 42.84375 
Q 37.203125 48.484375 30.078125 48.484375 
Q 22.953125 48.484375 18.875 42.84375 
Q 14.796875 37.203125 14.796875 27.296875 
z
" id="DejaVuSans-64"/>
      <path d="M 9.421875 54.6875 
L 18.40625 54.6875 
L 18.40625 0 
L 9.421875 0 
z
M 9.421875 75.984375 
L 18.40625 75.984375 
L 18.40625 64.59375 
L 9.421875 64.59375 
z
" id="DejaVuSans-69"/>
      <path d="M 52 44.1875 
Q 55.375 50.25 60.0625 53.125 
Q 64.75 56 71.09375 56 
Q 79.640625 56 84.28125 50.015625 
Q 88.921875 44.046875 88.921875 33.015625 
L 88.921875 0 
L 79.890625 0 
L 79.890625 32.71875 
Q 79.890625 40.578125 77.09375 44.375 
Q 74.3125 48.1875 68.609375 48.1875 
Q 61.625 48.1875 57.5625 43.546875 
Q 53.515625 38.921875 53.515625 30.90625 
L 53.515625 0 
L 44.484375 0 
L 44.484375 32.71875 
Q 44.484375 40.625 41.703125 44.40625 
Q 38.921875 48.1875 33.109375 48.1875 
Q 26.21875 48.1875 22.15625 43.53125 
Q 18.109375 38.875 18.109375 30.90625 
L 18.109375 0 
L 9.078125 0 
L 9.078125 54.6875 
L 18.109375 54.6875 
L 18.109375 46.1875 
Q 21.1875 51.21875 25.484375 53.609375 
Q 29.78125 56 35.6875 56 
Q 41.65625 56 45.828125 52.96875 
Q 50 49.953125 52 44.1875 
z
" id="DejaVuSans-6d"/>
      <path d="M 54.890625 33.015625 
L 54.890625 0 
L 45.90625 0 
L 45.90625 32.71875 
Q 45.90625 40.484375 42.875 44.328125 
Q 39.84375 48.1875 33.796875 48.1875 
Q 26.515625 48.1875 22.3125 43.546875 
Q 18.109375 38.921875 18.109375 30.90625 
L 18.109375 0 
L 9.078125 0 
L 9.078125 54.6875 
L 18.109375 54.6875 
L 18.109375 46.1875 
Q 21.34375 51.125 25.703125 53.5625 
Q 30.078125 56 35.796875 56 
Q 45.21875 56 50.046875 50.171875 
Q 54.890625 44.34375 54.890625 33.015625 
z
" id="DejaVuSans-6e"/>
      <path d="M 8.015625 75.875 
L 15.828125 75.875 
Q 23.140625 64.359375 26.78125 53.3125 
Q 30.421875 42.28125 30.421875 31.390625 
Q 30.421875 20.453125 26.78125 9.375 
Q 23.140625 -1.703125 15.828125 -13.1875 
L 8.015625 -13.1875 
Q 14.5 -2 17.703125 9.0625 
Q 20.90625 20.125 20.90625 31.390625 
Q 20.90625 42.671875 17.703125 53.65625 
Q 14.5 64.65625 8.015625 75.875 
z
" id="DejaVuSans-29"/>
     </defs>
     <g transform="translate(73.803219 338.153594)scale(0.17 -0.17)">
      <use xlink:href="#DejaVuSans-6c"/>
      <use x="27.783203" xlink:href="#DejaVuSans-6f"/>
      <use x="88.964844" xlink:href="#DejaVuSans-67"/>
      <use x="152.441406" xlink:href="#DejaVuSans-31"/>
      <use x="216.064453" xlink:href="#DejaVuSans-30"/>
      <use x="279.6875" xlink:href="#DejaVuSans-28"/>
      <use x="318.701172" xlink:href="#DejaVuSans-23"/>
      <use x="402.490234" xlink:href="#DejaVuSans-20"/>
      <use x="434.277344" xlink:href="#DejaVuSans-66"/>
      <use x="469.404297" xlink:href="#DejaVuSans-2d"/>
      <use x="505.488281" xlink:href="#DejaVuSans-65"/>
      <use x="567.011719" xlink:href="#DejaVuSans-76"/>
      <use x="626.191406" xlink:href="#DejaVuSans-61"/>
      <use x="687.470703" xlink:href="#DejaVuSans-6c"/>
      <use x="715.253906" xlink:href="#DejaVuSans-73"/>
      <use x="767.353516" xlink:href="#DejaVuSans-20"/>
      <use x="799.140625" xlink:href="#DejaVuSans-2f"/>
      <use x="832.832031" xlink:href="#DejaVuSans-20"/>
      <use x="864.619141" xlink:href="#DejaVuSans-64"/>
      <use x="928.095703" xlink:href="#DejaVuSans-69"/>
      <use x="955.878906" xlink:href="#DejaVuSans-6d"/>
      <use x="1053.291016" xlink:href="#DejaVuSans-65"/>
      <use x="1114.814453" xlink:href="#DejaVuSans-6e"/>
      <use x="1178.193359" xlink:href="#DejaVuSans-73"/>
      <use x="1230.292969" xlink:href="#DejaVuSans-69"/>
      <use x="1258.076172" xlink:href="#DejaVuSans-6f"/>
      <use x="1319.257812" xlink:href="#DejaVuSans-6e"/>
      <use x="1382.636719" xlink:href="#DejaVuSans-29"/>
     </g>
    </g>
   </g>
   <g id="matplotlib.axis_2">
    <g id="ytick_1">
     <g id="line2d_11">
      <path clip-path="url(#p6a051fa221)" d="M 56.12 294.88 
L 333.168 294.88 
" style="fill:none;stroke:#b0b0b0;stroke-linecap:square;stroke-width:0.8;"/>
     </g>
     <g id="line2d_12">
      <defs>
       <path d="M 0 0 
L -3.5 0 
" id="mad4081d3c9" style="stroke:#000000;stroke-width:0.8;"/>
      </defs>
      <g>
       <use style="stroke:#000000;stroke-width:0.8;" x="56.12" xlink:href="#mad4081d3c9" y="294.88"/>
      </g>
     </g>
     <g id="text_3">
      <!-- 0.0 -->
      <defs>
       <path d="M 10.6875 12.40625 
L 21 12.40625 
L 21 0 
L 10.6875 0 
z
" id="DejaVuSans-2e"/>
      </defs>
      <g transform="translate(23.675 300.95875)scale(0.16 -0.16)">
       <use xlink:href="#DejaVuSans-30"/>
       <use x="63.623047" xlink:href="#DejaVuSans-2e"/>
       <use x="95.410156" xlink:href="#DejaVuSans-30"/>
      </g>
     </g>
    </g>
    <g id="ytick_2">
     <g id="line2d_13">
      <path clip-path="url(#p6a051fa221)" d="M 56.12 237.843411 
L 333.168 237.843411 
" style="fill:none;stroke:#b0b0b0;stroke-linecap:square;stroke-width:0.8;"/>
     </g>
     <g id="line2d_14">
      <g>
       <use style="stroke:#000000;stroke-width:0.8;" x="56.12" xlink:href="#mad4081d3c9" y="237.843411"/>
      </g>
     </g>
     <g id="text_4">
      <!-- 0.2 -->
      <defs>
       <path d="M 19.1875 8.296875 
L 53.609375 8.296875 
L 53.609375 0 
L 7.328125 0 
L 7.328125 8.296875 
Q 12.9375 14.109375 22.625 23.890625 
Q 32.328125 33.6875 34.8125 36.53125 
Q 39.546875 41.84375 41.421875 45.53125 
Q 43.3125 49.21875 43.3125 52.78125 
Q 43.3125 58.59375 39.234375 62.25 
Q 35.15625 65.921875 28.609375 65.921875 
Q 23.96875 65.921875 18.8125 64.3125 
Q 13.671875 62.703125 7.8125 59.421875 
L 7.8125 69.390625 
Q 13.765625 71.78125 18.9375 73 
Q 24.125 74.21875 28.421875 74.21875 
Q 39.75 74.21875 46.484375 68.546875 
Q 53.21875 62.890625 53.21875 53.421875 
Q 53.21875 48.921875 51.53125 44.890625 
Q 49.859375 40.875 45.40625 35.40625 
Q 44.1875 33.984375 37.640625 27.21875 
Q 31.109375 20.453125 19.1875 8.296875 
z
" id="DejaVuSans-32"/>
      </defs>
      <g transform="translate(23.675 243.922161)scale(0.16 -0.16)">
       <use xlink:href="#DejaVuSans-30"/>
       <use x="63.623047" xlink:href="#DejaVuSans-2e"/>
       <use x="95.410156" xlink:href="#DejaVuSans-32"/>
      </g>
     </g>
    </g>
    <g id="ytick_3">
     <g id="line2d_15">
      <path clip-path="url(#p6a051fa221)" d="M 56.12 180.806823 
L 333.168 180.806823 
" style="fill:none;stroke:#b0b0b0;stroke-linecap:square;stroke-width:0.8;"/>
     </g>
     <g id="line2d_16">
      <g>
       <use style="stroke:#000000;stroke-width:0.8;" x="56.12" xlink:href="#mad4081d3c9" y="180.806823"/>
      </g>
     </g>
     <g id="text_5">
      <!-- 0.4 -->
      <defs>
       <path d="M 37.796875 64.3125 
L 12.890625 25.390625 
L 37.796875 25.390625 
z
M 35.203125 72.90625 
L 47.609375 72.90625 
L 47.609375 25.390625 
L 58.015625 25.390625 
L 58.015625 17.1875 
L 47.609375 17.1875 
L 47.609375 0 
L 37.796875 0 
L 37.796875 17.1875 
L 4.890625 17.1875 
L 4.890625 26.703125 
z
" id="DejaVuSans-34"/>
      </defs>
      <g transform="translate(23.675 186.885573)scale(0.16 -0.16)">
       <use xlink:href="#DejaVuSans-30"/>
       <use x="63.623047" xlink:href="#DejaVuSans-2e"/>
       <use x="95.410156" xlink:href="#DejaVuSans-34"/>
      </g>
     </g>
    </g>
    <g id="ytick_4">
     <g id="line2d_17">
      <path clip-path="url(#p6a051fa221)" d="M 56.12 123.770234 
L 333.168 123.770234 
" style="fill:none;stroke:#b0b0b0;stroke-linecap:square;stroke-width:0.8;"/>
     </g>
     <g id="line2d_18">
      <g>
       <use style="stroke:#000000;stroke-width:0.8;" x="56.12" xlink:href="#mad4081d3c9" y="123.770234"/>
      </g>
     </g>
     <g id="text_6">
      <!-- 0.6 -->
      <defs>
       <path d="M 33.015625 40.375 
Q 26.375 40.375 22.484375 35.828125 
Q 18.609375 31.296875 18.609375 23.390625 
Q 18.609375 15.53125 22.484375 10.953125 
Q 26.375 6.390625 33.015625 6.390625 
Q 39.65625 6.390625 43.53125 10.953125 
Q 47.40625 15.53125 47.40625 23.390625 
Q 47.40625 31.296875 43.53125 35.828125 
Q 39.65625 40.375 33.015625 40.375 
z
M 52.59375 71.296875 
L 52.59375 62.3125 
Q 48.875 64.0625 45.09375 64.984375 
Q 41.3125 65.921875 37.59375 65.921875 
Q 27.828125 65.921875 22.671875 59.328125 
Q 17.53125 52.734375 16.796875 39.40625 
Q 19.671875 43.65625 24.015625 45.921875 
Q 28.375 48.1875 33.59375 48.1875 
Q 44.578125 48.1875 50.953125 41.515625 
Q 57.328125 34.859375 57.328125 23.390625 
Q 57.328125 12.15625 50.6875 5.359375 
Q 44.046875 -1.421875 33.015625 -1.421875 
Q 20.359375 -1.421875 13.671875 8.265625 
Q 6.984375 17.96875 6.984375 36.375 
Q 6.984375 53.65625 15.1875 63.9375 
Q 23.390625 74.21875 37.203125 74.21875 
Q 40.921875 74.21875 44.703125 73.484375 
Q 48.484375 72.75 52.59375 71.296875 
z
" id="DejaVuSans-36"/>
      </defs>
      <g transform="translate(23.675 129.848984)scale(0.16 -0.16)">
       <use xlink:href="#DejaVuSans-30"/>
       <use x="63.623047" xlink:href="#DejaVuSans-2e"/>
       <use x="95.410156" xlink:href="#DejaVuSans-36"/>
      </g>
     </g>
    </g>
    <g id="ytick_5">
     <g id="line2d_19">
      <path clip-path="url(#p6a051fa221)" d="M 56.12 66.733646 
L 333.168 66.733646 
" style="fill:none;stroke:#b0b0b0;stroke-linecap:square;stroke-width:0.8;"/>
     </g>
     <g id="line2d_20">
      <g>
       <use style="stroke:#000000;stroke-width:0.8;" x="56.12" xlink:href="#mad4081d3c9" y="66.733646"/>
      </g>
     </g>
     <g id="text_7">
      <!-- 0.8 -->
      <defs>
       <path d="M 31.78125 34.625 
Q 24.75 34.625 20.71875 30.859375 
Q 16.703125 27.09375 16.703125 20.515625 
Q 16.703125 13.921875 20.71875 10.15625 
Q 24.75 6.390625 31.78125 6.390625 
Q 38.8125 6.390625 42.859375 10.171875 
Q 46.921875 13.96875 46.921875 20.515625 
Q 46.921875 27.09375 42.890625 30.859375 
Q 38.875 34.625 31.78125 34.625 
z
M 21.921875 38.8125 
Q 15.578125 40.375 12.03125 44.71875 
Q 8.5 49.078125 8.5 55.328125 
Q 8.5 64.0625 14.71875 69.140625 
Q 20.953125 74.21875 31.78125 74.21875 
Q 42.671875 74.21875 48.875 69.140625 
Q 55.078125 64.0625 55.078125 55.328125 
Q 55.078125 49.078125 51.53125 44.71875 
Q 48 40.375 41.703125 38.8125 
Q 48.828125 37.15625 52.796875 32.3125 
Q 56.78125 27.484375 56.78125 20.515625 
Q 56.78125 9.90625 50.3125 4.234375 
Q 43.84375 -1.421875 31.78125 -1.421875 
Q 19.734375 -1.421875 13.25 4.234375 
Q 6.78125 9.90625 6.78125 20.515625 
Q 6.78125 27.484375 10.78125 32.3125 
Q 14.796875 37.15625 21.921875 38.8125 
z
M 18.3125 54.390625 
Q 18.3125 48.734375 21.84375 45.5625 
Q 25.390625 42.390625 31.78125 42.390625 
Q 38.140625 42.390625 41.71875 45.5625 
Q 45.3125 48.734375 45.3125 54.390625 
Q 45.3125 60.0625 41.71875 63.234375 
Q 38.140625 66.40625 31.78125 66.40625 
Q 25.390625 66.40625 21.84375 63.234375 
Q 18.3125 60.0625 18.3125 54.390625 
z
" id="DejaVuSans-38"/>
      </defs>
      <g transform="translate(23.675 72.812396)scale(0.16 -0.16)">
       <use xlink:href="#DejaVuSans-30"/>
       <use x="63.623047" xlink:href="#DejaVuSans-2e"/>
       <use x="95.410156" xlink:href="#DejaVuSans-38"/>
      </g>
     </g>
    </g>
    <g id="ytick_6">
     <g id="line2d_21">
      <path clip-path="url(#p6a051fa221)" d="M 56.12 9.697057 
L 333.168 9.697057 
" style="fill:none;stroke:#b0b0b0;stroke-linecap:square;stroke-width:0.8;"/>
     </g>
     <g id="line2d_22">
      <g>
       <use style="stroke:#000000;stroke-width:0.8;" x="56.12" xlink:href="#mad4081d3c9" y="9.697057"/>
      </g>
     </g>
     <g id="text_8">
      <!-- 1.0 -->
      <g transform="translate(23.675 15.775807)scale(0.16 -0.16)">
       <use xlink:href="#DejaVuSans-31"/>
       <use x="63.623047" xlink:href="#DejaVuSans-2e"/>
       <use x="95.410156" xlink:href="#DejaVuSans-30"/>
      </g>
     </g>
    </g>
    <g id="text_9">
     <!-- Fraction of function,target pairs -->
     <defs>
      <path d="M 9.8125 72.90625 
L 51.703125 72.90625 
L 51.703125 64.59375 
L 19.671875 64.59375 
L 19.671875 43.109375 
L 48.578125 43.109375 
L 48.578125 34.8125 
L 19.671875 34.8125 
L 19.671875 0 
L 9.8125 0 
z
" id="DejaVuSans-46"/>
      <path d="M 41.109375 46.296875 
Q 39.59375 47.171875 37.8125 47.578125 
Q 36.03125 48 33.890625 48 
Q 26.265625 48 22.1875 43.046875 
Q 18.109375 38.09375 18.109375 28.8125 
L 18.109375 0 
L 9.078125 0 
L 9.078125 54.6875 
L 18.109375 54.6875 
L 18.109375 46.1875 
Q 20.953125 51.171875 25.484375 53.578125 
Q 30.03125 56 36.53125 56 
Q 37.453125 56 38.578125 55.875 
Q 39.703125 55.765625 41.0625 55.515625 
z
" id="DejaVuSans-72"/>
      <path d="M 48.78125 52.59375 
L 48.78125 44.1875 
Q 44.96875 46.296875 41.140625 47.34375 
Q 37.3125 48.390625 33.40625 48.390625 
Q 24.65625 48.390625 19.8125 42.84375 
Q 14.984375 37.3125 14.984375 27.296875 
Q 14.984375 17.28125 19.8125 11.734375 
Q 24.65625 6.203125 33.40625 6.203125 
Q 37.3125 6.203125 41.140625 7.25 
Q 44.96875 8.296875 48.78125 10.40625 
L 48.78125 2.09375 
Q 45.015625 0.34375 40.984375 -0.53125 
Q 36.96875 -1.421875 32.421875 -1.421875 
Q 20.0625 -1.421875 12.78125 6.34375 
Q 5.515625 14.109375 5.515625 27.296875 
Q 5.515625 40.671875 12.859375 48.328125 
Q 20.21875 56 33.015625 56 
Q 37.15625 56 41.109375 55.140625 
Q 45.0625 54.296875 48.78125 52.59375 
z
" id="DejaVuSans-63"/>
      <path d="M 18.3125 70.21875 
L 18.3125 54.6875 
L 36.8125 54.6875 
L 36.8125 47.703125 
L 18.3125 47.703125 
L 18.3125 18.015625 
Q 18.3125 11.328125 20.140625 9.421875 
Q 21.96875 7.515625 27.59375 7.515625 
L 36.8125 7.515625 
L 36.8125 0 
L 27.59375 0 
Q 17.1875 0 13.234375 3.875 
Q 9.28125 7.765625 9.28125 18.015625 
L 9.28125 47.703125 
L 2.6875 47.703125 
L 2.6875 54.6875 
L 9.28125 54.6875 
L 9.28125 70.21875 
z
" id="DejaVuSans-74"/>
      <path d="M 8.5 21.578125 
L 8.5 54.6875 
L 17.484375 54.6875 
L 17.484375 21.921875 
Q 17.484375 14.15625 20.5 10.265625 
Q 23.53125 6.390625 29.59375 6.390625 
Q 36.859375 6.390625 41.078125 11.03125 
Q 45.3125 15.671875 45.3125 23.6875 
L 45.3125 54.6875 
L 54.296875 54.6875 
L 54.296875 0 
L 45.3125 0 
L 45.3125 8.40625 
Q 42.046875 3.421875 37.71875 1 
Q 33.40625 -1.421875 27.6875 -1.421875 
Q 18.265625 -1.421875 13.375 4.4375 
Q 8.5 10.296875 8.5 21.578125 
z
M 31.109375 56 
z
" id="DejaVuSans-75"/>
      <path d="M 11.71875 12.40625 
L 22.015625 12.40625 
L 22.015625 4 
L 14.015625 -11.625 
L 7.71875 -11.625 
L 11.71875 4 
z
" id="DejaVuSans-2c"/>
      <path d="M 18.109375 8.203125 
L 18.109375 -20.796875 
L 9.078125 -20.796875 
L 9.078125 54.6875 
L 18.109375 54.6875 
L 18.109375 46.390625 
Q 20.953125 51.265625 25.265625 53.625 
Q 29.59375 56 35.59375 56 
Q 45.5625 56 51.78125 48.09375 
Q 58.015625 40.1875 58.015625 27.296875 
Q 58.015625 14.40625 51.78125 6.484375 
Q 45.5625 -1.421875 35.59375 -1.421875 
Q 29.59375 -1.421875 25.265625 0.953125 
Q 20.953125 3.328125 18.109375 8.203125 
z
M 48.6875 27.296875 
Q 48.6875 37.203125 44.609375 42.84375 
Q 40.53125 48.484375 33.40625 48.484375 
Q 26.265625 48.484375 22.1875 42.84375 
Q 18.109375 37.203125 18.109375 27.296875 
Q 18.109375 17.390625 22.1875 11.75 
Q 26.265625 6.109375 33.40625 6.109375 
Q 40.53125 6.109375 44.609375 11.75 
Q 48.6875 17.390625 48.6875 27.296875 
z
" id="DejaVuSans-70"/>
     </defs>
     <g transform="translate(16.139531 286.001989)rotate(-90)scale(0.17 -0.17)">
      <use xlink:href="#DejaVuSans-46"/>
      <use x="57.410156" xlink:href="#DejaVuSans-72"/>
      <use x="98.523438" xlink:href="#DejaVuSans-61"/>
      <use x="159.802734" xlink:href="#DejaVuSans-63"/>
      <use x="214.783203" xlink:href="#DejaVuSans-74"/>
      <use x="253.992188" xlink:href="#DejaVuSans-69"/>
      <use x="281.775391" xlink:href="#DejaVuSans-6f"/>
      <use x="342.957031" xlink:href="#DejaVuSans-6e"/>
      <use x="406.335938" xlink:href="#DejaVuSans-20"/>
      <use x="438.123047" xlink:href="#DejaVuSans-6f"/>
      <use x="499.304688" xlink:href="#DejaVuSans-66"/>
      <use x="534.509766" xlink:href="#DejaVuSans-20"/>
      <use x="566.296875" xlink:href="#DejaVuSans-66"/>
      <use x="601.501953" xlink:href="#DejaVuSans-75"/>
      <use x="664.880859" xlink:href="#DejaVuSans-6e"/>
      <use x="728.259766" xlink:href="#DejaVuSans-63"/>
      <use x="783.240234" xlink:href="#DejaVuSans-74"/>
      <use x="822.449219" xlink:href="#DejaVuSans-69"/>
      <use x="850.232422" xlink:href="#DejaVuSans-6f"/>
      <use x="911.414062" xlink:href="#DejaVuSans-6e"/>
      <use x="974.792969" xlink:href="#DejaVuSans-2c"/>
      <use x="1006.580078" xlink:href="#DejaVuSans-74"/>
      <use x="1045.789062" xlink:href="#DejaVuSans-61"/>
      <use x="1107.068359" xlink:href="#DejaVuSans-72"/>
      <use x="1148.166016" xlink:href="#DejaVuSans-67"/>
      <use x="1211.642578" xlink:href="#DejaVuSans-65"/>
      <use x="1273.166016" xlink:href="#DejaVuSans-74"/>
      <use x="1312.375" xlink:href="#DejaVuSans-20"/>
      <use x="1344.162109" xlink:href="#DejaVuSans-70"/>
      <use x="1407.638672" xlink:href="#DejaVuSans-61"/>
      <use x="1468.917969" xlink:href="#DejaVuSans-69"/>
      <use x="1496.701172" xlink:href="#DejaVuSans-72"/>
      <use x="1537.814453" xlink:href="#DejaVuSans-73"/>
     </g>
    </g>
   </g>
   <g id="line2d_23">
    <defs>
     <path d="M 0 1.5 
C 0.397805 1.5 0.77937 1.341951 1.06066 1.06066 
C 1.341951 0.77937 1.5 0.397805 1.5 0 
C 1.5 -0.397805 1.341951 -0.77937 1.06066 -1.06066 
C 0.77937 -1.341951 0.397805 -1.5 0 -1.5 
C -0.397805 -1.5 -0.77937 -1.341951 -1.06066 -1.06066 
C -1.341951 -0.77937 -1.5 -0.397805 -1.5 0 
C -1.5 0.397805 -1.341951 0.77937 -1.06066 1.06066 
C -0.77937 1.341951 -0.397805 1.5 0 1.5 
z
" id="m4e88cc0e9d" style="stroke:#f5deb3;"/>
    </defs>
    <g>
     <use style="fill:#f5deb3;stroke:#f5deb3;" x="372.799036" xlink:href="#m4e88cc0e9d" y="15.638368"/>
     <use style="fill:#f5deb3;stroke:#f5deb3;" x="372.799036" xlink:href="#m4e88cc0e9d" y="15.638368"/>
    </g>
   </g>
   <g id="line2d_24">
    <defs>
     <path d="M 0 1.5 
C 0.397805 1.5 0.77937 1.341951 1.06066 1.06066 
C 1.341951 0.77937 1.5 0.397805 1.5 0 
C 1.5 -0.397805 1.341951 -0.77937 1.06066 -1.06066 
C 0.77937 -1.341951 0.397805 -1.5 0 -1.5 
C -0.397805 -1.5 -0.77937 -1.341951 -1.06066 -1.06066 
C -1.341951 -0.77937 -1.5 -0.397805 -1.5 0 
C -1.5 0.397805 -1.341951 0.77937 -1.06066 1.06066 
C -0.77937 1.341951 -0.397805 1.5 0 1.5 
z
" id="maee5952971" style="stroke:#000080;"/>
    </defs>
    <g>
     <use style="fill:#000080;stroke:#000080;" x="397.884781" xlink:href="#maee5952971" y="142.386343"/>
     <use style="fill:#000080;stroke:#000080;" x="397.884781" xlink:href="#maee5952971" y="142.386343"/>
    </g>
   </g>
   <g id="line2d_25">
    <path d="M -1 271.510842 
L 14.510178 271.510842 
L 14.510178 264.9754 
L 37.943615 264.9754 
L 37.943615 258.836045 
L 56.12 258.836045 
L 56.12 252.102559 
L 70.971188 252.102559 
L 70.971188 246.161247 
L 83.527689 246.161247 
L 83.527689 238.239499 
L 94.404625 238.239499 
L 94.404625 232.298188 
L 103.998762 232.298188 
L 103.998762 229.129488 
L 112.58101 229.129488 
L 112.58101 227.149051 
L 120.344598 227.149051 
L 120.344598 225.564701 
L 127.432198 225.564701 
L 127.432198 223.980352 
L 133.952159 223.980352 
L 133.952159 221.603827 
L 139.988699 221.603827 
L 139.988699 218.435128 
L 145.608584 218.435128 
L 145.608584 216.256647 
L 150.865635 216.256647 
L 150.865635 214.078166 
L 155.803875 214.078166 
L 155.803875 213.087948 
L 160.459772 213.087948 
L 160.459772 211.107511 
L 164.863873 211.107511 
L 164.863873 210.315336 
L 169.04202 210.315336 
L 169.04202 209.523161 
L 173.016273 209.523161 
L 173.016273 208.334899 
L 176.805608 208.334899 
L 176.805608 207.542724 
L 180.426472 207.542724 
L 180.426472 206.750549 
L 183.893209 206.750549 
L 183.893209 206.354461 
L 187.218406 206.354461 
L 187.218406 205.958374 
L 190.413169 205.958374 
L 190.413169 204.374024 
L 193.487346 204.374024 
L 193.487346 203.383806 
L 196.449709 203.383806 
L 196.449709 202.195544 
L 199.308109 202.195544 
L 199.308109 201.799456 
L 202.069594 201.799456 
L 202.069594 200.611194 
L 204.740523 200.611194 
L 204.740523 200.215106 
L 207.326645 200.215106 
L 207.326645 198.8288 
L 209.833182 198.8288 
L 209.833182 197.442495 
L 212.264886 197.442495 
L 212.264886 196.056189 
L 214.626095 196.056189 
L 214.626095 195.06597 
L 216.920782 195.06597 
L 216.920782 194.867926 
L 219.152594 194.867926 
L 219.152594 194.273795 
L 221.324883 194.273795 
L 221.324883 192.491402 
L 223.440743 192.491402 
L 223.440743 191.501183 
L 225.503031 191.501183 
L 225.503031 190.907052 
L 229.477283 190.907052 
L 229.477283 190.312921 
L 231.393984 190.312921 
L 231.393984 190.114877 
L 233.266618 190.114877 
L 233.266618 189.520746 
L 236.887482 189.520746 
L 236.887482 189.124659 
L 238.639292 189.124659 
L 238.639292 188.530528 
L 240.354219 188.530528 
L 240.354219 188.332484 
L 242.033784 188.332484 
L 242.033784 187.936396 
L 243.679416 187.936396 
L 243.679416 187.144222 
L 245.292459 187.144222 
L 245.292459 186.55009 
L 246.874179 186.55009 
L 246.874179 186.352047 
L 248.425769 186.352047 
L 248.425769 185.361828 
L 251.443004 185.361828 
L 251.443004 185.163784 
L 252.91072 185.163784 
L 252.91072 184.767697 
L 255.769119 184.767697 
L 255.769119 184.173566 
L 257.161563 184.173566 
L 257.161563 181.797041 
L 258.530604 181.797041 
L 258.530604 181.004867 
L 262.504857 181.004867 
L 262.504857 180.608779 
L 266.294192 180.608779 
L 266.294192 180.014648 
L 268.725896 180.014648 
L 268.725896 178.826386 
L 273.381793 178.826386 
L 273.381793 178.628342 
L 274.505342 178.628342 
L 274.505342 178.430298 
L 276.70699 178.430298 
L 276.70699 178.034211 
L 277.785893 178.034211 
L 277.785893 177.638123 
L 278.850693 177.638123 
L 278.850693 177.242036 
L 279.901753 177.242036 
L 279.901753 176.647905 
L 280.939423 176.647905 
L 280.939423 176.449861 
L 281.964041 176.449861 
L 281.964041 176.251818 
L 283.975403 176.251818 
L 283.975403 175.459643 
L 287.854994 175.459643 
L 287.854994 175.063555 
L 289.727629 175.063555 
L 289.727629 174.865512 
L 290.648045 174.865512 
L 290.648045 174.073337 
L 292.458254 174.073337 
L 292.458254 173.677249 
L 293.348492 173.677249 
L 293.348492 173.479206 
L 294.229107 173.479206 
L 294.229107 172.885074 
L 295.962279 172.885074 
L 295.962279 172.290943 
L 298.494794 172.290943 
L 298.494794 172.0929 
L 300.140426 172.0929 
L 300.140426 171.498768 
L 300.950941 171.498768 
L 300.950941 170.310506 
L 304.114679 170.310506 
L 304.114679 169.914419 
L 304.88678 169.914419 
L 304.88678 169.716375 
L 305.65163 169.716375 
L 305.65163 169.320288 
L 306.409366 169.320288 
L 306.409366 168.330069 
L 307.160118 168.330069 
L 307.160118 168.132025 
L 307.904014 168.132025 
L 307.904014 167.933982 
L 311.524878 167.933982 
L 311.524878 167.735938 
L 314.30997 167.735938 
L 314.30997 167.141807 
L 315.667602 167.141807 
L 315.667602 166.943763 
L 316.338026 166.943763 
L 316.338026 166.745719 
L 318.316812 166.745719 
L 318.316812 166.547676 
L 318.965867 166.547676 
L 318.965867 166.349632 
L 319.609792 166.349632 
L 319.609792 165.755501 
L 320.248666 165.755501 
L 320.248666 165.359413 
L 321.511575 165.359413 
L 321.511575 165.16137 
L 325.186906 165.16137 
L 325.186906 164.567239 
L 326.376066 164.567239 
L 326.376066 163.775064 
L 328.703539 163.775064 
L 328.703539 163.57702 
L 329.275163 163.57702 
L 329.275163 163.378976 
L 329.842803 163.378976 
L 329.842803 163.180933 
L 330.406515 163.180933 
L 330.406515 162.784845 
L 331.522368 162.784845 
L 331.522368 162.586802 
L 332.623142 162.586802 
L 332.623142 161.794627 
L 333.168 161.794627 
L 333.168 161.398539 
L 333.168 161.398539 
" style="fill:none;stroke:#000080;stroke-linecap:square;stroke-width:1.5;"/>
   </g>
   <g id="line2d_26">
    <defs>
     <path d="M 0 6 
C 1.591219 6 3.117479 5.367802 4.242641 4.242641 
C 5.367802 3.117479 6 1.591219 6 0 
C 6 -1.591219 5.367802 -3.117479 4.242641 -4.242641 
C 3.117479 -5.367802 1.591219 -6 0 -6 
C -1.591219 -6 -3.117479 -5.367802 -4.242641 -4.242641 
C -5.367802 -3.117479 -6 -1.591219 -6 0 
C -6 1.591219 -5.367802 3.117479 -4.242641 4.242641 
C -3.117479 5.367802 -1.591219 6 0 6 
z
" id="m52da78e04b" style="stroke:#000080;stroke-width:1.5;"/>
    </defs>
    <g>
     <use style="fill-opacity:0;stroke:#000080;stroke-width:1.5;" x="103.998762" xlink:href="#m52da78e04b" y="232.298188"/>
     <use style="fill-opacity:0;stroke:#000080;stroke-width:1.5;" x="150.865635" xlink:href="#m52da78e04b" y="216.256647"/>
     <use style="fill-opacity:0;stroke:#000080;stroke-width:1.5;" x="207.326645" xlink:href="#m52da78e04b" y="200.215106"/>
     <use style="fill-opacity:0;stroke:#000080;stroke-width:1.5;" x="258.530604" xlink:href="#m52da78e04b" y="181.004867"/>
     <use style="fill-opacity:0;stroke:#000080;stroke-width:1.5;" x="333.168" xlink:href="#m52da78e04b" y="161.794627"/>
     <use style="fill-opacity:0;stroke:#000080;stroke-width:1.5;" x="333.168" xlink:href="#m52da78e04b" y="161.794627"/>
     <use style="fill-opacity:0;stroke:#000080;stroke-width:1.5;" x="333.168" xlink:href="#m52da78e04b" y="161.398539"/>
    </g>
   </g>
   <g id="line2d_27">
    <path style="fill:none;stroke:#000080;stroke-linecap:square;stroke-width:1.5;"/>
    <g/>
   </g>
   <g id="line2d_28">
    <path clip-path="url(#p6a051fa221)" d="M 333.168 161.398539 
" style="fill:none;stroke:#000080;stroke-linecap:square;stroke-width:1.5;"/>
    <defs>
     <path d="M -12 12 
L 12 -12 
M -12 -12 
L 12 12 
" id="m44de9cc4a1" style="stroke:#000080;"/>
    </defs>
    <g clip-path="url(#p6a051fa221)">
     <use style="fill:#000080;stroke:#000080;" x="333.168" xlink:href="#m44de9cc4a1" y="161.398539"/>
    </g>
   </g>
   <g id="line2d_29">
    <defs>
     <path d="M 0 1.5 
C 0.397805 1.5 0.77937 1.341951 1.06066 1.06066 
C 1.341951 0.77937 1.5 0.397805 1.5 0 
C 1.5 -0.397805 1.341951 -0.77937 1.06066 -1.06066 
C 0.77937 -1.341951 0.397805 -1.5 0 -1.5 
C -0.397805 -1.5 -0.77937 -1.341951 -1.06066 -1.06066 
C -1.341951 -0.77937 -1.5 -0.397805 -1.5 0 
C -1.5 0.397805 -1.341951 0.77937 -1.06066 1.06066 
C -0.77937 1.341951 -0.397805 1.5 0 1.5 
z
" id="m21042dc1a1" style="stroke:#ff00ff;"/>
    </defs>
    <g>
     <use style="fill:#ff00ff;stroke:#ff00ff;" x="388.81035" xlink:href="#m21042dc1a1" y="61.188422"/>
     <use style="fill:#ff00ff;stroke:#ff00ff;" x="388.81035" xlink:href="#m21042dc1a1" y="61.188422"/>
    </g>
   </g>
   <g id="line2d_30">
    <path d="M -1 273.095192 
L 14.510178 273.095192 
L 14.510178 261.014526 
L 37.943615 261.014526 
L 37.943615 253.686908 
L 56.12 253.686908 
L 56.12 248.735815 
L 70.971188 248.735815 
L 70.971188 243.982766 
L 83.527689 243.982766 
L 83.527689 236.853193 
L 94.404625 236.853193 
L 94.404625 232.298188 
L 103.998762 232.298188 
L 103.998762 226.158833 
L 112.58101 226.158833 
L 112.58101 222.792089 
L 120.344598 222.792089 
L 120.344598 219.821434 
L 127.432198 219.821434 
L 127.432198 218.633172 
L 133.952159 218.633172 
L 133.952159 218.03904 
L 139.988699 218.03904 
L 139.988699 216.850778 
L 145.608584 216.850778 
L 145.608584 215.266428 
L 150.865635 215.266428 
L 150.865635 211.701642 
L 155.803875 211.701642 
L 155.803875 209.919248 
L 160.459772 209.919248 
L 160.459772 208.92903 
L 164.863873 208.92903 
L 164.863873 207.938811 
L 169.04202 207.938811 
L 169.04202 206.552505 
L 173.016273 206.552505 
L 173.016273 203.185762 
L 176.805608 203.185762 
L 176.805608 202.195544 
L 180.426472 202.195544 
L 180.426472 201.007281 
L 187.218406 201.007281 
L 187.218406 200.215106 
L 190.413169 200.215106 
L 190.413169 199.422932 
L 193.487346 199.422932 
L 193.487346 198.234669 
L 199.308109 198.234669 
L 199.308109 197.640538 
L 202.069594 197.640538 
L 202.069594 195.462057 
L 204.740523 195.462057 
L 204.740523 194.471839 
L 207.326645 194.471839 
L 207.326645 194.075751 
L 209.833182 194.075751 
L 209.833182 193.48162 
L 212.264886 193.48162 
L 212.264886 193.283577 
L 214.626095 193.283577 
L 214.626095 192.491402 
L 216.920782 192.491402 
L 216.920782 190.114877 
L 219.152594 190.114877 
L 219.152594 188.728571 
L 221.324883 188.728571 
L 221.324883 188.530528 
L 223.440743 188.530528 
L 223.440743 176.845949 
L 225.503031 176.845949 
L 225.503031 170.904637 
L 227.514393 170.904637 
L 227.514393 167.339851 
L 229.477283 167.339851 
L 229.477283 162.982889 
L 231.393984 162.982889 
L 231.393984 160.210277 
L 233.266618 160.210277 
L 233.266618 155.061141 
L 235.097168 155.061141 
L 235.097168 153.080703 
L 236.887482 153.080703 
L 236.887482 151.100266 
L 238.639292 151.100266 
L 238.639292 148.327654 
L 240.354219 148.327654 
L 240.354219 146.743305 
L 242.033784 146.743305 
L 242.033784 144.36678 
L 243.679416 144.36678 
L 243.679416 141.792212 
L 245.292459 141.792212 
L 245.292459 139.613731 
L 246.874179 139.613731 
L 246.874179 139.0196 
L 248.425769 139.0196 
L 248.425769 136.841119 
L 249.948356 136.841119 
L 249.948356 135.058726 
L 251.443004 135.058726 
L 251.443004 134.068507 
L 252.91072 134.068507 
L 252.91072 133.276332 
L 254.352457 133.276332 
L 254.352457 131.890026 
L 255.769119 131.890026 
L 255.769119 130.50372 
L 257.161563 130.50372 
L 257.161563 130.107633 
L 258.530604 130.107633 
L 258.530604 128.32524 
L 259.877015 128.32524 
L 259.877015 126.146759 
L 261.201533 126.146759 
L 261.201533 125.948715 
L 262.504857 125.948715 
L 262.504857 125.354584 
L 263.787655 125.354584 
L 263.787655 124.562409 
L 265.050565 124.562409 
L 265.050565 123.572191 
L 266.294192 123.572191 
L 266.294192 121.789797 
L 267.519118 121.789797 
L 267.519118 120.205448 
L 268.725896 120.205448 
L 268.725896 118.026967 
L 269.915056 118.026967 
L 269.915056 117.432836 
L 271.087105 117.432836 
L 271.087105 116.838704 
L 272.242529 116.838704 
L 272.242529 116.04653 
L 273.381793 116.04653 
L 273.381793 115.452398 
L 274.505342 115.452398 
L 274.505342 113.273918 
L 275.613604 113.273918 
L 275.613604 111.689568 
L 276.70699 111.689568 
L 276.70699 110.897393 
L 277.785893 110.897393 
L 277.785893 110.501306 
L 278.850693 110.501306 
L 278.850693 110.105218 
L 279.901753 110.105218 
L 279.901753 109.511087 
L 280.939423 109.511087 
L 280.939423 108.322825 
L 281.964041 108.322825 
L 281.964041 107.53065 
L 282.97593 107.53065 
L 282.97593 107.134563 
L 283.975403 107.134563 
L 283.975403 106.144344 
L 284.962761 106.144344 
L 284.962761 104.956082 
L 285.938293 104.956082 
L 285.938293 104.361951 
L 287.854994 104.361951 
L 287.854994 104.163907 
L 288.796693 104.163907 
L 288.796693 103.371732 
L 289.727629 103.371732 
L 289.727629 103.173688 
L 290.648045 103.173688 
L 290.648045 102.579557 
L 291.558178 102.579557 
L 291.558178 101.787382 
L 292.458254 101.787382 
L 292.458254 100.004989 
L 293.348492 100.004989 
L 293.348492 99.806945 
L 294.229107 99.806945 
L 294.229107 99.212814 
L 295.100302 99.212814 
L 295.100302 98.816727 
L 295.962279 98.816727 
L 295.962279 98.024552 
L 296.815229 98.024552 
L 296.815229 96.83629 
L 297.65934 96.83629 
L 297.65934 95.449984 
L 298.494794 95.449984 
L 298.494794 94.261721 
L 299.321766 94.261721 
L 299.321766 93.469547 
L 300.140426 93.469547 
L 300.140426 93.073459 
L 300.950941 93.073459 
L 300.950941 92.083241 
L 301.753469 92.083241 
L 301.753469 91.687153 
L 302.548169 91.687153 
L 302.548169 90.300847 
L 303.335189 90.300847 
L 303.335189 89.90476 
L 304.114679 89.90476 
L 304.114679 88.914541 
L 304.88678 88.914541 
L 304.88678 88.518454 
L 306.409366 88.518454 
L 306.409366 87.924323 
L 307.160118 87.924323 
L 307.160118 87.528235 
L 307.904014 87.528235 
L 307.904014 86.538017 
L 308.641178 86.538017 
L 308.641178 86.339973 
L 309.37173 86.339973 
L 309.37173 86.141929 
L 311.524878 86.141929 
L 311.524878 85.547798 
L 312.929327 85.547798 
L 312.929327 85.151711 
L 313.622574 85.151711 
L 313.622574 84.953667 
L 314.30997 84.953667 
L 314.30997 83.963449 
L 314.991615 83.963449 
L 314.991615 83.369317 
L 315.667602 83.369317 
L 315.667602 82.577143 
L 316.338026 82.577143 
L 316.338026 81.784968 
L 317.002976 81.784968 
L 317.002976 81.586924 
L 317.662543 81.586924 
L 317.662543 80.794749 
L 318.316812 80.794749 
L 318.316812 80.596705 
L 318.965867 80.596705 
L 318.965867 79.606487 
L 319.609792 79.606487 
L 319.609792 79.210399 
L 320.248666 79.210399 
L 320.248666 79.012356 
L 320.882568 79.012356 
L 320.882568 77.62605 
L 321.511575 77.62605 
L 321.511575 77.229962 
L 322.135762 77.229962 
L 322.135762 76.635831 
L 322.755202 76.635831 
L 322.755202 76.437788 
L 324.585752 76.437788 
L 324.585752 76.239744 
L 325.186906 76.239744 
L 325.186906 75.843656 
L 325.783656 75.843656 
L 325.783656 75.645613 
L 326.376066 75.645613 
L 326.376066 75.051482 
L 326.964199 75.051482 
L 326.964199 74.853438 
L 329.275163 74.853438 
L 329.275163 74.45735 
L 329.842803 74.45735 
L 329.842803 73.863219 
L 330.406515 73.863219 
L 330.406515 73.467132 
L 330.966352 73.467132 
L 330.966352 73.269088 
L 332.074614 73.269088 
L 332.074614 72.476913 
L 333.168 72.476913 
L 333.168 72.080826 
L 333.168 72.080826 
" style="fill:none;stroke:#ff00ff;stroke-linecap:square;stroke-width:1.5;"/>
   </g>
   <g id="line2d_31">
    <defs>
     <path d="M -0 8.485281 
L 5.091169 0 
L 0 -8.485281 
L -5.091169 -0 
z
" id="md46a1a7aac" style="stroke:#ff00ff;stroke-linejoin:miter;stroke-width:1.5;"/>
    </defs>
    <g>
     <use style="fill-opacity:0;stroke:#ff00ff;stroke-linejoin:miter;stroke-width:1.5;" x="70.971188" xlink:href="#md46a1a7aac" y="243.982766"/>
     <use style="fill-opacity:0;stroke:#ff00ff;stroke-linejoin:miter;stroke-width:1.5;" x="139.988699" xlink:href="#md46a1a7aac" y="216.850778"/>
     <use style="fill-opacity:0;stroke:#ff00ff;stroke-linejoin:miter;stroke-width:1.5;" x="199.308109" xlink:href="#md46a1a7aac" y="198.234669"/>
     <use style="fill-opacity:0;stroke:#ff00ff;stroke-linejoin:miter;stroke-width:1.5;" x="246.874179" xlink:href="#md46a1a7aac" y="139.0196"/>
     <use style="fill-opacity:0;stroke:#ff00ff;stroke-linejoin:miter;stroke-width:1.5;" x="295.100302" xlink:href="#md46a1a7aac" y="98.816727"/>
     <use style="fill-opacity:0;stroke:#ff00ff;stroke-linejoin:miter;stroke-width:1.5;" x="333.168" xlink:href="#md46a1a7aac" y="72.476913"/>
     <use style="fill-opacity:0;stroke:#ff00ff;stroke-linejoin:miter;stroke-width:1.5;" x="333.168" xlink:href="#md46a1a7aac" y="72.476913"/>
     <use style="fill-opacity:0;stroke:#ff00ff;stroke-linejoin:miter;stroke-width:1.5;" x="333.168" xlink:href="#md46a1a7aac" y="72.080826"/>
    </g>
   </g>
   <g id="line2d_32">
    <path style="fill:none;stroke:#ff00ff;stroke-linecap:square;stroke-width:1.5;"/>
    <g/>
   </g>
   <g id="line2d_33">
    <path clip-path="url(#p6a051fa221)" d="M 333.168 72.080826 
" style="fill:none;stroke:#ff00ff;stroke-linecap:square;stroke-width:1.5;"/>
    <defs>
     <path d="M -12 12 
L 12 -12 
M -12 -12 
L 12 12 
" id="md5ad77e89d" style="stroke:#ff00ff;"/>
    </defs>
    <g clip-path="url(#p6a051fa221)">
     <use style="fill:#ff00ff;stroke:#ff00ff;" x="333.168" xlink:href="#md5ad77e89d" y="72.080826"/>
    </g>
   </g>
   <g id="line2d_34">
    <defs>
     <path d="M 0 1.5 
C 0.397805 1.5 0.77937 1.341951 1.06066 1.06066 
C 1.341951 0.77937 1.5 0.397805 1.5 0 
C 1.5 -0.397805 1.341951 -0.77937 1.06066 -1.06066 
C 0.77937 -1.341951 0.397805 -1.5 0 -1.5 
C -0.397805 -1.5 -0.77937 -1.341951 -1.06066 -1.06066 
C -1.341951 -0.77937 -1.5 -0.397805 -1.5 0 
C -1.5 0.397805 -1.341951 0.77937 -1.06066 1.06066 
C -0.77937 1.341951 -0.397805 1.5 0 1.5 
z
" id="med13096360" style="stroke:#ffa500;"/>
    </defs>
    <g>
     <use style="fill:#ffa500;stroke:#ffa500;" x="389.62901" xlink:href="#med13096360" y="65.34734"/>
     <use style="fill:#ffa500;stroke:#ffa500;" x="389.62901" xlink:href="#med13096360" y="65.34734"/>
    </g>
   </g>
   <g id="line2d_35">
    <path d="M -1 278.838459 
L 14.510178 278.838459 
L 14.510178 265.965618 
L 37.943615 265.965618 
L 37.943615 258.241914 
L 56.12 258.241914 
L 56.12 249.131903 
L 70.971188 249.131903 
L 70.971188 244.774941 
L 83.527689 244.774941 
L 83.527689 235.070799 
L 94.404625 235.070799 
L 94.404625 231.506013 
L 103.998762 231.506013 
L 103.998762 226.356876 
L 112.58101 226.356876 
L 112.58101 224.178395 
L 120.344598 224.178395 
L 120.344598 222.792089 
L 127.432198 222.792089 
L 127.432198 220.613609 
L 133.952159 220.613609 
L 133.952159 219.029259 
L 139.988699 219.029259 
L 139.988699 218.435128 
L 145.608584 218.435128 
L 145.608584 217.048822 
L 150.865635 217.048822 
L 150.865635 216.256647 
L 155.803875 216.256647 
L 155.803875 214.078166 
L 160.459772 214.078166 
L 160.459772 212.097729 
L 164.863873 212.097729 
L 164.863873 210.315336 
L 169.04202 210.315336 
L 169.04202 209.325117 
L 173.016273 209.325117 
L 173.016273 207.34468 
L 176.805608 207.34468 
L 176.805608 205.76033 
L 180.426472 205.76033 
L 180.426472 201.403369 
L 183.893209 201.403369 
L 183.893209 200.611194 
L 187.218406 200.611194 
L 187.218406 200.215106 
L 190.413169 200.215106 
L 190.413169 198.8288 
L 193.487346 198.8288 
L 193.487346 198.630757 
L 199.308109 198.630757 
L 199.308109 196.056189 
L 202.069594 196.056189 
L 202.069594 194.075751 
L 204.740523 194.075751 
L 204.740523 193.877708 
L 207.326645 193.877708 
L 207.326645 193.085533 
L 209.833182 193.085533 
L 209.833182 191.897271 
L 212.264886 191.897271 
L 212.264886 191.30314 
L 214.626095 191.30314 
L 214.626095 190.510965 
L 216.920782 190.510965 
L 216.920782 189.71879 
L 219.152594 189.71879 
L 219.152594 188.13444 
L 221.324883 188.13444 
L 221.324883 187.144222 
L 223.440743 187.144222 
L 223.440743 175.459643 
L 225.503031 175.459643 
L 225.503031 170.706594 
L 227.514393 170.706594 
L 227.514393 168.528113 
L 229.477283 168.528113 
L 229.477283 165.755501 
L 231.393984 165.755501 
L 231.393984 161.596583 
L 233.266618 161.596583 
L 233.266618 157.437665 
L 235.097168 157.437665 
L 235.097168 155.457228 
L 236.887482 155.457228 
L 236.887482 153.674835 
L 238.639292 153.674835 
L 238.639292 151.100266 
L 240.354219 151.100266 
L 240.354219 149.515917 
L 242.033784 149.515917 
L 242.033784 147.931567 
L 243.679416 147.931567 
L 243.679416 145.753086 
L 245.292459 145.753086 
L 245.292459 144.168736 
L 246.874179 144.168736 
L 246.874179 140.801993 
L 248.425769 140.801993 
L 248.425769 137.633294 
L 249.948356 137.633294 
L 249.948356 135.652857 
L 251.443004 135.652857 
L 251.443004 134.860682 
L 252.91072 134.860682 
L 252.91072 133.474376 
L 254.352457 133.474376 
L 254.352457 133.078289 
L 255.769119 133.078289 
L 255.769119 131.691983 
L 257.161563 131.691983 
L 257.161563 129.909589 
L 258.530604 129.909589 
L 258.530604 128.32524 
L 259.877015 128.32524 
L 259.877015 126.938934 
L 261.201533 126.938934 
L 261.201533 126.542846 
L 262.504857 126.542846 
L 262.504857 125.750671 
L 263.787655 125.750671 
L 263.787655 124.760453 
L 265.050565 124.760453 
L 265.050565 123.374147 
L 266.294192 123.374147 
L 266.294192 122.581972 
L 267.519118 122.581972 
L 267.519118 121.987841 
L 268.725896 121.987841 
L 268.725896 120.997622 
L 269.915056 120.997622 
L 269.915056 118.621098 
L 271.087105 118.621098 
L 271.087105 117.432836 
L 273.381793 117.432836 
L 273.381793 117.234792 
L 274.505342 117.234792 
L 274.505342 116.640661 
L 275.613604 116.640661 
L 275.613604 115.254355 
L 276.70699 115.254355 
L 276.70699 113.868049 
L 277.785893 113.868049 
L 277.785893 112.481743 
L 278.850693 112.481743 
L 278.850693 112.085655 
L 279.901753 112.085655 
L 279.901753 111.491524 
L 280.939423 111.491524 
L 280.939423 111.095437 
L 281.964041 111.095437 
L 281.964041 110.501306 
L 282.97593 110.501306 
L 282.97593 109.313043 
L 283.975403 109.313043 
L 283.975403 108.916956 
L 284.962761 108.916956 
L 284.962761 108.718912 
L 285.938293 108.718912 
L 285.938293 108.124781 
L 286.902281 108.124781 
L 286.902281 107.926737 
L 287.854994 107.926737 
L 287.854994 107.728694 
L 288.796693 107.728694 
L 288.796693 107.332606 
L 289.727629 107.332606 
L 289.727629 106.936519 
L 290.648045 106.936519 
L 290.648045 106.540431 
L 291.558178 106.540431 
L 291.558178 105.154126 
L 292.458254 105.154126 
L 292.458254 104.559994 
L 293.348492 104.559994 
L 293.348492 104.163907 
L 294.229107 104.163907 
L 294.229107 102.975645 
L 295.962279 102.975645 
L 295.962279 101.589339 
L 296.815229 101.589339 
L 296.815229 100.797164 
L 297.65934 100.797164 
L 297.65934 100.004989 
L 298.494794 100.004989 
L 298.494794 99.410858 
L 299.321766 99.410858 
L 299.321766 98.618683 
L 300.140426 98.618683 
L 300.140426 98.420639 
L 300.950941 98.420639 
L 300.950941 96.83629 
L 301.753469 96.83629 
L 301.753469 96.044115 
L 302.548169 96.044115 
L 302.548169 95.846071 
L 304.114679 95.846071 
L 304.114679 95.449984 
L 307.160118 95.449984 
L 307.160118 95.25194 
L 307.904014 95.25194 
L 307.904014 94.459765 
L 308.641178 94.459765 
L 308.641178 93.66759 
L 309.37173 93.66759 
L 309.37173 92.281284 
L 310.095788 92.281284 
L 310.095788 91.885197 
L 312.230129 91.885197 
L 312.230129 91.093022 
L 312.929327 91.093022 
L 312.929327 90.498891 
L 313.622574 90.498891 
L 313.622574 89.508672 
L 314.30997 89.508672 
L 314.30997 88.716498 
L 314.991615 88.716498 
L 314.991615 88.122366 
L 315.667602 88.122366 
L 315.667602 87.924323 
L 316.338026 87.924323 
L 316.338026 87.726279 
L 317.002976 87.726279 
L 317.002976 87.528235 
L 317.662543 87.528235 
L 317.662543 86.934104 
L 318.316812 86.934104 
L 318.316812 86.339973 
L 320.248666 86.339973 
L 320.248666 85.547798 
L 320.882568 85.547798 
L 320.882568 85.349754 
L 323.369968 85.349754 
L 323.369968 84.359536 
L 323.980128 84.359536 
L 323.980128 83.765405 
L 325.186906 83.765405 
L 325.186906 82.379099 
L 325.783656 82.379099 
L 325.783656 82.181055 
L 326.376066 82.181055 
L 326.376066 81.784968 
L 326.964199 81.784968 
L 326.964199 81.190837 
L 328.127876 81.190837 
L 328.127876 80.794749 
L 328.703539 80.794749 
L 328.703539 80.002574 
L 329.275163 80.002574 
L 329.275163 79.804531 
L 330.406515 79.804531 
L 330.406515 79.606487 
L 330.966352 79.606487 
L 330.966352 79.408443 
L 331.522368 79.408443 
L 331.522368 78.616268 
L 332.074614 78.616268 
L 332.074614 78.220181 
L 332.623142 78.220181 
L 332.623142 78.022137 
L 333.168 78.022137 
L 333.168 77.62605 
L 333.168 77.62605 
" style="fill:none;stroke:#ffa500;stroke-linecap:square;stroke-width:1.5;"/>
   </g>
   <g id="line2d_36">
    <defs>
     <path d="M 0 -6 
L -1.347084 -1.854102 
L -5.706339 -1.854102 
L -2.179628 0.708204 
L -3.526712 4.854102 
L -0 2.291796 
L 3.526712 4.854102 
L 2.179628 0.708204 
L 5.706339 -1.854102 
L 1.347084 -1.854102 
z
" id="mfb5fab4566" style="stroke:#ffa500;stroke-linejoin:bevel;stroke-width:1.5;"/>
    </defs>
    <g>
     <use style="fill-opacity:0;stroke:#ffa500;stroke-linejoin:bevel;stroke-width:1.5;" x="70.971188" xlink:href="#mfb5fab4566" y="249.131903"/>
     <use style="fill-opacity:0;stroke:#ffa500;stroke-linejoin:bevel;stroke-width:1.5;" x="127.432198" xlink:href="#mfb5fab4566" y="220.613609"/>
     <use style="fill-opacity:0;stroke:#ffa500;stroke-linejoin:bevel;stroke-width:1.5;" x="173.016273" xlink:href="#mfb5fab4566" y="209.325117"/>
     <use style="fill-opacity:0;stroke:#ffa500;stroke-linejoin:bevel;stroke-width:1.5;" x="233.266618" xlink:href="#mfb5fab4566" y="157.437665"/>
     <use style="fill-opacity:0;stroke:#ffa500;stroke-linejoin:bevel;stroke-width:1.5;" x="285.938293" xlink:href="#mfb5fab4566" y="108.718912"/>
     <use style="fill-opacity:0;stroke:#ffa500;stroke-linejoin:bevel;stroke-width:1.5;" x="333.168" xlink:href="#mfb5fab4566" y="78.022137"/>
     <use style="fill-opacity:0;stroke:#ffa500;stroke-linejoin:bevel;stroke-width:1.5;" x="333.168" xlink:href="#mfb5fab4566" y="78.022137"/>
     <use style="fill-opacity:0;stroke:#ffa500;stroke-linejoin:bevel;stroke-width:1.5;" x="333.168" xlink:href="#mfb5fab4566" y="77.62605"/>
    </g>
   </g>
   <g id="line2d_37">
    <path style="fill:none;stroke:#ffa500;stroke-linecap:square;stroke-width:1.5;"/>
    <g/>
   </g>
   <g id="line2d_38">
    <path clip-path="url(#p6a051fa221)" d="M 333.168 77.62605 
" style="fill:none;stroke:#ffa500;stroke-linecap:square;stroke-width:1.5;"/>
    <defs>
     <path d="M -12 12 
L 12 -12 
M -12 -12 
L 12 12 
" id="mcb3e51bfaf" style="stroke:#ffa500;"/>
    </defs>
    <g clip-path="url(#p6a051fa221)">
     <use style="fill:#ffa500;stroke:#ffa500;" x="333.168" xlink:href="#mcb3e51bfaf" y="77.62605"/>
    </g>
   </g>
   <g id="line2d_39">
    <defs>
     <path d="M 0 1.5 
C 0.397805 1.5 0.77937 1.341951 1.06066 1.06066 
C 1.341951 0.77937 1.5 0.397805 1.5 0 
C 1.5 -0.397805 1.341951 -0.77937 1.06066 -1.06066 
C 0.77937 -1.341951 0.397805 -1.5 0 -1.5 
C -0.397805 -1.5 -0.77937 -1.341951 -1.06066 -1.06066 
C -1.341951 -0.77937 -1.5 -0.397805 -1.5 0 
C -1.5 0.397805 -1.341951 0.77937 -1.06066 1.06066 
C -0.77937 1.341951 -0.397805 1.5 0 1.5 
z
" id="m81be4ed1da" style="stroke:#6495ed;"/>
    </defs>
    <g>
     <use style="fill:#6495ed;stroke:#6495ed;" x="397.145387" xlink:href="#m81be4ed1da" y="106.738475"/>
     <use style="fill:#6495ed;stroke:#6495ed;" x="397.145387" xlink:href="#m81be4ed1da" y="106.738475"/>
    </g>
   </g>
   <g id="line2d_40">
    <path d="M -1 275.273673 
L 14.510178 275.273673 
L 14.510178 267.946055 
L 37.943615 267.946055 
L 37.943615 262.598875 
L 56.12 262.598875 
L 56.12 257.053651 
L 70.971188 257.053651 
L 70.971188 250.518209 
L 83.527689 250.518209 
L 83.527689 248.933859 
L 94.404625 248.933859 
L 94.404625 243.190592 
L 103.998762 243.190592 
L 103.998762 241.012111 
L 112.58101 241.012111 
L 112.58101 238.437543 
L 120.344598 238.437543 
L 120.344598 236.259062 
L 127.432198 236.259062 
L 127.432198 230.911882 
L 133.952159 230.911882 
L 133.952159 229.525576 
L 139.988699 229.525576 
L 139.988699 227.545138 
L 145.608584 227.545138 
L 145.608584 222.197958 
L 150.865635 222.197958 
L 150.865635 215.662516 
L 155.803875 215.662516 
L 155.803875 214.078166 
L 160.459772 214.078166 
L 160.459772 211.305554 
L 164.863873 211.305554 
L 164.863873 210.117292 
L 169.04202 210.117292 
L 169.04202 208.92903 
L 173.016273 208.92903 
L 173.016273 208.334899 
L 176.805608 208.334899 
L 176.805608 207.34468 
L 180.426472 207.34468 
L 180.426472 205.76033 
L 183.893209 205.76033 
L 183.893209 204.572068 
L 187.218406 204.572068 
L 187.218406 203.58185 
L 190.413169 203.58185 
L 190.413169 203.383806 
L 193.487346 203.383806 
L 193.487346 201.403369 
L 196.449709 201.403369 
L 196.449709 200.215106 
L 202.069594 200.215106 
L 202.069594 198.630757 
L 204.740523 198.630757 
L 204.740523 197.838582 
L 207.326645 197.838582 
L 207.326645 196.848363 
L 209.833182 196.848363 
L 209.833182 196.254232 
L 212.264886 196.254232 
L 212.264886 195.462057 
L 214.626095 195.462057 
L 214.626095 194.471839 
L 216.920782 194.471839 
L 216.920782 193.48162 
L 219.152594 193.48162 
L 219.152594 193.283577 
L 221.324883 193.283577 
L 221.324883 192.293358 
L 223.440743 192.293358 
L 223.440743 190.907052 
L 225.503031 190.907052 
L 225.503031 187.540309 
L 227.514393 187.540309 
L 227.514393 185.559872 
L 229.477283 185.559872 
L 229.477283 183.975522 
L 231.393984 183.975522 
L 231.393984 182.193129 
L 233.266618 182.193129 
L 233.266618 180.212692 
L 235.097168 180.212692 
L 235.097168 176.053774 
L 236.887482 176.053774 
L 236.887482 173.677249 
L 238.639292 173.677249 
L 238.639292 172.687031 
L 240.354219 172.687031 
L 240.354219 172.0929 
L 242.033784 172.0929 
L 242.033784 170.50855 
L 243.679416 170.50855 
L 243.679416 169.716375 
L 245.292459 169.716375 
L 245.292459 168.528113 
L 246.874179 168.528113 
L 246.874179 167.735938 
L 248.425769 167.735938 
L 248.425769 166.547676 
L 249.948356 166.547676 
L 249.948356 165.557457 
L 251.443004 165.557457 
L 251.443004 163.775064 
L 252.91072 163.775064 
L 252.91072 163.378976 
L 254.352457 163.378976 
L 254.352457 162.982889 
L 255.769119 162.982889 
L 255.769119 161.99267 
L 257.161563 161.99267 
L 257.161563 161.596583 
L 258.530604 161.596583 
L 258.530604 160.804408 
L 259.877015 160.804408 
L 259.877015 160.210277 
L 261.201533 160.210277 
L 261.201533 159.418102 
L 262.504857 159.418102 
L 262.504857 158.22984 
L 263.787655 158.22984 
L 263.787655 156.447446 
L 265.050565 156.447446 
L 265.050565 156.051359 
L 266.294192 156.051359 
L 266.294192 155.655272 
L 267.519118 155.655272 
L 267.519118 153.674835 
L 268.725896 153.674835 
L 268.725896 152.288529 
L 269.915056 152.288529 
L 269.915056 151.29831 
L 271.087105 151.29831 
L 271.087105 151.100266 
L 272.242529 151.100266 
L 272.242529 150.704179 
L 273.381793 150.704179 
L 273.381793 148.921786 
L 274.505342 148.921786 
L 274.505342 148.525698 
L 275.613604 148.525698 
L 275.613604 148.129611 
L 277.785893 148.129611 
L 277.785893 147.931567 
L 279.901753 147.931567 
L 279.901753 147.733523 
L 280.939423 147.733523 
L 280.939423 147.139392 
L 282.97593 147.139392 
L 282.97593 146.941348 
L 283.975403 146.941348 
L 283.975403 145.95113 
L 284.962761 145.95113 
L 284.962761 145.753086 
L 285.938293 145.753086 
L 285.938293 145.555042 
L 287.854994 145.555042 
L 287.854994 145.356999 
L 289.727629 145.356999 
L 289.727629 144.564824 
L 290.648045 144.564824 
L 290.648045 144.168736 
L 291.558178 144.168736 
L 291.558178 143.178518 
L 293.348492 143.178518 
L 293.348492 142.980474 
L 294.229107 142.980474 
L 294.229107 141.396125 
L 295.100302 141.396125 
L 295.100302 141.198081 
L 295.962279 141.198081 
L 295.962279 140.801993 
L 298.494794 140.801993 
L 298.494794 140.207862 
L 299.321766 140.207862 
L 299.321766 139.217644 
L 300.140426 139.217644 
L 300.140426 139.0196 
L 301.753469 139.0196 
L 301.753469 138.623513 
L 302.548169 138.623513 
L 302.548169 138.425469 
L 303.335189 138.425469 
L 303.335189 137.43525 
L 304.88678 137.43525 
L 304.88678 137.039163 
L 305.65163 137.039163 
L 305.65163 135.850901 
L 306.409366 135.850901 
L 306.409366 135.454813 
L 307.904014 135.454813 
L 307.904014 134.464595 
L 308.641178 134.464595 
L 308.641178 134.266551 
L 309.37173 134.266551 
L 309.37173 134.068507 
L 310.095788 134.068507 
L 310.095788 133.67242 
L 312.230129 133.67242 
L 312.230129 132.286114 
L 312.929327 132.286114 
L 312.929327 131.295895 
L 313.622574 131.295895 
L 313.622574 130.899808 
L 314.30997 130.899808 
L 314.30997 130.701764 
L 314.991615 130.701764 
L 314.991615 130.305677 
L 317.002976 130.305677 
L 317.002976 129.711546 
L 318.316812 129.711546 
L 318.316812 129.513502 
L 318.965867 129.513502 
L 318.965867 128.32524 
L 320.248666 128.32524 
L 320.248666 127.929152 
L 322.135762 127.929152 
L 322.135762 127.533065 
L 322.755202 127.533065 
L 322.755202 127.335021 
L 323.369968 127.335021 
L 323.369968 127.136977 
L 323.980128 127.136977 
L 323.980128 126.938934 
L 324.585752 126.938934 
L 324.585752 126.74089 
L 325.783656 126.74089 
L 325.783656 126.542846 
L 327.548115 126.542846 
L 327.548115 126.344803 
L 331.522368 126.344803 
L 331.522368 125.948715 
L 332.623142 125.948715 
L 332.623142 125.15654 
L 333.168 125.15654 
L 333.168 125.15654 
" style="fill:none;stroke:#6495ed;stroke-linecap:square;stroke-width:1.5;"/>
   </g>
   <g id="line2d_41">
    <defs>
     <path d="M -0 6 
L 6 -6 
L -6 -6 
z
" id="mde6cdf6172" style="stroke:#6495ed;stroke-linejoin:miter;stroke-width:1.5;"/>
    </defs>
    <g>
     <use style="fill-opacity:0;stroke:#6495ed;stroke-linejoin:miter;stroke-width:1.5;" x="127.432198" xlink:href="#mde6cdf6172" y="236.259062"/>
     <use style="fill-opacity:0;stroke:#6495ed;stroke-linejoin:miter;stroke-width:1.5;" x="190.413169" xlink:href="#mde6cdf6172" y="203.383806"/>
     <use style="fill-opacity:0;stroke:#6495ed;stroke-linejoin:miter;stroke-width:1.5;" x="242.033784" xlink:href="#mde6cdf6172" y="170.50855"/>
     <use style="fill-opacity:0;stroke:#6495ed;stroke-linejoin:miter;stroke-width:1.5;" x="282.97593" xlink:href="#mde6cdf6172" y="147.139392"/>
     <use style="fill-opacity:0;stroke:#6495ed;stroke-linejoin:miter;stroke-width:1.5;" x="332.623142" xlink:href="#mde6cdf6172" y="125.15654"/>
     <use style="fill-opacity:0;stroke:#6495ed;stroke-linejoin:miter;stroke-width:1.5;" x="332.623142" xlink:href="#mde6cdf6172" y="125.15654"/>
     <use style="fill-opacity:0;stroke:#6495ed;stroke-linejoin:miter;stroke-width:1.5;" x="333.168" xlink:href="#mde6cdf6172" y="125.15654"/>
    </g>
   </g>
   <g id="line2d_42">
    <path style="fill:none;stroke:#6495ed;stroke-linecap:square;stroke-width:1.5;"/>
    <g/>
   </g>
   <g id="line2d_43">
    <path clip-path="url(#p6a051fa221)" d="M 333.168 125.15654 
" style="fill:none;stroke:#6495ed;stroke-linecap:square;stroke-width:1.5;"/>
    <defs>
     <path d="M -12 12 
L 12 -12 
M -12 -12 
L 12 12 
" id="m8712941c90" style="stroke:#6495ed;"/>
    </defs>
    <g clip-path="url(#p6a051fa221)">
     <use style="fill:#6495ed;stroke:#6495ed;" x="333.168" xlink:href="#m8712941c90" y="125.15654"/>
    </g>
   </g>
   <g id="line2d_44">
    <path d="M 333.168 161.398539 
L 363.64328 289.176341 
" style="fill:none;stroke:#000080;stroke-linecap:square;stroke-width:1.5;"/>
    <g>
     <use style="fill-opacity:0;stroke:#000080;stroke-width:1.5;" x="333.168" xlink:href="#m52da78e04b" y="161.398539"/>
     <use style="fill-opacity:0;stroke:#000080;stroke-width:1.5;" x="363.64328" xlink:href="#m52da78e04b" y="289.176341"/>
    </g>
   </g>
   <g id="line2d_45">
    <path d="M 333.168 125.15654 
L 363.64328 220.732435 
" style="fill:none;stroke:#6495ed;stroke-linecap:square;stroke-width:1.5;"/>
    <g>
     <use style="fill-opacity:0;stroke:#6495ed;stroke-linejoin:miter;stroke-width:1.5;" x="333.168" xlink:href="#mde6cdf6172" y="125.15654"/>
     <use style="fill-opacity:0;stroke:#6495ed;stroke-linejoin:miter;stroke-width:1.5;" x="363.64328" xlink:href="#mde6cdf6172" y="220.732435"/>
    </g>
   </g>
   <g id="line2d_46">
    <path d="M 333.168 77.62605 
L 363.64328 152.288529 
" style="fill:none;stroke:#ffa500;stroke-linecap:square;stroke-width:1.5;"/>
    <g>
     <use style="fill-opacity:0;stroke:#ffa500;stroke-linejoin:bevel;stroke-width:1.5;" x="333.168" xlink:href="#mfb5fab4566" y="77.62605"/>
     <use style="fill-opacity:0;stroke:#ffa500;stroke-linejoin:bevel;stroke-width:1.5;" x="363.64328" xlink:href="#mfb5fab4566" y="152.288529"/>
    </g>
   </g>
   <g id="line2d_47">
    <path d="M 333.168 72.080826 
L 363.64328 83.844622 
" style="fill:none;stroke:#ff00ff;stroke-linecap:square;stroke-width:1.5;"/>
    <g>
     <use style="fill-opacity:0;stroke:#ff00ff;stroke-linejoin:miter;stroke-width:1.5;" x="333.168" xlink:href="#md46a1a7aac" y="72.080826"/>
     <use style="fill-opacity:0;stroke:#ff00ff;stroke-linejoin:miter;stroke-width:1.5;" x="363.64328" xlink:href="#md46a1a7aac" y="83.844622"/>
    </g>
   </g>
   <g id="line2d_48">
    <path d="M 333.168 294.88 
L 333.168 9.697057 
" style="fill:none;stroke:#000000;stroke-linecap:square;stroke-width:1.5;"/>
   </g>
   <g id="patch_3">
    <path d="M 56.12 294.88 
L 56.12 6.845228 
" style="fill:none;stroke:#000000;stroke-linecap:square;stroke-linejoin:miter;stroke-width:0.8;"/>
   </g>
   <g id="patch_4">
    <path d="M 333.168 294.88 
L 333.168 6.845228 
" style="fill:none;stroke:#000000;stroke-linecap:square;stroke-linejoin:miter;stroke-width:0.8;"/>
   </g>
   <g id="patch_5">
    <path d="M 56.12 294.88 
L 333.168 294.88 
" style="fill:none;stroke:#000000;stroke-linecap:square;stroke-linejoin:miter;stroke-width:0.8;"/>
   </g>
   <g id="patch_6">
    <path d="M 56.12 6.845228 
L 333.168 6.845228 
" style="fill:none;stroke:#000000;stroke-linecap:square;stroke-linejoin:miter;stroke-width:0.8;"/>
   </g>
   <g id="text_10">
    <!-- random -->
    <g transform="translate(369.18424 293.867279)scale(0.17 -0.17)">
     <use xlink:href="#DejaVuSans-72"/>
     <use x="41.113281" xlink:href="#DejaVuSans-61"/>
     <use x="102.392578" xlink:href="#DejaVuSans-6e"/>
     <use x="165.771484" xlink:href="#DejaVuSans-64"/>
     <use x="229.248047" xlink:href="#DejaVuSans-6f"/>
     <use x="290.429688" xlink:href="#DejaVuSans-6d"/>
    </g>
   </g>
   <g id="text_11">
    <!-- EilocM -->
    <defs>
     <path d="M 9.8125 72.90625 
L 55.90625 72.90625 
L 55.90625 64.59375 
L 19.671875 64.59375 
L 19.671875 43.015625 
L 54.390625 43.015625 
L 54.390625 34.71875 
L 19.671875 34.71875 
L 19.671875 8.296875 
L 56.78125 8.296875 
L 56.78125 0 
L 9.8125 0 
z
" id="DejaVuSans-45"/>
     <path d="M 9.8125 72.90625 
L 24.515625 72.90625 
L 43.109375 23.296875 
L 61.8125 72.90625 
L 76.515625 72.90625 
L 76.515625 0 
L 66.890625 0 
L 66.890625 64.015625 
L 48.09375 14.015625 
L 38.1875 14.015625 
L 19.390625 64.015625 
L 19.390625 0 
L 9.8125 0 
z
" id="DejaVuSans-4d"/>
    </defs>
    <g transform="translate(369.18424 225.423372)scale(0.17 -0.17)">
     <use xlink:href="#DejaVuSans-45"/>
     <use x="63.183594" xlink:href="#DejaVuSans-69"/>
     <use x="90.966797" xlink:href="#DejaVuSans-6c"/>
     <use x="118.75" xlink:href="#DejaVuSans-6f"/>
     <use x="179.931641" xlink:href="#DejaVuSans-63"/>
     <use x="234.912109" xlink:href="#DejaVuSans-4d"/>
    </g>
   </g>
   <g id="text_12">
    <!-- EirandM -->
    <g transform="translate(369.18424 156.979466)scale(0.17 -0.17)">
     <use xlink:href="#DejaVuSans-45"/>
     <use x="63.183594" xlink:href="#DejaVuSans-69"/>
     <use x="90.966797" xlink:href="#DejaVuSans-72"/>
     <use x="132.080078" xlink:href="#DejaVuSans-61"/>
     <use x="193.359375" xlink:href="#DejaVuSans-6e"/>
     <use x="256.738281" xlink:href="#DejaVuSans-64"/>
     <use x="320.214844" xlink:href="#DejaVuSans-4d"/>
    </g>
   </g>
   <g id="text_13">
    <!-- M -->
    <g transform="translate(369.18424 88.53556)scale(0.17 -0.17)">
     <use xlink:href="#DejaVuSans-4d"/>
    </g>
   </g>
   <g id="text_14">
    <!-- best09 -->
    <defs>
     <path d="M 48.6875 27.296875 
Q 48.6875 37.203125 44.609375 42.84375 
Q 40.53125 48.484375 33.40625 48.484375 
Q 26.265625 48.484375 22.1875 42.84375 
Q 18.109375 37.203125 18.109375 27.296875 
Q 18.109375 17.390625 22.1875 11.75 
Q 26.265625 6.109375 33.40625 6.109375 
Q 40.53125 6.109375 44.609375 11.75 
Q 48.6875 17.390625 48.6875 27.296875 
z
M 18.109375 46.390625 
Q 20.953125 51.265625 25.265625 53.625 
Q 29.59375 56 35.59375 56 
Q 45.5625 56 51.78125 48.09375 
Q 58.015625 40.1875 58.015625 27.296875 
Q 58.015625 14.40625 51.78125 6.484375 
Q 45.5625 -1.421875 35.59375 -1.421875 
Q 29.59375 -1.421875 25.265625 0.953125 
Q 20.953125 3.328125 18.109375 8.203125 
L 18.109375 0 
L 9.078125 0 
L 9.078125 75.984375 
L 18.109375 75.984375 
z
" id="DejaVuSans-62"/>
     <path d="M 10.984375 1.515625 
L 10.984375 10.5 
Q 14.703125 8.734375 18.5 7.8125 
Q 22.3125 6.890625 25.984375 6.890625 
Q 35.75 6.890625 40.890625 13.453125 
Q 46.046875 20.015625 46.78125 33.40625 
Q 43.953125 29.203125 39.59375 26.953125 
Q 35.25 24.703125 29.984375 24.703125 
Q 19.046875 24.703125 12.671875 31.3125 
Q 6.296875 37.9375 6.296875 49.421875 
Q 6.296875 60.640625 12.9375 67.421875 
Q 19.578125 74.21875 30.609375 74.21875 
Q 43.265625 74.21875 49.921875 64.515625 
Q 56.59375 54.828125 56.59375 36.375 
Q 56.59375 19.140625 48.40625 8.859375 
Q 40.234375 -1.421875 26.421875 -1.421875 
Q 22.703125 -1.421875 18.890625 -0.6875 
Q 15.09375 0.046875 10.984375 1.515625 
z
M 30.609375 32.421875 
Q 37.25 32.421875 41.125 36.953125 
Q 45.015625 41.5 45.015625 49.421875 
Q 45.015625 57.28125 41.125 61.84375 
Q 37.25 66.40625 30.609375 66.40625 
Q 23.96875 66.40625 20.09375 61.84375 
Q 16.21875 57.28125 16.21875 49.421875 
Q 16.21875 41.5 20.09375 36.953125 
Q 23.96875 32.421875 30.609375 32.421875 
z
" id="DejaVuSans-39"/>
    </defs>
    <g transform="translate(369.18424 20.091654)scale(0.17 -0.17)">
     <use xlink:href="#DejaVuSans-62"/>
     <use x="63.476562" xlink:href="#DejaVuSans-65"/>
     <use x="125" xlink:href="#DejaVuSans-73"/>
     <use x="177.099609" xlink:href="#DejaVuSans-74"/>
     <use x="216.308594" xlink:href="#DejaVuSans-30"/>
     <use x="279.931641" xlink:href="#DejaVuSans-39"/>
    </g>
   </g>
   <g id="text_15">
    <!-- bbob f1-f24, 5-D -->
    <defs>
     <path d="M 10.796875 72.90625 
L 49.515625 72.90625 
L 49.515625 64.59375 
L 19.828125 64.59375 
L 19.828125 46.734375 
Q 21.96875 47.46875 24.109375 47.828125 
Q 26.265625 48.1875 28.421875 48.1875 
Q 40.625 48.1875 47.75 41.5 
Q 54.890625 34.8125 54.890625 23.390625 
Q 54.890625 11.625 47.5625 5.09375 
Q 40.234375 -1.421875 26.90625 -1.421875 
Q 22.3125 -1.421875 17.546875 -0.640625 
Q 12.796875 0.140625 7.71875 1.703125 
L 7.71875 11.625 
Q 12.109375 9.234375 16.796875 8.0625 
Q 21.484375 6.890625 26.703125 6.890625 
Q 35.15625 6.890625 40.078125 11.328125 
Q 45.015625 15.765625 45.015625 23.390625 
Q 45.015625 31 40.078125 35.4375 
Q 35.15625 39.890625 26.703125 39.890625 
Q 22.75 39.890625 18.8125 39.015625 
Q 14.890625 38.140625 10.796875 36.28125 
z
" id="DejaVuSans-35"/>
     <path d="M 19.671875 64.796875 
L 19.671875 8.109375 
L 31.59375 8.109375 
Q 46.6875 8.109375 53.6875 14.9375 
Q 60.6875 21.78125 60.6875 36.53125 
Q 60.6875 51.171875 53.6875 57.984375 
Q 46.6875 64.796875 31.59375 64.796875 
z
M 9.8125 72.90625 
L 30.078125 72.90625 
Q 51.265625 72.90625 61.171875 64.09375 
Q 71.09375 55.28125 71.09375 36.53125 
Q 71.09375 17.671875 61.125 8.828125 
Q 51.171875 0 30.078125 0 
L 9.8125 0 
z
" id="DejaVuSans-44"/>
    </defs>
    <g transform="translate(58.89048 17.475982)scale(0.102 -0.102)">
     <use xlink:href="#DejaVuSans-62"/>
     <use x="63.476562" xlink:href="#DejaVuSans-62"/>
     <use x="126.953125" xlink:href="#DejaVuSans-6f"/>
     <use x="188.134766" xlink:href="#DejaVuSans-62"/>
     <use x="251.611328" xlink:href="#DejaVuSans-20"/>
     <use x="283.398438" xlink:href="#DejaVuSans-66"/>
     <use x="318.603516" xlink:href="#DejaVuSans-31"/>
     <use x="382.226562" xlink:href="#DejaVuSans-2d"/>
     <use x="418.310547" xlink:href="#DejaVuSans-66"/>
     <use x="453.515625" xlink:href="#DejaVuSans-32"/>
     <use x="517.138672" xlink:href="#DejaVuSans-34"/>
     <use x="580.761719" xlink:href="#DejaVuSans-2c"/>
     <use x="612.548828" xlink:href="#DejaVuSans-20"/>
     <use x="644.335938" xlink:href="#DejaVuSans-35"/>
     <use x="707.958984" xlink:href="#DejaVuSans-2d"/>
     <use x="744.042969" xlink:href="#DejaVuSans-44"/>
    </g>
    <!-- 8 targets RLs/dim: 0.5..20 -->
    <defs>
     <path d="M 44.390625 34.1875 
Q 47.5625 33.109375 50.5625 29.59375 
Q 53.5625 26.078125 56.59375 19.921875 
L 66.609375 0 
L 56 0 
L 46.6875 18.703125 
Q 43.0625 26.03125 39.671875 28.421875 
Q 36.28125 30.8125 30.421875 30.8125 
L 19.671875 30.8125 
L 19.671875 0 
L 9.8125 0 
L 9.8125 72.90625 
L 32.078125 72.90625 
Q 44.578125 72.90625 50.734375 67.671875 
Q 56.890625 62.453125 56.890625 51.90625 
Q 56.890625 45.015625 53.6875 40.46875 
Q 50.484375 35.9375 44.390625 34.1875 
z
M 19.671875 64.796875 
L 19.671875 38.921875 
L 32.078125 38.921875 
Q 39.203125 38.921875 42.84375 42.21875 
Q 46.484375 45.515625 46.484375 51.90625 
Q 46.484375 58.296875 42.84375 61.546875 
Q 39.203125 64.796875 32.078125 64.796875 
z
" id="DejaVuSans-52"/>
     <path d="M 9.8125 72.90625 
L 19.671875 72.90625 
L 19.671875 8.296875 
L 55.171875 8.296875 
L 55.171875 0 
L 9.8125 0 
z
" id="DejaVuSans-4c"/>
     <path d="M 11.71875 12.40625 
L 22.015625 12.40625 
L 22.015625 0 
L 11.71875 0 
z
M 11.71875 51.703125 
L 22.015625 51.703125 
L 22.015625 39.3125 
L 11.71875 39.3125 
z
" id="DejaVuSans-3a"/>
    </defs>
    <g transform="translate(58.89048 28.89775)scale(0.102 -0.102)">
     <use xlink:href="#DejaVuSans-38"/>
     <use x="63.623047" xlink:href="#DejaVuSans-20"/>
     <use x="95.410156" xlink:href="#DejaVuSans-74"/>
     <use x="134.619141" xlink:href="#DejaVuSans-61"/>
     <use x="195.898438" xlink:href="#DejaVuSans-72"/>
     <use x="236.996094" xlink:href="#DejaVuSans-67"/>
     <use x="300.472656" xlink:href="#DejaVuSans-65"/>
     <use x="361.996094" xlink:href="#DejaVuSans-74"/>
     <use x="401.205078" xlink:href="#DejaVuSans-73"/>
     <use x="453.304688" xlink:href="#DejaVuSans-20"/>
     <use x="485.091797" xlink:href="#DejaVuSans-52"/>
     <use x="554.574219" xlink:href="#DejaVuSans-4c"/>
     <use x="610.287109" xlink:href="#DejaVuSans-73"/>
     <use x="662.386719" xlink:href="#DejaVuSans-2f"/>
     <use x="696.078125" xlink:href="#DejaVuSans-64"/>
     <use x="759.554688" xlink:href="#DejaVuSans-69"/>
     <use x="787.337891" xlink:href="#DejaVuSans-6d"/>
     <use x="884.75" xlink:href="#DejaVuSans-3a"/>
     <use x="918.441406" xlink:href="#DejaVuSans-20"/>
     <use x="950.228516" xlink:href="#DejaVuSans-30"/>
     <use x="1013.851562" xlink:href="#DejaVuSans-2e"/>
     <use x="1045.638672" xlink:href="#DejaVuSans-35"/>
     <use x="1109.261719" xlink:href="#DejaVuSans-2e"/>
     <use x="1141.048828" xlink:href="#DejaVuSans-2e"/>
     <use x="1172.835938" xlink:href="#DejaVuSans-32"/>
     <use x="1236.458984" xlink:href="#DejaVuSans-30"/>
    </g>
    <!--   from /home/local/EMSE2000/leriche/AESOP/EXPE_DOCOCO/bestCustomAlg -->
    <defs>
     <path d="M 54.890625 33.015625 
L 54.890625 0 
L 45.90625 0 
L 45.90625 32.71875 
Q 45.90625 40.484375 42.875 44.328125 
Q 39.84375 48.1875 33.796875 48.1875 
Q 26.515625 48.1875 22.3125 43.546875 
Q 18.109375 38.921875 18.109375 30.90625 
L 18.109375 0 
L 9.078125 0 
L 9.078125 75.984375 
L 18.109375 75.984375 
L 18.109375 46.1875 
Q 21.34375 51.125 25.703125 53.5625 
Q 30.078125 56 35.796875 56 
Q 45.21875 56 50.046875 50.171875 
Q 54.890625 44.34375 54.890625 33.015625 
z
" id="DejaVuSans-68"/>
     <path d="M 53.515625 70.515625 
L 53.515625 60.890625 
Q 47.90625 63.578125 42.921875 64.890625 
Q 37.9375 66.21875 33.296875 66.21875 
Q 25.25 66.21875 20.875 63.09375 
Q 16.5 59.96875 16.5 54.203125 
Q 16.5 49.359375 19.40625 46.890625 
Q 22.3125 44.4375 30.421875 42.921875 
L 36.375 41.703125 
Q 47.40625 39.59375 52.65625 34.296875 
Q 57.90625 29 57.90625 20.125 
Q 57.90625 9.515625 50.796875 4.046875 
Q 43.703125 -1.421875 29.984375 -1.421875 
Q 24.8125 -1.421875 18.96875 -0.25 
Q 13.140625 0.921875 6.890625 3.21875 
L 6.890625 13.375 
Q 12.890625 10.015625 18.65625 8.296875 
Q 24.421875 6.59375 29.984375 6.59375 
Q 38.421875 6.59375 43.015625 9.90625 
Q 47.609375 13.234375 47.609375 19.390625 
Q 47.609375 24.75 44.3125 27.78125 
Q 41.015625 30.8125 33.5 32.328125 
L 27.484375 33.5 
Q 16.453125 35.6875 11.515625 40.375 
Q 6.59375 45.0625 6.59375 53.421875 
Q 6.59375 63.09375 13.40625 68.65625 
Q 20.21875 74.21875 32.171875 74.21875 
Q 37.3125 74.21875 42.625 73.28125 
Q 47.953125 72.359375 53.515625 70.515625 
z
" id="DejaVuSans-53"/>
     <path d="M 34.1875 63.1875 
L 20.796875 26.90625 
L 47.609375 26.90625 
z
M 28.609375 72.90625 
L 39.796875 72.90625 
L 67.578125 0 
L 57.328125 0 
L 50.6875 18.703125 
L 17.828125 18.703125 
L 11.1875 0 
L 0.78125 0 
z
" id="DejaVuSans-41"/>
     <path d="M 39.40625 66.21875 
Q 28.65625 66.21875 22.328125 58.203125 
Q 16.015625 50.203125 16.015625 36.375 
Q 16.015625 22.609375 22.328125 14.59375 
Q 28.65625 6.59375 39.40625 6.59375 
Q 50.140625 6.59375 56.421875 14.59375 
Q 62.703125 22.609375 62.703125 36.375 
Q 62.703125 50.203125 56.421875 58.203125 
Q 50.140625 66.21875 39.40625 66.21875 
z
M 39.40625 74.21875 
Q 54.734375 74.21875 63.90625 63.9375 
Q 73.09375 53.65625 73.09375 36.375 
Q 73.09375 19.140625 63.90625 8.859375 
Q 54.734375 -1.421875 39.40625 -1.421875 
Q 24.03125 -1.421875 14.8125 8.828125 
Q 5.609375 19.09375 5.609375 36.375 
Q 5.609375 53.65625 14.8125 63.9375 
Q 24.03125 74.21875 39.40625 74.21875 
z
" id="DejaVuSans-4f"/>
     <path d="M 19.671875 64.796875 
L 19.671875 37.40625 
L 32.078125 37.40625 
Q 38.96875 37.40625 42.71875 40.96875 
Q 46.484375 44.53125 46.484375 51.125 
Q 46.484375 57.671875 42.71875 61.234375 
Q 38.96875 64.796875 32.078125 64.796875 
z
M 9.8125 72.90625 
L 32.078125 72.90625 
Q 44.34375 72.90625 50.609375 67.359375 
Q 56.890625 61.8125 56.890625 51.125 
Q 56.890625 40.328125 50.609375 34.8125 
Q 44.34375 29.296875 32.078125 29.296875 
L 19.671875 29.296875 
L 19.671875 0 
L 9.8125 0 
z
" id="DejaVuSans-50"/>
     <path d="M 6.296875 72.90625 
L 16.890625 72.90625 
L 35.015625 45.796875 
L 53.21875 72.90625 
L 63.8125 72.90625 
L 40.375 37.890625 
L 65.375 0 
L 54.78125 0 
L 34.28125 31 
L 13.625 0 
L 2.984375 0 
L 29 38.921875 
z
" id="DejaVuSans-58"/>
     <path d="M 50.984375 -16.609375 
L 50.984375 -23.578125 
L -0.984375 -23.578125 
L -0.984375 -16.609375 
z
" id="DejaVuSans-5f"/>
     <path d="M 64.40625 67.28125 
L 64.40625 56.890625 
Q 59.421875 61.53125 53.78125 63.8125 
Q 48.140625 66.109375 41.796875 66.109375 
Q 29.296875 66.109375 22.65625 58.46875 
Q 16.015625 50.828125 16.015625 36.375 
Q 16.015625 21.96875 22.65625 14.328125 
Q 29.296875 6.6875 41.796875 6.6875 
Q 48.140625 6.6875 53.78125 8.984375 
Q 59.421875 11.28125 64.40625 15.921875 
L 64.40625 5.609375 
Q 59.234375 2.09375 53.4375 0.328125 
Q 47.65625 -1.421875 41.21875 -1.421875 
Q 24.65625 -1.421875 15.125 8.703125 
Q 5.609375 18.84375 5.609375 36.375 
Q 5.609375 53.953125 15.125 64.078125 
Q 24.65625 74.21875 41.21875 74.21875 
Q 47.75 74.21875 53.53125 72.484375 
Q 59.328125 70.75 64.40625 67.28125 
z
" id="DejaVuSans-43"/>
    </defs>
    <g transform="translate(58.89048 40.319519)scale(0.102 -0.102)">
     <use xlink:href="#DejaVuSans-20"/>
     <use x="31.787109" xlink:href="#DejaVuSans-20"/>
     <use x="63.574219" xlink:href="#DejaVuSans-66"/>
     <use x="98.779297" xlink:href="#DejaVuSans-72"/>
     <use x="139.861328" xlink:href="#DejaVuSans-6f"/>
     <use x="201.042969" xlink:href="#DejaVuSans-6d"/>
     <use x="298.455078" xlink:href="#DejaVuSans-20"/>
     <use x="330.242188" xlink:href="#DejaVuSans-2f"/>
     <use x="363.933594" xlink:href="#DejaVuSans-68"/>
     <use x="427.3125" xlink:href="#DejaVuSans-6f"/>
     <use x="488.494141" xlink:href="#DejaVuSans-6d"/>
     <use x="585.90625" xlink:href="#DejaVuSans-65"/>
     <use x="647.429688" xlink:href="#DejaVuSans-2f"/>
     <use x="681.121094" xlink:href="#DejaVuSans-6c"/>
     <use x="708.904297" xlink:href="#DejaVuSans-6f"/>
     <use x="770.085938" xlink:href="#DejaVuSans-63"/>
     <use x="825.066406" xlink:href="#DejaVuSans-61"/>
     <use x="886.345703" xlink:href="#DejaVuSans-6c"/>
     <use x="914.128906" xlink:href="#DejaVuSans-2f"/>
     <use x="947.820312" xlink:href="#DejaVuSans-45"/>
     <use x="1011.003906" xlink:href="#DejaVuSans-4d"/>
     <use x="1097.283203" xlink:href="#DejaVuSans-53"/>
     <use x="1160.759766" xlink:href="#DejaVuSans-45"/>
     <use x="1223.943359" xlink:href="#DejaVuSans-32"/>
     <use x="1287.566406" xlink:href="#DejaVuSans-30"/>
     <use x="1351.189453" xlink:href="#DejaVuSans-30"/>
     <use x="1414.8125" xlink:href="#DejaVuSans-30"/>
     <use x="1478.435547" xlink:href="#DejaVuSans-2f"/>
     <use x="1512.126953" xlink:href="#DejaVuSans-6c"/>
     <use x="1539.910156" xlink:href="#DejaVuSans-65"/>
     <use x="1601.433594" xlink:href="#DejaVuSans-72"/>
     <use x="1642.546875" xlink:href="#DejaVuSans-69"/>
     <use x="1670.330078" xlink:href="#DejaVuSans-63"/>
     <use x="1725.310547" xlink:href="#DejaVuSans-68"/>
     <use x="1788.689453" xlink:href="#DejaVuSans-65"/>
     <use x="1850.212891" xlink:href="#DejaVuSans-2f"/>
     <use x="1883.904297" xlink:href="#DejaVuSans-41"/>
     <use x="1952.3125" xlink:href="#DejaVuSans-45"/>
     <use x="2015.496094" xlink:href="#DejaVuSans-53"/>
     <use x="2078.972656" xlink:href="#DejaVuSans-4f"/>
     <use x="2157.683594" xlink:href="#DejaVuSans-50"/>
     <use x="2217.986328" xlink:href="#DejaVuSans-2f"/>
     <use x="2251.677734" xlink:href="#DejaVuSans-45"/>
     <use x="2314.861328" xlink:href="#DejaVuSans-58"/>
     <use x="2383.367188" xlink:href="#DejaVuSans-50"/>
     <use x="2443.669922" xlink:href="#DejaVuSans-45"/>
     <use x="2506.853516" xlink:href="#DejaVuSans-5f"/>
     <use x="2556.853516" xlink:href="#DejaVuSans-44"/>
     <use x="2633.855469" xlink:href="#DejaVuSans-4f"/>
     <use x="2712.566406" xlink:href="#DejaVuSans-43"/>
     <use x="2782.390625" xlink:href="#DejaVuSans-4f"/>
     <use x="2861.101562" xlink:href="#DejaVuSans-43"/>
     <use x="2930.925781" xlink:href="#DejaVuSans-4f"/>
     <use x="3009.636719" xlink:href="#DejaVuSans-2f"/>
     <use x="3043.328125" xlink:href="#DejaVuSans-62"/>
     <use x="3106.804688" xlink:href="#DejaVuSans-65"/>
     <use x="3168.328125" xlink:href="#DejaVuSans-73"/>
     <use x="3220.427734" xlink:href="#DejaVuSans-74"/>
     <use x="3259.636719" xlink:href="#DejaVuSans-43"/>
     <use x="3329.460938" xlink:href="#DejaVuSans-75"/>
     <use x="3392.839844" xlink:href="#DejaVuSans-73"/>
     <use x="3444.939453" xlink:href="#DejaVuSans-74"/>
     <use x="3484.148438" xlink:href="#DejaVuSans-6f"/>
     <use x="3545.330078" xlink:href="#DejaVuSans-6d"/>
     <use x="3642.742188" xlink:href="#DejaVuSans-41"/>
     <use x="3711.150391" xlink:href="#DejaVuSans-6c"/>
     <use x="3738.933594" xlink:href="#DejaVuSans-67"/>
    </g>
    <!-- 15 instances -->
    <g transform="translate(58.89048 52.024975)scale(0.102 -0.102)">
     <use xlink:href="#DejaVuSans-31"/>
     <use x="63.623047" xlink:href="#DejaVuSans-35"/>
     <use x="127.246094" xlink:href="#DejaVuSans-20"/>
     <use x="159.033203" xlink:href="#DejaVuSans-69"/>
     <use x="186.816406" xlink:href="#DejaVuSans-6e"/>
     <use x="250.195312" xlink:href="#DejaVuSans-73"/>
     <use x="302.294922" xlink:href="#DejaVuSans-74"/>
     <use x="341.503906" xlink:href="#DejaVuSans-61"/>
     <use x="402.783203" xlink:href="#DejaVuSans-6e"/>
     <use x="466.162109" xlink:href="#DejaVuSans-63"/>
     <use x="521.142578" xlink:href="#DejaVuSans-65"/>
     <use x="582.666016" xlink:href="#DejaVuSans-73"/>
    </g>
   </g>
   <g id="text_16">
    <!-- v2.3.1 -->
    <defs>
     <path d="M 40.578125 39.3125 
Q 47.65625 37.796875 51.625 33 
Q 55.609375 28.21875 55.609375 21.1875 
Q 55.609375 10.40625 48.1875 4.484375 
Q 40.765625 -1.421875 27.09375 -1.421875 
Q 22.515625 -1.421875 17.65625 -0.515625 
Q 12.796875 0.390625 7.625 2.203125 
L 7.625 11.71875 
Q 11.71875 9.328125 16.59375 8.109375 
Q 21.484375 6.890625 26.8125 6.890625 
Q 36.078125 6.890625 40.9375 10.546875 
Q 45.796875 14.203125 45.796875 21.1875 
Q 45.796875 27.640625 41.28125 31.265625 
Q 36.765625 34.90625 28.71875 34.90625 
L 20.21875 34.90625 
L 20.21875 43.015625 
L 29.109375 43.015625 
Q 36.375 43.015625 40.234375 45.921875 
Q 44.09375 48.828125 44.09375 54.296875 
Q 44.09375 59.90625 40.109375 62.90625 
Q 36.140625 65.921875 28.71875 65.921875 
Q 24.65625 65.921875 20.015625 65.03125 
Q 15.375 64.15625 9.8125 62.3125 
L 9.8125 71.09375 
Q 15.4375 72.65625 20.34375 73.4375 
Q 25.25 74.21875 29.59375 74.21875 
Q 40.828125 74.21875 47.359375 69.109375 
Q 53.90625 64.015625 53.90625 55.328125 
Q 53.90625 49.265625 50.4375 45.09375 
Q 46.96875 40.921875 40.578125 39.3125 
z
" id="DejaVuSans-33"/>
    </defs>
    <g style="fill:#808080;" transform="translate(178.96275 289.919965)scale(0.1 -0.1)">
     <use xlink:href="#DejaVuSans-76"/>
     <use x="59.179688" xlink:href="#DejaVuSans-32"/>
     <use x="122.802734" xlink:href="#DejaVuSans-2e"/>
     <use x="154.589844" xlink:href="#DejaVuSans-33"/>
     <use x="218.212891" xlink:href="#DejaVuSans-2e"/>
     <use x="250" xlink:href="#DejaVuSans-31"/>
    </g>
   </g>
  </g>
 </g>
 <defs>
  <clipPath id="p6a051fa221">
   <rect height="288.034772" width="277.048" x="56.12" y="6.845228"/>
  </clipPath>
 </defs>
</svg>
