<?xml version="1.0" encoding="utf-8" standalone="no"?>
<!DOCTYPE svg PUBLIC "-//W3C//DTD SVG 1.1//EN"
  "http://www.w3.org/Graphics/SVG/1.1/DTD/svg11.dtd">
<!-- Created with matplotlib (https://matplotlib.org/) -->
<svg height="345.6pt" version="1.1" viewBox="0 0 460.8 345.6" width="460.8pt" xmlns="http://www.w3.org/2000/svg" xmlns:xlink="http://www.w3.org/1999/xlink">
 <metadata>
  <rdf:RDF xmlns:cc="http://creativecommons.org/ns#" xmlns:dc="http://purl.org/dc/elements/1.1/" xmlns:rdf="http://www.w3.org/1999/02/22-rdf-syntax-ns#">
   <cc:Work>
    <dc:type rdf:resource="http://purl.org/dc/dcmitype/StillImage"/>
    <dc:date>2021-03-27T10:01:22.515695</dc:date>
    <dc:format>image/svg+xml</dc:format>
    <dc:creator>
     <cc:Agent>
      <dc:title>Matplotlib v3.3.3, https://matplotlib.org/</dc:title>
     </cc:Agent>
    </dc:creator>
   </cc:Work>
  </rdf:RDF>
 </metadata>
 <defs>
  <style type="text/css">*{stroke-linecap:butt;stroke-linejoin:round;}</style>
 </defs>
 <g id="figure_1">
  <g id="patch_1">
   <path d="M 0 345.6 
L 460.8 345.6 
L 460.8 0 
L 0 0 
z
" style="fill:#ffffff;"/>
  </g>
  <g id="axes_1">
   <g id="patch_2">
    <path d="M 57.6 298.944 
L 338.688 298.944 
L 338.688 3.456 
L 57.6 3.456 
z
" style="fill:#ffffff;"/>
   </g>
   <g id="line2d_1">
    <path d="M 15.383411 298.944 
L 15.383411 283.129818 
L 39.158561 283.129818 
L 39.158561 267.315635 
L 48.892603 267.315635 
L 48.892603 259.408544 
L 65.476799 259.408544 
L 65.476799 251.501453 
L 110.645268 251.501453 
L 110.645268 235.68727 
L 118.916549 235.68727 
L 118.916549 227.780179 
L 126.434805 227.780179 
L 126.434805 219.873088 
L 151.103411 219.873088 
L 151.103411 211.965996 
L 153.727245 211.965996 
L 153.727245 204.058905 
L 161.133138 204.058905 
L 161.133138 196.151814 
L 165.725644 196.151814 
L 165.725644 188.244723 
L 167.92961 188.244723 
L 167.92961 180.337631 
L 193.851474 180.337631 
L 193.851474 172.43054 
L 199.976041 172.43054 
L 199.976041 164.523449 
L 204.288872 164.523449 
L 204.288872 156.616358 
L 213.554675 156.616358 
L 213.554675 148.709266 
L 225.213952 148.709266 
L 225.213952 140.802175 
L 226.294279 140.802175 
L 226.294279 124.987993 
L 227.360666 124.987993 
L 227.360666 117.080901 
L 234.463278 117.080901 
L 234.463278 109.17381 
L 250.337319 109.17381 
L 250.337319 101.266719 
L 251.135816 101.266719 
L 251.135816 93.359628 
L 253.486036 93.359628 
L 253.486036 85.452536 
L 282.498294 85.452536 
L 282.498294 77.545445 
L 283.578621 77.545445 
L 283.578621 69.638354 
L 284.113535 69.638354 
L 284.113535 61.731263 
L 287.764013 61.731263 
L 287.764013 53.824171 
L 288.778061 53.824171 
L 288.778061 45.91708 
L 306.001141 45.91708 
L 306.001141 38.009989 
L 307.2195 38.009989 
L 307.2195 30.102898 
L 307.621661 30.102898 
L 307.621661 22.195806 
L 308.021874 22.195806 
L 308.021874 14.288715 
L 311.920891 14.288715 
L 311.920891 6.381624 
L 338.688 6.381624 
" style="fill:none;stroke:#f5deb3;stroke-linecap:square;stroke-width:4;"/>
   </g>
   <g id="line2d_2">
    <defs>
     <path d="M -0 7.778175 
L 7.778175 0 
L 0 -7.778175 
L -7.778175 -0 
z
" id="ma6e42b58f9" style="stroke:#f5deb3;stroke-linejoin:miter;stroke-width:1.5;"/>
    </defs>
    <g>
     <use style="fill:#f5deb3;stroke:#f5deb3;stroke-linejoin:miter;stroke-width:1.5;" x="126.434805" xlink:href="#ma6e42b58f9" y="219.873088"/>
     <use style="fill:#f5deb3;stroke:#f5deb3;stroke-linejoin:miter;stroke-width:1.5;" x="167.92961" xlink:href="#ma6e42b58f9" y="180.337631"/>
     <use style="fill:#f5deb3;stroke:#f5deb3;stroke-linejoin:miter;stroke-width:1.5;" x="226.294279" xlink:href="#ma6e42b58f9" y="140.802175"/>
     <use style="fill:#f5deb3;stroke:#f5deb3;stroke-linejoin:miter;stroke-width:1.5;" x="284.113535" xlink:href="#ma6e42b58f9" y="69.638354"/>
     <use style="fill:#f5deb3;stroke:#f5deb3;stroke-linejoin:miter;stroke-width:1.5;" x="311.920891" xlink:href="#ma6e42b58f9" y="6.381624"/>
     <use style="fill:#f5deb3;stroke:#f5deb3;stroke-linejoin:miter;stroke-width:1.5;" x="311.920891" xlink:href="#ma6e42b58f9" y="6.381624"/>
     <use style="fill:#f5deb3;stroke:#f5deb3;stroke-linejoin:miter;stroke-width:1.5;" x="338.688" xlink:href="#ma6e42b58f9" y="6.381624"/>
    </g>
   </g>
   <g id="line2d_3">
    <path style="fill:none;stroke:#f5deb3;stroke-linecap:square;stroke-width:4;"/>
    <g/>
   </g>
   <g id="line2d_4">
    <path d="M 338.688 6.381624 
L 369.60768 12.232871 
" style="fill:none;stroke:#f5deb3;stroke-linecap:square;stroke-width:4;"/>
    <g>
     <use style="fill:#f5deb3;stroke:#f5deb3;stroke-linejoin:miter;stroke-width:1.5;" x="338.688" xlink:href="#ma6e42b58f9" y="6.381624"/>
     <use style="fill:#f5deb3;stroke:#f5deb3;stroke-linejoin:miter;stroke-width:1.5;" x="369.60768" xlink:href="#ma6e42b58f9" y="12.232871"/>
    </g>
   </g>
   <g id="matplotlib.axis_1">
    <g id="xtick_1">
     <g id="line2d_5">
      <path clip-path="url(#p2f7c0fb69e)" d="M 57.6 298.944 
L 57.6 3.456 
" style="fill:none;stroke:#b0b0b0;stroke-linecap:square;stroke-width:0.8;"/>
     </g>
     <g id="line2d_6">
      <defs>
       <path d="M 0 0 
L 0 3.5 
" id="m6a19b5b755" style="stroke:#000000;stroke-width:0.8;"/>
      </defs>
      <g>
       <use style="stroke:#000000;stroke-width:0.8;" x="57.6" xlink:href="#m6a19b5b755" y="298.944"/>
      </g>
     </g>
     <g id="text_1">
      <!-- 0 -->
      <g transform="translate(51.2375 321.140875)scale(0.2 -0.2)">
       <defs>
        <path d="M 31.78125 66.40625 
Q 24.171875 66.40625 20.328125 58.90625 
Q 16.5 51.421875 16.5 36.375 
Q 16.5 21.390625 20.328125 13.890625 
Q 24.171875 6.390625 31.78125 6.390625 
Q 39.453125 6.390625 43.28125 13.890625 
Q 47.125 21.390625 47.125 36.375 
Q 47.125 51.421875 43.28125 58.90625 
Q 39.453125 66.40625 31.78125 66.40625 
z
M 31.78125 74.21875 
Q 44.046875 74.21875 50.515625 64.515625 
Q 56.984375 54.828125 56.984375 36.375 
Q 56.984375 17.96875 50.515625 8.265625 
Q 44.046875 -1.421875 31.78125 -1.421875 
Q 19.53125 -1.421875 13.0625 8.265625 
Q 6.59375 17.96875 6.59375 36.375 
Q 6.59375 54.828125 13.0625 64.515625 
Q 19.53125 74.21875 31.78125 74.21875 
z
" id="DejaVuSans-48"/>
       </defs>
       <use xlink:href="#DejaVuSans-48"/>
      </g>
     </g>
    </g>
    <g id="xtick_2">
     <g id="line2d_7">
      <path clip-path="url(#p2f7c0fb69e)" d="M 247.894466 298.944 
L 247.894466 3.456 
" style="fill:none;stroke:#b0b0b0;stroke-linecap:square;stroke-width:0.8;"/>
     </g>
     <g id="line2d_8">
      <defs>
       <path d="M 0 0 
L 0 2 
" id="m8b9bc4a689" style="stroke:#000000;stroke-width:0.6;"/>
      </defs>
      <g>
       <use style="stroke:#000000;stroke-width:0.6;" x="247.894466" xlink:href="#m8b9bc4a689" y="298.944"/>
      </g>
     </g>
    </g>
    <g id="text_2">
     <!-- log10(# f-evals / dimension) -->
     <g transform="translate(77.764078 342.217594)scale(0.17 -0.17)">
      <defs>
       <path d="M 9.421875 75.984375 
L 18.40625 75.984375 
L 18.40625 0 
L 9.421875 0 
z
" id="DejaVuSans-108"/>
       <path d="M 30.609375 48.390625 
Q 23.390625 48.390625 19.1875 42.75 
Q 14.984375 37.109375 14.984375 27.296875 
Q 14.984375 17.484375 19.15625 11.84375 
Q 23.34375 6.203125 30.609375 6.203125 
Q 37.796875 6.203125 41.984375 11.859375 
Q 46.1875 17.53125 46.1875 27.296875 
Q 46.1875 37.015625 41.984375 42.703125 
Q 37.796875 48.390625 30.609375 48.390625 
z
M 30.609375 56 
Q 42.328125 56 49.015625 48.375 
Q 55.71875 40.765625 55.71875 27.296875 
Q 55.71875 13.875 49.015625 6.21875 
Q 42.328125 -1.421875 30.609375 -1.421875 
Q 18.84375 -1.421875 12.171875 6.21875 
Q 5.515625 13.875 5.515625 27.296875 
Q 5.515625 40.765625 12.171875 48.375 
Q 18.84375 56 30.609375 56 
z
" id="DejaVuSans-111"/>
       <path d="M 45.40625 27.984375 
Q 45.40625 37.75 41.375 43.109375 
Q 37.359375 48.484375 30.078125 48.484375 
Q 22.859375 48.484375 18.828125 43.109375 
Q 14.796875 37.75 14.796875 27.984375 
Q 14.796875 18.265625 18.828125 12.890625 
Q 22.859375 7.515625 30.078125 7.515625 
Q 37.359375 7.515625 41.375 12.890625 
Q 45.40625 18.265625 45.40625 27.984375 
z
M 54.390625 6.78125 
Q 54.390625 -7.171875 48.1875 -13.984375 
Q 42 -20.796875 29.203125 -20.796875 
Q 24.46875 -20.796875 20.265625 -20.09375 
Q 16.0625 -19.390625 12.109375 -17.921875 
L 12.109375 -9.1875 
Q 16.0625 -11.328125 19.921875 -12.34375 
Q 23.78125 -13.375 27.78125 -13.375 
Q 36.625 -13.375 41.015625 -8.765625 
Q 45.40625 -4.15625 45.40625 5.171875 
L 45.40625 9.625 
Q 42.625 4.78125 38.28125 2.390625 
Q 33.9375 0 27.875 0 
Q 17.828125 0 11.671875 7.65625 
Q 5.515625 15.328125 5.515625 27.984375 
Q 5.515625 40.671875 11.671875 48.328125 
Q 17.828125 56 27.875 56 
Q 33.9375 56 38.28125 53.609375 
Q 42.625 51.21875 45.40625 46.390625 
L 45.40625 54.6875 
L 54.390625 54.6875 
z
" id="DejaVuSans-103"/>
       <path d="M 12.40625 8.296875 
L 28.515625 8.296875 
L 28.515625 63.921875 
L 10.984375 60.40625 
L 10.984375 69.390625 
L 28.421875 72.90625 
L 38.28125 72.90625 
L 38.28125 8.296875 
L 54.390625 8.296875 
L 54.390625 0 
L 12.40625 0 
z
" id="DejaVuSans-49"/>
       <path d="M 31 75.875 
Q 24.46875 64.65625 21.28125 53.65625 
Q 18.109375 42.671875 18.109375 31.390625 
Q 18.109375 20.125 21.3125 9.0625 
Q 24.515625 -2 31 -13.1875 
L 23.1875 -13.1875 
Q 15.875 -1.703125 12.234375 9.375 
Q 8.59375 20.453125 8.59375 31.390625 
Q 8.59375 42.28125 12.203125 53.3125 
Q 15.828125 64.359375 23.1875 75.875 
z
" id="DejaVuSans-40"/>
       <path d="M 51.125 44 
L 36.921875 44 
L 32.8125 27.6875 
L 47.125 27.6875 
z
M 43.796875 71.78125 
L 38.71875 51.515625 
L 52.984375 51.515625 
L 58.109375 71.78125 
L 65.921875 71.78125 
L 60.890625 51.515625 
L 76.125 51.515625 
L 76.125 44 
L 58.984375 44 
L 54.984375 27.6875 
L 70.515625 27.6875 
L 70.515625 20.21875 
L 53.078125 20.21875 
L 48 0 
L 40.1875 0 
L 45.21875 20.21875 
L 30.90625 20.21875 
L 25.875 0 
L 18.015625 0 
L 23.09375 20.21875 
L 7.71875 20.21875 
L 7.71875 27.6875 
L 24.90625 27.6875 
L 29 44 
L 13.28125 44 
L 13.28125 51.515625 
L 30.90625 51.515625 
L 35.890625 71.78125 
z
" id="DejaVuSans-35"/>
       <path id="DejaVuSans-32"/>
       <path d="M 37.109375 75.984375 
L 37.109375 68.5 
L 28.515625 68.5 
Q 23.6875 68.5 21.796875 66.546875 
Q 19.921875 64.59375 19.921875 59.515625 
L 19.921875 54.6875 
L 34.71875 54.6875 
L 34.71875 47.703125 
L 19.921875 47.703125 
L 19.921875 0 
L 10.890625 0 
L 10.890625 47.703125 
L 2.296875 47.703125 
L 2.296875 54.6875 
L 10.890625 54.6875 
L 10.890625 58.5 
Q 10.890625 67.625 15.140625 71.796875 
Q 19.390625 75.984375 28.609375 75.984375 
z
" id="DejaVuSans-102"/>
       <path d="M 4.890625 31.390625 
L 31.203125 31.390625 
L 31.203125 23.390625 
L 4.890625 23.390625 
z
" id="DejaVuSans-45"/>
       <path d="M 56.203125 29.59375 
L 56.203125 25.203125 
L 14.890625 25.203125 
Q 15.484375 15.921875 20.484375 11.0625 
Q 25.484375 6.203125 34.421875 6.203125 
Q 39.59375 6.203125 44.453125 7.46875 
Q 49.3125 8.734375 54.109375 11.28125 
L 54.109375 2.78125 
Q 49.265625 0.734375 44.1875 -0.34375 
Q 39.109375 -1.421875 33.890625 -1.421875 
Q 20.796875 -1.421875 13.15625 6.1875 
Q 5.515625 13.8125 5.515625 26.8125 
Q 5.515625 40.234375 12.765625 48.109375 
Q 20.015625 56 32.328125 56 
Q 43.359375 56 49.78125 48.890625 
Q 56.203125 41.796875 56.203125 29.59375 
z
M 47.21875 32.234375 
Q 47.125 39.59375 43.09375 43.984375 
Q 39.0625 48.390625 32.421875 48.390625 
Q 24.90625 48.390625 20.390625 44.140625 
Q 15.875 39.890625 15.1875 32.171875 
z
" id="DejaVuSans-101"/>
       <path d="M 2.984375 54.6875 
L 12.5 54.6875 
L 29.59375 8.796875 
L 46.6875 54.6875 
L 56.203125 54.6875 
L 35.6875 0 
L 23.484375 0 
z
" id="DejaVuSans-118"/>
       <path d="M 34.28125 27.484375 
Q 23.390625 27.484375 19.1875 25 
Q 14.984375 22.515625 14.984375 16.5 
Q 14.984375 11.71875 18.140625 8.90625 
Q 21.296875 6.109375 26.703125 6.109375 
Q 34.1875 6.109375 38.703125 11.40625 
Q 43.21875 16.703125 43.21875 25.484375 
L 43.21875 27.484375 
z
M 52.203125 31.203125 
L 52.203125 0 
L 43.21875 0 
L 43.21875 8.296875 
Q 40.140625 3.328125 35.546875 0.953125 
Q 30.953125 -1.421875 24.3125 -1.421875 
Q 15.921875 -1.421875 10.953125 3.296875 
Q 6 8.015625 6 15.921875 
Q 6 25.140625 12.171875 29.828125 
Q 18.359375 34.515625 30.609375 34.515625 
L 43.21875 34.515625 
L 43.21875 35.40625 
Q 43.21875 41.609375 39.140625 45 
Q 35.0625 48.390625 27.6875 48.390625 
Q 23 48.390625 18.546875 47.265625 
Q 14.109375 46.140625 10.015625 43.890625 
L 10.015625 52.203125 
Q 14.9375 54.109375 19.578125 55.046875 
Q 24.21875 56 28.609375 56 
Q 40.484375 56 46.34375 49.84375 
Q 52.203125 43.703125 52.203125 31.203125 
z
" id="DejaVuSans-97"/>
       <path d="M 44.28125 53.078125 
L 44.28125 44.578125 
Q 40.484375 46.53125 36.375 47.5 
Q 32.28125 48.484375 27.875 48.484375 
Q 21.1875 48.484375 17.84375 46.4375 
Q 14.5 44.390625 14.5 40.28125 
Q 14.5 37.15625 16.890625 35.375 
Q 19.28125 33.59375 26.515625 31.984375 
L 29.59375 31.296875 
Q 39.15625 29.25 43.1875 25.515625 
Q 47.21875 21.78125 47.21875 15.09375 
Q 47.21875 7.46875 41.1875 3.015625 
Q 35.15625 -1.421875 24.609375 -1.421875 
Q 20.21875 -1.421875 15.453125 -0.5625 
Q 10.6875 0.296875 5.421875 2 
L 5.421875 11.28125 
Q 10.40625 8.6875 15.234375 7.390625 
Q 20.0625 6.109375 24.8125 6.109375 
Q 31.15625 6.109375 34.5625 8.28125 
Q 37.984375 10.453125 37.984375 14.40625 
Q 37.984375 18.0625 35.515625 20.015625 
Q 33.0625 21.96875 24.703125 23.78125 
L 21.578125 24.515625 
Q 13.234375 26.265625 9.515625 29.90625 
Q 5.8125 33.546875 5.8125 39.890625 
Q 5.8125 47.609375 11.28125 51.796875 
Q 16.75 56 26.8125 56 
Q 31.78125 56 36.171875 55.265625 
Q 40.578125 54.546875 44.28125 53.078125 
z
" id="DejaVuSans-115"/>
       <path d="M 25.390625 72.90625 
L 33.6875 72.90625 
L 8.296875 -9.28125 
L 0 -9.28125 
z
" id="DejaVuSans-47"/>
       <path d="M 45.40625 46.390625 
L 45.40625 75.984375 
L 54.390625 75.984375 
L 54.390625 0 
L 45.40625 0 
L 45.40625 8.203125 
Q 42.578125 3.328125 38.25 0.953125 
Q 33.9375 -1.421875 27.875 -1.421875 
Q 17.96875 -1.421875 11.734375 6.484375 
Q 5.515625 14.40625 5.515625 27.296875 
Q 5.515625 40.1875 11.734375 48.09375 
Q 17.96875 56 27.875 56 
Q 33.9375 56 38.25 53.625 
Q 42.578125 51.265625 45.40625 46.390625 
z
M 14.796875 27.296875 
Q 14.796875 17.390625 18.875 11.75 
Q 22.953125 6.109375 30.078125 6.109375 
Q 37.203125 6.109375 41.296875 11.75 
Q 45.40625 17.390625 45.40625 27.296875 
Q 45.40625 37.203125 41.296875 42.84375 
Q 37.203125 48.484375 30.078125 48.484375 
Q 22.953125 48.484375 18.875 42.84375 
Q 14.796875 37.203125 14.796875 27.296875 
z
" id="DejaVuSans-100"/>
       <path d="M 9.421875 54.6875 
L 18.40625 54.6875 
L 18.40625 0 
L 9.421875 0 
z
M 9.421875 75.984375 
L 18.40625 75.984375 
L 18.40625 64.59375 
L 9.421875 64.59375 
z
" id="DejaVuSans-105"/>
       <path d="M 52 44.1875 
Q 55.375 50.25 60.0625 53.125 
Q 64.75 56 71.09375 56 
Q 79.640625 56 84.28125 50.015625 
Q 88.921875 44.046875 88.921875 33.015625 
L 88.921875 0 
L 79.890625 0 
L 79.890625 32.71875 
Q 79.890625 40.578125 77.09375 44.375 
Q 74.3125 48.1875 68.609375 48.1875 
Q 61.625 48.1875 57.5625 43.546875 
Q 53.515625 38.921875 53.515625 30.90625 
L 53.515625 0 
L 44.484375 0 
L 44.484375 32.71875 
Q 44.484375 40.625 41.703125 44.40625 
Q 38.921875 48.1875 33.109375 48.1875 
Q 26.21875 48.1875 22.15625 43.53125 
Q 18.109375 38.875 18.109375 30.90625 
L 18.109375 0 
L 9.078125 0 
L 9.078125 54.6875 
L 18.109375 54.6875 
L 18.109375 46.1875 
Q 21.1875 51.21875 25.484375 53.609375 
Q 29.78125 56 35.6875 56 
Q 41.65625 56 45.828125 52.96875 
Q 50 49.953125 52 44.1875 
z
" id="DejaVuSans-109"/>
       <path d="M 54.890625 33.015625 
L 54.890625 0 
L 45.90625 0 
L 45.90625 32.71875 
Q 45.90625 40.484375 42.875 44.328125 
Q 39.84375 48.1875 33.796875 48.1875 
Q 26.515625 48.1875 22.3125 43.546875 
Q 18.109375 38.921875 18.109375 30.90625 
L 18.109375 0 
L 9.078125 0 
L 9.078125 54.6875 
L 18.109375 54.6875 
L 18.109375 46.1875 
Q 21.34375 51.125 25.703125 53.5625 
Q 30.078125 56 35.796875 56 
Q 45.21875 56 50.046875 50.171875 
Q 54.890625 44.34375 54.890625 33.015625 
z
" id="DejaVuSans-110"/>
       <path d="M 8.015625 75.875 
L 15.828125 75.875 
Q 23.140625 64.359375 26.78125 53.3125 
Q 30.421875 42.28125 30.421875 31.390625 
Q 30.421875 20.453125 26.78125 9.375 
Q 23.140625 -1.703125 15.828125 -13.1875 
L 8.015625 -13.1875 
Q 14.5 -2 17.703125 9.0625 
Q 20.90625 20.125 20.90625 31.390625 
Q 20.90625 42.671875 17.703125 53.65625 
Q 14.5 64.65625 8.015625 75.875 
z
" id="DejaVuSans-41"/>
      </defs>
      <use xlink:href="#DejaVuSans-108"/>
      <use x="27.783203" xlink:href="#DejaVuSans-111"/>
      <use x="88.964844" xlink:href="#DejaVuSans-103"/>
      <use x="152.441406" xlink:href="#DejaVuSans-49"/>
      <use x="216.064453" xlink:href="#DejaVuSans-48"/>
      <use x="279.6875" xlink:href="#DejaVuSans-40"/>
      <use x="318.701172" xlink:href="#DejaVuSans-35"/>
      <use x="402.490234" xlink:href="#DejaVuSans-32"/>
      <use x="434.277344" xlink:href="#DejaVuSans-102"/>
      <use x="463.982422" xlink:href="#DejaVuSans-45"/>
      <use x="500.066406" xlink:href="#DejaVuSans-101"/>
      <use x="561.589844" xlink:href="#DejaVuSans-118"/>
      <use x="620.769531" xlink:href="#DejaVuSans-97"/>
      <use x="682.048828" xlink:href="#DejaVuSans-108"/>
      <use x="709.832031" xlink:href="#DejaVuSans-115"/>
      <use x="761.931641" xlink:href="#DejaVuSans-32"/>
      <use x="793.71875" xlink:href="#DejaVuSans-47"/>
      <use x="827.410156" xlink:href="#DejaVuSans-32"/>
      <use x="859.197266" xlink:href="#DejaVuSans-100"/>
      <use x="922.673828" xlink:href="#DejaVuSans-105"/>
      <use x="950.457031" xlink:href="#DejaVuSans-109"/>
      <use x="1047.869141" xlink:href="#DejaVuSans-101"/>
      <use x="1109.392578" xlink:href="#DejaVuSans-110"/>
      <use x="1172.771484" xlink:href="#DejaVuSans-115"/>
      <use x="1224.871094" xlink:href="#DejaVuSans-105"/>
      <use x="1252.654297" xlink:href="#DejaVuSans-111"/>
      <use x="1313.835938" xlink:href="#DejaVuSans-110"/>
      <use x="1377.214844" xlink:href="#DejaVuSans-41"/>
     </g>
    </g>
   </g>
   <g id="matplotlib.axis_2">
    <g id="ytick_1">
     <g id="line2d_9">
      <path clip-path="url(#p2f7c0fb69e)" d="M 57.6 298.944 
L 338.688 298.944 
" style="fill:none;stroke:#b0b0b0;stroke-linecap:square;stroke-width:0.8;"/>
     </g>
     <g id="line2d_10">
      <defs>
       <path d="M 0 0 
L -3.5 0 
" id="m50879e10b1" style="stroke:#000000;stroke-width:0.8;"/>
      </defs>
      <g>
       <use style="stroke:#000000;stroke-width:0.8;" x="57.6" xlink:href="#m50879e10b1" y="298.944"/>
      </g>
     </g>
     <g id="text_3">
      <!-- 0.0 -->
      <g transform="translate(25.155 305.02275)scale(0.16 -0.16)">
       <defs>
        <path d="M 10.6875 12.40625 
L 21 12.40625 
L 21 0 
L 10.6875 0 
z
" id="DejaVuSans-46"/>
       </defs>
       <use xlink:href="#DejaVuSans-48"/>
       <use x="63.623047" xlink:href="#DejaVuSans-46"/>
       <use x="95.410156" xlink:href="#DejaVuSans-48"/>
      </g>
     </g>
    </g>
    <g id="ytick_2">
     <g id="line2d_11">
      <path clip-path="url(#p2f7c0fb69e)" d="M 57.6 240.431525 
L 338.688 240.431525 
" style="fill:none;stroke:#b0b0b0;stroke-linecap:square;stroke-width:0.8;"/>
     </g>
     <g id="line2d_12">
      <g>
       <use style="stroke:#000000;stroke-width:0.8;" x="57.6" xlink:href="#m50879e10b1" y="240.431525"/>
      </g>
     </g>
     <g id="text_4">
      <!-- 0.2 -->
      <g transform="translate(25.155 246.510275)scale(0.16 -0.16)">
       <defs>
        <path d="M 19.1875 8.296875 
L 53.609375 8.296875 
L 53.609375 0 
L 7.328125 0 
L 7.328125 8.296875 
Q 12.9375 14.109375 22.625 23.890625 
Q 32.328125 33.6875 34.8125 36.53125 
Q 39.546875 41.84375 41.421875 45.53125 
Q 43.3125 49.21875 43.3125 52.78125 
Q 43.3125 58.59375 39.234375 62.25 
Q 35.15625 65.921875 28.609375 65.921875 
Q 23.96875 65.921875 18.8125 64.3125 
Q 13.671875 62.703125 7.8125 59.421875 
L 7.8125 69.390625 
Q 13.765625 71.78125 18.9375 73 
Q 24.125 74.21875 28.421875 74.21875 
Q 39.75 74.21875 46.484375 68.546875 
Q 53.21875 62.890625 53.21875 53.421875 
Q 53.21875 48.921875 51.53125 44.890625 
Q 49.859375 40.875 45.40625 35.40625 
Q 44.1875 33.984375 37.640625 27.21875 
Q 31.109375 20.453125 19.1875 8.296875 
z
" id="DejaVuSans-50"/>
       </defs>
       <use xlink:href="#DejaVuSans-48"/>
       <use x="63.623047" xlink:href="#DejaVuSans-46"/>
       <use x="95.410156" xlink:href="#DejaVuSans-50"/>
      </g>
     </g>
    </g>
    <g id="ytick_3">
     <g id="line2d_13">
      <path clip-path="url(#p2f7c0fb69e)" d="M 57.6 181.91905 
L 338.688 181.91905 
" style="fill:none;stroke:#b0b0b0;stroke-linecap:square;stroke-width:0.8;"/>
     </g>
     <g id="line2d_14">
      <g>
       <use style="stroke:#000000;stroke-width:0.8;" x="57.6" xlink:href="#m50879e10b1" y="181.91905"/>
      </g>
     </g>
     <g id="text_5">
      <!-- 0.4 -->
      <g transform="translate(25.155 187.9978)scale(0.16 -0.16)">
       <defs>
        <path d="M 37.796875 64.3125 
L 12.890625 25.390625 
L 37.796875 25.390625 
z
M 35.203125 72.90625 
L 47.609375 72.90625 
L 47.609375 25.390625 
L 58.015625 25.390625 
L 58.015625 17.1875 
L 47.609375 17.1875 
L 47.609375 0 
L 37.796875 0 
L 37.796875 17.1875 
L 4.890625 17.1875 
L 4.890625 26.703125 
z
" id="DejaVuSans-52"/>
       </defs>
       <use xlink:href="#DejaVuSans-48"/>
       <use x="63.623047" xlink:href="#DejaVuSans-46"/>
       <use x="95.410156" xlink:href="#DejaVuSans-52"/>
      </g>
     </g>
    </g>
    <g id="ytick_4">
     <g id="line2d_15">
      <path clip-path="url(#p2f7c0fb69e)" d="M 57.6 123.406574 
L 338.688 123.406574 
" style="fill:none;stroke:#b0b0b0;stroke-linecap:square;stroke-width:0.8;"/>
     </g>
     <g id="line2d_16">
      <g>
       <use style="stroke:#000000;stroke-width:0.8;" x="57.6" xlink:href="#m50879e10b1" y="123.406574"/>
      </g>
     </g>
     <g id="text_6">
      <!-- 0.6 -->
      <g transform="translate(25.155 129.485324)scale(0.16 -0.16)">
       <defs>
        <path d="M 33.015625 40.375 
Q 26.375 40.375 22.484375 35.828125 
Q 18.609375 31.296875 18.609375 23.390625 
Q 18.609375 15.53125 22.484375 10.953125 
Q 26.375 6.390625 33.015625 6.390625 
Q 39.65625 6.390625 43.53125 10.953125 
Q 47.40625 15.53125 47.40625 23.390625 
Q 47.40625 31.296875 43.53125 35.828125 
Q 39.65625 40.375 33.015625 40.375 
z
M 52.59375 71.296875 
L 52.59375 62.3125 
Q 48.875 64.0625 45.09375 64.984375 
Q 41.3125 65.921875 37.59375 65.921875 
Q 27.828125 65.921875 22.671875 59.328125 
Q 17.53125 52.734375 16.796875 39.40625 
Q 19.671875 43.65625 24.015625 45.921875 
Q 28.375 48.1875 33.59375 48.1875 
Q 44.578125 48.1875 50.953125 41.515625 
Q 57.328125 34.859375 57.328125 23.390625 
Q 57.328125 12.15625 50.6875 5.359375 
Q 44.046875 -1.421875 33.015625 -1.421875 
Q 20.359375 -1.421875 13.671875 8.265625 
Q 6.984375 17.96875 6.984375 36.375 
Q 6.984375 53.65625 15.1875 63.9375 
Q 23.390625 74.21875 37.203125 74.21875 
Q 40.921875 74.21875 44.703125 73.484375 
Q 48.484375 72.75 52.59375 71.296875 
z
" id="DejaVuSans-54"/>
       </defs>
       <use xlink:href="#DejaVuSans-48"/>
       <use x="63.623047" xlink:href="#DejaVuSans-46"/>
       <use x="95.410156" xlink:href="#DejaVuSans-54"/>
      </g>
     </g>
    </g>
    <g id="ytick_5">
     <g id="line2d_17">
      <path clip-path="url(#p2f7c0fb69e)" d="M 57.6 64.894099 
L 338.688 64.894099 
" style="fill:none;stroke:#b0b0b0;stroke-linecap:square;stroke-width:0.8;"/>
     </g>
     <g id="line2d_18">
      <g>
       <use style="stroke:#000000;stroke-width:0.8;" x="57.6" xlink:href="#m50879e10b1" y="64.894099"/>
      </g>
     </g>
     <g id="text_7">
      <!-- 0.8 -->
      <g transform="translate(25.155 70.972849)scale(0.16 -0.16)">
       <defs>
        <path d="M 31.78125 34.625 
Q 24.75 34.625 20.71875 30.859375 
Q 16.703125 27.09375 16.703125 20.515625 
Q 16.703125 13.921875 20.71875 10.15625 
Q 24.75 6.390625 31.78125 6.390625 
Q 38.8125 6.390625 42.859375 10.171875 
Q 46.921875 13.96875 46.921875 20.515625 
Q 46.921875 27.09375 42.890625 30.859375 
Q 38.875 34.625 31.78125 34.625 
z
M 21.921875 38.8125 
Q 15.578125 40.375 12.03125 44.71875 
Q 8.5 49.078125 8.5 55.328125 
Q 8.5 64.0625 14.71875 69.140625 
Q 20.953125 74.21875 31.78125 74.21875 
Q 42.671875 74.21875 48.875 69.140625 
Q 55.078125 64.0625 55.078125 55.328125 
Q 55.078125 49.078125 51.53125 44.71875 
Q 48 40.375 41.703125 38.8125 
Q 48.828125 37.15625 52.796875 32.3125 
Q 56.78125 27.484375 56.78125 20.515625 
Q 56.78125 9.90625 50.3125 4.234375 
Q 43.84375 -1.421875 31.78125 -1.421875 
Q 19.734375 -1.421875 13.25 4.234375 
Q 6.78125 9.90625 6.78125 20.515625 
Q 6.78125 27.484375 10.78125 32.3125 
Q 14.796875 37.15625 21.921875 38.8125 
z
M 18.3125 54.390625 
Q 18.3125 48.734375 21.84375 45.5625 
Q 25.390625 42.390625 31.78125 42.390625 
Q 38.140625 42.390625 41.71875 45.5625 
Q 45.3125 48.734375 45.3125 54.390625 
Q 45.3125 60.0625 41.71875 63.234375 
Q 38.140625 66.40625 31.78125 66.40625 
Q 25.390625 66.40625 21.84375 63.234375 
Q 18.3125 60.0625 18.3125 54.390625 
z
" id="DejaVuSans-56"/>
       </defs>
       <use xlink:href="#DejaVuSans-48"/>
       <use x="63.623047" xlink:href="#DejaVuSans-46"/>
       <use x="95.410156" xlink:href="#DejaVuSans-56"/>
      </g>
     </g>
    </g>
    <g id="ytick_6">
     <g id="line2d_19">
      <path clip-path="url(#p2f7c0fb69e)" d="M 57.6 6.381624 
L 338.688 6.381624 
" style="fill:none;stroke:#b0b0b0;stroke-linecap:square;stroke-width:0.8;"/>
     </g>
     <g id="line2d_20">
      <g>
       <use style="stroke:#000000;stroke-width:0.8;" x="57.6" xlink:href="#m50879e10b1" y="6.381624"/>
      </g>
     </g>
     <g id="text_8">
      <!-- 1.0 -->
      <g transform="translate(25.155 12.460374)scale(0.16 -0.16)">
       <use xlink:href="#DejaVuSans-49"/>
       <use x="63.623047" xlink:href="#DejaVuSans-46"/>
       <use x="95.410156" xlink:href="#DejaVuSans-48"/>
      </g>
     </g>
    </g>
    <g id="text_9">
     <!-- Fraction of function,target pairs -->
     <g transform="translate(17.619531 285.585)rotate(-90)scale(0.17 -0.17)">
      <defs>
       <path d="M 9.8125 72.90625 
L 51.703125 72.90625 
L 51.703125 64.59375 
L 19.671875 64.59375 
L 19.671875 43.109375 
L 48.578125 43.109375 
L 48.578125 34.8125 
L 19.671875 34.8125 
L 19.671875 0 
L 9.8125 0 
z
" id="DejaVuSans-70"/>
       <path d="M 41.109375 46.296875 
Q 39.59375 47.171875 37.8125 47.578125 
Q 36.03125 48 33.890625 48 
Q 26.265625 48 22.1875 43.046875 
Q 18.109375 38.09375 18.109375 28.8125 
L 18.109375 0 
L 9.078125 0 
L 9.078125 54.6875 
L 18.109375 54.6875 
L 18.109375 46.1875 
Q 20.953125 51.171875 25.484375 53.578125 
Q 30.03125 56 36.53125 56 
Q 37.453125 56 38.578125 55.875 
Q 39.703125 55.765625 41.0625 55.515625 
z
" id="DejaVuSans-114"/>
       <path d="M 48.78125 52.59375 
L 48.78125 44.1875 
Q 44.96875 46.296875 41.140625 47.34375 
Q 37.3125 48.390625 33.40625 48.390625 
Q 24.65625 48.390625 19.8125 42.84375 
Q 14.984375 37.3125 14.984375 27.296875 
Q 14.984375 17.28125 19.8125 11.734375 
Q 24.65625 6.203125 33.40625 6.203125 
Q 37.3125 6.203125 41.140625 7.25 
Q 44.96875 8.296875 48.78125 10.40625 
L 48.78125 2.09375 
Q 45.015625 0.34375 40.984375 -0.53125 
Q 36.96875 -1.421875 32.421875 -1.421875 
Q 20.0625 -1.421875 12.78125 6.34375 
Q 5.515625 14.109375 5.515625 27.296875 
Q 5.515625 40.671875 12.859375 48.328125 
Q 20.21875 56 33.015625 56 
Q 37.15625 56 41.109375 55.140625 
Q 45.0625 54.296875 48.78125 52.59375 
z
" id="DejaVuSans-99"/>
       <path d="M 18.3125 70.21875 
L 18.3125 54.6875 
L 36.8125 54.6875 
L 36.8125 47.703125 
L 18.3125 47.703125 
L 18.3125 18.015625 
Q 18.3125 11.328125 20.140625 9.421875 
Q 21.96875 7.515625 27.59375 7.515625 
L 36.8125 7.515625 
L 36.8125 0 
L 27.59375 0 
Q 17.1875 0 13.234375 3.875 
Q 9.28125 7.765625 9.28125 18.015625 
L 9.28125 47.703125 
L 2.6875 47.703125 
L 2.6875 54.6875 
L 9.28125 54.6875 
L 9.28125 70.21875 
z
" id="DejaVuSans-116"/>
       <path d="M 8.5 21.578125 
L 8.5 54.6875 
L 17.484375 54.6875 
L 17.484375 21.921875 
Q 17.484375 14.15625 20.5 10.265625 
Q 23.53125 6.390625 29.59375 6.390625 
Q 36.859375 6.390625 41.078125 11.03125 
Q 45.3125 15.671875 45.3125 23.6875 
L 45.3125 54.6875 
L 54.296875 54.6875 
L 54.296875 0 
L 45.3125 0 
L 45.3125 8.40625 
Q 42.046875 3.421875 37.71875 1 
Q 33.40625 -1.421875 27.6875 -1.421875 
Q 18.265625 -1.421875 13.375 4.4375 
Q 8.5 10.296875 8.5 21.578125 
z
M 31.109375 56 
z
" id="DejaVuSans-117"/>
       <path d="M 11.71875 12.40625 
L 22.015625 12.40625 
L 22.015625 4 
L 14.015625 -11.625 
L 7.71875 -11.625 
L 11.71875 4 
z
" id="DejaVuSans-44"/>
       <path d="M 18.109375 8.203125 
L 18.109375 -20.796875 
L 9.078125 -20.796875 
L 9.078125 54.6875 
L 18.109375 54.6875 
L 18.109375 46.390625 
Q 20.953125 51.265625 25.265625 53.625 
Q 29.59375 56 35.59375 56 
Q 45.5625 56 51.78125 48.09375 
Q 58.015625 40.1875 58.015625 27.296875 
Q 58.015625 14.40625 51.78125 6.484375 
Q 45.5625 -1.421875 35.59375 -1.421875 
Q 29.59375 -1.421875 25.265625 0.953125 
Q 20.953125 3.328125 18.109375 8.203125 
z
M 48.6875 27.296875 
Q 48.6875 37.203125 44.609375 42.84375 
Q 40.53125 48.484375 33.40625 48.484375 
Q 26.265625 48.484375 22.1875 42.84375 
Q 18.109375 37.203125 18.109375 27.296875 
Q 18.109375 17.390625 22.1875 11.75 
Q 26.265625 6.109375 33.40625 6.109375 
Q 40.53125 6.109375 44.609375 11.75 
Q 48.6875 17.390625 48.6875 27.296875 
z
" id="DejaVuSans-112"/>
      </defs>
      <use xlink:href="#DejaVuSans-70"/>
      <use x="50.269531" xlink:href="#DejaVuSans-114"/>
      <use x="91.382812" xlink:href="#DejaVuSans-97"/>
      <use x="152.662109" xlink:href="#DejaVuSans-99"/>
      <use x="207.642578" xlink:href="#DejaVuSans-116"/>
      <use x="246.851562" xlink:href="#DejaVuSans-105"/>
      <use x="274.634766" xlink:href="#DejaVuSans-111"/>
      <use x="335.816406" xlink:href="#DejaVuSans-110"/>
      <use x="399.195312" xlink:href="#DejaVuSans-32"/>
      <use x="430.982422" xlink:href="#DejaVuSans-111"/>
      <use x="492.164062" xlink:href="#DejaVuSans-102"/>
      <use x="527.369141" xlink:href="#DejaVuSans-32"/>
      <use x="559.15625" xlink:href="#DejaVuSans-102"/>
      <use x="594.361328" xlink:href="#DejaVuSans-117"/>
      <use x="657.740234" xlink:href="#DejaVuSans-110"/>
      <use x="721.119141" xlink:href="#DejaVuSans-99"/>
      <use x="776.099609" xlink:href="#DejaVuSans-116"/>
      <use x="815.308594" xlink:href="#DejaVuSans-105"/>
      <use x="843.091797" xlink:href="#DejaVuSans-111"/>
      <use x="904.273438" xlink:href="#DejaVuSans-110"/>
      <use x="967.652344" xlink:href="#DejaVuSans-44"/>
      <use x="999.439453" xlink:href="#DejaVuSans-116"/>
      <use x="1038.648438" xlink:href="#DejaVuSans-97"/>
      <use x="1099.927734" xlink:href="#DejaVuSans-114"/>
      <use x="1139.291016" xlink:href="#DejaVuSans-103"/>
      <use x="1202.767578" xlink:href="#DejaVuSans-101"/>
      <use x="1264.291016" xlink:href="#DejaVuSans-116"/>
      <use x="1303.5" xlink:href="#DejaVuSans-32"/>
      <use x="1335.287109" xlink:href="#DejaVuSans-112"/>
      <use x="1398.763672" xlink:href="#DejaVuSans-97"/>
      <use x="1460.042969" xlink:href="#DejaVuSans-105"/>
      <use x="1487.826172" xlink:href="#DejaVuSans-114"/>
      <use x="1528.939453" xlink:href="#DejaVuSans-115"/>
     </g>
    </g>
   </g>
   <g id="line2d_21">
    <defs>
     <path d="M 0 1.5 
C 0.397805 1.5 0.77937 1.341951 1.06066 1.06066 
C 1.341951 0.77937 1.5 0.397805 1.5 0 
C 1.5 -0.397805 1.341951 -0.77937 1.06066 -1.06066 
C 0.77937 -1.341951 0.397805 -1.5 0 -1.5 
C -0.397805 -1.5 -0.77937 -1.341951 -1.06066 -1.06066 
C -1.341951 -0.77937 -1.5 -0.397805 -1.5 0 
C -1.5 0.397805 -1.341951 0.77937 -1.06066 1.06066 
C -0.77937 1.341951 -0.397805 1.5 0 1.5 
z
" id="m7855c1b65f" style="stroke:#f5deb3;"/>
    </defs>
    <g>
     <use style="fill:#f5deb3;stroke:#f5deb3;" x="311.920891" xlink:href="#m7855c1b65f" y="6.381624"/>
     <use style="fill:#f5deb3;stroke:#f5deb3;" x="311.920891" xlink:href="#m7855c1b65f" y="6.381624"/>
    </g>
   </g>
   <g id="line2d_22">
    <defs>
     <path d="M 0 1.5 
C 0.397805 1.5 0.77937 1.341951 1.06066 1.06066 
C 1.341951 0.77937 1.5 0.397805 1.5 0 
C 1.5 -0.397805 1.341951 -0.77937 1.06066 -1.06066 
C 0.77937 -1.341951 0.397805 -1.5 0 -1.5 
C -0.397805 -1.5 -0.77937 -1.341951 -1.06066 -1.06066 
C -1.341951 -0.77937 -1.5 -0.397805 -1.5 0 
C -1.5 0.397805 -1.341951 0.77937 -1.06066 1.06066 
C -0.77937 1.341951 -0.397805 1.5 0 1.5 
z
" id="m9eb6aed427" style="stroke:#000080;"/>
    </defs>
    <g>
     <use style="fill:#000080;stroke:#000080;" x="389.380259" xlink:href="#m9eb6aed427" y="190.61685"/>
     <use style="fill:#000080;stroke:#000080;" x="389.380259" xlink:href="#m9eb6aed427" y="190.61685"/>
    </g>
   </g>
   <g id="line2d_23">
    <path d="M -1 288.664781 
L 0.315658 288.664781 
L 0.315658 287.083363 
L 15.383411 287.083363 
L 15.383411 283.129818 
L 28.123014 283.129818 
L 28.123014 279.176272 
L 39.158561 279.176272 
L 39.158561 276.013435 
L 48.892603 276.013435 
L 48.892603 275.222726 
L 57.6 275.222726 
L 57.6 273.641308 
L 72.667753 273.641308 
L 72.667753 271.269181 
L 79.282789 271.269181 
L 79.282789 268.897053 
L 85.407356 268.897053 
L 85.407356 265.734217 
L 91.109192 265.734217 
L 91.109192 261.780671 
L 96.442903 261.780671 
L 96.442903 258.617835 
L 101.453154 258.617835 
L 101.453154 257.036416 
L 106.176945 257.036416 
L 106.176945 251.501453 
L 110.645268 251.501453 
L 110.645268 247.547907 
L 114.884342 247.547907 
L 114.884342 246.757198 
L 118.916549 246.757198 
L 118.916549 245.966489 
L 122.761141 245.966489 
L 122.761141 244.38507 
L 126.434805 244.38507 
L 126.434805 240.431525 
L 129.952095 240.431525 
L 129.952095 239.640816 
L 133.325781 239.640816 
L 133.325781 238.850107 
L 136.567132 238.850107 
L 136.567132 238.059397 
L 145.59178 238.059397 
L 145.59178 237.268688 
L 153.727245 237.268688 
L 153.727245 236.477979 
L 156.270333 236.477979 
L 156.270333 234.105852 
L 158.737497 234.105852 
L 158.737497 232.524434 
L 163.461287 232.524434 
L 163.461287 231.733724 
L 170.076324 231.733724 
L 170.076324 230.943015 
L 176.200891 230.943015 
L 176.200891 229.361597 
L 185.496503 229.361597 
L 185.496503 228.570888 
L 195.42569 228.570888 
L 195.42569 227.780179 
L 208.387753 227.780179 
L 208.387753 226.198761 
L 227.360666 226.198761 
L 227.360666 225.408051 
L 230.479671 225.408051 
L 230.479671 223.826633 
L 231.493719 223.826633 
L 231.493719 223.035924 
L 235.429884 223.035924 
L 235.429884 222.245215 
L 242.780845 222.245215 
L 242.780845 220.663797 
L 245.3772 220.663797 
L 245.3772 219.873088 
L 250.337319 219.873088 
L 250.337319 219.082378 
L 251.135816 219.082378 
L 251.135816 218.291669 
L 253.486036 218.291669 
L 253.486036 217.50096 
L 262.270634 217.50096 
L 262.270634 216.710251 
L 264.328264 216.710251 
L 264.328264 215.919542 
L 268.939076 215.919542 
L 268.939076 215.128833 
L 275.701822 215.128833 
L 275.701822 214.338124 
L 276.290037 214.338124 
L 276.290037 213.547415 
L 283.578621 213.547415 
L 283.578621 212.756705 
L 285.173085 212.756705 
L 285.173085 211.175287 
L 285.69781 211.175287 
L 285.69781 210.384578 
L 289.280457 210.384578 
L 289.280457 209.593869 
L 296.010998 209.593869 
L 296.010998 208.80316 
L 301.805122 208.80316 
L 301.805122 208.012451 
L 304.764552 208.012451 
L 304.764552 207.221742 
L 310.770378 207.221742 
L 310.770378 206.431032 
L 315.279342 206.431032 
L 315.279342 204.849614 
L 324.60607 204.849614 
L 324.60607 203.268196 
L 329.980603 203.268196 
L 329.980603 202.477487 
L 336.454247 202.477487 
L 336.454247 201.686778 
L 338.688 201.686778 
" style="fill:none;stroke:#000080;stroke-linecap:square;stroke-width:1.5;"/>
   </g>
   <g id="line2d_24">
    <defs>
     <path d="M 0 6 
C 1.591219 6 3.117479 5.367802 4.242641 4.242641 
C 5.367802 3.117479 6 1.591219 6 0 
C 6 -1.591219 5.367802 -3.117479 4.242641 -4.242641 
C 3.117479 -5.367802 1.591219 -6 0 -6 
C -1.591219 -6 -3.117479 -5.367802 -4.242641 -4.242641 
C -5.367802 -3.117479 -6 -1.591219 -6 0 
C -6 1.591219 -5.367802 3.117479 -4.242641 4.242641 
C -3.117479 5.367802 -1.591219 6 0 6 
z
" id="mc674bbec37" style="stroke:#000080;stroke-width:1.5;"/>
    </defs>
    <g>
     <use style="fill-opacity:0;stroke:#000080;stroke-width:1.5;" x="106.176945" xlink:href="#mc674bbec37" y="257.036416"/>
     <use style="fill-opacity:0;stroke:#000080;stroke-width:1.5;" x="158.737497" xlink:href="#mc674bbec37" y="232.524434"/>
     <use style="fill-opacity:0;stroke:#000080;stroke-width:1.5;" x="208.387753" xlink:href="#mc674bbec37" y="227.780179"/>
     <use style="fill-opacity:0;stroke:#000080;stroke-width:1.5;" x="276.290037" xlink:href="#mc674bbec37" y="214.338124"/>
     <use style="fill-opacity:0;stroke:#000080;stroke-width:1.5;" x="324.60607" xlink:href="#mc674bbec37" y="203.268196"/>
     <use style="fill-opacity:0;stroke:#000080;stroke-width:1.5;" x="336.454247" xlink:href="#mc674bbec37" y="201.686778"/>
     <use style="fill-opacity:0;stroke:#000080;stroke-width:1.5;" x="338.688" xlink:href="#mc674bbec37" y="201.686778"/>
    </g>
   </g>
   <g id="line2d_25">
    <path style="fill:none;stroke:#000080;stroke-linecap:square;stroke-width:1.5;"/>
    <g/>
   </g>
   <g id="line2d_26">
    <path clip-path="url(#p2f7c0fb69e)" d="M 338.688 201.686778 
" style="fill:none;stroke:#000080;stroke-linecap:square;stroke-width:1.5;"/>
    <defs>
     <path d="M -12 12 
L 12 -12 
M -12 -12 
L 12 12 
" id="md9edf2cd55" style="stroke:#000080;"/>
    </defs>
    <g clip-path="url(#p2f7c0fb69e)">
     <use style="fill:#000080;stroke:#000080;" x="338.688" xlink:href="#md9edf2cd55" y="201.686778"/>
    </g>
   </g>
   <g id="line2d_27">
    <defs>
     <path d="M 0 1.5 
C 0.397805 1.5 0.77937 1.341951 1.06066 1.06066 
C 1.341951 0.77937 1.5 0.397805 1.5 0 
C 1.5 -0.397805 1.341951 -0.77937 1.06066 -1.06066 
C 0.77937 -1.341951 0.397805 -1.5 0 -1.5 
C -0.397805 -1.5 -0.77937 -1.341951 -1.06066 -1.06066 
C -1.341951 -0.77937 -1.5 -0.397805 -1.5 0 
C -1.5 0.397805 -1.341951 0.77937 -1.06066 1.06066 
C -0.77937 1.341951 -0.397805 1.5 0 1.5 
z
" id="m724c8c9a4e" style="stroke:#ff00ff;"/>
    </defs>
    <g>
     <use style="fill:#ff00ff;stroke:#ff00ff;" x="395.280758" xlink:href="#m724c8c9a4e" y="134.476502"/>
     <use style="fill:#ff00ff;stroke:#ff00ff;" x="395.280758" xlink:href="#m724c8c9a4e" y="134.476502"/>
    </g>
   </g>
   <g id="line2d_28">
    <path d="M -1 281.548399 
L 0.315658 281.548399 
L 0.315658 279.966981 
L 15.383411 279.966981 
L 15.383411 278.385563 
L 28.123014 278.385563 
L 28.123014 272.850599 
L 39.158561 272.850599 
L 39.158561 268.897053 
L 48.892603 268.897053 
L 48.892603 265.734217 
L 57.6 265.734217 
L 57.6 264.152799 
L 65.476799 264.152799 
L 65.476799 260.199253 
L 72.667753 260.199253 
L 72.667753 256.245707 
L 85.407356 256.245707 
L 85.407356 253.87358 
L 91.109192 253.87358 
L 91.109192 253.082871 
L 96.442903 253.082871 
L 96.442903 248.338616 
L 110.645268 248.338616 
L 110.645268 246.757198 
L 114.884342 246.757198 
L 114.884342 244.38507 
L 118.916549 244.38507 
L 118.916549 243.594361 
L 122.761141 243.594361 
L 122.761141 242.803652 
L 126.434805 242.803652 
L 126.434805 241.222234 
L 133.325781 241.222234 
L 133.325781 240.431525 
L 136.567132 240.431525 
L 136.567132 238.850107 
L 139.686137 238.850107 
L 139.686137 238.059397 
L 145.59178 238.059397 
L 145.59178 237.268688 
L 156.270333 237.268688 
L 156.270333 236.477979 
L 163.461287 236.477979 
L 163.461287 235.68727 
L 174.209377 235.68727 
L 174.209377 234.896561 
L 176.200891 234.896561 
L 176.200891 234.105852 
L 178.145541 234.105852 
L 178.145541 233.315143 
L 187.236437 233.315143 
L 187.236437 231.733724 
L 188.940494 231.733724 
L 188.940494 230.943015 
L 190.610124 230.943015 
L 190.610124 228.570888 
L 196.970479 228.570888 
L 196.970479 225.408051 
L 201.438802 225.408051 
L 201.438802 224.617342 
L 204.288872 224.617342 
L 204.288872 223.826633 
L 207.043921 223.826633 
L 207.043921 223.035924 
L 208.387753 223.035924 
L 208.387753 221.454506 
L 209.710083 221.454506 
L 209.710083 220.663797 
L 224.119316 220.663797 
L 224.119316 219.873088 
L 225.213952 219.873088 
L 225.213952 210.384578 
L 226.294279 210.384578 
L 226.294279 205.640323 
L 227.360666 205.640323 
L 227.360666 204.849614 
L 228.413468 204.849614 
L 228.413468 200.896069 
L 229.453027 200.896069 
L 229.453027 197.733232 
L 230.479671 197.733232 
L 230.479671 196.151814 
L 231.493719 196.151814 
L 231.493719 194.570396 
L 234.463278 194.570396 
L 234.463278 193.779686 
L 236.385314 193.779686 
L 236.385314 192.988977 
L 237.329825 192.988977 
L 237.329825 192.198268 
L 240.100269 192.198268 
L 240.100269 191.407559 
L 241.00349 191.407559 
L 241.00349 190.61685 
L 242.780845 190.61685 
L 242.780845 189.826141 
L 243.655391 189.826141 
L 243.655391 187.454013 
L 246.224837 187.454013 
L 246.224837 186.663304 
L 247.063867 186.663304 
L 247.063867 185.872595 
L 247.894466 185.872595 
L 247.894466 185.081886 
L 248.716799 185.081886 
L 248.716799 184.291177 
L 250.337319 184.291177 
L 250.337319 182.709759 
L 252.710032 182.709759 
L 252.710032 181.91905 
L 253.486036 181.91905 
L 253.486036 181.12834 
L 254.254821 181.12834 
L 254.254821 180.337631 
L 255.016521 180.337631 
L 255.016521 178.756213 
L 255.771265 178.756213 
L 255.771265 177.174795 
L 257.995 177.174795 
L 257.995 176.384086 
L 262.270634 176.384086 
L 262.270634 175.593377 
L 264.328264 175.593377 
L 264.328264 174.802667 
L 265.002911 174.802667 
L 265.002911 173.221249 
L 266.335905 173.221249 
L 266.335905 172.43054 
L 268.939076 172.43054 
L 268.939076 170.849122 
L 270.839018 170.849122 
L 270.839018 170.058413 
L 272.696261 170.058413 
L 272.696261 169.267704 
L 273.306181 169.267704 
L 273.306181 168.476994 
L 275.701822 168.476994 
L 275.701822 167.686285 
L 276.290037 167.686285 
L 276.290037 166.895576 
L 279.734029 166.895576 
L 279.734029 166.104867 
L 281.403658 166.104867 
L 281.403658 165.314158 
L 283.578621 165.314158 
L 283.578621 164.523449 
L 284.113535 164.523449 
L 284.113535 163.73274 
L 287.252285 163.73274 
L 287.252285 162.942031 
L 287.764013 162.942031 
L 287.764013 162.151321 
L 288.272593 162.151321 
L 288.272593 161.360612 
L 293.193322 161.360612 
L 293.193322 160.569903 
L 296.929272 160.569903 
L 296.929272 159.779194 
L 298.287832 159.779194 
L 298.287832 158.988485 
L 299.181287 158.988485 
L 299.181287 158.197776 
L 300.503617 158.197776 
L 300.503617 156.616358 
L 300.939733 156.616358 
L 300.939733 154.24423 
L 301.37356 154.24423 
L 301.37356 152.662812 
L 306.40926 152.662812 
L 306.40926 151.872103 
L 308.021874 151.872103 
L 308.021874 151.081394 
L 309.211014 151.081394 
L 309.211014 149.499975 
L 311.920891 149.499975 
L 311.920891 148.709266 
L 312.679097 148.709266 
L 312.679097 147.918557 
L 316.007486 147.918557 
L 316.007486 147.127848 
L 317.444807 147.127848 
L 317.444807 146.337139 
L 318.1542 146.337139 
L 318.1542 145.54643 
L 319.554977 145.54643 
L 319.554977 144.755721 
L 321.273206 144.755721 
L 321.273206 143.965012 
L 328.74709 143.965012 
L 328.74709 143.174302 
L 329.366148 143.174302 
L 329.366148 142.383593 
L 330.893804 142.383593 
L 330.893804 141.592884 
L 337.298995 141.592884 
L 337.298995 140.802175 
L 338.41206 140.802175 
L 338.41206 140.011466 
L 338.688 140.011466 
L 338.688 140.011466 
" style="fill:none;stroke:#ff00ff;stroke-linecap:square;stroke-width:1.5;"/>
   </g>
   <g id="line2d_29">
    <defs>
     <path d="M -0 8.485281 
L 5.091169 0 
L 0 -8.485281 
L -5.091169 -0 
z
" id="mf7ac19425f" style="stroke:#ff00ff;stroke-linejoin:miter;stroke-width:1.5;"/>
    </defs>
    <g>
     <use style="fill-opacity:0;stroke:#ff00ff;stroke-linejoin:miter;stroke-width:1.5;" x="126.434805" xlink:href="#mf7ac19425f" y="242.803652"/>
     <use style="fill-opacity:0;stroke:#ff00ff;stroke-linejoin:miter;stroke-width:1.5;" x="196.970479" xlink:href="#mf7ac19425f" y="225.408051"/>
     <use style="fill-opacity:0;stroke:#ff00ff;stroke-linejoin:miter;stroke-width:1.5;" x="246.224837" xlink:href="#mf7ac19425f" y="186.663304"/>
     <use style="fill-opacity:0;stroke:#ff00ff;stroke-linejoin:miter;stroke-width:1.5;" x="299.181287" xlink:href="#mf7ac19425f" y="158.988485"/>
     <use style="fill-opacity:0;stroke:#ff00ff;stroke-linejoin:miter;stroke-width:1.5;" x="338.41206" xlink:href="#mf7ac19425f" y="140.011466"/>
     <use style="fill-opacity:0;stroke:#ff00ff;stroke-linejoin:miter;stroke-width:1.5;" x="338.41206" xlink:href="#mf7ac19425f" y="140.011466"/>
     <use style="fill-opacity:0;stroke:#ff00ff;stroke-linejoin:miter;stroke-width:1.5;" x="338.688" xlink:href="#mf7ac19425f" y="140.011466"/>
    </g>
   </g>
   <g id="line2d_30">
    <path style="fill:none;stroke:#ff00ff;stroke-linecap:square;stroke-width:1.5;"/>
    <g/>
   </g>
   <g id="line2d_31">
    <path clip-path="url(#p2f7c0fb69e)" d="M 338.688 140.011466 
" style="fill:none;stroke:#ff00ff;stroke-linecap:square;stroke-width:1.5;"/>
    <defs>
     <path d="M -12 12 
L 12 -12 
M -12 -12 
L 12 12 
" id="ma738198eed" style="stroke:#ff00ff;"/>
    </defs>
    <g clip-path="url(#p2f7c0fb69e)">
     <use style="fill:#ff00ff;stroke:#ff00ff;" x="338.688" xlink:href="#ma738198eed" y="140.011466"/>
    </g>
   </g>
   <g id="line2d_32">
    <defs>
     <path d="M 0 1.5 
C 0.397805 1.5 0.77937 1.341951 1.06066 1.06066 
C 1.341951 0.77937 1.5 0.397805 1.5 0 
C 1.5 -0.397805 1.341951 -0.77937 1.06066 -1.06066 
C 0.77937 -1.341951 0.397805 -1.5 0 -1.5 
C -0.397805 -1.5 -0.77937 -1.341951 -1.06066 -1.06066 
C -1.341951 -0.77937 -1.5 -0.397805 -1.5 0 
C -1.5 0.397805 -1.341951 0.77937 -1.06066 1.06066 
C -0.77937 1.341951 -0.397805 1.5 0 1.5 
z
" id="m9053781448" style="stroke:#ff7500;"/>
    </defs>
    <g>
     <use style="fill:#ff7500;stroke:#ff7500;" x="403.723828" xlink:href="#m9053781448" y="98.894591"/>
     <use style="fill:#ff7500;stroke:#ff7500;" x="403.723828" xlink:href="#m9053781448" y="98.894591"/>
    </g>
   </g>
   <g id="line2d_33">
    <path d="M -1 285.501945 
L 0.315658 285.501945 
L 0.315658 283.129818 
L 15.383411 283.129818 
L 15.383411 280.75769 
L 28.123014 280.75769 
L 28.123014 274.432017 
L 39.158561 274.432017 
L 39.158561 269.687762 
L 57.6 269.687762 
L 57.6 268.106344 
L 65.476799 268.106344 
L 65.476799 260.199253 
L 72.667753 260.199253 
L 72.667753 258.617835 
L 79.282789 258.617835 
L 79.282789 255.454998 
L 85.407356 255.454998 
L 85.407356 253.082871 
L 91.109192 253.082871 
L 91.109192 252.292162 
L 96.442903 252.292162 
L 96.442903 245.966489 
L 101.453154 245.966489 
L 101.453154 242.803652 
L 106.176945 242.803652 
L 106.176945 241.222234 
L 110.645268 241.222234 
L 110.645268 238.059397 
L 114.884342 238.059397 
L 114.884342 233.315143 
L 118.916549 233.315143 
L 118.916549 226.198761 
L 122.761141 226.198761 
L 122.761141 225.408051 
L 129.952095 225.408051 
L 129.952095 222.245215 
L 133.325781 222.245215 
L 133.325781 219.873088 
L 136.567132 219.873088 
L 136.567132 219.082378 
L 139.686137 219.082378 
L 139.686137 217.50096 
L 142.691699 217.50096 
L 142.691699 213.547415 
L 145.59178 213.547415 
L 145.59178 210.384578 
L 148.393534 210.384578 
L 148.393534 208.80316 
L 151.103411 208.80316 
L 151.103411 207.221742 
L 153.727245 207.221742 
L 153.727245 204.849614 
L 158.737497 204.849614 
L 158.737497 202.477487 
L 163.461287 202.477487 
L 163.461287 200.896069 
L 165.725644 200.896069 
L 165.725644 199.31465 
L 172.168684 199.31465 
L 172.168684 198.523941 
L 176.200891 198.523941 
L 176.200891 196.942523 
L 178.145541 196.942523 
L 178.145541 196.151814 
L 181.902726 196.151814 
L 181.902726 195.361105 
L 187.236437 195.361105 
L 187.236437 192.198268 
L 188.940494 192.198268 
L 188.940494 191.407559 
L 190.610124 191.407559 
L 190.610124 190.61685 
L 193.851474 190.61685 
L 193.851474 189.826141 
L 196.970479 189.826141 
L 196.970479 189.035432 
L 198.486922 189.035432 
L 198.486922 188.244723 
L 201.438802 188.244723 
L 201.438802 187.454013 
L 202.876122 187.454013 
L 202.876122 186.663304 
L 204.288872 186.663304 
L 204.288872 185.872595 
L 205.677876 185.872595 
L 205.677876 183.500468 
L 207.043921 183.500468 
L 207.043921 182.709759 
L 208.387753 182.709759 
L 208.387753 180.337631 
L 209.710083 180.337631 
L 209.710083 179.546922 
L 211.011587 179.546922 
L 211.011587 178.756213 
L 212.292913 178.756213 
L 212.292913 177.174795 
L 213.554675 177.174795 
L 213.554675 176.384086 
L 214.797463 176.384086 
L 214.797463 175.593377 
L 216.021839 175.593377 
L 216.021839 174.802667 
L 217.22834 174.802667 
L 217.22834 174.011958 
L 218.41748 174.011958 
L 218.41748 171.639831 
L 220.745629 171.639831 
L 220.745629 170.849122 
L 223.009986 170.849122 
L 223.009986 170.058413 
L 224.119316 170.058413 
L 224.119316 169.267704 
L 225.213952 169.267704 
L 225.213952 168.476994 
L 226.294279 168.476994 
L 226.294279 166.895576 
L 227.360666 166.895576 
L 227.360666 165.314158 
L 230.479671 165.314158 
L 230.479671 164.523449 
L 231.493719 164.523449 
L 231.493719 162.151321 
L 234.463278 162.151321 
L 234.463278 160.569903 
L 235.429884 160.569903 
L 235.429884 159.779194 
L 237.329825 159.779194 
L 237.329825 158.988485 
L 239.187069 158.988485 
L 239.187069 157.407067 
L 240.100269 157.407067 
L 240.100269 156.616358 
L 241.00349 156.616358 
L 241.00349 154.24423 
L 241.896945 154.24423 
L 241.896945 153.453521 
L 244.52078 153.453521 
L 244.52078 152.662812 
L 249.531031 152.662812 
L 249.531031 151.872103 
L 250.337319 151.872103 
L 250.337319 149.499975 
L 252.710032 149.499975 
L 252.710032 148.709266 
L 254.254821 148.709266 
L 254.254821 147.918557 
L 255.771265 147.918557 
L 255.771265 147.127848 
L 259.444929 147.127848 
L 259.444929 146.337139 
L 264.328264 146.337139 
L 264.328264 145.54643 
L 267.647739 145.54643 
L 267.647739 143.965012 
L 268.29593 143.965012 
L 268.29593 141.592884 
L 269.577255 141.592884 
L 269.577255 140.802175 
L 270.839018 140.802175 
L 270.839018 140.011466 
L 272.081805 140.011466 
L 272.081805 139.220757 
L 274.512682 139.220757 
L 274.512682 136.848629 
L 279.734029 136.848629 
L 279.734029 135.267211 
L 287.252285 135.267211 
L 287.252285 134.476502 
L 289.779817 134.476502 
L 289.779817 133.685793 
L 291.260044 133.685793 
L 291.260044 132.104375 
L 295.548006 132.104375 
L 295.548006 131.313666 
L 298.735767 131.313666 
L 298.735767 129.732247 
L 300.065187 129.732247 
L 300.065187 128.941538 
L 302.234441 128.941538 
L 302.234441 128.150829 
L 303.929759 128.150829 
L 303.929759 127.36012 
L 309.211014 127.36012 
L 309.211014 126.569411 
L 310.770378 126.569411 
L 310.770378 125.778702 
L 312.679097 125.778702 
L 312.679097 124.987993 
L 313.80352 124.987993 
L 313.80352 124.197283 
L 315.644216 124.197283 
L 315.644216 123.406574 
L 316.369167 123.406574 
L 316.369167 122.615865 
L 317.444807 122.615865 
L 317.444807 121.825156 
L 324.60607 121.825156 
L 324.60607 121.034447 
L 325.256812 121.034447 
L 325.256812 120.243738 
L 329.673946 120.243738 
L 329.673946 119.453029 
L 331.497046 119.453029 
L 331.497046 117.87161 
L 332.986164 117.87161 
L 332.986164 117.080901 
L 333.574379 117.080901 
L 333.574379 116.290192 
L 334.158437 116.290192 
L 334.158437 115.499483 
L 335.886246 115.499483 
L 335.886246 114.708774 
L 337.857402 114.708774 
L 337.857402 113.918065 
L 338.688 113.918065 
L 338.688 113.127356 
L 338.688 113.127356 
" style="fill:none;stroke:#ff7500;stroke-linecap:square;stroke-width:1.5;"/>
   </g>
   <g id="line2d_34">
    <defs>
     <path d="M 0 -6 
L -1.347084 -1.854102 
L -5.706339 -1.854102 
L -2.179628 0.708204 
L -3.526712 4.854102 
L -0 2.291796 
L 3.526712 4.854102 
L 2.179628 0.708204 
L 5.706339 -1.854102 
L 1.347084 -1.854102 
z
" id="m4aa230ad8a" style="stroke:#ff7500;stroke-linejoin:bevel;stroke-width:1.5;"/>
    </defs>
    <g>
     <use style="fill-opacity:0;stroke:#ff7500;stroke-linejoin:bevel;stroke-width:1.5;" x="110.645268" xlink:href="#m4aa230ad8a" y="238.059397"/>
     <use style="fill-opacity:0;stroke:#ff7500;stroke-linejoin:bevel;stroke-width:1.5;" x="151.103411" xlink:href="#m4aa230ad8a" y="207.221742"/>
     <use style="fill-opacity:0;stroke:#ff7500;stroke-linejoin:bevel;stroke-width:1.5;" x="218.41748" xlink:href="#m4aa230ad8a" y="174.011958"/>
     <use style="fill-opacity:0;stroke:#ff7500;stroke-linejoin:bevel;stroke-width:1.5;" x="264.328264" xlink:href="#m4aa230ad8a" y="146.337139"/>
     <use style="fill-opacity:0;stroke:#ff7500;stroke-linejoin:bevel;stroke-width:1.5;" x="325.256812" xlink:href="#m4aa230ad8a" y="120.243738"/>
     <use style="fill-opacity:0;stroke:#ff7500;stroke-linejoin:bevel;stroke-width:1.5;" x="338.688" xlink:href="#m4aa230ad8a" y="113.918065"/>
     <use style="fill-opacity:0;stroke:#ff7500;stroke-linejoin:bevel;stroke-width:1.5;" x="338.688" xlink:href="#m4aa230ad8a" y="113.127356"/>
    </g>
   </g>
   <g id="line2d_35">
    <path style="fill:none;stroke:#ff7500;stroke-linecap:square;stroke-width:1.5;"/>
    <g/>
   </g>
   <g id="line2d_36">
    <path clip-path="url(#p2f7c0fb69e)" d="M 338.688 113.127356 
" style="fill:none;stroke:#ff7500;stroke-linecap:square;stroke-width:1.5;"/>
    <defs>
     <path d="M -12 12 
L 12 -12 
M -12 -12 
L 12 12 
" id="mcb2b784fd1" style="stroke:#ff7500;"/>
    </defs>
    <g clip-path="url(#p2f7c0fb69e)">
     <use style="fill:#ff7500;stroke:#ff7500;" x="338.688" xlink:href="#mcb2b784fd1" y="113.127356"/>
    </g>
   </g>
   <g id="line2d_37">
    <defs>
     <path d="M 0 1.5 
C 0.397805 1.5 0.77937 1.341951 1.06066 1.06066 
C 1.341951 0.77937 1.5 0.397805 1.5 0 
C 1.5 -0.397805 1.341951 -0.77937 1.06066 -1.06066 
C 0.77937 -1.341951 0.397805 -1.5 0 -1.5 
C -0.397805 -1.5 -0.77937 -1.341951 -1.06066 -1.06066 
C -1.341951 -0.77937 -1.5 -0.397805 -1.5 0 
C -1.5 0.397805 -1.341951 0.77937 -1.06066 1.06066 
C -0.77937 1.341951 -0.397805 1.5 0 1.5 
z
" id="m73dad9d49d" style="stroke:#6495ed;"/>
    </defs>
    <g>
     <use style="fill:#6495ed;stroke:#6495ed;" x="394.723293" xlink:href="#m73dad9d49d" y="151.081394"/>
     <use style="fill:#6495ed;stroke:#6495ed;" x="394.723293" xlink:href="#m73dad9d49d" y="151.081394"/>
    </g>
   </g>
   <g id="line2d_38">
    <path d="M -1 283.920527 
L 0.315658 283.920527 
L 0.315658 279.176272 
L 15.383411 279.176272 
L 15.383411 275.222726 
L 28.123014 275.222726 
L 28.123014 273.641308 
L 39.158561 273.641308 
L 39.158561 272.05989 
L 48.892603 272.05989 
L 48.892603 271.269181 
L 57.6 271.269181 
L 57.6 269.687762 
L 65.476799 269.687762 
L 65.476799 266.524926 
L 72.667753 266.524926 
L 72.667753 264.152799 
L 79.282789 264.152799 
L 79.282789 259.408544 
L 85.407356 259.408544 
L 85.407356 258.617835 
L 91.109192 258.617835 
L 91.109192 257.827126 
L 101.453154 257.827126 
L 101.453154 257.036416 
L 106.176945 257.036416 
L 106.176945 255.454998 
L 110.645268 255.454998 
L 110.645268 253.082871 
L 118.916549 253.082871 
L 118.916549 251.501453 
L 126.434805 251.501453 
L 126.434805 250.710743 
L 129.952095 250.710743 
L 129.952095 249.129325 
L 136.567132 249.129325 
L 136.567132 248.338616 
L 139.686137 248.338616 
L 139.686137 247.547907 
L 142.691699 247.547907 
L 142.691699 246.757198 
L 145.59178 246.757198 
L 145.59178 244.38507 
L 148.393534 244.38507 
L 148.393534 242.803652 
L 158.737497 242.803652 
L 158.737497 242.012943 
L 161.133138 242.012943 
L 161.133138 241.222234 
L 163.461287 241.222234 
L 163.461287 240.431525 
L 172.168684 240.431525 
L 172.168684 238.850107 
L 174.209377 238.850107 
L 174.209377 237.268688 
L 178.145541 237.268688 
L 178.145541 236.477979 
L 183.719147 236.477979 
L 183.719147 234.896561 
L 185.496503 234.896561 
L 185.496503 234.105852 
L 188.940494 234.105852 
L 188.940494 233.315143 
L 190.610124 233.315143 
L 190.610124 232.524434 
L 192.246689 232.524434 
L 192.246689 230.943015 
L 195.42569 230.943015 
L 195.42569 229.361597 
L 196.970479 229.361597 
L 196.970479 228.570888 
L 199.976041 228.570888 
L 199.976041 227.780179 
L 204.288872 227.780179 
L 204.288872 226.98947 
L 211.011587 226.98947 
L 211.011587 226.198761 
L 214.797463 226.198761 
L 214.797463 225.408051 
L 217.22834 225.408051 
L 217.22834 224.617342 
L 218.41748 224.617342 
L 218.41748 223.035924 
L 219.589753 223.035924 
L 219.589753 222.245215 
L 220.745629 222.245215 
L 220.745629 220.663797 
L 226.294279 220.663797 
L 226.294279 219.873088 
L 232.495475 219.873088 
L 232.495475 219.082378 
L 233.485233 219.082378 
L 233.485233 218.291669 
L 241.00349 218.291669 
L 241.00349 217.50096 
L 243.655391 217.50096 
L 243.655391 216.710251 
L 259.444929 216.710251 
L 259.444929 215.919542 
L 260.869858 215.919542 
L 260.869858 215.128833 
L 261.573214 215.128833 
L 261.573214 214.338124 
L 262.962219 214.338124 
L 262.962219 213.547415 
L 263.648064 213.547415 
L 263.648064 212.756705 
L 270.839018 212.756705 
L 270.839018 211.965996 
L 278.029972 211.965996 
L 278.029972 211.175287 
L 281.403658 211.175287 
L 281.403658 210.384578 
L 283.040223 210.384578 
L 283.040223 209.593869 
L 286.737369 209.593869 
L 286.737369 208.80316 
L 292.714226 208.80316 
L 292.714226 208.012451 
L 295.548006 208.012451 
L 295.548006 207.221742 
L 300.065187 207.221742 
L 300.065187 206.431032 
L 303.086447 206.431032 
L 303.086447 205.640323 
L 305.590998 205.640323 
L 305.590998 196.942523 
L 306.001141 196.942523 
L 306.001141 192.988977 
L 306.815373 192.988977 
L 306.815373 192.198268 
L 307.621661 192.198268 
L 307.621661 191.407559 
L 308.420158 191.407559 
L 308.420158 186.663304 
L 308.816532 186.663304 
L 308.816532 185.872595 
L 309.211014 185.872595 
L 309.211014 185.081886 
L 309.603622 185.081886 
L 309.603622 182.709759 
L 309.994374 182.709759 
L 309.994374 181.91905 
L 310.383287 181.91905 
L 310.383287 180.337631 
L 310.770378 180.337631 
L 310.770378 179.546922 
L 311.920891 179.546922 
L 311.920891 178.756213 
L 313.430409 178.756213 
L 313.430409 177.965504 
L 313.80352 177.965504 
L 313.80352 177.174795 
L 314.544725 177.174795 
L 314.544725 176.384086 
L 316.729271 176.384086 
L 316.729271 175.593377 
L 317.087813 175.593377 
L 317.087813 174.802667 
L 320.932406 174.802667 
L 320.932406 174.011958 
L 322.287253 174.011958 
L 322.287253 173.221249 
L 322.956438 173.221249 
L 322.956438 172.43054 
L 323.950163 172.43054 
L 323.950163 171.639831 
L 324.60607 171.639831 
L 324.60607 170.849122 
L 325.256812 170.849122 
L 325.256812 169.267704 
L 326.223418 169.267704 
L 326.223418 168.476994 
L 328.12336 168.476994 
L 328.12336 167.686285 
L 329.980603 167.686285 
L 329.980603 166.104867 
L 330.893804 166.104867 
L 330.893804 165.314158 
L 331.195975 165.314158 
L 331.195975 164.523449 
L 332.393733 164.523449 
L 332.393733 162.942031 
L 336.170734 162.942031 
L 336.170734 162.151321 
L 337.857402 162.151321 
L 337.857402 161.360612 
L 338.41206 161.360612 
L 338.41206 160.569903 
L 338.688 160.569903 
L 338.688 160.569903 
" style="fill:none;stroke:#6495ed;stroke-linecap:square;stroke-width:1.5;"/>
   </g>
   <g id="line2d_39">
    <defs>
     <path d="M -0 6 
L 6 -6 
L -6 -6 
z
" id="m84f42c0f78" style="stroke:#6495ed;stroke-linejoin:miter;stroke-width:1.5;"/>
    </defs>
    <g>
     <use style="fill-opacity:0;stroke:#6495ed;stroke-linejoin:miter;stroke-width:1.5;" x="136.567132" xlink:href="#m84f42c0f78" y="248.338616"/>
     <use style="fill-opacity:0;stroke:#6495ed;stroke-linejoin:miter;stroke-width:1.5;" x="199.976041" xlink:href="#m84f42c0f78" y="227.780179"/>
     <use style="fill-opacity:0;stroke:#6495ed;stroke-linejoin:miter;stroke-width:1.5;" x="259.444929" xlink:href="#m84f42c0f78" y="216.710251"/>
     <use style="fill-opacity:0;stroke:#6495ed;stroke-linejoin:miter;stroke-width:1.5;" x="305.590998" xlink:href="#m84f42c0f78" y="205.640323"/>
     <use style="fill-opacity:0;stroke:#6495ed;stroke-linejoin:miter;stroke-width:1.5;" x="338.41206" xlink:href="#m84f42c0f78" y="160.569903"/>
     <use style="fill-opacity:0;stroke:#6495ed;stroke-linejoin:miter;stroke-width:1.5;" x="338.41206" xlink:href="#m84f42c0f78" y="160.569903"/>
     <use style="fill-opacity:0;stroke:#6495ed;stroke-linejoin:miter;stroke-width:1.5;" x="338.688" xlink:href="#m84f42c0f78" y="160.569903"/>
    </g>
   </g>
   <g id="line2d_40">
    <path style="fill:none;stroke:#6495ed;stroke-linecap:square;stroke-width:1.5;"/>
    <g/>
   </g>
   <g id="line2d_41">
    <path clip-path="url(#p2f7c0fb69e)" d="M 338.688 160.569903 
" style="fill:none;stroke:#6495ed;stroke-linecap:square;stroke-width:1.5;"/>
    <defs>
     <path d="M -12 12 
L 12 -12 
M -12 -12 
L 12 12 
" id="m3bc3ef2b4a" style="stroke:#6495ed;"/>
    </defs>
    <g clip-path="url(#p2f7c0fb69e)">
     <use style="fill:#6495ed;stroke:#6495ed;" x="338.688" xlink:href="#m3bc3ef2b4a" y="160.569903"/>
    </g>
   </g>
   <g id="line2d_42">
    <path d="M 338.688 201.686778 
L 369.60768 293.092752 
" style="fill:none;stroke:#000080;stroke-linecap:square;stroke-width:1.5;"/>
    <g>
     <use style="fill-opacity:0;stroke:#000080;stroke-width:1.5;" x="338.688" xlink:href="#mc674bbec37" y="201.686778"/>
     <use style="fill-opacity:0;stroke:#000080;stroke-width:1.5;" x="369.60768" xlink:href="#mc674bbec37" y="293.092752"/>
    </g>
   </g>
   <g id="line2d_43">
    <path d="M 338.688 160.569903 
L 369.60768 222.877782 
" style="fill:none;stroke:#6495ed;stroke-linecap:square;stroke-width:1.5;"/>
    <g>
     <use style="fill-opacity:0;stroke:#6495ed;stroke-linejoin:miter;stroke-width:1.5;" x="338.688" xlink:href="#m84f42c0f78" y="160.569903"/>
     <use style="fill-opacity:0;stroke:#6495ed;stroke-linejoin:miter;stroke-width:1.5;" x="369.60768" xlink:href="#m84f42c0f78" y="222.877782"/>
    </g>
   </g>
   <g id="line2d_44">
    <path d="M 338.688 140.011466 
L 369.60768 152.662812 
" style="fill:none;stroke:#ff00ff;stroke-linecap:square;stroke-width:1.5;"/>
    <g>
     <use style="fill-opacity:0;stroke:#ff00ff;stroke-linejoin:miter;stroke-width:1.5;" x="338.688" xlink:href="#mf7ac19425f" y="140.011466"/>
     <use style="fill-opacity:0;stroke:#ff00ff;stroke-linejoin:miter;stroke-width:1.5;" x="369.60768" xlink:href="#mf7ac19425f" y="152.662812"/>
    </g>
   </g>
   <g id="line2d_45">
    <path d="M 338.688 113.127356 
L 369.60768 82.447842 
" style="fill:none;stroke:#ff7500;stroke-linecap:square;stroke-width:1.5;"/>
    <g>
     <use style="fill-opacity:0;stroke:#ff7500;stroke-linejoin:bevel;stroke-width:1.5;" x="338.688" xlink:href="#m4aa230ad8a" y="113.127356"/>
     <use style="fill-opacity:0;stroke:#ff7500;stroke-linejoin:bevel;stroke-width:1.5;" x="369.60768" xlink:href="#m4aa230ad8a" y="82.447842"/>
    </g>
   </g>
   <g id="line2d_46">
    <path d="M 338.688 298.944 
L 338.688 6.381624 
" style="fill:none;stroke:#000000;stroke-linecap:square;stroke-width:1.5;"/>
   </g>
   <g id="patch_3">
    <path d="M 57.6 298.944 
L 57.6 3.456 
" style="fill:none;stroke:#000000;stroke-linecap:square;stroke-linejoin:miter;stroke-width:0.8;"/>
   </g>
   <g id="patch_4">
    <path d="M 338.688 298.944 
L 338.688 3.456 
" style="fill:none;stroke:#000000;stroke-linecap:square;stroke-linejoin:miter;stroke-width:0.8;"/>
   </g>
   <g id="patch_5">
    <path d="M 57.6 298.944 
L 338.688 298.944 
" style="fill:none;stroke:#000000;stroke-linecap:square;stroke-linejoin:miter;stroke-width:0.8;"/>
   </g>
   <g id="patch_6">
    <path d="M 57.6 3.456 
L 338.688 3.456 
" style="fill:none;stroke:#000000;stroke-linecap:square;stroke-linejoin:miter;stroke-width:0.8;"/>
   </g>
   <g id="text_10">
    <!-- random -->
    <g transform="translate(375.22944 297.78369)scale(0.17 -0.17)">
     <use xlink:href="#DejaVuSans-114"/>
     <use x="41.113281" xlink:href="#DejaVuSans-97"/>
     <use x="102.392578" xlink:href="#DejaVuSans-110"/>
     <use x="165.771484" xlink:href="#DejaVuSans-100"/>
     <use x="229.248047" xlink:href="#DejaVuSans-111"/>
     <use x="290.429688" xlink:href="#DejaVuSans-109"/>
    </g>
   </g>
   <g id="text_11">
    <!-- L -->
    <g transform="translate(375.22944 227.56872)scale(0.17 -0.17)">
     <defs>
      <path d="M 9.8125 72.90625 
L 19.671875 72.90625 
L 19.671875 8.296875 
L 55.171875 8.296875 
L 55.171875 0 
L 9.8125 0 
z
" id="DejaVuSans-76"/>
     </defs>
     <use xlink:href="#DejaVuSans-76"/>
    </g>
   </g>
   <g id="text_12">
    <!-- M -->
    <g transform="translate(375.22944 157.353749)scale(0.17 -0.17)">
     <defs>
      <path d="M 9.8125 72.90625 
L 24.515625 72.90625 
L 43.109375 23.296875 
L 61.8125 72.90625 
L 76.515625 72.90625 
L 76.515625 0 
L 66.890625 0 
L 66.890625 64.015625 
L 48.09375 14.015625 
L 38.1875 14.015625 
L 19.390625 64.015625 
L 19.390625 0 
L 9.8125 0 
z
" id="DejaVuSans-77"/>
     </defs>
     <use xlink:href="#DejaVuSans-77"/>
    </g>
   </g>
   <g id="text_13">
    <!-- S -->
    <g transform="translate(375.22944 87.138779)scale(0.17 -0.17)">
     <defs>
      <path d="M 53.515625 70.515625 
L 53.515625 60.890625 
Q 47.90625 63.578125 42.921875 64.890625 
Q 37.9375 66.21875 33.296875 66.21875 
Q 25.25 66.21875 20.875 63.09375 
Q 16.5 59.96875 16.5 54.203125 
Q 16.5 49.359375 19.40625 46.890625 
Q 22.3125 44.4375 30.421875 42.921875 
L 36.375 41.703125 
Q 47.40625 39.59375 52.65625 34.296875 
Q 57.90625 29 57.90625 20.125 
Q 57.90625 9.515625 50.796875 4.046875 
Q 43.703125 -1.421875 29.984375 -1.421875 
Q 24.8125 -1.421875 18.96875 -0.25 
Q 13.140625 0.921875 6.890625 3.21875 
L 6.890625 13.375 
Q 12.890625 10.015625 18.65625 8.296875 
Q 24.421875 6.59375 29.984375 6.59375 
Q 38.421875 6.59375 43.015625 9.90625 
Q 47.609375 13.234375 47.609375 19.390625 
Q 47.609375 24.75 44.3125 27.78125 
Q 41.015625 30.8125 33.5 32.328125 
L 27.484375 33.5 
Q 16.453125 35.6875 11.515625 40.375 
Q 6.59375 45.0625 6.59375 53.421875 
Q 6.59375 63.09375 13.40625 68.65625 
Q 20.21875 74.21875 32.171875 74.21875 
Q 37.3125 74.21875 42.625 73.28125 
Q 47.953125 72.359375 53.515625 70.515625 
z
" id="DejaVuSans-83"/>
     </defs>
     <use xlink:href="#DejaVuSans-83"/>
    </g>
   </g>
   <g id="text_14">
    <!-- best09 -->
    <g transform="translate(375.22944 16.923809)scale(0.17 -0.17)">
     <defs>
      <path d="M 48.6875 27.296875 
Q 48.6875 37.203125 44.609375 42.84375 
Q 40.53125 48.484375 33.40625 48.484375 
Q 26.265625 48.484375 22.1875 42.84375 
Q 18.109375 37.203125 18.109375 27.296875 
Q 18.109375 17.390625 22.1875 11.75 
Q 26.265625 6.109375 33.40625 6.109375 
Q 40.53125 6.109375 44.609375 11.75 
Q 48.6875 17.390625 48.6875 27.296875 
z
M 18.109375 46.390625 
Q 20.953125 51.265625 25.265625 53.625 
Q 29.59375 56 35.59375 56 
Q 45.5625 56 51.78125 48.09375 
Q 58.015625 40.1875 58.015625 27.296875 
Q 58.015625 14.40625 51.78125 6.484375 
Q 45.5625 -1.421875 35.59375 -1.421875 
Q 29.59375 -1.421875 25.265625 0.953125 
Q 20.953125 3.328125 18.109375 8.203125 
L 18.109375 0 
L 9.078125 0 
L 9.078125 75.984375 
L 18.109375 75.984375 
z
" id="DejaVuSans-98"/>
      <path d="M 10.984375 1.515625 
L 10.984375 10.5 
Q 14.703125 8.734375 18.5 7.8125 
Q 22.3125 6.890625 25.984375 6.890625 
Q 35.75 6.890625 40.890625 13.453125 
Q 46.046875 20.015625 46.78125 33.40625 
Q 43.953125 29.203125 39.59375 26.953125 
Q 35.25 24.703125 29.984375 24.703125 
Q 19.046875 24.703125 12.671875 31.3125 
Q 6.296875 37.9375 6.296875 49.421875 
Q 6.296875 60.640625 12.9375 67.421875 
Q 19.578125 74.21875 30.609375 74.21875 
Q 43.265625 74.21875 49.921875 64.515625 
Q 56.59375 54.828125 56.59375 36.375 
Q 56.59375 19.140625 48.40625 8.859375 
Q 40.234375 -1.421875 26.421875 -1.421875 
Q 22.703125 -1.421875 18.890625 -0.6875 
Q 15.09375 0.046875 10.984375 1.515625 
z
M 30.609375 32.421875 
Q 37.25 32.421875 41.125 36.953125 
Q 45.015625 41.5 45.015625 49.421875 
Q 45.015625 57.28125 41.125 61.84375 
Q 37.25 66.40625 30.609375 66.40625 
Q 23.96875 66.40625 20.09375 61.84375 
Q 16.21875 57.28125 16.21875 49.421875 
Q 16.21875 41.5 20.09375 36.953125 
Q 23.96875 32.421875 30.609375 32.421875 
z
" id="DejaVuSans-57"/>
     </defs>
     <use xlink:href="#DejaVuSans-98"/>
     <use x="63.476562" xlink:href="#DejaVuSans-101"/>
     <use x="125" xlink:href="#DejaVuSans-115"/>
     <use x="177.099609" xlink:href="#DejaVuSans-116"/>
     <use x="216.308594" xlink:href="#DejaVuSans-48"/>
     <use x="279.931641" xlink:href="#DejaVuSans-57"/>
    </g>
   </g>
   <g id="text_15">
    <!-- bbob f10-f14, 10-D -->
    <g transform="translate(60.41088 14.161286)scale(0.102 -0.102)">
     <defs>
      <path d="M 19.671875 64.796875 
L 19.671875 8.109375 
L 31.59375 8.109375 
Q 46.6875 8.109375 53.6875 14.9375 
Q 60.6875 21.78125 60.6875 36.53125 
Q 60.6875 51.171875 53.6875 57.984375 
Q 46.6875 64.796875 31.59375 64.796875 
z
M 9.8125 72.90625 
L 30.078125 72.90625 
Q 51.265625 72.90625 61.171875 64.09375 
Q 71.09375 55.28125 71.09375 36.53125 
Q 71.09375 17.671875 61.125 8.828125 
Q 51.171875 0 30.078125 0 
L 9.8125 0 
z
" id="DejaVuSans-68"/>
     </defs>
     <use xlink:href="#DejaVuSans-98"/>
     <use x="63.476562" xlink:href="#DejaVuSans-98"/>
     <use x="126.953125" xlink:href="#DejaVuSans-111"/>
     <use x="188.134766" xlink:href="#DejaVuSans-98"/>
     <use x="251.611328" xlink:href="#DejaVuSans-32"/>
     <use x="283.398438" xlink:href="#DejaVuSans-102"/>
     <use x="318.603516" xlink:href="#DejaVuSans-49"/>
     <use x="382.226562" xlink:href="#DejaVuSans-48"/>
     <use x="445.849609" xlink:href="#DejaVuSans-45"/>
     <use x="481.933594" xlink:href="#DejaVuSans-102"/>
     <use x="517.138672" xlink:href="#DejaVuSans-49"/>
     <use x="580.761719" xlink:href="#DejaVuSans-52"/>
     <use x="644.384766" xlink:href="#DejaVuSans-44"/>
     <use x="676.171875" xlink:href="#DejaVuSans-32"/>
     <use x="707.958984" xlink:href="#DejaVuSans-49"/>
     <use x="771.582031" xlink:href="#DejaVuSans-48"/>
     <use x="835.205078" xlink:href="#DejaVuSans-45"/>
     <use x="871.289062" xlink:href="#DejaVuSans-68"/>
    </g>
    <!-- 8 targets RLs/dim: 0.5..20 -->
    <g transform="translate(60.41088 25.583055)scale(0.102 -0.102)">
     <defs>
      <path d="M 44.390625 34.1875 
Q 47.5625 33.109375 50.5625 29.59375 
Q 53.5625 26.078125 56.59375 19.921875 
L 66.609375 0 
L 56 0 
L 46.6875 18.703125 
Q 43.0625 26.03125 39.671875 28.421875 
Q 36.28125 30.8125 30.421875 30.8125 
L 19.671875 30.8125 
L 19.671875 0 
L 9.8125 0 
L 9.8125 72.90625 
L 32.078125 72.90625 
Q 44.578125 72.90625 50.734375 67.671875 
Q 56.890625 62.453125 56.890625 51.90625 
Q 56.890625 45.015625 53.6875 40.46875 
Q 50.484375 35.9375 44.390625 34.1875 
z
M 19.671875 64.796875 
L 19.671875 38.921875 
L 32.078125 38.921875 
Q 39.203125 38.921875 42.84375 42.21875 
Q 46.484375 45.515625 46.484375 51.90625 
Q 46.484375 58.296875 42.84375 61.546875 
Q 39.203125 64.796875 32.078125 64.796875 
z
" id="DejaVuSans-82"/>
      <path d="M 11.71875 12.40625 
L 22.015625 12.40625 
L 22.015625 0 
L 11.71875 0 
z
M 11.71875 51.703125 
L 22.015625 51.703125 
L 22.015625 39.3125 
L 11.71875 39.3125 
z
" id="DejaVuSans-58"/>
      <path d="M 10.796875 72.90625 
L 49.515625 72.90625 
L 49.515625 64.59375 
L 19.828125 64.59375 
L 19.828125 46.734375 
Q 21.96875 47.46875 24.109375 47.828125 
Q 26.265625 48.1875 28.421875 48.1875 
Q 40.625 48.1875 47.75 41.5 
Q 54.890625 34.8125 54.890625 23.390625 
Q 54.890625 11.625 47.5625 5.09375 
Q 40.234375 -1.421875 26.90625 -1.421875 
Q 22.3125 -1.421875 17.546875 -0.640625 
Q 12.796875 0.140625 7.71875 1.703125 
L 7.71875 11.625 
Q 12.109375 9.234375 16.796875 8.0625 
Q 21.484375 6.890625 26.703125 6.890625 
Q 35.15625 6.890625 40.078125 11.328125 
Q 45.015625 15.765625 45.015625 23.390625 
Q 45.015625 31 40.078125 35.4375 
Q 35.15625 39.890625 26.703125 39.890625 
Q 22.75 39.890625 18.8125 39.015625 
Q 14.890625 38.140625 10.796875 36.28125 
z
" id="DejaVuSans-53"/>
     </defs>
     <use xlink:href="#DejaVuSans-56"/>
     <use x="63.623047" xlink:href="#DejaVuSans-32"/>
     <use x="95.410156" xlink:href="#DejaVuSans-116"/>
     <use x="134.619141" xlink:href="#DejaVuSans-97"/>
     <use x="195.898438" xlink:href="#DejaVuSans-114"/>
     <use x="235.261719" xlink:href="#DejaVuSans-103"/>
     <use x="298.738281" xlink:href="#DejaVuSans-101"/>
     <use x="360.261719" xlink:href="#DejaVuSans-116"/>
     <use x="399.470703" xlink:href="#DejaVuSans-115"/>
     <use x="451.570312" xlink:href="#DejaVuSans-32"/>
     <use x="483.357422" xlink:href="#DejaVuSans-82"/>
     <use x="552.839844" xlink:href="#DejaVuSans-76"/>
     <use x="608.552734" xlink:href="#DejaVuSans-115"/>
     <use x="660.652344" xlink:href="#DejaVuSans-47"/>
     <use x="694.34375" xlink:href="#DejaVuSans-100"/>
     <use x="757.820312" xlink:href="#DejaVuSans-105"/>
     <use x="785.603516" xlink:href="#DejaVuSans-109"/>
     <use x="883.015625" xlink:href="#DejaVuSans-58"/>
     <use x="916.707031" xlink:href="#DejaVuSans-32"/>
     <use x="948.494141" xlink:href="#DejaVuSans-48"/>
     <use x="1012.117188" xlink:href="#DejaVuSans-46"/>
     <use x="1043.904297" xlink:href="#DejaVuSans-53"/>
     <use x="1107.527344" xlink:href="#DejaVuSans-46"/>
     <use x="1139.314453" xlink:href="#DejaVuSans-46"/>
     <use x="1171.101562" xlink:href="#DejaVuSans-50"/>
     <use x="1234.724609" xlink:href="#DejaVuSans-48"/>
    </g>
    <!--   from /home/local/EMSE2000/leriche/AESOP/EXPE_DOCOCO/bestCustomAlg -->
    <g transform="translate(60.41088 37.004824)scale(0.102 -0.102)">
     <defs>
      <path d="M 54.890625 33.015625 
L 54.890625 0 
L 45.90625 0 
L 45.90625 32.71875 
Q 45.90625 40.484375 42.875 44.328125 
Q 39.84375 48.1875 33.796875 48.1875 
Q 26.515625 48.1875 22.3125 43.546875 
Q 18.109375 38.921875 18.109375 30.90625 
L 18.109375 0 
L 9.078125 0 
L 9.078125 75.984375 
L 18.109375 75.984375 
L 18.109375 46.1875 
Q 21.34375 51.125 25.703125 53.5625 
Q 30.078125 56 35.796875 56 
Q 45.21875 56 50.046875 50.171875 
Q 54.890625 44.34375 54.890625 33.015625 
z
" id="DejaVuSans-104"/>
      <path d="M 9.8125 72.90625 
L 55.90625 72.90625 
L 55.90625 64.59375 
L 19.671875 64.59375 
L 19.671875 43.015625 
L 54.390625 43.015625 
L 54.390625 34.71875 
L 19.671875 34.71875 
L 19.671875 8.296875 
L 56.78125 8.296875 
L 56.78125 0 
L 9.8125 0 
z
" id="DejaVuSans-69"/>
      <path d="M 34.1875 63.1875 
L 20.796875 26.90625 
L 47.609375 26.90625 
z
M 28.609375 72.90625 
L 39.796875 72.90625 
L 67.578125 0 
L 57.328125 0 
L 50.6875 18.703125 
L 17.828125 18.703125 
L 11.1875 0 
L 0.78125 0 
z
" id="DejaVuSans-65"/>
      <path d="M 39.40625 66.21875 
Q 28.65625 66.21875 22.328125 58.203125 
Q 16.015625 50.203125 16.015625 36.375 
Q 16.015625 22.609375 22.328125 14.59375 
Q 28.65625 6.59375 39.40625 6.59375 
Q 50.140625 6.59375 56.421875 14.59375 
Q 62.703125 22.609375 62.703125 36.375 
Q 62.703125 50.203125 56.421875 58.203125 
Q 50.140625 66.21875 39.40625 66.21875 
z
M 39.40625 74.21875 
Q 54.734375 74.21875 63.90625 63.9375 
Q 73.09375 53.65625 73.09375 36.375 
Q 73.09375 19.140625 63.90625 8.859375 
Q 54.734375 -1.421875 39.40625 -1.421875 
Q 24.03125 -1.421875 14.8125 8.828125 
Q 5.609375 19.09375 5.609375 36.375 
Q 5.609375 53.65625 14.8125 63.9375 
Q 24.03125 74.21875 39.40625 74.21875 
z
" id="DejaVuSans-79"/>
      <path d="M 19.671875 64.796875 
L 19.671875 37.40625 
L 32.078125 37.40625 
Q 38.96875 37.40625 42.71875 40.96875 
Q 46.484375 44.53125 46.484375 51.125 
Q 46.484375 57.671875 42.71875 61.234375 
Q 38.96875 64.796875 32.078125 64.796875 
z
M 9.8125 72.90625 
L 32.078125 72.90625 
Q 44.34375 72.90625 50.609375 67.359375 
Q 56.890625 61.8125 56.890625 51.125 
Q 56.890625 40.328125 50.609375 34.8125 
Q 44.34375 29.296875 32.078125 29.296875 
L 19.671875 29.296875 
L 19.671875 0 
L 9.8125 0 
z
" id="DejaVuSans-80"/>
      <path d="M 6.296875 72.90625 
L 16.890625 72.90625 
L 35.015625 45.796875 
L 53.21875 72.90625 
L 63.8125 72.90625 
L 40.375 37.890625 
L 65.375 0 
L 54.78125 0 
L 34.28125 31 
L 13.625 0 
L 2.984375 0 
L 29 38.921875 
z
" id="DejaVuSans-88"/>
      <path d="M 50.984375 -16.609375 
L 50.984375 -23.578125 
L -0.984375 -23.578125 
L -0.984375 -16.609375 
z
" id="DejaVuSans-95"/>
      <path d="M 64.40625 67.28125 
L 64.40625 56.890625 
Q 59.421875 61.53125 53.78125 63.8125 
Q 48.140625 66.109375 41.796875 66.109375 
Q 29.296875 66.109375 22.65625 58.46875 
Q 16.015625 50.828125 16.015625 36.375 
Q 16.015625 21.96875 22.65625 14.328125 
Q 29.296875 6.6875 41.796875 6.6875 
Q 48.140625 6.6875 53.78125 8.984375 
Q 59.421875 11.28125 64.40625 15.921875 
L 64.40625 5.609375 
Q 59.234375 2.09375 53.4375 0.328125 
Q 47.65625 -1.421875 41.21875 -1.421875 
Q 24.65625 -1.421875 15.125 8.703125 
Q 5.609375 18.84375 5.609375 36.375 
Q 5.609375 53.953125 15.125 64.078125 
Q 24.65625 74.21875 41.21875 74.21875 
Q 47.75 74.21875 53.53125 72.484375 
Q 59.328125 70.75 64.40625 67.28125 
z
" id="DejaVuSans-67"/>
     </defs>
     <use xlink:href="#DejaVuSans-32"/>
     <use x="31.787109" xlink:href="#DejaVuSans-32"/>
     <use x="63.574219" xlink:href="#DejaVuSans-102"/>
     <use x="98.779297" xlink:href="#DejaVuSans-114"/>
     <use x="137.642578" xlink:href="#DejaVuSans-111"/>
     <use x="198.824219" xlink:href="#DejaVuSans-109"/>
     <use x="296.236328" xlink:href="#DejaVuSans-32"/>
     <use x="328.023438" xlink:href="#DejaVuSans-47"/>
     <use x="361.714844" xlink:href="#DejaVuSans-104"/>
     <use x="425.09375" xlink:href="#DejaVuSans-111"/>
     <use x="486.275391" xlink:href="#DejaVuSans-109"/>
     <use x="583.6875" xlink:href="#DejaVuSans-101"/>
     <use x="645.210938" xlink:href="#DejaVuSans-47"/>
     <use x="678.902344" xlink:href="#DejaVuSans-108"/>
     <use x="706.685547" xlink:href="#DejaVuSans-111"/>
     <use x="767.867188" xlink:href="#DejaVuSans-99"/>
     <use x="822.847656" xlink:href="#DejaVuSans-97"/>
     <use x="884.126953" xlink:href="#DejaVuSans-108"/>
     <use x="911.910156" xlink:href="#DejaVuSans-47"/>
     <use x="945.601562" xlink:href="#DejaVuSans-69"/>
     <use x="1008.785156" xlink:href="#DejaVuSans-77"/>
     <use x="1095.064453" xlink:href="#DejaVuSans-83"/>
     <use x="1158.541016" xlink:href="#DejaVuSans-69"/>
     <use x="1221.724609" xlink:href="#DejaVuSans-50"/>
     <use x="1285.347656" xlink:href="#DejaVuSans-48"/>
     <use x="1348.970703" xlink:href="#DejaVuSans-48"/>
     <use x="1412.59375" xlink:href="#DejaVuSans-48"/>
     <use x="1476.216797" xlink:href="#DejaVuSans-47"/>
     <use x="1509.908203" xlink:href="#DejaVuSans-108"/>
     <use x="1537.691406" xlink:href="#DejaVuSans-101"/>
     <use x="1599.214844" xlink:href="#DejaVuSans-114"/>
     <use x="1640.328125" xlink:href="#DejaVuSans-105"/>
     <use x="1668.111328" xlink:href="#DejaVuSans-99"/>
     <use x="1723.091797" xlink:href="#DejaVuSans-104"/>
     <use x="1786.470703" xlink:href="#DejaVuSans-101"/>
     <use x="1847.994141" xlink:href="#DejaVuSans-47"/>
     <use x="1881.685547" xlink:href="#DejaVuSans-65"/>
     <use x="1950.09375" xlink:href="#DejaVuSans-69"/>
     <use x="2013.277344" xlink:href="#DejaVuSans-83"/>
     <use x="2076.753906" xlink:href="#DejaVuSans-79"/>
     <use x="2155.464844" xlink:href="#DejaVuSans-80"/>
     <use x="2215.767578" xlink:href="#DejaVuSans-47"/>
     <use x="2249.458984" xlink:href="#DejaVuSans-69"/>
     <use x="2312.642578" xlink:href="#DejaVuSans-88"/>
     <use x="2381.148438" xlink:href="#DejaVuSans-80"/>
     <use x="2441.451172" xlink:href="#DejaVuSans-69"/>
     <use x="2504.634766" xlink:href="#DejaVuSans-95"/>
     <use x="2554.634766" xlink:href="#DejaVuSans-68"/>
     <use x="2631.636719" xlink:href="#DejaVuSans-79"/>
     <use x="2710.347656" xlink:href="#DejaVuSans-67"/>
     <use x="2780.171875" xlink:href="#DejaVuSans-79"/>
     <use x="2858.882812" xlink:href="#DejaVuSans-67"/>
     <use x="2928.707031" xlink:href="#DejaVuSans-79"/>
     <use x="3007.417969" xlink:href="#DejaVuSans-47"/>
     <use x="3041.109375" xlink:href="#DejaVuSans-98"/>
     <use x="3104.585938" xlink:href="#DejaVuSans-101"/>
     <use x="3166.109375" xlink:href="#DejaVuSans-115"/>
     <use x="3218.208984" xlink:href="#DejaVuSans-116"/>
     <use x="3257.417969" xlink:href="#DejaVuSans-67"/>
     <use x="3327.242188" xlink:href="#DejaVuSans-117"/>
     <use x="3390.621094" xlink:href="#DejaVuSans-115"/>
     <use x="3442.720703" xlink:href="#DejaVuSans-116"/>
     <use x="3481.929688" xlink:href="#DejaVuSans-111"/>
     <use x="3543.111328" xlink:href="#DejaVuSans-109"/>
     <use x="3640.523438" xlink:href="#DejaVuSans-65"/>
     <use x="3708.931641" xlink:href="#DejaVuSans-108"/>
     <use x="3736.714844" xlink:href="#DejaVuSans-103"/>
    </g>
    <!-- 15 instances -->
    <g transform="translate(60.41088 48.71028)scale(0.102 -0.102)">
     <use xlink:href="#DejaVuSans-49"/>
     <use x="63.623047" xlink:href="#DejaVuSans-53"/>
     <use x="127.246094" xlink:href="#DejaVuSans-32"/>
     <use x="159.033203" xlink:href="#DejaVuSans-105"/>
     <use x="186.816406" xlink:href="#DejaVuSans-110"/>
     <use x="250.195312" xlink:href="#DejaVuSans-115"/>
     <use x="302.294922" xlink:href="#DejaVuSans-116"/>
     <use x="341.503906" xlink:href="#DejaVuSans-97"/>
     <use x="402.783203" xlink:href="#DejaVuSans-110"/>
     <use x="466.162109" xlink:href="#DejaVuSans-99"/>
     <use x="521.142578" xlink:href="#DejaVuSans-101"/>
     <use x="582.666016" xlink:href="#DejaVuSans-115"/>
    </g>
   </g>
   <g id="text_16">
    <!-- v2.3.3.84 -->
    <g style="fill:#808080;" transform="translate(174.511187 293.909432)scale(0.1 -0.1)">
     <defs>
      <path d="M 40.578125 39.3125 
Q 47.65625 37.796875 51.625 33 
Q 55.609375 28.21875 55.609375 21.1875 
Q 55.609375 10.40625 48.1875 4.484375 
Q 40.765625 -1.421875 27.09375 -1.421875 
Q 22.515625 -1.421875 17.65625 -0.515625 
Q 12.796875 0.390625 7.625 2.203125 
L 7.625 11.71875 
Q 11.71875 9.328125 16.59375 8.109375 
Q 21.484375 6.890625 26.8125 6.890625 
Q 36.078125 6.890625 40.9375 10.546875 
Q 45.796875 14.203125 45.796875 21.1875 
Q 45.796875 27.640625 41.28125 31.265625 
Q 36.765625 34.90625 28.71875 34.90625 
L 20.21875 34.90625 
L 20.21875 43.015625 
L 29.109375 43.015625 
Q 36.375 43.015625 40.234375 45.921875 
Q 44.09375 48.828125 44.09375 54.296875 
Q 44.09375 59.90625 40.109375 62.90625 
Q 36.140625 65.921875 28.71875 65.921875 
Q 24.65625 65.921875 20.015625 65.03125 
Q 15.375 64.15625 9.8125 62.3125 
L 9.8125 71.09375 
Q 15.4375 72.65625 20.34375 73.4375 
Q 25.25 74.21875 29.59375 74.21875 
Q 40.828125 74.21875 47.359375 69.109375 
Q 53.90625 64.015625 53.90625 55.328125 
Q 53.90625 49.265625 50.4375 45.09375 
Q 46.96875 40.921875 40.578125 39.3125 
z
" id="DejaVuSans-51"/>
     </defs>
     <use xlink:href="#DejaVuSans-118"/>
     <use x="59.179688" xlink:href="#DejaVuSans-50"/>
     <use x="122.802734" xlink:href="#DejaVuSans-46"/>
     <use x="154.589844" xlink:href="#DejaVuSans-51"/>
     <use x="218.212891" xlink:href="#DejaVuSans-46"/>
     <use x="250" xlink:href="#DejaVuSans-51"/>
     <use x="313.623047" xlink:href="#DejaVuSans-46"/>
     <use x="345.410156" xlink:href="#DejaVuSans-56"/>
     <use x="409.033203" xlink:href="#DejaVuSans-52"/>
    </g>
   </g>
  </g>
 </g>
 <defs>
  <clipPath id="p2f7c0fb69e">
   <rect height="295.488" width="281.088" x="57.6" y="3.456"/>
  </clipPath>
 </defs>
</svg>
