<?xml version="1.0" encoding="utf-8" standalone="no"?>
<!DOCTYPE svg PUBLIC "-//W3C//DTD SVG 1.1//EN"
  "http://www.w3.org/Graphics/SVG/1.1/DTD/svg11.dtd">
<!-- Created with matplotlib (http://matplotlib.org/) -->
<svg height="345.6pt" version="1.1" viewBox="0 0 460.8 345.6" width="460.8pt" xmlns="http://www.w3.org/2000/svg" xmlns:xlink="http://www.w3.org/1999/xlink">
 <defs>
  <style type="text/css">
*{stroke-linecap:butt;stroke-linejoin:round;}
  </style>
 </defs>
 <g id="figure_1">
  <g id="patch_1">
   <path d="M 0 345.6 
L 460.8 345.6 
L 460.8 0 
L 0 0 
z
" style="fill:#ffffff;"/>
  </g>
  <g id="axes_1">
   <g id="patch_2">
    <path d="M 56.12 294.88 
L 333.168 294.88 
L 333.168 6.845228 
L 56.12 6.845228 
z
" style="fill:#ffffff;"/>
   </g>
   <g id="line2d_1">
    <path d="M 14.510178 294.88 
L 14.510178 287.440445 
L 27.066679 287.440445 
L 27.066679 284.960593 
L 37.943615 284.960593 
L 37.943615 277.521038 
L 47.537752 277.521038 
L 47.537752 272.561335 
L 56.12 272.561335 
L 56.12 270.081483 
L 63.883588 270.081483 
L 63.883588 257.682225 
L 70.971188 257.682225 
L 70.971188 252.722521 
L 89.147574 252.722521 
L 89.147574 245.282966 
L 94.404625 245.282966 
L 94.404625 240.323263 
L 99.342865 240.323263 
L 99.342865 237.843411 
L 103.998762 237.843411 
L 103.998762 232.883708 
L 112.58101 232.883708 
L 112.58101 230.403856 
L 116.555263 230.403856 
L 116.555263 225.444153 
L 123.965462 225.444153 
L 123.965462 222.964301 
L 133.952159 222.964301 
L 133.952159 220.48445 
L 145.608584 220.48445 
L 145.608584 218.004598 
L 148.279512 218.004598 
L 148.279512 215.524746 
L 150.865635 215.524746 
L 150.865635 213.044895 
L 153.372172 213.044895 
L 153.372172 208.085191 
L 155.803875 208.085191 
L 155.803875 203.125488 
L 160.459772 203.125488 
L 160.459772 200.645636 
L 162.691584 200.645636 
L 162.691584 195.685933 
L 164.863873 195.685933 
L 164.863873 193.206081 
L 174.932974 193.206081 
L 174.932974 190.72623 
L 180.426472 190.72623 
L 180.426472 188.246378 
L 182.178282 188.246378 
L 182.178282 185.766526 
L 188.831449 185.766526 
L 188.831449 183.286675 
L 190.413169 183.286675 
L 190.413169 180.806823 
L 196.449709 180.806823 
L 196.449709 170.887416 
L 197.891447 170.887416 
L 197.891447 168.407564 
L 200.700553 168.407564 
L 200.700553 163.447861 
L 204.740523 163.447861 
L 204.740523 160.968009 
L 209.833182 160.968009 
L 209.833182 156.008306 
L 213.454046 156.008306 
L 213.454046 153.528454 
L 214.626095 153.528454 
L 214.626095 151.048603 
L 216.920782 151.048603 
L 216.920782 146.088899 
L 220.24598 146.088899 
L 220.24598 143.609048 
L 221.324883 143.609048 
L 221.324883 141.129196 
L 222.389683 141.129196 
L 222.389683 133.689641 
L 223.440743 133.689641 
L 223.440743 131.209789 
L 225.503031 131.209789 
L 225.503031 128.729938 
L 230.441271 128.729938 
L 230.441271 126.250086 
L 233.266618 126.250086 
L 233.266618 123.770234 
L 242.033784 123.770234 
L 242.033784 121.290383 
L 245.292459 121.290383 
L 245.292459 118.810531 
L 246.087158 118.810531 
L 246.087158 113.850828 
L 246.874179 113.850828 
L 246.874179 111.370976 
L 249.19062 111.370976 
L 249.19062 108.891124 
L 257.161563 108.891124 
L 257.161563 106.411273 
L 259.877015 106.411273 
L 259.877015 103.931421 
L 261.855802 103.931421 
L 261.855802 101.451569 
L 265.050565 101.451569 
L 265.050565 98.971718 
L 270.503188 98.971718 
L 270.503188 96.491866 
L 275.061358 96.491866 
L 275.061358 94.012014 
L 277.785893 94.012014 
L 277.785893 91.532162 
L 278.850693 91.532162 
L 278.850693 89.052311 
L 279.377918 89.052311 
L 279.377918 81.612756 
L 282.97593 81.612756 
L 282.97593 76.653052 
L 284.962761 76.653052 
L 284.962761 74.173201 
L 287.854994 74.173201 
L 287.854994 69.213497 
L 291.558178 69.213497 
L 291.558178 66.733646 
L 294.229107 66.733646 
L 294.229107 64.253794 
L 298.494794 64.253794 
L 298.494794 61.773942 
L 300.950941 61.773942 
L 300.950941 59.294091 
L 301.353193 59.294091 
L 301.353193 56.814239 
L 302.151788 56.814239 
L 302.151788 54.334387 
L 302.548169 54.334387 
L 302.548169 51.854536 
L 302.94263 51.854536 
L 302.94263 49.374684 
L 306.785607 49.374684 
L 306.785607 46.894832 
L 311.524878 46.894832 
L 311.524878 44.414981 
L 314.30997 44.414981 
L 314.30997 39.455277 
L 317.662543 39.455277 
L 317.662543 36.975426 
L 317.990334 36.975426 
L 317.990334 34.495574 
L 333.168 34.495574 
L 333.168 34.495574 
" style="fill:none;stroke:#f5deb3;stroke-linecap:square;stroke-width:4;"/>
   </g>
   <g id="line2d_2">
    <defs>
     <path d="M -0 7.778175 
L 7.778175 0 
L 0 -7.778175 
L -7.778175 -0 
z
" id="mdf40b3a71b" style="stroke:#f5deb3;stroke-linejoin:miter;stroke-width:1.5;"/>
    </defs>
    <g>
     <use style="fill:#f5deb3;stroke:#f5deb3;stroke-linejoin:miter;stroke-width:1.5;" x="70.971188" xlink:href="#mdf40b3a71b" y="252.722521"/>
     <use style="fill:#f5deb3;stroke:#f5deb3;stroke-linejoin:miter;stroke-width:1.5;" x="148.279512" xlink:href="#mdf40b3a71b" y="218.004598"/>
     <use style="fill:#f5deb3;stroke:#f5deb3;stroke-linejoin:miter;stroke-width:1.5;" x="196.449709" xlink:href="#mdf40b3a71b" y="170.887416"/>
     <use style="fill:#f5deb3;stroke:#f5deb3;stroke-linejoin:miter;stroke-width:1.5;" x="230.441271" xlink:href="#mdf40b3a71b" y="126.250086"/>
     <use style="fill:#f5deb3;stroke:#f5deb3;stroke-linejoin:miter;stroke-width:1.5;" x="287.854994" xlink:href="#mdf40b3a71b" y="69.213497"/>
     <use style="fill:#f5deb3;stroke:#f5deb3;stroke-linejoin:miter;stroke-width:1.5;" x="317.990334" xlink:href="#mdf40b3a71b" y="34.495574"/>
     <use style="fill:#f5deb3;stroke:#f5deb3;stroke-linejoin:miter;stroke-width:1.5;" x="317.990334" xlink:href="#mdf40b3a71b" y="34.495574"/>
     <use style="fill:#f5deb3;stroke:#f5deb3;stroke-linejoin:miter;stroke-width:1.5;" x="333.168" xlink:href="#mdf40b3a71b" y="34.495574"/>
    </g>
   </g>
   <g id="line2d_3">
    <path style="fill:none;stroke:#f5deb3;stroke-linecap:square;stroke-width:4;"/>
    <g/>
   </g>
   <g id="line2d_4">
    <path d="M 333.168 34.495574 
L 363.64328 15.400716 
" style="fill:none;stroke:#f5deb3;stroke-linecap:square;stroke-width:4;"/>
    <g>
     <use style="fill:#f5deb3;stroke:#f5deb3;stroke-linejoin:miter;stroke-width:1.5;" x="333.168" xlink:href="#mdf40b3a71b" y="34.495574"/>
     <use style="fill:#f5deb3;stroke:#f5deb3;stroke-linejoin:miter;stroke-width:1.5;" x="363.64328" xlink:href="#mdf40b3a71b" y="15.400716"/>
    </g>
   </g>
   <g id="matplotlib.axis_1">
    <g id="xtick_1">
     <g id="line2d_5">
      <path clip-path="url(#p78557dac25)" d="M 56.12 294.88 
L 56.12 6.845228 
" style="fill:none;stroke:#b0b0b0;stroke-linecap:square;stroke-width:0.8;"/>
     </g>
     <g id="line2d_6">
      <defs>
       <path d="M 0 0 
L 0 3.5 
" id="m2741050c59" style="stroke:#000000;stroke-width:0.8;"/>
      </defs>
      <g>
       <use style="stroke:#000000;stroke-width:0.8;" x="56.12" xlink:href="#m2741050c59" y="294.88"/>
      </g>
     </g>
     <g id="text_1">
      <!-- 0 -->
      <defs>
       <path d="M 31.78125 66.40625 
Q 24.171875 66.40625 20.328125 58.90625 
Q 16.5 51.421875 16.5 36.375 
Q 16.5 21.390625 20.328125 13.890625 
Q 24.171875 6.390625 31.78125 6.390625 
Q 39.453125 6.390625 43.28125 13.890625 
Q 47.125 21.390625 47.125 36.375 
Q 47.125 51.421875 43.28125 58.90625 
Q 39.453125 66.40625 31.78125 66.40625 
z
M 31.78125 74.21875 
Q 44.046875 74.21875 50.515625 64.515625 
Q 56.984375 54.828125 56.984375 36.375 
Q 56.984375 17.96875 50.515625 8.265625 
Q 44.046875 -1.421875 31.78125 -1.421875 
Q 19.53125 -1.421875 13.0625 8.265625 
Q 6.59375 17.96875 6.59375 36.375 
Q 6.59375 54.828125 13.0625 64.515625 
Q 19.53125 74.21875 31.78125 74.21875 
z
" id="DejaVuSans-30"/>
      </defs>
      <g transform="translate(49.7575 317.076875)scale(0.2 -0.2)">
       <use xlink:href="#DejaVuSans-30"/>
      </g>
     </g>
    </g>
    <g id="xtick_2">
     <g id="line2d_7">
      <path clip-path="url(#p78557dac25)" d="M 56.12 294.88 
L 56.12 6.845228 
" style="fill:none;stroke:#b0b0b0;stroke-linecap:square;stroke-width:0.8;"/>
     </g>
     <g id="line2d_8">
      <defs>
       <path d="M 0 0 
L 0 2 
" id="ma9d42ec5e1" style="stroke:#000000;stroke-width:0.6;"/>
      </defs>
      <g>
       <use style="stroke:#000000;stroke-width:0.6;" x="56.12" xlink:href="#ma9d42ec5e1" y="294.88"/>
      </g>
     </g>
    </g>
    <g id="xtick_3">
     <g id="line2d_9">
      <path clip-path="url(#p78557dac25)" d="M 243.679416 294.88 
L 243.679416 6.845228 
" style="fill:none;stroke:#b0b0b0;stroke-linecap:square;stroke-width:0.8;"/>
     </g>
     <g id="line2d_10">
      <g>
       <use style="stroke:#000000;stroke-width:0.6;" x="243.679416" xlink:href="#ma9d42ec5e1" y="294.88"/>
      </g>
     </g>
    </g>
    <g id="text_2">
     <!-- log10(# f-evals / dimension) -->
     <defs>
      <path d="M 9.421875 75.984375 
L 18.40625 75.984375 
L 18.40625 0 
L 9.421875 0 
z
" id="DejaVuSans-6c"/>
      <path d="M 30.609375 48.390625 
Q 23.390625 48.390625 19.1875 42.75 
Q 14.984375 37.109375 14.984375 27.296875 
Q 14.984375 17.484375 19.15625 11.84375 
Q 23.34375 6.203125 30.609375 6.203125 
Q 37.796875 6.203125 41.984375 11.859375 
Q 46.1875 17.53125 46.1875 27.296875 
Q 46.1875 37.015625 41.984375 42.703125 
Q 37.796875 48.390625 30.609375 48.390625 
z
M 30.609375 56 
Q 42.328125 56 49.015625 48.375 
Q 55.71875 40.765625 55.71875 27.296875 
Q 55.71875 13.875 49.015625 6.21875 
Q 42.328125 -1.421875 30.609375 -1.421875 
Q 18.84375 -1.421875 12.171875 6.21875 
Q 5.515625 13.875 5.515625 27.296875 
Q 5.515625 40.765625 12.171875 48.375 
Q 18.84375 56 30.609375 56 
z
" id="DejaVuSans-6f"/>
      <path d="M 45.40625 27.984375 
Q 45.40625 37.75 41.375 43.109375 
Q 37.359375 48.484375 30.078125 48.484375 
Q 22.859375 48.484375 18.828125 43.109375 
Q 14.796875 37.75 14.796875 27.984375 
Q 14.796875 18.265625 18.828125 12.890625 
Q 22.859375 7.515625 30.078125 7.515625 
Q 37.359375 7.515625 41.375 12.890625 
Q 45.40625 18.265625 45.40625 27.984375 
z
M 54.390625 6.78125 
Q 54.390625 -7.171875 48.1875 -13.984375 
Q 42 -20.796875 29.203125 -20.796875 
Q 24.46875 -20.796875 20.265625 -20.09375 
Q 16.0625 -19.390625 12.109375 -17.921875 
L 12.109375 -9.1875 
Q 16.0625 -11.328125 19.921875 -12.34375 
Q 23.78125 -13.375 27.78125 -13.375 
Q 36.625 -13.375 41.015625 -8.765625 
Q 45.40625 -4.15625 45.40625 5.171875 
L 45.40625 9.625 
Q 42.625 4.78125 38.28125 2.390625 
Q 33.9375 0 27.875 0 
Q 17.828125 0 11.671875 7.65625 
Q 5.515625 15.328125 5.515625 27.984375 
Q 5.515625 40.671875 11.671875 48.328125 
Q 17.828125 56 27.875 56 
Q 33.9375 56 38.28125 53.609375 
Q 42.625 51.21875 45.40625 46.390625 
L 45.40625 54.6875 
L 54.390625 54.6875 
z
" id="DejaVuSans-67"/>
      <path d="M 12.40625 8.296875 
L 28.515625 8.296875 
L 28.515625 63.921875 
L 10.984375 60.40625 
L 10.984375 69.390625 
L 28.421875 72.90625 
L 38.28125 72.90625 
L 38.28125 8.296875 
L 54.390625 8.296875 
L 54.390625 0 
L 12.40625 0 
z
" id="DejaVuSans-31"/>
      <path d="M 31 75.875 
Q 24.46875 64.65625 21.28125 53.65625 
Q 18.109375 42.671875 18.109375 31.390625 
Q 18.109375 20.125 21.3125 9.0625 
Q 24.515625 -2 31 -13.1875 
L 23.1875 -13.1875 
Q 15.875 -1.703125 12.234375 9.375 
Q 8.59375 20.453125 8.59375 31.390625 
Q 8.59375 42.28125 12.203125 53.3125 
Q 15.828125 64.359375 23.1875 75.875 
z
" id="DejaVuSans-28"/>
      <path d="M 51.125 44 
L 36.921875 44 
L 32.8125 27.6875 
L 47.125 27.6875 
z
M 43.796875 71.78125 
L 38.71875 51.515625 
L 52.984375 51.515625 
L 58.109375 71.78125 
L 65.921875 71.78125 
L 60.890625 51.515625 
L 76.125 51.515625 
L 76.125 44 
L 58.984375 44 
L 54.984375 27.6875 
L 70.515625 27.6875 
L 70.515625 20.21875 
L 53.078125 20.21875 
L 48 0 
L 40.1875 0 
L 45.21875 20.21875 
L 30.90625 20.21875 
L 25.875 0 
L 18.015625 0 
L 23.09375 20.21875 
L 7.71875 20.21875 
L 7.71875 27.6875 
L 24.90625 27.6875 
L 29 44 
L 13.28125 44 
L 13.28125 51.515625 
L 30.90625 51.515625 
L 35.890625 71.78125 
z
" id="DejaVuSans-23"/>
      <path id="DejaVuSans-20"/>
      <path d="M 37.109375 75.984375 
L 37.109375 68.5 
L 28.515625 68.5 
Q 23.6875 68.5 21.796875 66.546875 
Q 19.921875 64.59375 19.921875 59.515625 
L 19.921875 54.6875 
L 34.71875 54.6875 
L 34.71875 47.703125 
L 19.921875 47.703125 
L 19.921875 0 
L 10.890625 0 
L 10.890625 47.703125 
L 2.296875 47.703125 
L 2.296875 54.6875 
L 10.890625 54.6875 
L 10.890625 58.5 
Q 10.890625 67.625 15.140625 71.796875 
Q 19.390625 75.984375 28.609375 75.984375 
z
" id="DejaVuSans-66"/>
      <path d="M 4.890625 31.390625 
L 31.203125 31.390625 
L 31.203125 23.390625 
L 4.890625 23.390625 
z
" id="DejaVuSans-2d"/>
      <path d="M 56.203125 29.59375 
L 56.203125 25.203125 
L 14.890625 25.203125 
Q 15.484375 15.921875 20.484375 11.0625 
Q 25.484375 6.203125 34.421875 6.203125 
Q 39.59375 6.203125 44.453125 7.46875 
Q 49.3125 8.734375 54.109375 11.28125 
L 54.109375 2.78125 
Q 49.265625 0.734375 44.1875 -0.34375 
Q 39.109375 -1.421875 33.890625 -1.421875 
Q 20.796875 -1.421875 13.15625 6.1875 
Q 5.515625 13.8125 5.515625 26.8125 
Q 5.515625 40.234375 12.765625 48.109375 
Q 20.015625 56 32.328125 56 
Q 43.359375 56 49.78125 48.890625 
Q 56.203125 41.796875 56.203125 29.59375 
z
M 47.21875 32.234375 
Q 47.125 39.59375 43.09375 43.984375 
Q 39.0625 48.390625 32.421875 48.390625 
Q 24.90625 48.390625 20.390625 44.140625 
Q 15.875 39.890625 15.1875 32.171875 
z
" id="DejaVuSans-65"/>
      <path d="M 2.984375 54.6875 
L 12.5 54.6875 
L 29.59375 8.796875 
L 46.6875 54.6875 
L 56.203125 54.6875 
L 35.6875 0 
L 23.484375 0 
z
" id="DejaVuSans-76"/>
      <path d="M 34.28125 27.484375 
Q 23.390625 27.484375 19.1875 25 
Q 14.984375 22.515625 14.984375 16.5 
Q 14.984375 11.71875 18.140625 8.90625 
Q 21.296875 6.109375 26.703125 6.109375 
Q 34.1875 6.109375 38.703125 11.40625 
Q 43.21875 16.703125 43.21875 25.484375 
L 43.21875 27.484375 
z
M 52.203125 31.203125 
L 52.203125 0 
L 43.21875 0 
L 43.21875 8.296875 
Q 40.140625 3.328125 35.546875 0.953125 
Q 30.953125 -1.421875 24.3125 -1.421875 
Q 15.921875 -1.421875 10.953125 3.296875 
Q 6 8.015625 6 15.921875 
Q 6 25.140625 12.171875 29.828125 
Q 18.359375 34.515625 30.609375 34.515625 
L 43.21875 34.515625 
L 43.21875 35.40625 
Q 43.21875 41.609375 39.140625 45 
Q 35.0625 48.390625 27.6875 48.390625 
Q 23 48.390625 18.546875 47.265625 
Q 14.109375 46.140625 10.015625 43.890625 
L 10.015625 52.203125 
Q 14.9375 54.109375 19.578125 55.046875 
Q 24.21875 56 28.609375 56 
Q 40.484375 56 46.34375 49.84375 
Q 52.203125 43.703125 52.203125 31.203125 
z
" id="DejaVuSans-61"/>
      <path d="M 44.28125 53.078125 
L 44.28125 44.578125 
Q 40.484375 46.53125 36.375 47.5 
Q 32.28125 48.484375 27.875 48.484375 
Q 21.1875 48.484375 17.84375 46.4375 
Q 14.5 44.390625 14.5 40.28125 
Q 14.5 37.15625 16.890625 35.375 
Q 19.28125 33.59375 26.515625 31.984375 
L 29.59375 31.296875 
Q 39.15625 29.25 43.1875 25.515625 
Q 47.21875 21.78125 47.21875 15.09375 
Q 47.21875 7.46875 41.1875 3.015625 
Q 35.15625 -1.421875 24.609375 -1.421875 
Q 20.21875 -1.421875 15.453125 -0.5625 
Q 10.6875 0.296875 5.421875 2 
L 5.421875 11.28125 
Q 10.40625 8.6875 15.234375 7.390625 
Q 20.0625 6.109375 24.8125 6.109375 
Q 31.15625 6.109375 34.5625 8.28125 
Q 37.984375 10.453125 37.984375 14.40625 
Q 37.984375 18.0625 35.515625 20.015625 
Q 33.0625 21.96875 24.703125 23.78125 
L 21.578125 24.515625 
Q 13.234375 26.265625 9.515625 29.90625 
Q 5.8125 33.546875 5.8125 39.890625 
Q 5.8125 47.609375 11.28125 51.796875 
Q 16.75 56 26.8125 56 
Q 31.78125 56 36.171875 55.265625 
Q 40.578125 54.546875 44.28125 53.078125 
z
" id="DejaVuSans-73"/>
      <path d="M 25.390625 72.90625 
L 33.6875 72.90625 
L 8.296875 -9.28125 
L 0 -9.28125 
z
" id="DejaVuSans-2f"/>
      <path d="M 45.40625 46.390625 
L 45.40625 75.984375 
L 54.390625 75.984375 
L 54.390625 0 
L 45.40625 0 
L 45.40625 8.203125 
Q 42.578125 3.328125 38.25 0.953125 
Q 33.9375 -1.421875 27.875 -1.421875 
Q 17.96875 -1.421875 11.734375 6.484375 
Q 5.515625 14.40625 5.515625 27.296875 
Q 5.515625 40.1875 11.734375 48.09375 
Q 17.96875 56 27.875 56 
Q 33.9375 56 38.25 53.625 
Q 42.578125 51.265625 45.40625 46.390625 
z
M 14.796875 27.296875 
Q 14.796875 17.390625 18.875 11.75 
Q 22.953125 6.109375 30.078125 6.109375 
Q 37.203125 6.109375 41.296875 11.75 
Q 45.40625 17.390625 45.40625 27.296875 
Q 45.40625 37.203125 41.296875 42.84375 
Q 37.203125 48.484375 30.078125 48.484375 
Q 22.953125 48.484375 18.875 42.84375 
Q 14.796875 37.203125 14.796875 27.296875 
z
" id="DejaVuSans-64"/>
      <path d="M 9.421875 54.6875 
L 18.40625 54.6875 
L 18.40625 0 
L 9.421875 0 
z
M 9.421875 75.984375 
L 18.40625 75.984375 
L 18.40625 64.59375 
L 9.421875 64.59375 
z
" id="DejaVuSans-69"/>
      <path d="M 52 44.1875 
Q 55.375 50.25 60.0625 53.125 
Q 64.75 56 71.09375 56 
Q 79.640625 56 84.28125 50.015625 
Q 88.921875 44.046875 88.921875 33.015625 
L 88.921875 0 
L 79.890625 0 
L 79.890625 32.71875 
Q 79.890625 40.578125 77.09375 44.375 
Q 74.3125 48.1875 68.609375 48.1875 
Q 61.625 48.1875 57.5625 43.546875 
Q 53.515625 38.921875 53.515625 30.90625 
L 53.515625 0 
L 44.484375 0 
L 44.484375 32.71875 
Q 44.484375 40.625 41.703125 44.40625 
Q 38.921875 48.1875 33.109375 48.1875 
Q 26.21875 48.1875 22.15625 43.53125 
Q 18.109375 38.875 18.109375 30.90625 
L 18.109375 0 
L 9.078125 0 
L 9.078125 54.6875 
L 18.109375 54.6875 
L 18.109375 46.1875 
Q 21.1875 51.21875 25.484375 53.609375 
Q 29.78125 56 35.6875 56 
Q 41.65625 56 45.828125 52.96875 
Q 50 49.953125 52 44.1875 
z
" id="DejaVuSans-6d"/>
      <path d="M 54.890625 33.015625 
L 54.890625 0 
L 45.90625 0 
L 45.90625 32.71875 
Q 45.90625 40.484375 42.875 44.328125 
Q 39.84375 48.1875 33.796875 48.1875 
Q 26.515625 48.1875 22.3125 43.546875 
Q 18.109375 38.921875 18.109375 30.90625 
L 18.109375 0 
L 9.078125 0 
L 9.078125 54.6875 
L 18.109375 54.6875 
L 18.109375 46.1875 
Q 21.34375 51.125 25.703125 53.5625 
Q 30.078125 56 35.796875 56 
Q 45.21875 56 50.046875 50.171875 
Q 54.890625 44.34375 54.890625 33.015625 
z
" id="DejaVuSans-6e"/>
      <path d="M 8.015625 75.875 
L 15.828125 75.875 
Q 23.140625 64.359375 26.78125 53.3125 
Q 30.421875 42.28125 30.421875 31.390625 
Q 30.421875 20.453125 26.78125 9.375 
Q 23.140625 -1.703125 15.828125 -13.1875 
L 8.015625 -13.1875 
Q 14.5 -2 17.703125 9.0625 
Q 20.90625 20.125 20.90625 31.390625 
Q 20.90625 42.671875 17.703125 53.65625 
Q 14.5 64.65625 8.015625 75.875 
z
" id="DejaVuSans-29"/>
     </defs>
     <g transform="translate(73.803219 338.153594)scale(0.17 -0.17)">
      <use xlink:href="#DejaVuSans-6c"/>
      <use x="27.783203" xlink:href="#DejaVuSans-6f"/>
      <use x="88.964844" xlink:href="#DejaVuSans-67"/>
      <use x="152.441406" xlink:href="#DejaVuSans-31"/>
      <use x="216.064453" xlink:href="#DejaVuSans-30"/>
      <use x="279.6875" xlink:href="#DejaVuSans-28"/>
      <use x="318.701172" xlink:href="#DejaVuSans-23"/>
      <use x="402.490234" xlink:href="#DejaVuSans-20"/>
      <use x="434.277344" xlink:href="#DejaVuSans-66"/>
      <use x="469.404297" xlink:href="#DejaVuSans-2d"/>
      <use x="505.488281" xlink:href="#DejaVuSans-65"/>
      <use x="567.011719" xlink:href="#DejaVuSans-76"/>
      <use x="626.191406" xlink:href="#DejaVuSans-61"/>
      <use x="687.470703" xlink:href="#DejaVuSans-6c"/>
      <use x="715.253906" xlink:href="#DejaVuSans-73"/>
      <use x="767.353516" xlink:href="#DejaVuSans-20"/>
      <use x="799.140625" xlink:href="#DejaVuSans-2f"/>
      <use x="832.832031" xlink:href="#DejaVuSans-20"/>
      <use x="864.619141" xlink:href="#DejaVuSans-64"/>
      <use x="928.095703" xlink:href="#DejaVuSans-69"/>
      <use x="955.878906" xlink:href="#DejaVuSans-6d"/>
      <use x="1053.291016" xlink:href="#DejaVuSans-65"/>
      <use x="1114.814453" xlink:href="#DejaVuSans-6e"/>
      <use x="1178.193359" xlink:href="#DejaVuSans-73"/>
      <use x="1230.292969" xlink:href="#DejaVuSans-69"/>
      <use x="1258.076172" xlink:href="#DejaVuSans-6f"/>
      <use x="1319.257812" xlink:href="#DejaVuSans-6e"/>
      <use x="1382.636719" xlink:href="#DejaVuSans-29"/>
     </g>
    </g>
   </g>
   <g id="matplotlib.axis_2">
    <g id="ytick_1">
     <g id="line2d_11">
      <path clip-path="url(#p78557dac25)" d="M 56.12 294.88 
L 333.168 294.88 
" style="fill:none;stroke:#b0b0b0;stroke-linecap:square;stroke-width:0.8;"/>
     </g>
     <g id="line2d_12">
      <defs>
       <path d="M 0 0 
L -3.5 0 
" id="m19e3352def" style="stroke:#000000;stroke-width:0.8;"/>
      </defs>
      <g>
       <use style="stroke:#000000;stroke-width:0.8;" x="56.12" xlink:href="#m19e3352def" y="294.88"/>
      </g>
     </g>
     <g id="text_3">
      <!-- 0.0 -->
      <defs>
       <path d="M 10.6875 12.40625 
L 21 12.40625 
L 21 0 
L 10.6875 0 
z
" id="DejaVuSans-2e"/>
      </defs>
      <g transform="translate(23.675 300.95875)scale(0.16 -0.16)">
       <use xlink:href="#DejaVuSans-30"/>
       <use x="63.623047" xlink:href="#DejaVuSans-2e"/>
       <use x="95.410156" xlink:href="#DejaVuSans-30"/>
      </g>
     </g>
    </g>
    <g id="ytick_2">
     <g id="line2d_13">
      <path clip-path="url(#p78557dac25)" d="M 56.12 237.843411 
L 333.168 237.843411 
" style="fill:none;stroke:#b0b0b0;stroke-linecap:square;stroke-width:0.8;"/>
     </g>
     <g id="line2d_14">
      <g>
       <use style="stroke:#000000;stroke-width:0.8;" x="56.12" xlink:href="#m19e3352def" y="237.843411"/>
      </g>
     </g>
     <g id="text_4">
      <!-- 0.2 -->
      <defs>
       <path d="M 19.1875 8.296875 
L 53.609375 8.296875 
L 53.609375 0 
L 7.328125 0 
L 7.328125 8.296875 
Q 12.9375 14.109375 22.625 23.890625 
Q 32.328125 33.6875 34.8125 36.53125 
Q 39.546875 41.84375 41.421875 45.53125 
Q 43.3125 49.21875 43.3125 52.78125 
Q 43.3125 58.59375 39.234375 62.25 
Q 35.15625 65.921875 28.609375 65.921875 
Q 23.96875 65.921875 18.8125 64.3125 
Q 13.671875 62.703125 7.8125 59.421875 
L 7.8125 69.390625 
Q 13.765625 71.78125 18.9375 73 
Q 24.125 74.21875 28.421875 74.21875 
Q 39.75 74.21875 46.484375 68.546875 
Q 53.21875 62.890625 53.21875 53.421875 
Q 53.21875 48.921875 51.53125 44.890625 
Q 49.859375 40.875 45.40625 35.40625 
Q 44.1875 33.984375 37.640625 27.21875 
Q 31.109375 20.453125 19.1875 8.296875 
z
" id="DejaVuSans-32"/>
      </defs>
      <g transform="translate(23.675 243.922161)scale(0.16 -0.16)">
       <use xlink:href="#DejaVuSans-30"/>
       <use x="63.623047" xlink:href="#DejaVuSans-2e"/>
       <use x="95.410156" xlink:href="#DejaVuSans-32"/>
      </g>
     </g>
    </g>
    <g id="ytick_3">
     <g id="line2d_15">
      <path clip-path="url(#p78557dac25)" d="M 56.12 180.806823 
L 333.168 180.806823 
" style="fill:none;stroke:#b0b0b0;stroke-linecap:square;stroke-width:0.8;"/>
     </g>
     <g id="line2d_16">
      <g>
       <use style="stroke:#000000;stroke-width:0.8;" x="56.12" xlink:href="#m19e3352def" y="180.806823"/>
      </g>
     </g>
     <g id="text_5">
      <!-- 0.4 -->
      <defs>
       <path d="M 37.796875 64.3125 
L 12.890625 25.390625 
L 37.796875 25.390625 
z
M 35.203125 72.90625 
L 47.609375 72.90625 
L 47.609375 25.390625 
L 58.015625 25.390625 
L 58.015625 17.1875 
L 47.609375 17.1875 
L 47.609375 0 
L 37.796875 0 
L 37.796875 17.1875 
L 4.890625 17.1875 
L 4.890625 26.703125 
z
" id="DejaVuSans-34"/>
      </defs>
      <g transform="translate(23.675 186.885573)scale(0.16 -0.16)">
       <use xlink:href="#DejaVuSans-30"/>
       <use x="63.623047" xlink:href="#DejaVuSans-2e"/>
       <use x="95.410156" xlink:href="#DejaVuSans-34"/>
      </g>
     </g>
    </g>
    <g id="ytick_4">
     <g id="line2d_17">
      <path clip-path="url(#p78557dac25)" d="M 56.12 123.770234 
L 333.168 123.770234 
" style="fill:none;stroke:#b0b0b0;stroke-linecap:square;stroke-width:0.8;"/>
     </g>
     <g id="line2d_18">
      <g>
       <use style="stroke:#000000;stroke-width:0.8;" x="56.12" xlink:href="#m19e3352def" y="123.770234"/>
      </g>
     </g>
     <g id="text_6">
      <!-- 0.6 -->
      <defs>
       <path d="M 33.015625 40.375 
Q 26.375 40.375 22.484375 35.828125 
Q 18.609375 31.296875 18.609375 23.390625 
Q 18.609375 15.53125 22.484375 10.953125 
Q 26.375 6.390625 33.015625 6.390625 
Q 39.65625 6.390625 43.53125 10.953125 
Q 47.40625 15.53125 47.40625 23.390625 
Q 47.40625 31.296875 43.53125 35.828125 
Q 39.65625 40.375 33.015625 40.375 
z
M 52.59375 71.296875 
L 52.59375 62.3125 
Q 48.875 64.0625 45.09375 64.984375 
Q 41.3125 65.921875 37.59375 65.921875 
Q 27.828125 65.921875 22.671875 59.328125 
Q 17.53125 52.734375 16.796875 39.40625 
Q 19.671875 43.65625 24.015625 45.921875 
Q 28.375 48.1875 33.59375 48.1875 
Q 44.578125 48.1875 50.953125 41.515625 
Q 57.328125 34.859375 57.328125 23.390625 
Q 57.328125 12.15625 50.6875 5.359375 
Q 44.046875 -1.421875 33.015625 -1.421875 
Q 20.359375 -1.421875 13.671875 8.265625 
Q 6.984375 17.96875 6.984375 36.375 
Q 6.984375 53.65625 15.1875 63.9375 
Q 23.390625 74.21875 37.203125 74.21875 
Q 40.921875 74.21875 44.703125 73.484375 
Q 48.484375 72.75 52.59375 71.296875 
z
" id="DejaVuSans-36"/>
      </defs>
      <g transform="translate(23.675 129.848984)scale(0.16 -0.16)">
       <use xlink:href="#DejaVuSans-30"/>
       <use x="63.623047" xlink:href="#DejaVuSans-2e"/>
       <use x="95.410156" xlink:href="#DejaVuSans-36"/>
      </g>
     </g>
    </g>
    <g id="ytick_5">
     <g id="line2d_19">
      <path clip-path="url(#p78557dac25)" d="M 56.12 66.733646 
L 333.168 66.733646 
" style="fill:none;stroke:#b0b0b0;stroke-linecap:square;stroke-width:0.8;"/>
     </g>
     <g id="line2d_20">
      <g>
       <use style="stroke:#000000;stroke-width:0.8;" x="56.12" xlink:href="#m19e3352def" y="66.733646"/>
      </g>
     </g>
     <g id="text_7">
      <!-- 0.8 -->
      <defs>
       <path d="M 31.78125 34.625 
Q 24.75 34.625 20.71875 30.859375 
Q 16.703125 27.09375 16.703125 20.515625 
Q 16.703125 13.921875 20.71875 10.15625 
Q 24.75 6.390625 31.78125 6.390625 
Q 38.8125 6.390625 42.859375 10.171875 
Q 46.921875 13.96875 46.921875 20.515625 
Q 46.921875 27.09375 42.890625 30.859375 
Q 38.875 34.625 31.78125 34.625 
z
M 21.921875 38.8125 
Q 15.578125 40.375 12.03125 44.71875 
Q 8.5 49.078125 8.5 55.328125 
Q 8.5 64.0625 14.71875 69.140625 
Q 20.953125 74.21875 31.78125 74.21875 
Q 42.671875 74.21875 48.875 69.140625 
Q 55.078125 64.0625 55.078125 55.328125 
Q 55.078125 49.078125 51.53125 44.71875 
Q 48 40.375 41.703125 38.8125 
Q 48.828125 37.15625 52.796875 32.3125 
Q 56.78125 27.484375 56.78125 20.515625 
Q 56.78125 9.90625 50.3125 4.234375 
Q 43.84375 -1.421875 31.78125 -1.421875 
Q 19.734375 -1.421875 13.25 4.234375 
Q 6.78125 9.90625 6.78125 20.515625 
Q 6.78125 27.484375 10.78125 32.3125 
Q 14.796875 37.15625 21.921875 38.8125 
z
M 18.3125 54.390625 
Q 18.3125 48.734375 21.84375 45.5625 
Q 25.390625 42.390625 31.78125 42.390625 
Q 38.140625 42.390625 41.71875 45.5625 
Q 45.3125 48.734375 45.3125 54.390625 
Q 45.3125 60.0625 41.71875 63.234375 
Q 38.140625 66.40625 31.78125 66.40625 
Q 25.390625 66.40625 21.84375 63.234375 
Q 18.3125 60.0625 18.3125 54.390625 
z
" id="DejaVuSans-38"/>
      </defs>
      <g transform="translate(23.675 72.812396)scale(0.16 -0.16)">
       <use xlink:href="#DejaVuSans-30"/>
       <use x="63.623047" xlink:href="#DejaVuSans-2e"/>
       <use x="95.410156" xlink:href="#DejaVuSans-38"/>
      </g>
     </g>
    </g>
    <g id="ytick_6">
     <g id="line2d_21">
      <path clip-path="url(#p78557dac25)" d="M 56.12 9.697057 
L 333.168 9.697057 
" style="fill:none;stroke:#b0b0b0;stroke-linecap:square;stroke-width:0.8;"/>
     </g>
     <g id="line2d_22">
      <g>
       <use style="stroke:#000000;stroke-width:0.8;" x="56.12" xlink:href="#m19e3352def" y="9.697057"/>
      </g>
     </g>
     <g id="text_8">
      <!-- 1.0 -->
      <g transform="translate(23.675 15.775807)scale(0.16 -0.16)">
       <use xlink:href="#DejaVuSans-31"/>
       <use x="63.623047" xlink:href="#DejaVuSans-2e"/>
       <use x="95.410156" xlink:href="#DejaVuSans-30"/>
      </g>
     </g>
    </g>
    <g id="text_9">
     <!-- Fraction of function,target pairs -->
     <defs>
      <path d="M 9.8125 72.90625 
L 51.703125 72.90625 
L 51.703125 64.59375 
L 19.671875 64.59375 
L 19.671875 43.109375 
L 48.578125 43.109375 
L 48.578125 34.8125 
L 19.671875 34.8125 
L 19.671875 0 
L 9.8125 0 
z
" id="DejaVuSans-46"/>
      <path d="M 41.109375 46.296875 
Q 39.59375 47.171875 37.8125 47.578125 
Q 36.03125 48 33.890625 48 
Q 26.265625 48 22.1875 43.046875 
Q 18.109375 38.09375 18.109375 28.8125 
L 18.109375 0 
L 9.078125 0 
L 9.078125 54.6875 
L 18.109375 54.6875 
L 18.109375 46.1875 
Q 20.953125 51.171875 25.484375 53.578125 
Q 30.03125 56 36.53125 56 
Q 37.453125 56 38.578125 55.875 
Q 39.703125 55.765625 41.0625 55.515625 
z
" id="DejaVuSans-72"/>
      <path d="M 48.78125 52.59375 
L 48.78125 44.1875 
Q 44.96875 46.296875 41.140625 47.34375 
Q 37.3125 48.390625 33.40625 48.390625 
Q 24.65625 48.390625 19.8125 42.84375 
Q 14.984375 37.3125 14.984375 27.296875 
Q 14.984375 17.28125 19.8125 11.734375 
Q 24.65625 6.203125 33.40625 6.203125 
Q 37.3125 6.203125 41.140625 7.25 
Q 44.96875 8.296875 48.78125 10.40625 
L 48.78125 2.09375 
Q 45.015625 0.34375 40.984375 -0.53125 
Q 36.96875 -1.421875 32.421875 -1.421875 
Q 20.0625 -1.421875 12.78125 6.34375 
Q 5.515625 14.109375 5.515625 27.296875 
Q 5.515625 40.671875 12.859375 48.328125 
Q 20.21875 56 33.015625 56 
Q 37.15625 56 41.109375 55.140625 
Q 45.0625 54.296875 48.78125 52.59375 
z
" id="DejaVuSans-63"/>
      <path d="M 18.3125 70.21875 
L 18.3125 54.6875 
L 36.8125 54.6875 
L 36.8125 47.703125 
L 18.3125 47.703125 
L 18.3125 18.015625 
Q 18.3125 11.328125 20.140625 9.421875 
Q 21.96875 7.515625 27.59375 7.515625 
L 36.8125 7.515625 
L 36.8125 0 
L 27.59375 0 
Q 17.1875 0 13.234375 3.875 
Q 9.28125 7.765625 9.28125 18.015625 
L 9.28125 47.703125 
L 2.6875 47.703125 
L 2.6875 54.6875 
L 9.28125 54.6875 
L 9.28125 70.21875 
z
" id="DejaVuSans-74"/>
      <path d="M 8.5 21.578125 
L 8.5 54.6875 
L 17.484375 54.6875 
L 17.484375 21.921875 
Q 17.484375 14.15625 20.5 10.265625 
Q 23.53125 6.390625 29.59375 6.390625 
Q 36.859375 6.390625 41.078125 11.03125 
Q 45.3125 15.671875 45.3125 23.6875 
L 45.3125 54.6875 
L 54.296875 54.6875 
L 54.296875 0 
L 45.3125 0 
L 45.3125 8.40625 
Q 42.046875 3.421875 37.71875 1 
Q 33.40625 -1.421875 27.6875 -1.421875 
Q 18.265625 -1.421875 13.375 4.4375 
Q 8.5 10.296875 8.5 21.578125 
z
M 31.109375 56 
z
" id="DejaVuSans-75"/>
      <path d="M 11.71875 12.40625 
L 22.015625 12.40625 
L 22.015625 4 
L 14.015625 -11.625 
L 7.71875 -11.625 
L 11.71875 4 
z
" id="DejaVuSans-2c"/>
      <path d="M 18.109375 8.203125 
L 18.109375 -20.796875 
L 9.078125 -20.796875 
L 9.078125 54.6875 
L 18.109375 54.6875 
L 18.109375 46.390625 
Q 20.953125 51.265625 25.265625 53.625 
Q 29.59375 56 35.59375 56 
Q 45.5625 56 51.78125 48.09375 
Q 58.015625 40.1875 58.015625 27.296875 
Q 58.015625 14.40625 51.78125 6.484375 
Q 45.5625 -1.421875 35.59375 -1.421875 
Q 29.59375 -1.421875 25.265625 0.953125 
Q 20.953125 3.328125 18.109375 8.203125 
z
M 48.6875 27.296875 
Q 48.6875 37.203125 44.609375 42.84375 
Q 40.53125 48.484375 33.40625 48.484375 
Q 26.265625 48.484375 22.1875 42.84375 
Q 18.109375 37.203125 18.109375 27.296875 
Q 18.109375 17.390625 22.1875 11.75 
Q 26.265625 6.109375 33.40625 6.109375 
Q 40.53125 6.109375 44.609375 11.75 
Q 48.6875 17.390625 48.6875 27.296875 
z
" id="DejaVuSans-70"/>
     </defs>
     <g transform="translate(16.139531 286.001989)rotate(-90)scale(0.17 -0.17)">
      <use xlink:href="#DejaVuSans-46"/>
      <use x="57.410156" xlink:href="#DejaVuSans-72"/>
      <use x="98.523438" xlink:href="#DejaVuSans-61"/>
      <use x="159.802734" xlink:href="#DejaVuSans-63"/>
      <use x="214.783203" xlink:href="#DejaVuSans-74"/>
      <use x="253.992188" xlink:href="#DejaVuSans-69"/>
      <use x="281.775391" xlink:href="#DejaVuSans-6f"/>
      <use x="342.957031" xlink:href="#DejaVuSans-6e"/>
      <use x="406.335938" xlink:href="#DejaVuSans-20"/>
      <use x="438.123047" xlink:href="#DejaVuSans-6f"/>
      <use x="499.304688" xlink:href="#DejaVuSans-66"/>
      <use x="534.509766" xlink:href="#DejaVuSans-20"/>
      <use x="566.296875" xlink:href="#DejaVuSans-66"/>
      <use x="601.501953" xlink:href="#DejaVuSans-75"/>
      <use x="664.880859" xlink:href="#DejaVuSans-6e"/>
      <use x="728.259766" xlink:href="#DejaVuSans-63"/>
      <use x="783.240234" xlink:href="#DejaVuSans-74"/>
      <use x="822.449219" xlink:href="#DejaVuSans-69"/>
      <use x="850.232422" xlink:href="#DejaVuSans-6f"/>
      <use x="911.414062" xlink:href="#DejaVuSans-6e"/>
      <use x="974.792969" xlink:href="#DejaVuSans-2c"/>
      <use x="1006.580078" xlink:href="#DejaVuSans-74"/>
      <use x="1045.789062" xlink:href="#DejaVuSans-61"/>
      <use x="1107.068359" xlink:href="#DejaVuSans-72"/>
      <use x="1148.166016" xlink:href="#DejaVuSans-67"/>
      <use x="1211.642578" xlink:href="#DejaVuSans-65"/>
      <use x="1273.166016" xlink:href="#DejaVuSans-74"/>
      <use x="1312.375" xlink:href="#DejaVuSans-20"/>
      <use x="1344.162109" xlink:href="#DejaVuSans-70"/>
      <use x="1407.638672" xlink:href="#DejaVuSans-61"/>
      <use x="1468.917969" xlink:href="#DejaVuSans-69"/>
      <use x="1496.701172" xlink:href="#DejaVuSans-72"/>
      <use x="1537.814453" xlink:href="#DejaVuSans-73"/>
     </g>
    </g>
   </g>
   <g id="line2d_23">
    <defs>
     <path d="M 0 1.5 
C 0.397805 1.5 0.77937 1.341951 1.06066 1.06066 
C 1.341951 0.77937 1.5 0.397805 1.5 0 
C 1.5 -0.397805 1.341951 -0.77937 1.06066 -1.06066 
C 0.77937 -1.341951 0.397805 -1.5 0 -1.5 
C -0.397805 -1.5 -0.77937 -1.341951 -1.06066 -1.06066 
C -1.341951 -0.77937 -1.5 -0.397805 -1.5 0 
C -1.5 0.397805 -1.341951 0.77937 -1.06066 1.06066 
C -0.77937 1.341951 -0.397805 1.5 0 1.5 
z
" id="mc60609983d" style="stroke:#f5deb3;"/>
    </defs>
    <g>
     <use style="fill:#f5deb3;stroke:#f5deb3;" x="394.758687" xlink:href="#mc60609983d" y="12.176909"/>
     <use style="fill:#f5deb3;stroke:#f5deb3;" x="394.758687" xlink:href="#mc60609983d" y="12.176909"/>
    </g>
   </g>
   <g id="line2d_24">
    <defs>
     <path d="M 0 1.5 
C 0.397805 1.5 0.77937 1.341951 1.06066 1.06066 
C 1.341951 0.77937 1.5 0.397805 1.5 0 
C 1.5 -0.397805 1.341951 -0.77937 1.06066 -1.06066 
C 0.77937 -1.341951 0.397805 -1.5 0 -1.5 
C -0.397805 -1.5 -0.77937 -1.341951 -1.06066 -1.06066 
C -1.341951 -0.77937 -1.5 -0.397805 -1.5 0 
C -1.5 0.397805 -1.341951 0.77937 -1.06066 1.06066 
C -0.77937 1.341951 -0.397805 1.5 0 1.5 
z
" id="ma7ce2518c1" style="stroke:#000080;"/>
    </defs>
    <g>
     <use style="fill:#000080;stroke:#000080;" x="396.524056" xlink:href="#ma7ce2518c1" y="209.077132"/>
     <use style="fill:#000080;stroke:#000080;" x="396.524056" xlink:href="#ma7ce2518c1" y="209.077132"/>
    </g>
   </g>
   <g id="line2d_25">
    <path d="M -1 289.424326 
L -0.34101 289.424326 
L -0.34101 287.68843 
L 14.510178 287.68843 
L 14.510178 283.472682 
L 27.066679 283.472682 
L 27.066679 282.232756 
L 37.943615 282.232756 
L 37.943615 280.744845 
L 47.537752 280.744845 
L 47.537752 277.521038 
L 56.12 277.521038 
L 56.12 276.777083 
L 63.883588 276.777083 
L 63.883588 275.537157 
L 77.491149 275.537157 
L 77.491149 274.297231 
L 83.527689 274.297231 
L 83.527689 273.057305 
L 89.147574 273.057305 
L 89.147574 271.569394 
L 94.404625 271.569394 
L 94.404625 270.825439 
L 99.342865 270.825439 
L 99.342865 270.329468 
L 103.998762 270.329468 
L 103.998762 269.089543 
L 108.402863 269.089543 
L 108.402863 267.849617 
L 112.58101 267.849617 
L 112.58101 267.353646 
L 116.555263 267.353646 
L 116.555263 266.609691 
L 120.344598 266.609691 
L 120.344598 266.361706 
L 123.965462 266.361706 
L 123.965462 265.369765 
L 127.432198 265.369765 
L 127.432198 263.881854 
L 130.757396 263.881854 
L 130.757396 263.633869 
L 133.952159 263.633869 
L 133.952159 263.385884 
L 137.026336 263.385884 
L 137.026336 263.137899 
L 139.988699 263.137899 
L 139.988699 262.889913 
L 145.608584 262.889913 
L 145.608584 260.410062 
L 150.865635 260.410062 
L 150.865635 259.666106 
L 153.372172 259.666106 
L 153.372172 258.922151 
L 155.803875 258.922151 
L 155.803875 256.938269 
L 158.165085 256.938269 
L 158.165085 256.194314 
L 162.691584 256.194314 
L 162.691584 255.946329 
L 166.979733 255.946329 
L 166.979733 255.698344 
L 169.04202 255.698344 
L 169.04202 254.954388 
L 171.053382 254.954388 
L 171.053382 254.706403 
L 173.016273 254.706403 
L 173.016273 253.218492 
L 176.805608 253.218492 
L 176.805608 252.722521 
L 178.636158 252.722521 
L 178.636158 252.474536 
L 182.178282 252.474536 
L 182.178282 252.226551 
L 185.572774 252.226551 
L 185.572774 251.978566 
L 188.831449 251.978566 
L 188.831449 251.730581 
L 190.413169 251.730581 
L 190.413169 250.986625 
L 191.964759 250.986625 
L 191.964759 250.24267 
L 193.487346 250.24267 
L 193.487346 249.498714 
L 194.981994 249.498714 
L 194.981994 249.250729 
L 197.891447 249.250729 
L 197.891447 249.002744 
L 206.043847 249.002744 
L 206.043847 248.506774 
L 208.589554 248.506774 
L 208.589554 248.258788 
L 211.058108 248.258788 
L 211.058108 247.762818 
L 214.626095 247.762818 
L 214.626095 247.266848 
L 215.781519 247.266848 
L 215.781519 247.018863 
L 218.044332 247.018863 
L 218.044332 246.522892 
L 222.389683 246.522892 
L 222.389683 246.026922 
L 224.478413 246.026922 
L 224.478413 245.778937 
L 225.503031 245.778937 
L 225.503031 245.530952 
L 226.51492 245.530952 
L 226.51492 244.539011 
L 227.514393 244.539011 
L 227.514393 244.291026 
L 231.393984 244.291026 
L 231.393984 244.043041 
L 233.266618 244.043041 
L 233.266618 243.54707 
L 234.187035 243.54707 
L 234.187035 243.0511 
L 235.097168 243.0511 
L 235.097168 242.55513 
L 236.887482 242.55513 
L 236.887482 242.307144 
L 238.639292 242.307144 
L 238.639292 242.059159 
L 242.860756 242.059159 
L 242.860756 240.819233 
L 245.292459 240.819233 
L 245.292459 240.323263 
L 246.087158 240.323263 
L 246.087158 240.075278 
L 246.874179 240.075278 
L 246.874179 239.331322 
L 247.653669 239.331322 
L 247.653669 239.083337 
L 249.19062 239.083337 
L 249.19062 238.339382 
L 249.948356 238.339382 
L 249.948356 237.843411 
L 254.352457 237.843411 
L 254.352457 237.595426 
L 255.063868 237.595426 
L 255.063868 237.099456 
L 256.468316 237.099456 
L 256.468316 236.107515 
L 259.877015 236.107515 
L 259.877015 235.85953 
L 266.294192 235.85953 
L 266.294192 235.36356 
L 266.908958 235.36356 
L 266.908958 235.115575 
L 268.725896 235.115575 
L 268.725896 234.619604 
L 269.322646 234.619604 
L 269.322646 234.123634 
L 270.503188 234.123634 
L 270.503188 233.875649 
L 271.087105 233.875649 
L 271.087105 233.627664 
L 277.248228 233.627664 
L 277.248228 232.883708 
L 277.785893 232.883708 
L 277.785893 232.635723 
L 278.850693 232.635723 
L 278.850693 231.395797 
L 279.377918 231.395797 
L 279.377918 231.147812 
L 280.42224 231.147812 
L 280.42224 230.403856 
L 282.471557 230.403856 
L 282.471557 230.155871 
L 284.470578 230.155871 
L 284.470578 229.907886 
L 285.451987 229.907886 
L 285.451987 229.659901 
L 285.938293 229.659901 
L 285.938293 229.411916 
L 287.38003 229.411916 
L 287.38003 229.163931 
L 290.648045 229.163931 
L 290.648045 228.915945 
L 291.558178 228.915945 
L 291.558178 228.66796 
L 292.904589 228.66796 
L 292.904589 228.419975 
L 293.348492 228.419975 
L 293.348492 228.17199 
L 296.38987 228.17199 
L 296.38987 227.428034 
L 296.815229 227.428034 
L 296.815229 226.684079 
L 300.140426 226.684079 
L 300.140426 226.436094 
L 301.753469 226.436094 
L 301.753469 226.188109 
L 302.94263 226.188109 
L 302.94263 225.940123 
L 303.335189 225.940123 
L 303.335189 225.692138 
L 304.88678 225.692138 
L 304.88678 225.444153 
L 305.270103 225.444153 
L 305.270103 225.196168 
L 305.65163 225.196168 
L 305.65163 224.700198 
L 306.785607 224.700198 
L 306.785607 224.452212 
L 310.095788 224.452212 
L 310.095788 224.204227 
L 312.929327 224.204227 
L 312.929327 223.956242 
L 313.276688 223.956242 
L 313.276688 223.708257 
L 314.30997 223.708257 
L 314.30997 223.460272 
L 317.333427 223.460272 
L 317.333427 222.964301 
L 319.288466 222.964301 
L 319.288466 222.468331 
L 319.609792 222.468331 
L 319.609792 222.220346 
L 321.824266 222.220346 
L 321.824266 221.724376 
L 322.135762 221.724376 
L 322.135762 221.47639 
L 323.063165 221.47639 
L 323.063165 221.228405 
L 323.675619 221.228405 
L 323.675619 220.98042 
L 323.980128 220.98042 
L 323.980128 220.48445 
L 324.283503 220.48445 
L 324.283503 220.236465 
L 324.585752 220.236465 
L 324.585752 219.988479 
L 330.125146 219.988479 
L 330.125146 219.740494 
L 331.244834 219.740494 
L 331.244834 219.492509 
L 333.168 219.492509 
L 333.168 219.492509 
" style="fill:none;stroke:#000080;stroke-linecap:square;stroke-width:1.5;"/>
   </g>
   <g id="line2d_26">
    <defs>
     <path d="M 0 6 
C 1.591219 6 3.117479 5.367802 4.242641 4.242641 
C 5.367802 3.117479 6 1.591219 6 0 
C 6 -1.591219 5.367802 -3.117479 4.242641 -4.242641 
C 3.117479 -5.367802 1.591219 -6 0 -6 
C -1.591219 -6 -3.117479 -5.367802 -4.242641 -4.242641 
C -5.367802 -3.117479 -6 -1.591219 -6 0 
C -6 1.591219 -5.367802 3.117479 -4.242641 4.242641 
C -3.117479 5.367802 -1.591219 6 0 6 
z
" id="m7eb9705618" style="stroke:#000080;stroke-width:1.5;"/>
    </defs>
    <g>
     <use style="fill-opacity:0;stroke:#000080;stroke-width:1.5;" x="120.344598" xlink:href="#m7eb9705618" y="266.361706"/>
     <use style="fill-opacity:0;stroke:#000080;stroke-width:1.5;" x="173.016273" xlink:href="#m7eb9705618" y="254.706403"/>
     <use style="fill-opacity:0;stroke:#000080;stroke-width:1.5;" x="238.639292" xlink:href="#m7eb9705618" y="242.307144"/>
     <use style="fill-opacity:0;stroke:#000080;stroke-width:1.5;" x="284.470578" xlink:href="#m7eb9705618" y="230.155871"/>
     <use style="fill-opacity:0;stroke:#000080;stroke-width:1.5;" x="331.244834" xlink:href="#m7eb9705618" y="219.492509"/>
     <use style="fill-opacity:0;stroke:#000080;stroke-width:1.5;" x="331.244834" xlink:href="#m7eb9705618" y="219.492509"/>
     <use style="fill-opacity:0;stroke:#000080;stroke-width:1.5;" x="333.168" xlink:href="#m7eb9705618" y="219.492509"/>
    </g>
   </g>
   <g id="line2d_27">
    <path style="fill:none;stroke:#000080;stroke-linecap:square;stroke-width:1.5;"/>
    <g/>
   </g>
   <g id="line2d_28">
    <path clip-path="url(#p78557dac25)" d="M 333.168 219.492509 
" style="fill:none;stroke:#000080;stroke-linecap:square;stroke-width:1.5;"/>
    <defs>
     <path d="M -12 12 
L 12 -12 
M -12 -12 
L 12 12 
" id="mdab74d80ab" style="stroke:#000080;"/>
    </defs>
    <g clip-path="url(#p78557dac25)">
     <use style="fill:#000080;stroke:#000080;" x="333.168" xlink:href="#mdab74d80ab" y="219.492509"/>
    </g>
   </g>
   <g id="line2d_29">
    <defs>
     <path d="M 0 1.5 
C 0.397805 1.5 0.77937 1.341951 1.06066 1.06066 
C 1.341951 0.77937 1.5 0.397805 1.5 0 
C 1.5 -0.397805 1.341951 -0.77937 1.06066 -1.06066 
C 0.77937 -1.341951 0.397805 -1.5 0 -1.5 
C -0.397805 -1.5 -0.77937 -1.341951 -1.06066 -1.06066 
C -1.341951 -0.77937 -1.5 -0.397805 -1.5 0 
C -1.5 0.397805 -1.341951 0.77937 -1.06066 1.06066 
C -0.77937 1.341951 -0.397805 1.5 0 1.5 
z
" id="m929b0d1ea2" style="stroke:#ff00ff;"/>
    </defs>
    <g>
     <use style="fill:#ff00ff;stroke:#ff00ff;" x="390.841777" xlink:href="#m929b0d1ea2" y="102.93948"/>
     <use style="fill:#ff00ff;stroke:#ff00ff;" x="390.841777" xlink:href="#m929b0d1ea2" y="102.93948"/>
    </g>
   </g>
   <g id="line2d_30">
    <path d="M -1 281.488801 
L -0.34101 281.488801 
L -0.34101 280.248875 
L 14.510178 280.248875 
L 14.510178 278.264994 
L 27.066679 278.264994 
L 27.066679 276.529098 
L 37.943615 276.529098 
L 37.943615 274.049246 
L 47.537752 274.049246 
L 47.537752 271.073424 
L 56.12 271.073424 
L 56.12 270.081483 
L 63.883588 270.081483 
L 63.883588 268.841557 
L 70.971188 268.841557 
L 70.971188 267.601632 
L 77.491149 267.601632 
L 77.491149 266.857676 
L 83.527689 266.857676 
L 83.527689 266.113721 
L 89.147574 266.113721 
L 89.147574 265.12178 
L 94.404625 265.12178 
L 94.404625 264.62581 
L 103.998762 264.62581 
L 103.998762 263.881854 
L 108.402863 263.881854 
L 108.402863 263.137899 
L 112.58101 263.137899 
L 112.58101 262.393943 
L 120.344598 262.393943 
L 120.344598 262.145958 
L 123.965462 262.145958 
L 123.965462 261.649988 
L 127.432198 261.649988 
L 127.432198 260.906032 
L 130.757396 260.906032 
L 130.757396 260.658047 
L 133.952159 260.658047 
L 133.952159 260.162077 
L 137.026336 260.162077 
L 137.026336 259.914091 
L 139.988699 259.914091 
L 139.988699 259.666106 
L 142.847098 259.666106 
L 142.847098 258.922151 
L 145.608584 258.922151 
L 145.608584 258.178195 
L 148.279512 258.178195 
L 148.279512 257.93021 
L 150.865635 257.93021 
L 150.865635 257.682225 
L 153.372172 257.682225 
L 153.372172 257.43424 
L 155.803875 257.43424 
L 155.803875 257.186255 
L 158.165085 257.186255 
L 158.165085 256.938269 
L 160.459772 256.938269 
L 160.459772 256.194314 
L 164.863873 256.194314 
L 164.863873 255.946329 
L 166.979733 255.946329 
L 166.979733 255.698344 
L 169.04202 255.698344 
L 169.04202 255.202373 
L 171.053382 255.202373 
L 171.053382 254.706403 
L 173.016273 254.706403 
L 173.016273 253.962447 
L 174.932974 253.962447 
L 174.932974 253.714462 
L 176.805608 253.714462 
L 176.805608 253.218492 
L 178.636158 253.218492 
L 178.636158 252.722521 
L 180.426472 252.722521 
L 180.426472 252.226551 
L 183.893209 252.226551 
L 183.893209 251.978566 
L 187.218406 251.978566 
L 187.218406 251.730581 
L 188.831449 251.730581 
L 188.831449 251.482596 
L 190.413169 251.482596 
L 190.413169 251.23461 
L 191.964759 251.23461 
L 191.964759 250.73864 
L 193.487346 250.73864 
L 193.487346 249.746699 
L 194.981994 249.746699 
L 194.981994 249.498714 
L 196.449709 249.498714 
L 196.449709 249.250729 
L 200.700553 249.250729 
L 200.700553 249.002744 
L 203.416005 249.002744 
L 203.416005 248.506774 
L 206.043847 248.506774 
L 206.043847 248.010803 
L 207.326645 248.010803 
L 207.326645 247.762818 
L 208.589554 247.762818 
L 208.589554 247.266848 
L 209.833182 247.266848 
L 209.833182 246.522892 
L 211.058108 246.522892 
L 211.058108 246.274907 
L 212.264886 246.274907 
L 212.264886 246.026922 
L 215.781519 246.026922 
L 215.781519 245.778937 
L 220.24598 245.778937 
L 220.24598 245.034981 
L 221.324883 245.034981 
L 221.324883 222.468331 
L 222.389683 222.468331 
L 222.389683 217.756613 
L 223.440743 217.756613 
L 223.440743 214.780791 
L 224.478413 214.780791 
L 224.478413 212.052954 
L 225.503031 212.052954 
L 225.503031 210.069073 
L 226.51492 210.069073 
L 226.51492 207.837206 
L 227.514393 207.837206 
L 227.514393 205.109369 
L 228.50175 205.109369 
L 228.50175 204.365414 
L 229.477283 204.365414 
L 229.477283 203.621458 
L 230.441271 203.621458 
L 230.441271 199.157725 
L 231.393984 199.157725 
L 231.393984 198.41377 
L 232.335682 198.41377 
L 232.335682 197.173844 
L 233.266618 197.173844 
L 233.266618 196.429888 
L 234.187035 196.429888 
L 234.187035 195.685933 
L 235.997244 195.685933 
L 235.997244 194.941977 
L 236.887482 194.941977 
L 236.887482 193.454066 
L 237.768096 193.454066 
L 237.768096 192.462126 
L 238.639292 192.462126 
L 238.639292 191.71817 
L 239.501268 191.71817 
L 239.501268 190.974215 
L 240.354219 190.974215 
L 240.354219 190.230259 
L 241.19833 190.230259 
L 241.19833 188.494363 
L 242.033784 188.494363 
L 242.033784 187.254437 
L 242.860756 187.254437 
L 242.860756 186.014511 
L 243.679416 186.014511 
L 243.679416 184.03063 
L 244.48993 184.03063 
L 244.48993 183.53466 
L 245.292459 183.53466 
L 245.292459 181.798764 
L 246.874179 181.798764 
L 246.874179 181.054808 
L 247.653669 181.054808 
L 247.653669 180.310853 
L 248.425769 180.310853 
L 248.425769 179.070927 
L 249.19062 179.070927 
L 249.19062 177.831001 
L 249.948356 177.831001 
L 249.948356 177.335031 
L 250.699108 177.335031 
L 250.699108 176.34309 
L 251.443004 176.34309 
L 251.443004 174.359209 
L 252.91072 174.359209 
L 252.91072 173.367268 
L 253.634778 173.367268 
L 253.634778 172.871297 
L 254.352457 172.871297 
L 254.352457 171.879357 
L 255.769119 171.879357 
L 255.769119 170.143461 
L 256.468316 170.143461 
L 256.468316 169.64749 
L 257.161563 169.64749 
L 257.161563 168.903535 
L 258.530604 168.903535 
L 258.530604 168.159579 
L 259.206592 168.159579 
L 259.206592 167.167639 
L 259.877015 167.167639 
L 259.877015 166.175698 
L 260.541966 166.175698 
L 260.541966 165.183757 
L 261.201533 165.183757 
L 261.201533 164.687787 
L 261.855802 164.687787 
L 261.855802 163.943831 
L 262.504857 163.943831 
L 262.504857 163.695846 
L 263.148781 163.695846 
L 263.148781 163.199876 
L 263.787655 163.199876 
L 263.787655 162.951891 
L 264.421558 162.951891 
L 264.421558 162.45592 
L 265.674752 162.45592 
L 265.674752 161.711965 
L 266.294192 161.711965 
L 266.294192 161.215995 
L 267.519118 161.215995 
L 267.519118 160.224054 
L 268.124742 160.224054 
L 268.124742 158.984128 
L 268.725896 158.984128 
L 268.725896 158.736143 
L 269.322646 158.736143 
L 269.322646 158.488158 
L 269.915056 158.488158 
L 269.915056 157.992187 
L 270.503188 157.992187 
L 270.503188 157.496217 
L 271.087105 157.496217 
L 271.087105 156.504276 
L 271.666866 156.504276 
L 271.666866 155.264351 
L 272.814153 155.264351 
L 272.814153 154.520395 
L 273.381793 154.520395 
L 273.381793 153.280469 
L 273.945504 153.280469 
L 273.945504 153.032484 
L 274.505342 153.032484 
L 274.505342 152.536514 
L 275.061358 152.536514 
L 275.061358 151.792558 
L 276.162131 151.792558 
L 276.162131 151.544573 
L 276.70699 151.544573 
L 276.70699 151.048603 
L 277.248228 151.048603 
L 277.248228 150.056662 
L 278.320033 150.056662 
L 278.320033 149.560692 
L 278.850693 149.560692 
L 278.850693 148.816736 
L 279.377918 148.816736 
L 279.377918 148.568751 
L 279.901753 148.568751 
L 279.901753 148.320766 
L 280.42224 148.320766 
L 280.42224 147.08084 
L 280.939423 147.08084 
L 280.939423 145.096959 
L 281.453343 145.096959 
L 281.453343 144.353003 
L 281.964041 144.353003 
L 281.964041 144.105018 
L 282.471557 144.105018 
L 282.471557 143.857033 
L 282.97593 143.857033 
L 282.97593 142.865092 
L 283.477199 142.865092 
L 283.477199 142.617107 
L 283.975403 142.617107 
L 283.975403 141.377181 
L 284.470578 141.377181 
L 284.470578 141.129196 
L 285.451987 141.129196 
L 285.451987 140.633226 
L 285.938293 140.633226 
L 285.938293 140.385241 
L 286.902281 140.385241 
L 286.902281 139.88927 
L 287.38003 139.88927 
L 287.38003 139.3933 
L 287.854994 139.3933 
L 287.854994 138.649344 
L 288.327204 138.649344 
L 288.327204 138.153374 
L 288.796693 138.153374 
L 288.796693 137.657404 
L 289.263491 137.657404 
L 289.263491 137.409419 
L 291.558178 137.409419 
L 291.558178 136.913448 
L 292.458254 136.913448 
L 292.458254 136.665463 
L 292.904589 136.665463 
L 292.904589 136.417478 
L 293.348492 136.417478 
L 293.348492 135.921508 
L 293.789989 135.921508 
L 293.789989 135.425537 
L 294.229107 135.425537 
L 294.229107 134.929567 
L 294.665869 134.929567 
L 294.665869 134.681582 
L 295.532431 134.681582 
L 295.532431 133.689641 
L 296.38987 133.689641 
L 296.38987 133.193671 
L 296.815229 133.193671 
L 296.815229 132.945685 
L 297.65934 132.945685 
L 297.65934 132.20173 
L 299.321766 132.20173 
L 299.321766 131.457774 
L 300.950941 131.457774 
L 300.950941 129.721878 
L 301.353193 129.721878 
L 301.353193 129.225908 
L 302.151788 129.225908 
L 302.151788 128.977923 
L 302.94263 128.977923 
L 302.94263 128.729938 
L 303.335189 128.729938 
L 303.335189 128.481952 
L 303.725867 128.481952 
L 303.725867 128.233967 
L 304.114679 128.233967 
L 304.114679 127.985982 
L 304.88678 127.985982 
L 304.88678 127.737997 
L 306.031379 127.737997 
L 306.031379 126.498071 
L 307.160118 126.498071 
L 307.160118 126.250086 
L 307.532915 126.250086 
L 307.532915 125.754116 
L 307.904014 125.754116 
L 307.904014 125.01016 
L 310.095788 125.01016 
L 310.095788 124.762175 
L 310.813467 124.762175 
L 310.813467 124.51419 
L 311.524878 124.51419 
L 311.524878 124.266205 
L 311.878267 124.266205 
L 311.878267 124.018219 
L 312.929327 124.018219 
L 312.929327 122.778294 
L 313.276688 122.778294 
L 313.276688 122.282323 
L 314.651505 122.282323 
L 314.651505 122.034338 
L 315.33031 122.034338 
L 315.33031 121.538368 
L 315.667602 121.538368 
L 315.667602 120.298442 
L 317.002976 120.298442 
L 317.002976 119.802472 
L 317.333427 119.802472 
L 317.333427 119.306501 
L 323.980128 119.306501 
L 323.980128 119.058516 
L 324.886883 119.058516 
L 324.886883 118.810531 
L 327.548115 118.810531 
L 327.548115 118.562546 
L 328.416216 118.562546 
L 328.416216 118.314561 
L 330.686914 118.314561 
L 330.686914 118.066575 
L 330.966352 118.066575 
L 330.966352 117.81859 
L 331.244834 117.81859 
L 331.244834 116.578664 
L 332.896026 116.578664 
L 332.896026 116.330679 
L 333.168 116.330679 
L 333.168 116.082694 
L 333.168 116.082694 
" style="fill:none;stroke:#ff00ff;stroke-linecap:square;stroke-width:1.5;"/>
   </g>
   <g id="line2d_31">
    <defs>
     <path d="M -0 8.485281 
L 5.091169 0 
L 0 -8.485281 
L -5.091169 -0 
z
" id="mc290e2ae21" style="stroke:#ff00ff;stroke-linejoin:miter;stroke-width:1.5;"/>
    </defs>
    <g>
     <use style="fill-opacity:0;stroke:#ff00ff;stroke-linejoin:miter;stroke-width:1.5;" x="103.998762" xlink:href="#mc290e2ae21" y="264.62581"/>
     <use style="fill-opacity:0;stroke:#ff00ff;stroke-linejoin:miter;stroke-width:1.5;" x="169.04202" xlink:href="#mc290e2ae21" y="255.202373"/>
     <use style="fill-opacity:0;stroke:#ff00ff;stroke-linejoin:miter;stroke-width:1.5;" x="221.324883" xlink:href="#mc290e2ae21" y="245.034981"/>
     <use style="fill-opacity:0;stroke:#ff00ff;stroke-linejoin:miter;stroke-width:1.5;" x="247.653669" xlink:href="#mc290e2ae21" y="181.054808"/>
     <use style="fill-opacity:0;stroke:#ff00ff;stroke-linejoin:miter;stroke-width:1.5;" x="291.558178" xlink:href="#mc290e2ae21" y="137.409419"/>
     <use style="fill-opacity:0;stroke:#ff00ff;stroke-linejoin:miter;stroke-width:1.5;" x="333.168" xlink:href="#mc290e2ae21" y="116.330679"/>
     <use style="fill-opacity:0;stroke:#ff00ff;stroke-linejoin:miter;stroke-width:1.5;" x="333.168" xlink:href="#mc290e2ae21" y="116.330679"/>
     <use style="fill-opacity:0;stroke:#ff00ff;stroke-linejoin:miter;stroke-width:1.5;" x="333.168" xlink:href="#mc290e2ae21" y="116.082694"/>
    </g>
   </g>
   <g id="line2d_32">
    <path style="fill:none;stroke:#ff00ff;stroke-linecap:square;stroke-width:1.5;"/>
    <g/>
   </g>
   <g id="line2d_33">
    <path clip-path="url(#p78557dac25)" d="M 333.168 116.082694 
" style="fill:none;stroke:#ff00ff;stroke-linecap:square;stroke-width:1.5;"/>
    <defs>
     <path d="M -12 12 
L 12 -12 
M -12 -12 
L 12 12 
" id="mdf631956c3" style="stroke:#ff00ff;"/>
    </defs>
    <g clip-path="url(#p78557dac25)">
     <use style="fill:#ff00ff;stroke:#ff00ff;" x="333.168" xlink:href="#mdf631956c3" y="116.082694"/>
    </g>
   </g>
   <g id="line2d_34">
    <defs>
     <path d="M 0 1.5 
C 0.397805 1.5 0.77937 1.341951 1.06066 1.06066 
C 1.341951 0.77937 1.5 0.397805 1.5 0 
C 1.5 -0.397805 1.341951 -0.77937 1.06066 -1.06066 
C 0.77937 -1.341951 0.397805 -1.5 0 -1.5 
C -0.397805 -1.5 -0.77937 -1.341951 -1.06066 -1.06066 
C -1.341951 -0.77937 -1.5 -0.397805 -1.5 0 
C -1.5 0.397805 -1.341951 0.77937 -1.06066 1.06066 
C -0.77937 1.341951 -0.397805 1.5 0 1.5 
z
" id="m3271c73177" style="stroke:#ffa500;"/>
    </defs>
    <g>
     <use style="fill:#ffa500;stroke:#ffa500;" x="390.841777" xlink:href="#m3271c73177" y="97.979777"/>
     <use style="fill:#ffa500;stroke:#ffa500;" x="390.841777" xlink:href="#m3271c73177" y="97.979777"/>
    </g>
   </g>
   <g id="line2d_35">
    <path d="M -1 289.424326 
L -0.34101 289.424326 
L -0.34101 288.1844 
L 14.510178 288.1844 
L 14.510178 286.200519 
L 27.066679 286.200519 
L 27.066679 283.472682 
L 37.943615 283.472682 
L 37.943615 281.736786 
L 47.537752 281.736786 
L 47.537752 277.521038 
L 56.12 277.521038 
L 56.12 275.041187 
L 63.883588 275.041187 
L 63.883588 273.553276 
L 70.971188 273.553276 
L 70.971188 273.057305 
L 77.491149 273.057305 
L 77.491149 272.065365 
L 89.147574 272.065365 
L 89.147574 271.569394 
L 94.404625 271.569394 
L 94.404625 271.073424 
L 99.342865 271.073424 
L 99.342865 270.825439 
L 103.998762 270.825439 
L 103.998762 270.577454 
L 108.402863 270.577454 
L 108.402863 270.329468 
L 112.58101 270.329468 
L 112.58101 269.585513 
L 116.555263 269.585513 
L 116.555263 269.089543 
L 120.344598 269.089543 
L 120.344598 268.345587 
L 123.965462 268.345587 
L 123.965462 267.849617 
L 127.432198 267.849617 
L 127.432198 266.361706 
L 130.757396 266.361706 
L 130.757396 265.865735 
L 133.952159 265.865735 
L 133.952159 265.12178 
L 139.988699 265.12178 
L 139.988699 263.633869 
L 142.847098 263.633869 
L 142.847098 262.889913 
L 145.608584 262.889913 
L 145.608584 261.154017 
L 148.279512 261.154017 
L 148.279512 260.162077 
L 150.865635 260.162077 
L 150.865635 259.418121 
L 155.803875 259.418121 
L 155.803875 259.170136 
L 160.459772 259.170136 
L 160.459772 258.178195 
L 162.691584 258.178195 
L 162.691584 257.93021 
L 166.979733 257.93021 
L 166.979733 256.442299 
L 169.04202 256.442299 
L 169.04202 255.450358 
L 171.053382 255.450358 
L 171.053382 254.954388 
L 176.805608 254.954388 
L 176.805608 254.458418 
L 178.636158 254.458418 
L 178.636158 253.714462 
L 182.178282 253.714462 
L 182.178282 253.466477 
L 193.487346 253.466477 
L 193.487346 252.474536 
L 194.981994 252.474536 
L 194.981994 252.226551 
L 196.449709 252.226551 
L 196.449709 251.978566 
L 199.308109 251.978566 
L 199.308109 251.730581 
L 200.700553 251.730581 
L 200.700553 251.482596 
L 203.416005 251.482596 
L 203.416005 250.73864 
L 207.326645 250.73864 
L 207.326645 250.490655 
L 209.833182 250.490655 
L 209.833182 249.746699 
L 211.058108 249.746699 
L 211.058108 249.002744 
L 212.264886 249.002744 
L 212.264886 248.754759 
L 213.454046 248.754759 
L 213.454046 248.258788 
L 214.626095 248.258788 
L 214.626095 248.010803 
L 215.781519 248.010803 
L 215.781519 247.514833 
L 216.920782 247.514833 
L 216.920782 246.522892 
L 219.152594 246.522892 
L 219.152594 246.026922 
L 221.324883 246.026922 
L 221.324883 234.867589 
L 222.389683 234.867589 
L 222.389683 226.684079 
L 223.440743 226.684079 
L 223.440743 223.212287 
L 224.478413 223.212287 
L 224.478413 219.244524 
L 225.503031 219.244524 
L 225.503031 215.524746 
L 226.51492 215.524746 
L 226.51492 213.044895 
L 227.514393 213.044895 
L 227.514393 208.333176 
L 228.50175 208.333176 
L 228.50175 206.349295 
L 229.477283 206.349295 
L 229.477283 204.365414 
L 230.441271 204.365414 
L 230.441271 203.373473 
L 231.393984 203.373473 
L 231.393984 201.141607 
L 232.335682 201.141607 
L 232.335682 200.645636 
L 233.266618 200.645636 
L 233.266618 199.653696 
L 235.097168 199.653696 
L 235.097168 197.917799 
L 235.997244 197.917799 
L 235.997244 197.421829 
L 236.887482 197.421829 
L 236.887482 196.677874 
L 237.768096 196.677874 
L 237.768096 196.429888 
L 238.639292 196.429888 
L 238.639292 195.437948 
L 239.501268 195.437948 
L 239.501268 194.941977 
L 240.354219 194.941977 
L 240.354219 193.702052 
L 242.860756 193.702052 
L 242.860756 191.966155 
L 243.679416 191.966155 
L 243.679416 191.2222 
L 244.48993 191.2222 
L 244.48993 190.72623 
L 245.292459 190.72623 
L 245.292459 189.238319 
L 246.087158 189.238319 
L 246.087158 188.742348 
L 246.874179 188.742348 
L 246.874179 188.246378 
L 247.653669 188.246378 
L 247.653669 186.758467 
L 248.425769 186.758467 
L 248.425769 186.262497 
L 249.19062 186.262497 
L 249.19062 185.766526 
L 249.948356 185.766526 
L 249.948356 184.774586 
L 250.699108 184.774586 
L 250.699108 184.278615 
L 251.443004 184.278615 
L 251.443004 183.53466 
L 252.180168 183.53466 
L 252.180168 182.790704 
L 252.91072 182.790704 
L 252.91072 182.294734 
L 253.634778 182.294734 
L 253.634778 180.806823 
L 254.352457 180.806823 
L 254.352457 180.310853 
L 255.063868 180.310853 
L 255.063868 180.062867 
L 255.769119 180.062867 
L 255.769119 179.070927 
L 256.468316 179.070927 
L 256.468316 177.831001 
L 257.161563 177.831001 
L 257.161563 177.087045 
L 258.530604 177.087045 
L 258.530604 176.34309 
L 259.206592 176.34309 
L 259.206592 175.599134 
L 260.541966 175.599134 
L 260.541966 174.359209 
L 261.201533 174.359209 
L 261.201533 173.119283 
L 261.855802 173.119283 
L 261.855802 172.623312 
L 262.504857 172.623312 
L 262.504857 172.375327 
L 263.148781 172.375327 
L 263.148781 172.127342 
L 263.787655 172.127342 
L 263.787655 170.391446 
L 264.421558 170.391446 
L 264.421558 169.895475 
L 265.050565 169.895475 
L 265.050565 169.64749 
L 265.674752 169.64749 
L 265.674752 168.903535 
L 266.294192 168.903535 
L 266.294192 168.159579 
L 266.908958 168.159579 
L 266.908958 167.167639 
L 267.519118 167.167639 
L 267.519118 166.919653 
L 268.124742 166.919653 
L 268.124742 165.927713 
L 268.725896 165.927713 
L 268.725896 165.679728 
L 269.322646 165.679728 
L 269.322646 164.439802 
L 269.915056 164.439802 
L 269.915056 164.191817 
L 271.087105 164.191817 
L 271.087105 163.447861 
L 271.666866 163.447861 
L 271.666866 162.45592 
L 272.242529 162.45592 
L 272.242529 161.711965 
L 272.814153 161.711965 
L 272.814153 161.46398 
L 273.381793 161.46398 
L 273.381793 161.215995 
L 273.945504 161.215995 
L 273.945504 160.968009 
L 274.505342 160.968009 
L 274.505342 160.224054 
L 275.061358 160.224054 
L 275.061358 159.976069 
L 276.162131 159.976069 
L 276.162131 158.984128 
L 276.70699 158.984128 
L 276.70699 158.488158 
L 277.248228 158.488158 
L 277.248228 157.744202 
L 277.785893 157.744202 
L 277.785893 157.496217 
L 278.320033 157.496217 
L 278.320033 157.000247 
L 278.850693 157.000247 
L 278.850693 156.504276 
L 279.377918 156.504276 
L 279.377918 155.512336 
L 279.901753 155.512336 
L 279.901753 153.77644 
L 280.42224 153.77644 
L 280.42224 153.032484 
L 280.939423 153.032484 
L 280.939423 152.288529 
L 281.453343 152.288529 
L 281.453343 151.544573 
L 282.471557 151.544573 
L 282.471557 151.048603 
L 283.477199 151.048603 
L 283.477199 150.800618 
L 283.975403 150.800618 
L 283.975403 150.056662 
L 284.470578 150.056662 
L 284.470578 149.312707 
L 285.451987 149.312707 
L 285.451987 148.816736 
L 285.938293 148.816736 
L 285.938293 147.57681 
L 286.421713 147.57681 
L 286.421713 146.088899 
L 287.854994 146.088899 
L 287.854994 145.592929 
L 288.327204 145.592929 
L 288.327204 145.344944 
L 288.796693 145.344944 
L 288.796693 144.848974 
L 289.263491 144.848974 
L 289.263491 144.600988 
L 290.648045 144.600988 
L 290.648045 144.105018 
L 292.458254 144.105018 
L 292.458254 143.361063 
L 292.904589 143.361063 
L 292.904589 142.617107 
L 293.348492 142.617107 
L 293.348492 142.369122 
L 293.789989 142.369122 
L 293.789989 141.873152 
L 294.229107 141.873152 
L 294.229107 141.625166 
L 294.665869 141.625166 
L 294.665869 140.633226 
L 295.532431 140.633226 
L 295.532431 140.137255 
L 295.962279 140.137255 
L 295.962279 138.89733 
L 296.38987 138.89733 
L 296.38987 138.649344 
L 296.815229 138.649344 
L 296.815229 138.401359 
L 297.238378 138.401359 
L 297.238378 137.657404 
L 297.65934 137.657404 
L 297.65934 136.913448 
L 298.90933 136.913448 
L 298.90933 136.665463 
L 299.732125 136.665463 
L 299.732125 136.417478 
L 301.353193 136.417478 
L 301.353193 136.169493 
L 301.753469 136.169493 
L 301.753469 135.425537 
L 303.335189 135.425537 
L 303.335189 134.929567 
L 303.725867 134.929567 
L 303.725867 134.681582 
L 304.114679 134.681582 
L 304.114679 132.945685 
L 304.88678 132.945685 
L 304.88678 132.6977 
L 305.65163 132.6977 
L 305.65163 132.20173 
L 306.409366 132.20173 
L 306.409366 131.70576 
L 306.785607 131.70576 
L 306.785607 131.209789 
L 307.160118 131.209789 
L 307.160118 130.217849 
L 307.904014 130.217849 
L 307.904014 129.721878 
L 308.27343 129.721878 
L 308.27343 129.473893 
L 308.641178 129.473893 
L 308.641178 128.977923 
L 310.095788 128.977923 
L 310.095788 128.481952 
L 310.813467 128.481952 
L 310.813467 127.242027 
L 311.169949 127.242027 
L 311.169949 126.994041 
L 311.524878 126.994041 
L 311.524878 126.250086 
L 312.230129 126.250086 
L 312.230129 126.002101 
L 312.929327 126.002101 
L 312.929327 125.754116 
L 313.622574 125.754116 
L 313.622574 124.51419 
L 313.966997 124.51419 
L 313.966997 124.266205 
L 314.651505 124.266205 
L 314.651505 123.770234 
L 314.991615 123.770234 
L 314.991615 123.274264 
L 315.33031 123.274264 
L 315.33031 122.778294 
L 315.667602 122.778294 
L 315.667602 122.530308 
L 316.003504 122.530308 
L 316.003504 122.282323 
L 316.338026 122.282323 
L 316.338026 121.786353 
L 316.67118 121.786353 
L 316.67118 121.290383 
L 317.002976 121.290383 
L 317.002976 121.042397 
L 317.333427 121.042397 
L 317.333427 120.794412 
L 317.662543 120.794412 
L 317.662543 120.050457 
L 318.316812 120.050457 
L 318.316812 119.306501 
L 319.929855 119.306501 
L 319.929855 119.058516 
L 321.197678 119.058516 
L 321.197678 118.066575 
L 321.511575 118.066575 
L 321.511575 117.81859 
L 324.283503 117.81859 
L 324.283503 117.32262 
L 324.585752 117.32262 
L 324.585752 116.82665 
L 325.186906 116.82665 
L 325.186906 116.578664 
L 326.376066 116.578664 
L 326.376066 116.082694 
L 327.548115 116.082694 
L 327.548115 115.834709 
L 327.838511 115.834709 
L 327.838511 115.090753 
L 328.989852 115.090753 
L 328.989852 114.594783 
L 330.966352 114.594783 
L 330.966352 113.602842 
L 331.244834 113.602842 
L 331.244834 113.354857 
L 331.798959 113.354857 
L 331.798959 113.106872 
L 332.074614 113.106872 
L 332.074614 112.362917 
L 332.34934 112.362917 
L 332.34934 112.114931 
L 333.168 112.114931 
L 333.168 112.114931 
" style="fill:none;stroke:#ffa500;stroke-linecap:square;stroke-width:1.5;"/>
   </g>
   <g id="line2d_36">
    <defs>
     <path d="M 0 -6 
L -1.347084 -1.854102 
L -5.706339 -1.854102 
L -2.179628 0.708204 
L -3.526712 4.854102 
L -0 2.291796 
L 3.526712 4.854102 
L 2.179628 0.708204 
L 5.706339 -1.854102 
L 1.347084 -1.854102 
z
" id="md17a80af0d" style="stroke:#ffa500;stroke-linejoin:bevel;stroke-width:1.5;"/>
    </defs>
    <g>
     <use style="fill-opacity:0;stroke:#ffa500;stroke-linejoin:bevel;stroke-width:1.5;" x="108.402863" xlink:href="#md17a80af0d" y="270.577454"/>
     <use style="fill-opacity:0;stroke:#ffa500;stroke-linejoin:bevel;stroke-width:1.5;" x="171.053382" xlink:href="#md17a80af0d" y="255.450358"/>
     <use style="fill-opacity:0;stroke:#ffa500;stroke-linejoin:bevel;stroke-width:1.5;" x="226.51492" xlink:href="#md17a80af0d" y="213.044895"/>
     <use style="fill-opacity:0;stroke:#ffa500;stroke-linejoin:bevel;stroke-width:1.5;" x="255.063868" xlink:href="#md17a80af0d" y="180.310853"/>
     <use style="fill-opacity:0;stroke:#ffa500;stroke-linejoin:bevel;stroke-width:1.5;" x="311.524878" xlink:href="#md17a80af0d" y="126.250086"/>
     <use style="fill-opacity:0;stroke:#ffa500;stroke-linejoin:bevel;stroke-width:1.5;" x="332.34934" xlink:href="#md17a80af0d" y="112.114931"/>
     <use style="fill-opacity:0;stroke:#ffa500;stroke-linejoin:bevel;stroke-width:1.5;" x="332.34934" xlink:href="#md17a80af0d" y="112.114931"/>
     <use style="fill-opacity:0;stroke:#ffa500;stroke-linejoin:bevel;stroke-width:1.5;" x="333.168" xlink:href="#md17a80af0d" y="112.114931"/>
    </g>
   </g>
   <g id="line2d_37">
    <path style="fill:none;stroke:#ffa500;stroke-linecap:square;stroke-width:1.5;"/>
    <g/>
   </g>
   <g id="line2d_38">
    <path clip-path="url(#p78557dac25)" d="M 333.168 112.114931 
" style="fill:none;stroke:#ffa500;stroke-linecap:square;stroke-width:1.5;"/>
    <defs>
     <path d="M -12 12 
L 12 -12 
M -12 -12 
L 12 12 
" id="m841ac744e5" style="stroke:#ffa500;"/>
    </defs>
    <g clip-path="url(#p78557dac25)">
     <use style="fill:#ffa500;stroke:#ffa500;" x="333.168" xlink:href="#m841ac744e5" y="112.114931"/>
    </g>
   </g>
   <g id="line2d_39">
    <defs>
     <path d="M 0 1.5 
C 0.397805 1.5 0.77937 1.341951 1.06066 1.06066 
C 1.341951 0.77937 1.5 0.397805 1.5 0 
C 1.5 -0.397805 1.341951 -0.77937 1.06066 -1.06066 
C 0.77937 -1.341951 0.397805 -1.5 0 -1.5 
C -0.397805 -1.5 -0.77937 -1.341951 -1.06066 -1.06066 
C -1.341951 -0.77937 -1.5 -0.397805 -1.5 0 
C -1.5 0.397805 -1.341951 0.77937 -1.06066 1.06066 
C -0.77937 1.341951 -0.397805 1.5 0 1.5 
z
" id="mfb37c19abd" style="stroke:#ff0000;"/>
    </defs>
    <g>
     <use style="fill:#ff0000;stroke:#ff0000;" x="392.299939" xlink:href="#mfb37c19abd" y="92.772088"/>
     <use style="fill:#ff0000;stroke:#ff0000;" x="392.299939" xlink:href="#mfb37c19abd" y="92.772088"/>
    </g>
   </g>
   <g id="line2d_40">
    <path d="M -1 286.696489 
L -0.34101 286.696489 
L -0.34101 283.968653 
L 14.510178 283.968653 
L 14.510178 282.728727 
L 27.066679 282.728727 
L 27.066679 281.488801 
L 37.943615 281.488801 
L 37.943615 277.769023 
L 47.537752 277.769023 
L 47.537752 276.033127 
L 56.12 276.033127 
L 56.12 275.041187 
L 70.971188 275.041187 
L 70.971188 274.049246 
L 77.491149 274.049246 
L 77.491149 273.30529 
L 83.527689 273.30529 
L 83.527689 272.31335 
L 89.147574 272.31335 
L 89.147574 271.321409 
L 94.404625 271.321409 
L 94.404625 271.073424 
L 99.342865 271.073424 
L 99.342865 270.577454 
L 103.998762 270.577454 
L 103.998762 268.345587 
L 108.402863 268.345587 
L 108.402863 268.097602 
L 112.58101 268.097602 
L 112.58101 267.105661 
L 116.555263 267.105661 
L 116.555263 265.865735 
L 123.965462 265.865735 
L 123.965462 265.12178 
L 127.432198 265.12178 
L 127.432198 264.62581 
L 130.757396 264.62581 
L 130.757396 263.881854 
L 133.952159 263.881854 
L 133.952159 262.889913 
L 137.026336 262.889913 
L 137.026336 262.641928 
L 139.988699 262.641928 
L 139.988699 262.145958 
L 145.608584 262.145958 
L 145.608584 260.658047 
L 148.279512 260.658047 
L 148.279512 260.410062 
L 150.865635 260.410062 
L 150.865635 259.666106 
L 153.372172 259.666106 
L 153.372172 258.42618 
L 155.803875 258.42618 
L 155.803875 257.93021 
L 158.165085 257.93021 
L 158.165085 257.43424 
L 160.459772 257.43424 
L 160.459772 256.690284 
L 162.691584 256.690284 
L 162.691584 255.698344 
L 166.979733 255.698344 
L 166.979733 254.954388 
L 169.04202 254.954388 
L 169.04202 254.458418 
L 171.053382 254.458418 
L 171.053382 253.962447 
L 174.932974 253.962447 
L 174.932974 253.714462 
L 176.805608 253.714462 
L 176.805608 253.466477 
L 178.636158 253.466477 
L 178.636158 253.218492 
L 180.426472 253.218492 
L 180.426472 252.226551 
L 182.178282 252.226551 
L 182.178282 251.978566 
L 183.893209 251.978566 
L 183.893209 250.490655 
L 185.572774 250.490655 
L 185.572774 249.994685 
L 187.218406 249.994685 
L 187.218406 248.506774 
L 188.831449 248.506774 
L 188.831449 248.010803 
L 190.413169 248.010803 
L 190.413169 247.762818 
L 191.964759 247.762818 
L 191.964759 247.514833 
L 193.487346 247.514833 
L 193.487346 247.266848 
L 194.981994 247.266848 
L 194.981994 246.274907 
L 196.449709 246.274907 
L 196.449709 246.026922 
L 197.891447 246.026922 
L 197.891447 245.530952 
L 199.308109 245.530952 
L 199.308109 245.282966 
L 200.700553 245.282966 
L 200.700553 245.034981 
L 208.589554 245.034981 
L 208.589554 244.291026 
L 209.833182 244.291026 
L 209.833182 244.043041 
L 211.058108 244.043041 
L 211.058108 243.795055 
L 213.454046 243.795055 
L 213.454046 242.803115 
L 220.24598 242.803115 
L 220.24598 242.307144 
L 221.324883 242.307144 
L 221.324883 219.244524 
L 222.389683 219.244524 
L 222.389683 215.276761 
L 223.440743 215.276761 
L 223.440743 210.069073 
L 224.478413 210.069073 
L 224.478413 207.093251 
L 225.503031 207.093251 
L 225.503031 205.109369 
L 226.51492 205.109369 
L 226.51492 201.141607 
L 227.514393 201.141607 
L 227.514393 199.40571 
L 228.50175 199.40571 
L 228.50175 197.421829 
L 229.477283 197.421829 
L 229.477283 196.925859 
L 230.441271 196.925859 
L 230.441271 193.950037 
L 231.393984 193.950037 
L 231.393984 191.71817 
L 232.335682 191.71817 
L 232.335682 189.982274 
L 233.266618 189.982274 
L 233.266618 188.246378 
L 234.187035 188.246378 
L 234.187035 187.006452 
L 235.097168 187.006452 
L 235.097168 185.270556 
L 235.997244 185.270556 
L 235.997244 184.774586 
L 236.887482 184.774586 
L 236.887482 184.278615 
L 237.768096 184.278615 
L 237.768096 181.550778 
L 238.639292 181.550778 
L 238.639292 179.814882 
L 239.501268 179.814882 
L 239.501268 179.566897 
L 240.354219 179.566897 
L 240.354219 179.070927 
L 241.19833 179.070927 
L 241.19833 176.83906 
L 242.033784 176.83906 
L 242.033784 176.34309 
L 243.679416 176.34309 
L 243.679416 175.351149 
L 244.48993 175.351149 
L 244.48993 173.863238 
L 245.292459 173.863238 
L 245.292459 172.871297 
L 246.087158 172.871297 
L 246.087158 172.127342 
L 246.874179 172.127342 
L 246.874179 171.631372 
L 247.653669 171.631372 
L 247.653669 170.887416 
L 248.425769 170.887416 
L 248.425769 169.399505 
L 249.19062 169.399505 
L 249.19062 167.663609 
L 249.948356 167.663609 
L 249.948356 166.423683 
L 250.699108 166.423683 
L 250.699108 164.687787 
L 251.443004 164.687787 
L 251.443004 164.191817 
L 252.180168 164.191817 
L 252.180168 163.199876 
L 253.634778 163.199876 
L 253.634778 161.711965 
L 254.352457 161.711965 
L 254.352457 161.215995 
L 255.063868 161.215995 
L 255.063868 160.720024 
L 256.468316 160.720024 
L 256.468316 159.728084 
L 257.161563 159.728084 
L 257.161563 159.232113 
L 257.84896 159.232113 
L 257.84896 158.984128 
L 258.530604 158.984128 
L 258.530604 158.240173 
L 259.877015 158.240173 
L 259.877015 157.000247 
L 260.541966 157.000247 
L 260.541966 156.752262 
L 261.201533 156.752262 
L 261.201533 156.504276 
L 263.148781 156.504276 
L 263.148781 155.264351 
L 263.787655 155.264351 
L 263.787655 155.016365 
L 264.421558 155.016365 
L 264.421558 154.024425 
L 265.050565 154.024425 
L 265.050565 153.528454 
L 265.674752 153.528454 
L 265.674752 152.288529 
L 266.294192 152.288529 
L 266.294192 151.296588 
L 267.519118 151.296588 
L 267.519118 150.552632 
L 268.124742 150.552632 
L 268.124742 148.816736 
L 268.725896 148.816736 
L 268.725896 147.824796 
L 269.322646 147.824796 
L 269.322646 147.08084 
L 271.087105 147.08084 
L 271.087105 146.58487 
L 271.666866 146.58487 
L 271.666866 145.344944 
L 272.814153 145.344944 
L 272.814153 144.600988 
L 273.945504 144.600988 
L 273.945504 143.113077 
L 274.505342 143.113077 
L 274.505342 141.873152 
L 275.613604 141.873152 
L 275.613604 141.625166 
L 276.162131 141.625166 
L 276.162131 141.377181 
L 276.70699 141.377181 
L 276.70699 140.633226 
L 277.248228 140.633226 
L 277.248228 140.385241 
L 277.785893 140.385241 
L 277.785893 140.137255 
L 278.320033 140.137255 
L 278.320033 139.3933 
L 278.850693 139.3933 
L 278.850693 138.89733 
L 279.377918 138.89733 
L 279.377918 138.153374 
L 279.901753 138.153374 
L 279.901753 137.657404 
L 280.939423 137.657404 
L 280.939423 136.913448 
L 282.471557 136.913448 
L 282.471557 136.417478 
L 282.97593 136.417478 
L 282.97593 135.425537 
L 283.975403 135.425537 
L 283.975403 135.177552 
L 284.962761 135.177552 
L 284.962761 134.929567 
L 285.451987 134.929567 
L 285.451987 134.681582 
L 286.902281 134.681582 
L 286.902281 134.185611 
L 287.38003 134.185611 
L 287.38003 132.6977 
L 288.327204 132.6977 
L 288.327204 132.449715 
L 288.796693 132.449715 
L 288.796693 132.20173 
L 289.263491 132.20173 
L 289.263491 131.953745 
L 289.727629 131.953745 
L 289.727629 130.713819 
L 291.558178 130.713819 
L 291.558178 130.217849 
L 292.458254 130.217849 
L 292.458254 129.969863 
L 292.904589 129.969863 
L 292.904589 128.977923 
L 293.348492 128.977923 
L 293.348492 128.481952 
L 294.229107 128.481952 
L 294.229107 127.490012 
L 294.665869 127.490012 
L 294.665869 126.994041 
L 295.100302 126.994041 
L 295.100302 126.746056 
L 295.962279 126.746056 
L 295.962279 126.002101 
L 296.38987 126.002101 
L 296.38987 125.754116 
L 296.815229 125.754116 
L 296.815229 125.258145 
L 297.65934 125.258145 
L 297.65934 124.762175 
L 298.078138 124.762175 
L 298.078138 123.770234 
L 300.140426 123.770234 
L 300.140426 123.522249 
L 300.950941 123.522249 
L 300.950941 122.530308 
L 301.353193 122.530308 
L 301.353193 122.282323 
L 302.548169 122.282323 
L 302.548169 122.034338 
L 303.335189 122.034338 
L 303.335189 121.786353 
L 303.725867 121.786353 
L 303.725867 121.290383 
L 304.114679 121.290383 
L 304.114679 120.546427 
L 305.270103 120.546427 
L 305.270103 119.802472 
L 305.65163 119.802472 
L 305.65163 119.554486 
L 306.031379 119.554486 
L 306.031379 119.306501 
L 307.160118 119.306501 
L 307.160118 118.810531 
L 307.904014 118.810531 
L 307.904014 118.562546 
L 308.27343 118.562546 
L 308.27343 117.81859 
L 308.641178 117.81859 
L 308.641178 117.570605 
L 309.37173 117.570605 
L 309.37173 117.32262 
L 310.095788 117.32262 
L 310.095788 116.578664 
L 311.169949 116.578664 
L 311.169949 116.082694 
L 311.524878 116.082694 
L 311.524878 115.834709 
L 311.878267 115.834709 
L 311.878267 115.586724 
L 312.230129 115.586724 
L 312.230129 115.338739 
L 314.651505 115.338739 
L 314.651505 114.842768 
L 314.991615 114.842768 
L 314.991615 114.346798 
L 316.003504 114.346798 
L 316.003504 113.850828 
L 316.67118 113.850828 
L 316.67118 113.602842 
L 318.965867 113.602842 
L 318.965867 113.106872 
L 319.609792 113.106872 
L 319.609792 112.610902 
L 319.929855 112.610902 
L 319.929855 112.362917 
L 320.566233 112.362917 
L 320.566233 112.114931 
L 321.197678 112.114931 
L 321.197678 111.866946 
L 322.755202 111.866946 
L 322.755202 111.370976 
L 324.886883 111.370976 
L 324.886883 110.875006 
L 325.186906 110.875006 
L 325.186906 110.379035 
L 325.485827 110.379035 
L 325.485827 110.13105 
L 327.548115 110.13105 
L 327.548115 109.883065 
L 328.127876 109.883065 
L 328.127876 108.643139 
L 328.989852 108.643139 
L 328.989852 108.395154 
L 329.559477 108.395154 
L 329.559477 108.147169 
L 330.686914 108.147169 
L 330.686914 107.651198 
L 330.966352 107.651198 
L 330.966352 107.403213 
L 331.798959 107.403213 
L 331.798959 107.155228 
L 332.074614 107.155228 
L 332.074614 106.163287 
L 333.168 106.163287 
L 333.168 106.163287 
" style="fill:none;stroke:#ff0000;stroke-linecap:square;stroke-width:1.5;"/>
   </g>
   <g id="line2d_41">
    <defs>
     <path d="M 0 -6 
L -5.196152 -3 
L -5.196152 3 
L -0 6 
L 5.196152 3 
L 5.196152 -3 
z
" id="mfe16303b8a" style="stroke:#ff0000;stroke-linejoin:miter;stroke-width:1.5;"/>
    </defs>
    <g>
     <use style="fill-opacity:0;stroke:#ff0000;stroke-linejoin:miter;stroke-width:1.5;" x="83.527689" xlink:href="#mfe16303b8a" y="273.30529"/>
     <use style="fill-opacity:0;stroke:#ff0000;stroke-linejoin:miter;stroke-width:1.5;" x="158.165085" xlink:href="#mfe16303b8a" y="257.43424"/>
     <use style="fill-opacity:0;stroke:#ff0000;stroke-linejoin:miter;stroke-width:1.5;" x="213.454046" xlink:href="#mfe16303b8a" y="243.795055"/>
     <use style="fill-opacity:0;stroke:#ff0000;stroke-linejoin:miter;stroke-width:1.5;" x="241.19833" xlink:href="#mfe16303b8a" y="179.070927"/>
     <use style="fill-opacity:0;stroke:#ff0000;stroke-linejoin:miter;stroke-width:1.5;" x="283.975403" xlink:href="#mfe16303b8a" y="135.177552"/>
     <use style="fill-opacity:0;stroke:#ff0000;stroke-linejoin:miter;stroke-width:1.5;" x="332.074614" xlink:href="#mfe16303b8a" y="106.163287"/>
     <use style="fill-opacity:0;stroke:#ff0000;stroke-linejoin:miter;stroke-width:1.5;" x="332.074614" xlink:href="#mfe16303b8a" y="106.163287"/>
     <use style="fill-opacity:0;stroke:#ff0000;stroke-linejoin:miter;stroke-width:1.5;" x="333.168" xlink:href="#mfe16303b8a" y="106.163287"/>
    </g>
   </g>
   <g id="line2d_42">
    <path style="fill:none;stroke:#ff0000;stroke-linecap:square;stroke-width:1.5;"/>
    <g/>
   </g>
   <g id="line2d_43">
    <path clip-path="url(#p78557dac25)" d="M 333.168 106.163287 
" style="fill:none;stroke:#ff0000;stroke-linecap:square;stroke-width:1.5;"/>
    <defs>
     <path d="M -12 12 
L 12 -12 
M -12 -12 
L 12 12 
" id="me481765041" style="stroke:#ff0000;"/>
    </defs>
    <g clip-path="url(#p78557dac25)">
     <use style="fill:#ff0000;stroke:#ff0000;" x="333.168" xlink:href="#me481765041" y="106.163287"/>
    </g>
   </g>
   <g id="line2d_44">
    <path d="M 333.168 219.492509 
L 363.64328 289.176341 
" style="fill:none;stroke:#000080;stroke-linecap:square;stroke-width:1.5;"/>
    <g>
     <use style="fill-opacity:0;stroke:#000080;stroke-width:1.5;" x="333.168" xlink:href="#m7eb9705618" y="219.492509"/>
     <use style="fill-opacity:0;stroke:#000080;stroke-width:1.5;" x="363.64328" xlink:href="#m7eb9705618" y="289.176341"/>
    </g>
   </g>
   <g id="line2d_45">
    <path d="M 333.168 116.082694 
L 363.64328 220.732435 
" style="fill:none;stroke:#ff00ff;stroke-linecap:square;stroke-width:1.5;"/>
    <g>
     <use style="fill-opacity:0;stroke:#ff00ff;stroke-linejoin:miter;stroke-width:1.5;" x="333.168" xlink:href="#mc290e2ae21" y="116.082694"/>
     <use style="fill-opacity:0;stroke:#ff00ff;stroke-linejoin:miter;stroke-width:1.5;" x="363.64328" xlink:href="#mc290e2ae21" y="220.732435"/>
    </g>
   </g>
   <g id="line2d_46">
    <path d="M 333.168 112.114931 
L 363.64328 152.288529 
" style="fill:none;stroke:#ffa500;stroke-linecap:square;stroke-width:1.5;"/>
    <g>
     <use style="fill-opacity:0;stroke:#ffa500;stroke-linejoin:bevel;stroke-width:1.5;" x="333.168" xlink:href="#md17a80af0d" y="112.114931"/>
     <use style="fill-opacity:0;stroke:#ffa500;stroke-linejoin:bevel;stroke-width:1.5;" x="363.64328" xlink:href="#md17a80af0d" y="152.288529"/>
    </g>
   </g>
   <g id="line2d_47">
    <path d="M 333.168 106.163287 
L 363.64328 83.844622 
" style="fill:none;stroke:#ff0000;stroke-linecap:square;stroke-width:1.5;"/>
    <g>
     <use style="fill-opacity:0;stroke:#ff0000;stroke-linejoin:miter;stroke-width:1.5;" x="333.168" xlink:href="#mfe16303b8a" y="106.163287"/>
     <use style="fill-opacity:0;stroke:#ff0000;stroke-linejoin:miter;stroke-width:1.5;" x="363.64328" xlink:href="#mfe16303b8a" y="83.844622"/>
    </g>
   </g>
   <g id="line2d_48">
    <path d="M 333.168 294.88 
L 333.168 9.697057 
" style="fill:none;stroke:#000000;stroke-linecap:square;stroke-width:1.5;"/>
   </g>
   <g id="patch_3">
    <path d="M 56.12 294.88 
L 56.12 6.845228 
" style="fill:none;stroke:#000000;stroke-linecap:square;stroke-linejoin:miter;stroke-width:0.8;"/>
   </g>
   <g id="patch_4">
    <path d="M 333.168 294.88 
L 333.168 6.845228 
" style="fill:none;stroke:#000000;stroke-linecap:square;stroke-linejoin:miter;stroke-width:0.8;"/>
   </g>
   <g id="patch_5">
    <path d="M 56.12 294.88 
L 333.168 294.88 
" style="fill:none;stroke:#000000;stroke-linecap:square;stroke-linejoin:miter;stroke-width:0.8;"/>
   </g>
   <g id="patch_6">
    <path d="M 56.12 6.845228 
L 333.168 6.845228 
" style="fill:none;stroke:#000000;stroke-linecap:square;stroke-linejoin:miter;stroke-width:0.8;"/>
   </g>
   <g id="text_10">
    <!-- random -->
    <g transform="translate(369.18424 293.867279)scale(0.17 -0.17)">
     <use xlink:href="#DejaVuSans-72"/>
     <use x="41.113281" xlink:href="#DejaVuSans-61"/>
     <use x="102.392578" xlink:href="#DejaVuSans-6e"/>
     <use x="165.771484" xlink:href="#DejaVuSans-64"/>
     <use x="229.248047" xlink:href="#DejaVuSans-6f"/>
     <use x="290.429688" xlink:href="#DejaVuSans-6d"/>
    </g>
   </g>
   <g id="text_11">
    <!-- M -->
    <defs>
     <path d="M 9.8125 72.90625 
L 24.515625 72.90625 
L 43.109375 23.296875 
L 61.8125 72.90625 
L 76.515625 72.90625 
L 76.515625 0 
L 66.890625 0 
L 66.890625 64.015625 
L 48.09375 14.015625 
L 38.1875 14.015625 
L 19.390625 64.015625 
L 19.390625 0 
L 9.8125 0 
z
" id="DejaVuSans-4d"/>
    </defs>
    <g transform="translate(369.18424 225.423372)scale(0.17 -0.17)">
     <use xlink:href="#DejaVuSans-4d"/>
    </g>
   </g>
   <g id="text_12">
    <!-- LinM -->
    <defs>
     <path d="M 9.8125 72.90625 
L 19.671875 72.90625 
L 19.671875 8.296875 
L 55.171875 8.296875 
L 55.171875 0 
L 9.8125 0 
z
" id="DejaVuSans-4c"/>
    </defs>
    <g transform="translate(369.18424 156.979466)scale(0.17 -0.17)">
     <use xlink:href="#DejaVuSans-4c"/>
     <use x="55.712891" xlink:href="#DejaVuSans-69"/>
     <use x="83.496094" xlink:href="#DejaVuSans-6e"/>
     <use x="146.875" xlink:href="#DejaVuSans-4d"/>
    </g>
   </g>
   <g id="text_13">
    <!-- QuadM -->
    <defs>
     <path d="M 39.40625 66.21875 
Q 28.65625 66.21875 22.328125 58.203125 
Q 16.015625 50.203125 16.015625 36.375 
Q 16.015625 22.609375 22.328125 14.59375 
Q 28.65625 6.59375 39.40625 6.59375 
Q 50.140625 6.59375 56.421875 14.59375 
Q 62.703125 22.609375 62.703125 36.375 
Q 62.703125 50.203125 56.421875 58.203125 
Q 50.140625 66.21875 39.40625 66.21875 
z
M 53.21875 1.3125 
L 66.21875 -12.890625 
L 54.296875 -12.890625 
L 43.5 -1.21875 
Q 41.890625 -1.3125 41.03125 -1.359375 
Q 40.1875 -1.421875 39.40625 -1.421875 
Q 24.03125 -1.421875 14.8125 8.859375 
Q 5.609375 19.140625 5.609375 36.375 
Q 5.609375 53.65625 14.8125 63.9375 
Q 24.03125 74.21875 39.40625 74.21875 
Q 54.734375 74.21875 63.90625 63.9375 
Q 73.09375 53.65625 73.09375 36.375 
Q 73.09375 23.6875 67.984375 14.640625 
Q 62.890625 5.609375 53.21875 1.3125 
z
" id="DejaVuSans-51"/>
    </defs>
    <g transform="translate(369.18424 88.53556)scale(0.17 -0.17)">
     <use xlink:href="#DejaVuSans-51"/>
     <use x="78.710938" xlink:href="#DejaVuSans-75"/>
     <use x="142.089844" xlink:href="#DejaVuSans-61"/>
     <use x="203.369141" xlink:href="#DejaVuSans-64"/>
     <use x="266.845703" xlink:href="#DejaVuSans-4d"/>
    </g>
   </g>
   <g id="text_14">
    <!-- best09 -->
    <defs>
     <path d="M 48.6875 27.296875 
Q 48.6875 37.203125 44.609375 42.84375 
Q 40.53125 48.484375 33.40625 48.484375 
Q 26.265625 48.484375 22.1875 42.84375 
Q 18.109375 37.203125 18.109375 27.296875 
Q 18.109375 17.390625 22.1875 11.75 
Q 26.265625 6.109375 33.40625 6.109375 
Q 40.53125 6.109375 44.609375 11.75 
Q 48.6875 17.390625 48.6875 27.296875 
z
M 18.109375 46.390625 
Q 20.953125 51.265625 25.265625 53.625 
Q 29.59375 56 35.59375 56 
Q 45.5625 56 51.78125 48.09375 
Q 58.015625 40.1875 58.015625 27.296875 
Q 58.015625 14.40625 51.78125 6.484375 
Q 45.5625 -1.421875 35.59375 -1.421875 
Q 29.59375 -1.421875 25.265625 0.953125 
Q 20.953125 3.328125 18.109375 8.203125 
L 18.109375 0 
L 9.078125 0 
L 9.078125 75.984375 
L 18.109375 75.984375 
z
" id="DejaVuSans-62"/>
     <path d="M 10.984375 1.515625 
L 10.984375 10.5 
Q 14.703125 8.734375 18.5 7.8125 
Q 22.3125 6.890625 25.984375 6.890625 
Q 35.75 6.890625 40.890625 13.453125 
Q 46.046875 20.015625 46.78125 33.40625 
Q 43.953125 29.203125 39.59375 26.953125 
Q 35.25 24.703125 29.984375 24.703125 
Q 19.046875 24.703125 12.671875 31.3125 
Q 6.296875 37.9375 6.296875 49.421875 
Q 6.296875 60.640625 12.9375 67.421875 
Q 19.578125 74.21875 30.609375 74.21875 
Q 43.265625 74.21875 49.921875 64.515625 
Q 56.59375 54.828125 56.59375 36.375 
Q 56.59375 19.140625 48.40625 8.859375 
Q 40.234375 -1.421875 26.421875 -1.421875 
Q 22.703125 -1.421875 18.890625 -0.6875 
Q 15.09375 0.046875 10.984375 1.515625 
z
M 30.609375 32.421875 
Q 37.25 32.421875 41.125 36.953125 
Q 45.015625 41.5 45.015625 49.421875 
Q 45.015625 57.28125 41.125 61.84375 
Q 37.25 66.40625 30.609375 66.40625 
Q 23.96875 66.40625 20.09375 61.84375 
Q 16.21875 57.28125 16.21875 49.421875 
Q 16.21875 41.5 20.09375 36.953125 
Q 23.96875 32.421875 30.609375 32.421875 
z
" id="DejaVuSans-39"/>
    </defs>
    <g transform="translate(369.18424 20.091654)scale(0.17 -0.17)">
     <use xlink:href="#DejaVuSans-62"/>
     <use x="63.476562" xlink:href="#DejaVuSans-65"/>
     <use x="125" xlink:href="#DejaVuSans-73"/>
     <use x="177.099609" xlink:href="#DejaVuSans-74"/>
     <use x="216.308594" xlink:href="#DejaVuSans-30"/>
     <use x="279.931641" xlink:href="#DejaVuSans-39"/>
    </g>
   </g>
   <g id="text_15">
    <!-- bbob f1-f24, 10-D -->
    <defs>
     <path d="M 19.671875 64.796875 
L 19.671875 8.109375 
L 31.59375 8.109375 
Q 46.6875 8.109375 53.6875 14.9375 
Q 60.6875 21.78125 60.6875 36.53125 
Q 60.6875 51.171875 53.6875 57.984375 
Q 46.6875 64.796875 31.59375 64.796875 
z
M 9.8125 72.90625 
L 30.078125 72.90625 
Q 51.265625 72.90625 61.171875 64.09375 
Q 71.09375 55.28125 71.09375 36.53125 
Q 71.09375 17.671875 61.125 8.828125 
Q 51.171875 0 30.078125 0 
L 9.8125 0 
z
" id="DejaVuSans-44"/>
    </defs>
    <g transform="translate(58.89048 17.475982)scale(0.102 -0.102)">
     <use xlink:href="#DejaVuSans-62"/>
     <use x="63.476562" xlink:href="#DejaVuSans-62"/>
     <use x="126.953125" xlink:href="#DejaVuSans-6f"/>
     <use x="188.134766" xlink:href="#DejaVuSans-62"/>
     <use x="251.611328" xlink:href="#DejaVuSans-20"/>
     <use x="283.398438" xlink:href="#DejaVuSans-66"/>
     <use x="318.603516" xlink:href="#DejaVuSans-31"/>
     <use x="382.226562" xlink:href="#DejaVuSans-2d"/>
     <use x="418.310547" xlink:href="#DejaVuSans-66"/>
     <use x="453.515625" xlink:href="#DejaVuSans-32"/>
     <use x="517.138672" xlink:href="#DejaVuSans-34"/>
     <use x="580.761719" xlink:href="#DejaVuSans-2c"/>
     <use x="612.548828" xlink:href="#DejaVuSans-20"/>
     <use x="644.335938" xlink:href="#DejaVuSans-31"/>
     <use x="707.958984" xlink:href="#DejaVuSans-30"/>
     <use x="771.582031" xlink:href="#DejaVuSans-2d"/>
     <use x="807.666016" xlink:href="#DejaVuSans-44"/>
    </g>
    <!-- 8 targets RLs/dim: 0.5..20 -->
    <defs>
     <path d="M 44.390625 34.1875 
Q 47.5625 33.109375 50.5625 29.59375 
Q 53.5625 26.078125 56.59375 19.921875 
L 66.609375 0 
L 56 0 
L 46.6875 18.703125 
Q 43.0625 26.03125 39.671875 28.421875 
Q 36.28125 30.8125 30.421875 30.8125 
L 19.671875 30.8125 
L 19.671875 0 
L 9.8125 0 
L 9.8125 72.90625 
L 32.078125 72.90625 
Q 44.578125 72.90625 50.734375 67.671875 
Q 56.890625 62.453125 56.890625 51.90625 
Q 56.890625 45.015625 53.6875 40.46875 
Q 50.484375 35.9375 44.390625 34.1875 
z
M 19.671875 64.796875 
L 19.671875 38.921875 
L 32.078125 38.921875 
Q 39.203125 38.921875 42.84375 42.21875 
Q 46.484375 45.515625 46.484375 51.90625 
Q 46.484375 58.296875 42.84375 61.546875 
Q 39.203125 64.796875 32.078125 64.796875 
z
" id="DejaVuSans-52"/>
     <path d="M 11.71875 12.40625 
L 22.015625 12.40625 
L 22.015625 0 
L 11.71875 0 
z
M 11.71875 51.703125 
L 22.015625 51.703125 
L 22.015625 39.3125 
L 11.71875 39.3125 
z
" id="DejaVuSans-3a"/>
     <path d="M 10.796875 72.90625 
L 49.515625 72.90625 
L 49.515625 64.59375 
L 19.828125 64.59375 
L 19.828125 46.734375 
Q 21.96875 47.46875 24.109375 47.828125 
Q 26.265625 48.1875 28.421875 48.1875 
Q 40.625 48.1875 47.75 41.5 
Q 54.890625 34.8125 54.890625 23.390625 
Q 54.890625 11.625 47.5625 5.09375 
Q 40.234375 -1.421875 26.90625 -1.421875 
Q 22.3125 -1.421875 17.546875 -0.640625 
Q 12.796875 0.140625 7.71875 1.703125 
L 7.71875 11.625 
Q 12.109375 9.234375 16.796875 8.0625 
Q 21.484375 6.890625 26.703125 6.890625 
Q 35.15625 6.890625 40.078125 11.328125 
Q 45.015625 15.765625 45.015625 23.390625 
Q 45.015625 31 40.078125 35.4375 
Q 35.15625 39.890625 26.703125 39.890625 
Q 22.75 39.890625 18.8125 39.015625 
Q 14.890625 38.140625 10.796875 36.28125 
z
" id="DejaVuSans-35"/>
    </defs>
    <g transform="translate(58.89048 28.89775)scale(0.102 -0.102)">
     <use xlink:href="#DejaVuSans-38"/>
     <use x="63.623047" xlink:href="#DejaVuSans-20"/>
     <use x="95.410156" xlink:href="#DejaVuSans-74"/>
     <use x="134.619141" xlink:href="#DejaVuSans-61"/>
     <use x="195.898438" xlink:href="#DejaVuSans-72"/>
     <use x="236.996094" xlink:href="#DejaVuSans-67"/>
     <use x="300.472656" xlink:href="#DejaVuSans-65"/>
     <use x="361.996094" xlink:href="#DejaVuSans-74"/>
     <use x="401.205078" xlink:href="#DejaVuSans-73"/>
     <use x="453.304688" xlink:href="#DejaVuSans-20"/>
     <use x="485.091797" xlink:href="#DejaVuSans-52"/>
     <use x="554.574219" xlink:href="#DejaVuSans-4c"/>
     <use x="610.287109" xlink:href="#DejaVuSans-73"/>
     <use x="662.386719" xlink:href="#DejaVuSans-2f"/>
     <use x="696.078125" xlink:href="#DejaVuSans-64"/>
     <use x="759.554688" xlink:href="#DejaVuSans-69"/>
     <use x="787.337891" xlink:href="#DejaVuSans-6d"/>
     <use x="884.75" xlink:href="#DejaVuSans-3a"/>
     <use x="918.441406" xlink:href="#DejaVuSans-20"/>
     <use x="950.228516" xlink:href="#DejaVuSans-30"/>
     <use x="1013.851562" xlink:href="#DejaVuSans-2e"/>
     <use x="1045.638672" xlink:href="#DejaVuSans-35"/>
     <use x="1109.261719" xlink:href="#DejaVuSans-2e"/>
     <use x="1141.048828" xlink:href="#DejaVuSans-2e"/>
     <use x="1172.835938" xlink:href="#DejaVuSans-32"/>
     <use x="1236.458984" xlink:href="#DejaVuSans-30"/>
    </g>
    <!--   from refalgs/best2009-bbob.tar.gz -->
    <defs>
     <path d="M 5.515625 54.6875 
L 48.1875 54.6875 
L 48.1875 46.484375 
L 14.40625 7.171875 
L 48.1875 7.171875 
L 48.1875 0 
L 4.296875 0 
L 4.296875 8.203125 
L 38.09375 47.515625 
L 5.515625 47.515625 
z
" id="DejaVuSans-7a"/>
    </defs>
    <g transform="translate(58.89048 40.319519)scale(0.102 -0.102)">
     <use xlink:href="#DejaVuSans-20"/>
     <use x="31.787109" xlink:href="#DejaVuSans-20"/>
     <use x="63.574219" xlink:href="#DejaVuSans-66"/>
     <use x="98.779297" xlink:href="#DejaVuSans-72"/>
     <use x="139.861328" xlink:href="#DejaVuSans-6f"/>
     <use x="201.042969" xlink:href="#DejaVuSans-6d"/>
     <use x="298.455078" xlink:href="#DejaVuSans-20"/>
     <use x="330.242188" xlink:href="#DejaVuSans-72"/>
     <use x="371.324219" xlink:href="#DejaVuSans-65"/>
     <use x="432.847656" xlink:href="#DejaVuSans-66"/>
     <use x="468.052734" xlink:href="#DejaVuSans-61"/>
     <use x="529.332031" xlink:href="#DejaVuSans-6c"/>
     <use x="557.115234" xlink:href="#DejaVuSans-67"/>
     <use x="620.591797" xlink:href="#DejaVuSans-73"/>
     <use x="672.691406" xlink:href="#DejaVuSans-2f"/>
     <use x="706.382812" xlink:href="#DejaVuSans-62"/>
     <use x="769.859375" xlink:href="#DejaVuSans-65"/>
     <use x="831.382812" xlink:href="#DejaVuSans-73"/>
     <use x="883.482422" xlink:href="#DejaVuSans-74"/>
     <use x="922.691406" xlink:href="#DejaVuSans-32"/>
     <use x="986.314453" xlink:href="#DejaVuSans-30"/>
     <use x="1049.9375" xlink:href="#DejaVuSans-30"/>
     <use x="1113.560547" xlink:href="#DejaVuSans-39"/>
     <use x="1177.183594" xlink:href="#DejaVuSans-2d"/>
     <use x="1213.267578" xlink:href="#DejaVuSans-62"/>
     <use x="1276.744141" xlink:href="#DejaVuSans-62"/>
     <use x="1340.220703" xlink:href="#DejaVuSans-6f"/>
     <use x="1401.402344" xlink:href="#DejaVuSans-62"/>
     <use x="1464.878906" xlink:href="#DejaVuSans-2e"/>
     <use x="1496.666016" xlink:href="#DejaVuSans-74"/>
     <use x="1535.875" xlink:href="#DejaVuSans-61"/>
     <use x="1597.154297" xlink:href="#DejaVuSans-72"/>
     <use x="1638.126953" xlink:href="#DejaVuSans-2e"/>
     <use x="1669.914062" xlink:href="#DejaVuSans-67"/>
     <use x="1733.390625" xlink:href="#DejaVuSans-7a"/>
    </g>
    <!-- 15 instances -->
    <g transform="translate(58.89048 51.741288)scale(0.102 -0.102)">
     <use xlink:href="#DejaVuSans-31"/>
     <use x="63.623047" xlink:href="#DejaVuSans-35"/>
     <use x="127.246094" xlink:href="#DejaVuSans-20"/>
     <use x="159.033203" xlink:href="#DejaVuSans-69"/>
     <use x="186.816406" xlink:href="#DejaVuSans-6e"/>
     <use x="250.195312" xlink:href="#DejaVuSans-73"/>
     <use x="302.294922" xlink:href="#DejaVuSans-74"/>
     <use x="341.503906" xlink:href="#DejaVuSans-61"/>
     <use x="402.783203" xlink:href="#DejaVuSans-6e"/>
     <use x="466.162109" xlink:href="#DejaVuSans-63"/>
     <use x="521.142578" xlink:href="#DejaVuSans-65"/>
     <use x="582.666016" xlink:href="#DejaVuSans-73"/>
    </g>
   </g>
   <g id="text_16">
    <!-- v2.3.1 -->
    <defs>
     <path d="M 40.578125 39.3125 
Q 47.65625 37.796875 51.625 33 
Q 55.609375 28.21875 55.609375 21.1875 
Q 55.609375 10.40625 48.1875 4.484375 
Q 40.765625 -1.421875 27.09375 -1.421875 
Q 22.515625 -1.421875 17.65625 -0.515625 
Q 12.796875 0.390625 7.625 2.203125 
L 7.625 11.71875 
Q 11.71875 9.328125 16.59375 8.109375 
Q 21.484375 6.890625 26.8125 6.890625 
Q 36.078125 6.890625 40.9375 10.546875 
Q 45.796875 14.203125 45.796875 21.1875 
Q 45.796875 27.640625 41.28125 31.265625 
Q 36.765625 34.90625 28.71875 34.90625 
L 20.21875 34.90625 
L 20.21875 43.015625 
L 29.109375 43.015625 
Q 36.375 43.015625 40.234375 45.921875 
Q 44.09375 48.828125 44.09375 54.296875 
Q 44.09375 59.90625 40.109375 62.90625 
Q 36.140625 65.921875 28.71875 65.921875 
Q 24.65625 65.921875 20.015625 65.03125 
Q 15.375 64.15625 9.8125 62.3125 
L 9.8125 71.09375 
Q 15.4375 72.65625 20.34375 73.4375 
Q 25.25 74.21875 29.59375 74.21875 
Q 40.828125 74.21875 47.359375 69.109375 
Q 53.90625 64.015625 53.90625 55.328125 
Q 53.90625 49.265625 50.4375 45.09375 
Q 46.96875 40.921875 40.578125 39.3125 
z
" id="DejaVuSans-33"/>
    </defs>
    <g style="fill:#808080;" transform="translate(178.96275 289.919965)scale(0.1 -0.1)">
     <use xlink:href="#DejaVuSans-76"/>
     <use x="59.179688" xlink:href="#DejaVuSans-32"/>
     <use x="122.802734" xlink:href="#DejaVuSans-2e"/>
     <use x="154.589844" xlink:href="#DejaVuSans-33"/>
     <use x="218.212891" xlink:href="#DejaVuSans-2e"/>
     <use x="250" xlink:href="#DejaVuSans-31"/>
    </g>
   </g>
  </g>
 </g>
 <defs>
  <clipPath id="p78557dac25">
   <rect height="288.034772" width="277.048" x="56.12" y="6.845228"/>
  </clipPath>
 </defs>
</svg>
