<?xml version="1.0" encoding="utf-8" standalone="no"?>
<!DOCTYPE svg PUBLIC "-//W3C//DTD SVG 1.1//EN"
  "http://www.w3.org/Graphics/SVG/1.1/DTD/svg11.dtd">
<!-- Created with matplotlib (http://matplotlib.org/) -->
<svg height="345.6pt" version="1.1" viewBox="0 0 460.8 345.6" width="460.8pt" xmlns="http://www.w3.org/2000/svg" xmlns:xlink="http://www.w3.org/1999/xlink">
 <defs>
  <style type="text/css">
*{stroke-linecap:butt;stroke-linejoin:round;}
  </style>
 </defs>
 <g id="figure_1">
  <g id="patch_1">
   <path d="M 0 345.6 
L 460.8 345.6 
L 460.8 0 
L 0 0 
z
" style="fill:#ffffff;"/>
  </g>
  <g id="axes_1">
   <g id="patch_2">
    <path d="M 56.12 294.88 
L 333.168 294.88 
L 333.168 6.845228 
L 56.12 6.845228 
z
" style="fill:#ffffff;"/>
   </g>
   <g id="line2d_1">
    <path d="M 23.092426 294.88 
L 23.092426 264.541389 
L 56.12 264.541389 
L 56.12 254.428519 
L 79.553436 254.428519 
L 79.553436 232.180204 
L 97.729822 232.180204 
L 97.729822 222.067334 
L 112.58101 222.067334 
L 112.58101 215.999612 
L 125.137511 215.999612 
L 125.137511 211.954463 
L 136.014447 211.954463 
L 136.014447 207.909315 
L 154.190832 207.909315 
L 154.190832 195.773871 
L 161.95442 195.773871 
L 161.95442 191.728723 
L 169.04202 191.728723 
L 169.04202 187.683575 
L 175.561981 187.683575 
L 175.561981 177.570704 
L 181.598521 177.570704 
L 181.598521 173.525556 
L 187.218406 173.525556 
L 187.218406 171.502982 
L 192.475457 171.502982 
L 192.475457 165.43526 
L 197.413697 165.43526 
L 197.413697 157.344964 
L 202.069594 157.344964 
L 202.069594 155.32239 
L 206.473695 155.32239 
L 206.473695 153.299816 
L 210.651842 153.299816 
L 210.651842 149.254667 
L 214.626095 149.254667 
L 214.626095 143.186945 
L 218.41543 143.186945 
L 218.41543 139.141797 
L 222.036294 139.141797 
L 222.036294 129.028927 
L 225.503031 129.028927 
L 225.503031 127.006353 
L 228.828228 127.006353 
L 228.828228 120.938631 
L 232.022991 120.938631 
L 232.022991 118.916057 
L 235.097168 118.916057 
L 235.097168 116.893482 
L 243.679416 116.893482 
L 243.679416 114.870908 
L 246.350345 114.870908 
L 246.350345 108.803186 
L 248.936467 108.803186 
L 248.936467 102.735464 
L 251.443004 102.735464 
L 251.443004 100.71289 
L 253.874707 100.71289 
L 253.874707 96.667742 
L 258.530604 96.667742 
L 258.530604 92.622594 
L 260.762416 92.622594 
L 260.762416 88.577446 
L 262.934705 88.577446 
L 262.934705 86.554872 
L 267.112853 86.554872 
L 267.112853 84.532297 
L 269.124214 84.532297 
L 269.124214 78.464575 
L 274.87644 78.464575 
L 274.87644 76.442001 
L 278.497304 76.442001 
L 278.497304 72.396853 
L 280.249114 72.396853 
L 280.249114 66.329131 
L 281.964041 66.329131 
L 281.964041 62.283983 
L 283.643606 62.283983 
L 283.643606 58.238835 
L 290.035591 58.238835 
L 290.035591 56.216261 
L 294.520542 56.216261 
L 294.520542 54.193687 
L 300.140426 54.193687 
L 300.140426 52.171112 
L 301.486837 52.171112 
L 301.486837 50.148538 
L 302.811355 50.148538 
L 302.811355 48.125964 
L 304.114679 48.125964 
L 304.114679 46.10339 
L 306.660387 46.10339 
L 306.660387 40.035668 
L 307.904014 40.035668 
L 307.904014 38.013094 
L 309.12894 38.013094 
L 309.12894 35.99052 
L 310.335718 35.99052 
L 310.335718 31.945372 
L 312.696927 31.945372 
L 312.696927 29.922798 
L 320.460515 29.922798 
L 320.460515 27.900224 
L 321.511575 27.900224 
L 321.511575 25.87765 
L 322.549245 25.87765 
L 322.549245 23.855076 
L 324.585752 23.855076 
L 324.585752 21.832502 
L 333.168 21.832502 
" style="fill:none;stroke:#f5deb3;stroke-linecap:square;stroke-width:4;"/>
   </g>
   <g id="line2d_2">
    <defs>
     <path d="M -0 7.778175 
L 7.778175 0 
L 0 -7.778175 
L -7.778175 -0 
z
" id="m1d887222c6" style="stroke:#f5deb3;stroke-linejoin:miter;stroke-width:1.5;"/>
    </defs>
    <g>
     <use style="fill:#f5deb3;stroke:#f5deb3;stroke-linejoin:miter;stroke-width:1.5;" x="79.553436" xlink:href="#m1d887222c6" y="254.428519"/>
     <use style="fill:#f5deb3;stroke:#f5deb3;stroke-linejoin:miter;stroke-width:1.5;" x="136.014447" xlink:href="#m1d887222c6" y="211.954463"/>
     <use style="fill:#f5deb3;stroke:#f5deb3;stroke-linejoin:miter;stroke-width:1.5;" x="197.413697" xlink:href="#m1d887222c6" y="165.43526"/>
     <use style="fill:#f5deb3;stroke:#f5deb3;stroke-linejoin:miter;stroke-width:1.5;" x="243.679416" xlink:href="#m1d887222c6" y="114.870908"/>
     <use style="fill:#f5deb3;stroke:#f5deb3;stroke-linejoin:miter;stroke-width:1.5;" x="302.811355" xlink:href="#m1d887222c6" y="50.148538"/>
     <use style="fill:#f5deb3;stroke:#f5deb3;stroke-linejoin:miter;stroke-width:1.5;" x="324.585752" xlink:href="#m1d887222c6" y="21.832502"/>
     <use style="fill:#f5deb3;stroke:#f5deb3;stroke-linejoin:miter;stroke-width:1.5;" x="324.585752" xlink:href="#m1d887222c6" y="21.832502"/>
     <use style="fill:#f5deb3;stroke:#f5deb3;stroke-linejoin:miter;stroke-width:1.5;" x="333.168" xlink:href="#m1d887222c6" y="21.832502"/>
    </g>
   </g>
   <g id="line2d_3">
    <path style="fill:none;stroke:#f5deb3;stroke-linecap:square;stroke-width:4;"/>
    <g/>
   </g>
   <g id="line2d_4">
    <path d="M 333.168 21.832502 
L 363.64328 15.400716 
" style="fill:none;stroke:#f5deb3;stroke-linecap:square;stroke-width:4;"/>
    <g>
     <use style="fill:#f5deb3;stroke:#f5deb3;stroke-linejoin:miter;stroke-width:1.5;" x="333.168" xlink:href="#m1d887222c6" y="21.832502"/>
     <use style="fill:#f5deb3;stroke:#f5deb3;stroke-linejoin:miter;stroke-width:1.5;" x="363.64328" xlink:href="#m1d887222c6" y="15.400716"/>
    </g>
   </g>
   <g id="matplotlib.axis_1">
    <g id="xtick_1">
     <g id="line2d_5">
      <path clip-path="url(#pee544469e3)" d="M 56.12 294.88 
L 56.12 6.845228 
" style="fill:none;stroke:#b0b0b0;stroke-linecap:square;stroke-width:0.8;"/>
     </g>
     <g id="line2d_6">
      <defs>
       <path d="M 0 0 
L 0 3.5 
" id="m51fb8eee4a" style="stroke:#000000;stroke-width:0.8;"/>
      </defs>
      <g>
       <use style="stroke:#000000;stroke-width:0.8;" x="56.12" xlink:href="#m51fb8eee4a" y="294.88"/>
      </g>
     </g>
     <g id="text_1">
      <!-- 0 -->
      <defs>
       <path d="M 31.78125 66.40625 
Q 24.171875 66.40625 20.328125 58.90625 
Q 16.5 51.421875 16.5 36.375 
Q 16.5 21.390625 20.328125 13.890625 
Q 24.171875 6.390625 31.78125 6.390625 
Q 39.453125 6.390625 43.28125 13.890625 
Q 47.125 21.390625 47.125 36.375 
Q 47.125 51.421875 43.28125 58.90625 
Q 39.453125 66.40625 31.78125 66.40625 
z
M 31.78125 74.21875 
Q 44.046875 74.21875 50.515625 64.515625 
Q 56.984375 54.828125 56.984375 36.375 
Q 56.984375 17.96875 50.515625 8.265625 
Q 44.046875 -1.421875 31.78125 -1.421875 
Q 19.53125 -1.421875 13.0625 8.265625 
Q 6.59375 17.96875 6.59375 36.375 
Q 6.59375 54.828125 13.0625 64.515625 
Q 19.53125 74.21875 31.78125 74.21875 
z
" id="DejaVuSans-30"/>
      </defs>
      <g transform="translate(49.7575 317.076875)scale(0.2 -0.2)">
       <use xlink:href="#DejaVuSans-30"/>
      </g>
     </g>
    </g>
    <g id="xtick_2">
     <g id="line2d_7">
      <path clip-path="url(#pee544469e3)" d="M 56.12 294.88 
L 56.12 6.845228 
" style="fill:none;stroke:#b0b0b0;stroke-linecap:square;stroke-width:0.8;"/>
     </g>
     <g id="line2d_8">
      <defs>
       <path d="M 0 0 
L 0 2 
" id="m802493ee62" style="stroke:#000000;stroke-width:0.6;"/>
      </defs>
      <g>
       <use style="stroke:#000000;stroke-width:0.6;" x="56.12" xlink:href="#m802493ee62" y="294.88"/>
      </g>
     </g>
    </g>
    <g id="xtick_3">
     <g id="line2d_9">
      <path clip-path="url(#pee544469e3)" d="M 243.679416 294.88 
L 243.679416 6.845228 
" style="fill:none;stroke:#b0b0b0;stroke-linecap:square;stroke-width:0.8;"/>
     </g>
     <g id="line2d_10">
      <g>
       <use style="stroke:#000000;stroke-width:0.6;" x="243.679416" xlink:href="#m802493ee62" y="294.88"/>
      </g>
     </g>
    </g>
    <g id="text_2">
     <!-- log10(# f-evals / dimension) -->
     <defs>
      <path d="M 9.421875 75.984375 
L 18.40625 75.984375 
L 18.40625 0 
L 9.421875 0 
z
" id="DejaVuSans-6c"/>
      <path d="M 30.609375 48.390625 
Q 23.390625 48.390625 19.1875 42.75 
Q 14.984375 37.109375 14.984375 27.296875 
Q 14.984375 17.484375 19.15625 11.84375 
Q 23.34375 6.203125 30.609375 6.203125 
Q 37.796875 6.203125 41.984375 11.859375 
Q 46.1875 17.53125 46.1875 27.296875 
Q 46.1875 37.015625 41.984375 42.703125 
Q 37.796875 48.390625 30.609375 48.390625 
z
M 30.609375 56 
Q 42.328125 56 49.015625 48.375 
Q 55.71875 40.765625 55.71875 27.296875 
Q 55.71875 13.875 49.015625 6.21875 
Q 42.328125 -1.421875 30.609375 -1.421875 
Q 18.84375 -1.421875 12.171875 6.21875 
Q 5.515625 13.875 5.515625 27.296875 
Q 5.515625 40.765625 12.171875 48.375 
Q 18.84375 56 30.609375 56 
z
" id="DejaVuSans-6f"/>
      <path d="M 45.40625 27.984375 
Q 45.40625 37.75 41.375 43.109375 
Q 37.359375 48.484375 30.078125 48.484375 
Q 22.859375 48.484375 18.828125 43.109375 
Q 14.796875 37.75 14.796875 27.984375 
Q 14.796875 18.265625 18.828125 12.890625 
Q 22.859375 7.515625 30.078125 7.515625 
Q 37.359375 7.515625 41.375 12.890625 
Q 45.40625 18.265625 45.40625 27.984375 
z
M 54.390625 6.78125 
Q 54.390625 -7.171875 48.1875 -13.984375 
Q 42 -20.796875 29.203125 -20.796875 
Q 24.46875 -20.796875 20.265625 -20.09375 
Q 16.0625 -19.390625 12.109375 -17.921875 
L 12.109375 -9.1875 
Q 16.0625 -11.328125 19.921875 -12.34375 
Q 23.78125 -13.375 27.78125 -13.375 
Q 36.625 -13.375 41.015625 -8.765625 
Q 45.40625 -4.15625 45.40625 5.171875 
L 45.40625 9.625 
Q 42.625 4.78125 38.28125 2.390625 
Q 33.9375 0 27.875 0 
Q 17.828125 0 11.671875 7.65625 
Q 5.515625 15.328125 5.515625 27.984375 
Q 5.515625 40.671875 11.671875 48.328125 
Q 17.828125 56 27.875 56 
Q 33.9375 56 38.28125 53.609375 
Q 42.625 51.21875 45.40625 46.390625 
L 45.40625 54.6875 
L 54.390625 54.6875 
z
" id="DejaVuSans-67"/>
      <path d="M 12.40625 8.296875 
L 28.515625 8.296875 
L 28.515625 63.921875 
L 10.984375 60.40625 
L 10.984375 69.390625 
L 28.421875 72.90625 
L 38.28125 72.90625 
L 38.28125 8.296875 
L 54.390625 8.296875 
L 54.390625 0 
L 12.40625 0 
z
" id="DejaVuSans-31"/>
      <path d="M 31 75.875 
Q 24.46875 64.65625 21.28125 53.65625 
Q 18.109375 42.671875 18.109375 31.390625 
Q 18.109375 20.125 21.3125 9.0625 
Q 24.515625 -2 31 -13.1875 
L 23.1875 -13.1875 
Q 15.875 -1.703125 12.234375 9.375 
Q 8.59375 20.453125 8.59375 31.390625 
Q 8.59375 42.28125 12.203125 53.3125 
Q 15.828125 64.359375 23.1875 75.875 
z
" id="DejaVuSans-28"/>
      <path d="M 51.125 44 
L 36.921875 44 
L 32.8125 27.6875 
L 47.125 27.6875 
z
M 43.796875 71.78125 
L 38.71875 51.515625 
L 52.984375 51.515625 
L 58.109375 71.78125 
L 65.921875 71.78125 
L 60.890625 51.515625 
L 76.125 51.515625 
L 76.125 44 
L 58.984375 44 
L 54.984375 27.6875 
L 70.515625 27.6875 
L 70.515625 20.21875 
L 53.078125 20.21875 
L 48 0 
L 40.1875 0 
L 45.21875 20.21875 
L 30.90625 20.21875 
L 25.875 0 
L 18.015625 0 
L 23.09375 20.21875 
L 7.71875 20.21875 
L 7.71875 27.6875 
L 24.90625 27.6875 
L 29 44 
L 13.28125 44 
L 13.28125 51.515625 
L 30.90625 51.515625 
L 35.890625 71.78125 
z
" id="DejaVuSans-23"/>
      <path id="DejaVuSans-20"/>
      <path d="M 37.109375 75.984375 
L 37.109375 68.5 
L 28.515625 68.5 
Q 23.6875 68.5 21.796875 66.546875 
Q 19.921875 64.59375 19.921875 59.515625 
L 19.921875 54.6875 
L 34.71875 54.6875 
L 34.71875 47.703125 
L 19.921875 47.703125 
L 19.921875 0 
L 10.890625 0 
L 10.890625 47.703125 
L 2.296875 47.703125 
L 2.296875 54.6875 
L 10.890625 54.6875 
L 10.890625 58.5 
Q 10.890625 67.625 15.140625 71.796875 
Q 19.390625 75.984375 28.609375 75.984375 
z
" id="DejaVuSans-66"/>
      <path d="M 4.890625 31.390625 
L 31.203125 31.390625 
L 31.203125 23.390625 
L 4.890625 23.390625 
z
" id="DejaVuSans-2d"/>
      <path d="M 56.203125 29.59375 
L 56.203125 25.203125 
L 14.890625 25.203125 
Q 15.484375 15.921875 20.484375 11.0625 
Q 25.484375 6.203125 34.421875 6.203125 
Q 39.59375 6.203125 44.453125 7.46875 
Q 49.3125 8.734375 54.109375 11.28125 
L 54.109375 2.78125 
Q 49.265625 0.734375 44.1875 -0.34375 
Q 39.109375 -1.421875 33.890625 -1.421875 
Q 20.796875 -1.421875 13.15625 6.1875 
Q 5.515625 13.8125 5.515625 26.8125 
Q 5.515625 40.234375 12.765625 48.109375 
Q 20.015625 56 32.328125 56 
Q 43.359375 56 49.78125 48.890625 
Q 56.203125 41.796875 56.203125 29.59375 
z
M 47.21875 32.234375 
Q 47.125 39.59375 43.09375 43.984375 
Q 39.0625 48.390625 32.421875 48.390625 
Q 24.90625 48.390625 20.390625 44.140625 
Q 15.875 39.890625 15.1875 32.171875 
z
" id="DejaVuSans-65"/>
      <path d="M 2.984375 54.6875 
L 12.5 54.6875 
L 29.59375 8.796875 
L 46.6875 54.6875 
L 56.203125 54.6875 
L 35.6875 0 
L 23.484375 0 
z
" id="DejaVuSans-76"/>
      <path d="M 34.28125 27.484375 
Q 23.390625 27.484375 19.1875 25 
Q 14.984375 22.515625 14.984375 16.5 
Q 14.984375 11.71875 18.140625 8.90625 
Q 21.296875 6.109375 26.703125 6.109375 
Q 34.1875 6.109375 38.703125 11.40625 
Q 43.21875 16.703125 43.21875 25.484375 
L 43.21875 27.484375 
z
M 52.203125 31.203125 
L 52.203125 0 
L 43.21875 0 
L 43.21875 8.296875 
Q 40.140625 3.328125 35.546875 0.953125 
Q 30.953125 -1.421875 24.3125 -1.421875 
Q 15.921875 -1.421875 10.953125 3.296875 
Q 6 8.015625 6 15.921875 
Q 6 25.140625 12.171875 29.828125 
Q 18.359375 34.515625 30.609375 34.515625 
L 43.21875 34.515625 
L 43.21875 35.40625 
Q 43.21875 41.609375 39.140625 45 
Q 35.0625 48.390625 27.6875 48.390625 
Q 23 48.390625 18.546875 47.265625 
Q 14.109375 46.140625 10.015625 43.890625 
L 10.015625 52.203125 
Q 14.9375 54.109375 19.578125 55.046875 
Q 24.21875 56 28.609375 56 
Q 40.484375 56 46.34375 49.84375 
Q 52.203125 43.703125 52.203125 31.203125 
z
" id="DejaVuSans-61"/>
      <path d="M 44.28125 53.078125 
L 44.28125 44.578125 
Q 40.484375 46.53125 36.375 47.5 
Q 32.28125 48.484375 27.875 48.484375 
Q 21.1875 48.484375 17.84375 46.4375 
Q 14.5 44.390625 14.5 40.28125 
Q 14.5 37.15625 16.890625 35.375 
Q 19.28125 33.59375 26.515625 31.984375 
L 29.59375 31.296875 
Q 39.15625 29.25 43.1875 25.515625 
Q 47.21875 21.78125 47.21875 15.09375 
Q 47.21875 7.46875 41.1875 3.015625 
Q 35.15625 -1.421875 24.609375 -1.421875 
Q 20.21875 -1.421875 15.453125 -0.5625 
Q 10.6875 0.296875 5.421875 2 
L 5.421875 11.28125 
Q 10.40625 8.6875 15.234375 7.390625 
Q 20.0625 6.109375 24.8125 6.109375 
Q 31.15625 6.109375 34.5625 8.28125 
Q 37.984375 10.453125 37.984375 14.40625 
Q 37.984375 18.0625 35.515625 20.015625 
Q 33.0625 21.96875 24.703125 23.78125 
L 21.578125 24.515625 
Q 13.234375 26.265625 9.515625 29.90625 
Q 5.8125 33.546875 5.8125 39.890625 
Q 5.8125 47.609375 11.28125 51.796875 
Q 16.75 56 26.8125 56 
Q 31.78125 56 36.171875 55.265625 
Q 40.578125 54.546875 44.28125 53.078125 
z
" id="DejaVuSans-73"/>
      <path d="M 25.390625 72.90625 
L 33.6875 72.90625 
L 8.296875 -9.28125 
L 0 -9.28125 
z
" id="DejaVuSans-2f"/>
      <path d="M 45.40625 46.390625 
L 45.40625 75.984375 
L 54.390625 75.984375 
L 54.390625 0 
L 45.40625 0 
L 45.40625 8.203125 
Q 42.578125 3.328125 38.25 0.953125 
Q 33.9375 -1.421875 27.875 -1.421875 
Q 17.96875 -1.421875 11.734375 6.484375 
Q 5.515625 14.40625 5.515625 27.296875 
Q 5.515625 40.1875 11.734375 48.09375 
Q 17.96875 56 27.875 56 
Q 33.9375 56 38.25 53.625 
Q 42.578125 51.265625 45.40625 46.390625 
z
M 14.796875 27.296875 
Q 14.796875 17.390625 18.875 11.75 
Q 22.953125 6.109375 30.078125 6.109375 
Q 37.203125 6.109375 41.296875 11.75 
Q 45.40625 17.390625 45.40625 27.296875 
Q 45.40625 37.203125 41.296875 42.84375 
Q 37.203125 48.484375 30.078125 48.484375 
Q 22.953125 48.484375 18.875 42.84375 
Q 14.796875 37.203125 14.796875 27.296875 
z
" id="DejaVuSans-64"/>
      <path d="M 9.421875 54.6875 
L 18.40625 54.6875 
L 18.40625 0 
L 9.421875 0 
z
M 9.421875 75.984375 
L 18.40625 75.984375 
L 18.40625 64.59375 
L 9.421875 64.59375 
z
" id="DejaVuSans-69"/>
      <path d="M 52 44.1875 
Q 55.375 50.25 60.0625 53.125 
Q 64.75 56 71.09375 56 
Q 79.640625 56 84.28125 50.015625 
Q 88.921875 44.046875 88.921875 33.015625 
L 88.921875 0 
L 79.890625 0 
L 79.890625 32.71875 
Q 79.890625 40.578125 77.09375 44.375 
Q 74.3125 48.1875 68.609375 48.1875 
Q 61.625 48.1875 57.5625 43.546875 
Q 53.515625 38.921875 53.515625 30.90625 
L 53.515625 0 
L 44.484375 0 
L 44.484375 32.71875 
Q 44.484375 40.625 41.703125 44.40625 
Q 38.921875 48.1875 33.109375 48.1875 
Q 26.21875 48.1875 22.15625 43.53125 
Q 18.109375 38.875 18.109375 30.90625 
L 18.109375 0 
L 9.078125 0 
L 9.078125 54.6875 
L 18.109375 54.6875 
L 18.109375 46.1875 
Q 21.1875 51.21875 25.484375 53.609375 
Q 29.78125 56 35.6875 56 
Q 41.65625 56 45.828125 52.96875 
Q 50 49.953125 52 44.1875 
z
" id="DejaVuSans-6d"/>
      <path d="M 54.890625 33.015625 
L 54.890625 0 
L 45.90625 0 
L 45.90625 32.71875 
Q 45.90625 40.484375 42.875 44.328125 
Q 39.84375 48.1875 33.796875 48.1875 
Q 26.515625 48.1875 22.3125 43.546875 
Q 18.109375 38.921875 18.109375 30.90625 
L 18.109375 0 
L 9.078125 0 
L 9.078125 54.6875 
L 18.109375 54.6875 
L 18.109375 46.1875 
Q 21.34375 51.125 25.703125 53.5625 
Q 30.078125 56 35.796875 56 
Q 45.21875 56 50.046875 50.171875 
Q 54.890625 44.34375 54.890625 33.015625 
z
" id="DejaVuSans-6e"/>
      <path d="M 8.015625 75.875 
L 15.828125 75.875 
Q 23.140625 64.359375 26.78125 53.3125 
Q 30.421875 42.28125 30.421875 31.390625 
Q 30.421875 20.453125 26.78125 9.375 
Q 23.140625 -1.703125 15.828125 -13.1875 
L 8.015625 -13.1875 
Q 14.5 -2 17.703125 9.0625 
Q 20.90625 20.125 20.90625 31.390625 
Q 20.90625 42.671875 17.703125 53.65625 
Q 14.5 64.65625 8.015625 75.875 
z
" id="DejaVuSans-29"/>
     </defs>
     <g transform="translate(73.803219 338.153594)scale(0.17 -0.17)">
      <use xlink:href="#DejaVuSans-6c"/>
      <use x="27.783203" xlink:href="#DejaVuSans-6f"/>
      <use x="88.964844" xlink:href="#DejaVuSans-67"/>
      <use x="152.441406" xlink:href="#DejaVuSans-31"/>
      <use x="216.064453" xlink:href="#DejaVuSans-30"/>
      <use x="279.6875" xlink:href="#DejaVuSans-28"/>
      <use x="318.701172" xlink:href="#DejaVuSans-23"/>
      <use x="402.490234" xlink:href="#DejaVuSans-20"/>
      <use x="434.277344" xlink:href="#DejaVuSans-66"/>
      <use x="469.404297" xlink:href="#DejaVuSans-2d"/>
      <use x="505.488281" xlink:href="#DejaVuSans-65"/>
      <use x="567.011719" xlink:href="#DejaVuSans-76"/>
      <use x="626.191406" xlink:href="#DejaVuSans-61"/>
      <use x="687.470703" xlink:href="#DejaVuSans-6c"/>
      <use x="715.253906" xlink:href="#DejaVuSans-73"/>
      <use x="767.353516" xlink:href="#DejaVuSans-20"/>
      <use x="799.140625" xlink:href="#DejaVuSans-2f"/>
      <use x="832.832031" xlink:href="#DejaVuSans-20"/>
      <use x="864.619141" xlink:href="#DejaVuSans-64"/>
      <use x="928.095703" xlink:href="#DejaVuSans-69"/>
      <use x="955.878906" xlink:href="#DejaVuSans-6d"/>
      <use x="1053.291016" xlink:href="#DejaVuSans-65"/>
      <use x="1114.814453" xlink:href="#DejaVuSans-6e"/>
      <use x="1178.193359" xlink:href="#DejaVuSans-73"/>
      <use x="1230.292969" xlink:href="#DejaVuSans-69"/>
      <use x="1258.076172" xlink:href="#DejaVuSans-6f"/>
      <use x="1319.257812" xlink:href="#DejaVuSans-6e"/>
      <use x="1382.636719" xlink:href="#DejaVuSans-29"/>
     </g>
    </g>
   </g>
   <g id="matplotlib.axis_2">
    <g id="ytick_1">
     <g id="line2d_11">
      <path clip-path="url(#pee544469e3)" d="M 56.12 294.88 
L 333.168 294.88 
" style="fill:none;stroke:#b0b0b0;stroke-linecap:square;stroke-width:0.8;"/>
     </g>
     <g id="line2d_12">
      <defs>
       <path d="M 0 0 
L -3.5 0 
" id="m988103a95b" style="stroke:#000000;stroke-width:0.8;"/>
      </defs>
      <g>
       <use style="stroke:#000000;stroke-width:0.8;" x="56.12" xlink:href="#m988103a95b" y="294.88"/>
      </g>
     </g>
     <g id="text_3">
      <!-- 0.0 -->
      <defs>
       <path d="M 10.6875 12.40625 
L 21 12.40625 
L 21 0 
L 10.6875 0 
z
" id="DejaVuSans-2e"/>
      </defs>
      <g transform="translate(23.675 300.95875)scale(0.16 -0.16)">
       <use xlink:href="#DejaVuSans-30"/>
       <use x="63.623047" xlink:href="#DejaVuSans-2e"/>
       <use x="95.410156" xlink:href="#DejaVuSans-30"/>
      </g>
     </g>
    </g>
    <g id="ytick_2">
     <g id="line2d_13">
      <path clip-path="url(#pee544469e3)" d="M 56.12 237.843411 
L 333.168 237.843411 
" style="fill:none;stroke:#b0b0b0;stroke-linecap:square;stroke-width:0.8;"/>
     </g>
     <g id="line2d_14">
      <g>
       <use style="stroke:#000000;stroke-width:0.8;" x="56.12" xlink:href="#m988103a95b" y="237.843411"/>
      </g>
     </g>
     <g id="text_4">
      <!-- 0.2 -->
      <defs>
       <path d="M 19.1875 8.296875 
L 53.609375 8.296875 
L 53.609375 0 
L 7.328125 0 
L 7.328125 8.296875 
Q 12.9375 14.109375 22.625 23.890625 
Q 32.328125 33.6875 34.8125 36.53125 
Q 39.546875 41.84375 41.421875 45.53125 
Q 43.3125 49.21875 43.3125 52.78125 
Q 43.3125 58.59375 39.234375 62.25 
Q 35.15625 65.921875 28.609375 65.921875 
Q 23.96875 65.921875 18.8125 64.3125 
Q 13.671875 62.703125 7.8125 59.421875 
L 7.8125 69.390625 
Q 13.765625 71.78125 18.9375 73 
Q 24.125 74.21875 28.421875 74.21875 
Q 39.75 74.21875 46.484375 68.546875 
Q 53.21875 62.890625 53.21875 53.421875 
Q 53.21875 48.921875 51.53125 44.890625 
Q 49.859375 40.875 45.40625 35.40625 
Q 44.1875 33.984375 37.640625 27.21875 
Q 31.109375 20.453125 19.1875 8.296875 
z
" id="DejaVuSans-32"/>
      </defs>
      <g transform="translate(23.675 243.922161)scale(0.16 -0.16)">
       <use xlink:href="#DejaVuSans-30"/>
       <use x="63.623047" xlink:href="#DejaVuSans-2e"/>
       <use x="95.410156" xlink:href="#DejaVuSans-32"/>
      </g>
     </g>
    </g>
    <g id="ytick_3">
     <g id="line2d_15">
      <path clip-path="url(#pee544469e3)" d="M 56.12 180.806823 
L 333.168 180.806823 
" style="fill:none;stroke:#b0b0b0;stroke-linecap:square;stroke-width:0.8;"/>
     </g>
     <g id="line2d_16">
      <g>
       <use style="stroke:#000000;stroke-width:0.8;" x="56.12" xlink:href="#m988103a95b" y="180.806823"/>
      </g>
     </g>
     <g id="text_5">
      <!-- 0.4 -->
      <defs>
       <path d="M 37.796875 64.3125 
L 12.890625 25.390625 
L 37.796875 25.390625 
z
M 35.203125 72.90625 
L 47.609375 72.90625 
L 47.609375 25.390625 
L 58.015625 25.390625 
L 58.015625 17.1875 
L 47.609375 17.1875 
L 47.609375 0 
L 37.796875 0 
L 37.796875 17.1875 
L 4.890625 17.1875 
L 4.890625 26.703125 
z
" id="DejaVuSans-34"/>
      </defs>
      <g transform="translate(23.675 186.885573)scale(0.16 -0.16)">
       <use xlink:href="#DejaVuSans-30"/>
       <use x="63.623047" xlink:href="#DejaVuSans-2e"/>
       <use x="95.410156" xlink:href="#DejaVuSans-34"/>
      </g>
     </g>
    </g>
    <g id="ytick_4">
     <g id="line2d_17">
      <path clip-path="url(#pee544469e3)" d="M 56.12 123.770234 
L 333.168 123.770234 
" style="fill:none;stroke:#b0b0b0;stroke-linecap:square;stroke-width:0.8;"/>
     </g>
     <g id="line2d_18">
      <g>
       <use style="stroke:#000000;stroke-width:0.8;" x="56.12" xlink:href="#m988103a95b" y="123.770234"/>
      </g>
     </g>
     <g id="text_6">
      <!-- 0.6 -->
      <defs>
       <path d="M 33.015625 40.375 
Q 26.375 40.375 22.484375 35.828125 
Q 18.609375 31.296875 18.609375 23.390625 
Q 18.609375 15.53125 22.484375 10.953125 
Q 26.375 6.390625 33.015625 6.390625 
Q 39.65625 6.390625 43.53125 10.953125 
Q 47.40625 15.53125 47.40625 23.390625 
Q 47.40625 31.296875 43.53125 35.828125 
Q 39.65625 40.375 33.015625 40.375 
z
M 52.59375 71.296875 
L 52.59375 62.3125 
Q 48.875 64.0625 45.09375 64.984375 
Q 41.3125 65.921875 37.59375 65.921875 
Q 27.828125 65.921875 22.671875 59.328125 
Q 17.53125 52.734375 16.796875 39.40625 
Q 19.671875 43.65625 24.015625 45.921875 
Q 28.375 48.1875 33.59375 48.1875 
Q 44.578125 48.1875 50.953125 41.515625 
Q 57.328125 34.859375 57.328125 23.390625 
Q 57.328125 12.15625 50.6875 5.359375 
Q 44.046875 -1.421875 33.015625 -1.421875 
Q 20.359375 -1.421875 13.671875 8.265625 
Q 6.984375 17.96875 6.984375 36.375 
Q 6.984375 53.65625 15.1875 63.9375 
Q 23.390625 74.21875 37.203125 74.21875 
Q 40.921875 74.21875 44.703125 73.484375 
Q 48.484375 72.75 52.59375 71.296875 
z
" id="DejaVuSans-36"/>
      </defs>
      <g transform="translate(23.675 129.848984)scale(0.16 -0.16)">
       <use xlink:href="#DejaVuSans-30"/>
       <use x="63.623047" xlink:href="#DejaVuSans-2e"/>
       <use x="95.410156" xlink:href="#DejaVuSans-36"/>
      </g>
     </g>
    </g>
    <g id="ytick_5">
     <g id="line2d_19">
      <path clip-path="url(#pee544469e3)" d="M 56.12 66.733646 
L 333.168 66.733646 
" style="fill:none;stroke:#b0b0b0;stroke-linecap:square;stroke-width:0.8;"/>
     </g>
     <g id="line2d_20">
      <g>
       <use style="stroke:#000000;stroke-width:0.8;" x="56.12" xlink:href="#m988103a95b" y="66.733646"/>
      </g>
     </g>
     <g id="text_7">
      <!-- 0.8 -->
      <defs>
       <path d="M 31.78125 34.625 
Q 24.75 34.625 20.71875 30.859375 
Q 16.703125 27.09375 16.703125 20.515625 
Q 16.703125 13.921875 20.71875 10.15625 
Q 24.75 6.390625 31.78125 6.390625 
Q 38.8125 6.390625 42.859375 10.171875 
Q 46.921875 13.96875 46.921875 20.515625 
Q 46.921875 27.09375 42.890625 30.859375 
Q 38.875 34.625 31.78125 34.625 
z
M 21.921875 38.8125 
Q 15.578125 40.375 12.03125 44.71875 
Q 8.5 49.078125 8.5 55.328125 
Q 8.5 64.0625 14.71875 69.140625 
Q 20.953125 74.21875 31.78125 74.21875 
Q 42.671875 74.21875 48.875 69.140625 
Q 55.078125 64.0625 55.078125 55.328125 
Q 55.078125 49.078125 51.53125 44.71875 
Q 48 40.375 41.703125 38.8125 
Q 48.828125 37.15625 52.796875 32.3125 
Q 56.78125 27.484375 56.78125 20.515625 
Q 56.78125 9.90625 50.3125 4.234375 
Q 43.84375 -1.421875 31.78125 -1.421875 
Q 19.734375 -1.421875 13.25 4.234375 
Q 6.78125 9.90625 6.78125 20.515625 
Q 6.78125 27.484375 10.78125 32.3125 
Q 14.796875 37.15625 21.921875 38.8125 
z
M 18.3125 54.390625 
Q 18.3125 48.734375 21.84375 45.5625 
Q 25.390625 42.390625 31.78125 42.390625 
Q 38.140625 42.390625 41.71875 45.5625 
Q 45.3125 48.734375 45.3125 54.390625 
Q 45.3125 60.0625 41.71875 63.234375 
Q 38.140625 66.40625 31.78125 66.40625 
Q 25.390625 66.40625 21.84375 63.234375 
Q 18.3125 60.0625 18.3125 54.390625 
z
" id="DejaVuSans-38"/>
      </defs>
      <g transform="translate(23.675 72.812396)scale(0.16 -0.16)">
       <use xlink:href="#DejaVuSans-30"/>
       <use x="63.623047" xlink:href="#DejaVuSans-2e"/>
       <use x="95.410156" xlink:href="#DejaVuSans-38"/>
      </g>
     </g>
    </g>
    <g id="ytick_6">
     <g id="line2d_21">
      <path clip-path="url(#pee544469e3)" d="M 56.12 9.697057 
L 333.168 9.697057 
" style="fill:none;stroke:#b0b0b0;stroke-linecap:square;stroke-width:0.8;"/>
     </g>
     <g id="line2d_22">
      <g>
       <use style="stroke:#000000;stroke-width:0.8;" x="56.12" xlink:href="#m988103a95b" y="9.697057"/>
      </g>
     </g>
     <g id="text_8">
      <!-- 1.0 -->
      <g transform="translate(23.675 15.775807)scale(0.16 -0.16)">
       <use xlink:href="#DejaVuSans-31"/>
       <use x="63.623047" xlink:href="#DejaVuSans-2e"/>
       <use x="95.410156" xlink:href="#DejaVuSans-30"/>
      </g>
     </g>
    </g>
    <g id="text_9">
     <!-- Fraction of function,target pairs -->
     <defs>
      <path d="M 9.8125 72.90625 
L 51.703125 72.90625 
L 51.703125 64.59375 
L 19.671875 64.59375 
L 19.671875 43.109375 
L 48.578125 43.109375 
L 48.578125 34.8125 
L 19.671875 34.8125 
L 19.671875 0 
L 9.8125 0 
z
" id="DejaVuSans-46"/>
      <path d="M 41.109375 46.296875 
Q 39.59375 47.171875 37.8125 47.578125 
Q 36.03125 48 33.890625 48 
Q 26.265625 48 22.1875 43.046875 
Q 18.109375 38.09375 18.109375 28.8125 
L 18.109375 0 
L 9.078125 0 
L 9.078125 54.6875 
L 18.109375 54.6875 
L 18.109375 46.1875 
Q 20.953125 51.171875 25.484375 53.578125 
Q 30.03125 56 36.53125 56 
Q 37.453125 56 38.578125 55.875 
Q 39.703125 55.765625 41.0625 55.515625 
z
" id="DejaVuSans-72"/>
      <path d="M 48.78125 52.59375 
L 48.78125 44.1875 
Q 44.96875 46.296875 41.140625 47.34375 
Q 37.3125 48.390625 33.40625 48.390625 
Q 24.65625 48.390625 19.8125 42.84375 
Q 14.984375 37.3125 14.984375 27.296875 
Q 14.984375 17.28125 19.8125 11.734375 
Q 24.65625 6.203125 33.40625 6.203125 
Q 37.3125 6.203125 41.140625 7.25 
Q 44.96875 8.296875 48.78125 10.40625 
L 48.78125 2.09375 
Q 45.015625 0.34375 40.984375 -0.53125 
Q 36.96875 -1.421875 32.421875 -1.421875 
Q 20.0625 -1.421875 12.78125 6.34375 
Q 5.515625 14.109375 5.515625 27.296875 
Q 5.515625 40.671875 12.859375 48.328125 
Q 20.21875 56 33.015625 56 
Q 37.15625 56 41.109375 55.140625 
Q 45.0625 54.296875 48.78125 52.59375 
z
" id="DejaVuSans-63"/>
      <path d="M 18.3125 70.21875 
L 18.3125 54.6875 
L 36.8125 54.6875 
L 36.8125 47.703125 
L 18.3125 47.703125 
L 18.3125 18.015625 
Q 18.3125 11.328125 20.140625 9.421875 
Q 21.96875 7.515625 27.59375 7.515625 
L 36.8125 7.515625 
L 36.8125 0 
L 27.59375 0 
Q 17.1875 0 13.234375 3.875 
Q 9.28125 7.765625 9.28125 18.015625 
L 9.28125 47.703125 
L 2.6875 47.703125 
L 2.6875 54.6875 
L 9.28125 54.6875 
L 9.28125 70.21875 
z
" id="DejaVuSans-74"/>
      <path d="M 8.5 21.578125 
L 8.5 54.6875 
L 17.484375 54.6875 
L 17.484375 21.921875 
Q 17.484375 14.15625 20.5 10.265625 
Q 23.53125 6.390625 29.59375 6.390625 
Q 36.859375 6.390625 41.078125 11.03125 
Q 45.3125 15.671875 45.3125 23.6875 
L 45.3125 54.6875 
L 54.296875 54.6875 
L 54.296875 0 
L 45.3125 0 
L 45.3125 8.40625 
Q 42.046875 3.421875 37.71875 1 
Q 33.40625 -1.421875 27.6875 -1.421875 
Q 18.265625 -1.421875 13.375 4.4375 
Q 8.5 10.296875 8.5 21.578125 
z
M 31.109375 56 
z
" id="DejaVuSans-75"/>
      <path d="M 11.71875 12.40625 
L 22.015625 12.40625 
L 22.015625 4 
L 14.015625 -11.625 
L 7.71875 -11.625 
L 11.71875 4 
z
" id="DejaVuSans-2c"/>
      <path d="M 18.109375 8.203125 
L 18.109375 -20.796875 
L 9.078125 -20.796875 
L 9.078125 54.6875 
L 18.109375 54.6875 
L 18.109375 46.390625 
Q 20.953125 51.265625 25.265625 53.625 
Q 29.59375 56 35.59375 56 
Q 45.5625 56 51.78125 48.09375 
Q 58.015625 40.1875 58.015625 27.296875 
Q 58.015625 14.40625 51.78125 6.484375 
Q 45.5625 -1.421875 35.59375 -1.421875 
Q 29.59375 -1.421875 25.265625 0.953125 
Q 20.953125 3.328125 18.109375 8.203125 
z
M 48.6875 27.296875 
Q 48.6875 37.203125 44.609375 42.84375 
Q 40.53125 48.484375 33.40625 48.484375 
Q 26.265625 48.484375 22.1875 42.84375 
Q 18.109375 37.203125 18.109375 27.296875 
Q 18.109375 17.390625 22.1875 11.75 
Q 26.265625 6.109375 33.40625 6.109375 
Q 40.53125 6.109375 44.609375 11.75 
Q 48.6875 17.390625 48.6875 27.296875 
z
" id="DejaVuSans-70"/>
     </defs>
     <g transform="translate(16.139531 286.001989)rotate(-90)scale(0.17 -0.17)">
      <use xlink:href="#DejaVuSans-46"/>
      <use x="57.410156" xlink:href="#DejaVuSans-72"/>
      <use x="98.523438" xlink:href="#DejaVuSans-61"/>
      <use x="159.802734" xlink:href="#DejaVuSans-63"/>
      <use x="214.783203" xlink:href="#DejaVuSans-74"/>
      <use x="253.992188" xlink:href="#DejaVuSans-69"/>
      <use x="281.775391" xlink:href="#DejaVuSans-6f"/>
      <use x="342.957031" xlink:href="#DejaVuSans-6e"/>
      <use x="406.335938" xlink:href="#DejaVuSans-20"/>
      <use x="438.123047" xlink:href="#DejaVuSans-6f"/>
      <use x="499.304688" xlink:href="#DejaVuSans-66"/>
      <use x="534.509766" xlink:href="#DejaVuSans-20"/>
      <use x="566.296875" xlink:href="#DejaVuSans-66"/>
      <use x="601.501953" xlink:href="#DejaVuSans-75"/>
      <use x="664.880859" xlink:href="#DejaVuSans-6e"/>
      <use x="728.259766" xlink:href="#DejaVuSans-63"/>
      <use x="783.240234" xlink:href="#DejaVuSans-74"/>
      <use x="822.449219" xlink:href="#DejaVuSans-69"/>
      <use x="850.232422" xlink:href="#DejaVuSans-6f"/>
      <use x="911.414062" xlink:href="#DejaVuSans-6e"/>
      <use x="974.792969" xlink:href="#DejaVuSans-2c"/>
      <use x="1006.580078" xlink:href="#DejaVuSans-74"/>
      <use x="1045.789062" xlink:href="#DejaVuSans-61"/>
      <use x="1107.068359" xlink:href="#DejaVuSans-72"/>
      <use x="1148.166016" xlink:href="#DejaVuSans-67"/>
      <use x="1211.642578" xlink:href="#DejaVuSans-65"/>
      <use x="1273.166016" xlink:href="#DejaVuSans-74"/>
      <use x="1312.375" xlink:href="#DejaVuSans-20"/>
      <use x="1344.162109" xlink:href="#DejaVuSans-70"/>
      <use x="1407.638672" xlink:href="#DejaVuSans-61"/>
      <use x="1468.917969" xlink:href="#DejaVuSans-69"/>
      <use x="1496.701172" xlink:href="#DejaVuSans-72"/>
      <use x="1537.814453" xlink:href="#DejaVuSans-73"/>
     </g>
    </g>
   </g>
   <g id="line2d_23">
    <defs>
     <path d="M 0 1.5 
C 0.397805 1.5 0.77937 1.341951 1.06066 1.06066 
C 1.341951 0.77937 1.5 0.397805 1.5 0 
C 1.5 -0.397805 1.341951 -0.77937 1.06066 -1.06066 
C 0.77937 -1.341951 0.397805 -1.5 0 -1.5 
C -0.397805 -1.5 -0.77937 -1.341951 -1.06066 -1.06066 
C -1.341951 -0.77937 -1.5 -0.397805 -1.5 0 
C -1.5 0.397805 -1.341951 0.77937 -1.06066 1.06066 
C -0.77937 1.341951 -0.397805 1.5 0 1.5 
z
" id="mc9975e6319" style="stroke:#f5deb3;"/>
    </defs>
    <g>
     <use style="fill:#f5deb3;stroke:#f5deb3;" x="383.522819" xlink:href="#mc9975e6319" y="15.764779"/>
     <use style="fill:#f5deb3;stroke:#f5deb3;" x="383.522819" xlink:href="#mc9975e6319" y="15.764779"/>
    </g>
   </g>
   <g id="line2d_24">
    <defs>
     <path d="M 0 1.5 
C 0.397805 1.5 0.77937 1.341951 1.06066 1.06066 
C 1.341951 0.77937 1.5 0.397805 1.5 0 
C 1.5 -0.397805 1.341951 -0.77937 1.06066 -1.06066 
C 0.77937 -1.341951 0.397805 -1.5 0 -1.5 
C -0.397805 -1.5 -0.77937 -1.341951 -1.06066 -1.06066 
C -1.341951 -0.77937 -1.5 -0.397805 -1.5 0 
C -1.5 0.397805 -1.341951 0.77937 -1.06066 1.06066 
C -0.77937 1.341951 -0.397805 1.5 0 1.5 
z
" id="m4c818e67b2" style="stroke:#000080;"/>
    </defs>
    <g>
     <use style="fill:#000080;stroke:#000080;" x="398.617524" xlink:href="#m4c818e67b2" y="119.927344"/>
     <use style="fill:#000080;stroke:#000080;" x="398.617524" xlink:href="#m4c818e67b2" y="119.927344"/>
    </g>
   </g>
   <g id="line2d_25">
    <path d="M -1 275.665546 
L 23.092426 275.665546 
L 23.092426 260.698498 
L 56.12 260.698498 
L 56.12 247.754024 
L 79.553436 247.754024 
L 79.553436 240.472758 
L 97.729822 240.472758 
L 97.729822 235.214065 
L 112.58101 235.214065 
L 112.58101 230.96666 
L 125.137511 230.96666 
L 125.137511 224.089908 
L 136.014447 224.089908 
L 136.014447 219.23573 
L 145.608584 219.23573 
L 145.608584 215.797354 
L 154.190832 215.797354 
L 154.190832 212.156721 
L 161.95442 212.156721 
L 161.95442 210.134147 
L 169.04202 210.134147 
L 169.04202 207.909315 
L 175.561981 207.909315 
L 175.561981 203.459652 
L 181.598521 203.459652 
L 181.598521 201.639336 
L 187.218406 201.639336 
L 187.218406 199.009989 
L 192.475457 199.009989 
L 192.475457 194.560326 
L 197.413697 194.560326 
L 197.413697 192.133238 
L 202.069594 192.133238 
L 202.069594 191.324208 
L 206.473695 191.324208 
L 206.473695 190.717436 
L 210.651842 190.717436 
L 210.651842 189.099377 
L 214.626095 189.099377 
L 214.626095 187.481317 
L 218.41543 187.481317 
L 218.41543 185.458743 
L 222.036294 185.458743 
L 222.036294 184.447456 
L 225.503031 184.447456 
L 225.503031 182.62714 
L 228.828228 182.62714 
L 228.828228 182.222625 
L 232.022991 182.222625 
L 232.022991 181.00908 
L 235.097168 181.00908 
L 235.097168 180.604565 
L 238.059531 180.604565 
L 238.059531 180.200051 
L 240.917931 180.200051 
L 240.917931 179.391021 
L 243.679416 179.391021 
L 243.679416 178.784249 
L 246.350345 178.784249 
L 246.350345 176.35716 
L 248.936467 176.35716 
L 248.936467 176.154903 
L 253.874707 176.154903 
L 253.874707 175.143615 
L 256.235917 175.143615 
L 256.235917 174.334586 
L 258.530604 174.334586 
L 258.530604 172.716527 
L 260.762416 172.716527 
L 260.762416 172.109754 
L 262.934705 172.109754 
L 262.934705 170.693953 
L 265.050565 170.693953 
L 265.050565 169.884923 
L 267.112853 169.884923 
L 267.112853 169.278151 
L 269.124214 169.278151 
L 269.124214 168.266864 
L 271.087105 168.266864 
L 271.087105 167.053319 
L 273.003806 167.053319 
L 273.003806 165.43526 
L 274.87644 165.43526 
L 274.87644 165.233003 
L 278.497304 165.233003 
L 278.497304 162.603656 
L 280.249114 162.603656 
L 280.249114 160.985597 
L 281.964041 160.985597 
L 281.964041 159.97431 
L 283.643606 159.97431 
L 283.643606 158.356251 
L 285.289238 158.356251 
L 285.289238 156.738192 
L 286.902281 156.738192 
L 286.902281 155.524647 
L 288.484001 155.524647 
L 288.484001 155.32239 
L 290.035591 155.32239 
L 290.035591 154.715617 
L 291.558178 154.715617 
L 291.558178 154.311103 
L 294.520542 154.311103 
L 294.520542 154.108845 
L 295.962279 154.108845 
L 295.962279 153.70433 
L 297.378941 153.70433 
L 297.378941 153.502073 
L 300.140426 153.502073 
L 300.140426 152.693043 
L 301.486837 152.693043 
L 301.486837 152.288529 
L 304.114679 152.288529 
L 304.114679 150.872727 
L 305.397477 150.872727 
L 305.397477 149.659182 
L 306.660387 149.659182 
L 306.660387 148.850153 
L 307.904014 148.850153 
L 307.904014 147.838866 
L 309.12894 147.838866 
L 309.12894 146.625321 
L 310.335718 146.625321 
L 310.335718 146.018549 
L 311.524878 146.018549 
L 311.524878 145.816292 
L 312.696927 145.816292 
L 312.696927 144.805005 
L 313.852351 144.805005 
L 313.852351 144.602747 
L 314.991615 144.602747 
L 314.991615 143.59146 
L 317.223426 143.59146 
L 317.223426 143.186945 
L 319.395715 143.186945 
L 319.395715 142.175658 
L 320.460515 142.175658 
L 320.460515 141.164371 
L 321.511575 141.164371 
L 321.511575 140.153084 
L 323.573863 140.153084 
L 323.573863 139.344055 
L 324.585752 139.344055 
L 324.585752 139.141797 
L 326.572582 139.141797 
L 326.572582 138.93954 
L 327.548115 138.93954 
L 327.548115 138.332768 
L 328.512103 138.332768 
L 328.512103 138.13051 
L 333.168 138.13051 
L 333.168 138.13051 
" style="fill:none;stroke:#000080;stroke-linecap:square;stroke-width:1.5;"/>
   </g>
   <g id="line2d_26">
    <defs>
     <path d="M 0 6 
C 1.591219 6 3.117479 5.367802 4.242641 4.242641 
C 5.367802 3.117479 6 1.591219 6 0 
C 6 -1.591219 5.367802 -3.117479 4.242641 -4.242641 
C 3.117479 -5.367802 1.591219 -6 0 -6 
C -1.591219 -6 -3.117479 -5.367802 -4.242641 -4.242641 
C -5.367802 -3.117479 -6 -1.591219 -6 0 
C -6 1.591219 -5.367802 3.117479 -4.242641 4.242641 
C -3.117479 5.367802 -1.591219 6 0 6 
z
" id="m5fe7bcc5f1" style="stroke:#000080;stroke-width:1.5;"/>
    </defs>
    <g>
     <use style="fill-opacity:0;stroke:#000080;stroke-width:1.5;" x="97.729822" xlink:href="#m5fe7bcc5f1" y="235.214065"/>
     <use style="fill-opacity:0;stroke:#000080;stroke-width:1.5;" x="175.561981" xlink:href="#m5fe7bcc5f1" y="207.909315"/>
     <use style="fill-opacity:0;stroke:#000080;stroke-width:1.5;" x="228.828228" xlink:href="#m5fe7bcc5f1" y="182.222625"/>
     <use style="fill-opacity:0;stroke:#000080;stroke-width:1.5;" x="285.289238" xlink:href="#m5fe7bcc5f1" y="158.356251"/>
     <use style="fill-opacity:0;stroke:#000080;stroke-width:1.5;" x="328.512103" xlink:href="#m5fe7bcc5f1" y="138.13051"/>
     <use style="fill-opacity:0;stroke:#000080;stroke-width:1.5;" x="328.512103" xlink:href="#m5fe7bcc5f1" y="138.13051"/>
     <use style="fill-opacity:0;stroke:#000080;stroke-width:1.5;" x="333.168" xlink:href="#m5fe7bcc5f1" y="138.13051"/>
    </g>
   </g>
   <g id="line2d_27">
    <path style="fill:none;stroke:#000080;stroke-linecap:square;stroke-width:1.5;"/>
    <g/>
   </g>
   <g id="line2d_28">
    <path clip-path="url(#pee544469e3)" d="M 333.168 138.13051 
" style="fill:none;stroke:#000080;stroke-linecap:square;stroke-width:1.5;"/>
    <defs>
     <path d="M -12 12 
L 12 -12 
M -12 -12 
L 12 12 
" id="m7f2b020c2a" style="stroke:#000080;"/>
    </defs>
    <g clip-path="url(#pee544469e3)">
     <use style="fill:#000080;stroke:#000080;" x="333.168" xlink:href="#m7f2b020c2a" y="138.13051"/>
    </g>
   </g>
   <g id="line2d_29">
    <defs>
     <path d="M 0 1.5 
C 0.397805 1.5 0.77937 1.341951 1.06066 1.06066 
C 1.341951 0.77937 1.5 0.397805 1.5 0 
C 1.5 -0.397805 1.341951 -0.77937 1.06066 -1.06066 
C 0.77937 -1.341951 0.397805 -1.5 0 -1.5 
C -0.397805 -1.5 -0.77937 -1.341951 -1.06066 -1.06066 
C -1.341951 -0.77937 -1.5 -0.397805 -1.5 0 
C -1.5 0.397805 -1.341951 0.77937 -1.06066 1.06066 
C -0.77937 1.341951 -0.397805 1.5 0 1.5 
z
" id="meed8280876" style="stroke:#ff00ff;"/>
    </defs>
    <g>
     <use style="fill:#ff00ff;stroke:#ff00ff;" x="399.424026" xlink:href="#meed8280876" y="48.732737"/>
     <use style="fill:#ff00ff;stroke:#ff00ff;" x="399.424026" xlink:href="#meed8280876" y="48.732737"/>
    </g>
   </g>
   <g id="line2d_30">
    <path d="M -1 281.126496 
L 23.092426 281.126496 
L 23.092426 269.193309 
L 56.12 269.193309 
L 56.12 255.035291 
L 79.553436 255.035291 
L 79.553436 249.372084 
L 97.729822 249.372084 
L 97.729822 240.068243 
L 112.58101 240.068243 
L 112.58101 230.764402 
L 125.137511 230.764402 
L 125.137511 225.303452 
L 136.014447 225.303452 
L 136.014447 219.842502 
L 145.608584 219.842502 
L 145.608584 215.999612 
L 154.190832 215.999612 
L 154.190832 213.977037 
L 161.95442 213.977037 
L 161.95442 210.740919 
L 169.04202 210.740919 
L 169.04202 205.482226 
L 175.561981 205.482226 
L 175.561981 201.234821 
L 181.598521 201.234821 
L 181.598521 197.796445 
L 187.218406 197.796445 
L 187.218406 195.167099 
L 192.475457 195.167099 
L 192.475457 192.133238 
L 197.413697 192.133238 
L 197.413697 190.110664 
L 202.069594 190.110664 
L 202.069594 188.492604 
L 206.473695 188.492604 
L 206.473695 186.874545 
L 210.651842 186.874545 
L 210.651842 185.661001 
L 214.626095 185.661001 
L 214.626095 183.233912 
L 218.41543 183.233912 
L 218.41543 182.424882 
L 222.036294 182.424882 
L 222.036294 173.525556 
L 225.503031 173.525556 
L 225.503031 167.457834 
L 228.828228 167.457834 
L 228.828228 161.996884 
L 232.022991 161.996884 
L 232.022991 159.569795 
L 235.097168 159.569795 
L 235.097168 155.524647 
L 238.059531 155.524647 
L 238.059531 149.456925 
L 240.917931 149.456925 
L 240.917931 146.827579 
L 243.679416 146.827579 
L 243.679416 143.59146 
L 246.350345 143.59146 
L 246.350345 140.557599 
L 248.936467 140.557599 
L 248.936467 137.321481 
L 251.443004 137.321481 
L 251.443004 135.501164 
L 253.874707 135.501164 
L 253.874707 132.66956 
L 256.235917 132.66956 
L 256.235917 130.444729 
L 258.530604 130.444729 
L 258.530604 128.219897 
L 260.762416 128.219897 
L 260.762416 125.186036 
L 262.934705 125.186036 
L 262.934705 118.916057 
L 265.050565 118.916057 
L 265.050565 116.488968 
L 267.112853 116.488968 
L 267.112853 114.061879 
L 269.124214 114.061879 
L 269.124214 112.44382 
L 271.087105 112.44382 
L 271.087105 109.814473 
L 273.003806 109.814473 
L 273.003806 108.196414 
L 274.87644 108.196414 
L 274.87644 107.387384 
L 276.70699 107.387384 
L 276.70699 105.567068 
L 278.497304 105.567068 
L 278.497304 103.544494 
L 280.249114 103.544494 
L 280.249114 100.915147 
L 281.964041 100.915147 
L 281.964041 97.274514 
L 283.643606 97.274514 
L 283.643606 95.454197 
L 285.289238 95.454197 
L 285.289238 94.038396 
L 286.902281 94.038396 
L 286.902281 93.229366 
L 288.484001 93.229366 
L 288.484001 92.622594 
L 290.035591 92.622594 
L 290.035591 92.015822 
L 291.558178 92.015822 
L 291.558178 91.611307 
L 293.052826 91.611307 
L 293.052826 91.004534 
L 294.520542 91.004534 
L 294.520542 88.98196 
L 295.962279 88.98196 
L 295.962279 88.375188 
L 297.378941 88.375188 
L 297.378941 87.363901 
L 298.771385 87.363901 
L 298.771385 86.352614 
L 300.140426 86.352614 
L 300.140426 85.341327 
L 301.486837 85.341327 
L 301.486837 83.925525 
L 302.811355 83.925525 
L 302.811355 82.509723 
L 304.114679 82.509723 
L 304.114679 81.902951 
L 305.397477 81.902951 
L 305.397477 81.093922 
L 306.660387 81.093922 
L 306.660387 79.071348 
L 307.904014 79.071348 
L 307.904014 77.453288 
L 309.12894 77.453288 
L 309.12894 77.048773 
L 310.335718 77.048773 
L 310.335718 75.835229 
L 311.524878 75.835229 
L 311.524878 75.632972 
L 312.696927 75.632972 
L 312.696927 74.823942 
L 313.852351 74.823942 
L 313.852351 74.621685 
L 314.991615 74.621685 
L 314.991615 73.205883 
L 316.115164 73.205883 
L 316.115164 72.801368 
L 317.223426 72.801368 
L 317.223426 72.599111 
L 318.316812 72.599111 
L 318.316812 71.992338 
L 319.395715 71.992338 
L 319.395715 70.374279 
L 320.460515 70.374279 
L 320.460515 70.172022 
L 322.549245 70.172022 
L 322.549245 69.969764 
L 323.573863 69.969764 
L 323.573863 69.565249 
L 324.585752 69.565249 
L 324.585752 69.362992 
L 325.585225 69.362992 
L 325.585225 68.351705 
L 326.572582 68.351705 
L 326.572582 67.744933 
L 327.548115 67.744933 
L 327.548115 67.138161 
L 329.464816 67.138161 
L 329.464816 66.531388 
L 330.406515 66.531388 
L 330.406515 65.520101 
L 331.337451 65.520101 
L 331.337451 64.913329 
L 332.257867 64.913329 
L 332.257867 64.104299 
L 333.168 64.104299 
L 333.168 63.093012 
L 333.168 63.093012 
" style="fill:none;stroke:#ff00ff;stroke-linecap:square;stroke-width:1.5;"/>
   </g>
   <g id="line2d_31">
    <defs>
     <path d="M -0 8.485281 
L 5.091169 0 
L 0 -8.485281 
L -5.091169 -0 
z
" id="md81d2caf97" style="stroke:#ff00ff;stroke-linejoin:miter;stroke-width:1.5;"/>
    </defs>
    <g>
     <use style="fill-opacity:0;stroke:#ff00ff;stroke-linejoin:miter;stroke-width:1.5;" x="97.729822" xlink:href="#md81d2caf97" y="240.068243"/>
     <use style="fill-opacity:0;stroke:#ff00ff;stroke-linejoin:miter;stroke-width:1.5;" x="181.598521" xlink:href="#md81d2caf97" y="197.796445"/>
     <use style="fill-opacity:0;stroke:#ff00ff;stroke-linejoin:miter;stroke-width:1.5;" x="240.917931" xlink:href="#md81d2caf97" y="146.827579"/>
     <use style="fill-opacity:0;stroke:#ff00ff;stroke-linejoin:miter;stroke-width:1.5;" x="281.964041" xlink:href="#md81d2caf97" y="100.915147"/>
     <use style="fill-opacity:0;stroke:#ff00ff;stroke-linejoin:miter;stroke-width:1.5;" x="333.168" xlink:href="#md81d2caf97" y="64.104299"/>
     <use style="fill-opacity:0;stroke:#ff00ff;stroke-linejoin:miter;stroke-width:1.5;" x="333.168" xlink:href="#md81d2caf97" y="64.104299"/>
     <use style="fill-opacity:0;stroke:#ff00ff;stroke-linejoin:miter;stroke-width:1.5;" x="333.168" xlink:href="#md81d2caf97" y="63.093012"/>
    </g>
   </g>
   <g id="line2d_32">
    <path style="fill:none;stroke:#ff00ff;stroke-linecap:square;stroke-width:1.5;"/>
    <g/>
   </g>
   <g id="line2d_33">
    <path clip-path="url(#pee544469e3)" d="M 333.168 63.093012 
" style="fill:none;stroke:#ff00ff;stroke-linecap:square;stroke-width:1.5;"/>
    <defs>
     <path d="M -12 12 
L 12 -12 
M -12 -12 
L 12 12 
" id="md4379a1d2f" style="stroke:#ff00ff;"/>
    </defs>
    <g clip-path="url(#pee544469e3)">
     <use style="fill:#ff00ff;stroke:#ff00ff;" x="333.168" xlink:href="#md4379a1d2f" y="63.093012"/>
    </g>
   </g>
   <g id="line2d_34">
    <defs>
     <path d="M 0 1.5 
C 0.397805 1.5 0.77937 1.341951 1.06066 1.06066 
C 1.341951 0.77937 1.5 0.397805 1.5 0 
C 1.5 -0.397805 1.341951 -0.77937 1.06066 -1.06066 
C 0.77937 -1.341951 0.397805 -1.5 0 -1.5 
C -0.397805 -1.5 -0.77937 -1.341951 -1.06066 -1.06066 
C -1.341951 -0.77937 -1.5 -0.397805 -1.5 0 
C -1.5 0.397805 -1.341951 0.77937 -1.06066 1.06066 
C -0.77937 1.341951 -0.397805 1.5 0 1.5 
z
" id="ma845fa2edc" style="stroke:#ffa500;"/>
    </defs>
    <g>
     <use style="fill:#ffa500;stroke:#ffa500;" x="398.617524" xlink:href="#ma845fa2edc" y="50.957568"/>
     <use style="fill:#ffa500;stroke:#ffa500;" x="398.617524" xlink:href="#ma845fa2edc" y="50.957568"/>
    </g>
   </g>
   <g id="line2d_35">
    <path d="M -1 280.721982 
L 23.092426 280.721982 
L 23.092426 267.170735 
L 56.12 267.170735 
L 56.12 254.833034 
L 79.553436 254.833034 
L 79.553436 245.326935 
L 97.729822 245.326935 
L 97.729822 234.202778 
L 112.58101 234.202778 
L 112.58101 227.123769 
L 125.137511 227.123769 
L 125.137511 222.471849 
L 136.014447 222.471849 
L 136.014447 217.010899 
L 145.608584 217.010899 
L 145.608584 213.572523 
L 154.190832 213.572523 
L 154.190832 210.943176 
L 161.95442 210.943176 
L 161.95442 209.12286 
L 169.04202 209.12286 
L 169.04202 204.875454 
L 175.561981 204.875454 
L 175.561981 201.437078 
L 181.598521 201.437078 
L 181.598521 199.819019 
L 187.218406 199.819019 
L 187.218406 196.785158 
L 192.475457 196.785158 
L 192.475457 194.762584 
L 197.413697 194.762584 
L 197.413697 190.312921 
L 202.069594 190.312921 
L 202.069594 189.099377 
L 206.473695 189.099377 
L 206.473695 188.290347 
L 210.651842 188.290347 
L 210.651842 186.874545 
L 214.626095 186.874545 
L 214.626095 184.042941 
L 218.41543 184.042941 
L 218.41543 182.829397 
L 222.036294 182.829397 
L 222.036294 177.975219 
L 225.503031 177.975219 
L 225.503031 173.727814 
L 228.828228 173.727814 
L 228.828228 166.851062 
L 232.022991 166.851062 
L 232.022991 160.176567 
L 235.097168 160.176567 
L 235.097168 155.120132 
L 238.059531 155.120132 
L 238.059531 151.277242 
L 240.917931 151.277242 
L 240.917931 146.827579 
L 243.679416 146.827579 
L 243.679416 143.389203 
L 246.350345 143.389203 
L 246.350345 140.557599 
L 248.936467 140.557599 
L 248.936467 137.321481 
L 251.443004 137.321481 
L 251.443004 133.276332 
L 253.874707 133.276332 
L 253.874707 129.635699 
L 256.235917 129.635699 
L 256.235917 125.792808 
L 258.530604 125.792808 
L 258.530604 124.377007 
L 260.762416 124.377007 
L 260.762416 119.725086 
L 262.934705 119.725086 
L 262.934705 118.309284 
L 265.050565 118.309284 
L 265.050565 116.691225 
L 267.112853 116.691225 
L 267.112853 114.668651 
L 269.124214 114.668651 
L 269.124214 112.039305 
L 271.087105 112.039305 
L 271.087105 109.409958 
L 273.003806 109.409958 
L 273.003806 106.578355 
L 274.87644 106.578355 
L 274.87644 105.769325 
L 276.70699 105.769325 
L 276.70699 103.342236 
L 278.497304 103.342236 
L 278.497304 101.724177 
L 280.249114 101.724177 
L 280.249114 101.319662 
L 281.964041 101.319662 
L 281.964041 99.90386 
L 283.643606 99.90386 
L 283.643606 99.499346 
L 285.289238 99.499346 
L 285.289238 98.083544 
L 286.902281 98.083544 
L 286.902281 96.465484 
L 288.484001 96.465484 
L 288.484001 95.049683 
L 290.035591 95.049683 
L 290.035591 94.645168 
L 291.558178 94.645168 
L 291.558178 94.44291 
L 293.052826 94.44291 
L 293.052826 94.240653 
L 294.520542 94.240653 
L 294.520542 94.038396 
L 295.962279 94.038396 
L 295.962279 93.027109 
L 297.378941 93.027109 
L 297.378941 92.420336 
L 300.140426 92.420336 
L 300.140426 91.206792 
L 301.486837 91.206792 
L 301.486837 89.588733 
L 302.811355 89.588733 
L 302.811355 88.779703 
L 304.114679 88.779703 
L 304.114679 87.768416 
L 305.397477 87.768416 
L 305.397477 86.554872 
L 306.660387 86.554872 
L 306.660387 85.745842 
L 307.904014 85.745842 
L 307.904014 84.734555 
L 309.12894 84.734555 
L 309.12894 83.318753 
L 310.335718 83.318753 
L 310.335718 82.914238 
L 311.524878 82.914238 
L 311.524878 82.105209 
L 312.696927 82.105209 
L 312.696927 81.700694 
L 313.852351 81.700694 
L 313.852351 81.498436 
L 314.991615 81.498436 
L 314.991615 81.296179 
L 316.115164 81.296179 
L 316.115164 80.891664 
L 317.223426 80.891664 
L 317.223426 80.689407 
L 318.316812 80.689407 
L 318.316812 80.487149 
L 319.395715 80.487149 
L 319.395715 79.475862 
L 320.460515 79.475862 
L 320.460515 78.464575 
L 321.511575 78.464575 
L 321.511575 77.857803 
L 322.549245 77.857803 
L 322.549245 77.453288 
L 323.573863 77.453288 
L 323.573863 77.251031 
L 324.585752 77.251031 
L 324.585752 76.846516 
L 325.585225 76.846516 
L 325.585225 76.037486 
L 326.572582 76.037486 
L 326.572582 74.21717 
L 329.464816 74.21717 
L 329.464816 72.801368 
L 330.406515 72.801368 
L 330.406515 71.587823 
L 331.337451 71.587823 
L 331.337451 70.778794 
L 332.257867 70.778794 
L 332.257867 70.172022 
L 333.168 70.172022 
L 333.168 69.565249 
L 333.168 69.565249 
" style="fill:none;stroke:#ffa500;stroke-linecap:square;stroke-width:1.5;"/>
   </g>
   <g id="line2d_36">
    <defs>
     <path d="M 0 -6 
L -1.347084 -1.854102 
L -5.706339 -1.854102 
L -2.179628 0.708204 
L -3.526712 4.854102 
L -0 2.291796 
L 3.526712 4.854102 
L 2.179628 0.708204 
L 5.706339 -1.854102 
L 1.347084 -1.854102 
z
" id="m1613c00a37" style="stroke:#ffa500;stroke-linejoin:bevel;stroke-width:1.5;"/>
    </defs>
    <g>
     <use style="fill-opacity:0;stroke:#ffa500;stroke-linejoin:bevel;stroke-width:1.5;" x="125.137511" xlink:href="#m1613c00a37" y="222.471849"/>
     <use style="fill-opacity:0;stroke:#ffa500;stroke-linejoin:bevel;stroke-width:1.5;" x="202.069594" xlink:href="#m1613c00a37" y="189.099377"/>
     <use style="fill-opacity:0;stroke:#ffa500;stroke-linejoin:bevel;stroke-width:1.5;" x="256.235917" xlink:href="#m1613c00a37" y="129.635699"/>
     <use style="fill-opacity:0;stroke:#ffa500;stroke-linejoin:bevel;stroke-width:1.5;" x="300.140426" xlink:href="#m1613c00a37" y="92.420336"/>
     <use style="fill-opacity:0;stroke:#ffa500;stroke-linejoin:bevel;stroke-width:1.5;" x="333.168" xlink:href="#m1613c00a37" y="70.172022"/>
     <use style="fill-opacity:0;stroke:#ffa500;stroke-linejoin:bevel;stroke-width:1.5;" x="333.168" xlink:href="#m1613c00a37" y="69.565249"/>
    </g>
   </g>
   <g id="line2d_37">
    <path style="fill:none;stroke:#ffa500;stroke-linecap:square;stroke-width:1.5;"/>
    <g/>
   </g>
   <g id="line2d_38">
    <path clip-path="url(#pee544469e3)" d="M 333.168 69.565249 
" style="fill:none;stroke:#ffa500;stroke-linecap:square;stroke-width:1.5;"/>
    <defs>
     <path d="M -12 12 
L 12 -12 
M -12 -12 
L 12 12 
" id="m4ddd8316cd" style="stroke:#ffa500;"/>
    </defs>
    <g clip-path="url(#pee544469e3)">
     <use style="fill:#ffa500;stroke:#ffa500;" x="333.168" xlink:href="#m4ddd8316cd" y="69.565249"/>
    </g>
   </g>
   <g id="line2d_39">
    <defs>
     <path d="M 0 1.5 
C 0.397805 1.5 0.77937 1.341951 1.06066 1.06066 
C 1.341951 0.77937 1.5 0.397805 1.5 0 
C 1.5 -0.397805 1.341951 -0.77937 1.06066 -1.06066 
C 0.77937 -1.341951 0.397805 -1.5 0 -1.5 
C -0.397805 -1.5 -0.77937 -1.341951 -1.06066 -1.06066 
C -1.341951 -0.77937 -1.5 -0.397805 -1.5 0 
C -1.5 0.397805 -1.341951 0.77937 -1.06066 1.06066 
C -0.77937 1.341951 -0.397805 1.5 0 1.5 
z
" id="mf8add4004a" style="stroke:#6495ed;"/>
    </defs>
    <g>
     <use style="fill:#6495ed;stroke:#6495ed;" x="398.211258" xlink:href="#mf8add4004a" y="50.755311"/>
     <use style="fill:#6495ed;stroke:#6495ed;" x="398.211258" xlink:href="#mf8add4004a" y="50.755311"/>
    </g>
   </g>
   <g id="line2d_40">
    <path d="M -1 274.856517 
L 23.092426 274.856517 
L 23.092426 264.541389 
L 56.12 264.541389 
L 56.12 250.990143 
L 79.553436 250.990143 
L 79.553436 241.07953 
L 97.729822 241.07953 
L 97.729822 233.596006 
L 112.58101 233.596006 
L 112.58101 226.314739 
L 125.137511 226.314739 
L 125.137511 224.494423 
L 136.014447 224.494423 
L 136.014447 221.865076 
L 145.608584 221.865076 
L 145.608584 218.628958 
L 154.190832 218.628958 
L 154.190832 217.010899 
L 161.95442 217.010899 
L 161.95442 212.96575 
L 169.04202 212.96575 
L 169.04202 210.134147 
L 175.561981 210.134147 
L 175.561981 206.493513 
L 181.598521 206.493513 
L 181.598521 203.257395 
L 187.218406 203.257395 
L 187.218406 200.223534 
L 192.475457 200.223534 
L 192.475457 197.998702 
L 197.413697 197.998702 
L 197.413697 194.964841 
L 202.069594 194.964841 
L 202.069594 192.942267 
L 206.473695 192.942267 
L 206.473695 191.526465 
L 210.651842 191.526465 
L 210.651842 189.301634 
L 214.626095 189.301634 
L 214.626095 187.27906 
L 218.41543 187.27906 
L 218.41543 186.065515 
L 222.036294 186.065515 
L 222.036294 181.81811 
L 225.503031 181.81811 
L 225.503031 177.975219 
L 228.828228 177.975219 
L 228.828228 172.716527 
L 232.022991 172.716527 
L 232.022991 167.053319 
L 235.097168 167.053319 
L 235.097168 161.592369 
L 238.059531 161.592369 
L 238.059531 157.547221 
L 240.917931 157.547221 
L 240.917931 151.479499 
L 243.679416 151.479499 
L 243.679416 148.041123 
L 246.350345 148.041123 
L 246.350345 146.220806 
L 248.936467 146.220806 
L 248.936467 144.805005 
L 251.443004 144.805005 
L 251.443004 140.557599 
L 253.874707 140.557599 
L 253.874707 138.332768 
L 256.235917 138.332768 
L 256.235917 135.298906 
L 258.530604 135.298906 
L 258.530604 131.658273 
L 260.762416 131.658273 
L 260.762416 129.433442 
L 262.934705 129.433442 
L 262.934705 127.613125 
L 265.050565 127.613125 
L 265.050565 125.590551 
L 267.112853 125.590551 
L 267.112853 123.163462 
L 269.124214 123.163462 
L 269.124214 119.522829 
L 271.087105 119.522829 
L 271.087105 117.702512 
L 273.003806 117.702512 
L 273.003806 115.679938 
L 274.87644 115.679938 
L 274.87644 112.44382 
L 276.70699 112.44382 
L 276.70699 109.814473 
L 278.497304 109.814473 
L 278.497304 108.600929 
L 280.249114 108.600929 
L 280.249114 106.98287 
L 281.964041 106.98287 
L 281.964041 105.162553 
L 283.643606 105.162553 
L 283.643606 104.353523 
L 285.289238 104.353523 
L 285.289238 102.128692 
L 286.902281 102.128692 
L 286.902281 100.71289 
L 288.484001 100.71289 
L 288.484001 98.892573 
L 290.035591 98.892573 
L 290.035591 97.679029 
L 291.558178 97.679029 
L 291.558178 95.858712 
L 293.052826 95.858712 
L 293.052826 94.847425 
L 294.520542 94.847425 
L 294.520542 94.44291 
L 295.962279 94.44291 
L 295.962279 94.240653 
L 297.378941 94.240653 
L 297.378941 93.027109 
L 298.771385 93.027109 
L 298.771385 91.206792 
L 300.140426 91.206792 
L 300.140426 89.588733 
L 301.486837 89.588733 
L 301.486837 88.98196 
L 302.811355 88.98196 
L 302.811355 87.970673 
L 304.114679 87.970673 
L 304.114679 87.363901 
L 305.397477 87.363901 
L 305.397477 85.543585 
L 306.660387 85.543585 
L 306.660387 85.13907 
L 307.904014 85.13907 
L 307.904014 83.723268 
L 309.12894 83.723268 
L 309.12894 83.52101 
L 310.335718 83.52101 
L 310.335718 82.307466 
L 311.524878 82.307466 
L 311.524878 81.902951 
L 312.696927 81.902951 
L 312.696927 81.093922 
L 313.852351 81.093922 
L 313.852351 80.487149 
L 314.991615 80.487149 
L 314.991615 79.071348 
L 316.115164 79.071348 
L 316.115164 77.857803 
L 317.223426 77.857803 
L 317.223426 77.048773 
L 319.395715 77.048773 
L 319.395715 76.846516 
L 320.460515 76.846516 
L 320.460515 75.632972 
L 321.511575 75.632972 
L 321.511575 74.823942 
L 322.549245 74.823942 
L 322.549245 74.621685 
L 323.573863 74.621685 
L 323.573863 74.014912 
L 324.585752 74.014912 
L 324.585752 72.599111 
L 326.572582 72.599111 
L 326.572582 72.194596 
L 328.512103 72.194596 
L 328.512103 71.385566 
L 329.464816 71.385566 
L 329.464816 69.969764 
L 330.406515 69.969764 
L 330.406515 69.565249 
L 331.337451 69.565249 
L 331.337451 69.160735 
L 332.257867 69.160735 
L 332.257867 67.340418 
L 333.168 67.340418 
L 333.168 66.531388 
L 333.168 66.531388 
" style="fill:none;stroke:#6495ed;stroke-linecap:square;stroke-width:1.5;"/>
   </g>
   <g id="line2d_41">
    <defs>
     <path d="M -0 6 
L 6 -6 
L -6 -6 
z
" id="m91c6caf8f8" style="stroke:#6495ed;stroke-linejoin:miter;stroke-width:1.5;"/>
    </defs>
    <g>
     <use style="fill-opacity:0;stroke:#6495ed;stroke-linejoin:miter;stroke-width:1.5;" x="112.58101" xlink:href="#m91c6caf8f8" y="233.596006"/>
     <use style="fill-opacity:0;stroke:#6495ed;stroke-linejoin:miter;stroke-width:1.5;" x="169.04202" xlink:href="#m91c6caf8f8" y="210.134147"/>
     <use style="fill-opacity:0;stroke:#6495ed;stroke-linejoin:miter;stroke-width:1.5;" x="235.097168" xlink:href="#m91c6caf8f8" y="167.053319"/>
     <use style="fill-opacity:0;stroke:#6495ed;stroke-linejoin:miter;stroke-width:1.5;" x="291.558178" xlink:href="#m91c6caf8f8" y="95.858712"/>
     <use style="fill-opacity:0;stroke:#6495ed;stroke-linejoin:miter;stroke-width:1.5;" x="333.168" xlink:href="#m91c6caf8f8" y="67.340418"/>
     <use style="fill-opacity:0;stroke:#6495ed;stroke-linejoin:miter;stroke-width:1.5;" x="333.168" xlink:href="#m91c6caf8f8" y="67.340418"/>
     <use style="fill-opacity:0;stroke:#6495ed;stroke-linejoin:miter;stroke-width:1.5;" x="333.168" xlink:href="#m91c6caf8f8" y="66.531388"/>
    </g>
   </g>
   <g id="line2d_42">
    <path style="fill:none;stroke:#6495ed;stroke-linecap:square;stroke-width:1.5;"/>
    <g/>
   </g>
   <g id="line2d_43">
    <path clip-path="url(#pee544469e3)" d="M 333.168 66.531388 
" style="fill:none;stroke:#6495ed;stroke-linecap:square;stroke-width:1.5;"/>
    <defs>
     <path d="M -12 12 
L 12 -12 
M -12 -12 
L 12 12 
" id="mabc334479a" style="stroke:#6495ed;"/>
    </defs>
    <g clip-path="url(#pee544469e3)">
     <use style="fill:#6495ed;stroke:#6495ed;" x="333.168" xlink:href="#mabc334479a" y="66.531388"/>
    </g>
   </g>
   <g id="line2d_44">
    <defs>
     <path d="M 0 1.5 
C 0.397805 1.5 0.77937 1.341951 1.06066 1.06066 
C 1.341951 0.77937 1.5 0.397805 1.5 0 
C 1.5 -0.397805 1.341951 -0.77937 1.06066 -1.06066 
C 0.77937 -1.341951 0.397805 -1.5 0 -1.5 
C -0.397805 -1.5 -0.77937 -1.341951 -1.06066 -1.06066 
C -1.341951 -0.77937 -1.5 -0.397805 -1.5 0 
C -1.5 0.397805 -1.341951 0.77937 -1.06066 1.06066 
C -0.77937 1.341951 -0.397805 1.5 0 1.5 
z
" id="ma2940af857" style="stroke:#ff0000;"/>
    </defs>
    <g>
     <use style="fill:#ff0000;stroke:#ff0000;" x="396.980162" xlink:href="#ma2940af857" y="44.889846"/>
     <use style="fill:#ff0000;stroke:#ff0000;" x="396.980162" xlink:href="#ma2940af857" y="44.889846"/>
    </g>
   </g>
   <g id="line2d_45">
    <path d="M -1 276.879091 
L 23.092426 276.879091 
L 23.092426 264.743646 
L 56.12 264.743646 
L 56.12 254.024004 
L 79.553436 254.024004 
L 79.553436 243.911134 
L 97.729822 243.911134 
L 97.729822 235.214065 
L 112.58101 235.214065 
L 112.58101 228.539571 
L 125.137511 228.539571 
L 125.137511 223.685393 
L 136.014447 223.685393 
L 136.014447 220.247017 
L 145.608584 220.247017 
L 145.608584 216.606384 
L 154.190832 216.606384 
L 154.190832 212.763493 
L 161.95442 212.763493 
L 161.95442 208.516088 
L 169.04202 208.516088 
L 169.04202 205.684484 
L 175.561981 205.684484 
L 175.561981 202.448365 
L 181.598521 202.448365 
L 181.598521 199.819019 
L 187.218406 199.819019 
L 187.218406 197.998702 
L 192.475457 197.998702 
L 192.475457 196.178386 
L 197.413697 196.178386 
L 197.413697 194.358069 
L 202.069594 194.358069 
L 202.069594 192.133238 
L 206.473695 192.133238 
L 206.473695 190.110664 
L 210.651842 190.110664 
L 210.651842 188.492604 
L 214.626095 188.492604 
L 214.626095 186.065515 
L 218.41543 186.065515 
L 218.41543 184.851971 
L 222.036294 184.851971 
L 222.036294 171.502982 
L 225.503031 171.502982 
L 225.503031 166.042032 
L 228.828228 166.042032 
L 228.828228 160.985597 
L 232.022991 160.985597 
L 232.022991 154.715617 
L 235.097168 154.715617 
L 235.097168 152.288529 
L 238.059531 152.288529 
L 238.059531 145.209519 
L 240.917931 145.209519 
L 240.917931 141.973401 
L 243.679416 141.973401 
L 243.679416 137.321481 
L 246.350345 137.321481 
L 246.350345 133.680847 
L 248.936467 133.680847 
L 248.936467 129.028927 
L 251.443004 129.028927 
L 251.443004 127.006353 
L 253.874707 127.006353 
L 253.874707 124.174749 
L 256.235917 124.174749 
L 256.235917 121.949918 
L 258.530604 121.949918 
L 258.530604 119.927344 
L 260.762416 119.927344 
L 260.762416 117.09574 
L 262.934705 117.09574 
L 262.934705 113.252849 
L 265.050565 113.252849 
L 265.050565 111.028018 
L 267.112853 111.028018 
L 267.112853 109.207701 
L 269.124214 109.207701 
L 269.124214 106.98287 
L 271.087105 106.98287 
L 271.087105 104.758038 
L 273.003806 104.758038 
L 273.003806 102.937721 
L 274.87644 102.937721 
L 274.87644 99.701603 
L 276.70699 99.701603 
L 276.70699 96.869999 
L 278.497304 96.869999 
L 278.497304 94.44291 
L 280.249114 94.44291 
L 280.249114 92.420336 
L 281.964041 92.420336 
L 281.964041 90.802277 
L 283.643606 90.802277 
L 283.643606 88.779703 
L 285.289238 88.779703 
L 285.289238 88.577446 
L 286.902281 88.577446 
L 286.902281 86.554872 
L 288.484001 86.554872 
L 288.484001 85.948099 
L 290.035591 85.948099 
L 290.035591 85.13907 
L 291.558178 85.13907 
L 291.558178 83.723268 
L 293.052826 83.723268 
L 293.052826 82.914238 
L 294.520542 82.914238 
L 294.520542 81.902951 
L 295.962279 81.902951 
L 295.962279 81.093922 
L 297.378941 81.093922 
L 297.378941 79.273605 
L 298.771385 79.273605 
L 298.771385 78.86909 
L 300.140426 78.86909 
L 300.140426 77.251031 
L 301.486837 77.251031 
L 301.486837 76.442001 
L 302.811355 76.442001 
L 302.811355 76.037486 
L 304.114679 76.037486 
L 304.114679 75.026199 
L 306.660387 75.026199 
L 306.660387 74.419427 
L 307.904014 74.419427 
L 307.904014 74.21717 
L 309.12894 74.21717 
L 309.12894 74.014912 
L 310.335718 74.014912 
L 310.335718 72.599111 
L 311.524878 72.599111 
L 311.524878 71.992338 
L 312.696927 71.992338 
L 312.696927 71.587823 
L 313.852351 71.587823 
L 313.852351 71.183309 
L 314.991615 71.183309 
L 314.991615 69.565249 
L 316.115164 69.565249 
L 316.115164 68.553962 
L 317.223426 68.553962 
L 317.223426 66.733646 
L 318.316812 66.733646 
L 318.316812 66.126874 
L 319.395715 66.126874 
L 319.395715 64.913329 
L 320.460515 64.913329 
L 320.460515 64.711072 
L 321.511575 64.711072 
L 321.511575 64.104299 
L 322.549245 64.104299 
L 322.549245 63.497527 
L 323.573863 63.497527 
L 323.573863 62.890755 
L 324.585752 62.890755 
L 324.585752 62.283983 
L 325.585225 62.283983 
L 325.585225 61.879468 
L 327.548115 61.879468 
L 327.548115 61.070438 
L 329.464816 61.070438 
L 329.464816 59.654637 
L 330.406515 59.654637 
L 330.406515 58.441092 
L 332.257867 58.441092 
L 332.257867 57.83432 
L 333.168 57.83432 
L 333.168 57.429805 
L 333.168 57.429805 
" style="fill:none;stroke:#ff0000;stroke-linecap:square;stroke-width:1.5;"/>
   </g>
   <g id="line2d_46">
    <defs>
     <path d="M 0 -6 
L -5.196152 -3 
L -5.196152 3 
L -0 6 
L 5.196152 3 
L 5.196152 -3 
z
" id="mbae4bb0bd0" style="stroke:#ff0000;stroke-linejoin:miter;stroke-width:1.5;"/>
    </defs>
    <g>
     <use style="fill-opacity:0;stroke:#ff0000;stroke-linejoin:miter;stroke-width:1.5;" x="125.137511" xlink:href="#mbae4bb0bd0" y="223.685393"/>
     <use style="fill-opacity:0;stroke:#ff0000;stroke-linejoin:miter;stroke-width:1.5;" x="175.561981" xlink:href="#mbae4bb0bd0" y="202.448365"/>
     <use style="fill-opacity:0;stroke:#ff0000;stroke-linejoin:miter;stroke-width:1.5;" x="238.059531" xlink:href="#mbae4bb0bd0" y="152.288529"/>
     <use style="fill-opacity:0;stroke:#ff0000;stroke-linejoin:miter;stroke-width:1.5;" x="281.964041" xlink:href="#mbae4bb0bd0" y="90.802277"/>
     <use style="fill-opacity:0;stroke:#ff0000;stroke-linejoin:miter;stroke-width:1.5;" x="333.168" xlink:href="#mbae4bb0bd0" y="57.83432"/>
     <use style="fill-opacity:0;stroke:#ff0000;stroke-linejoin:miter;stroke-width:1.5;" x="333.168" xlink:href="#mbae4bb0bd0" y="57.83432"/>
     <use style="fill-opacity:0;stroke:#ff0000;stroke-linejoin:miter;stroke-width:1.5;" x="333.168" xlink:href="#mbae4bb0bd0" y="57.429805"/>
    </g>
   </g>
   <g id="line2d_47">
    <path style="fill:none;stroke:#ff0000;stroke-linecap:square;stroke-width:1.5;"/>
    <g/>
   </g>
   <g id="line2d_48">
    <path clip-path="url(#pee544469e3)" d="M 333.168 57.429805 
" style="fill:none;stroke:#ff0000;stroke-linecap:square;stroke-width:1.5;"/>
    <defs>
     <path d="M -12 12 
L 12 -12 
M -12 -12 
L 12 12 
" id="m947326d880" style="stroke:#ff0000;"/>
    </defs>
    <g clip-path="url(#pee544469e3)">
     <use style="fill:#ff0000;stroke:#ff0000;" x="333.168" xlink:href="#m947326d880" y="57.429805"/>
    </g>
   </g>
   <g id="line2d_49">
    <path d="M 333.168 138.13051 
L 363.64328 289.176341 
" style="fill:none;stroke:#000080;stroke-linecap:square;stroke-width:1.5;"/>
    <g>
     <use style="fill-opacity:0;stroke:#000080;stroke-width:1.5;" x="333.168" xlink:href="#m5fe7bcc5f1" y="138.13051"/>
     <use style="fill-opacity:0;stroke:#000080;stroke-width:1.5;" x="363.64328" xlink:href="#m5fe7bcc5f1" y="289.176341"/>
    </g>
   </g>
   <g id="line2d_50">
    <path d="M 333.168 69.565249 
L 363.64328 234.421216 
" style="fill:none;stroke:#ffa500;stroke-linecap:square;stroke-width:1.5;"/>
    <g>
     <use style="fill-opacity:0;stroke:#ffa500;stroke-linejoin:bevel;stroke-width:1.5;" x="333.168" xlink:href="#m1613c00a37" y="69.565249"/>
     <use style="fill-opacity:0;stroke:#ffa500;stroke-linejoin:bevel;stroke-width:1.5;" x="363.64328" xlink:href="#m1613c00a37" y="234.421216"/>
    </g>
   </g>
   <g id="line2d_51">
    <path d="M 333.168 66.531388 
L 363.64328 179.666091 
" style="fill:none;stroke:#6495ed;stroke-linecap:square;stroke-width:1.5;"/>
    <g>
     <use style="fill-opacity:0;stroke:#6495ed;stroke-linejoin:miter;stroke-width:1.5;" x="333.168" xlink:href="#m91c6caf8f8" y="66.531388"/>
     <use style="fill-opacity:0;stroke:#6495ed;stroke-linejoin:miter;stroke-width:1.5;" x="363.64328" xlink:href="#m91c6caf8f8" y="179.666091"/>
    </g>
   </g>
   <g id="line2d_52">
    <path d="M 333.168 63.093012 
L 363.64328 124.910966 
" style="fill:none;stroke:#ff00ff;stroke-linecap:square;stroke-width:1.5;"/>
    <g>
     <use style="fill-opacity:0;stroke:#ff00ff;stroke-linejoin:miter;stroke-width:1.5;" x="333.168" xlink:href="#md81d2caf97" y="63.093012"/>
     <use style="fill-opacity:0;stroke:#ff00ff;stroke-linejoin:miter;stroke-width:1.5;" x="363.64328" xlink:href="#md81d2caf97" y="124.910966"/>
    </g>
   </g>
   <g id="line2d_53">
    <path d="M 333.168 57.429805 
L 363.64328 70.155841 
" style="fill:none;stroke:#ff0000;stroke-linecap:square;stroke-width:1.5;"/>
    <g>
     <use style="fill-opacity:0;stroke:#ff0000;stroke-linejoin:miter;stroke-width:1.5;" x="333.168" xlink:href="#mbae4bb0bd0" y="57.429805"/>
     <use style="fill-opacity:0;stroke:#ff0000;stroke-linejoin:miter;stroke-width:1.5;" x="363.64328" xlink:href="#mbae4bb0bd0" y="70.155841"/>
    </g>
   </g>
   <g id="line2d_54">
    <path d="M 333.168 294.88 
L 333.168 9.697057 
" style="fill:none;stroke:#000000;stroke-linecap:square;stroke-width:1.5;"/>
   </g>
   <g id="patch_3">
    <path d="M 56.12 294.88 
L 56.12 6.845228 
" style="fill:none;stroke:#000000;stroke-linecap:square;stroke-linejoin:miter;stroke-width:0.8;"/>
   </g>
   <g id="patch_4">
    <path d="M 333.168 294.88 
L 333.168 6.845228 
" style="fill:none;stroke:#000000;stroke-linecap:square;stroke-linejoin:miter;stroke-width:0.8;"/>
   </g>
   <g id="patch_5">
    <path d="M 56.12 294.88 
L 333.168 294.88 
" style="fill:none;stroke:#000000;stroke-linecap:square;stroke-linejoin:miter;stroke-width:0.8;"/>
   </g>
   <g id="patch_6">
    <path d="M 56.12 6.845228 
L 333.168 6.845228 
" style="fill:none;stroke:#000000;stroke-linecap:square;stroke-linejoin:miter;stroke-width:0.8;"/>
   </g>
   <g id="text_10">
    <!-- random -->
    <g transform="translate(369.18424 293.867279)scale(0.17 -0.17)">
     <use xlink:href="#DejaVuSans-72"/>
     <use x="41.113281" xlink:href="#DejaVuSans-61"/>
     <use x="102.392578" xlink:href="#DejaVuSans-6e"/>
     <use x="165.771484" xlink:href="#DejaVuSans-64"/>
     <use x="229.248047" xlink:href="#DejaVuSans-6f"/>
     <use x="290.429688" xlink:href="#DejaVuSans-6d"/>
    </g>
   </g>
   <g id="text_11">
    <!-- LinM -->
    <defs>
     <path d="M 9.8125 72.90625 
L 19.671875 72.90625 
L 19.671875 8.296875 
L 55.171875 8.296875 
L 55.171875 0 
L 9.8125 0 
z
" id="DejaVuSans-4c"/>
     <path d="M 9.8125 72.90625 
L 24.515625 72.90625 
L 43.109375 23.296875 
L 61.8125 72.90625 
L 76.515625 72.90625 
L 76.515625 0 
L 66.890625 0 
L 66.890625 64.015625 
L 48.09375 14.015625 
L 38.1875 14.015625 
L 19.390625 64.015625 
L 19.390625 0 
L 9.8125 0 
z
" id="DejaVuSans-4d"/>
    </defs>
    <g transform="translate(369.18424 239.112154)scale(0.17 -0.17)">
     <use xlink:href="#DejaVuSans-4c"/>
     <use x="55.712891" xlink:href="#DejaVuSans-69"/>
     <use x="83.496094" xlink:href="#DejaVuSans-6e"/>
     <use x="146.875" xlink:href="#DejaVuSans-4d"/>
    </g>
   </g>
   <g id="text_12">
    <!-- LinIntM -->
    <defs>
     <path d="M 9.8125 72.90625 
L 19.671875 72.90625 
L 19.671875 0 
L 9.8125 0 
z
" id="DejaVuSans-49"/>
    </defs>
    <g transform="translate(369.18424 184.357029)scale(0.17 -0.17)">
     <use xlink:href="#DejaVuSans-4c"/>
     <use x="55.712891" xlink:href="#DejaVuSans-69"/>
     <use x="83.496094" xlink:href="#DejaVuSans-6e"/>
     <use x="146.875" xlink:href="#DejaVuSans-49"/>
     <use x="176.367188" xlink:href="#DejaVuSans-6e"/>
     <use x="239.746094" xlink:href="#DejaVuSans-74"/>
     <use x="278.955078" xlink:href="#DejaVuSans-4d"/>
    </g>
   </g>
   <g id="text_13">
    <!-- M -->
    <g transform="translate(369.18424 129.601904)scale(0.17 -0.17)">
     <use xlink:href="#DejaVuSans-4d"/>
    </g>
   </g>
   <g id="text_14">
    <!-- QuadM -->
    <defs>
     <path d="M 39.40625 66.21875 
Q 28.65625 66.21875 22.328125 58.203125 
Q 16.015625 50.203125 16.015625 36.375 
Q 16.015625 22.609375 22.328125 14.59375 
Q 28.65625 6.59375 39.40625 6.59375 
Q 50.140625 6.59375 56.421875 14.59375 
Q 62.703125 22.609375 62.703125 36.375 
Q 62.703125 50.203125 56.421875 58.203125 
Q 50.140625 66.21875 39.40625 66.21875 
z
M 53.21875 1.3125 
L 66.21875 -12.890625 
L 54.296875 -12.890625 
L 43.5 -1.21875 
Q 41.890625 -1.3125 41.03125 -1.359375 
Q 40.1875 -1.421875 39.40625 -1.421875 
Q 24.03125 -1.421875 14.8125 8.859375 
Q 5.609375 19.140625 5.609375 36.375 
Q 5.609375 53.65625 14.8125 63.9375 
Q 24.03125 74.21875 39.40625 74.21875 
Q 54.734375 74.21875 63.90625 63.9375 
Q 73.09375 53.65625 73.09375 36.375 
Q 73.09375 23.6875 67.984375 14.640625 
Q 62.890625 5.609375 53.21875 1.3125 
z
" id="DejaVuSans-51"/>
    </defs>
    <g transform="translate(369.18424 74.846779)scale(0.17 -0.17)">
     <use xlink:href="#DejaVuSans-51"/>
     <use x="78.710938" xlink:href="#DejaVuSans-75"/>
     <use x="142.089844" xlink:href="#DejaVuSans-61"/>
     <use x="203.369141" xlink:href="#DejaVuSans-64"/>
     <use x="266.845703" xlink:href="#DejaVuSans-4d"/>
    </g>
   </g>
   <g id="text_15">
    <!-- best09 -->
    <defs>
     <path d="M 48.6875 27.296875 
Q 48.6875 37.203125 44.609375 42.84375 
Q 40.53125 48.484375 33.40625 48.484375 
Q 26.265625 48.484375 22.1875 42.84375 
Q 18.109375 37.203125 18.109375 27.296875 
Q 18.109375 17.390625 22.1875 11.75 
Q 26.265625 6.109375 33.40625 6.109375 
Q 40.53125 6.109375 44.609375 11.75 
Q 48.6875 17.390625 48.6875 27.296875 
z
M 18.109375 46.390625 
Q 20.953125 51.265625 25.265625 53.625 
Q 29.59375 56 35.59375 56 
Q 45.5625 56 51.78125 48.09375 
Q 58.015625 40.1875 58.015625 27.296875 
Q 58.015625 14.40625 51.78125 6.484375 
Q 45.5625 -1.421875 35.59375 -1.421875 
Q 29.59375 -1.421875 25.265625 0.953125 
Q 20.953125 3.328125 18.109375 8.203125 
L 18.109375 0 
L 9.078125 0 
L 9.078125 75.984375 
L 18.109375 75.984375 
z
" id="DejaVuSans-62"/>
     <path d="M 10.984375 1.515625 
L 10.984375 10.5 
Q 14.703125 8.734375 18.5 7.8125 
Q 22.3125 6.890625 25.984375 6.890625 
Q 35.75 6.890625 40.890625 13.453125 
Q 46.046875 20.015625 46.78125 33.40625 
Q 43.953125 29.203125 39.59375 26.953125 
Q 35.25 24.703125 29.984375 24.703125 
Q 19.046875 24.703125 12.671875 31.3125 
Q 6.296875 37.9375 6.296875 49.421875 
Q 6.296875 60.640625 12.9375 67.421875 
Q 19.578125 74.21875 30.609375 74.21875 
Q 43.265625 74.21875 49.921875 64.515625 
Q 56.59375 54.828125 56.59375 36.375 
Q 56.59375 19.140625 48.40625 8.859375 
Q 40.234375 -1.421875 26.421875 -1.421875 
Q 22.703125 -1.421875 18.890625 -0.6875 
Q 15.09375 0.046875 10.984375 1.515625 
z
M 30.609375 32.421875 
Q 37.25 32.421875 41.125 36.953125 
Q 45.015625 41.5 45.015625 49.421875 
Q 45.015625 57.28125 41.125 61.84375 
Q 37.25 66.40625 30.609375 66.40625 
Q 23.96875 66.40625 20.09375 61.84375 
Q 16.21875 57.28125 16.21875 49.421875 
Q 16.21875 41.5 20.09375 36.953125 
Q 23.96875 32.421875 30.609375 32.421875 
z
" id="DejaVuSans-39"/>
    </defs>
    <g transform="translate(369.18424 20.091654)scale(0.17 -0.17)">
     <use xlink:href="#DejaVuSans-62"/>
     <use x="63.476562" xlink:href="#DejaVuSans-65"/>
     <use x="125" xlink:href="#DejaVuSans-73"/>
     <use x="177.099609" xlink:href="#DejaVuSans-74"/>
     <use x="216.308594" xlink:href="#DejaVuSans-30"/>
     <use x="279.931641" xlink:href="#DejaVuSans-39"/>
    </g>
   </g>
   <g id="text_16">
    <!-- bbob f1-f24, 3-D -->
    <defs>
     <path d="M 40.578125 39.3125 
Q 47.65625 37.796875 51.625 33 
Q 55.609375 28.21875 55.609375 21.1875 
Q 55.609375 10.40625 48.1875 4.484375 
Q 40.765625 -1.421875 27.09375 -1.421875 
Q 22.515625 -1.421875 17.65625 -0.515625 
Q 12.796875 0.390625 7.625 2.203125 
L 7.625 11.71875 
Q 11.71875 9.328125 16.59375 8.109375 
Q 21.484375 6.890625 26.8125 6.890625 
Q 36.078125 6.890625 40.9375 10.546875 
Q 45.796875 14.203125 45.796875 21.1875 
Q 45.796875 27.640625 41.28125 31.265625 
Q 36.765625 34.90625 28.71875 34.90625 
L 20.21875 34.90625 
L 20.21875 43.015625 
L 29.109375 43.015625 
Q 36.375 43.015625 40.234375 45.921875 
Q 44.09375 48.828125 44.09375 54.296875 
Q 44.09375 59.90625 40.109375 62.90625 
Q 36.140625 65.921875 28.71875 65.921875 
Q 24.65625 65.921875 20.015625 65.03125 
Q 15.375 64.15625 9.8125 62.3125 
L 9.8125 71.09375 
Q 15.4375 72.65625 20.34375 73.4375 
Q 25.25 74.21875 29.59375 74.21875 
Q 40.828125 74.21875 47.359375 69.109375 
Q 53.90625 64.015625 53.90625 55.328125 
Q 53.90625 49.265625 50.4375 45.09375 
Q 46.96875 40.921875 40.578125 39.3125 
z
" id="DejaVuSans-33"/>
     <path d="M 19.671875 64.796875 
L 19.671875 8.109375 
L 31.59375 8.109375 
Q 46.6875 8.109375 53.6875 14.9375 
Q 60.6875 21.78125 60.6875 36.53125 
Q 60.6875 51.171875 53.6875 57.984375 
Q 46.6875 64.796875 31.59375 64.796875 
z
M 9.8125 72.90625 
L 30.078125 72.90625 
Q 51.265625 72.90625 61.171875 64.09375 
Q 71.09375 55.28125 71.09375 36.53125 
Q 71.09375 17.671875 61.125 8.828125 
Q 51.171875 0 30.078125 0 
L 9.8125 0 
z
" id="DejaVuSans-44"/>
    </defs>
    <g transform="translate(58.89048 17.475982)scale(0.102 -0.102)">
     <use xlink:href="#DejaVuSans-62"/>
     <use x="63.476562" xlink:href="#DejaVuSans-62"/>
     <use x="126.953125" xlink:href="#DejaVuSans-6f"/>
     <use x="188.134766" xlink:href="#DejaVuSans-62"/>
     <use x="251.611328" xlink:href="#DejaVuSans-20"/>
     <use x="283.398438" xlink:href="#DejaVuSans-66"/>
     <use x="318.603516" xlink:href="#DejaVuSans-31"/>
     <use x="382.226562" xlink:href="#DejaVuSans-2d"/>
     <use x="418.310547" xlink:href="#DejaVuSans-66"/>
     <use x="453.515625" xlink:href="#DejaVuSans-32"/>
     <use x="517.138672" xlink:href="#DejaVuSans-34"/>
     <use x="580.761719" xlink:href="#DejaVuSans-2c"/>
     <use x="612.548828" xlink:href="#DejaVuSans-20"/>
     <use x="644.335938" xlink:href="#DejaVuSans-33"/>
     <use x="707.958984" xlink:href="#DejaVuSans-2d"/>
     <use x="744.042969" xlink:href="#DejaVuSans-44"/>
    </g>
    <!-- 8 targets RLs/dim: 0.5..20 -->
    <defs>
     <path d="M 44.390625 34.1875 
Q 47.5625 33.109375 50.5625 29.59375 
Q 53.5625 26.078125 56.59375 19.921875 
L 66.609375 0 
L 56 0 
L 46.6875 18.703125 
Q 43.0625 26.03125 39.671875 28.421875 
Q 36.28125 30.8125 30.421875 30.8125 
L 19.671875 30.8125 
L 19.671875 0 
L 9.8125 0 
L 9.8125 72.90625 
L 32.078125 72.90625 
Q 44.578125 72.90625 50.734375 67.671875 
Q 56.890625 62.453125 56.890625 51.90625 
Q 56.890625 45.015625 53.6875 40.46875 
Q 50.484375 35.9375 44.390625 34.1875 
z
M 19.671875 64.796875 
L 19.671875 38.921875 
L 32.078125 38.921875 
Q 39.203125 38.921875 42.84375 42.21875 
Q 46.484375 45.515625 46.484375 51.90625 
Q 46.484375 58.296875 42.84375 61.546875 
Q 39.203125 64.796875 32.078125 64.796875 
z
" id="DejaVuSans-52"/>
     <path d="M 11.71875 12.40625 
L 22.015625 12.40625 
L 22.015625 0 
L 11.71875 0 
z
M 11.71875 51.703125 
L 22.015625 51.703125 
L 22.015625 39.3125 
L 11.71875 39.3125 
z
" id="DejaVuSans-3a"/>
     <path d="M 10.796875 72.90625 
L 49.515625 72.90625 
L 49.515625 64.59375 
L 19.828125 64.59375 
L 19.828125 46.734375 
Q 21.96875 47.46875 24.109375 47.828125 
Q 26.265625 48.1875 28.421875 48.1875 
Q 40.625 48.1875 47.75 41.5 
Q 54.890625 34.8125 54.890625 23.390625 
Q 54.890625 11.625 47.5625 5.09375 
Q 40.234375 -1.421875 26.90625 -1.421875 
Q 22.3125 -1.421875 17.546875 -0.640625 
Q 12.796875 0.140625 7.71875 1.703125 
L 7.71875 11.625 
Q 12.109375 9.234375 16.796875 8.0625 
Q 21.484375 6.890625 26.703125 6.890625 
Q 35.15625 6.890625 40.078125 11.328125 
Q 45.015625 15.765625 45.015625 23.390625 
Q 45.015625 31 40.078125 35.4375 
Q 35.15625 39.890625 26.703125 39.890625 
Q 22.75 39.890625 18.8125 39.015625 
Q 14.890625 38.140625 10.796875 36.28125 
z
" id="DejaVuSans-35"/>
    </defs>
    <g transform="translate(58.89048 28.89775)scale(0.102 -0.102)">
     <use xlink:href="#DejaVuSans-38"/>
     <use x="63.623047" xlink:href="#DejaVuSans-20"/>
     <use x="95.410156" xlink:href="#DejaVuSans-74"/>
     <use x="134.619141" xlink:href="#DejaVuSans-61"/>
     <use x="195.898438" xlink:href="#DejaVuSans-72"/>
     <use x="236.996094" xlink:href="#DejaVuSans-67"/>
     <use x="300.472656" xlink:href="#DejaVuSans-65"/>
     <use x="361.996094" xlink:href="#DejaVuSans-74"/>
     <use x="401.205078" xlink:href="#DejaVuSans-73"/>
     <use x="453.304688" xlink:href="#DejaVuSans-20"/>
     <use x="485.091797" xlink:href="#DejaVuSans-52"/>
     <use x="554.574219" xlink:href="#DejaVuSans-4c"/>
     <use x="610.287109" xlink:href="#DejaVuSans-73"/>
     <use x="662.386719" xlink:href="#DejaVuSans-2f"/>
     <use x="696.078125" xlink:href="#DejaVuSans-64"/>
     <use x="759.554688" xlink:href="#DejaVuSans-69"/>
     <use x="787.337891" xlink:href="#DejaVuSans-6d"/>
     <use x="884.75" xlink:href="#DejaVuSans-3a"/>
     <use x="918.441406" xlink:href="#DejaVuSans-20"/>
     <use x="950.228516" xlink:href="#DejaVuSans-30"/>
     <use x="1013.851562" xlink:href="#DejaVuSans-2e"/>
     <use x="1045.638672" xlink:href="#DejaVuSans-35"/>
     <use x="1109.261719" xlink:href="#DejaVuSans-2e"/>
     <use x="1141.048828" xlink:href="#DejaVuSans-2e"/>
     <use x="1172.835938" xlink:href="#DejaVuSans-32"/>
     <use x="1236.458984" xlink:href="#DejaVuSans-30"/>
    </g>
    <!--   from refalgs/best2009-bbob.tar.gz -->
    <defs>
     <path d="M 5.515625 54.6875 
L 48.1875 54.6875 
L 48.1875 46.484375 
L 14.40625 7.171875 
L 48.1875 7.171875 
L 48.1875 0 
L 4.296875 0 
L 4.296875 8.203125 
L 38.09375 47.515625 
L 5.515625 47.515625 
z
" id="DejaVuSans-7a"/>
    </defs>
    <g transform="translate(58.89048 40.319519)scale(0.102 -0.102)">
     <use xlink:href="#DejaVuSans-20"/>
     <use x="31.787109" xlink:href="#DejaVuSans-20"/>
     <use x="63.574219" xlink:href="#DejaVuSans-66"/>
     <use x="98.779297" xlink:href="#DejaVuSans-72"/>
     <use x="139.861328" xlink:href="#DejaVuSans-6f"/>
     <use x="201.042969" xlink:href="#DejaVuSans-6d"/>
     <use x="298.455078" xlink:href="#DejaVuSans-20"/>
     <use x="330.242188" xlink:href="#DejaVuSans-72"/>
     <use x="371.324219" xlink:href="#DejaVuSans-65"/>
     <use x="432.847656" xlink:href="#DejaVuSans-66"/>
     <use x="468.052734" xlink:href="#DejaVuSans-61"/>
     <use x="529.332031" xlink:href="#DejaVuSans-6c"/>
     <use x="557.115234" xlink:href="#DejaVuSans-67"/>
     <use x="620.591797" xlink:href="#DejaVuSans-73"/>
     <use x="672.691406" xlink:href="#DejaVuSans-2f"/>
     <use x="706.382812" xlink:href="#DejaVuSans-62"/>
     <use x="769.859375" xlink:href="#DejaVuSans-65"/>
     <use x="831.382812" xlink:href="#DejaVuSans-73"/>
     <use x="883.482422" xlink:href="#DejaVuSans-74"/>
     <use x="922.691406" xlink:href="#DejaVuSans-32"/>
     <use x="986.314453" xlink:href="#DejaVuSans-30"/>
     <use x="1049.9375" xlink:href="#DejaVuSans-30"/>
     <use x="1113.560547" xlink:href="#DejaVuSans-39"/>
     <use x="1177.183594" xlink:href="#DejaVuSans-2d"/>
     <use x="1213.267578" xlink:href="#DejaVuSans-62"/>
     <use x="1276.744141" xlink:href="#DejaVuSans-62"/>
     <use x="1340.220703" xlink:href="#DejaVuSans-6f"/>
     <use x="1401.402344" xlink:href="#DejaVuSans-62"/>
     <use x="1464.878906" xlink:href="#DejaVuSans-2e"/>
     <use x="1496.666016" xlink:href="#DejaVuSans-74"/>
     <use x="1535.875" xlink:href="#DejaVuSans-61"/>
     <use x="1597.154297" xlink:href="#DejaVuSans-72"/>
     <use x="1638.126953" xlink:href="#DejaVuSans-2e"/>
     <use x="1669.914062" xlink:href="#DejaVuSans-67"/>
     <use x="1733.390625" xlink:href="#DejaVuSans-7a"/>
    </g>
    <!-- 15 instances -->
    <g transform="translate(58.89048 51.741288)scale(0.102 -0.102)">
     <use xlink:href="#DejaVuSans-31"/>
     <use x="63.623047" xlink:href="#DejaVuSans-35"/>
     <use x="127.246094" xlink:href="#DejaVuSans-20"/>
     <use x="159.033203" xlink:href="#DejaVuSans-69"/>
     <use x="186.816406" xlink:href="#DejaVuSans-6e"/>
     <use x="250.195312" xlink:href="#DejaVuSans-73"/>
     <use x="302.294922" xlink:href="#DejaVuSans-74"/>
     <use x="341.503906" xlink:href="#DejaVuSans-61"/>
     <use x="402.783203" xlink:href="#DejaVuSans-6e"/>
     <use x="466.162109" xlink:href="#DejaVuSans-63"/>
     <use x="521.142578" xlink:href="#DejaVuSans-65"/>
     <use x="582.666016" xlink:href="#DejaVuSans-73"/>
    </g>
   </g>
   <g id="text_17">
    <!-- v2.3.1 -->
    <g style="fill:#808080;" transform="translate(178.96275 289.919965)scale(0.1 -0.1)">
     <use xlink:href="#DejaVuSans-76"/>
     <use x="59.179688" xlink:href="#DejaVuSans-32"/>
     <use x="122.802734" xlink:href="#DejaVuSans-2e"/>
     <use x="154.589844" xlink:href="#DejaVuSans-33"/>
     <use x="218.212891" xlink:href="#DejaVuSans-2e"/>
     <use x="250" xlink:href="#DejaVuSans-31"/>
    </g>
   </g>
  </g>
 </g>
 <defs>
  <clipPath id="pee544469e3">
   <rect height="288.034772" width="277.048" x="56.12" y="6.845228"/>
  </clipPath>
 </defs>
</svg>
