<?xml version="1.0" encoding="utf-8" standalone="no"?>
<!DOCTYPE svg PUBLIC "-//W3C//DTD SVG 1.1//EN"
  "http://www.w3.org/Graphics/SVG/1.1/DTD/svg11.dtd">
<!-- Created with matplotlib (http://matplotlib.org/) -->
<svg height="345.6pt" version="1.1" viewBox="0 0 460.8 345.6" width="460.8pt" xmlns="http://www.w3.org/2000/svg" xmlns:xlink="http://www.w3.org/1999/xlink">
 <defs>
  <style type="text/css">
*{stroke-linecap:butt;stroke-linejoin:round;}
  </style>
 </defs>
 <g id="figure_1">
  <g id="patch_1">
   <path d="M 0 345.6 
L 460.8 345.6 
L 460.8 0 
L 0 0 
z
" style="fill:#ffffff;"/>
  </g>
  <g id="axes_1">
   <g id="patch_2">
    <path d="M 56.12 294.88 
L 333.168 294.88 
L 333.168 6.845228 
L 56.12 6.845228 
z
" style="fill:#ffffff;"/>
   </g>
   <g id="line2d_1">
    <path d="M 14.510178 294.88 
L 14.510178 274.063727 
L 37.943615 274.063727 
L 37.943615 261.573963 
L 56.12 261.573963 
L 56.12 251.165826 
L 70.971188 251.165826 
L 70.971188 247.002572 
L 83.527689 247.002572 
L 83.527689 240.75769 
L 94.404625 240.75769 
L 94.404625 230.349553 
L 103.998762 230.349553 
L 103.998762 228.267926 
L 112.58101 228.267926 
L 112.58101 219.941416 
L 120.344598 219.941416 
L 120.344598 215.778162 
L 127.432198 215.778162 
L 127.432198 213.696535 
L 133.952159 213.696535 
L 133.952159 211.614907 
L 145.608584 211.614907 
L 145.608584 205.370025 
L 150.865635 205.370025 
L 150.865635 194.961889 
L 155.803875 194.961889 
L 155.803875 190.798634 
L 160.459772 190.798634 
L 160.459772 188.717007 
L 164.863873 188.717007 
L 164.863873 184.553752 
L 169.04202 184.553752 
L 169.04202 178.30887 
L 176.805608 178.30887 
L 176.805608 176.227243 
L 180.426472 176.227243 
L 180.426472 174.145615 
L 183.893209 174.145615 
L 183.893209 172.063988 
L 190.413169 172.063988 
L 190.413169 159.574224 
L 199.308109 159.574224 
L 199.308109 155.41097 
L 204.740523 155.41097 
L 204.740523 153.329342 
L 207.326645 153.329342 
L 207.326645 147.08446 
L 209.833182 147.08446 
L 209.833182 145.002833 
L 214.626095 145.002833 
L 214.626095 142.921206 
L 216.920782 142.921206 
L 216.920782 136.676324 
L 219.152594 136.676324 
L 219.152594 134.594696 
L 227.514393 134.594696 
L 227.514393 130.431442 
L 233.266618 130.431442 
L 233.266618 126.268187 
L 236.887482 126.268187 
L 236.887482 124.18656 
L 240.354219 124.18656 
L 240.354219 120.023305 
L 242.033784 120.023305 
L 242.033784 117.941678 
L 246.874179 117.941678 
L 246.874179 113.778423 
L 248.425769 113.778423 
L 248.425769 111.696796 
L 249.948356 111.696796 
L 249.948356 103.370287 
L 251.443004 103.370287 
L 251.443004 101.288659 
L 254.352457 101.288659 
L 254.352457 99.207032 
L 255.769119 99.207032 
L 255.769119 95.043777 
L 261.201533 95.043777 
L 261.201533 92.96215 
L 265.050565 92.96215 
L 265.050565 90.880523 
L 269.915056 90.880523 
L 269.915056 88.798895 
L 272.242529 88.798895 
L 272.242529 86.717268 
L 274.505342 86.717268 
L 274.505342 82.554013 
L 275.613604 82.554013 
L 275.613604 80.472386 
L 278.850693 80.472386 
L 278.850693 76.309131 
L 279.901753 76.309131 
L 279.901753 74.227504 
L 280.939423 74.227504 
L 280.939423 72.145877 
L 281.964041 72.145877 
L 281.964041 70.064249 
L 282.97593 70.064249 
L 282.97593 67.982622 
L 283.975403 67.982622 
L 283.975403 65.900995 
L 285.938293 65.900995 
L 285.938293 63.819367 
L 288.796693 63.819367 
L 288.796693 61.73774 
L 291.558178 61.73774 
L 291.558178 59.656113 
L 294.229107 59.656113 
L 294.229107 57.574486 
L 295.962279 57.574486 
L 295.962279 55.492858 
L 299.321766 55.492858 
L 299.321766 53.411231 
L 300.950941 53.411231 
L 300.950941 51.329604 
L 302.548169 51.329604 
L 302.548169 47.166349 
L 305.65163 47.166349 
L 305.65163 43.003094 
L 307.160118 43.003094 
L 307.160118 40.921467 
L 307.904014 40.921467 
L 307.904014 38.83984 
L 310.095788 38.83984 
L 310.095788 36.758212 
L 310.813467 36.758212 
L 310.813467 34.676585 
L 313.622574 34.676585 
L 313.622574 32.594958 
L 314.30997 32.594958 
L 314.30997 30.51333 
L 314.991615 30.51333 
L 314.991615 28.431703 
L 318.316812 28.431703 
L 318.316812 26.350076 
L 323.369968 26.350076 
L 323.369968 24.268448 
L 324.585752 24.268448 
L 324.585752 22.186821 
L 333.168 22.186821 
L 333.168 22.186821 
" style="fill:none;stroke:#f5deb3;stroke-linecap:square;stroke-width:4;"/>
   </g>
   <g id="line2d_2">
    <defs>
     <path d="M -0 7.778175 
L 7.778175 0 
L 0 -7.778175 
L -7.778175 -0 
z
" id="ma70795a19d" style="stroke:#f5deb3;stroke-linejoin:miter;stroke-width:1.5;"/>
    </defs>
    <g>
     <use style="fill:#f5deb3;stroke:#f5deb3;stroke-linejoin:miter;stroke-width:1.5;" x="94.404625" xlink:href="#ma70795a19d" y="240.75769"/>
     <use style="fill:#f5deb3;stroke:#f5deb3;stroke-linejoin:miter;stroke-width:1.5;" x="133.952159" xlink:href="#ma70795a19d" y="211.614907"/>
     <use style="fill:#f5deb3;stroke:#f5deb3;stroke-linejoin:miter;stroke-width:1.5;" x="204.740523" xlink:href="#ma70795a19d" y="153.329342"/>
     <use style="fill:#f5deb3;stroke:#f5deb3;stroke-linejoin:miter;stroke-width:1.5;" x="246.874179" xlink:href="#ma70795a19d" y="117.941678"/>
     <use style="fill:#f5deb3;stroke:#f5deb3;stroke-linejoin:miter;stroke-width:1.5;" x="300.950941" xlink:href="#ma70795a19d" y="51.329604"/>
     <use style="fill:#f5deb3;stroke:#f5deb3;stroke-linejoin:miter;stroke-width:1.5;" x="324.585752" xlink:href="#ma70795a19d" y="22.186821"/>
     <use style="fill:#f5deb3;stroke:#f5deb3;stroke-linejoin:miter;stroke-width:1.5;" x="324.585752" xlink:href="#ma70795a19d" y="22.186821"/>
     <use style="fill:#f5deb3;stroke:#f5deb3;stroke-linejoin:miter;stroke-width:1.5;" x="333.168" xlink:href="#ma70795a19d" y="22.186821"/>
    </g>
   </g>
   <g id="line2d_3">
    <path style="fill:none;stroke:#f5deb3;stroke-linecap:square;stroke-width:4;"/>
    <g/>
   </g>
   <g id="line2d_4">
    <path d="M 333.168 22.186821 
L 363.64328 15.400716 
" style="fill:none;stroke:#f5deb3;stroke-linecap:square;stroke-width:4;"/>
    <g>
     <use style="fill:#f5deb3;stroke:#f5deb3;stroke-linejoin:miter;stroke-width:1.5;" x="333.168" xlink:href="#ma70795a19d" y="22.186821"/>
     <use style="fill:#f5deb3;stroke:#f5deb3;stroke-linejoin:miter;stroke-width:1.5;" x="363.64328" xlink:href="#ma70795a19d" y="15.400716"/>
    </g>
   </g>
   <g id="matplotlib.axis_1">
    <g id="xtick_1">
     <g id="line2d_5">
      <path clip-path="url(#p35d02d4a74)" d="M 56.12 294.88 
L 56.12 6.845228 
" style="fill:none;stroke:#b0b0b0;stroke-linecap:square;stroke-width:0.8;"/>
     </g>
     <g id="line2d_6">
      <defs>
       <path d="M 0 0 
L 0 3.5 
" id="m9f1466fbf5" style="stroke:#000000;stroke-width:0.8;"/>
      </defs>
      <g>
       <use style="stroke:#000000;stroke-width:0.8;" x="56.12" xlink:href="#m9f1466fbf5" y="294.88"/>
      </g>
     </g>
     <g id="text_1">
      <!-- 0 -->
      <defs>
       <path d="M 31.78125 66.40625 
Q 24.171875 66.40625 20.328125 58.90625 
Q 16.5 51.421875 16.5 36.375 
Q 16.5 21.390625 20.328125 13.890625 
Q 24.171875 6.390625 31.78125 6.390625 
Q 39.453125 6.390625 43.28125 13.890625 
Q 47.125 21.390625 47.125 36.375 
Q 47.125 51.421875 43.28125 58.90625 
Q 39.453125 66.40625 31.78125 66.40625 
z
M 31.78125 74.21875 
Q 44.046875 74.21875 50.515625 64.515625 
Q 56.984375 54.828125 56.984375 36.375 
Q 56.984375 17.96875 50.515625 8.265625 
Q 44.046875 -1.421875 31.78125 -1.421875 
Q 19.53125 -1.421875 13.0625 8.265625 
Q 6.59375 17.96875 6.59375 36.375 
Q 6.59375 54.828125 13.0625 64.515625 
Q 19.53125 74.21875 31.78125 74.21875 
z
" id="DejaVuSans-30"/>
      </defs>
      <g transform="translate(49.7575 317.076875)scale(0.2 -0.2)">
       <use xlink:href="#DejaVuSans-30"/>
      </g>
     </g>
    </g>
    <g id="xtick_2">
     <g id="line2d_7">
      <path clip-path="url(#p35d02d4a74)" d="M 56.12 294.88 
L 56.12 6.845228 
" style="fill:none;stroke:#b0b0b0;stroke-linecap:square;stroke-width:0.8;"/>
     </g>
     <g id="line2d_8">
      <defs>
       <path d="M 0 0 
L 0 2 
" id="mb967b95252" style="stroke:#000000;stroke-width:0.6;"/>
      </defs>
      <g>
       <use style="stroke:#000000;stroke-width:0.6;" x="56.12" xlink:href="#mb967b95252" y="294.88"/>
      </g>
     </g>
    </g>
    <g id="xtick_3">
     <g id="line2d_9">
      <path clip-path="url(#p35d02d4a74)" d="M 243.679416 294.88 
L 243.679416 6.845228 
" style="fill:none;stroke:#b0b0b0;stroke-linecap:square;stroke-width:0.8;"/>
     </g>
     <g id="line2d_10">
      <g>
       <use style="stroke:#000000;stroke-width:0.6;" x="243.679416" xlink:href="#mb967b95252" y="294.88"/>
      </g>
     </g>
    </g>
    <g id="text_2">
     <!-- log10(# f-evals / dimension) -->
     <defs>
      <path d="M 9.421875 75.984375 
L 18.40625 75.984375 
L 18.40625 0 
L 9.421875 0 
z
" id="DejaVuSans-6c"/>
      <path d="M 30.609375 48.390625 
Q 23.390625 48.390625 19.1875 42.75 
Q 14.984375 37.109375 14.984375 27.296875 
Q 14.984375 17.484375 19.15625 11.84375 
Q 23.34375 6.203125 30.609375 6.203125 
Q 37.796875 6.203125 41.984375 11.859375 
Q 46.1875 17.53125 46.1875 27.296875 
Q 46.1875 37.015625 41.984375 42.703125 
Q 37.796875 48.390625 30.609375 48.390625 
z
M 30.609375 56 
Q 42.328125 56 49.015625 48.375 
Q 55.71875 40.765625 55.71875 27.296875 
Q 55.71875 13.875 49.015625 6.21875 
Q 42.328125 -1.421875 30.609375 -1.421875 
Q 18.84375 -1.421875 12.171875 6.21875 
Q 5.515625 13.875 5.515625 27.296875 
Q 5.515625 40.765625 12.171875 48.375 
Q 18.84375 56 30.609375 56 
z
" id="DejaVuSans-6f"/>
      <path d="M 45.40625 27.984375 
Q 45.40625 37.75 41.375 43.109375 
Q 37.359375 48.484375 30.078125 48.484375 
Q 22.859375 48.484375 18.828125 43.109375 
Q 14.796875 37.75 14.796875 27.984375 
Q 14.796875 18.265625 18.828125 12.890625 
Q 22.859375 7.515625 30.078125 7.515625 
Q 37.359375 7.515625 41.375 12.890625 
Q 45.40625 18.265625 45.40625 27.984375 
z
M 54.390625 6.78125 
Q 54.390625 -7.171875 48.1875 -13.984375 
Q 42 -20.796875 29.203125 -20.796875 
Q 24.46875 -20.796875 20.265625 -20.09375 
Q 16.0625 -19.390625 12.109375 -17.921875 
L 12.109375 -9.1875 
Q 16.0625 -11.328125 19.921875 -12.34375 
Q 23.78125 -13.375 27.78125 -13.375 
Q 36.625 -13.375 41.015625 -8.765625 
Q 45.40625 -4.15625 45.40625 5.171875 
L 45.40625 9.625 
Q 42.625 4.78125 38.28125 2.390625 
Q 33.9375 0 27.875 0 
Q 17.828125 0 11.671875 7.65625 
Q 5.515625 15.328125 5.515625 27.984375 
Q 5.515625 40.671875 11.671875 48.328125 
Q 17.828125 56 27.875 56 
Q 33.9375 56 38.28125 53.609375 
Q 42.625 51.21875 45.40625 46.390625 
L 45.40625 54.6875 
L 54.390625 54.6875 
z
" id="DejaVuSans-67"/>
      <path d="M 12.40625 8.296875 
L 28.515625 8.296875 
L 28.515625 63.921875 
L 10.984375 60.40625 
L 10.984375 69.390625 
L 28.421875 72.90625 
L 38.28125 72.90625 
L 38.28125 8.296875 
L 54.390625 8.296875 
L 54.390625 0 
L 12.40625 0 
z
" id="DejaVuSans-31"/>
      <path d="M 31 75.875 
Q 24.46875 64.65625 21.28125 53.65625 
Q 18.109375 42.671875 18.109375 31.390625 
Q 18.109375 20.125 21.3125 9.0625 
Q 24.515625 -2 31 -13.1875 
L 23.1875 -13.1875 
Q 15.875 -1.703125 12.234375 9.375 
Q 8.59375 20.453125 8.59375 31.390625 
Q 8.59375 42.28125 12.203125 53.3125 
Q 15.828125 64.359375 23.1875 75.875 
z
" id="DejaVuSans-28"/>
      <path d="M 51.125 44 
L 36.921875 44 
L 32.8125 27.6875 
L 47.125 27.6875 
z
M 43.796875 71.78125 
L 38.71875 51.515625 
L 52.984375 51.515625 
L 58.109375 71.78125 
L 65.921875 71.78125 
L 60.890625 51.515625 
L 76.125 51.515625 
L 76.125 44 
L 58.984375 44 
L 54.984375 27.6875 
L 70.515625 27.6875 
L 70.515625 20.21875 
L 53.078125 20.21875 
L 48 0 
L 40.1875 0 
L 45.21875 20.21875 
L 30.90625 20.21875 
L 25.875 0 
L 18.015625 0 
L 23.09375 20.21875 
L 7.71875 20.21875 
L 7.71875 27.6875 
L 24.90625 27.6875 
L 29 44 
L 13.28125 44 
L 13.28125 51.515625 
L 30.90625 51.515625 
L 35.890625 71.78125 
z
" id="DejaVuSans-23"/>
      <path id="DejaVuSans-20"/>
      <path d="M 37.109375 75.984375 
L 37.109375 68.5 
L 28.515625 68.5 
Q 23.6875 68.5 21.796875 66.546875 
Q 19.921875 64.59375 19.921875 59.515625 
L 19.921875 54.6875 
L 34.71875 54.6875 
L 34.71875 47.703125 
L 19.921875 47.703125 
L 19.921875 0 
L 10.890625 0 
L 10.890625 47.703125 
L 2.296875 47.703125 
L 2.296875 54.6875 
L 10.890625 54.6875 
L 10.890625 58.5 
Q 10.890625 67.625 15.140625 71.796875 
Q 19.390625 75.984375 28.609375 75.984375 
z
" id="DejaVuSans-66"/>
      <path d="M 4.890625 31.390625 
L 31.203125 31.390625 
L 31.203125 23.390625 
L 4.890625 23.390625 
z
" id="DejaVuSans-2d"/>
      <path d="M 56.203125 29.59375 
L 56.203125 25.203125 
L 14.890625 25.203125 
Q 15.484375 15.921875 20.484375 11.0625 
Q 25.484375 6.203125 34.421875 6.203125 
Q 39.59375 6.203125 44.453125 7.46875 
Q 49.3125 8.734375 54.109375 11.28125 
L 54.109375 2.78125 
Q 49.265625 0.734375 44.1875 -0.34375 
Q 39.109375 -1.421875 33.890625 -1.421875 
Q 20.796875 -1.421875 13.15625 6.1875 
Q 5.515625 13.8125 5.515625 26.8125 
Q 5.515625 40.234375 12.765625 48.109375 
Q 20.015625 56 32.328125 56 
Q 43.359375 56 49.78125 48.890625 
Q 56.203125 41.796875 56.203125 29.59375 
z
M 47.21875 32.234375 
Q 47.125 39.59375 43.09375 43.984375 
Q 39.0625 48.390625 32.421875 48.390625 
Q 24.90625 48.390625 20.390625 44.140625 
Q 15.875 39.890625 15.1875 32.171875 
z
" id="DejaVuSans-65"/>
      <path d="M 2.984375 54.6875 
L 12.5 54.6875 
L 29.59375 8.796875 
L 46.6875 54.6875 
L 56.203125 54.6875 
L 35.6875 0 
L 23.484375 0 
z
" id="DejaVuSans-76"/>
      <path d="M 34.28125 27.484375 
Q 23.390625 27.484375 19.1875 25 
Q 14.984375 22.515625 14.984375 16.5 
Q 14.984375 11.71875 18.140625 8.90625 
Q 21.296875 6.109375 26.703125 6.109375 
Q 34.1875 6.109375 38.703125 11.40625 
Q 43.21875 16.703125 43.21875 25.484375 
L 43.21875 27.484375 
z
M 52.203125 31.203125 
L 52.203125 0 
L 43.21875 0 
L 43.21875 8.296875 
Q 40.140625 3.328125 35.546875 0.953125 
Q 30.953125 -1.421875 24.3125 -1.421875 
Q 15.921875 -1.421875 10.953125 3.296875 
Q 6 8.015625 6 15.921875 
Q 6 25.140625 12.171875 29.828125 
Q 18.359375 34.515625 30.609375 34.515625 
L 43.21875 34.515625 
L 43.21875 35.40625 
Q 43.21875 41.609375 39.140625 45 
Q 35.0625 48.390625 27.6875 48.390625 
Q 23 48.390625 18.546875 47.265625 
Q 14.109375 46.140625 10.015625 43.890625 
L 10.015625 52.203125 
Q 14.9375 54.109375 19.578125 55.046875 
Q 24.21875 56 28.609375 56 
Q 40.484375 56 46.34375 49.84375 
Q 52.203125 43.703125 52.203125 31.203125 
z
" id="DejaVuSans-61"/>
      <path d="M 44.28125 53.078125 
L 44.28125 44.578125 
Q 40.484375 46.53125 36.375 47.5 
Q 32.28125 48.484375 27.875 48.484375 
Q 21.1875 48.484375 17.84375 46.4375 
Q 14.5 44.390625 14.5 40.28125 
Q 14.5 37.15625 16.890625 35.375 
Q 19.28125 33.59375 26.515625 31.984375 
L 29.59375 31.296875 
Q 39.15625 29.25 43.1875 25.515625 
Q 47.21875 21.78125 47.21875 15.09375 
Q 47.21875 7.46875 41.1875 3.015625 
Q 35.15625 -1.421875 24.609375 -1.421875 
Q 20.21875 -1.421875 15.453125 -0.5625 
Q 10.6875 0.296875 5.421875 2 
L 5.421875 11.28125 
Q 10.40625 8.6875 15.234375 7.390625 
Q 20.0625 6.109375 24.8125 6.109375 
Q 31.15625 6.109375 34.5625 8.28125 
Q 37.984375 10.453125 37.984375 14.40625 
Q 37.984375 18.0625 35.515625 20.015625 
Q 33.0625 21.96875 24.703125 23.78125 
L 21.578125 24.515625 
Q 13.234375 26.265625 9.515625 29.90625 
Q 5.8125 33.546875 5.8125 39.890625 
Q 5.8125 47.609375 11.28125 51.796875 
Q 16.75 56 26.8125 56 
Q 31.78125 56 36.171875 55.265625 
Q 40.578125 54.546875 44.28125 53.078125 
z
" id="DejaVuSans-73"/>
      <path d="M 25.390625 72.90625 
L 33.6875 72.90625 
L 8.296875 -9.28125 
L 0 -9.28125 
z
" id="DejaVuSans-2f"/>
      <path d="M 45.40625 46.390625 
L 45.40625 75.984375 
L 54.390625 75.984375 
L 54.390625 0 
L 45.40625 0 
L 45.40625 8.203125 
Q 42.578125 3.328125 38.25 0.953125 
Q 33.9375 -1.421875 27.875 -1.421875 
Q 17.96875 -1.421875 11.734375 6.484375 
Q 5.515625 14.40625 5.515625 27.296875 
Q 5.515625 40.1875 11.734375 48.09375 
Q 17.96875 56 27.875 56 
Q 33.9375 56 38.25 53.625 
Q 42.578125 51.265625 45.40625 46.390625 
z
M 14.796875 27.296875 
Q 14.796875 17.390625 18.875 11.75 
Q 22.953125 6.109375 30.078125 6.109375 
Q 37.203125 6.109375 41.296875 11.75 
Q 45.40625 17.390625 45.40625 27.296875 
Q 45.40625 37.203125 41.296875 42.84375 
Q 37.203125 48.484375 30.078125 48.484375 
Q 22.953125 48.484375 18.875 42.84375 
Q 14.796875 37.203125 14.796875 27.296875 
z
" id="DejaVuSans-64"/>
      <path d="M 9.421875 54.6875 
L 18.40625 54.6875 
L 18.40625 0 
L 9.421875 0 
z
M 9.421875 75.984375 
L 18.40625 75.984375 
L 18.40625 64.59375 
L 9.421875 64.59375 
z
" id="DejaVuSans-69"/>
      <path d="M 52 44.1875 
Q 55.375 50.25 60.0625 53.125 
Q 64.75 56 71.09375 56 
Q 79.640625 56 84.28125 50.015625 
Q 88.921875 44.046875 88.921875 33.015625 
L 88.921875 0 
L 79.890625 0 
L 79.890625 32.71875 
Q 79.890625 40.578125 77.09375 44.375 
Q 74.3125 48.1875 68.609375 48.1875 
Q 61.625 48.1875 57.5625 43.546875 
Q 53.515625 38.921875 53.515625 30.90625 
L 53.515625 0 
L 44.484375 0 
L 44.484375 32.71875 
Q 44.484375 40.625 41.703125 44.40625 
Q 38.921875 48.1875 33.109375 48.1875 
Q 26.21875 48.1875 22.15625 43.53125 
Q 18.109375 38.875 18.109375 30.90625 
L 18.109375 0 
L 9.078125 0 
L 9.078125 54.6875 
L 18.109375 54.6875 
L 18.109375 46.1875 
Q 21.1875 51.21875 25.484375 53.609375 
Q 29.78125 56 35.6875 56 
Q 41.65625 56 45.828125 52.96875 
Q 50 49.953125 52 44.1875 
z
" id="DejaVuSans-6d"/>
      <path d="M 54.890625 33.015625 
L 54.890625 0 
L 45.90625 0 
L 45.90625 32.71875 
Q 45.90625 40.484375 42.875 44.328125 
Q 39.84375 48.1875 33.796875 48.1875 
Q 26.515625 48.1875 22.3125 43.546875 
Q 18.109375 38.921875 18.109375 30.90625 
L 18.109375 0 
L 9.078125 0 
L 9.078125 54.6875 
L 18.109375 54.6875 
L 18.109375 46.1875 
Q 21.34375 51.125 25.703125 53.5625 
Q 30.078125 56 35.796875 56 
Q 45.21875 56 50.046875 50.171875 
Q 54.890625 44.34375 54.890625 33.015625 
z
" id="DejaVuSans-6e"/>
      <path d="M 8.015625 75.875 
L 15.828125 75.875 
Q 23.140625 64.359375 26.78125 53.3125 
Q 30.421875 42.28125 30.421875 31.390625 
Q 30.421875 20.453125 26.78125 9.375 
Q 23.140625 -1.703125 15.828125 -13.1875 
L 8.015625 -13.1875 
Q 14.5 -2 17.703125 9.0625 
Q 20.90625 20.125 20.90625 31.390625 
Q 20.90625 42.671875 17.703125 53.65625 
Q 14.5 64.65625 8.015625 75.875 
z
" id="DejaVuSans-29"/>
     </defs>
     <g transform="translate(73.803219 338.153594)scale(0.17 -0.17)">
      <use xlink:href="#DejaVuSans-6c"/>
      <use x="27.783203" xlink:href="#DejaVuSans-6f"/>
      <use x="88.964844" xlink:href="#DejaVuSans-67"/>
      <use x="152.441406" xlink:href="#DejaVuSans-31"/>
      <use x="216.064453" xlink:href="#DejaVuSans-30"/>
      <use x="279.6875" xlink:href="#DejaVuSans-28"/>
      <use x="318.701172" xlink:href="#DejaVuSans-23"/>
      <use x="402.490234" xlink:href="#DejaVuSans-20"/>
      <use x="434.277344" xlink:href="#DejaVuSans-66"/>
      <use x="469.404297" xlink:href="#DejaVuSans-2d"/>
      <use x="505.488281" xlink:href="#DejaVuSans-65"/>
      <use x="567.011719" xlink:href="#DejaVuSans-76"/>
      <use x="626.191406" xlink:href="#DejaVuSans-61"/>
      <use x="687.470703" xlink:href="#DejaVuSans-6c"/>
      <use x="715.253906" xlink:href="#DejaVuSans-73"/>
      <use x="767.353516" xlink:href="#DejaVuSans-20"/>
      <use x="799.140625" xlink:href="#DejaVuSans-2f"/>
      <use x="832.832031" xlink:href="#DejaVuSans-20"/>
      <use x="864.619141" xlink:href="#DejaVuSans-64"/>
      <use x="928.095703" xlink:href="#DejaVuSans-69"/>
      <use x="955.878906" xlink:href="#DejaVuSans-6d"/>
      <use x="1053.291016" xlink:href="#DejaVuSans-65"/>
      <use x="1114.814453" xlink:href="#DejaVuSans-6e"/>
      <use x="1178.193359" xlink:href="#DejaVuSans-73"/>
      <use x="1230.292969" xlink:href="#DejaVuSans-69"/>
      <use x="1258.076172" xlink:href="#DejaVuSans-6f"/>
      <use x="1319.257812" xlink:href="#DejaVuSans-6e"/>
      <use x="1382.636719" xlink:href="#DejaVuSans-29"/>
     </g>
    </g>
   </g>
   <g id="matplotlib.axis_2">
    <g id="ytick_1">
     <g id="line2d_11">
      <path clip-path="url(#p35d02d4a74)" d="M 56.12 294.88 
L 333.168 294.88 
" style="fill:none;stroke:#b0b0b0;stroke-linecap:square;stroke-width:0.8;"/>
     </g>
     <g id="line2d_12">
      <defs>
       <path d="M 0 0 
L -3.5 0 
" id="m6b252b5806" style="stroke:#000000;stroke-width:0.8;"/>
      </defs>
      <g>
       <use style="stroke:#000000;stroke-width:0.8;" x="56.12" xlink:href="#m6b252b5806" y="294.88"/>
      </g>
     </g>
     <g id="text_3">
      <!-- 0.0 -->
      <defs>
       <path d="M 10.6875 12.40625 
L 21 12.40625 
L 21 0 
L 10.6875 0 
z
" id="DejaVuSans-2e"/>
      </defs>
      <g transform="translate(23.675 300.95875)scale(0.16 -0.16)">
       <use xlink:href="#DejaVuSans-30"/>
       <use x="63.623047" xlink:href="#DejaVuSans-2e"/>
       <use x="95.410156" xlink:href="#DejaVuSans-30"/>
      </g>
     </g>
    </g>
    <g id="ytick_2">
     <g id="line2d_13">
      <path clip-path="url(#p35d02d4a74)" d="M 56.12 237.843411 
L 333.168 237.843411 
" style="fill:none;stroke:#b0b0b0;stroke-linecap:square;stroke-width:0.8;"/>
     </g>
     <g id="line2d_14">
      <g>
       <use style="stroke:#000000;stroke-width:0.8;" x="56.12" xlink:href="#m6b252b5806" y="237.843411"/>
      </g>
     </g>
     <g id="text_4">
      <!-- 0.2 -->
      <defs>
       <path d="M 19.1875 8.296875 
L 53.609375 8.296875 
L 53.609375 0 
L 7.328125 0 
L 7.328125 8.296875 
Q 12.9375 14.109375 22.625 23.890625 
Q 32.328125 33.6875 34.8125 36.53125 
Q 39.546875 41.84375 41.421875 45.53125 
Q 43.3125 49.21875 43.3125 52.78125 
Q 43.3125 58.59375 39.234375 62.25 
Q 35.15625 65.921875 28.609375 65.921875 
Q 23.96875 65.921875 18.8125 64.3125 
Q 13.671875 62.703125 7.8125 59.421875 
L 7.8125 69.390625 
Q 13.765625 71.78125 18.9375 73 
Q 24.125 74.21875 28.421875 74.21875 
Q 39.75 74.21875 46.484375 68.546875 
Q 53.21875 62.890625 53.21875 53.421875 
Q 53.21875 48.921875 51.53125 44.890625 
Q 49.859375 40.875 45.40625 35.40625 
Q 44.1875 33.984375 37.640625 27.21875 
Q 31.109375 20.453125 19.1875 8.296875 
z
" id="DejaVuSans-32"/>
      </defs>
      <g transform="translate(23.675 243.922161)scale(0.16 -0.16)">
       <use xlink:href="#DejaVuSans-30"/>
       <use x="63.623047" xlink:href="#DejaVuSans-2e"/>
       <use x="95.410156" xlink:href="#DejaVuSans-32"/>
      </g>
     </g>
    </g>
    <g id="ytick_3">
     <g id="line2d_15">
      <path clip-path="url(#p35d02d4a74)" d="M 56.12 180.806823 
L 333.168 180.806823 
" style="fill:none;stroke:#b0b0b0;stroke-linecap:square;stroke-width:0.8;"/>
     </g>
     <g id="line2d_16">
      <g>
       <use style="stroke:#000000;stroke-width:0.8;" x="56.12" xlink:href="#m6b252b5806" y="180.806823"/>
      </g>
     </g>
     <g id="text_5">
      <!-- 0.4 -->
      <defs>
       <path d="M 37.796875 64.3125 
L 12.890625 25.390625 
L 37.796875 25.390625 
z
M 35.203125 72.90625 
L 47.609375 72.90625 
L 47.609375 25.390625 
L 58.015625 25.390625 
L 58.015625 17.1875 
L 47.609375 17.1875 
L 47.609375 0 
L 37.796875 0 
L 37.796875 17.1875 
L 4.890625 17.1875 
L 4.890625 26.703125 
z
" id="DejaVuSans-34"/>
      </defs>
      <g transform="translate(23.675 186.885573)scale(0.16 -0.16)">
       <use xlink:href="#DejaVuSans-30"/>
       <use x="63.623047" xlink:href="#DejaVuSans-2e"/>
       <use x="95.410156" xlink:href="#DejaVuSans-34"/>
      </g>
     </g>
    </g>
    <g id="ytick_4">
     <g id="line2d_17">
      <path clip-path="url(#p35d02d4a74)" d="M 56.12 123.770234 
L 333.168 123.770234 
" style="fill:none;stroke:#b0b0b0;stroke-linecap:square;stroke-width:0.8;"/>
     </g>
     <g id="line2d_18">
      <g>
       <use style="stroke:#000000;stroke-width:0.8;" x="56.12" xlink:href="#m6b252b5806" y="123.770234"/>
      </g>
     </g>
     <g id="text_6">
      <!-- 0.6 -->
      <defs>
       <path d="M 33.015625 40.375 
Q 26.375 40.375 22.484375 35.828125 
Q 18.609375 31.296875 18.609375 23.390625 
Q 18.609375 15.53125 22.484375 10.953125 
Q 26.375 6.390625 33.015625 6.390625 
Q 39.65625 6.390625 43.53125 10.953125 
Q 47.40625 15.53125 47.40625 23.390625 
Q 47.40625 31.296875 43.53125 35.828125 
Q 39.65625 40.375 33.015625 40.375 
z
M 52.59375 71.296875 
L 52.59375 62.3125 
Q 48.875 64.0625 45.09375 64.984375 
Q 41.3125 65.921875 37.59375 65.921875 
Q 27.828125 65.921875 22.671875 59.328125 
Q 17.53125 52.734375 16.796875 39.40625 
Q 19.671875 43.65625 24.015625 45.921875 
Q 28.375 48.1875 33.59375 48.1875 
Q 44.578125 48.1875 50.953125 41.515625 
Q 57.328125 34.859375 57.328125 23.390625 
Q 57.328125 12.15625 50.6875 5.359375 
Q 44.046875 -1.421875 33.015625 -1.421875 
Q 20.359375 -1.421875 13.671875 8.265625 
Q 6.984375 17.96875 6.984375 36.375 
Q 6.984375 53.65625 15.1875 63.9375 
Q 23.390625 74.21875 37.203125 74.21875 
Q 40.921875 74.21875 44.703125 73.484375 
Q 48.484375 72.75 52.59375 71.296875 
z
" id="DejaVuSans-36"/>
      </defs>
      <g transform="translate(23.675 129.848984)scale(0.16 -0.16)">
       <use xlink:href="#DejaVuSans-30"/>
       <use x="63.623047" xlink:href="#DejaVuSans-2e"/>
       <use x="95.410156" xlink:href="#DejaVuSans-36"/>
      </g>
     </g>
    </g>
    <g id="ytick_5">
     <g id="line2d_19">
      <path clip-path="url(#p35d02d4a74)" d="M 56.12 66.733646 
L 333.168 66.733646 
" style="fill:none;stroke:#b0b0b0;stroke-linecap:square;stroke-width:0.8;"/>
     </g>
     <g id="line2d_20">
      <g>
       <use style="stroke:#000000;stroke-width:0.8;" x="56.12" xlink:href="#m6b252b5806" y="66.733646"/>
      </g>
     </g>
     <g id="text_7">
      <!-- 0.8 -->
      <defs>
       <path d="M 31.78125 34.625 
Q 24.75 34.625 20.71875 30.859375 
Q 16.703125 27.09375 16.703125 20.515625 
Q 16.703125 13.921875 20.71875 10.15625 
Q 24.75 6.390625 31.78125 6.390625 
Q 38.8125 6.390625 42.859375 10.171875 
Q 46.921875 13.96875 46.921875 20.515625 
Q 46.921875 27.09375 42.890625 30.859375 
Q 38.875 34.625 31.78125 34.625 
z
M 21.921875 38.8125 
Q 15.578125 40.375 12.03125 44.71875 
Q 8.5 49.078125 8.5 55.328125 
Q 8.5 64.0625 14.71875 69.140625 
Q 20.953125 74.21875 31.78125 74.21875 
Q 42.671875 74.21875 48.875 69.140625 
Q 55.078125 64.0625 55.078125 55.328125 
Q 55.078125 49.078125 51.53125 44.71875 
Q 48 40.375 41.703125 38.8125 
Q 48.828125 37.15625 52.796875 32.3125 
Q 56.78125 27.484375 56.78125 20.515625 
Q 56.78125 9.90625 50.3125 4.234375 
Q 43.84375 -1.421875 31.78125 -1.421875 
Q 19.734375 -1.421875 13.25 4.234375 
Q 6.78125 9.90625 6.78125 20.515625 
Q 6.78125 27.484375 10.78125 32.3125 
Q 14.796875 37.15625 21.921875 38.8125 
z
M 18.3125 54.390625 
Q 18.3125 48.734375 21.84375 45.5625 
Q 25.390625 42.390625 31.78125 42.390625 
Q 38.140625 42.390625 41.71875 45.5625 
Q 45.3125 48.734375 45.3125 54.390625 
Q 45.3125 60.0625 41.71875 63.234375 
Q 38.140625 66.40625 31.78125 66.40625 
Q 25.390625 66.40625 21.84375 63.234375 
Q 18.3125 60.0625 18.3125 54.390625 
z
" id="DejaVuSans-38"/>
      </defs>
      <g transform="translate(23.675 72.812396)scale(0.16 -0.16)">
       <use xlink:href="#DejaVuSans-30"/>
       <use x="63.623047" xlink:href="#DejaVuSans-2e"/>
       <use x="95.410156" xlink:href="#DejaVuSans-38"/>
      </g>
     </g>
    </g>
    <g id="ytick_6">
     <g id="line2d_21">
      <path clip-path="url(#p35d02d4a74)" d="M 56.12 9.697057 
L 333.168 9.697057 
" style="fill:none;stroke:#b0b0b0;stroke-linecap:square;stroke-width:0.8;"/>
     </g>
     <g id="line2d_22">
      <g>
       <use style="stroke:#000000;stroke-width:0.8;" x="56.12" xlink:href="#m6b252b5806" y="9.697057"/>
      </g>
     </g>
     <g id="text_8">
      <!-- 1.0 -->
      <g transform="translate(23.675 15.775807)scale(0.16 -0.16)">
       <use xlink:href="#DejaVuSans-31"/>
       <use x="63.623047" xlink:href="#DejaVuSans-2e"/>
       <use x="95.410156" xlink:href="#DejaVuSans-30"/>
      </g>
     </g>
    </g>
    <g id="text_9">
     <!-- Fraction of function,target pairs -->
     <defs>
      <path d="M 9.8125 72.90625 
L 51.703125 72.90625 
L 51.703125 64.59375 
L 19.671875 64.59375 
L 19.671875 43.109375 
L 48.578125 43.109375 
L 48.578125 34.8125 
L 19.671875 34.8125 
L 19.671875 0 
L 9.8125 0 
z
" id="DejaVuSans-46"/>
      <path d="M 41.109375 46.296875 
Q 39.59375 47.171875 37.8125 47.578125 
Q 36.03125 48 33.890625 48 
Q 26.265625 48 22.1875 43.046875 
Q 18.109375 38.09375 18.109375 28.8125 
L 18.109375 0 
L 9.078125 0 
L 9.078125 54.6875 
L 18.109375 54.6875 
L 18.109375 46.1875 
Q 20.953125 51.171875 25.484375 53.578125 
Q 30.03125 56 36.53125 56 
Q 37.453125 56 38.578125 55.875 
Q 39.703125 55.765625 41.0625 55.515625 
z
" id="DejaVuSans-72"/>
      <path d="M 48.78125 52.59375 
L 48.78125 44.1875 
Q 44.96875 46.296875 41.140625 47.34375 
Q 37.3125 48.390625 33.40625 48.390625 
Q 24.65625 48.390625 19.8125 42.84375 
Q 14.984375 37.3125 14.984375 27.296875 
Q 14.984375 17.28125 19.8125 11.734375 
Q 24.65625 6.203125 33.40625 6.203125 
Q 37.3125 6.203125 41.140625 7.25 
Q 44.96875 8.296875 48.78125 10.40625 
L 48.78125 2.09375 
Q 45.015625 0.34375 40.984375 -0.53125 
Q 36.96875 -1.421875 32.421875 -1.421875 
Q 20.0625 -1.421875 12.78125 6.34375 
Q 5.515625 14.109375 5.515625 27.296875 
Q 5.515625 40.671875 12.859375 48.328125 
Q 20.21875 56 33.015625 56 
Q 37.15625 56 41.109375 55.140625 
Q 45.0625 54.296875 48.78125 52.59375 
z
" id="DejaVuSans-63"/>
      <path d="M 18.3125 70.21875 
L 18.3125 54.6875 
L 36.8125 54.6875 
L 36.8125 47.703125 
L 18.3125 47.703125 
L 18.3125 18.015625 
Q 18.3125 11.328125 20.140625 9.421875 
Q 21.96875 7.515625 27.59375 7.515625 
L 36.8125 7.515625 
L 36.8125 0 
L 27.59375 0 
Q 17.1875 0 13.234375 3.875 
Q 9.28125 7.765625 9.28125 18.015625 
L 9.28125 47.703125 
L 2.6875 47.703125 
L 2.6875 54.6875 
L 9.28125 54.6875 
L 9.28125 70.21875 
z
" id="DejaVuSans-74"/>
      <path d="M 8.5 21.578125 
L 8.5 54.6875 
L 17.484375 54.6875 
L 17.484375 21.921875 
Q 17.484375 14.15625 20.5 10.265625 
Q 23.53125 6.390625 29.59375 6.390625 
Q 36.859375 6.390625 41.078125 11.03125 
Q 45.3125 15.671875 45.3125 23.6875 
L 45.3125 54.6875 
L 54.296875 54.6875 
L 54.296875 0 
L 45.3125 0 
L 45.3125 8.40625 
Q 42.046875 3.421875 37.71875 1 
Q 33.40625 -1.421875 27.6875 -1.421875 
Q 18.265625 -1.421875 13.375 4.4375 
Q 8.5 10.296875 8.5 21.578125 
z
M 31.109375 56 
z
" id="DejaVuSans-75"/>
      <path d="M 11.71875 12.40625 
L 22.015625 12.40625 
L 22.015625 4 
L 14.015625 -11.625 
L 7.71875 -11.625 
L 11.71875 4 
z
" id="DejaVuSans-2c"/>
      <path d="M 18.109375 8.203125 
L 18.109375 -20.796875 
L 9.078125 -20.796875 
L 9.078125 54.6875 
L 18.109375 54.6875 
L 18.109375 46.390625 
Q 20.953125 51.265625 25.265625 53.625 
Q 29.59375 56 35.59375 56 
Q 45.5625 56 51.78125 48.09375 
Q 58.015625 40.1875 58.015625 27.296875 
Q 58.015625 14.40625 51.78125 6.484375 
Q 45.5625 -1.421875 35.59375 -1.421875 
Q 29.59375 -1.421875 25.265625 0.953125 
Q 20.953125 3.328125 18.109375 8.203125 
z
M 48.6875 27.296875 
Q 48.6875 37.203125 44.609375 42.84375 
Q 40.53125 48.484375 33.40625 48.484375 
Q 26.265625 48.484375 22.1875 42.84375 
Q 18.109375 37.203125 18.109375 27.296875 
Q 18.109375 17.390625 22.1875 11.75 
Q 26.265625 6.109375 33.40625 6.109375 
Q 40.53125 6.109375 44.609375 11.75 
Q 48.6875 17.390625 48.6875 27.296875 
z
" id="DejaVuSans-70"/>
     </defs>
     <g transform="translate(16.139531 286.001989)rotate(-90)scale(0.17 -0.17)">
      <use xlink:href="#DejaVuSans-46"/>
      <use x="57.410156" xlink:href="#DejaVuSans-72"/>
      <use x="98.523438" xlink:href="#DejaVuSans-61"/>
      <use x="159.802734" xlink:href="#DejaVuSans-63"/>
      <use x="214.783203" xlink:href="#DejaVuSans-74"/>
      <use x="253.992188" xlink:href="#DejaVuSans-69"/>
      <use x="281.775391" xlink:href="#DejaVuSans-6f"/>
      <use x="342.957031" xlink:href="#DejaVuSans-6e"/>
      <use x="406.335938" xlink:href="#DejaVuSans-20"/>
      <use x="438.123047" xlink:href="#DejaVuSans-6f"/>
      <use x="499.304688" xlink:href="#DejaVuSans-66"/>
      <use x="534.509766" xlink:href="#DejaVuSans-20"/>
      <use x="566.296875" xlink:href="#DejaVuSans-66"/>
      <use x="601.501953" xlink:href="#DejaVuSans-75"/>
      <use x="664.880859" xlink:href="#DejaVuSans-6e"/>
      <use x="728.259766" xlink:href="#DejaVuSans-63"/>
      <use x="783.240234" xlink:href="#DejaVuSans-74"/>
      <use x="822.449219" xlink:href="#DejaVuSans-69"/>
      <use x="850.232422" xlink:href="#DejaVuSans-6f"/>
      <use x="911.414062" xlink:href="#DejaVuSans-6e"/>
      <use x="974.792969" xlink:href="#DejaVuSans-2c"/>
      <use x="1006.580078" xlink:href="#DejaVuSans-74"/>
      <use x="1045.789062" xlink:href="#DejaVuSans-61"/>
      <use x="1107.068359" xlink:href="#DejaVuSans-72"/>
      <use x="1148.166016" xlink:href="#DejaVuSans-67"/>
      <use x="1211.642578" xlink:href="#DejaVuSans-65"/>
      <use x="1273.166016" xlink:href="#DejaVuSans-74"/>
      <use x="1312.375" xlink:href="#DejaVuSans-20"/>
      <use x="1344.162109" xlink:href="#DejaVuSans-70"/>
      <use x="1407.638672" xlink:href="#DejaVuSans-61"/>
      <use x="1468.917969" xlink:href="#DejaVuSans-69"/>
      <use x="1496.701172" xlink:href="#DejaVuSans-72"/>
      <use x="1537.814453" xlink:href="#DejaVuSans-73"/>
     </g>
    </g>
   </g>
   <g id="line2d_23">
    <defs>
     <path d="M 0 1.5 
C 0.397805 1.5 0.77937 1.341951 1.06066 1.06066 
C 1.341951 0.77937 1.5 0.397805 1.5 0 
C 1.5 -0.397805 1.341951 -0.77937 1.06066 -1.06066 
C 0.77937 -1.341951 0.397805 -1.5 0 -1.5 
C -0.397805 -1.5 -0.77937 -1.341951 -1.06066 -1.06066 
C -1.341951 -0.77937 -1.5 -0.397805 -1.5 0 
C -1.5 0.397805 -1.341951 0.77937 -1.06066 1.06066 
C -0.77937 1.341951 -0.397805 1.5 0 1.5 
z
" id="md81fa30841" style="stroke:#f5deb3;"/>
    </defs>
    <g>
     <use style="fill:#f5deb3;stroke:#f5deb3;" x="372.799036" xlink:href="#md81fa30841" y="13.860312"/>
     <use style="fill:#f5deb3;stroke:#f5deb3;" x="372.799036" xlink:href="#md81fa30841" y="13.860312"/>
    </g>
   </g>
   <g id="line2d_24">
    <defs>
     <path d="M 0 1.5 
C 0.397805 1.5 0.77937 1.341951 1.06066 1.06066 
C 1.341951 0.77937 1.5 0.397805 1.5 0 
C 1.5 -0.397805 1.341951 -0.77937 1.06066 -1.06066 
C 0.77937 -1.341951 0.397805 -1.5 0 -1.5 
C -0.397805 -1.5 -0.77937 -1.341951 -1.06066 -1.06066 
C -1.341951 -0.77937 -1.5 -0.397805 -1.5 0 
C -1.5 0.397805 -1.341951 0.77937 -1.06066 1.06066 
C -0.77937 1.341951 -0.397805 1.5 0 1.5 
z
" id="mbe170dd647" style="stroke:#000080;"/>
    </defs>
    <g>
     <use style="fill:#000080;stroke:#000080;" x="399.343734" xlink:href="#mbe170dd647" y="155.619132"/>
     <use style="fill:#000080;stroke:#000080;" x="399.343734" xlink:href="#mbe170dd647" y="155.619132"/>
    </g>
   </g>
   <g id="line2d_25">
    <path d="M -1 277.810656 
L 14.510178 277.810656 
L 14.510178 273.647401 
L 37.943615 273.647401 
L 37.943615 265.737218 
L 56.12 265.737218 
L 56.12 257.827034 
L 70.971188 257.827034 
L 70.971188 254.704593 
L 83.527689 254.704593 
L 83.527689 250.541338 
L 94.404625 250.541338 
L 94.404625 246.378083 
L 103.998762 246.378083 
L 103.998762 243.880131 
L 112.58101 243.880131 
L 112.58101 242.422992 
L 120.344598 242.422992 
L 120.344598 239.508713 
L 127.432198 239.508713 
L 127.432198 237.010761 
L 133.952159 237.010761 
L 133.952159 235.761784 
L 139.988699 235.761784 
L 139.988699 234.304645 
L 145.608584 234.304645 
L 145.608584 230.349553 
L 150.865635 230.349553 
L 150.865635 228.684251 
L 155.803875 228.684251 
L 155.803875 227.8516 
L 160.459772 227.8516 
L 160.459772 226.602624 
L 164.863873 226.602624 
L 164.863873 223.688346 
L 169.04202 223.688346 
L 169.04202 221.398556 
L 173.016273 221.398556 
L 173.016273 220.774067 
L 176.805608 220.774067 
L 176.805608 219.108766 
L 180.426472 219.108766 
L 180.426472 218.484277 
L 183.893209 218.484277 
L 183.893209 217.651626 
L 187.218406 217.651626 
L 187.218406 216.818975 
L 190.413169 216.818975 
L 190.413169 216.194487 
L 193.487346 216.194487 
L 193.487346 214.945511 
L 196.449709 214.945511 
L 196.449709 213.072046 
L 199.308109 213.072046 
L 199.308109 212.863884 
L 202.069594 212.863884 
L 202.069594 211.614907 
L 204.740523 211.614907 
L 204.740523 210.365931 
L 209.833182 210.365931 
L 209.833182 208.492466 
L 212.264886 208.492466 
L 212.264886 207.451653 
L 214.626095 207.451653 
L 214.626095 206.410839 
L 216.920782 206.410839 
L 216.920782 205.994513 
L 219.152594 205.994513 
L 219.152594 204.9537 
L 221.324883 204.9537 
L 221.324883 204.329212 
L 223.440743 204.329212 
L 223.440743 204.121049 
L 225.503031 204.121049 
L 225.503031 203.496561 
L 227.514393 203.496561 
L 227.514393 203.080235 
L 229.477283 203.080235 
L 229.477283 202.039422 
L 233.266618 202.039422 
L 233.266618 201.831259 
L 235.097168 201.831259 
L 235.097168 201.414933 
L 236.887482 201.414933 
L 236.887482 201.206771 
L 238.639292 201.206771 
L 238.639292 200.790445 
L 240.354219 200.790445 
L 240.354219 200.582282 
L 242.033784 200.582282 
L 242.033784 200.165957 
L 243.679416 200.165957 
L 243.679416 199.541469 
L 245.292459 199.541469 
L 245.292459 199.333306 
L 246.874179 199.333306 
L 246.874179 199.125143 
L 248.425769 199.125143 
L 248.425769 197.668004 
L 249.948356 197.668004 
L 249.948356 196.419028 
L 251.443004 196.419028 
L 251.443004 195.79454 
L 252.91072 195.79454 
L 252.91072 195.170051 
L 255.769119 195.170051 
L 255.769119 194.753726 
L 259.877015 194.753726 
L 259.877015 194.545563 
L 261.201533 194.545563 
L 261.201533 194.129238 
L 262.504857 194.129238 
L 262.504857 193.296587 
L 265.050565 193.296587 
L 265.050565 193.088424 
L 268.725896 193.088424 
L 268.725896 191.839448 
L 272.242529 191.839448 
L 272.242529 191.631285 
L 273.381793 191.631285 
L 273.381793 191.214959 
L 274.505342 191.214959 
L 274.505342 190.590471 
L 275.613604 190.590471 
L 275.613604 190.382309 
L 276.70699 190.382309 
L 276.70699 189.75782 
L 277.785893 189.75782 
L 277.785893 189.341495 
L 278.850693 189.341495 
L 278.850693 188.925169 
L 279.901753 188.925169 
L 279.901753 187.884356 
L 280.939423 187.884356 
L 280.939423 187.259868 
L 281.964041 187.259868 
L 281.964041 186.635379 
L 283.975403 186.635379 
L 283.975403 186.427217 
L 287.854994 186.427217 
L 287.854994 186.010891 
L 288.796693 186.010891 
L 288.796693 185.386403 
L 289.727629 185.386403 
L 289.727629 185.17824 
L 290.648045 185.17824 
L 290.648045 184.553752 
L 291.558178 184.553752 
L 291.558178 184.137427 
L 292.458254 184.137427 
L 292.458254 183.512938 
L 294.229107 183.512938 
L 294.229107 182.263962 
L 295.100302 182.263962 
L 295.100302 182.055799 
L 300.140426 182.055799 
L 300.140426 181.847637 
L 300.950941 181.847637 
L 300.950941 181.431311 
L 304.114679 181.431311 
L 304.114679 181.223148 
L 305.65163 181.223148 
L 305.65163 180.806823 
L 306.409366 180.806823 
L 306.409366 180.59866 
L 307.160118 180.59866 
L 307.160118 180.390497 
L 307.904014 180.390497 
L 307.904014 180.182335 
L 308.641178 180.182335 
L 308.641178 179.974172 
L 312.929327 179.974172 
L 312.929327 179.766009 
L 315.667602 179.766009 
L 315.667602 179.349684 
L 317.002976 179.349684 
L 317.002976 179.141521 
L 318.316812 179.141521 
L 318.316812 178.517033 
L 319.609792 178.517033 
L 319.609792 177.268056 
L 320.248666 177.268056 
L 320.248666 177.059894 
L 323.980128 177.059894 
L 323.980128 176.851731 
L 324.585752 176.851731 
L 324.585752 176.643568 
L 325.186906 176.643568 
L 325.186906 176.227243 
L 326.964199 176.227243 
L 326.964199 176.01908 
L 327.548115 176.01908 
L 327.548115 175.810917 
L 329.275163 175.810917 
L 329.275163 175.602755 
L 329.842803 175.602755 
L 329.842803 175.186429 
L 330.406515 175.186429 
L 330.406515 174.978266 
L 331.522368 174.978266 
L 331.522368 174.561941 
L 333.168 174.561941 
L 333.168 174.561941 
" style="fill:none;stroke:#000080;stroke-linecap:square;stroke-width:1.5;"/>
   </g>
   <g id="line2d_26">
    <defs>
     <path d="M 0 6 
C 1.591219 6 3.117479 5.367802 4.242641 4.242641 
C 5.367802 3.117479 6 1.591219 6 0 
C 6 -1.591219 5.367802 -3.117479 4.242641 -4.242641 
C 3.117479 -5.367802 1.591219 -6 0 -6 
C -1.591219 -6 -3.117479 -5.367802 -4.242641 -4.242641 
C -5.367802 -3.117479 -6 -1.591219 -6 0 
C -6 1.591219 -5.367802 3.117479 -4.242641 4.242641 
C -3.117479 5.367802 -1.591219 6 0 6 
z
" id="maa78e30a31" style="stroke:#000080;stroke-width:1.5;"/>
    </defs>
    <g>
     <use style="fill-opacity:0;stroke:#000080;stroke-width:1.5;" x="70.971188" xlink:href="#maa78e30a31" y="254.704593"/>
     <use style="fill-opacity:0;stroke:#000080;stroke-width:1.5;" x="139.988699" xlink:href="#maa78e30a31" y="234.304645"/>
     <use style="fill-opacity:0;stroke:#000080;stroke-width:1.5;" x="196.449709" xlink:href="#maa78e30a31" y="214.945511"/>
     <use style="fill-opacity:0;stroke:#000080;stroke-width:1.5;" x="249.948356" xlink:href="#maa78e30a31" y="197.668004"/>
     <use style="fill-opacity:0;stroke:#000080;stroke-width:1.5;" x="300.950941" xlink:href="#maa78e30a31" y="181.431311"/>
     <use style="fill-opacity:0;stroke:#000080;stroke-width:1.5;" x="331.522368" xlink:href="#maa78e30a31" y="174.561941"/>
     <use style="fill-opacity:0;stroke:#000080;stroke-width:1.5;" x="333.168" xlink:href="#maa78e30a31" y="174.561941"/>
    </g>
   </g>
   <g id="line2d_27">
    <path style="fill:none;stroke:#000080;stroke-linecap:square;stroke-width:1.5;"/>
    <g/>
   </g>
   <g id="line2d_28">
    <path clip-path="url(#p35d02d4a74)" d="M 333.168 174.561941 
" style="fill:none;stroke:#000080;stroke-linecap:square;stroke-width:1.5;"/>
    <defs>
     <path d="M -12 12 
L 12 -12 
M -12 -12 
L 12 12 
" id="m50630f0970" style="stroke:#000080;"/>
    </defs>
    <g clip-path="url(#p35d02d4a74)">
     <use style="fill:#000080;stroke:#000080;" x="333.168" xlink:href="#m50630f0970" y="174.561941"/>
    </g>
   </g>
   <g id="line2d_29">
    <defs>
     <path d="M 0 1.5 
C 0.397805 1.5 0.77937 1.341951 1.06066 1.06066 
C 1.341951 0.77937 1.5 0.397805 1.5 0 
C 1.5 -0.397805 1.341951 -0.77937 1.06066 -1.06066 
C 0.77937 -1.341951 0.397805 -1.5 0 -1.5 
C -0.397805 -1.5 -0.77937 -1.341951 -1.06066 -1.06066 
C -1.341951 -0.77937 -1.5 -0.397805 -1.5 0 
C -1.5 0.397805 -1.341951 0.77937 -1.06066 1.06066 
C -0.77937 1.341951 -0.397805 1.5 0 1.5 
z
" id="m3d57b16956" style="stroke:#ff00ff;"/>
    </defs>
    <g>
     <use style="fill:#ff00ff;stroke:#ff00ff;" x="389.62901" xlink:href="#m3d57b16956" y="64.443856"/>
     <use style="fill:#ff00ff;stroke:#ff00ff;" x="389.62901" xlink:href="#m3d57b16956" y="64.443856"/>
    </g>
   </g>
   <g id="line2d_30">
    <path d="M -1 281.765748 
L 14.510178 281.765748 
L 14.510178 272.81475 
L 37.943615 272.81475 
L 37.943615 268.443333 
L 56.12 268.443333 
L 56.12 262.198451 
L 70.971188 262.198451 
L 70.971188 256.994383 
L 83.527689 256.994383 
L 83.527689 250.125013 
L 94.404625 250.125013 
L 94.404625 246.794409 
L 103.998762 246.794409 
L 103.998762 243.04748 
L 112.58101 243.04748 
L 112.58101 241.590341 
L 120.344598 241.590341 
L 120.344598 239.508713 
L 127.432198 239.508713 
L 127.432198 237.843411 
L 133.952159 237.843411 
L 133.952159 236.594435 
L 139.988699 236.594435 
L 139.988699 233.88832 
L 145.608584 233.88832 
L 145.608584 231.598529 
L 150.865635 231.598529 
L 150.865635 227.8516 
L 155.803875 227.8516 
L 155.803875 227.018949 
L 160.459772 227.018949 
L 160.459772 226.394461 
L 164.863873 226.394461 
L 164.863873 224.937322 
L 169.04202 224.937322 
L 169.04202 221.606718 
L 173.016273 221.606718 
L 173.016273 218.276115 
L 176.805608 218.276115 
L 176.805608 217.027138 
L 180.426472 217.027138 
L 180.426472 216.194487 
L 183.893209 216.194487 
L 183.893209 214.945511 
L 187.218406 214.945511 
L 187.218406 214.529185 
L 190.413169 214.529185 
L 190.413169 212.863884 
L 193.487346 212.863884 
L 193.487346 211.82307 
L 196.449709 211.82307 
L 196.449709 210.574094 
L 199.308109 210.574094 
L 199.308109 210.365931 
L 202.069594 210.365931 
L 202.069594 208.492466 
L 204.740523 208.492466 
L 204.740523 206.827164 
L 207.326645 206.827164 
L 207.326645 205.370025 
L 209.833182 205.370025 
L 209.833182 204.537374 
L 212.264886 204.537374 
L 212.264886 203.080235 
L 214.626095 203.080235 
L 214.626095 202.66391 
L 216.920782 202.66391 
L 216.920782 201.831259 
L 219.152594 201.831259 
L 219.152594 201.623096 
L 221.324883 201.623096 
L 221.324883 200.998608 
L 223.440743 200.998608 
L 223.440743 184.970078 
L 225.503031 184.970078 
L 225.503031 179.766009 
L 227.514393 179.766009 
L 227.514393 174.770104 
L 229.477283 174.770104 
L 229.477283 171.231337 
L 231.393984 171.231337 
L 231.393984 167.484408 
L 233.266618 167.484408 
L 233.266618 162.904828 
L 235.097168 162.904828 
L 235.097168 161.239526 
L 236.887482 161.239526 
L 236.887482 158.533411 
L 238.639292 158.533411 
L 238.639292 156.035458 
L 240.354219 156.035458 
L 240.354219 154.786481 
L 242.033784 154.786481 
L 242.033784 152.496691 
L 243.679416 152.496691 
L 243.679416 149.37425 
L 245.292459 149.37425 
L 245.292459 146.668135 
L 246.874179 146.668135 
L 246.874179 145.419158 
L 248.425769 145.419158 
L 248.425769 144.378345 
L 249.948356 144.378345 
L 249.948356 141.255904 
L 251.443004 141.255904 
L 251.443004 140.839578 
L 252.91072 140.839578 
L 252.91072 139.798765 
L 254.352457 139.798765 
L 254.352457 139.382439 
L 255.769119 139.382439 
L 255.769119 138.757951 
L 257.161563 138.757951 
L 257.161563 138.341626 
L 258.530604 138.341626 
L 258.530604 136.468161 
L 259.877015 136.468161 
L 259.877015 134.178371 
L 261.201533 134.178371 
L 261.201533 133.34572 
L 262.504857 133.34572 
L 262.504857 132.513069 
L 263.787655 132.513069 
L 263.787655 131.05593 
L 265.050565 131.05593 
L 265.050565 130.015116 
L 266.294192 130.015116 
L 266.294192 128.76614 
L 267.519118 128.76614 
L 267.519118 126.47635 
L 268.725896 126.47635 
L 268.725896 125.227373 
L 269.915056 125.227373 
L 269.915056 124.811048 
L 271.087105 124.811048 
L 271.087105 123.353909 
L 272.242529 123.353909 
L 272.242529 122.729421 
L 273.381793 122.729421 
L 273.381793 122.104932 
L 274.505342 122.104932 
L 274.505342 120.439631 
L 275.613604 120.439631 
L 275.613604 119.190654 
L 276.70699 119.190654 
L 276.70699 118.774329 
L 277.785893 118.774329 
L 277.785893 118.566166 
L 278.850693 118.566166 
L 278.850693 117.31719 
L 279.901753 117.31719 
L 279.901753 116.484539 
L 280.939423 116.484539 
L 280.939423 115.86005 
L 281.964041 115.86005 
L 281.964041 115.443725 
L 282.97593 115.443725 
L 282.97593 115.235562 
L 283.975403 115.235562 
L 283.975403 115.0274 
L 284.962761 115.0274 
L 284.962761 113.778423 
L 285.938293 113.778423 
L 285.938293 112.529447 
L 286.902281 112.529447 
L 286.902281 112.321284 
L 287.854994 112.321284 
L 287.854994 112.113121 
L 288.796693 112.113121 
L 288.796693 111.28047 
L 289.727629 111.28047 
L 289.727629 110.864145 
L 290.648045 110.864145 
L 290.648045 109.407006 
L 291.558178 109.407006 
L 291.558178 108.99068 
L 292.458254 108.99068 
L 292.458254 107.117216 
L 293.348492 107.117216 
L 293.348492 106.909053 
L 294.229107 106.909053 
L 294.229107 106.076402 
L 295.100302 106.076402 
L 295.100302 105.660077 
L 295.962279 105.660077 
L 295.962279 104.827426 
L 296.815229 104.827426 
L 296.815229 103.994775 
L 297.65934 103.994775 
L 297.65934 102.745798 
L 298.494794 102.745798 
L 298.494794 100.664171 
L 300.140426 100.664171 
L 300.140426 99.207032 
L 300.950941 99.207032 
L 300.950941 98.374381 
L 301.753469 98.374381 
L 301.753469 97.958056 
L 302.548169 97.958056 
L 302.548169 96.709079 
L 303.335189 96.709079 
L 303.335189 96.292754 
L 304.114679 96.292754 
L 304.114679 95.25194 
L 304.88678 95.25194 
L 304.88678 95.043777 
L 306.409366 95.043777 
L 306.409366 93.586638 
L 307.904014 93.586638 
L 307.904014 92.337662 
L 308.641178 92.337662 
L 308.641178 92.129499 
L 309.37173 92.129499 
L 309.37173 91.505011 
L 310.095788 91.505011 
L 310.095788 91.296848 
L 310.813467 91.296848 
L 310.813467 90.67236 
L 312.929327 90.67236 
L 312.929327 90.256034 
L 313.622574 90.256034 
L 313.622574 90.047872 
L 314.30997 90.047872 
L 314.30997 89.423384 
L 314.991615 89.423384 
L 314.991615 88.590733 
L 316.338026 88.590733 
L 316.338026 87.549919 
L 317.002976 87.549919 
L 317.002976 87.133593 
L 317.662543 87.133593 
L 317.662543 86.300943 
L 318.965867 86.300943 
L 318.965867 85.676454 
L 319.609792 85.676454 
L 319.609792 85.260129 
L 320.882568 85.260129 
L 320.882568 84.843803 
L 321.511575 84.843803 
L 321.511575 84.427478 
L 322.135762 84.427478 
L 322.135762 83.594827 
L 323.369968 83.594827 
L 323.369968 83.386664 
L 323.980128 83.386664 
L 323.980128 82.970339 
L 324.585752 82.970339 
L 324.585752 81.929525 
L 325.783656 81.929525 
L 325.783656 81.5132 
L 326.376066 81.5132 
L 326.376066 81.305037 
L 327.548115 81.305037 
L 327.548115 80.472386 
L 329.275163 80.472386 
L 329.275163 80.264223 
L 329.842803 80.264223 
L 329.842803 79.847898 
L 330.406515 79.847898 
L 330.406515 79.639735 
L 330.966352 79.639735 
L 330.966352 79.015247 
L 331.522368 79.015247 
L 331.522368 78.390759 
L 332.074614 78.390759 
L 332.074614 78.182596 
L 332.623142 78.182596 
L 332.623142 77.558108 
L 333.168 77.558108 
L 333.168 77.141782 
L 333.168 77.141782 
" style="fill:none;stroke:#ff00ff;stroke-linecap:square;stroke-width:1.5;"/>
   </g>
   <g id="line2d_31">
    <defs>
     <path d="M -0 8.485281 
L 5.091169 0 
L 0 -8.485281 
L -5.091169 -0 
z
" id="m904c93e377" style="stroke:#ff00ff;stroke-linejoin:miter;stroke-width:1.5;"/>
    </defs>
    <g>
     <use style="fill-opacity:0;stroke:#ff00ff;stroke-linejoin:miter;stroke-width:1.5;" x="127.432198" xlink:href="#m904c93e377" y="237.843411"/>
     <use style="fill-opacity:0;stroke:#ff00ff;stroke-linejoin:miter;stroke-width:1.5;" x="176.805608" xlink:href="#m904c93e377" y="217.027138"/>
     <use style="fill-opacity:0;stroke:#ff00ff;stroke-linejoin:miter;stroke-width:1.5;" x="229.477283" xlink:href="#m904c93e377" y="171.231337"/>
     <use style="fill-opacity:0;stroke:#ff00ff;stroke-linejoin:miter;stroke-width:1.5;" x="281.964041" xlink:href="#m904c93e377" y="115.86005"/>
     <use style="fill-opacity:0;stroke:#ff00ff;stroke-linejoin:miter;stroke-width:1.5;" x="333.168" xlink:href="#m904c93e377" y="77.558108"/>
     <use style="fill-opacity:0;stroke:#ff00ff;stroke-linejoin:miter;stroke-width:1.5;" x="333.168" xlink:href="#m904c93e377" y="77.558108"/>
     <use style="fill-opacity:0;stroke:#ff00ff;stroke-linejoin:miter;stroke-width:1.5;" x="333.168" xlink:href="#m904c93e377" y="77.141782"/>
    </g>
   </g>
   <g id="line2d_32">
    <path style="fill:none;stroke:#ff00ff;stroke-linecap:square;stroke-width:1.5;"/>
    <g/>
   </g>
   <g id="line2d_33">
    <path clip-path="url(#p35d02d4a74)" d="M 333.168 77.141782 
" style="fill:none;stroke:#ff00ff;stroke-linecap:square;stroke-width:1.5;"/>
    <defs>
     <path d="M -12 12 
L 12 -12 
M -12 -12 
L 12 12 
" id="m5c2b78a2bc" style="stroke:#ff00ff;"/>
    </defs>
    <g clip-path="url(#p35d02d4a74)">
     <use style="fill:#ff00ff;stroke:#ff00ff;" x="333.168" xlink:href="#m5c2b78a2bc" y="77.141782"/>
    </g>
   </g>
   <g id="line2d_34">
    <defs>
     <path d="M 0 1.5 
C 0.397805 1.5 0.77937 1.341951 1.06066 1.06066 
C 1.341951 0.77937 1.5 0.397805 1.5 0 
C 1.5 -0.397805 1.341951 -0.77937 1.06066 -1.06066 
C 0.77937 -1.341951 0.397805 -1.5 0 -1.5 
C -0.397805 -1.5 -0.77937 -1.341951 -1.06066 -1.06066 
C -1.341951 -0.77937 -1.5 -0.397805 -1.5 0 
C -1.5 0.397805 -1.341951 0.77937 -1.06066 1.06066 
C -0.77937 1.341951 -0.397805 1.5 0 1.5 
z
" id="m05cd97965b" style="stroke:#ffa500;"/>
    </defs>
    <g>
     <use style="fill:#ffa500;stroke:#ffa500;" x="389.62901" xlink:href="#m05cd97965b" y="68.398948"/>
     <use style="fill:#ffa500;stroke:#ffa500;" x="389.62901" xlink:href="#m05cd97965b" y="68.398948"/>
    </g>
   </g>
   <g id="line2d_35">
    <path d="M -1 276.353517 
L 14.510178 276.353517 
L 14.510178 268.23517 
L 37.943615 268.23517 
L 37.943615 261.782126 
L 56.12 261.782126 
L 56.12 251.582152 
L 70.971188 251.582152 
L 70.971188 249.500524 
L 83.527689 249.500524 
L 83.527689 244.296456 
L 94.404625 244.296456 
L 94.404625 241.174015 
L 103.998762 241.174015 
L 103.998762 237.635249 
L 112.58101 237.635249 
L 112.58101 234.096482 
L 120.344598 234.096482 
L 120.344598 232.014855 
L 127.432198 232.014855 
L 127.432198 230.14139 
L 133.952159 230.14139 
L 133.952159 228.059763 
L 139.988699 228.059763 
L 139.988699 225.353648 
L 145.608584 225.353648 
L 145.608584 223.688346 
L 150.865635 223.688346 
L 150.865635 222.855695 
L 155.803875 222.855695 
L 155.803875 220.149579 
L 160.459772 220.149579 
L 160.459772 218.69244 
L 164.863873 218.69244 
L 164.863873 217.235301 
L 169.04202 217.235301 
L 169.04202 216.194487 
L 173.016273 216.194487 
L 173.016273 214.321023 
L 176.805608 214.321023 
L 176.805608 212.031233 
L 180.426472 212.031233 
L 180.426472 210.365931 
L 183.893209 210.365931 
L 183.893209 209.53328 
L 187.218406 209.53328 
L 187.218406 208.908792 
L 190.413169 208.908792 
L 190.413169 207.867978 
L 193.487346 207.867978 
L 193.487346 206.619002 
L 196.449709 206.619002 
L 196.449709 205.994513 
L 199.308109 205.994513 
L 199.308109 204.537374 
L 202.069594 204.537374 
L 202.069594 203.496561 
L 204.740523 203.496561 
L 204.740523 200.790445 
L 207.326645 200.790445 
L 207.326645 199.749631 
L 209.833182 199.749631 
L 209.833182 198.500655 
L 212.264886 198.500655 
L 212.264886 197.876167 
L 214.626095 197.876167 
L 214.626095 197.251679 
L 216.920782 197.251679 
L 216.920782 197.043516 
L 219.152594 197.043516 
L 219.152594 196.419028 
L 221.324883 196.419028 
L 221.324883 195.170051 
L 223.440743 195.170051 
L 223.440743 190.174146 
L 225.503031 190.174146 
L 225.503031 183.721101 
L 227.514393 183.721101 
L 227.514393 177.892545 
L 229.477283 177.892545 
L 229.477283 174.978266 
L 231.393984 174.978266 
L 231.393984 172.896639 
L 233.266618 172.896639 
L 233.266618 170.398686 
L 235.097168 170.398686 
L 235.097168 167.068083 
L 236.887482 167.068083 
L 236.887482 163.737479 
L 238.639292 163.737479 
L 238.639292 162.28034 
L 240.354219 162.28034 
L 240.354219 159.99055 
L 242.033784 159.99055 
L 242.033784 156.451783 
L 243.679416 156.451783 
L 243.679416 153.537505 
L 245.292459 153.537505 
L 245.292459 151.247715 
L 246.874179 151.247715 
L 246.874179 150.206901 
L 248.425769 150.206901 
L 248.425769 148.333437 
L 249.948356 148.333437 
L 249.948356 147.08446 
L 251.443004 147.08446 
L 251.443004 145.002833 
L 252.91072 145.002833 
L 252.91072 142.713043 
L 254.352457 142.713043 
L 254.352457 141.047741 
L 255.769119 141.047741 
L 255.769119 139.590602 
L 257.161563 139.590602 
L 257.161563 137.300812 
L 258.530604 137.300812 
L 258.530604 135.843673 
L 259.877015 135.843673 
L 259.877015 134.386534 
L 261.201533 134.386534 
L 261.201533 132.304906 
L 262.504857 132.304906 
L 262.504857 130.847767 
L 263.787655 130.847767 
L 263.787655 129.598791 
L 265.050565 129.598791 
L 265.050565 128.76614 
L 266.294192 128.76614 
L 266.294192 127.725326 
L 267.519118 127.725326 
L 267.519118 126.060024 
L 268.725896 126.060024 
L 268.725896 125.019211 
L 269.915056 125.019211 
L 269.915056 123.978397 
L 271.087105 123.978397 
L 271.087105 122.313095 
L 272.242529 122.313095 
L 272.242529 121.064119 
L 273.381793 121.064119 
L 273.381793 119.398817 
L 274.505342 119.398817 
L 274.505342 118.982491 
L 275.613604 118.982491 
L 275.613604 118.149841 
L 276.70699 118.149841 
L 276.70699 117.109027 
L 277.785893 117.109027 
L 277.785893 116.900864 
L 278.850693 116.900864 
L 278.850693 116.068213 
L 279.901753 116.068213 
L 279.901753 114.611074 
L 280.939423 114.611074 
L 280.939423 113.778423 
L 281.964041 113.778423 
L 281.964041 112.945772 
L 282.97593 112.945772 
L 282.97593 112.737609 
L 283.975403 112.737609 
L 283.975403 112.113121 
L 284.962761 112.113121 
L 284.962761 111.904959 
L 285.938293 111.904959 
L 285.938293 111.28047 
L 286.902281 111.28047 
L 286.902281 110.655982 
L 287.854994 110.655982 
L 287.854994 109.407006 
L 289.727629 109.407006 
L 289.727629 108.366192 
L 290.648045 108.366192 
L 290.648045 107.949867 
L 291.558178 107.949867 
L 291.558178 106.076402 
L 292.458254 106.076402 
L 292.458254 105.660077 
L 293.348492 105.660077 
L 293.348492 105.035588 
L 294.229107 105.035588 
L 294.229107 104.827426 
L 295.100302 104.827426 
L 295.100302 103.994775 
L 295.962279 103.994775 
L 295.962279 102.745798 
L 296.815229 102.745798 
L 296.815229 102.537636 
L 297.65934 102.537636 
L 297.65934 101.288659 
L 298.494794 101.288659 
L 298.494794 100.247846 
L 299.321766 100.247846 
L 299.321766 100.039683 
L 300.140426 100.039683 
L 300.140426 99.207032 
L 300.950941 99.207032 
L 300.950941 97.958056 
L 301.753469 97.958056 
L 301.753469 97.749893 
L 303.335189 97.749893 
L 303.335189 97.54173 
L 304.114679 97.54173 
L 304.114679 96.917242 
L 304.88678 96.917242 
L 304.88678 95.876428 
L 305.65163 95.876428 
L 305.65163 95.460103 
L 306.409366 95.460103 
L 306.409366 94.835615 
L 307.160118 94.835615 
L 307.160118 94.211126 
L 308.641178 94.211126 
L 308.641178 93.170313 
L 309.37173 93.170313 
L 309.37173 92.96215 
L 310.095788 92.96215 
L 310.095788 92.129499 
L 310.813467 92.129499 
L 310.813467 91.713174 
L 312.230129 91.713174 
L 312.230129 91.505011 
L 312.929327 91.505011 
L 312.929327 90.256034 
L 313.622574 90.256034 
L 313.622574 89.423384 
L 314.30997 89.423384 
L 314.30997 89.007058 
L 314.991615 89.007058 
L 314.991615 88.798895 
L 315.667602 88.798895 
L 315.667602 88.590733 
L 316.338026 88.590733 
L 316.338026 88.38257 
L 318.316812 88.38257 
L 318.316812 87.549919 
L 319.609792 87.549919 
L 319.609792 87.341756 
L 320.248666 87.341756 
L 320.248666 86.925431 
L 320.882568 86.925431 
L 320.882568 86.09278 
L 321.511575 86.09278 
L 321.511575 85.884617 
L 322.135762 85.884617 
L 322.135762 85.468292 
L 323.369968 85.468292 
L 323.369968 84.635641 
L 325.186906 84.635641 
L 325.186906 84.011152 
L 326.376066 84.011152 
L 326.376066 83.80299 
L 326.964199 83.80299 
L 326.964199 83.386664 
L 327.548115 83.386664 
L 327.548115 82.345851 
L 328.127876 82.345851 
L 328.127876 82.137688 
L 328.703539 82.137688 
L 328.703539 81.929525 
L 329.275163 81.929525 
L 329.275163 81.5132 
L 332.074614 81.5132 
L 332.074614 80.680549 
L 333.168 80.680549 
L 333.168 79.847898 
L 333.168 79.847898 
" style="fill:none;stroke:#ffa500;stroke-linecap:square;stroke-width:1.5;"/>
   </g>
   <g id="line2d_36">
    <defs>
     <path d="M 0 -6 
L -1.347084 -1.854102 
L -5.706339 -1.854102 
L -2.179628 0.708204 
L -3.526712 4.854102 
L -0 2.291796 
L 3.526712 4.854102 
L 2.179628 0.708204 
L 5.706339 -1.854102 
L 1.347084 -1.854102 
z
" id="m9cc55f59ff" style="stroke:#ffa500;stroke-linejoin:bevel;stroke-width:1.5;"/>
    </defs>
    <g>
     <use style="fill-opacity:0;stroke:#ffa500;stroke-linejoin:bevel;stroke-width:1.5;" x="120.344598" xlink:href="#m9cc55f59ff" y="232.014855"/>
     <use style="fill-opacity:0;stroke:#ffa500;stroke-linejoin:bevel;stroke-width:1.5;" x="176.805608" xlink:href="#m9cc55f59ff" y="212.031233"/>
     <use style="fill-opacity:0;stroke:#ffa500;stroke-linejoin:bevel;stroke-width:1.5;" x="231.393984" xlink:href="#m9cc55f59ff" y="172.896639"/>
     <use style="fill-opacity:0;stroke:#ffa500;stroke-linejoin:bevel;stroke-width:1.5;" x="271.087105" xlink:href="#m9cc55f59ff" y="122.313095"/>
     <use style="fill-opacity:0;stroke:#ffa500;stroke-linejoin:bevel;stroke-width:1.5;" x="333.168" xlink:href="#m9cc55f59ff" y="80.680549"/>
     <use style="fill-opacity:0;stroke:#ffa500;stroke-linejoin:bevel;stroke-width:1.5;" x="333.168" xlink:href="#m9cc55f59ff" y="80.680549"/>
     <use style="fill-opacity:0;stroke:#ffa500;stroke-linejoin:bevel;stroke-width:1.5;" x="333.168" xlink:href="#m9cc55f59ff" y="79.847898"/>
    </g>
   </g>
   <g id="line2d_37">
    <path style="fill:none;stroke:#ffa500;stroke-linecap:square;stroke-width:1.5;"/>
    <g/>
   </g>
   <g id="line2d_38">
    <path clip-path="url(#p35d02d4a74)" d="M 333.168 79.847898 
" style="fill:none;stroke:#ffa500;stroke-linecap:square;stroke-width:1.5;"/>
    <defs>
     <path d="M -12 12 
L 12 -12 
M -12 -12 
L 12 12 
" id="m30045567d0" style="stroke:#ffa500;"/>
    </defs>
    <g clip-path="url(#p35d02d4a74)">
     <use style="fill:#ffa500;stroke:#ffa500;" x="333.168" xlink:href="#m30045567d0" y="79.847898"/>
    </g>
   </g>
   <g id="line2d_39">
    <defs>
     <path d="M 0 1.5 
C 0.397805 1.5 0.77937 1.341951 1.06066 1.06066 
C 1.341951 0.77937 1.5 0.397805 1.5 0 
C 1.5 -0.397805 1.341951 -0.77937 1.06066 -1.06066 
C 0.77937 -1.341951 0.397805 -1.5 0 -1.5 
C -0.397805 -1.5 -0.77937 -1.341951 -1.06066 -1.06066 
C -1.341951 -0.77937 -1.5 -0.397805 -1.5 0 
C -1.5 0.397805 -1.341951 0.77937 -1.06066 1.06066 
C -0.77937 1.341951 -0.397805 1.5 0 1.5 
z
" id="m3bb9b05a64" style="stroke:#ff0000;"/>
    </defs>
    <g>
     <use style="fill:#ff0000;stroke:#ff0000;" x="398.860314" xlink:href="#m3bb9b05a64" y="58.823462"/>
     <use style="fill:#ff0000;stroke:#ff0000;" x="398.860314" xlink:href="#m3bb9b05a64" y="58.823462"/>
    </g>
   </g>
   <g id="line2d_40">
    <path d="M -1 281.349422 
L 14.510178 281.349422 
L 14.510178 271.982099 
L 37.943615 271.982099 
L 37.943615 266.569868 
L 56.12 266.569868 
L 56.12 259.07601 
L 70.971188 259.07601 
L 70.971188 253.663779 
L 83.527689 253.663779 
L 83.527689 248.043385 
L 94.404625 248.043385 
L 94.404625 245.129107 
L 103.998762 245.129107 
L 103.998762 238.884225 
L 112.58101 238.884225 
L 112.58101 236.17811 
L 120.344598 236.17811 
L 120.344598 234.512808 
L 127.432198 234.512808 
L 127.432198 232.43118 
L 133.952159 232.43118 
L 133.952159 231.806692 
L 139.988699 231.806692 
L 139.988699 230.14139 
L 145.608584 230.14139 
L 145.608584 228.267926 
L 150.865635 228.267926 
L 150.865635 227.643438 
L 155.803875 227.643438 
L 155.803875 225.145485 
L 160.459772 225.145485 
L 160.459772 222.023044 
L 164.863873 222.023044 
L 164.863873 218.69244 
L 169.04202 218.69244 
L 169.04202 215.986325 
L 173.016273 215.986325 
L 173.016273 212.655721 
L 176.805608 212.655721 
L 176.805608 211.614907 
L 180.426472 211.614907 
L 180.426472 208.908792 
L 183.893209 208.908792 
L 183.893209 207.867978 
L 187.218406 207.867978 
L 187.218406 207.035327 
L 190.413169 207.035327 
L 190.413169 206.202676 
L 193.487346 206.202676 
L 193.487346 205.786351 
L 196.449709 205.786351 
L 196.449709 205.578188 
L 199.308109 205.578188 
L 199.308109 202.66391 
L 202.069594 202.66391 
L 202.069594 201.414933 
L 204.740523 201.414933 
L 204.740523 201.206771 
L 207.326645 201.206771 
L 207.326645 200.998608 
L 209.833182 200.998608 
L 209.833182 199.749631 
L 212.264886 199.749631 
L 212.264886 198.500655 
L 214.626095 198.500655 
L 214.626095 197.668004 
L 216.920782 197.668004 
L 216.920782 196.62719 
L 219.152594 196.62719 
L 219.152594 196.002702 
L 221.324883 196.002702 
L 221.324883 194.961889 
L 223.440743 194.961889 
L 223.440743 182.055799 
L 225.503031 182.055799 
L 225.503031 176.01908 
L 227.514393 176.01908 
L 227.514393 172.896639 
L 229.477283 172.896639 
L 229.477283 169.982361 
L 231.393984 169.982361 
L 231.393984 165.610943 
L 233.266618 165.610943 
L 233.266618 163.112991 
L 235.097168 163.112991 
L 235.097168 159.574224 
L 236.887482 159.574224 
L 236.887482 156.868109 
L 238.639292 156.868109 
L 238.639292 152.913017 
L 240.354219 152.913017 
L 240.354219 151.039552 
L 242.033784 151.039552 
L 242.033784 148.125274 
L 243.679416 148.125274 
L 243.679416 145.210996 
L 245.292459 145.210996 
L 245.292459 141.464067 
L 246.874179 141.464067 
L 246.874179 140.631416 
L 248.425769 140.631416 
L 248.425769 137.9253 
L 249.948356 137.9253 
L 249.948356 136.468161 
L 251.443004 136.468161 
L 251.443004 135.63551 
L 252.91072 135.63551 
L 252.91072 132.096744 
L 254.352457 132.096744 
L 254.352457 130.431442 
L 255.769119 130.431442 
L 255.769119 126.684513 
L 257.161563 126.684513 
L 257.161563 123.770234 
L 258.530604 123.770234 
L 258.530604 121.480444 
L 259.877015 121.480444 
L 259.877015 119.815142 
L 261.201533 119.815142 
L 261.201533 117.733515 
L 262.504857 117.733515 
L 262.504857 117.31719 
L 263.787655 117.31719 
L 263.787655 116.692701 
L 265.050565 116.692701 
L 265.050565 116.068213 
L 266.294192 116.068213 
L 266.294192 115.235562 
L 267.519118 115.235562 
L 267.519118 114.402911 
L 268.725896 114.402911 
L 268.725896 113.362098 
L 269.915056 113.362098 
L 269.915056 111.904959 
L 271.087105 111.904959 
L 271.087105 110.864145 
L 272.242529 110.864145 
L 272.242529 109.615169 
L 273.381793 109.615169 
L 273.381793 107.949867 
L 274.505342 107.949867 
L 274.505342 106.909053 
L 275.613604 106.909053 
L 275.613604 106.70089 
L 276.70699 106.70089 
L 276.70699 105.451914 
L 277.785893 105.451914 
L 277.785893 104.4111 
L 278.850693 104.4111 
L 278.850693 103.786612 
L 279.901753 103.786612 
L 279.901753 103.162124 
L 280.939423 103.162124 
L 280.939423 101.704985 
L 282.97593 101.704985 
L 282.97593 101.080497 
L 283.975403 101.080497 
L 283.975403 100.872334 
L 284.962761 100.872334 
L 284.962761 100.664171 
L 285.938293 100.664171 
L 285.938293 100.456008 
L 286.902281 100.456008 
L 286.902281 98.998869 
L 287.854994 98.998869 
L 287.854994 98.166218 
L 288.796693 98.166218 
L 288.796693 97.958056 
L 289.727629 97.958056 
L 289.727629 97.333567 
L 290.648045 97.333567 
L 290.648045 96.292754 
L 291.558178 96.292754 
L 291.558178 95.668265 
L 292.458254 95.668265 
L 292.458254 94.419289 
L 293.348492 94.419289 
L 293.348492 92.96215 
L 296.815229 92.96215 
L 296.815229 91.921336 
L 298.494794 91.921336 
L 298.494794 91.505011 
L 299.321766 91.505011 
L 299.321766 91.296848 
L 300.140426 91.296848 
L 300.140426 89.423384 
L 300.950941 89.423384 
L 300.950941 88.798895 
L 301.753469 88.798895 
L 301.753469 87.966244 
L 303.335189 87.966244 
L 303.335189 87.549919 
L 304.114679 87.549919 
L 304.114679 86.717268 
L 304.88678 86.717268 
L 304.88678 86.509105 
L 305.65163 86.509105 
L 305.65163 85.884617 
L 306.409366 85.884617 
L 306.409366 85.676454 
L 307.160118 85.676454 
L 307.160118 85.260129 
L 307.904014 85.260129 
L 307.904014 84.427478 
L 308.641178 84.427478 
L 308.641178 83.80299 
L 310.095788 83.80299 
L 310.095788 83.178502 
L 310.813467 83.178502 
L 310.813467 82.554013 
L 311.524878 82.554013 
L 311.524878 82.345851 
L 312.230129 82.345851 
L 312.230129 81.929525 
L 312.929327 81.929525 
L 312.929327 80.472386 
L 313.622574 80.472386 
L 313.622574 80.264223 
L 315.667602 80.264223 
L 315.667602 80.056061 
L 316.338026 80.056061 
L 316.338026 79.639735 
L 317.002976 79.639735 
L 317.002976 79.22341 
L 318.965867 79.22341 
L 318.965867 78.807084 
L 320.882568 78.807084 
L 320.882568 78.598921 
L 322.135762 78.598921 
L 322.135762 77.766271 
L 322.755202 77.766271 
L 322.755202 76.725457 
L 324.585752 76.725457 
L 324.585752 74.851992 
L 325.186906 74.851992 
L 325.186906 74.435667 
L 325.783656 74.435667 
L 325.783656 74.227504 
L 327.548115 74.227504 
L 327.548115 74.019341 
L 329.275163 74.019341 
L 329.275163 73.394853 
L 330.406515 73.394853 
L 330.406515 72.978528 
L 330.966352 72.978528 
L 330.966352 72.770365 
L 332.074614 72.770365 
L 332.074614 72.562202 
L 332.623142 72.562202 
L 332.623142 72.354039 
L 333.168 72.354039 
L 333.168 72.145877 
L 333.168 72.145877 
" style="fill:none;stroke:#ff0000;stroke-linecap:square;stroke-width:1.5;"/>
   </g>
   <g id="line2d_41">
    <defs>
     <path d="M 0 -6 
L -5.196152 -3 
L -5.196152 3 
L -0 6 
L 5.196152 3 
L 5.196152 -3 
z
" id="m22e7e783c8" style="stroke:#ff0000;stroke-linejoin:miter;stroke-width:1.5;"/>
    </defs>
    <g>
     <use style="fill-opacity:0;stroke:#ff0000;stroke-linejoin:miter;stroke-width:1.5;" x="70.971188" xlink:href="#m22e7e783c8" y="253.663779"/>
     <use style="fill-opacity:0;stroke:#ff0000;stroke-linejoin:miter;stroke-width:1.5;" x="139.988699" xlink:href="#m22e7e783c8" y="230.14139"/>
     <use style="fill-opacity:0;stroke:#ff0000;stroke-linejoin:miter;stroke-width:1.5;" x="204.740523" xlink:href="#m22e7e783c8" y="201.414933"/>
     <use style="fill-opacity:0;stroke:#ff0000;stroke-linejoin:miter;stroke-width:1.5;" x="255.769119" xlink:href="#m22e7e783c8" y="126.684513"/>
     <use style="fill-opacity:0;stroke:#ff0000;stroke-linejoin:miter;stroke-width:1.5;" x="288.796693" xlink:href="#m22e7e783c8" y="97.958056"/>
     <use style="fill-opacity:0;stroke:#ff0000;stroke-linejoin:miter;stroke-width:1.5;" x="333.168" xlink:href="#m22e7e783c8" y="72.354039"/>
     <use style="fill-opacity:0;stroke:#ff0000;stroke-linejoin:miter;stroke-width:1.5;" x="333.168" xlink:href="#m22e7e783c8" y="72.354039"/>
     <use style="fill-opacity:0;stroke:#ff0000;stroke-linejoin:miter;stroke-width:1.5;" x="333.168" xlink:href="#m22e7e783c8" y="72.145877"/>
    </g>
   </g>
   <g id="line2d_42">
    <path style="fill:none;stroke:#ff0000;stroke-linecap:square;stroke-width:1.5;"/>
    <g/>
   </g>
   <g id="line2d_43">
    <path clip-path="url(#p35d02d4a74)" d="M 333.168 72.145877 
" style="fill:none;stroke:#ff0000;stroke-linecap:square;stroke-width:1.5;"/>
    <defs>
     <path d="M -12 12 
L 12 -12 
M -12 -12 
L 12 12 
" id="m55e36441c7" style="stroke:#ff0000;"/>
    </defs>
    <g clip-path="url(#p35d02d4a74)">
     <use style="fill:#ff0000;stroke:#ff0000;" x="333.168" xlink:href="#m55e36441c7" y="72.145877"/>
    </g>
   </g>
   <g id="line2d_44">
    <path d="M 333.168 174.561941 
L 363.64328 289.176341 
" style="fill:none;stroke:#000080;stroke-linecap:square;stroke-width:1.5;"/>
    <g>
     <use style="fill-opacity:0;stroke:#000080;stroke-width:1.5;" x="333.168" xlink:href="#maa78e30a31" y="174.561941"/>
     <use style="fill-opacity:0;stroke:#000080;stroke-width:1.5;" x="363.64328" xlink:href="#maa78e30a31" y="289.176341"/>
    </g>
   </g>
   <g id="line2d_45">
    <path d="M 333.168 79.847898 
L 363.64328 220.732435 
" style="fill:none;stroke:#ffa500;stroke-linecap:square;stroke-width:1.5;"/>
    <g>
     <use style="fill-opacity:0;stroke:#ffa500;stroke-linejoin:bevel;stroke-width:1.5;" x="333.168" xlink:href="#m9cc55f59ff" y="79.847898"/>
     <use style="fill-opacity:0;stroke:#ffa500;stroke-linejoin:bevel;stroke-width:1.5;" x="363.64328" xlink:href="#m9cc55f59ff" y="220.732435"/>
    </g>
   </g>
   <g id="line2d_46">
    <path d="M 333.168 77.141782 
L 363.64328 152.288529 
" style="fill:none;stroke:#ff00ff;stroke-linecap:square;stroke-width:1.5;"/>
    <g>
     <use style="fill-opacity:0;stroke:#ff00ff;stroke-linejoin:miter;stroke-width:1.5;" x="333.168" xlink:href="#m904c93e377" y="77.141782"/>
     <use style="fill-opacity:0;stroke:#ff00ff;stroke-linejoin:miter;stroke-width:1.5;" x="363.64328" xlink:href="#m904c93e377" y="152.288529"/>
    </g>
   </g>
   <g id="line2d_47">
    <path d="M 333.168 72.145877 
L 363.64328 83.844622 
" style="fill:none;stroke:#ff0000;stroke-linecap:square;stroke-width:1.5;"/>
    <g>
     <use style="fill-opacity:0;stroke:#ff0000;stroke-linejoin:miter;stroke-width:1.5;" x="333.168" xlink:href="#m22e7e783c8" y="72.145877"/>
     <use style="fill-opacity:0;stroke:#ff0000;stroke-linejoin:miter;stroke-width:1.5;" x="363.64328" xlink:href="#m22e7e783c8" y="83.844622"/>
    </g>
   </g>
   <g id="line2d_48">
    <path d="M 333.168 294.88 
L 333.168 9.697057 
" style="fill:none;stroke:#000000;stroke-linecap:square;stroke-width:1.5;"/>
   </g>
   <g id="patch_3">
    <path d="M 56.12 294.88 
L 56.12 6.845228 
" style="fill:none;stroke:#000000;stroke-linecap:square;stroke-linejoin:miter;stroke-width:0.8;"/>
   </g>
   <g id="patch_4">
    <path d="M 333.168 294.88 
L 333.168 6.845228 
" style="fill:none;stroke:#000000;stroke-linecap:square;stroke-linejoin:miter;stroke-width:0.8;"/>
   </g>
   <g id="patch_5">
    <path d="M 56.12 294.88 
L 333.168 294.88 
" style="fill:none;stroke:#000000;stroke-linecap:square;stroke-linejoin:miter;stroke-width:0.8;"/>
   </g>
   <g id="patch_6">
    <path d="M 56.12 6.845228 
L 333.168 6.845228 
" style="fill:none;stroke:#000000;stroke-linecap:square;stroke-linejoin:miter;stroke-width:0.8;"/>
   </g>
   <g id="text_10">
    <!-- random -->
    <g transform="translate(369.18424 293.867279)scale(0.17 -0.17)">
     <use xlink:href="#DejaVuSans-72"/>
     <use x="41.113281" xlink:href="#DejaVuSans-61"/>
     <use x="102.392578" xlink:href="#DejaVuSans-6e"/>
     <use x="165.771484" xlink:href="#DejaVuSans-64"/>
     <use x="229.248047" xlink:href="#DejaVuSans-6f"/>
     <use x="290.429688" xlink:href="#DejaVuSans-6d"/>
    </g>
   </g>
   <g id="text_11">
    <!-- LinM -->
    <defs>
     <path d="M 9.8125 72.90625 
L 19.671875 72.90625 
L 19.671875 8.296875 
L 55.171875 8.296875 
L 55.171875 0 
L 9.8125 0 
z
" id="DejaVuSans-4c"/>
     <path d="M 9.8125 72.90625 
L 24.515625 72.90625 
L 43.109375 23.296875 
L 61.8125 72.90625 
L 76.515625 72.90625 
L 76.515625 0 
L 66.890625 0 
L 66.890625 64.015625 
L 48.09375 14.015625 
L 38.1875 14.015625 
L 19.390625 64.015625 
L 19.390625 0 
L 9.8125 0 
z
" id="DejaVuSans-4d"/>
    </defs>
    <g transform="translate(369.18424 225.423372)scale(0.17 -0.17)">
     <use xlink:href="#DejaVuSans-4c"/>
     <use x="55.712891" xlink:href="#DejaVuSans-69"/>
     <use x="83.496094" xlink:href="#DejaVuSans-6e"/>
     <use x="146.875" xlink:href="#DejaVuSans-4d"/>
    </g>
   </g>
   <g id="text_12">
    <!-- M -->
    <g transform="translate(369.18424 156.979466)scale(0.17 -0.17)">
     <use xlink:href="#DejaVuSans-4d"/>
    </g>
   </g>
   <g id="text_13">
    <!-- QuadM -->
    <defs>
     <path d="M 39.40625 66.21875 
Q 28.65625 66.21875 22.328125 58.203125 
Q 16.015625 50.203125 16.015625 36.375 
Q 16.015625 22.609375 22.328125 14.59375 
Q 28.65625 6.59375 39.40625 6.59375 
Q 50.140625 6.59375 56.421875 14.59375 
Q 62.703125 22.609375 62.703125 36.375 
Q 62.703125 50.203125 56.421875 58.203125 
Q 50.140625 66.21875 39.40625 66.21875 
z
M 53.21875 1.3125 
L 66.21875 -12.890625 
L 54.296875 -12.890625 
L 43.5 -1.21875 
Q 41.890625 -1.3125 41.03125 -1.359375 
Q 40.1875 -1.421875 39.40625 -1.421875 
Q 24.03125 -1.421875 14.8125 8.859375 
Q 5.609375 19.140625 5.609375 36.375 
Q 5.609375 53.65625 14.8125 63.9375 
Q 24.03125 74.21875 39.40625 74.21875 
Q 54.734375 74.21875 63.90625 63.9375 
Q 73.09375 53.65625 73.09375 36.375 
Q 73.09375 23.6875 67.984375 14.640625 
Q 62.890625 5.609375 53.21875 1.3125 
z
" id="DejaVuSans-51"/>
    </defs>
    <g transform="translate(369.18424 88.53556)scale(0.17 -0.17)">
     <use xlink:href="#DejaVuSans-51"/>
     <use x="78.710938" xlink:href="#DejaVuSans-75"/>
     <use x="142.089844" xlink:href="#DejaVuSans-61"/>
     <use x="203.369141" xlink:href="#DejaVuSans-64"/>
     <use x="266.845703" xlink:href="#DejaVuSans-4d"/>
    </g>
   </g>
   <g id="text_14">
    <!-- best09 -->
    <defs>
     <path d="M 48.6875 27.296875 
Q 48.6875 37.203125 44.609375 42.84375 
Q 40.53125 48.484375 33.40625 48.484375 
Q 26.265625 48.484375 22.1875 42.84375 
Q 18.109375 37.203125 18.109375 27.296875 
Q 18.109375 17.390625 22.1875 11.75 
Q 26.265625 6.109375 33.40625 6.109375 
Q 40.53125 6.109375 44.609375 11.75 
Q 48.6875 17.390625 48.6875 27.296875 
z
M 18.109375 46.390625 
Q 20.953125 51.265625 25.265625 53.625 
Q 29.59375 56 35.59375 56 
Q 45.5625 56 51.78125 48.09375 
Q 58.015625 40.1875 58.015625 27.296875 
Q 58.015625 14.40625 51.78125 6.484375 
Q 45.5625 -1.421875 35.59375 -1.421875 
Q 29.59375 -1.421875 25.265625 0.953125 
Q 20.953125 3.328125 18.109375 8.203125 
L 18.109375 0 
L 9.078125 0 
L 9.078125 75.984375 
L 18.109375 75.984375 
z
" id="DejaVuSans-62"/>
     <path d="M 10.984375 1.515625 
L 10.984375 10.5 
Q 14.703125 8.734375 18.5 7.8125 
Q 22.3125 6.890625 25.984375 6.890625 
Q 35.75 6.890625 40.890625 13.453125 
Q 46.046875 20.015625 46.78125 33.40625 
Q 43.953125 29.203125 39.59375 26.953125 
Q 35.25 24.703125 29.984375 24.703125 
Q 19.046875 24.703125 12.671875 31.3125 
Q 6.296875 37.9375 6.296875 49.421875 
Q 6.296875 60.640625 12.9375 67.421875 
Q 19.578125 74.21875 30.609375 74.21875 
Q 43.265625 74.21875 49.921875 64.515625 
Q 56.59375 54.828125 56.59375 36.375 
Q 56.59375 19.140625 48.40625 8.859375 
Q 40.234375 -1.421875 26.421875 -1.421875 
Q 22.703125 -1.421875 18.890625 -0.6875 
Q 15.09375 0.046875 10.984375 1.515625 
z
M 30.609375 32.421875 
Q 37.25 32.421875 41.125 36.953125 
Q 45.015625 41.5 45.015625 49.421875 
Q 45.015625 57.28125 41.125 61.84375 
Q 37.25 66.40625 30.609375 66.40625 
Q 23.96875 66.40625 20.09375 61.84375 
Q 16.21875 57.28125 16.21875 49.421875 
Q 16.21875 41.5 20.09375 36.953125 
Q 23.96875 32.421875 30.609375 32.421875 
z
" id="DejaVuSans-39"/>
    </defs>
    <g transform="translate(369.18424 20.091654)scale(0.17 -0.17)">
     <use xlink:href="#DejaVuSans-62"/>
     <use x="63.476562" xlink:href="#DejaVuSans-65"/>
     <use x="125" xlink:href="#DejaVuSans-73"/>
     <use x="177.099609" xlink:href="#DejaVuSans-74"/>
     <use x="216.308594" xlink:href="#DejaVuSans-30"/>
     <use x="279.931641" xlink:href="#DejaVuSans-39"/>
    </g>
   </g>
   <g id="text_15">
    <!-- bbob f1-f24, 5-D -->
    <defs>
     <path d="M 10.796875 72.90625 
L 49.515625 72.90625 
L 49.515625 64.59375 
L 19.828125 64.59375 
L 19.828125 46.734375 
Q 21.96875 47.46875 24.109375 47.828125 
Q 26.265625 48.1875 28.421875 48.1875 
Q 40.625 48.1875 47.75 41.5 
Q 54.890625 34.8125 54.890625 23.390625 
Q 54.890625 11.625 47.5625 5.09375 
Q 40.234375 -1.421875 26.90625 -1.421875 
Q 22.3125 -1.421875 17.546875 -0.640625 
Q 12.796875 0.140625 7.71875 1.703125 
L 7.71875 11.625 
Q 12.109375 9.234375 16.796875 8.0625 
Q 21.484375 6.890625 26.703125 6.890625 
Q 35.15625 6.890625 40.078125 11.328125 
Q 45.015625 15.765625 45.015625 23.390625 
Q 45.015625 31 40.078125 35.4375 
Q 35.15625 39.890625 26.703125 39.890625 
Q 22.75 39.890625 18.8125 39.015625 
Q 14.890625 38.140625 10.796875 36.28125 
z
" id="DejaVuSans-35"/>
     <path d="M 19.671875 64.796875 
L 19.671875 8.109375 
L 31.59375 8.109375 
Q 46.6875 8.109375 53.6875 14.9375 
Q 60.6875 21.78125 60.6875 36.53125 
Q 60.6875 51.171875 53.6875 57.984375 
Q 46.6875 64.796875 31.59375 64.796875 
z
M 9.8125 72.90625 
L 30.078125 72.90625 
Q 51.265625 72.90625 61.171875 64.09375 
Q 71.09375 55.28125 71.09375 36.53125 
Q 71.09375 17.671875 61.125 8.828125 
Q 51.171875 0 30.078125 0 
L 9.8125 0 
z
" id="DejaVuSans-44"/>
    </defs>
    <g transform="translate(58.89048 17.475982)scale(0.102 -0.102)">
     <use xlink:href="#DejaVuSans-62"/>
     <use x="63.476562" xlink:href="#DejaVuSans-62"/>
     <use x="126.953125" xlink:href="#DejaVuSans-6f"/>
     <use x="188.134766" xlink:href="#DejaVuSans-62"/>
     <use x="251.611328" xlink:href="#DejaVuSans-20"/>
     <use x="283.398438" xlink:href="#DejaVuSans-66"/>
     <use x="318.603516" xlink:href="#DejaVuSans-31"/>
     <use x="382.226562" xlink:href="#DejaVuSans-2d"/>
     <use x="418.310547" xlink:href="#DejaVuSans-66"/>
     <use x="453.515625" xlink:href="#DejaVuSans-32"/>
     <use x="517.138672" xlink:href="#DejaVuSans-34"/>
     <use x="580.761719" xlink:href="#DejaVuSans-2c"/>
     <use x="612.548828" xlink:href="#DejaVuSans-20"/>
     <use x="644.335938" xlink:href="#DejaVuSans-35"/>
     <use x="707.958984" xlink:href="#DejaVuSans-2d"/>
     <use x="744.042969" xlink:href="#DejaVuSans-44"/>
    </g>
    <!-- 8 targets RLs/dim: 0.5..20 -->
    <defs>
     <path d="M 44.390625 34.1875 
Q 47.5625 33.109375 50.5625 29.59375 
Q 53.5625 26.078125 56.59375 19.921875 
L 66.609375 0 
L 56 0 
L 46.6875 18.703125 
Q 43.0625 26.03125 39.671875 28.421875 
Q 36.28125 30.8125 30.421875 30.8125 
L 19.671875 30.8125 
L 19.671875 0 
L 9.8125 0 
L 9.8125 72.90625 
L 32.078125 72.90625 
Q 44.578125 72.90625 50.734375 67.671875 
Q 56.890625 62.453125 56.890625 51.90625 
Q 56.890625 45.015625 53.6875 40.46875 
Q 50.484375 35.9375 44.390625 34.1875 
z
M 19.671875 64.796875 
L 19.671875 38.921875 
L 32.078125 38.921875 
Q 39.203125 38.921875 42.84375 42.21875 
Q 46.484375 45.515625 46.484375 51.90625 
Q 46.484375 58.296875 42.84375 61.546875 
Q 39.203125 64.796875 32.078125 64.796875 
z
" id="DejaVuSans-52"/>
     <path d="M 11.71875 12.40625 
L 22.015625 12.40625 
L 22.015625 0 
L 11.71875 0 
z
M 11.71875 51.703125 
L 22.015625 51.703125 
L 22.015625 39.3125 
L 11.71875 39.3125 
z
" id="DejaVuSans-3a"/>
    </defs>
    <g transform="translate(58.89048 28.89775)scale(0.102 -0.102)">
     <use xlink:href="#DejaVuSans-38"/>
     <use x="63.623047" xlink:href="#DejaVuSans-20"/>
     <use x="95.410156" xlink:href="#DejaVuSans-74"/>
     <use x="134.619141" xlink:href="#DejaVuSans-61"/>
     <use x="195.898438" xlink:href="#DejaVuSans-72"/>
     <use x="236.996094" xlink:href="#DejaVuSans-67"/>
     <use x="300.472656" xlink:href="#DejaVuSans-65"/>
     <use x="361.996094" xlink:href="#DejaVuSans-74"/>
     <use x="401.205078" xlink:href="#DejaVuSans-73"/>
     <use x="453.304688" xlink:href="#DejaVuSans-20"/>
     <use x="485.091797" xlink:href="#DejaVuSans-52"/>
     <use x="554.574219" xlink:href="#DejaVuSans-4c"/>
     <use x="610.287109" xlink:href="#DejaVuSans-73"/>
     <use x="662.386719" xlink:href="#DejaVuSans-2f"/>
     <use x="696.078125" xlink:href="#DejaVuSans-64"/>
     <use x="759.554688" xlink:href="#DejaVuSans-69"/>
     <use x="787.337891" xlink:href="#DejaVuSans-6d"/>
     <use x="884.75" xlink:href="#DejaVuSans-3a"/>
     <use x="918.441406" xlink:href="#DejaVuSans-20"/>
     <use x="950.228516" xlink:href="#DejaVuSans-30"/>
     <use x="1013.851562" xlink:href="#DejaVuSans-2e"/>
     <use x="1045.638672" xlink:href="#DejaVuSans-35"/>
     <use x="1109.261719" xlink:href="#DejaVuSans-2e"/>
     <use x="1141.048828" xlink:href="#DejaVuSans-2e"/>
     <use x="1172.835938" xlink:href="#DejaVuSans-32"/>
     <use x="1236.458984" xlink:href="#DejaVuSans-30"/>
    </g>
    <!--   from refalgs/best2009-bbob.tar.gz -->
    <defs>
     <path d="M 5.515625 54.6875 
L 48.1875 54.6875 
L 48.1875 46.484375 
L 14.40625 7.171875 
L 48.1875 7.171875 
L 48.1875 0 
L 4.296875 0 
L 4.296875 8.203125 
L 38.09375 47.515625 
L 5.515625 47.515625 
z
" id="DejaVuSans-7a"/>
    </defs>
    <g transform="translate(58.89048 40.319519)scale(0.102 -0.102)">
     <use xlink:href="#DejaVuSans-20"/>
     <use x="31.787109" xlink:href="#DejaVuSans-20"/>
     <use x="63.574219" xlink:href="#DejaVuSans-66"/>
     <use x="98.779297" xlink:href="#DejaVuSans-72"/>
     <use x="139.861328" xlink:href="#DejaVuSans-6f"/>
     <use x="201.042969" xlink:href="#DejaVuSans-6d"/>
     <use x="298.455078" xlink:href="#DejaVuSans-20"/>
     <use x="330.242188" xlink:href="#DejaVuSans-72"/>
     <use x="371.324219" xlink:href="#DejaVuSans-65"/>
     <use x="432.847656" xlink:href="#DejaVuSans-66"/>
     <use x="468.052734" xlink:href="#DejaVuSans-61"/>
     <use x="529.332031" xlink:href="#DejaVuSans-6c"/>
     <use x="557.115234" xlink:href="#DejaVuSans-67"/>
     <use x="620.591797" xlink:href="#DejaVuSans-73"/>
     <use x="672.691406" xlink:href="#DejaVuSans-2f"/>
     <use x="706.382812" xlink:href="#DejaVuSans-62"/>
     <use x="769.859375" xlink:href="#DejaVuSans-65"/>
     <use x="831.382812" xlink:href="#DejaVuSans-73"/>
     <use x="883.482422" xlink:href="#DejaVuSans-74"/>
     <use x="922.691406" xlink:href="#DejaVuSans-32"/>
     <use x="986.314453" xlink:href="#DejaVuSans-30"/>
     <use x="1049.9375" xlink:href="#DejaVuSans-30"/>
     <use x="1113.560547" xlink:href="#DejaVuSans-39"/>
     <use x="1177.183594" xlink:href="#DejaVuSans-2d"/>
     <use x="1213.267578" xlink:href="#DejaVuSans-62"/>
     <use x="1276.744141" xlink:href="#DejaVuSans-62"/>
     <use x="1340.220703" xlink:href="#DejaVuSans-6f"/>
     <use x="1401.402344" xlink:href="#DejaVuSans-62"/>
     <use x="1464.878906" xlink:href="#DejaVuSans-2e"/>
     <use x="1496.666016" xlink:href="#DejaVuSans-74"/>
     <use x="1535.875" xlink:href="#DejaVuSans-61"/>
     <use x="1597.154297" xlink:href="#DejaVuSans-72"/>
     <use x="1638.126953" xlink:href="#DejaVuSans-2e"/>
     <use x="1669.914062" xlink:href="#DejaVuSans-67"/>
     <use x="1733.390625" xlink:href="#DejaVuSans-7a"/>
    </g>
    <!-- 15 instances -->
    <g transform="translate(58.89048 51.741288)scale(0.102 -0.102)">
     <use xlink:href="#DejaVuSans-31"/>
     <use x="63.623047" xlink:href="#DejaVuSans-35"/>
     <use x="127.246094" xlink:href="#DejaVuSans-20"/>
     <use x="159.033203" xlink:href="#DejaVuSans-69"/>
     <use x="186.816406" xlink:href="#DejaVuSans-6e"/>
     <use x="250.195312" xlink:href="#DejaVuSans-73"/>
     <use x="302.294922" xlink:href="#DejaVuSans-74"/>
     <use x="341.503906" xlink:href="#DejaVuSans-61"/>
     <use x="402.783203" xlink:href="#DejaVuSans-6e"/>
     <use x="466.162109" xlink:href="#DejaVuSans-63"/>
     <use x="521.142578" xlink:href="#DejaVuSans-65"/>
     <use x="582.666016" xlink:href="#DejaVuSans-73"/>
    </g>
   </g>
   <g id="text_16">
    <!-- v2.3.1 -->
    <defs>
     <path d="M 40.578125 39.3125 
Q 47.65625 37.796875 51.625 33 
Q 55.609375 28.21875 55.609375 21.1875 
Q 55.609375 10.40625 48.1875 4.484375 
Q 40.765625 -1.421875 27.09375 -1.421875 
Q 22.515625 -1.421875 17.65625 -0.515625 
Q 12.796875 0.390625 7.625 2.203125 
L 7.625 11.71875 
Q 11.71875 9.328125 16.59375 8.109375 
Q 21.484375 6.890625 26.8125 6.890625 
Q 36.078125 6.890625 40.9375 10.546875 
Q 45.796875 14.203125 45.796875 21.1875 
Q 45.796875 27.640625 41.28125 31.265625 
Q 36.765625 34.90625 28.71875 34.90625 
L 20.21875 34.90625 
L 20.21875 43.015625 
L 29.109375 43.015625 
Q 36.375 43.015625 40.234375 45.921875 
Q 44.09375 48.828125 44.09375 54.296875 
Q 44.09375 59.90625 40.109375 62.90625 
Q 36.140625 65.921875 28.71875 65.921875 
Q 24.65625 65.921875 20.015625 65.03125 
Q 15.375 64.15625 9.8125 62.3125 
L 9.8125 71.09375 
Q 15.4375 72.65625 20.34375 73.4375 
Q 25.25 74.21875 29.59375 74.21875 
Q 40.828125 74.21875 47.359375 69.109375 
Q 53.90625 64.015625 53.90625 55.328125 
Q 53.90625 49.265625 50.4375 45.09375 
Q 46.96875 40.921875 40.578125 39.3125 
z
" id="DejaVuSans-33"/>
    </defs>
    <g style="fill:#808080;" transform="translate(178.96275 289.919965)scale(0.1 -0.1)">
     <use xlink:href="#DejaVuSans-76"/>
     <use x="59.179688" xlink:href="#DejaVuSans-32"/>
     <use x="122.802734" xlink:href="#DejaVuSans-2e"/>
     <use x="154.589844" xlink:href="#DejaVuSans-33"/>
     <use x="218.212891" xlink:href="#DejaVuSans-2e"/>
     <use x="250" xlink:href="#DejaVuSans-31"/>
    </g>
   </g>
  </g>
 </g>
 <defs>
  <clipPath id="p35d02d4a74">
   <rect height="288.034772" width="277.048" x="56.12" y="6.845228"/>
  </clipPath>
 </defs>
</svg>
