<?xml version="1.0" encoding="utf-8" standalone="no"?>
<!DOCTYPE svg PUBLIC "-//W3C//DTD SVG 1.1//EN"
  "http://www.w3.org/Graphics/SVG/1.1/DTD/svg11.dtd">
<!-- Created with matplotlib (https://matplotlib.org/) -->
<svg height="345.6pt" version="1.1" viewBox="0 0 460.8 345.6" width="460.8pt" xmlns="http://www.w3.org/2000/svg" xmlns:xlink="http://www.w3.org/1999/xlink">
 <metadata>
  <rdf:RDF xmlns:cc="http://creativecommons.org/ns#" xmlns:dc="http://purl.org/dc/elements/1.1/" xmlns:rdf="http://www.w3.org/1999/02/22-rdf-syntax-ns#">
   <cc:Work>
    <dc:type rdf:resource="http://purl.org/dc/dcmitype/StillImage"/>
    <dc:date>2020-12-11T23:05:29.623012</dc:date>
    <dc:format>image/svg+xml</dc:format>
    <dc:creator>
     <cc:Agent>
      <dc:title>Matplotlib v3.3.3, https://matplotlib.org/</dc:title>
     </cc:Agent>
    </dc:creator>
   </cc:Work>
  </rdf:RDF>
 </metadata>
 <defs>
  <style type="text/css">*{stroke-linecap:butt;stroke-linejoin:round;}</style>
 </defs>
 <g id="figure_1">
  <g id="patch_1">
   <path d="M 0 345.6 
L 460.8 345.6 
L 460.8 0 
L 0 0 
z
" style="fill:#ffffff;"/>
  </g>
  <g id="axes_1">
   <g id="patch_2">
    <path d="M 57.6 298.944 
L 338.688 298.944 
L 338.688 3.456 
L 57.6 3.456 
z
" style="fill:#ffffff;"/>
   </g>
   <g id="line2d_1">
    <path d="M 8.192457 298.944 
L 8.192457 281.734448 
L 57.6 281.734448 
L 57.6 273.129673 
L 61.632206 273.129673 
L 61.632206 264.524897 
L 91.109192 264.524897 
L 91.109192 255.920121 
L 118.916549 255.920121 
L 118.916549 247.315345 
L 124.618384 247.315345 
L 124.618384 238.71057 
L 129.952095 238.71057 
L 129.952095 230.105794 
L 152.425741 230.105794 
L 152.425741 221.501018 
L 153.727245 221.501018 
L 153.727245 212.896242 
L 157.513121 212.896242 
L 157.513121 204.291467 
L 161.133138 204.291467 
L 161.133138 195.686691 
L 180.045483 195.686691 
L 180.045483 187.081915 
L 198.486922 187.081915 
L 198.486922 178.477139 
L 199.976041 178.477139 
L 199.976041 169.872363 
L 204.986292 169.872363 
L 204.986292 161.267588 
L 209.710083 161.267588 
L 209.710083 152.662812 
L 219.589753 152.662812 
L 219.589753 144.058036 
L 223.009986 144.058036 
L 223.009986 135.45326 
L 225.213952 135.45326 
L 225.213952 126.848485 
L 229.967943 126.848485 
L 229.967943 118.243709 
L 251.926672 118.243709 
L 251.926672 109.638933 
L 252.31928 109.638933 
L 252.31928 101.034157 
L 255.394754 101.034157 
L 255.394754 92.429381 
L 259.803471 92.429381 
L 259.803471 83.824606 
L 268.29593 83.824606 
L 268.29593 75.21983 
L 282.498294 75.21983 
L 282.498294 58.010278 
L 295.315534 58.010278 
L 295.315534 49.405503 
L 307.82201 49.405503 
L 307.82201 40.800727 
L 308.021874 40.800727 
L 308.021874 32.195951 
L 316.549415 32.195951 
L 316.549415 23.591175 
L 323.620247 23.591175 
L 323.620247 14.9864 
L 325.90247 14.9864 
L 325.90247 6.381624 
L 338.688 6.381624 
" style="fill:none;stroke:#f5deb3;stroke-linecap:square;stroke-width:4;"/>
   </g>
   <g id="line2d_2">
    <defs>
     <path d="M -0 7.778175 
L 7.778175 0 
L 0 -7.778175 
L -7.778175 -0 
z
" id="mc583ff5415" style="stroke:#f5deb3;stroke-linejoin:miter;stroke-width:1.5;"/>
    </defs>
    <g>
     <use style="fill:#f5deb3;stroke:#f5deb3;stroke-linejoin:miter;stroke-width:1.5;" x="124.618384" xlink:href="#mc583ff5415" y="247.315345"/>
     <use style="fill:#f5deb3;stroke:#f5deb3;stroke-linejoin:miter;stroke-width:1.5;" x="180.045483" xlink:href="#mc583ff5415" y="195.686691"/>
     <use style="fill:#f5deb3;stroke:#f5deb3;stroke-linejoin:miter;stroke-width:1.5;" x="209.710083" xlink:href="#mc583ff5415" y="152.662812"/>
     <use style="fill:#f5deb3;stroke:#f5deb3;stroke-linejoin:miter;stroke-width:1.5;" x="259.803471" xlink:href="#mc583ff5415" y="83.824606"/>
     <use style="fill:#f5deb3;stroke:#f5deb3;stroke-linejoin:miter;stroke-width:1.5;" x="316.549415" xlink:href="#mc583ff5415" y="23.591175"/>
     <use style="fill:#f5deb3;stroke:#f5deb3;stroke-linejoin:miter;stroke-width:1.5;" x="325.90247" xlink:href="#mc583ff5415" y="6.381624"/>
     <use style="fill:#f5deb3;stroke:#f5deb3;stroke-linejoin:miter;stroke-width:1.5;" x="338.688" xlink:href="#mc583ff5415" y="6.381624"/>
    </g>
   </g>
   <g id="line2d_3">
    <path style="fill:none;stroke:#f5deb3;stroke-linecap:square;stroke-width:4;"/>
    <g/>
   </g>
   <g id="line2d_4">
    <path d="M 338.688 6.381624 
L 369.60768 12.232871 
" style="fill:none;stroke:#f5deb3;stroke-linecap:square;stroke-width:4;"/>
    <g>
     <use style="fill:#f5deb3;stroke:#f5deb3;stroke-linejoin:miter;stroke-width:1.5;" x="338.688" xlink:href="#mc583ff5415" y="6.381624"/>
     <use style="fill:#f5deb3;stroke:#f5deb3;stroke-linejoin:miter;stroke-width:1.5;" x="369.60768" xlink:href="#mc583ff5415" y="12.232871"/>
    </g>
   </g>
   <g id="matplotlib.axis_1">
    <g id="xtick_1">
     <g id="line2d_5">
      <path clip-path="url(#p21740ca1d2)" d="M 57.6 298.944 
L 57.6 3.456 
" style="fill:none;stroke:#b0b0b0;stroke-linecap:square;stroke-width:0.8;"/>
     </g>
     <g id="line2d_6">
      <defs>
       <path d="M 0 0 
L 0 3.5 
" id="m405d47a0ce" style="stroke:#000000;stroke-width:0.8;"/>
      </defs>
      <g>
       <use style="stroke:#000000;stroke-width:0.8;" x="57.6" xlink:href="#m405d47a0ce" y="298.944"/>
      </g>
     </g>
     <g id="text_1">
      <!-- 0 -->
      <g transform="translate(51.2375 321.140875)scale(0.2 -0.2)">
       <defs>
        <path d="M 31.78125 66.40625 
Q 24.171875 66.40625 20.328125 58.90625 
Q 16.5 51.421875 16.5 36.375 
Q 16.5 21.390625 20.328125 13.890625 
Q 24.171875 6.390625 31.78125 6.390625 
Q 39.453125 6.390625 43.28125 13.890625 
Q 47.125 21.390625 47.125 36.375 
Q 47.125 51.421875 43.28125 58.90625 
Q 39.453125 66.40625 31.78125 66.40625 
z
M 31.78125 74.21875 
Q 44.046875 74.21875 50.515625 64.515625 
Q 56.984375 54.828125 56.984375 36.375 
Q 56.984375 17.96875 50.515625 8.265625 
Q 44.046875 -1.421875 31.78125 -1.421875 
Q 19.53125 -1.421875 13.0625 8.265625 
Q 6.59375 17.96875 6.59375 36.375 
Q 6.59375 54.828125 13.0625 64.515625 
Q 19.53125 74.21875 31.78125 74.21875 
z
" id="DejaVuSans-48"/>
       </defs>
       <use xlink:href="#DejaVuSans-48"/>
      </g>
     </g>
    </g>
    <g id="xtick_2">
     <g id="line2d_7">
      <path clip-path="url(#p21740ca1d2)" d="M 247.894466 298.944 
L 247.894466 3.456 
" style="fill:none;stroke:#b0b0b0;stroke-linecap:square;stroke-width:0.8;"/>
     </g>
     <g id="line2d_8">
      <defs>
       <path d="M 0 0 
L 0 2 
" id="m431b45f217" style="stroke:#000000;stroke-width:0.6;"/>
      </defs>
      <g>
       <use style="stroke:#000000;stroke-width:0.6;" x="247.894466" xlink:href="#m431b45f217" y="298.944"/>
      </g>
     </g>
    </g>
    <g id="text_2">
     <!-- log10(# f-evals / dimension) -->
     <g transform="translate(77.764078 342.217594)scale(0.17 -0.17)">
      <defs>
       <path d="M 9.421875 75.984375 
L 18.40625 75.984375 
L 18.40625 0 
L 9.421875 0 
z
" id="DejaVuSans-108"/>
       <path d="M 30.609375 48.390625 
Q 23.390625 48.390625 19.1875 42.75 
Q 14.984375 37.109375 14.984375 27.296875 
Q 14.984375 17.484375 19.15625 11.84375 
Q 23.34375 6.203125 30.609375 6.203125 
Q 37.796875 6.203125 41.984375 11.859375 
Q 46.1875 17.53125 46.1875 27.296875 
Q 46.1875 37.015625 41.984375 42.703125 
Q 37.796875 48.390625 30.609375 48.390625 
z
M 30.609375 56 
Q 42.328125 56 49.015625 48.375 
Q 55.71875 40.765625 55.71875 27.296875 
Q 55.71875 13.875 49.015625 6.21875 
Q 42.328125 -1.421875 30.609375 -1.421875 
Q 18.84375 -1.421875 12.171875 6.21875 
Q 5.515625 13.875 5.515625 27.296875 
Q 5.515625 40.765625 12.171875 48.375 
Q 18.84375 56 30.609375 56 
z
" id="DejaVuSans-111"/>
       <path d="M 45.40625 27.984375 
Q 45.40625 37.75 41.375 43.109375 
Q 37.359375 48.484375 30.078125 48.484375 
Q 22.859375 48.484375 18.828125 43.109375 
Q 14.796875 37.75 14.796875 27.984375 
Q 14.796875 18.265625 18.828125 12.890625 
Q 22.859375 7.515625 30.078125 7.515625 
Q 37.359375 7.515625 41.375 12.890625 
Q 45.40625 18.265625 45.40625 27.984375 
z
M 54.390625 6.78125 
Q 54.390625 -7.171875 48.1875 -13.984375 
Q 42 -20.796875 29.203125 -20.796875 
Q 24.46875 -20.796875 20.265625 -20.09375 
Q 16.0625 -19.390625 12.109375 -17.921875 
L 12.109375 -9.1875 
Q 16.0625 -11.328125 19.921875 -12.34375 
Q 23.78125 -13.375 27.78125 -13.375 
Q 36.625 -13.375 41.015625 -8.765625 
Q 45.40625 -4.15625 45.40625 5.171875 
L 45.40625 9.625 
Q 42.625 4.78125 38.28125 2.390625 
Q 33.9375 0 27.875 0 
Q 17.828125 0 11.671875 7.65625 
Q 5.515625 15.328125 5.515625 27.984375 
Q 5.515625 40.671875 11.671875 48.328125 
Q 17.828125 56 27.875 56 
Q 33.9375 56 38.28125 53.609375 
Q 42.625 51.21875 45.40625 46.390625 
L 45.40625 54.6875 
L 54.390625 54.6875 
z
" id="DejaVuSans-103"/>
       <path d="M 12.40625 8.296875 
L 28.515625 8.296875 
L 28.515625 63.921875 
L 10.984375 60.40625 
L 10.984375 69.390625 
L 28.421875 72.90625 
L 38.28125 72.90625 
L 38.28125 8.296875 
L 54.390625 8.296875 
L 54.390625 0 
L 12.40625 0 
z
" id="DejaVuSans-49"/>
       <path d="M 31 75.875 
Q 24.46875 64.65625 21.28125 53.65625 
Q 18.109375 42.671875 18.109375 31.390625 
Q 18.109375 20.125 21.3125 9.0625 
Q 24.515625 -2 31 -13.1875 
L 23.1875 -13.1875 
Q 15.875 -1.703125 12.234375 9.375 
Q 8.59375 20.453125 8.59375 31.390625 
Q 8.59375 42.28125 12.203125 53.3125 
Q 15.828125 64.359375 23.1875 75.875 
z
" id="DejaVuSans-40"/>
       <path d="M 51.125 44 
L 36.921875 44 
L 32.8125 27.6875 
L 47.125 27.6875 
z
M 43.796875 71.78125 
L 38.71875 51.515625 
L 52.984375 51.515625 
L 58.109375 71.78125 
L 65.921875 71.78125 
L 60.890625 51.515625 
L 76.125 51.515625 
L 76.125 44 
L 58.984375 44 
L 54.984375 27.6875 
L 70.515625 27.6875 
L 70.515625 20.21875 
L 53.078125 20.21875 
L 48 0 
L 40.1875 0 
L 45.21875 20.21875 
L 30.90625 20.21875 
L 25.875 0 
L 18.015625 0 
L 23.09375 20.21875 
L 7.71875 20.21875 
L 7.71875 27.6875 
L 24.90625 27.6875 
L 29 44 
L 13.28125 44 
L 13.28125 51.515625 
L 30.90625 51.515625 
L 35.890625 71.78125 
z
" id="DejaVuSans-35"/>
       <path id="DejaVuSans-32"/>
       <path d="M 37.109375 75.984375 
L 37.109375 68.5 
L 28.515625 68.5 
Q 23.6875 68.5 21.796875 66.546875 
Q 19.921875 64.59375 19.921875 59.515625 
L 19.921875 54.6875 
L 34.71875 54.6875 
L 34.71875 47.703125 
L 19.921875 47.703125 
L 19.921875 0 
L 10.890625 0 
L 10.890625 47.703125 
L 2.296875 47.703125 
L 2.296875 54.6875 
L 10.890625 54.6875 
L 10.890625 58.5 
Q 10.890625 67.625 15.140625 71.796875 
Q 19.390625 75.984375 28.609375 75.984375 
z
" id="DejaVuSans-102"/>
       <path d="M 4.890625 31.390625 
L 31.203125 31.390625 
L 31.203125 23.390625 
L 4.890625 23.390625 
z
" id="DejaVuSans-45"/>
       <path d="M 56.203125 29.59375 
L 56.203125 25.203125 
L 14.890625 25.203125 
Q 15.484375 15.921875 20.484375 11.0625 
Q 25.484375 6.203125 34.421875 6.203125 
Q 39.59375 6.203125 44.453125 7.46875 
Q 49.3125 8.734375 54.109375 11.28125 
L 54.109375 2.78125 
Q 49.265625 0.734375 44.1875 -0.34375 
Q 39.109375 -1.421875 33.890625 -1.421875 
Q 20.796875 -1.421875 13.15625 6.1875 
Q 5.515625 13.8125 5.515625 26.8125 
Q 5.515625 40.234375 12.765625 48.109375 
Q 20.015625 56 32.328125 56 
Q 43.359375 56 49.78125 48.890625 
Q 56.203125 41.796875 56.203125 29.59375 
z
M 47.21875 32.234375 
Q 47.125 39.59375 43.09375 43.984375 
Q 39.0625 48.390625 32.421875 48.390625 
Q 24.90625 48.390625 20.390625 44.140625 
Q 15.875 39.890625 15.1875 32.171875 
z
" id="DejaVuSans-101"/>
       <path d="M 2.984375 54.6875 
L 12.5 54.6875 
L 29.59375 8.796875 
L 46.6875 54.6875 
L 56.203125 54.6875 
L 35.6875 0 
L 23.484375 0 
z
" id="DejaVuSans-118"/>
       <path d="M 34.28125 27.484375 
Q 23.390625 27.484375 19.1875 25 
Q 14.984375 22.515625 14.984375 16.5 
Q 14.984375 11.71875 18.140625 8.90625 
Q 21.296875 6.109375 26.703125 6.109375 
Q 34.1875 6.109375 38.703125 11.40625 
Q 43.21875 16.703125 43.21875 25.484375 
L 43.21875 27.484375 
z
M 52.203125 31.203125 
L 52.203125 0 
L 43.21875 0 
L 43.21875 8.296875 
Q 40.140625 3.328125 35.546875 0.953125 
Q 30.953125 -1.421875 24.3125 -1.421875 
Q 15.921875 -1.421875 10.953125 3.296875 
Q 6 8.015625 6 15.921875 
Q 6 25.140625 12.171875 29.828125 
Q 18.359375 34.515625 30.609375 34.515625 
L 43.21875 34.515625 
L 43.21875 35.40625 
Q 43.21875 41.609375 39.140625 45 
Q 35.0625 48.390625 27.6875 48.390625 
Q 23 48.390625 18.546875 47.265625 
Q 14.109375 46.140625 10.015625 43.890625 
L 10.015625 52.203125 
Q 14.9375 54.109375 19.578125 55.046875 
Q 24.21875 56 28.609375 56 
Q 40.484375 56 46.34375 49.84375 
Q 52.203125 43.703125 52.203125 31.203125 
z
" id="DejaVuSans-97"/>
       <path d="M 44.28125 53.078125 
L 44.28125 44.578125 
Q 40.484375 46.53125 36.375 47.5 
Q 32.28125 48.484375 27.875 48.484375 
Q 21.1875 48.484375 17.84375 46.4375 
Q 14.5 44.390625 14.5 40.28125 
Q 14.5 37.15625 16.890625 35.375 
Q 19.28125 33.59375 26.515625 31.984375 
L 29.59375 31.296875 
Q 39.15625 29.25 43.1875 25.515625 
Q 47.21875 21.78125 47.21875 15.09375 
Q 47.21875 7.46875 41.1875 3.015625 
Q 35.15625 -1.421875 24.609375 -1.421875 
Q 20.21875 -1.421875 15.453125 -0.5625 
Q 10.6875 0.296875 5.421875 2 
L 5.421875 11.28125 
Q 10.40625 8.6875 15.234375 7.390625 
Q 20.0625 6.109375 24.8125 6.109375 
Q 31.15625 6.109375 34.5625 8.28125 
Q 37.984375 10.453125 37.984375 14.40625 
Q 37.984375 18.0625 35.515625 20.015625 
Q 33.0625 21.96875 24.703125 23.78125 
L 21.578125 24.515625 
Q 13.234375 26.265625 9.515625 29.90625 
Q 5.8125 33.546875 5.8125 39.890625 
Q 5.8125 47.609375 11.28125 51.796875 
Q 16.75 56 26.8125 56 
Q 31.78125 56 36.171875 55.265625 
Q 40.578125 54.546875 44.28125 53.078125 
z
" id="DejaVuSans-115"/>
       <path d="M 25.390625 72.90625 
L 33.6875 72.90625 
L 8.296875 -9.28125 
L 0 -9.28125 
z
" id="DejaVuSans-47"/>
       <path d="M 45.40625 46.390625 
L 45.40625 75.984375 
L 54.390625 75.984375 
L 54.390625 0 
L 45.40625 0 
L 45.40625 8.203125 
Q 42.578125 3.328125 38.25 0.953125 
Q 33.9375 -1.421875 27.875 -1.421875 
Q 17.96875 -1.421875 11.734375 6.484375 
Q 5.515625 14.40625 5.515625 27.296875 
Q 5.515625 40.1875 11.734375 48.09375 
Q 17.96875 56 27.875 56 
Q 33.9375 56 38.25 53.625 
Q 42.578125 51.265625 45.40625 46.390625 
z
M 14.796875 27.296875 
Q 14.796875 17.390625 18.875 11.75 
Q 22.953125 6.109375 30.078125 6.109375 
Q 37.203125 6.109375 41.296875 11.75 
Q 45.40625 17.390625 45.40625 27.296875 
Q 45.40625 37.203125 41.296875 42.84375 
Q 37.203125 48.484375 30.078125 48.484375 
Q 22.953125 48.484375 18.875 42.84375 
Q 14.796875 37.203125 14.796875 27.296875 
z
" id="DejaVuSans-100"/>
       <path d="M 9.421875 54.6875 
L 18.40625 54.6875 
L 18.40625 0 
L 9.421875 0 
z
M 9.421875 75.984375 
L 18.40625 75.984375 
L 18.40625 64.59375 
L 9.421875 64.59375 
z
" id="DejaVuSans-105"/>
       <path d="M 52 44.1875 
Q 55.375 50.25 60.0625 53.125 
Q 64.75 56 71.09375 56 
Q 79.640625 56 84.28125 50.015625 
Q 88.921875 44.046875 88.921875 33.015625 
L 88.921875 0 
L 79.890625 0 
L 79.890625 32.71875 
Q 79.890625 40.578125 77.09375 44.375 
Q 74.3125 48.1875 68.609375 48.1875 
Q 61.625 48.1875 57.5625 43.546875 
Q 53.515625 38.921875 53.515625 30.90625 
L 53.515625 0 
L 44.484375 0 
L 44.484375 32.71875 
Q 44.484375 40.625 41.703125 44.40625 
Q 38.921875 48.1875 33.109375 48.1875 
Q 26.21875 48.1875 22.15625 43.53125 
Q 18.109375 38.875 18.109375 30.90625 
L 18.109375 0 
L 9.078125 0 
L 9.078125 54.6875 
L 18.109375 54.6875 
L 18.109375 46.1875 
Q 21.1875 51.21875 25.484375 53.609375 
Q 29.78125 56 35.6875 56 
Q 41.65625 56 45.828125 52.96875 
Q 50 49.953125 52 44.1875 
z
" id="DejaVuSans-109"/>
       <path d="M 54.890625 33.015625 
L 54.890625 0 
L 45.90625 0 
L 45.90625 32.71875 
Q 45.90625 40.484375 42.875 44.328125 
Q 39.84375 48.1875 33.796875 48.1875 
Q 26.515625 48.1875 22.3125 43.546875 
Q 18.109375 38.921875 18.109375 30.90625 
L 18.109375 0 
L 9.078125 0 
L 9.078125 54.6875 
L 18.109375 54.6875 
L 18.109375 46.1875 
Q 21.34375 51.125 25.703125 53.5625 
Q 30.078125 56 35.796875 56 
Q 45.21875 56 50.046875 50.171875 
Q 54.890625 44.34375 54.890625 33.015625 
z
" id="DejaVuSans-110"/>
       <path d="M 8.015625 75.875 
L 15.828125 75.875 
Q 23.140625 64.359375 26.78125 53.3125 
Q 30.421875 42.28125 30.421875 31.390625 
Q 30.421875 20.453125 26.78125 9.375 
Q 23.140625 -1.703125 15.828125 -13.1875 
L 8.015625 -13.1875 
Q 14.5 -2 17.703125 9.0625 
Q 20.90625 20.125 20.90625 31.390625 
Q 20.90625 42.671875 17.703125 53.65625 
Q 14.5 64.65625 8.015625 75.875 
z
" id="DejaVuSans-41"/>
      </defs>
      <use xlink:href="#DejaVuSans-108"/>
      <use x="27.783203" xlink:href="#DejaVuSans-111"/>
      <use x="88.964844" xlink:href="#DejaVuSans-103"/>
      <use x="152.441406" xlink:href="#DejaVuSans-49"/>
      <use x="216.064453" xlink:href="#DejaVuSans-48"/>
      <use x="279.6875" xlink:href="#DejaVuSans-40"/>
      <use x="318.701172" xlink:href="#DejaVuSans-35"/>
      <use x="402.490234" xlink:href="#DejaVuSans-32"/>
      <use x="434.277344" xlink:href="#DejaVuSans-102"/>
      <use x="463.982422" xlink:href="#DejaVuSans-45"/>
      <use x="500.066406" xlink:href="#DejaVuSans-101"/>
      <use x="561.589844" xlink:href="#DejaVuSans-118"/>
      <use x="620.769531" xlink:href="#DejaVuSans-97"/>
      <use x="682.048828" xlink:href="#DejaVuSans-108"/>
      <use x="709.832031" xlink:href="#DejaVuSans-115"/>
      <use x="761.931641" xlink:href="#DejaVuSans-32"/>
      <use x="793.71875" xlink:href="#DejaVuSans-47"/>
      <use x="827.410156" xlink:href="#DejaVuSans-32"/>
      <use x="859.197266" xlink:href="#DejaVuSans-100"/>
      <use x="922.673828" xlink:href="#DejaVuSans-105"/>
      <use x="950.457031" xlink:href="#DejaVuSans-109"/>
      <use x="1047.869141" xlink:href="#DejaVuSans-101"/>
      <use x="1109.392578" xlink:href="#DejaVuSans-110"/>
      <use x="1172.771484" xlink:href="#DejaVuSans-115"/>
      <use x="1224.871094" xlink:href="#DejaVuSans-105"/>
      <use x="1252.654297" xlink:href="#DejaVuSans-111"/>
      <use x="1313.835938" xlink:href="#DejaVuSans-110"/>
      <use x="1377.214844" xlink:href="#DejaVuSans-41"/>
     </g>
    </g>
   </g>
   <g id="matplotlib.axis_2">
    <g id="ytick_1">
     <g id="line2d_9">
      <path clip-path="url(#p21740ca1d2)" d="M 57.6 298.944 
L 338.688 298.944 
" style="fill:none;stroke:#b0b0b0;stroke-linecap:square;stroke-width:0.8;"/>
     </g>
     <g id="line2d_10">
      <defs>
       <path d="M 0 0 
L -3.5 0 
" id="m2bbc5cbf44" style="stroke:#000000;stroke-width:0.8;"/>
      </defs>
      <g>
       <use style="stroke:#000000;stroke-width:0.8;" x="57.6" xlink:href="#m2bbc5cbf44" y="298.944"/>
      </g>
     </g>
     <g id="text_3">
      <!-- 0.0 -->
      <g transform="translate(25.155 305.02275)scale(0.16 -0.16)">
       <defs>
        <path d="M 10.6875 12.40625 
L 21 12.40625 
L 21 0 
L 10.6875 0 
z
" id="DejaVuSans-46"/>
       </defs>
       <use xlink:href="#DejaVuSans-48"/>
       <use x="63.623047" xlink:href="#DejaVuSans-46"/>
       <use x="95.410156" xlink:href="#DejaVuSans-48"/>
      </g>
     </g>
    </g>
    <g id="ytick_2">
     <g id="line2d_11">
      <path clip-path="url(#p21740ca1d2)" d="M 57.6 240.431525 
L 338.688 240.431525 
" style="fill:none;stroke:#b0b0b0;stroke-linecap:square;stroke-width:0.8;"/>
     </g>
     <g id="line2d_12">
      <g>
       <use style="stroke:#000000;stroke-width:0.8;" x="57.6" xlink:href="#m2bbc5cbf44" y="240.431525"/>
      </g>
     </g>
     <g id="text_4">
      <!-- 0.2 -->
      <g transform="translate(25.155 246.510275)scale(0.16 -0.16)">
       <defs>
        <path d="M 19.1875 8.296875 
L 53.609375 8.296875 
L 53.609375 0 
L 7.328125 0 
L 7.328125 8.296875 
Q 12.9375 14.109375 22.625 23.890625 
Q 32.328125 33.6875 34.8125 36.53125 
Q 39.546875 41.84375 41.421875 45.53125 
Q 43.3125 49.21875 43.3125 52.78125 
Q 43.3125 58.59375 39.234375 62.25 
Q 35.15625 65.921875 28.609375 65.921875 
Q 23.96875 65.921875 18.8125 64.3125 
Q 13.671875 62.703125 7.8125 59.421875 
L 7.8125 69.390625 
Q 13.765625 71.78125 18.9375 73 
Q 24.125 74.21875 28.421875 74.21875 
Q 39.75 74.21875 46.484375 68.546875 
Q 53.21875 62.890625 53.21875 53.421875 
Q 53.21875 48.921875 51.53125 44.890625 
Q 49.859375 40.875 45.40625 35.40625 
Q 44.1875 33.984375 37.640625 27.21875 
Q 31.109375 20.453125 19.1875 8.296875 
z
" id="DejaVuSans-50"/>
       </defs>
       <use xlink:href="#DejaVuSans-48"/>
       <use x="63.623047" xlink:href="#DejaVuSans-46"/>
       <use x="95.410156" xlink:href="#DejaVuSans-50"/>
      </g>
     </g>
    </g>
    <g id="ytick_3">
     <g id="line2d_13">
      <path clip-path="url(#p21740ca1d2)" d="M 57.6 181.91905 
L 338.688 181.91905 
" style="fill:none;stroke:#b0b0b0;stroke-linecap:square;stroke-width:0.8;"/>
     </g>
     <g id="line2d_14">
      <g>
       <use style="stroke:#000000;stroke-width:0.8;" x="57.6" xlink:href="#m2bbc5cbf44" y="181.91905"/>
      </g>
     </g>
     <g id="text_5">
      <!-- 0.4 -->
      <g transform="translate(25.155 187.9978)scale(0.16 -0.16)">
       <defs>
        <path d="M 37.796875 64.3125 
L 12.890625 25.390625 
L 37.796875 25.390625 
z
M 35.203125 72.90625 
L 47.609375 72.90625 
L 47.609375 25.390625 
L 58.015625 25.390625 
L 58.015625 17.1875 
L 47.609375 17.1875 
L 47.609375 0 
L 37.796875 0 
L 37.796875 17.1875 
L 4.890625 17.1875 
L 4.890625 26.703125 
z
" id="DejaVuSans-52"/>
       </defs>
       <use xlink:href="#DejaVuSans-48"/>
       <use x="63.623047" xlink:href="#DejaVuSans-46"/>
       <use x="95.410156" xlink:href="#DejaVuSans-52"/>
      </g>
     </g>
    </g>
    <g id="ytick_4">
     <g id="line2d_15">
      <path clip-path="url(#p21740ca1d2)" d="M 57.6 123.406574 
L 338.688 123.406574 
" style="fill:none;stroke:#b0b0b0;stroke-linecap:square;stroke-width:0.8;"/>
     </g>
     <g id="line2d_16">
      <g>
       <use style="stroke:#000000;stroke-width:0.8;" x="57.6" xlink:href="#m2bbc5cbf44" y="123.406574"/>
      </g>
     </g>
     <g id="text_6">
      <!-- 0.6 -->
      <g transform="translate(25.155 129.485324)scale(0.16 -0.16)">
       <defs>
        <path d="M 33.015625 40.375 
Q 26.375 40.375 22.484375 35.828125 
Q 18.609375 31.296875 18.609375 23.390625 
Q 18.609375 15.53125 22.484375 10.953125 
Q 26.375 6.390625 33.015625 6.390625 
Q 39.65625 6.390625 43.53125 10.953125 
Q 47.40625 15.53125 47.40625 23.390625 
Q 47.40625 31.296875 43.53125 35.828125 
Q 39.65625 40.375 33.015625 40.375 
z
M 52.59375 71.296875 
L 52.59375 62.3125 
Q 48.875 64.0625 45.09375 64.984375 
Q 41.3125 65.921875 37.59375 65.921875 
Q 27.828125 65.921875 22.671875 59.328125 
Q 17.53125 52.734375 16.796875 39.40625 
Q 19.671875 43.65625 24.015625 45.921875 
Q 28.375 48.1875 33.59375 48.1875 
Q 44.578125 48.1875 50.953125 41.515625 
Q 57.328125 34.859375 57.328125 23.390625 
Q 57.328125 12.15625 50.6875 5.359375 
Q 44.046875 -1.421875 33.015625 -1.421875 
Q 20.359375 -1.421875 13.671875 8.265625 
Q 6.984375 17.96875 6.984375 36.375 
Q 6.984375 53.65625 15.1875 63.9375 
Q 23.390625 74.21875 37.203125 74.21875 
Q 40.921875 74.21875 44.703125 73.484375 
Q 48.484375 72.75 52.59375 71.296875 
z
" id="DejaVuSans-54"/>
       </defs>
       <use xlink:href="#DejaVuSans-48"/>
       <use x="63.623047" xlink:href="#DejaVuSans-46"/>
       <use x="95.410156" xlink:href="#DejaVuSans-54"/>
      </g>
     </g>
    </g>
    <g id="ytick_5">
     <g id="line2d_17">
      <path clip-path="url(#p21740ca1d2)" d="M 57.6 64.894099 
L 338.688 64.894099 
" style="fill:none;stroke:#b0b0b0;stroke-linecap:square;stroke-width:0.8;"/>
     </g>
     <g id="line2d_18">
      <g>
       <use style="stroke:#000000;stroke-width:0.8;" x="57.6" xlink:href="#m2bbc5cbf44" y="64.894099"/>
      </g>
     </g>
     <g id="text_7">
      <!-- 0.8 -->
      <g transform="translate(25.155 70.972849)scale(0.16 -0.16)">
       <defs>
        <path d="M 31.78125 34.625 
Q 24.75 34.625 20.71875 30.859375 
Q 16.703125 27.09375 16.703125 20.515625 
Q 16.703125 13.921875 20.71875 10.15625 
Q 24.75 6.390625 31.78125 6.390625 
Q 38.8125 6.390625 42.859375 10.171875 
Q 46.921875 13.96875 46.921875 20.515625 
Q 46.921875 27.09375 42.890625 30.859375 
Q 38.875 34.625 31.78125 34.625 
z
M 21.921875 38.8125 
Q 15.578125 40.375 12.03125 44.71875 
Q 8.5 49.078125 8.5 55.328125 
Q 8.5 64.0625 14.71875 69.140625 
Q 20.953125 74.21875 31.78125 74.21875 
Q 42.671875 74.21875 48.875 69.140625 
Q 55.078125 64.0625 55.078125 55.328125 
Q 55.078125 49.078125 51.53125 44.71875 
Q 48 40.375 41.703125 38.8125 
Q 48.828125 37.15625 52.796875 32.3125 
Q 56.78125 27.484375 56.78125 20.515625 
Q 56.78125 9.90625 50.3125 4.234375 
Q 43.84375 -1.421875 31.78125 -1.421875 
Q 19.734375 -1.421875 13.25 4.234375 
Q 6.78125 9.90625 6.78125 20.515625 
Q 6.78125 27.484375 10.78125 32.3125 
Q 14.796875 37.15625 21.921875 38.8125 
z
M 18.3125 54.390625 
Q 18.3125 48.734375 21.84375 45.5625 
Q 25.390625 42.390625 31.78125 42.390625 
Q 38.140625 42.390625 41.71875 45.5625 
Q 45.3125 48.734375 45.3125 54.390625 
Q 45.3125 60.0625 41.71875 63.234375 
Q 38.140625 66.40625 31.78125 66.40625 
Q 25.390625 66.40625 21.84375 63.234375 
Q 18.3125 60.0625 18.3125 54.390625 
z
" id="DejaVuSans-56"/>
       </defs>
       <use xlink:href="#DejaVuSans-48"/>
       <use x="63.623047" xlink:href="#DejaVuSans-46"/>
       <use x="95.410156" xlink:href="#DejaVuSans-56"/>
      </g>
     </g>
    </g>
    <g id="ytick_6">
     <g id="line2d_19">
      <path clip-path="url(#p21740ca1d2)" d="M 57.6 6.381624 
L 338.688 6.381624 
" style="fill:none;stroke:#b0b0b0;stroke-linecap:square;stroke-width:0.8;"/>
     </g>
     <g id="line2d_20">
      <g>
       <use style="stroke:#000000;stroke-width:0.8;" x="57.6" xlink:href="#m2bbc5cbf44" y="6.381624"/>
      </g>
     </g>
     <g id="text_8">
      <!-- 1.0 -->
      <g transform="translate(25.155 12.460374)scale(0.16 -0.16)">
       <use xlink:href="#DejaVuSans-49"/>
       <use x="63.623047" xlink:href="#DejaVuSans-46"/>
       <use x="95.410156" xlink:href="#DejaVuSans-48"/>
      </g>
     </g>
    </g>
    <g id="text_9">
     <!-- Fraction of function,target pairs -->
     <g transform="translate(17.619531 285.585)rotate(-90)scale(0.17 -0.17)">
      <defs>
       <path d="M 9.8125 72.90625 
L 51.703125 72.90625 
L 51.703125 64.59375 
L 19.671875 64.59375 
L 19.671875 43.109375 
L 48.578125 43.109375 
L 48.578125 34.8125 
L 19.671875 34.8125 
L 19.671875 0 
L 9.8125 0 
z
" id="DejaVuSans-70"/>
       <path d="M 41.109375 46.296875 
Q 39.59375 47.171875 37.8125 47.578125 
Q 36.03125 48 33.890625 48 
Q 26.265625 48 22.1875 43.046875 
Q 18.109375 38.09375 18.109375 28.8125 
L 18.109375 0 
L 9.078125 0 
L 9.078125 54.6875 
L 18.109375 54.6875 
L 18.109375 46.1875 
Q 20.953125 51.171875 25.484375 53.578125 
Q 30.03125 56 36.53125 56 
Q 37.453125 56 38.578125 55.875 
Q 39.703125 55.765625 41.0625 55.515625 
z
" id="DejaVuSans-114"/>
       <path d="M 48.78125 52.59375 
L 48.78125 44.1875 
Q 44.96875 46.296875 41.140625 47.34375 
Q 37.3125 48.390625 33.40625 48.390625 
Q 24.65625 48.390625 19.8125 42.84375 
Q 14.984375 37.3125 14.984375 27.296875 
Q 14.984375 17.28125 19.8125 11.734375 
Q 24.65625 6.203125 33.40625 6.203125 
Q 37.3125 6.203125 41.140625 7.25 
Q 44.96875 8.296875 48.78125 10.40625 
L 48.78125 2.09375 
Q 45.015625 0.34375 40.984375 -0.53125 
Q 36.96875 -1.421875 32.421875 -1.421875 
Q 20.0625 -1.421875 12.78125 6.34375 
Q 5.515625 14.109375 5.515625 27.296875 
Q 5.515625 40.671875 12.859375 48.328125 
Q 20.21875 56 33.015625 56 
Q 37.15625 56 41.109375 55.140625 
Q 45.0625 54.296875 48.78125 52.59375 
z
" id="DejaVuSans-99"/>
       <path d="M 18.3125 70.21875 
L 18.3125 54.6875 
L 36.8125 54.6875 
L 36.8125 47.703125 
L 18.3125 47.703125 
L 18.3125 18.015625 
Q 18.3125 11.328125 20.140625 9.421875 
Q 21.96875 7.515625 27.59375 7.515625 
L 36.8125 7.515625 
L 36.8125 0 
L 27.59375 0 
Q 17.1875 0 13.234375 3.875 
Q 9.28125 7.765625 9.28125 18.015625 
L 9.28125 47.703125 
L 2.6875 47.703125 
L 2.6875 54.6875 
L 9.28125 54.6875 
L 9.28125 70.21875 
z
" id="DejaVuSans-116"/>
       <path d="M 8.5 21.578125 
L 8.5 54.6875 
L 17.484375 54.6875 
L 17.484375 21.921875 
Q 17.484375 14.15625 20.5 10.265625 
Q 23.53125 6.390625 29.59375 6.390625 
Q 36.859375 6.390625 41.078125 11.03125 
Q 45.3125 15.671875 45.3125 23.6875 
L 45.3125 54.6875 
L 54.296875 54.6875 
L 54.296875 0 
L 45.3125 0 
L 45.3125 8.40625 
Q 42.046875 3.421875 37.71875 1 
Q 33.40625 -1.421875 27.6875 -1.421875 
Q 18.265625 -1.421875 13.375 4.4375 
Q 8.5 10.296875 8.5 21.578125 
z
M 31.109375 56 
z
" id="DejaVuSans-117"/>
       <path d="M 11.71875 12.40625 
L 22.015625 12.40625 
L 22.015625 4 
L 14.015625 -11.625 
L 7.71875 -11.625 
L 11.71875 4 
z
" id="DejaVuSans-44"/>
       <path d="M 18.109375 8.203125 
L 18.109375 -20.796875 
L 9.078125 -20.796875 
L 9.078125 54.6875 
L 18.109375 54.6875 
L 18.109375 46.390625 
Q 20.953125 51.265625 25.265625 53.625 
Q 29.59375 56 35.59375 56 
Q 45.5625 56 51.78125 48.09375 
Q 58.015625 40.1875 58.015625 27.296875 
Q 58.015625 14.40625 51.78125 6.484375 
Q 45.5625 -1.421875 35.59375 -1.421875 
Q 29.59375 -1.421875 25.265625 0.953125 
Q 20.953125 3.328125 18.109375 8.203125 
z
M 48.6875 27.296875 
Q 48.6875 37.203125 44.609375 42.84375 
Q 40.53125 48.484375 33.40625 48.484375 
Q 26.265625 48.484375 22.1875 42.84375 
Q 18.109375 37.203125 18.109375 27.296875 
Q 18.109375 17.390625 22.1875 11.75 
Q 26.265625 6.109375 33.40625 6.109375 
Q 40.53125 6.109375 44.609375 11.75 
Q 48.6875 17.390625 48.6875 27.296875 
z
" id="DejaVuSans-112"/>
      </defs>
      <use xlink:href="#DejaVuSans-70"/>
      <use x="50.269531" xlink:href="#DejaVuSans-114"/>
      <use x="91.382812" xlink:href="#DejaVuSans-97"/>
      <use x="152.662109" xlink:href="#DejaVuSans-99"/>
      <use x="207.642578" xlink:href="#DejaVuSans-116"/>
      <use x="246.851562" xlink:href="#DejaVuSans-105"/>
      <use x="274.634766" xlink:href="#DejaVuSans-111"/>
      <use x="335.816406" xlink:href="#DejaVuSans-110"/>
      <use x="399.195312" xlink:href="#DejaVuSans-32"/>
      <use x="430.982422" xlink:href="#DejaVuSans-111"/>
      <use x="492.164062" xlink:href="#DejaVuSans-102"/>
      <use x="527.369141" xlink:href="#DejaVuSans-32"/>
      <use x="559.15625" xlink:href="#DejaVuSans-102"/>
      <use x="594.361328" xlink:href="#DejaVuSans-117"/>
      <use x="657.740234" xlink:href="#DejaVuSans-110"/>
      <use x="721.119141" xlink:href="#DejaVuSans-99"/>
      <use x="776.099609" xlink:href="#DejaVuSans-116"/>
      <use x="815.308594" xlink:href="#DejaVuSans-105"/>
      <use x="843.091797" xlink:href="#DejaVuSans-111"/>
      <use x="904.273438" xlink:href="#DejaVuSans-110"/>
      <use x="967.652344" xlink:href="#DejaVuSans-44"/>
      <use x="999.439453" xlink:href="#DejaVuSans-116"/>
      <use x="1038.648438" xlink:href="#DejaVuSans-97"/>
      <use x="1099.927734" xlink:href="#DejaVuSans-114"/>
      <use x="1139.291016" xlink:href="#DejaVuSans-103"/>
      <use x="1202.767578" xlink:href="#DejaVuSans-101"/>
      <use x="1264.291016" xlink:href="#DejaVuSans-116"/>
      <use x="1303.5" xlink:href="#DejaVuSans-32"/>
      <use x="1335.287109" xlink:href="#DejaVuSans-112"/>
      <use x="1398.763672" xlink:href="#DejaVuSans-97"/>
      <use x="1460.042969" xlink:href="#DejaVuSans-105"/>
      <use x="1487.826172" xlink:href="#DejaVuSans-114"/>
      <use x="1528.939453" xlink:href="#DejaVuSans-115"/>
     </g>
    </g>
   </g>
   <g id="line2d_21">
    <defs>
     <path d="M 0 1.5 
C 0.397805 1.5 0.77937 1.341951 1.06066 1.06066 
C 1.341951 0.77937 1.5 0.397805 1.5 0 
C 1.5 -0.397805 1.341951 -0.77937 1.06066 -1.06066 
C 0.77937 -1.341951 0.397805 -1.5 0 -1.5 
C -0.397805 -1.5 -0.77937 -1.341951 -1.06066 -1.06066 
C -1.341951 -0.77937 -1.5 -0.397805 -1.5 0 
C -1.5 0.397805 -1.341951 0.77937 -1.06066 1.06066 
C -0.77937 1.341951 -0.397805 1.5 0 1.5 
z
" id="m34b64eb825" style="stroke:#f5deb3;"/>
    </defs>
    <g>
     <use style="fill:#f5deb3;stroke:#f5deb3;" x="325.90247" xlink:href="#m34b64eb825" y="6.381624"/>
     <use style="fill:#f5deb3;stroke:#f5deb3;" x="325.90247" xlink:href="#m34b64eb825" y="6.381624"/>
    </g>
   </g>
   <g id="line2d_22">
    <defs>
     <path d="M 0 1.5 
C 0.397805 1.5 0.77937 1.341951 1.06066 1.06066 
C 1.341951 0.77937 1.5 0.397805 1.5 0 
C 1.5 -0.397805 1.341951 -0.77937 1.06066 -1.06066 
C 0.77937 -1.341951 0.397805 -1.5 0 -1.5 
C -0.397805 -1.5 -0.77937 -1.341951 -1.06066 -1.06066 
C -1.341951 -0.77937 -1.5 -0.397805 -1.5 0 
C -1.5 0.397805 -1.341951 0.77937 -1.06066 1.06066 
C -0.77937 1.341951 -0.397805 1.5 0 1.5 
z
" id="m60de281aad" style="stroke:#6495ed;"/>
    </defs>
    <g>
     <use style="fill:#6495ed;stroke:#6495ed;" x="402.07723" xlink:href="#m60de281aad" y="8.963056"/>
     <use style="fill:#6495ed;stroke:#6495ed;" x="402.07723" xlink:href="#m60de281aad" y="8.963056"/>
    </g>
   </g>
   <g id="line2d_23">
    <path d="M -1 288.618269 
L 0.315658 288.618269 
L 0.315658 287.757791 
L 8.192457 287.757791 
L 8.192457 285.176359 
L 15.383411 285.176359 
L 15.383411 284.315881 
L 21.998447 284.315881 
L 21.998447 283.455404 
L 44.168812 283.455404 
L 44.168812 282.594926 
L 48.892603 282.594926 
L 48.892603 280.873971 
L 65.476799 280.873971 
L 65.476799 280.013493 
L 72.667753 280.013493 
L 72.667753 278.292538 
L 79.282789 278.292538 
L 79.282789 277.432061 
L 82.401795 277.432061 
L 82.401795 273.99015 
L 85.407356 273.99015 
L 85.407356 271.408718 
L 88.307438 271.408718 
L 88.307438 270.54824 
L 91.109192 270.54824 
L 91.109192 269.687762 
L 93.819069 269.687762 
L 93.819069 268.827285 
L 98.985991 268.827285 
L 98.985991 267.10633 
L 101.453154 267.10633 
L 101.453154 266.245852 
L 108.441301 266.245852 
L 108.441301 265.385374 
L 114.884342 265.385374 
L 114.884342 264.524897 
L 116.925034 264.524897 
L 116.925034 263.664419 
L 118.916549 263.664419 
L 118.916549 261.943464 
L 120.861199 261.943464 
L 120.861199 261.082987 
L 122.761141 261.082987 
L 122.761141 260.222509 
L 124.618384 260.222509 
L 124.618384 258.501554 
L 133.325781 258.501554 
L 133.325781 256.780599 
L 138.141347 256.780599 
L 138.141347 255.059644 
L 139.686137 255.059644 
L 139.686137 254.199166 
L 141.20258 254.199166 
L 141.20258 251.617733 
L 147.00453 251.617733 
L 147.00453 249.896778 
L 149.759579 249.896778 
L 149.759579 249.036301 
L 153.727245 249.036301 
L 153.727245 244.733913 
L 155.008571 244.733913 
L 155.008571 243.012957 
L 156.270333 243.012957 
L 156.270333 241.292002 
L 157.513121 241.292002 
L 157.513121 240.431525 
L 158.737497 240.431525 
L 158.737497 238.71057 
L 161.133138 238.71057 
L 161.133138 236.989614 
L 164.60122 236.989614 
L 164.60122 236.129137 
L 165.725644 236.129137 
L 165.725644 235.268659 
L 169.009937 235.268659 
L 169.009937 234.408182 
L 170.076324 234.408182 
L 170.076324 231.826749 
L 171.129126 231.826749 
L 171.129126 230.966271 
L 173.195329 230.966271 
L 173.195329 229.245316 
L 174.209377 229.245316 
L 174.209377 228.384839 
L 175.211132 228.384839 
L 175.211132 226.663884 
L 176.200891 226.663884 
L 176.200891 224.942928 
L 178.145541 224.942928 
L 178.145541 224.082451 
L 180.045483 224.082451 
L 180.045483 223.221973 
L 180.979322 223.221973 
L 180.979322 221.501018 
L 181.902726 221.501018 
L 181.902726 220.64054 
L 182.815927 220.64054 
L 182.815927 219.780063 
L 183.719147 219.780063 
L 183.719147 218.059108 
L 185.496503 218.059108 
L 185.496503 216.338153 
L 186.371049 216.338153 
L 186.371049 215.477675 
L 187.236437 215.477675 
L 187.236437 214.617197 
L 188.092858 214.617197 
L 188.092858 213.75672 
L 189.779525 213.75672 
L 189.779525 212.035765 
L 194.64233 212.035765 
L 194.64233 211.175287 
L 195.42569 211.175287 
L 195.42569 210.31481 
L 196.201694 210.31481 
L 196.201694 209.454332 
L 196.970479 209.454332 
L 196.970479 208.593854 
L 197.732179 208.593854 
L 197.732179 206.872899 
L 199.234836 206.872899 
L 199.234836 205.151944 
L 199.976041 205.151944 
L 199.976041 203.430989 
L 200.710658 203.430989 
L 200.710658 202.570511 
L 201.438802 202.570511 
L 201.438802 200.849556 
L 204.288872 200.849556 
L 204.288872 199.989079 
L 204.986292 199.989079 
L 204.986292 199.128601 
L 206.363721 199.128601 
L 206.363721 198.268123 
L 209.051563 198.268123 
L 209.051563 197.407646 
L 209.710083 197.407646 
L 209.710083 196.547168 
L 211.654733 196.547168 
L 211.654733 195.686691 
L 212.926202 195.686691 
L 212.926202 194.826213 
L 216.021839 194.826213 
L 216.021839 193.965736 
L 216.627291 193.965736 
L 216.627291 193.105258 
L 222.449686 193.105258 
L 222.449686 192.24478 
L 225.213952 192.24478 
L 225.213952 191.384303 
L 227.888743 191.384303 
L 227.888743 190.523825 
L 228.413468 190.523825 
L 228.413468 189.663348 
L 229.453027 189.663348 
L 229.453027 188.80287 
L 229.967943 188.80287 
L 229.967943 187.942393 
L 234.463278 187.942393 
L 234.463278 187.081915 
L 234.947994 187.081915 
L 234.947994 186.221437 
L 236.385314 186.221437 
L 236.385314 185.36096 
L 239.187069 185.36096 
L 239.187069 184.500482 
L 239.64493 184.500482 
L 239.64493 183.640005 
L 240.553113 183.640005 
L 240.553113 182.779527 
L 241.00349 182.779527 
L 241.00349 181.058572 
L 241.451425 181.058572 
L 241.451425 180.198094 
L 244.950099 180.198094 
L 244.950099 179.337617 
L 245.3772 179.337617 
L 245.3772 178.477139 
L 245.802105 178.477139 
L 245.802105 176.756184 
L 246.224837 176.756184 
L 246.224837 175.895706 
L 247.894466 175.895706 
L 247.894466 175.035229 
L 249.531031 175.035229 
L 249.531031 174.174751 
L 251.135816 174.174751 
L 251.135816 172.453796 
L 251.926672 172.453796 
L 251.926672 170.732841 
L 252.31928 170.732841 
L 252.31928 169.872363 
L 252.710032 169.872363 
L 252.710032 169.011886 
L 253.098945 169.011886 
L 253.098945 167.290931 
L 253.486036 167.290931 
L 253.486036 166.430453 
L 253.871323 166.430453 
L 253.871323 165.569976 
L 256.890611 165.569976 
L 256.890611 164.709498 
L 257.995 164.709498 
L 257.995 162.988543 
L 259.444929 162.988543 
L 259.444929 162.128065 
L 259.803471 162.128065 
L 259.803471 161.267588 
L 261.573214 161.267588 
L 261.573214 160.40711 
L 261.92266 160.40711 
L 261.92266 159.546632 
L 262.270634 159.546632 
L 262.270634 158.686155 
L 262.61715 158.686155 
L 262.61715 157.825677 
L 262.962219 157.825677 
L 262.962219 156.104722 
L 263.305853 156.104722 
L 263.305853 155.244245 
L 263.648064 155.244245 
L 263.648064 154.383767 
L 264.328264 154.383767 
L 264.328264 151.802334 
L 264.666276 151.802334 
L 264.666276 150.941857 
L 265.672095 150.941857 
L 265.672095 150.081379 
L 266.665821 150.081379 
L 266.665821 149.220902 
L 266.994425 149.220902 
L 266.994425 148.360424 
L 267.97247 148.360424 
L 267.97247 147.499946 
L 268.29593 147.499946 
L 268.29593 146.639469 
L 268.618128 146.639469 
L 268.618128 144.918514 
L 269.258781 144.918514 
L 269.258781 144.058036 
L 269.577255 144.058036 
L 269.577255 142.337081 
L 269.894506 142.337081 
L 269.894506 141.476603 
L 272.081805 141.476603 
L 272.081805 140.616126 
L 272.696261 140.616126 
L 272.696261 138.895171 
L 274.212704 138.895171 
L 274.212704 138.034693 
L 275.109391 138.034693 
L 275.109391 137.174215 
L 276.290037 137.174215 
L 276.290037 135.45326 
L 277.164583 135.45326 
L 277.164583 134.592783 
L 278.029972 134.592783 
L 278.029972 133.732305 
L 278.316432 133.732305 
L 278.316432 132.871828 
L 279.734029 132.871828 
L 279.734029 132.01135 
L 281.127718 132.01135 
L 281.127718 131.150872 
L 281.403658 131.150872 
L 281.403658 130.290395 
L 282.225991 130.290395 
L 282.225991 129.429917 
L 282.498294 129.429917 
L 282.498294 128.56944 
L 285.69781 128.56944 
L 285.69781 127.708962 
L 286.737369 127.708962 
L 286.737369 126.848485 
L 287.252285 126.848485 
L 287.252285 125.988007 
L 288.272593 125.988007 
L 288.272593 125.127529 
L 288.525713 125.127529 
L 288.525713 124.267052 
L 289.779817 124.267052 
L 289.779817 123.406574 
L 290.769575 123.406574 
L 290.769575 122.546097 
L 291.260044 122.546097 
L 291.260044 121.685619 
L 292.473632 121.685619 
L 292.473632 119.104186 
L 293.669656 119.104186 
L 293.669656 118.243709 
L 294.614168 118.243709 
L 294.614168 117.383231 
L 296.241525 117.383231 
L 296.241525 116.522754 
L 296.700659 116.522754 
L 296.700659 115.662276 
L 297.157256 115.662276 
L 297.157256 113.080843 
L 297.384612 113.080843 
L 297.384612 111.359888 
L 298.512103 111.359888 
L 298.512103 110.499411 
L 299.624419 110.499411 
L 299.624419 109.638933 
L 300.721963 109.638933 
L 300.721963 108.778455 
L 301.156931 108.778455 
L 301.156931 107.0575 
L 301.37356 107.0575 
L 301.37356 106.197023 
L 301.805122 106.197023 
L 301.805122 105.336545 
L 302.661542 105.336545 
L 302.661542 104.476068 
L 302.874268 104.476068 
L 302.874268 103.61559 
L 303.298083 103.61559 
L 303.298083 102.755112 
L 303.509179 102.755112 
L 303.509179 101.894635 
L 304.97194 101.894635 
L 304.97194 101.034157 
L 305.178808 101.034157 
L 305.178808 100.17368 
L 305.38516 100.17368 
L 305.38516 99.313202 
L 306.001141 99.313202 
L 306.001141 98.452725 
L 306.40926 98.452725 
L 306.40926 97.592247 
L 307.82201 97.592247 
L 307.82201 96.731769 
L 308.816532 96.731769 
L 308.816532 95.871292 
L 309.211014 95.871292 
L 309.211014 95.010814 
L 309.407551 95.010814 
L 309.407551 94.150337 
L 310.383287 94.150337 
L 310.383287 93.289859 
L 311.155665 93.289859 
L 311.155665 89.847949 
L 312.111096 89.847949 
L 312.111096 88.987471 
L 313.989445 88.987471 
L 313.989445 87.266516 
L 314.360046 87.266516 
L 314.360046 86.406038 
L 314.728993 86.406038 
L 314.728993 85.545561 
L 316.188524 85.545561 
L 316.188524 84.685083 
L 316.549415 84.685083 
L 316.549415 83.824606 
L 317.266503 83.824606 
L 317.266503 82.964128 
L 317.444807 82.964128 
L 317.444807 82.103651 
L 318.1542 82.103651 
L 318.1542 81.243173 
L 318.682277 81.243173 
L 318.682277 80.382695 
L 319.728416 80.382695 
L 319.728416 79.522218 
L 319.901492 79.522218 
L 319.901492 78.66174 
L 320.932406 78.66174 
L 320.932406 76.080308 
L 321.44308 76.080308 
L 321.44308 75.21983 
L 322.455058 75.21983 
L 322.455058 74.359352 
L 323.454794 74.359352 
L 323.454794 73.498875 
L 323.78537 73.498875 
L 323.78537 72.638397 
L 324.278767 72.638397 
L 324.278767 71.77792 
L 324.769237 71.77792 
L 324.769237 70.917442 
L 325.580272 70.917442 
L 325.580272 70.056964 
L 326.383425 70.056964 
L 326.383425 69.196487 
L 326.543124 69.196487 
L 326.543124 68.336009 
L 327.178848 68.336009 
L 327.178848 67.475532 
L 327.809721 67.475532 
L 327.809721 66.615054 
L 328.90229 66.615054 
L 328.90229 65.754577 
L 329.366148 65.754577 
L 329.366148 64.894099 
L 329.980603 64.894099 
L 329.980603 64.033621 
L 330.438465 64.033621 
L 330.438465 63.173144 
L 330.590523 63.173144 
L 330.590523 62.312666 
L 330.893804 62.312666 
L 330.893804 61.452189 
L 331.346648 61.452189 
L 331.346648 60.591711 
L 331.797024 60.591711 
L 331.797024 59.731234 
L 332.095917 59.731234 
L 332.095917 58.870756 
L 332.393733 58.870756 
L 332.393733 58.010278 
L 332.838454 58.010278 
L 332.838454 57.149801 
L 332.986164 57.149801 
L 332.986164 56.289323 
L 333.133611 56.289323 
L 333.133611 55.428846 
L 334.158437 55.428846 
L 334.158437 54.568368 
L 334.448925 54.568368 
L 334.448925 53.707891 
L 334.882752 53.707891 
L 334.882752 52.847413 
L 335.314314 52.847413 
L 335.314314 51.986935 
L 335.600774 51.986935 
L 335.600774 51.126458 
L 335.743633 51.126458 
L 335.743633 50.26598 
L 336.454247 50.26598 
L 336.454247 49.405503 
L 337.018371 49.405503 
L 337.018371 47.684547 
L 337.158802 47.684547 
L 337.158802 46.82407 
L 338.273744 46.82407 
L 338.273744 45.963592 
L 338.688 45.963592 
L 338.688 45.963592 
" style="fill:none;stroke:#6495ed;stroke-linecap:square;stroke-width:1.5;"/>
   </g>
   <g id="line2d_24">
    <defs>
     <path d="M -0 6 
L 6 -6 
L -6 -6 
z
" id="mafa2f0a372" style="stroke:#6495ed;stroke-linejoin:miter;stroke-width:1.5;"/>
    </defs>
    <g>
     <use style="fill-opacity:0;stroke:#6495ed;stroke-linejoin:miter;stroke-width:1.5;" x="72.667753" xlink:href="#mafa2f0a372" y="278.292538"/>
     <use style="fill-opacity:0;stroke:#6495ed;stroke-linejoin:miter;stroke-width:1.5;" x="147.00453" xlink:href="#mafa2f0a372" y="251.617733"/>
     <use style="fill-opacity:0;stroke:#6495ed;stroke-linejoin:miter;stroke-width:1.5;" x="201.438802" xlink:href="#mafa2f0a372" y="202.570511"/>
     <use style="fill-opacity:0;stroke:#6495ed;stroke-linejoin:miter;stroke-width:1.5;" x="263.648064" xlink:href="#mafa2f0a372" y="154.383767"/>
     <use style="fill-opacity:0;stroke:#6495ed;stroke-linejoin:miter;stroke-width:1.5;" x="302.661542" xlink:href="#mafa2f0a372" y="104.476068"/>
     <use style="fill-opacity:0;stroke:#6495ed;stroke-linejoin:miter;stroke-width:1.5;" x="338.273744" xlink:href="#mafa2f0a372" y="45.963592"/>
     <use style="fill-opacity:0;stroke:#6495ed;stroke-linejoin:miter;stroke-width:1.5;" x="338.273744" xlink:href="#mafa2f0a372" y="45.963592"/>
     <use style="fill-opacity:0;stroke:#6495ed;stroke-linejoin:miter;stroke-width:1.5;" x="338.688" xlink:href="#mafa2f0a372" y="45.963592"/>
    </g>
   </g>
   <g id="line2d_25">
    <path style="fill:none;stroke:#6495ed;stroke-linecap:square;stroke-width:1.5;"/>
    <g/>
   </g>
   <g id="line2d_26">
    <defs>
     <path d="M 0 1.5 
C 0.397805 1.5 0.77937 1.341951 1.06066 1.06066 
C 1.341951 0.77937 1.5 0.397805 1.5 0 
C 1.5 -0.397805 1.341951 -0.77937 1.06066 -1.06066 
C 0.77937 -1.341951 0.397805 -1.5 0 -1.5 
C -0.397805 -1.5 -0.77937 -1.341951 -1.06066 -1.06066 
C -1.341951 -0.77937 -1.5 -0.397805 -1.5 0 
C -1.5 0.397805 -1.341951 0.77937 -1.06066 1.06066 
C -0.77937 1.341951 -0.397805 1.5 0 1.5 
z
" id="m8f2e646943" style="stroke:#ff0000;"/>
    </defs>
    <g>
     <use style="fill:#ff0000;stroke:#ff0000;" x="402.777875" xlink:href="#m8f2e646943" y="116.522754"/>
     <use style="fill:#ff0000;stroke:#ff0000;" x="402.777875" xlink:href="#m8f2e646943" y="116.522754"/>
    </g>
   </g>
   <g id="line2d_27">
    <path d="M -1 258.501554 
L 0.315658 258.501554 
L 0.315658 249.896778 
L 8.192457 249.896778 
L 8.192457 249.036301 
L 15.383411 249.036301 
L 15.383411 248.175823 
L 28.123014 248.175823 
L 28.123014 241.292002 
L 39.158561 241.292002 
L 39.158561 233.547704 
L 48.892603 233.547704 
L 48.892603 232.687227 
L 57.6 232.687227 
L 57.6 230.966271 
L 61.632206 230.966271 
L 61.632206 230.105794 
L 65.476799 230.105794 
L 65.476799 225.803406 
L 69.150463 225.803406 
L 69.150463 224.082451 
L 72.667753 224.082451 
L 72.667753 222.361496 
L 76.041439 222.361496 
L 76.041439 221.501018 
L 79.282789 221.501018 
L 79.282789 220.64054 
L 85.407356 220.64054 
L 85.407356 217.19863 
L 93.819069 217.19863 
L 93.819069 216.338153 
L 96.442903 216.338153 
L 96.442903 214.617197 
L 98.985991 214.617197 
L 98.985991 212.896242 
L 106.176945 212.896242 
L 106.176945 209.454332 
L 110.645268 209.454332 
L 110.645268 208.593854 
L 114.884342 208.593854 
L 114.884342 205.151944 
L 118.916549 205.151944 
L 118.916549 204.291467 
L 120.861199 204.291467 
L 120.861199 203.430989 
L 122.761141 203.430989 
L 122.761141 202.570511 
L 126.434805 202.570511 
L 126.434805 199.989079 
L 133.325781 199.989079 
L 133.325781 197.407646 
L 136.567132 197.407646 
L 136.567132 195.686691 
L 142.691699 195.686691 
L 142.691699 193.965736 
L 145.59178 193.965736 
L 145.59178 191.384303 
L 148.393534 191.384303 
L 148.393534 190.523825 
L 152.425741 190.523825 
L 152.425741 189.663348 
L 162.30541 189.663348 
L 162.30541 188.80287 
L 163.461287 188.80287 
L 163.461287 187.942393 
L 165.725644 187.942393 
L 165.725644 187.081915 
L 172.168684 187.081915 
L 172.168684 186.221437 
L 178.145541 186.221437 
L 178.145541 185.36096 
L 183.719147 185.36096 
L 183.719147 183.640005 
L 192.246689 183.640005 
L 192.246689 182.779527 
L 195.42569 182.779527 
L 195.42569 181.91905 
L 196.970479 181.91905 
L 196.970479 181.058572 
L 198.486922 181.058572 
L 198.486922 180.198094 
L 199.976041 180.198094 
L 199.976041 179.337617 
L 207.043921 179.337617 
L 207.043921 178.477139 
L 209.710083 178.477139 
L 209.710083 176.756184 
L 211.011587 176.756184 
L 211.011587 175.035229 
L 213.554675 175.035229 
L 213.554675 174.174751 
L 218.41748 174.174751 
L 218.41748 173.314274 
L 221.885562 173.314274 
L 221.885562 172.453796 
L 224.119316 172.453796 
L 224.119316 171.593319 
L 224.668446 171.593319 
L 224.668446 169.872363 
L 226.294279 169.872363 
L 226.294279 169.011886 
L 227.360666 169.011886 
L 227.360666 168.151408 
L 228.413468 168.151408 
L 228.413468 167.290931 
L 229.453027 167.290931 
L 229.453027 166.430453 
L 230.479671 166.430453 
L 230.479671 165.569976 
L 231.493719 165.569976 
L 231.493719 164.709498 
L 232.495475 164.709498 
L 232.495475 163.84902 
L 234.947994 163.84902 
L 234.947994 162.988543 
L 235.429884 162.988543 
L 235.429884 162.128065 
L 236.858919 162.128065 
L 236.858919 161.267588 
L 239.187069 161.267588 
L 239.187069 160.40711 
L 244.089218 160.40711 
L 244.089218 159.546632 
L 245.3772 159.546632 
L 245.3772 158.686155 
L 249.531031 158.686155 
L 249.531031 157.825677 
L 253.486036 157.825677 
L 253.486036 156.9652 
L 257.628508 156.9652 
L 257.628508 156.104722 
L 260.869858 156.104722 
L 260.869858 155.244245 
L 261.573214 155.244245 
L 261.573214 154.383767 
L 261.92266 154.383767 
L 261.92266 153.523289 
L 262.270634 153.523289 
L 262.270634 152.662812 
L 269.577255 152.662812 
L 269.577255 151.802334 
L 276.874095 151.802334 
L 276.874095 150.941857 
L 277.454054 150.941857 
L 277.454054 150.081379 
L 278.601904 150.081379 
L 278.601904 149.220902 
L 279.169905 149.220902 
L 279.169905 148.360424 
L 279.734029 148.360424 
L 279.734029 147.499946 
L 280.014653 147.499946 
L 280.014653 146.639469 
L 280.294328 146.639469 
L 280.294328 145.778991 
L 284.113535 145.778991 
L 284.113535 144.918514 
L 284.909469 144.918514 
L 284.909469 144.058036 
L 295.548006 144.058036 
L 295.548006 143.197559 
L 305.178808 143.197559 
L 305.178808 142.337081 
L 305.796324 142.337081 
L 305.796324 140.616126 
L 306.815373 140.616126 
L 306.815373 138.895171 
L 307.82201 138.895171 
L 307.82201 138.034693 
L 311.539164 138.034693 
L 311.539164 137.174215 
L 315.826051 137.174215 
L 315.826051 136.313738 
L 318.682277 136.313738 
L 318.682277 135.45326 
L 321.273206 135.45326 
L 321.273206 134.592783 
L 322.287253 134.592783 
L 322.287253 132.871828 
L 328.12336 132.871828 
L 328.12336 132.01135 
L 333.133611 132.01135 
L 333.133611 130.290395 
L 334.448925 130.290395 
L 334.448925 129.429917 
L 337.57867 129.429917 
L 337.57867 128.56944 
L 338.688 128.56944 
L 338.688 128.56944 
" style="fill:none;stroke:#ff0000;stroke-linecap:square;stroke-width:1.5;"/>
   </g>
   <g id="line2d_28">
    <defs>
     <path d="M 0 -6 
L -5.196152 -3 
L -5.196152 3 
L -0 6 
L 5.196152 3 
L 5.196152 -3 
z
" id="mffec7138cf" style="stroke:#ff0000;stroke-linejoin:miter;stroke-width:1.5;"/>
    </defs>
    <g>
     <use style="fill-opacity:0;stroke:#ff0000;stroke-linejoin:miter;stroke-width:1.5;" x="76.041439" xlink:href="#mffec7138cf" y="221.501018"/>
     <use style="fill-opacity:0;stroke:#ff0000;stroke-linejoin:miter;stroke-width:1.5;" x="145.59178" xlink:href="#mffec7138cf" y="193.965736"/>
     <use style="fill-opacity:0;stroke:#ff0000;stroke-linejoin:miter;stroke-width:1.5;" x="226.294279" xlink:href="#mffec7138cf" y="169.011886"/>
     <use style="fill-opacity:0;stroke:#ff0000;stroke-linejoin:miter;stroke-width:1.5;" x="269.577255" xlink:href="#mffec7138cf" y="152.662812"/>
     <use style="fill-opacity:0;stroke:#ff0000;stroke-linejoin:miter;stroke-width:1.5;" x="337.57867" xlink:href="#mffec7138cf" y="128.56944"/>
     <use style="fill-opacity:0;stroke:#ff0000;stroke-linejoin:miter;stroke-width:1.5;" x="337.57867" xlink:href="#mffec7138cf" y="128.56944"/>
     <use style="fill-opacity:0;stroke:#ff0000;stroke-linejoin:miter;stroke-width:1.5;" x="338.688" xlink:href="#mffec7138cf" y="128.56944"/>
    </g>
   </g>
   <g id="line2d_29">
    <path style="fill:none;stroke:#ff0000;stroke-linecap:square;stroke-width:1.5;"/>
    <g/>
   </g>
   <g id="line2d_30">
    <defs>
     <path d="M 0 1.5 
C 0.397805 1.5 0.77937 1.341951 1.06066 1.06066 
C 1.341951 0.77937 1.5 0.397805 1.5 0 
C 1.5 -0.397805 1.341951 -0.77937 1.06066 -1.06066 
C 0.77937 -1.341951 0.397805 -1.5 0 -1.5 
C -0.397805 -1.5 -0.77937 -1.341951 -1.06066 -1.06066 
C -1.341951 -0.77937 -1.5 -0.397805 -1.5 0 
C -1.5 0.397805 -1.341951 0.77937 -1.06066 1.06066 
C -0.77937 1.341951 -0.397805 1.5 0 1.5 
z
" id="mc4d608489a" style="stroke:#9acd32;"/>
    </defs>
    <g>
     <use style="fill:#9acd32;stroke:#9acd32;" x="392.885117" xlink:href="#mc4d608489a" y="8.102579"/>
     <use style="fill:#9acd32;stroke:#9acd32;" x="392.885117" xlink:href="#mc4d608489a" y="8.102579"/>
    </g>
   </g>
   <g id="line2d_31">
    <path d="M -1 298.083522 
L 65.476799 298.083522 
L 65.476799 290.339224 
L 120.861199 290.339224 
L 120.861199 274.850628 
L 153.727245 274.850628 
L 153.727245 237.850092 
L 177.178936 237.850092 
L 177.178936 221.501018 
L 195.42569 221.501018 
L 195.42569 208.593854 
L 210.363397 208.593854 
L 210.363397 195.686691 
L 223.009986 195.686691 
L 223.009986 189.663348 
L 233.975702 189.663348 
L 233.975702 177.616662 
L 243.655391 177.616662 
L 243.655391 169.011886 
L 252.31928 169.011886 
L 252.31928 160.40711 
L 260.160464 160.40711 
L 260.160464 156.104722 
L 267.321728 156.104722 
L 267.321728 148.360424 
L 273.911633 148.360424 
L 273.911633 140.616126 
L 280.014653 140.616126 
L 280.014653 136.313738 
L 285.69781 136.313738 
L 285.69781 128.56944 
L 291.015174 128.56944 
L 291.015174 119.964664 
L 296.010998 119.964664 
L 296.010998 117.383231 
L 300.721963 117.383231 
L 300.721963 110.499411 
L 305.178808 110.499411 
L 305.178808 106.197023 
L 309.407551 106.197023 
L 309.407551 99.313202 
L 313.430409 99.313202 
L 313.430409 88.987471 
L 317.266503 88.987471 
L 317.266503 84.685083 
L 320.932406 84.685083 
L 320.932406 80.382695 
L 324.442581 80.382695 
L 324.442581 76.080308 
L 327.809721 76.080308 
L 327.809721 70.917442 
L 331.045028 70.917442 
L 331.045028 64.894099 
L 334.158437 64.894099 
L 334.158437 60.591711 
L 337.158802 60.591711 
L 337.158802 58.010278 
L 338.688 58.010278 
" style="fill:none;stroke:#9acd32;stroke-linecap:square;stroke-width:1.5;"/>
   </g>
   <g id="line2d_32">
    <defs>
     <path d="M 0 -6 
L -6 6 
L 6 6 
z
" id="m5b029fcdbe" style="stroke:#9acd32;stroke-linejoin:miter;stroke-width:1.5;"/>
    </defs>
    <g>
     <use style="fill-opacity:0;stroke:#9acd32;stroke-linejoin:miter;stroke-width:1.5;" x="120.861199" xlink:href="#m5b029fcdbe" y="290.339224"/>
     <use style="fill-opacity:0;stroke:#9acd32;stroke-linejoin:miter;stroke-width:1.5;" x="177.178936" xlink:href="#m5b029fcdbe" y="237.850092"/>
     <use style="fill-opacity:0;stroke:#9acd32;stroke-linejoin:miter;stroke-width:1.5;" x="223.009986" xlink:href="#m5b029fcdbe" y="189.663348"/>
     <use style="fill-opacity:0;stroke:#9acd32;stroke-linejoin:miter;stroke-width:1.5;" x="291.015174" xlink:href="#m5b029fcdbe" y="119.964664"/>
     <use style="fill-opacity:0;stroke:#9acd32;stroke-linejoin:miter;stroke-width:1.5;" x="337.158802" xlink:href="#m5b029fcdbe" y="60.591711"/>
     <use style="fill-opacity:0;stroke:#9acd32;stroke-linejoin:miter;stroke-width:1.5;" x="337.158802" xlink:href="#m5b029fcdbe" y="58.010278"/>
     <use style="fill-opacity:0;stroke:#9acd32;stroke-linejoin:miter;stroke-width:1.5;" x="338.688" xlink:href="#m5b029fcdbe" y="58.010278"/>
    </g>
   </g>
   <g id="line2d_33">
    <path style="fill:none;stroke:#9acd32;stroke-linecap:square;stroke-width:1.5;"/>
    <g/>
   </g>
   <g id="line2d_34">
    <defs>
     <path d="M 0 1.5 
C 0.397805 1.5 0.77937 1.341951 1.06066 1.06066 
C 1.341951 0.77937 1.5 0.397805 1.5 0 
C 1.5 -0.397805 1.341951 -0.77937 1.06066 -1.06066 
C 0.77937 -1.341951 0.397805 -1.5 0 -1.5 
C -0.397805 -1.5 -0.77937 -1.341951 -1.06066 -1.06066 
C -1.341951 -0.77937 -1.5 -0.397805 -1.5 0 
C -1.5 0.397805 -1.341951 0.77937 -1.06066 1.06066 
C -0.77937 1.341951 -0.397805 1.5 0 1.5 
z
" id="m90c3771e00" style="stroke:#00bfbf;"/>
    </defs>
    <g>
     <use style="fill:#00bfbf;stroke:#00bfbf;" x="381.481081" xlink:href="#m90c3771e00" y="22.730698"/>
     <use style="fill:#00bfbf;stroke:#00bfbf;" x="381.481081" xlink:href="#m90c3771e00" y="22.730698"/>
    </g>
   </g>
   <g id="line2d_35">
    <path d="M -1 289.478747 
L 0.315658 289.478747 
L 0.315658 288.618269 
L 8.192457 288.618269 
L 8.192457 286.897314 
L 28.123014 286.897314 
L 28.123014 284.315881 
L 39.158561 284.315881 
L 39.158561 283.455404 
L 44.168812 283.455404 
L 44.168812 281.734448 
L 53.360925 281.734448 
L 53.360925 280.873971 
L 69.150463 280.873971 
L 69.150463 280.013493 
L 72.667753 280.013493 
L 72.667753 279.153016 
L 110.645268 279.153016 
L 110.645268 278.292538 
L 118.916549 278.292538 
L 118.916549 261.943464 
L 120.861199 261.943464 
L 120.861199 258.501554 
L 122.761141 258.501554 
L 122.761141 253.338688 
L 124.618384 253.338688 
L 124.618384 250.757256 
L 126.434805 250.757256 
L 126.434805 245.59439 
L 128.212161 245.59439 
L 128.212161 242.15248 
L 129.952095 242.15248 
L 129.952095 240.431525 
L 133.325781 240.431525 
L 133.325781 236.989614 
L 134.962346 236.989614 
L 134.962346 235.268659 
L 136.567132 235.268659 
L 136.567132 232.687227 
L 138.141347 232.687227 
L 138.141347 231.826749 
L 139.686137 231.826749 
L 139.686137 230.966271 
L 141.20258 230.966271 
L 141.20258 229.245316 
L 142.691699 229.245316 
L 142.691699 227.524361 
L 144.15446 227.524361 
L 144.15446 225.803406 
L 145.59178 225.803406 
L 145.59178 224.942928 
L 147.00453 224.942928 
L 147.00453 222.361496 
L 148.393534 222.361496 
L 148.393534 219.780063 
L 149.759579 219.780063 
L 149.759579 217.19863 
L 151.103411 217.19863 
L 151.103411 215.477675 
L 152.425741 215.477675 
L 152.425741 213.75672 
L 155.008571 213.75672 
L 155.008571 212.896242 
L 156.270333 212.896242 
L 156.270333 212.035765 
L 157.513121 212.035765 
L 157.513121 208.593854 
L 158.737497 208.593854 
L 158.737497 207.733377 
L 159.943997 207.733377 
L 159.943997 206.872899 
L 161.133138 206.872899 
L 161.133138 206.012422 
L 162.30541 206.012422 
L 162.30541 202.570511 
L 163.461287 202.570511 
L 163.461287 200.849556 
L 164.60122 200.849556 
L 164.60122 199.989079 
L 165.725644 199.989079 
L 165.725644 199.128601 
L 166.834973 199.128601 
L 166.834973 198.268123 
L 169.009937 198.268123 
L 169.009937 197.407646 
L 170.076324 197.407646 
L 170.076324 195.686691 
L 171.129126 195.686691 
L 171.129126 193.965736 
L 172.168684 193.965736 
L 172.168684 192.24478 
L 174.209377 192.24478 
L 174.209377 189.663348 
L 175.211132 189.663348 
L 175.211132 188.80287 
L 176.200891 188.80287 
L 176.200891 187.942393 
L 177.178936 187.942393 
L 177.178936 187.081915 
L 178.145541 187.081915 
L 178.145541 185.36096 
L 179.100972 185.36096 
L 179.100972 184.500482 
L 180.979322 184.500482 
L 180.979322 183.640005 
L 182.815927 183.640005 
L 182.815927 181.058572 
L 183.719147 181.058572 
L 183.719147 179.337617 
L 186.371049 179.337617 
L 186.371049 178.477139 
L 188.092858 178.477139 
L 188.092858 176.756184 
L 188.940494 176.756184 
L 188.940494 175.035229 
L 189.779525 175.035229 
L 189.779525 173.314274 
L 191.432457 173.314274 
L 191.432457 172.453796 
L 193.052976 172.453796 
L 193.052976 171.593319 
L 193.851474 171.593319 
L 193.851474 170.732841 
L 194.64233 170.732841 
L 194.64233 169.872363 
L 196.201694 169.872363 
L 196.201694 169.011886 
L 196.970479 169.011886 
L 196.970479 166.430453 
L 198.486922 166.430453 
L 198.486922 163.84902 
L 199.234836 163.84902 
L 199.234836 161.267588 
L 199.976041 161.267588 
L 199.976041 160.40711 
L 201.438802 160.40711 
L 201.438802 159.546632 
L 202.160587 159.546632 
L 202.160587 158.686155 
L 202.876122 158.686155 
L 202.876122 156.9652 
L 203.585516 156.9652 
L 203.585516 156.104722 
L 204.288872 156.104722 
L 204.288872 153.523289 
L 205.677876 153.523289 
L 205.677876 152.662812 
L 207.043921 152.662812 
L 207.043921 151.802334 
L 207.718569 151.802334 
L 207.718569 150.941857 
L 210.363397 150.941857 
L 210.363397 147.499946 
L 211.011587 147.499946 
L 211.011587 145.778991 
L 212.292913 145.778991 
L 212.292913 144.918514 
L 212.926202 144.918514 
L 212.926202 143.197559 
L 214.178405 143.197559 
L 214.178405 142.337081 
L 214.797463 142.337081 
L 214.797463 141.476603 
L 215.411918 141.476603 
L 215.411918 139.755648 
L 217.22834 139.755648 
L 217.22834 138.895171 
L 218.41748 138.895171 
L 218.41748 138.034693 
L 220.169712 138.034693 
L 220.169712 136.313738 
L 220.745629 136.313738 
L 220.745629 135.45326 
L 221.317561 135.45326 
L 221.317561 134.592783 
L 221.885562 134.592783 
L 221.885562 133.732305 
L 224.119316 133.732305 
L 224.119316 132.871828 
L 225.213952 132.871828 
L 225.213952 132.01135 
L 225.755881 132.01135 
L 225.755881 131.150872 
L 226.829192 131.150872 
L 226.829192 130.290395 
L 228.413468 130.290395 
L 228.413468 129.429917 
L 229.453027 129.429917 
L 229.453027 127.708962 
L 230.98825 127.708962 
L 230.98825 125.988007 
L 231.493719 125.988007 
L 231.493719 125.127529 
L 233.485233 125.127529 
L 233.485233 124.267052 
L 234.463278 124.267052 
L 234.463278 122.546097 
L 235.429884 122.546097 
L 235.429884 121.685619 
L 236.385314 121.685619 
L 236.385314 120.825142 
L 236.858919 120.825142 
L 236.858919 119.964664 
L 238.263664 119.964664 
L 238.263664 119.104186 
L 239.187069 119.104186 
L 239.187069 117.383231 
L 241.896945 117.383231 
L 241.896945 116.522754 
L 242.780845 116.522754 
L 242.780845 114.801798 
L 243.219275 114.801798 
L 243.219275 113.080843 
L 244.950099 113.080843 
L 244.950099 110.499411 
L 245.3772 110.499411 
L 245.3772 109.638933 
L 246.224837 109.638933 
L 246.224837 108.778455 
L 247.063867 108.778455 
L 247.063867 107.0575 
L 247.48021 107.0575 
L 247.48021 106.197023 
L 247.894466 106.197023 
L 247.894466 105.336545 
L 248.716799 105.336545 
L 248.716799 103.61559 
L 249.935158 103.61559 
L 249.935158 102.755112 
L 251.53219 102.755112 
L 251.53219 101.894635 
L 252.710032 101.894635 
L 252.710032 101.034157 
L 253.098945 101.034157 
L 253.098945 100.17368 
L 254.254821 100.17368 
L 254.254821 99.313202 
L 254.636549 99.313202 
L 254.636549 98.452725 
L 255.394754 98.452725 
L 255.394754 97.592247 
L 256.519178 97.592247 
L 256.519178 96.731769 
L 259.444929 96.731769 
L 259.444929 95.871292 
L 260.869858 95.871292 
L 260.869858 94.150337 
L 262.270634 94.150337 
L 262.270634 93.289859 
L 263.305853 93.289859 
L 263.305853 92.429381 
L 263.648064 92.429381 
L 263.648064 90.708426 
L 263.988863 90.708426 
L 263.988863 88.987471 
L 264.328264 88.987471 
L 264.328264 88.126994 
L 267.321728 88.126994 
L 267.321728 85.545561 
L 268.29593 85.545561 
L 268.29593 84.685083 
L 268.618128 84.685083 
L 268.618128 83.824606 
L 269.577255 83.824606 
L 269.577255 82.964128 
L 269.894506 82.964128 
L 269.894506 82.103651 
L 271.772856 82.103651 
L 271.772856 81.243173 
L 272.081805 81.243173 
L 272.081805 79.522218 
L 273.609461 79.522218 
L 273.609461 77.801263 
L 274.212704 77.801263 
L 274.212704 76.940785 
L 275.109391 76.940785 
L 275.109391 75.21983 
L 276.290037 75.21983 
L 276.290037 74.359352 
L 276.582582 74.359352 
L 276.582582 73.498875 
L 277.454054 73.498875 
L 277.454054 72.638397 
L 278.601904 72.638397 
L 278.601904 71.77792 
L 279.169905 71.77792 
L 279.169905 70.917442 
L 279.452448 70.917442 
L 279.452448 70.056964 
L 280.294328 70.056964 
L 280.294328 69.196487 
L 281.678679 69.196487 
L 281.678679 68.336009 
L 284.113535 68.336009 
L 284.113535 67.475532 
L 284.379699 67.475532 
L 284.379699 66.615054 
L 284.909469 66.615054 
L 284.909469 65.754577 
L 285.173085 65.754577 
L 285.173085 64.894099 
L 285.69781 64.894099 
L 285.69781 64.033621 
L 286.219224 64.033621 
L 286.219224 63.173144 
L 286.737369 63.173144 
L 286.737369 62.312666 
L 287.252285 62.312666 
L 287.252285 61.452189 
L 287.508545 61.452189 
L 287.508545 60.591711 
L 288.272593 60.591711 
L 288.272593 59.731234 
L 290.523245 59.731234 
L 290.523245 58.870756 
L 291.015174 58.870756 
L 291.015174 58.010278 
L 292.473632 58.010278 
L 292.473632 57.149801 
L 293.431832 57.149801 
L 293.431832 56.289323 
L 294.848618 56.289323 
L 294.848618 55.428846 
L 296.241525 55.428846 
L 296.241525 54.568368 
L 298.062951 54.568368 
L 298.062951 53.707891 
L 298.512103 53.707891 
L 298.512103 52.847413 
L 299.40315 52.847413 
L 299.40315 51.986935 
L 300.065187 51.986935 
L 300.065187 51.126458 
L 302.02006 51.126458 
L 302.02006 50.26598 
L 303.086447 50.26598 
L 303.086447 48.545025 
L 304.34821 48.545025 
L 304.34821 47.684547 
L 304.556643 47.684547 
L 304.556643 46.82407 
L 306.001141 46.82407 
L 306.001141 45.103115 
L 306.205453 45.103115 
L 306.205453 44.242637 
L 307.82201 44.242637 
L 307.82201 43.38216 
L 308.618583 43.38216 
L 308.618583 42.521682 
L 309.994374 42.521682 
L 309.994374 41.661204 
L 310.189059 41.661204 
L 310.189059 40.800727 
L 313.430409 40.800727 
L 313.430409 39.940249 
L 315.826051 39.940249 
L 315.826051 39.079772 
L 316.007486 39.079772 
L 316.007486 38.219294 
L 316.188524 38.219294 
L 316.188524 37.358817 
L 316.729271 37.358817 
L 316.729271 36.498339 
L 318.857556 36.498339 
L 318.857556 35.637861 
L 319.554977 35.637861 
L 319.554977 34.777384 
L 325.4187 34.777384 
L 325.4187 33.916906 
L 326.543124 33.916906 
L 326.543124 33.056429 
L 327.809721 33.056429 
L 327.809721 32.195951 
L 338.688 32.195951 
L 338.688 32.195951 
" style="fill:none;stroke:#00bfbf;stroke-linecap:square;stroke-width:1.5;"/>
   </g>
   <g id="line2d_36">
    <defs>
     <path d="M 0 -6 
L -5.706339 -1.854102 
L -3.526712 4.854102 
L 3.526712 4.854102 
L 5.706339 -1.854102 
z
" id="m36ee99c382" style="stroke:#00bfbf;stroke-linejoin:miter;stroke-width:1.5;"/>
    </defs>
    <g>
     <use style="fill-opacity:0;stroke:#00bfbf;stroke-linejoin:miter;stroke-width:1.5;" x="120.861199" xlink:href="#m36ee99c382" y="258.501554"/>
     <use style="fill-opacity:0;stroke:#00bfbf;stroke-linejoin:miter;stroke-width:1.5;" x="155.008571" xlink:href="#m36ee99c382" y="213.75672"/>
     <use style="fill-opacity:0;stroke:#00bfbf;stroke-linejoin:miter;stroke-width:1.5;" x="212.292913" xlink:href="#m36ee99c382" y="145.778991"/>
     <use style="fill-opacity:0;stroke:#00bfbf;stroke-linejoin:miter;stroke-width:1.5;" x="259.444929" xlink:href="#m36ee99c382" y="96.731769"/>
     <use style="fill-opacity:0;stroke:#00bfbf;stroke-linejoin:miter;stroke-width:1.5;" x="306.001141" xlink:href="#m36ee99c382" y="46.82407"/>
     <use style="fill-opacity:0;stroke:#00bfbf;stroke-linejoin:miter;stroke-width:1.5;" x="327.809721" xlink:href="#m36ee99c382" y="32.195951"/>
     <use style="fill-opacity:0;stroke:#00bfbf;stroke-linejoin:miter;stroke-width:1.5;" x="338.688" xlink:href="#m36ee99c382" y="32.195951"/>
    </g>
   </g>
   <g id="line2d_37">
    <path style="fill:none;stroke:#00bfbf;stroke-linecap:square;stroke-width:1.5;"/>
    <g/>
   </g>
   <g id="line2d_38">
    <path d="M 338.688 128.56944 
L 369.60768 293.092752 
" style="fill:none;stroke:#ff0000;stroke-linecap:square;stroke-width:1.5;"/>
    <g>
     <use style="fill-opacity:0;stroke:#ff0000;stroke-linejoin:miter;stroke-width:1.5;" x="338.688" xlink:href="#mffec7138cf" y="128.56944"/>
     <use style="fill-opacity:0;stroke:#ff0000;stroke-linejoin:miter;stroke-width:1.5;" x="369.60768" xlink:href="#mffec7138cf" y="293.092752"/>
    </g>
   </g>
   <g id="line2d_39">
    <path d="M 338.688 58.010278 
L 369.60768 222.877782 
" style="fill:none;stroke:#9acd32;stroke-linecap:square;stroke-width:1.5;"/>
    <g>
     <use style="fill-opacity:0;stroke:#9acd32;stroke-linejoin:miter;stroke-width:1.5;" x="338.688" xlink:href="#m5b029fcdbe" y="58.010278"/>
     <use style="fill-opacity:0;stroke:#9acd32;stroke-linejoin:miter;stroke-width:1.5;" x="369.60768" xlink:href="#m5b029fcdbe" y="222.877782"/>
    </g>
   </g>
   <g id="line2d_40">
    <path d="M 338.688 45.963592 
L 369.60768 152.662812 
" style="fill:none;stroke:#6495ed;stroke-linecap:square;stroke-width:1.5;"/>
    <g>
     <use style="fill-opacity:0;stroke:#6495ed;stroke-linejoin:miter;stroke-width:1.5;" x="338.688" xlink:href="#mafa2f0a372" y="45.963592"/>
     <use style="fill-opacity:0;stroke:#6495ed;stroke-linejoin:miter;stroke-width:1.5;" x="369.60768" xlink:href="#mafa2f0a372" y="152.662812"/>
    </g>
   </g>
   <g id="line2d_41">
    <path d="M 338.688 32.195951 
L 369.60768 82.447842 
" style="fill:none;stroke:#00bfbf;stroke-linecap:square;stroke-width:1.5;"/>
    <g>
     <use style="fill-opacity:0;stroke:#00bfbf;stroke-linejoin:miter;stroke-width:1.5;" x="338.688" xlink:href="#m36ee99c382" y="32.195951"/>
     <use style="fill-opacity:0;stroke:#00bfbf;stroke-linejoin:miter;stroke-width:1.5;" x="369.60768" xlink:href="#m36ee99c382" y="82.447842"/>
    </g>
   </g>
   <g id="line2d_42">
    <path d="M 338.688 298.944 
L 338.688 6.381624 
" style="fill:none;stroke:#000000;stroke-linecap:square;stroke-width:1.5;"/>
   </g>
   <g id="patch_3">
    <path d="M 57.6 298.944 
L 57.6 3.456 
" style="fill:none;stroke:#000000;stroke-linecap:square;stroke-linejoin:miter;stroke-width:0.8;"/>
   </g>
   <g id="patch_4">
    <path d="M 338.688 298.944 
L 338.688 3.456 
" style="fill:none;stroke:#000000;stroke-linecap:square;stroke-linejoin:miter;stroke-width:0.8;"/>
   </g>
   <g id="patch_5">
    <path d="M 57.6 298.944 
L 338.688 298.944 
" style="fill:none;stroke:#000000;stroke-linecap:square;stroke-linejoin:miter;stroke-width:0.8;"/>
   </g>
   <g id="patch_6">
    <path d="M 57.6 3.456 
L 338.688 3.456 
" style="fill:none;stroke:#000000;stroke-linecap:square;stroke-linejoin:miter;stroke-width:0.8;"/>
   </g>
   <g id="text_10">
    <!-- SMAC-BBOB -->
    <g transform="translate(375.22944 297.78369)scale(0.17 -0.17)">
     <defs>
      <path d="M 53.515625 70.515625 
L 53.515625 60.890625 
Q 47.90625 63.578125 42.921875 64.890625 
Q 37.9375 66.21875 33.296875 66.21875 
Q 25.25 66.21875 20.875 63.09375 
Q 16.5 59.96875 16.5 54.203125 
Q 16.5 49.359375 19.40625 46.890625 
Q 22.3125 44.4375 30.421875 42.921875 
L 36.375 41.703125 
Q 47.40625 39.59375 52.65625 34.296875 
Q 57.90625 29 57.90625 20.125 
Q 57.90625 9.515625 50.796875 4.046875 
Q 43.703125 -1.421875 29.984375 -1.421875 
Q 24.8125 -1.421875 18.96875 -0.25 
Q 13.140625 0.921875 6.890625 3.21875 
L 6.890625 13.375 
Q 12.890625 10.015625 18.65625 8.296875 
Q 24.421875 6.59375 29.984375 6.59375 
Q 38.421875 6.59375 43.015625 9.90625 
Q 47.609375 13.234375 47.609375 19.390625 
Q 47.609375 24.75 44.3125 27.78125 
Q 41.015625 30.8125 33.5 32.328125 
L 27.484375 33.5 
Q 16.453125 35.6875 11.515625 40.375 
Q 6.59375 45.0625 6.59375 53.421875 
Q 6.59375 63.09375 13.40625 68.65625 
Q 20.21875 74.21875 32.171875 74.21875 
Q 37.3125 74.21875 42.625 73.28125 
Q 47.953125 72.359375 53.515625 70.515625 
z
" id="DejaVuSans-83"/>
      <path d="M 9.8125 72.90625 
L 24.515625 72.90625 
L 43.109375 23.296875 
L 61.8125 72.90625 
L 76.515625 72.90625 
L 76.515625 0 
L 66.890625 0 
L 66.890625 64.015625 
L 48.09375 14.015625 
L 38.1875 14.015625 
L 19.390625 64.015625 
L 19.390625 0 
L 9.8125 0 
z
" id="DejaVuSans-77"/>
      <path d="M 34.1875 63.1875 
L 20.796875 26.90625 
L 47.609375 26.90625 
z
M 28.609375 72.90625 
L 39.796875 72.90625 
L 67.578125 0 
L 57.328125 0 
L 50.6875 18.703125 
L 17.828125 18.703125 
L 11.1875 0 
L 0.78125 0 
z
" id="DejaVuSans-65"/>
      <path d="M 64.40625 67.28125 
L 64.40625 56.890625 
Q 59.421875 61.53125 53.78125 63.8125 
Q 48.140625 66.109375 41.796875 66.109375 
Q 29.296875 66.109375 22.65625 58.46875 
Q 16.015625 50.828125 16.015625 36.375 
Q 16.015625 21.96875 22.65625 14.328125 
Q 29.296875 6.6875 41.796875 6.6875 
Q 48.140625 6.6875 53.78125 8.984375 
Q 59.421875 11.28125 64.40625 15.921875 
L 64.40625 5.609375 
Q 59.234375 2.09375 53.4375 0.328125 
Q 47.65625 -1.421875 41.21875 -1.421875 
Q 24.65625 -1.421875 15.125 8.703125 
Q 5.609375 18.84375 5.609375 36.375 
Q 5.609375 53.953125 15.125 64.078125 
Q 24.65625 74.21875 41.21875 74.21875 
Q 47.75 74.21875 53.53125 72.484375 
Q 59.328125 70.75 64.40625 67.28125 
z
" id="DejaVuSans-67"/>
      <path d="M 19.671875 34.8125 
L 19.671875 8.109375 
L 35.5 8.109375 
Q 43.453125 8.109375 47.28125 11.40625 
Q 51.125 14.703125 51.125 21.484375 
Q 51.125 28.328125 47.28125 31.5625 
Q 43.453125 34.8125 35.5 34.8125 
z
M 19.671875 64.796875 
L 19.671875 42.828125 
L 34.28125 42.828125 
Q 41.5 42.828125 45.03125 45.53125 
Q 48.578125 48.25 48.578125 53.8125 
Q 48.578125 59.328125 45.03125 62.0625 
Q 41.5 64.796875 34.28125 64.796875 
z
M 9.8125 72.90625 
L 35.015625 72.90625 
Q 46.296875 72.90625 52.390625 68.21875 
Q 58.5 63.53125 58.5 54.890625 
Q 58.5 48.1875 55.375 44.234375 
Q 52.25 40.28125 46.1875 39.3125 
Q 53.46875 37.75 57.5 32.78125 
Q 61.53125 27.828125 61.53125 20.40625 
Q 61.53125 10.640625 54.890625 5.3125 
Q 48.25 0 35.984375 0 
L 9.8125 0 
z
" id="DejaVuSans-66"/>
      <path d="M 39.40625 66.21875 
Q 28.65625 66.21875 22.328125 58.203125 
Q 16.015625 50.203125 16.015625 36.375 
Q 16.015625 22.609375 22.328125 14.59375 
Q 28.65625 6.59375 39.40625 6.59375 
Q 50.140625 6.59375 56.421875 14.59375 
Q 62.703125 22.609375 62.703125 36.375 
Q 62.703125 50.203125 56.421875 58.203125 
Q 50.140625 66.21875 39.40625 66.21875 
z
M 39.40625 74.21875 
Q 54.734375 74.21875 63.90625 63.9375 
Q 73.09375 53.65625 73.09375 36.375 
Q 73.09375 19.140625 63.90625 8.859375 
Q 54.734375 -1.421875 39.40625 -1.421875 
Q 24.03125 -1.421875 14.8125 8.828125 
Q 5.609375 19.09375 5.609375 36.375 
Q 5.609375 53.65625 14.8125 63.9375 
Q 24.03125 74.21875 39.40625 74.21875 
z
" id="DejaVuSans-79"/>
     </defs>
     <use xlink:href="#DejaVuSans-83"/>
     <use x="63.476562" xlink:href="#DejaVuSans-77"/>
     <use x="149.755859" xlink:href="#DejaVuSans-65"/>
     <use x="216.414062" xlink:href="#DejaVuSans-67"/>
     <use x="286.238281" xlink:href="#DejaVuSans-45"/>
     <use x="318.697266" xlink:href="#DejaVuSans-66"/>
     <use x="387.300781" xlink:href="#DejaVuSans-66"/>
     <use x="454.154297" xlink:href="#DejaVuSans-79"/>
     <use x="532.865234" xlink:href="#DejaVuSans-66"/>
    </g>
   </g>
   <g id="text_11">
    <!-- BFGS ros  -->
    <g transform="translate(375.22944 227.56872)scale(0.17 -0.17)">
     <defs>
      <path d="M 59.515625 10.40625 
L 59.515625 29.984375 
L 43.40625 29.984375 
L 43.40625 38.09375 
L 69.28125 38.09375 
L 69.28125 6.78125 
Q 63.578125 2.734375 56.6875 0.65625 
Q 49.8125 -1.421875 42 -1.421875 
Q 24.90625 -1.421875 15.25 8.5625 
Q 5.609375 18.5625 5.609375 36.375 
Q 5.609375 54.25 15.25 64.234375 
Q 24.90625 74.21875 42 74.21875 
Q 49.125 74.21875 55.546875 72.453125 
Q 61.96875 70.703125 67.390625 67.28125 
L 67.390625 56.78125 
Q 61.921875 61.421875 55.765625 63.765625 
Q 49.609375 66.109375 42.828125 66.109375 
Q 29.4375 66.109375 22.71875 58.640625 
Q 16.015625 51.171875 16.015625 36.375 
Q 16.015625 21.625 22.71875 14.15625 
Q 29.4375 6.6875 42.828125 6.6875 
Q 48.046875 6.6875 52.140625 7.59375 
Q 56.25 8.5 59.515625 10.40625 
z
" id="DejaVuSans-71"/>
     </defs>
     <use xlink:href="#DejaVuSans-66"/>
     <use x="68.603516" xlink:href="#DejaVuSans-70"/>
     <use x="126.123047" xlink:href="#DejaVuSans-71"/>
     <use x="203.613281" xlink:href="#DejaVuSans-83"/>
     <use x="267.089844" xlink:href="#DejaVuSans-32"/>
     <use x="298.876953" xlink:href="#DejaVuSans-114"/>
     <use x="337.740234" xlink:href="#DejaVuSans-111"/>
     <use x="398.921875" xlink:href="#DejaVuSans-115"/>
     <use x="451.021484" xlink:href="#DejaVuSans-32"/>
    </g>
   </g>
   <g id="text_12">
    <!-- DTS-CMA-E -->
    <g transform="translate(375.22944 157.353749)scale(0.17 -0.17)">
     <defs>
      <path d="M 19.671875 64.796875 
L 19.671875 8.109375 
L 31.59375 8.109375 
Q 46.6875 8.109375 53.6875 14.9375 
Q 60.6875 21.78125 60.6875 36.53125 
Q 60.6875 51.171875 53.6875 57.984375 
Q 46.6875 64.796875 31.59375 64.796875 
z
M 9.8125 72.90625 
L 30.078125 72.90625 
Q 51.265625 72.90625 61.171875 64.09375 
Q 71.09375 55.28125 71.09375 36.53125 
Q 71.09375 17.671875 61.125 8.828125 
Q 51.171875 0 30.078125 0 
L 9.8125 0 
z
" id="DejaVuSans-68"/>
      <path d="M -0.296875 72.90625 
L 61.375 72.90625 
L 61.375 64.59375 
L 35.5 64.59375 
L 35.5 0 
L 25.59375 0 
L 25.59375 64.59375 
L -0.296875 64.59375 
z
" id="DejaVuSans-84"/>
      <path d="M 9.8125 72.90625 
L 55.90625 72.90625 
L 55.90625 64.59375 
L 19.671875 64.59375 
L 19.671875 43.015625 
L 54.390625 43.015625 
L 54.390625 34.71875 
L 19.671875 34.71875 
L 19.671875 8.296875 
L 56.78125 8.296875 
L 56.78125 0 
L 9.8125 0 
z
" id="DejaVuSans-69"/>
     </defs>
     <use xlink:href="#DejaVuSans-68"/>
     <use x="77.001953" xlink:href="#DejaVuSans-84"/>
     <use x="138.085938" xlink:href="#DejaVuSans-83"/>
     <use x="201.5625" xlink:href="#DejaVuSans-45"/>
     <use x="237.646484" xlink:href="#DejaVuSans-67"/>
     <use x="307.470703" xlink:href="#DejaVuSans-77"/>
     <use x="393.75" xlink:href="#DejaVuSans-65"/>
     <use x="459.908203" xlink:href="#DejaVuSans-45"/>
     <use x="495.992188" xlink:href="#DejaVuSans-69"/>
    </g>
   </g>
   <g id="text_13">
    <!-- NEWUOA ro -->
    <g transform="translate(375.22944 87.138779)scale(0.17 -0.17)">
     <defs>
      <path d="M 9.8125 72.90625 
L 23.09375 72.90625 
L 55.421875 11.921875 
L 55.421875 72.90625 
L 64.984375 72.90625 
L 64.984375 0 
L 51.703125 0 
L 19.390625 60.984375 
L 19.390625 0 
L 9.8125 0 
z
" id="DejaVuSans-78"/>
      <path d="M 3.328125 72.90625 
L 13.28125 72.90625 
L 28.609375 11.28125 
L 43.890625 72.90625 
L 54.984375 72.90625 
L 70.3125 11.28125 
L 85.59375 72.90625 
L 95.609375 72.90625 
L 77.296875 0 
L 64.890625 0 
L 49.515625 63.28125 
L 33.984375 0 
L 21.578125 0 
z
" id="DejaVuSans-87"/>
      <path d="M 8.6875 72.90625 
L 18.609375 72.90625 
L 18.609375 28.609375 
Q 18.609375 16.890625 22.84375 11.734375 
Q 27.09375 6.59375 36.625 6.59375 
Q 46.09375 6.59375 50.34375 11.734375 
Q 54.59375 16.890625 54.59375 28.609375 
L 54.59375 72.90625 
L 64.5 72.90625 
L 64.5 27.390625 
Q 64.5 13.140625 57.4375 5.859375 
Q 50.390625 -1.421875 36.625 -1.421875 
Q 22.796875 -1.421875 15.734375 5.859375 
Q 8.6875 13.140625 8.6875 27.390625 
z
" id="DejaVuSans-85"/>
     </defs>
     <use xlink:href="#DejaVuSans-78"/>
     <use x="74.804688" xlink:href="#DejaVuSans-69"/>
     <use x="137.988281" xlink:href="#DejaVuSans-87"/>
     <use x="236.865234" xlink:href="#DejaVuSans-85"/>
     <use x="310.058594" xlink:href="#DejaVuSans-79"/>
     <use x="387.019531" xlink:href="#DejaVuSans-65"/>
     <use x="455.427734" xlink:href="#DejaVuSans-32"/>
     <use x="487.214844" xlink:href="#DejaVuSans-114"/>
     <use x="526.078125" xlink:href="#DejaVuSans-111"/>
    </g>
   </g>
   <g id="text_14">
    <!-- best09 -->
    <g transform="translate(375.22944 16.923809)scale(0.17 -0.17)">
     <defs>
      <path d="M 48.6875 27.296875 
Q 48.6875 37.203125 44.609375 42.84375 
Q 40.53125 48.484375 33.40625 48.484375 
Q 26.265625 48.484375 22.1875 42.84375 
Q 18.109375 37.203125 18.109375 27.296875 
Q 18.109375 17.390625 22.1875 11.75 
Q 26.265625 6.109375 33.40625 6.109375 
Q 40.53125 6.109375 44.609375 11.75 
Q 48.6875 17.390625 48.6875 27.296875 
z
M 18.109375 46.390625 
Q 20.953125 51.265625 25.265625 53.625 
Q 29.59375 56 35.59375 56 
Q 45.5625 56 51.78125 48.09375 
Q 58.015625 40.1875 58.015625 27.296875 
Q 58.015625 14.40625 51.78125 6.484375 
Q 45.5625 -1.421875 35.59375 -1.421875 
Q 29.59375 -1.421875 25.265625 0.953125 
Q 20.953125 3.328125 18.109375 8.203125 
L 18.109375 0 
L 9.078125 0 
L 9.078125 75.984375 
L 18.109375 75.984375 
z
" id="DejaVuSans-98"/>
      <path d="M 10.984375 1.515625 
L 10.984375 10.5 
Q 14.703125 8.734375 18.5 7.8125 
Q 22.3125 6.890625 25.984375 6.890625 
Q 35.75 6.890625 40.890625 13.453125 
Q 46.046875 20.015625 46.78125 33.40625 
Q 43.953125 29.203125 39.59375 26.953125 
Q 35.25 24.703125 29.984375 24.703125 
Q 19.046875 24.703125 12.671875 31.3125 
Q 6.296875 37.9375 6.296875 49.421875 
Q 6.296875 60.640625 12.9375 67.421875 
Q 19.578125 74.21875 30.609375 74.21875 
Q 43.265625 74.21875 49.921875 64.515625 
Q 56.59375 54.828125 56.59375 36.375 
Q 56.59375 19.140625 48.40625 8.859375 
Q 40.234375 -1.421875 26.421875 -1.421875 
Q 22.703125 -1.421875 18.890625 -0.6875 
Q 15.09375 0.046875 10.984375 1.515625 
z
M 30.609375 32.421875 
Q 37.25 32.421875 41.125 36.953125 
Q 45.015625 41.5 45.015625 49.421875 
Q 45.015625 57.28125 41.125 61.84375 
Q 37.25 66.40625 30.609375 66.40625 
Q 23.96875 66.40625 20.09375 61.84375 
Q 16.21875 57.28125 16.21875 49.421875 
Q 16.21875 41.5 20.09375 36.953125 
Q 23.96875 32.421875 30.609375 32.421875 
z
" id="DejaVuSans-57"/>
     </defs>
     <use xlink:href="#DejaVuSans-98"/>
     <use x="63.476562" xlink:href="#DejaVuSans-101"/>
     <use x="125" xlink:href="#DejaVuSans-115"/>
     <use x="177.099609" xlink:href="#DejaVuSans-116"/>
     <use x="216.308594" xlink:href="#DejaVuSans-48"/>
     <use x="279.931641" xlink:href="#DejaVuSans-57"/>
    </g>
   </g>
   <g id="text_15">
    <!-- bbob f10-f14, 20-D -->
    <g transform="translate(60.41088 14.161286)scale(0.102 -0.102)">
     <use xlink:href="#DejaVuSans-98"/>
     <use x="63.476562" xlink:href="#DejaVuSans-98"/>
     <use x="126.953125" xlink:href="#DejaVuSans-111"/>
     <use x="188.134766" xlink:href="#DejaVuSans-98"/>
     <use x="251.611328" xlink:href="#DejaVuSans-32"/>
     <use x="283.398438" xlink:href="#DejaVuSans-102"/>
     <use x="318.603516" xlink:href="#DejaVuSans-49"/>
     <use x="382.226562" xlink:href="#DejaVuSans-48"/>
     <use x="445.849609" xlink:href="#DejaVuSans-45"/>
     <use x="481.933594" xlink:href="#DejaVuSans-102"/>
     <use x="517.138672" xlink:href="#DejaVuSans-49"/>
     <use x="580.761719" xlink:href="#DejaVuSans-52"/>
     <use x="644.384766" xlink:href="#DejaVuSans-44"/>
     <use x="676.171875" xlink:href="#DejaVuSans-32"/>
     <use x="707.958984" xlink:href="#DejaVuSans-50"/>
     <use x="771.582031" xlink:href="#DejaVuSans-48"/>
     <use x="835.205078" xlink:href="#DejaVuSans-45"/>
     <use x="871.289062" xlink:href="#DejaVuSans-68"/>
    </g>
    <!-- 8 targets RLs/dim: 0.5..20 -->
    <g transform="translate(60.41088 25.583055)scale(0.102 -0.102)">
     <defs>
      <path d="M 44.390625 34.1875 
Q 47.5625 33.109375 50.5625 29.59375 
Q 53.5625 26.078125 56.59375 19.921875 
L 66.609375 0 
L 56 0 
L 46.6875 18.703125 
Q 43.0625 26.03125 39.671875 28.421875 
Q 36.28125 30.8125 30.421875 30.8125 
L 19.671875 30.8125 
L 19.671875 0 
L 9.8125 0 
L 9.8125 72.90625 
L 32.078125 72.90625 
Q 44.578125 72.90625 50.734375 67.671875 
Q 56.890625 62.453125 56.890625 51.90625 
Q 56.890625 45.015625 53.6875 40.46875 
Q 50.484375 35.9375 44.390625 34.1875 
z
M 19.671875 64.796875 
L 19.671875 38.921875 
L 32.078125 38.921875 
Q 39.203125 38.921875 42.84375 42.21875 
Q 46.484375 45.515625 46.484375 51.90625 
Q 46.484375 58.296875 42.84375 61.546875 
Q 39.203125 64.796875 32.078125 64.796875 
z
" id="DejaVuSans-82"/>
      <path d="M 9.8125 72.90625 
L 19.671875 72.90625 
L 19.671875 8.296875 
L 55.171875 8.296875 
L 55.171875 0 
L 9.8125 0 
z
" id="DejaVuSans-76"/>
      <path d="M 11.71875 12.40625 
L 22.015625 12.40625 
L 22.015625 0 
L 11.71875 0 
z
M 11.71875 51.703125 
L 22.015625 51.703125 
L 22.015625 39.3125 
L 11.71875 39.3125 
z
" id="DejaVuSans-58"/>
      <path d="M 10.796875 72.90625 
L 49.515625 72.90625 
L 49.515625 64.59375 
L 19.828125 64.59375 
L 19.828125 46.734375 
Q 21.96875 47.46875 24.109375 47.828125 
Q 26.265625 48.1875 28.421875 48.1875 
Q 40.625 48.1875 47.75 41.5 
Q 54.890625 34.8125 54.890625 23.390625 
Q 54.890625 11.625 47.5625 5.09375 
Q 40.234375 -1.421875 26.90625 -1.421875 
Q 22.3125 -1.421875 17.546875 -0.640625 
Q 12.796875 0.140625 7.71875 1.703125 
L 7.71875 11.625 
Q 12.109375 9.234375 16.796875 8.0625 
Q 21.484375 6.890625 26.703125 6.890625 
Q 35.15625 6.890625 40.078125 11.328125 
Q 45.015625 15.765625 45.015625 23.390625 
Q 45.015625 31 40.078125 35.4375 
Q 35.15625 39.890625 26.703125 39.890625 
Q 22.75 39.890625 18.8125 39.015625 
Q 14.890625 38.140625 10.796875 36.28125 
z
" id="DejaVuSans-53"/>
     </defs>
     <use xlink:href="#DejaVuSans-56"/>
     <use x="63.623047" xlink:href="#DejaVuSans-32"/>
     <use x="95.410156" xlink:href="#DejaVuSans-116"/>
     <use x="134.619141" xlink:href="#DejaVuSans-97"/>
     <use x="195.898438" xlink:href="#DejaVuSans-114"/>
     <use x="235.261719" xlink:href="#DejaVuSans-103"/>
     <use x="298.738281" xlink:href="#DejaVuSans-101"/>
     <use x="360.261719" xlink:href="#DejaVuSans-116"/>
     <use x="399.470703" xlink:href="#DejaVuSans-115"/>
     <use x="451.570312" xlink:href="#DejaVuSans-32"/>
     <use x="483.357422" xlink:href="#DejaVuSans-82"/>
     <use x="552.839844" xlink:href="#DejaVuSans-76"/>
     <use x="608.552734" xlink:href="#DejaVuSans-115"/>
     <use x="660.652344" xlink:href="#DejaVuSans-47"/>
     <use x="694.34375" xlink:href="#DejaVuSans-100"/>
     <use x="757.820312" xlink:href="#DejaVuSans-105"/>
     <use x="785.603516" xlink:href="#DejaVuSans-109"/>
     <use x="883.015625" xlink:href="#DejaVuSans-58"/>
     <use x="916.707031" xlink:href="#DejaVuSans-32"/>
     <use x="948.494141" xlink:href="#DejaVuSans-48"/>
     <use x="1012.117188" xlink:href="#DejaVuSans-46"/>
     <use x="1043.904297" xlink:href="#DejaVuSans-53"/>
     <use x="1107.527344" xlink:href="#DejaVuSans-46"/>
     <use x="1139.314453" xlink:href="#DejaVuSans-46"/>
     <use x="1171.101562" xlink:href="#DejaVuSans-50"/>
     <use x="1234.724609" xlink:href="#DejaVuSans-48"/>
    </g>
    <!--   from /home/local/EMSE2000/leriche/AESOP/EXPE_DOCOCO/bestCustomAlg -->
    <g transform="translate(60.41088 37.004824)scale(0.102 -0.102)">
     <defs>
      <path d="M 54.890625 33.015625 
L 54.890625 0 
L 45.90625 0 
L 45.90625 32.71875 
Q 45.90625 40.484375 42.875 44.328125 
Q 39.84375 48.1875 33.796875 48.1875 
Q 26.515625 48.1875 22.3125 43.546875 
Q 18.109375 38.921875 18.109375 30.90625 
L 18.109375 0 
L 9.078125 0 
L 9.078125 75.984375 
L 18.109375 75.984375 
L 18.109375 46.1875 
Q 21.34375 51.125 25.703125 53.5625 
Q 30.078125 56 35.796875 56 
Q 45.21875 56 50.046875 50.171875 
Q 54.890625 44.34375 54.890625 33.015625 
z
" id="DejaVuSans-104"/>
      <path d="M 19.671875 64.796875 
L 19.671875 37.40625 
L 32.078125 37.40625 
Q 38.96875 37.40625 42.71875 40.96875 
Q 46.484375 44.53125 46.484375 51.125 
Q 46.484375 57.671875 42.71875 61.234375 
Q 38.96875 64.796875 32.078125 64.796875 
z
M 9.8125 72.90625 
L 32.078125 72.90625 
Q 44.34375 72.90625 50.609375 67.359375 
Q 56.890625 61.8125 56.890625 51.125 
Q 56.890625 40.328125 50.609375 34.8125 
Q 44.34375 29.296875 32.078125 29.296875 
L 19.671875 29.296875 
L 19.671875 0 
L 9.8125 0 
z
" id="DejaVuSans-80"/>
      <path d="M 6.296875 72.90625 
L 16.890625 72.90625 
L 35.015625 45.796875 
L 53.21875 72.90625 
L 63.8125 72.90625 
L 40.375 37.890625 
L 65.375 0 
L 54.78125 0 
L 34.28125 31 
L 13.625 0 
L 2.984375 0 
L 29 38.921875 
z
" id="DejaVuSans-88"/>
      <path d="M 50.984375 -16.609375 
L 50.984375 -23.578125 
L -0.984375 -23.578125 
L -0.984375 -16.609375 
z
" id="DejaVuSans-95"/>
     </defs>
     <use xlink:href="#DejaVuSans-32"/>
     <use x="31.787109" xlink:href="#DejaVuSans-32"/>
     <use x="63.574219" xlink:href="#DejaVuSans-102"/>
     <use x="98.779297" xlink:href="#DejaVuSans-114"/>
     <use x="137.642578" xlink:href="#DejaVuSans-111"/>
     <use x="198.824219" xlink:href="#DejaVuSans-109"/>
     <use x="296.236328" xlink:href="#DejaVuSans-32"/>
     <use x="328.023438" xlink:href="#DejaVuSans-47"/>
     <use x="361.714844" xlink:href="#DejaVuSans-104"/>
     <use x="425.09375" xlink:href="#DejaVuSans-111"/>
     <use x="486.275391" xlink:href="#DejaVuSans-109"/>
     <use x="583.6875" xlink:href="#DejaVuSans-101"/>
     <use x="645.210938" xlink:href="#DejaVuSans-47"/>
     <use x="678.902344" xlink:href="#DejaVuSans-108"/>
     <use x="706.685547" xlink:href="#DejaVuSans-111"/>
     <use x="767.867188" xlink:href="#DejaVuSans-99"/>
     <use x="822.847656" xlink:href="#DejaVuSans-97"/>
     <use x="884.126953" xlink:href="#DejaVuSans-108"/>
     <use x="911.910156" xlink:href="#DejaVuSans-47"/>
     <use x="945.601562" xlink:href="#DejaVuSans-69"/>
     <use x="1008.785156" xlink:href="#DejaVuSans-77"/>
     <use x="1095.064453" xlink:href="#DejaVuSans-83"/>
     <use x="1158.541016" xlink:href="#DejaVuSans-69"/>
     <use x="1221.724609" xlink:href="#DejaVuSans-50"/>
     <use x="1285.347656" xlink:href="#DejaVuSans-48"/>
     <use x="1348.970703" xlink:href="#DejaVuSans-48"/>
     <use x="1412.59375" xlink:href="#DejaVuSans-48"/>
     <use x="1476.216797" xlink:href="#DejaVuSans-47"/>
     <use x="1509.908203" xlink:href="#DejaVuSans-108"/>
     <use x="1537.691406" xlink:href="#DejaVuSans-101"/>
     <use x="1599.214844" xlink:href="#DejaVuSans-114"/>
     <use x="1640.328125" xlink:href="#DejaVuSans-105"/>
     <use x="1668.111328" xlink:href="#DejaVuSans-99"/>
     <use x="1723.091797" xlink:href="#DejaVuSans-104"/>
     <use x="1786.470703" xlink:href="#DejaVuSans-101"/>
     <use x="1847.994141" xlink:href="#DejaVuSans-47"/>
     <use x="1881.685547" xlink:href="#DejaVuSans-65"/>
     <use x="1950.09375" xlink:href="#DejaVuSans-69"/>
     <use x="2013.277344" xlink:href="#DejaVuSans-83"/>
     <use x="2076.753906" xlink:href="#DejaVuSans-79"/>
     <use x="2155.464844" xlink:href="#DejaVuSans-80"/>
     <use x="2215.767578" xlink:href="#DejaVuSans-47"/>
     <use x="2249.458984" xlink:href="#DejaVuSans-69"/>
     <use x="2312.642578" xlink:href="#DejaVuSans-88"/>
     <use x="2381.148438" xlink:href="#DejaVuSans-80"/>
     <use x="2441.451172" xlink:href="#DejaVuSans-69"/>
     <use x="2504.634766" xlink:href="#DejaVuSans-95"/>
     <use x="2554.634766" xlink:href="#DejaVuSans-68"/>
     <use x="2631.636719" xlink:href="#DejaVuSans-79"/>
     <use x="2710.347656" xlink:href="#DejaVuSans-67"/>
     <use x="2780.171875" xlink:href="#DejaVuSans-79"/>
     <use x="2858.882812" xlink:href="#DejaVuSans-67"/>
     <use x="2928.707031" xlink:href="#DejaVuSans-79"/>
     <use x="3007.417969" xlink:href="#DejaVuSans-47"/>
     <use x="3041.109375" xlink:href="#DejaVuSans-98"/>
     <use x="3104.585938" xlink:href="#DejaVuSans-101"/>
     <use x="3166.109375" xlink:href="#DejaVuSans-115"/>
     <use x="3218.208984" xlink:href="#DejaVuSans-116"/>
     <use x="3257.417969" xlink:href="#DejaVuSans-67"/>
     <use x="3327.242188" xlink:href="#DejaVuSans-117"/>
     <use x="3390.621094" xlink:href="#DejaVuSans-115"/>
     <use x="3442.720703" xlink:href="#DejaVuSans-116"/>
     <use x="3481.929688" xlink:href="#DejaVuSans-111"/>
     <use x="3543.111328" xlink:href="#DejaVuSans-109"/>
     <use x="3640.523438" xlink:href="#DejaVuSans-65"/>
     <use x="3708.931641" xlink:href="#DejaVuSans-108"/>
     <use x="3736.714844" xlink:href="#DejaVuSans-103"/>
    </g>
    <!-- 15 instances -->
    <g transform="translate(60.41088 48.71028)scale(0.102 -0.102)">
     <use xlink:href="#DejaVuSans-49"/>
     <use x="63.623047" xlink:href="#DejaVuSans-53"/>
     <use x="127.246094" xlink:href="#DejaVuSans-32"/>
     <use x="159.033203" xlink:href="#DejaVuSans-105"/>
     <use x="186.816406" xlink:href="#DejaVuSans-110"/>
     <use x="250.195312" xlink:href="#DejaVuSans-115"/>
     <use x="302.294922" xlink:href="#DejaVuSans-116"/>
     <use x="341.503906" xlink:href="#DejaVuSans-97"/>
     <use x="402.783203" xlink:href="#DejaVuSans-110"/>
     <use x="466.162109" xlink:href="#DejaVuSans-99"/>
     <use x="521.142578" xlink:href="#DejaVuSans-101"/>
     <use x="582.666016" xlink:href="#DejaVuSans-115"/>
    </g>
   </g>
   <g id="text_16">
    <!-- v2.3.3.84 -->
    <g style="fill:#808080;" transform="translate(174.511187 293.909432)scale(0.1 -0.1)">
     <defs>
      <path d="M 40.578125 39.3125 
Q 47.65625 37.796875 51.625 33 
Q 55.609375 28.21875 55.609375 21.1875 
Q 55.609375 10.40625 48.1875 4.484375 
Q 40.765625 -1.421875 27.09375 -1.421875 
Q 22.515625 -1.421875 17.65625 -0.515625 
Q 12.796875 0.390625 7.625 2.203125 
L 7.625 11.71875 
Q 11.71875 9.328125 16.59375 8.109375 
Q 21.484375 6.890625 26.8125 6.890625 
Q 36.078125 6.890625 40.9375 10.546875 
Q 45.796875 14.203125 45.796875 21.1875 
Q 45.796875 27.640625 41.28125 31.265625 
Q 36.765625 34.90625 28.71875 34.90625 
L 20.21875 34.90625 
L 20.21875 43.015625 
L 29.109375 43.015625 
Q 36.375 43.015625 40.234375 45.921875 
Q 44.09375 48.828125 44.09375 54.296875 
Q 44.09375 59.90625 40.109375 62.90625 
Q 36.140625 65.921875 28.71875 65.921875 
Q 24.65625 65.921875 20.015625 65.03125 
Q 15.375 64.15625 9.8125 62.3125 
L 9.8125 71.09375 
Q 15.4375 72.65625 20.34375 73.4375 
Q 25.25 74.21875 29.59375 74.21875 
Q 40.828125 74.21875 47.359375 69.109375 
Q 53.90625 64.015625 53.90625 55.328125 
Q 53.90625 49.265625 50.4375 45.09375 
Q 46.96875 40.921875 40.578125 39.3125 
z
" id="DejaVuSans-51"/>
     </defs>
     <use xlink:href="#DejaVuSans-118"/>
     <use x="59.179688" xlink:href="#DejaVuSans-50"/>
     <use x="122.802734" xlink:href="#DejaVuSans-46"/>
     <use x="154.589844" xlink:href="#DejaVuSans-51"/>
     <use x="218.212891" xlink:href="#DejaVuSans-46"/>
     <use x="250" xlink:href="#DejaVuSans-51"/>
     <use x="313.623047" xlink:href="#DejaVuSans-46"/>
     <use x="345.410156" xlink:href="#DejaVuSans-56"/>
     <use x="409.033203" xlink:href="#DejaVuSans-52"/>
    </g>
   </g>
  </g>
 </g>
 <defs>
  <clipPath id="p21740ca1d2">
   <rect height="295.488" width="281.088" x="57.6" y="3.456"/>
  </clipPath>
 </defs>
</svg>
