<?xml version="1.0" encoding="utf-8" standalone="no"?>
<!DOCTYPE svg PUBLIC "-//W3C//DTD SVG 1.1//EN"
  "http://www.w3.org/Graphics/SVG/1.1/DTD/svg11.dtd">
<!-- Created with matplotlib (https://matplotlib.org/) -->
<svg height="345.6pt" version="1.1" viewBox="0 0 460.8 345.6" width="460.8pt" xmlns="http://www.w3.org/2000/svg" xmlns:xlink="http://www.w3.org/1999/xlink">
 <metadata>
  <rdf:RDF xmlns:cc="http://creativecommons.org/ns#" xmlns:dc="http://purl.org/dc/elements/1.1/" xmlns:rdf="http://www.w3.org/1999/02/22-rdf-syntax-ns#">
   <cc:Work>
    <dc:type rdf:resource="http://purl.org/dc/dcmitype/StillImage"/>
    <dc:date>2020-12-11T23:05:21.542496</dc:date>
    <dc:format>image/svg+xml</dc:format>
    <dc:creator>
     <cc:Agent>
      <dc:title>Matplotlib v3.3.3, https://matplotlib.org/</dc:title>
     </cc:Agent>
    </dc:creator>
   </cc:Work>
  </rdf:RDF>
 </metadata>
 <defs>
  <style type="text/css">*{stroke-linecap:butt;stroke-linejoin:round;}</style>
 </defs>
 <g id="figure_1">
  <g id="patch_1">
   <path d="M 0 345.6 
L 460.8 345.6 
L 460.8 0 
L 0 0 
z
" style="fill:#ffffff;"/>
  </g>
  <g id="axes_1">
   <g id="patch_2">
    <path d="M 57.6 298.944 
L 338.688 298.944 
L 338.688 3.456 
L 57.6 3.456 
z
" style="fill:#ffffff;"/>
   </g>
   <g id="line2d_1">
    <path d="M 8.192457 298.944 
L 8.192457 294.225252 
L 31.023096 294.225252 
L 31.023096 289.506504 
L 36.534727 289.506504 
L 36.534727 287.14713 
L 44.168812 287.14713 
L 44.168812 284.787756 
L 51.156959 284.787756 
L 51.156959 282.428382 
L 55.507639 282.428382 
L 55.507639 277.709634 
L 57.6 277.709634 
L 57.6 275.35026 
L 65.476799 275.35026 
L 65.476799 272.990886 
L 76.041439 272.990886 
L 76.041439 270.631512 
L 77.678004 270.631512 
L 77.678004 268.272138 
L 79.282789 268.272138 
L 79.282789 265.912764 
L 95.141398 265.912764 
L 95.141398 263.55339 
L 98.985991 263.55339 
L 98.985991 261.194016 
L 101.453154 261.194016 
L 101.453154 258.834642 
L 105.021068 258.834642 
L 105.021068 254.115894 
L 108.441301 254.115894 
L 108.441301 249.397146 
L 109.550631 249.397146 
L 109.550631 247.037772 
L 110.645268 247.037772 
L 110.645268 244.678398 
L 116.925034 244.678398 
L 116.925034 242.319024 
L 117.92679 242.319024 
L 117.92679 239.95965 
L 118.916549 239.95965 
L 118.916549 237.600276 
L 119.894594 237.600276 
L 119.894594 232.881528 
L 128.212161 232.881528 
L 128.212161 230.522154 
L 134.148115 230.522154 
L 134.148115 228.16278 
L 135.768634 228.16278 
L 135.768634 225.803406 
L 146.301173 225.803406 
L 146.301173 223.444032 
L 147.70195 223.444032 
L 147.70195 221.084658 
L 149.079379 221.084658 
L 149.079379 211.647162 
L 151.76722 211.647162 
L 151.76722 206.928414 
L 152.425741 206.928414 
L 152.425741 204.56904 
L 153.079055 204.56904 
L 153.079055 199.850292 
L 159.342949 199.850292 
L 159.342949 197.490918 
L 172.168684 197.490918 
L 172.168684 192.77217 
L 174.711772 192.77217 
L 174.711772 190.412796 
L 178.624637 190.412796 
L 178.624637 188.053422 
L 187.236437 188.053422 
L 187.236437 185.694048 
L 187.665757 185.694048 
L 187.665757 183.334674 
L 192.246689 183.334674 
L 192.246689 180.9753 
L 197.352207 180.9753 
L 197.352207 176.256552 
L 197.732179 176.256552 
L 197.732179 173.897178 
L 199.234836 173.897178 
L 199.234836 171.537804 
L 199.606269 171.537804 
L 199.606269 169.17843 
L 199.976041 169.17843 
L 199.976041 166.819056 
L 201.438802 166.819056 
L 201.438802 164.459682 
L 202.519129 164.459682 
L 202.519129 162.100308 
L 203.23158 162.100308 
L 203.23158 159.740934 
L 203.585516 159.740934 
L 203.585516 157.38156 
L 204.638318 157.38156 
L 204.638318 155.022186 
L 206.363721 155.022186 
L 206.363721 152.662812 
L 219.589753 152.662812 
L 219.589753 147.944064 
L 221.317561 147.944064 
L 221.317561 145.58469 
L 221.885562 145.58469 
L 221.885562 140.865942 
L 223.288717 140.865942 
L 223.288717 136.147194 
L 225.213952 136.147194 
L 225.213952 133.78782 
L 225.485361 133.78782 
L 225.485361 131.428446 
L 227.360666 131.428446 
L 227.360666 129.069072 
L 231.745298 129.069072 
L 231.745298 126.709698 
L 237.329825 126.709698 
L 237.329825 124.350324 
L 238.031192 124.350324 
L 238.031192 121.99095 
L 247.687597 121.99095 
L 247.687597 119.631576 
L 249.531031 119.631576 
L 249.531031 117.272202 
L 252.710032 117.272202 
L 252.710032 114.912828 
L 253.678904 114.912828 
L 253.678904 112.553454 
L 253.871323 112.553454 
L 253.871323 110.19408 
L 254.826753 110.19408 
L 254.826753 107.834706 
L 255.394754 107.834706 
L 255.394754 105.475332 
L 255.583224 105.475332 
L 255.583224 103.115958 
L 259.084824 103.115958 
L 259.084824 100.756584 
L 261.397935 100.756584 
L 261.397935 98.39721 
L 264.497442 98.39721 
L 264.497442 96.037836 
L 266.170452 96.037836 
L 266.170452 93.678462 
L 268.778758 93.678462 
L 268.778758 91.319088 
L 278.459291 91.319088 
L 278.459291 88.959714 
L 281.815847 88.959714 
L 281.815847 86.60034 
L 283.040223 86.60034 
L 283.040223 84.240966 
L 283.30986 84.240966 
L 283.30986 81.881592 
L 283.578621 81.881592 
L 283.578621 79.522218 
L 284.645008 79.522218 
L 284.645008 77.162844 
L 289.530514 77.162844 
L 289.530514 74.80347 
L 290.523245 74.80347 
L 290.523245 72.444096 
L 291.260044 72.444096 
L 291.260044 70.084722 
L 292.594016 70.084722 
L 292.594016 67.725348 
L 292.714226 67.725348 
L 292.714226 65.365974 
L 298.062951 65.365974 
L 298.062951 63.0066 
L 303.086447 63.0066 
L 303.086447 60.647226 
L 303.509179 60.647226 
L 303.509179 58.287852 
L 305.282048 58.287852 
L 305.282048 53.569104 
L 307.118654 53.569104 
L 307.118654 51.20973 
L 308.221256 51.20973 
L 308.221256 48.850356 
L 311.443456 48.850356 
L 311.443456 46.490982 
L 311.634761 46.490982 
L 311.634761 44.131608 
L 311.825624 44.131608 
L 311.825624 41.772234 
L 315.187871 41.772234 
L 315.187871 39.41286 
L 319.728416 39.41286 
L 319.728416 37.053486 
L 324.114628 37.053486 
L 324.114628 34.694112 
L 326.782094 34.694112 
L 326.782094 32.334738 
L 327.178848 32.334738 
L 327.178848 29.975364 
L 332.616393 29.975364 
L 332.616393 27.61599 
L 336.595639 27.61599 
L 336.595639 25.256616 
L 338.688 25.256616 
L 338.688 25.256616 
" style="fill:none;stroke:#f5deb3;stroke-linecap:square;stroke-width:4;"/>
   </g>
   <g id="line2d_2">
    <defs>
     <path d="M -0 7.778175 
L 7.778175 0 
L 0 -7.778175 
L -7.778175 -0 
z
" id="m4c74f3a698" style="stroke:#f5deb3;stroke-linejoin:miter;stroke-width:1.5;"/>
    </defs>
    <g>
     <use style="fill:#f5deb3;stroke:#f5deb3;stroke-linejoin:miter;stroke-width:1.5;" x="116.925034" xlink:href="#m4c74f3a698" y="244.678398"/>
     <use style="fill:#f5deb3;stroke:#f5deb3;stroke-linejoin:miter;stroke-width:1.5;" x="187.665757" xlink:href="#m4c74f3a698" y="185.694048"/>
     <use style="fill:#f5deb3;stroke:#f5deb3;stroke-linejoin:miter;stroke-width:1.5;" x="219.589753" xlink:href="#m4c74f3a698" y="147.944064"/>
     <use style="fill:#f5deb3;stroke:#f5deb3;stroke-linejoin:miter;stroke-width:1.5;" x="283.040223" xlink:href="#m4c74f3a698" y="86.60034"/>
     <use style="fill:#f5deb3;stroke:#f5deb3;stroke-linejoin:miter;stroke-width:1.5;" x="311.443456" xlink:href="#m4c74f3a698" y="46.490982"/>
     <use style="fill:#f5deb3;stroke:#f5deb3;stroke-linejoin:miter;stroke-width:1.5;" x="336.595639" xlink:href="#m4c74f3a698" y="25.256616"/>
     <use style="fill:#f5deb3;stroke:#f5deb3;stroke-linejoin:miter;stroke-width:1.5;" x="338.688" xlink:href="#m4c74f3a698" y="25.256616"/>
    </g>
   </g>
   <g id="line2d_3">
    <path style="fill:none;stroke:#f5deb3;stroke-linecap:square;stroke-width:4;"/>
    <g/>
   </g>
   <g id="line2d_4">
    <path d="M 338.688 25.256616 
L 369.60768 12.232871 
" style="fill:none;stroke:#f5deb3;stroke-linecap:square;stroke-width:4;"/>
    <g>
     <use style="fill:#f5deb3;stroke:#f5deb3;stroke-linejoin:miter;stroke-width:1.5;" x="338.688" xlink:href="#m4c74f3a698" y="25.256616"/>
     <use style="fill:#f5deb3;stroke:#f5deb3;stroke-linejoin:miter;stroke-width:1.5;" x="369.60768" xlink:href="#m4c74f3a698" y="12.232871"/>
    </g>
   </g>
   <g id="matplotlib.axis_1">
    <g id="xtick_1">
     <g id="line2d_5">
      <path clip-path="url(#pf2eb1be339)" d="M 57.6 298.944 
L 57.6 3.456 
" style="fill:none;stroke:#b0b0b0;stroke-linecap:square;stroke-width:0.8;"/>
     </g>
     <g id="line2d_6">
      <defs>
       <path d="M 0 0 
L 0 3.5 
" id="m0ba01ecf2e" style="stroke:#000000;stroke-width:0.8;"/>
      </defs>
      <g>
       <use style="stroke:#000000;stroke-width:0.8;" x="57.6" xlink:href="#m0ba01ecf2e" y="298.944"/>
      </g>
     </g>
     <g id="text_1">
      <!-- 0 -->
      <g transform="translate(51.2375 321.140875)scale(0.2 -0.2)">
       <defs>
        <path d="M 31.78125 66.40625 
Q 24.171875 66.40625 20.328125 58.90625 
Q 16.5 51.421875 16.5 36.375 
Q 16.5 21.390625 20.328125 13.890625 
Q 24.171875 6.390625 31.78125 6.390625 
Q 39.453125 6.390625 43.28125 13.890625 
Q 47.125 21.390625 47.125 36.375 
Q 47.125 51.421875 43.28125 58.90625 
Q 39.453125 66.40625 31.78125 66.40625 
z
M 31.78125 74.21875 
Q 44.046875 74.21875 50.515625 64.515625 
Q 56.984375 54.828125 56.984375 36.375 
Q 56.984375 17.96875 50.515625 8.265625 
Q 44.046875 -1.421875 31.78125 -1.421875 
Q 19.53125 -1.421875 13.0625 8.265625 
Q 6.59375 17.96875 6.59375 36.375 
Q 6.59375 54.828125 13.0625 64.515625 
Q 19.53125 74.21875 31.78125 74.21875 
z
" id="DejaVuSans-48"/>
       </defs>
       <use xlink:href="#DejaVuSans-48"/>
      </g>
     </g>
    </g>
    <g id="xtick_2">
     <g id="line2d_7">
      <path clip-path="url(#pf2eb1be339)" d="M 247.894466 298.944 
L 247.894466 3.456 
" style="fill:none;stroke:#b0b0b0;stroke-linecap:square;stroke-width:0.8;"/>
     </g>
     <g id="line2d_8">
      <defs>
       <path d="M 0 0 
L 0 2 
" id="m6dc4f3ad9f" style="stroke:#000000;stroke-width:0.6;"/>
      </defs>
      <g>
       <use style="stroke:#000000;stroke-width:0.6;" x="247.894466" xlink:href="#m6dc4f3ad9f" y="298.944"/>
      </g>
     </g>
    </g>
    <g id="text_2">
     <!-- log10(# f-evals / dimension) -->
     <g transform="translate(77.764078 342.217594)scale(0.17 -0.17)">
      <defs>
       <path d="M 9.421875 75.984375 
L 18.40625 75.984375 
L 18.40625 0 
L 9.421875 0 
z
" id="DejaVuSans-108"/>
       <path d="M 30.609375 48.390625 
Q 23.390625 48.390625 19.1875 42.75 
Q 14.984375 37.109375 14.984375 27.296875 
Q 14.984375 17.484375 19.15625 11.84375 
Q 23.34375 6.203125 30.609375 6.203125 
Q 37.796875 6.203125 41.984375 11.859375 
Q 46.1875 17.53125 46.1875 27.296875 
Q 46.1875 37.015625 41.984375 42.703125 
Q 37.796875 48.390625 30.609375 48.390625 
z
M 30.609375 56 
Q 42.328125 56 49.015625 48.375 
Q 55.71875 40.765625 55.71875 27.296875 
Q 55.71875 13.875 49.015625 6.21875 
Q 42.328125 -1.421875 30.609375 -1.421875 
Q 18.84375 -1.421875 12.171875 6.21875 
Q 5.515625 13.875 5.515625 27.296875 
Q 5.515625 40.765625 12.171875 48.375 
Q 18.84375 56 30.609375 56 
z
" id="DejaVuSans-111"/>
       <path d="M 45.40625 27.984375 
Q 45.40625 37.75 41.375 43.109375 
Q 37.359375 48.484375 30.078125 48.484375 
Q 22.859375 48.484375 18.828125 43.109375 
Q 14.796875 37.75 14.796875 27.984375 
Q 14.796875 18.265625 18.828125 12.890625 
Q 22.859375 7.515625 30.078125 7.515625 
Q 37.359375 7.515625 41.375 12.890625 
Q 45.40625 18.265625 45.40625 27.984375 
z
M 54.390625 6.78125 
Q 54.390625 -7.171875 48.1875 -13.984375 
Q 42 -20.796875 29.203125 -20.796875 
Q 24.46875 -20.796875 20.265625 -20.09375 
Q 16.0625 -19.390625 12.109375 -17.921875 
L 12.109375 -9.1875 
Q 16.0625 -11.328125 19.921875 -12.34375 
Q 23.78125 -13.375 27.78125 -13.375 
Q 36.625 -13.375 41.015625 -8.765625 
Q 45.40625 -4.15625 45.40625 5.171875 
L 45.40625 9.625 
Q 42.625 4.78125 38.28125 2.390625 
Q 33.9375 0 27.875 0 
Q 17.828125 0 11.671875 7.65625 
Q 5.515625 15.328125 5.515625 27.984375 
Q 5.515625 40.671875 11.671875 48.328125 
Q 17.828125 56 27.875 56 
Q 33.9375 56 38.28125 53.609375 
Q 42.625 51.21875 45.40625 46.390625 
L 45.40625 54.6875 
L 54.390625 54.6875 
z
" id="DejaVuSans-103"/>
       <path d="M 12.40625 8.296875 
L 28.515625 8.296875 
L 28.515625 63.921875 
L 10.984375 60.40625 
L 10.984375 69.390625 
L 28.421875 72.90625 
L 38.28125 72.90625 
L 38.28125 8.296875 
L 54.390625 8.296875 
L 54.390625 0 
L 12.40625 0 
z
" id="DejaVuSans-49"/>
       <path d="M 31 75.875 
Q 24.46875 64.65625 21.28125 53.65625 
Q 18.109375 42.671875 18.109375 31.390625 
Q 18.109375 20.125 21.3125 9.0625 
Q 24.515625 -2 31 -13.1875 
L 23.1875 -13.1875 
Q 15.875 -1.703125 12.234375 9.375 
Q 8.59375 20.453125 8.59375 31.390625 
Q 8.59375 42.28125 12.203125 53.3125 
Q 15.828125 64.359375 23.1875 75.875 
z
" id="DejaVuSans-40"/>
       <path d="M 51.125 44 
L 36.921875 44 
L 32.8125 27.6875 
L 47.125 27.6875 
z
M 43.796875 71.78125 
L 38.71875 51.515625 
L 52.984375 51.515625 
L 58.109375 71.78125 
L 65.921875 71.78125 
L 60.890625 51.515625 
L 76.125 51.515625 
L 76.125 44 
L 58.984375 44 
L 54.984375 27.6875 
L 70.515625 27.6875 
L 70.515625 20.21875 
L 53.078125 20.21875 
L 48 0 
L 40.1875 0 
L 45.21875 20.21875 
L 30.90625 20.21875 
L 25.875 0 
L 18.015625 0 
L 23.09375 20.21875 
L 7.71875 20.21875 
L 7.71875 27.6875 
L 24.90625 27.6875 
L 29 44 
L 13.28125 44 
L 13.28125 51.515625 
L 30.90625 51.515625 
L 35.890625 71.78125 
z
" id="DejaVuSans-35"/>
       <path id="DejaVuSans-32"/>
       <path d="M 37.109375 75.984375 
L 37.109375 68.5 
L 28.515625 68.5 
Q 23.6875 68.5 21.796875 66.546875 
Q 19.921875 64.59375 19.921875 59.515625 
L 19.921875 54.6875 
L 34.71875 54.6875 
L 34.71875 47.703125 
L 19.921875 47.703125 
L 19.921875 0 
L 10.890625 0 
L 10.890625 47.703125 
L 2.296875 47.703125 
L 2.296875 54.6875 
L 10.890625 54.6875 
L 10.890625 58.5 
Q 10.890625 67.625 15.140625 71.796875 
Q 19.390625 75.984375 28.609375 75.984375 
z
" id="DejaVuSans-102"/>
       <path d="M 4.890625 31.390625 
L 31.203125 31.390625 
L 31.203125 23.390625 
L 4.890625 23.390625 
z
" id="DejaVuSans-45"/>
       <path d="M 56.203125 29.59375 
L 56.203125 25.203125 
L 14.890625 25.203125 
Q 15.484375 15.921875 20.484375 11.0625 
Q 25.484375 6.203125 34.421875 6.203125 
Q 39.59375 6.203125 44.453125 7.46875 
Q 49.3125 8.734375 54.109375 11.28125 
L 54.109375 2.78125 
Q 49.265625 0.734375 44.1875 -0.34375 
Q 39.109375 -1.421875 33.890625 -1.421875 
Q 20.796875 -1.421875 13.15625 6.1875 
Q 5.515625 13.8125 5.515625 26.8125 
Q 5.515625 40.234375 12.765625 48.109375 
Q 20.015625 56 32.328125 56 
Q 43.359375 56 49.78125 48.890625 
Q 56.203125 41.796875 56.203125 29.59375 
z
M 47.21875 32.234375 
Q 47.125 39.59375 43.09375 43.984375 
Q 39.0625 48.390625 32.421875 48.390625 
Q 24.90625 48.390625 20.390625 44.140625 
Q 15.875 39.890625 15.1875 32.171875 
z
" id="DejaVuSans-101"/>
       <path d="M 2.984375 54.6875 
L 12.5 54.6875 
L 29.59375 8.796875 
L 46.6875 54.6875 
L 56.203125 54.6875 
L 35.6875 0 
L 23.484375 0 
z
" id="DejaVuSans-118"/>
       <path d="M 34.28125 27.484375 
Q 23.390625 27.484375 19.1875 25 
Q 14.984375 22.515625 14.984375 16.5 
Q 14.984375 11.71875 18.140625 8.90625 
Q 21.296875 6.109375 26.703125 6.109375 
Q 34.1875 6.109375 38.703125 11.40625 
Q 43.21875 16.703125 43.21875 25.484375 
L 43.21875 27.484375 
z
M 52.203125 31.203125 
L 52.203125 0 
L 43.21875 0 
L 43.21875 8.296875 
Q 40.140625 3.328125 35.546875 0.953125 
Q 30.953125 -1.421875 24.3125 -1.421875 
Q 15.921875 -1.421875 10.953125 3.296875 
Q 6 8.015625 6 15.921875 
Q 6 25.140625 12.171875 29.828125 
Q 18.359375 34.515625 30.609375 34.515625 
L 43.21875 34.515625 
L 43.21875 35.40625 
Q 43.21875 41.609375 39.140625 45 
Q 35.0625 48.390625 27.6875 48.390625 
Q 23 48.390625 18.546875 47.265625 
Q 14.109375 46.140625 10.015625 43.890625 
L 10.015625 52.203125 
Q 14.9375 54.109375 19.578125 55.046875 
Q 24.21875 56 28.609375 56 
Q 40.484375 56 46.34375 49.84375 
Q 52.203125 43.703125 52.203125 31.203125 
z
" id="DejaVuSans-97"/>
       <path d="M 44.28125 53.078125 
L 44.28125 44.578125 
Q 40.484375 46.53125 36.375 47.5 
Q 32.28125 48.484375 27.875 48.484375 
Q 21.1875 48.484375 17.84375 46.4375 
Q 14.5 44.390625 14.5 40.28125 
Q 14.5 37.15625 16.890625 35.375 
Q 19.28125 33.59375 26.515625 31.984375 
L 29.59375 31.296875 
Q 39.15625 29.25 43.1875 25.515625 
Q 47.21875 21.78125 47.21875 15.09375 
Q 47.21875 7.46875 41.1875 3.015625 
Q 35.15625 -1.421875 24.609375 -1.421875 
Q 20.21875 -1.421875 15.453125 -0.5625 
Q 10.6875 0.296875 5.421875 2 
L 5.421875 11.28125 
Q 10.40625 8.6875 15.234375 7.390625 
Q 20.0625 6.109375 24.8125 6.109375 
Q 31.15625 6.109375 34.5625 8.28125 
Q 37.984375 10.453125 37.984375 14.40625 
Q 37.984375 18.0625 35.515625 20.015625 
Q 33.0625 21.96875 24.703125 23.78125 
L 21.578125 24.515625 
Q 13.234375 26.265625 9.515625 29.90625 
Q 5.8125 33.546875 5.8125 39.890625 
Q 5.8125 47.609375 11.28125 51.796875 
Q 16.75 56 26.8125 56 
Q 31.78125 56 36.171875 55.265625 
Q 40.578125 54.546875 44.28125 53.078125 
z
" id="DejaVuSans-115"/>
       <path d="M 25.390625 72.90625 
L 33.6875 72.90625 
L 8.296875 -9.28125 
L 0 -9.28125 
z
" id="DejaVuSans-47"/>
       <path d="M 45.40625 46.390625 
L 45.40625 75.984375 
L 54.390625 75.984375 
L 54.390625 0 
L 45.40625 0 
L 45.40625 8.203125 
Q 42.578125 3.328125 38.25 0.953125 
Q 33.9375 -1.421875 27.875 -1.421875 
Q 17.96875 -1.421875 11.734375 6.484375 
Q 5.515625 14.40625 5.515625 27.296875 
Q 5.515625 40.1875 11.734375 48.09375 
Q 17.96875 56 27.875 56 
Q 33.9375 56 38.25 53.625 
Q 42.578125 51.265625 45.40625 46.390625 
z
M 14.796875 27.296875 
Q 14.796875 17.390625 18.875 11.75 
Q 22.953125 6.109375 30.078125 6.109375 
Q 37.203125 6.109375 41.296875 11.75 
Q 45.40625 17.390625 45.40625 27.296875 
Q 45.40625 37.203125 41.296875 42.84375 
Q 37.203125 48.484375 30.078125 48.484375 
Q 22.953125 48.484375 18.875 42.84375 
Q 14.796875 37.203125 14.796875 27.296875 
z
" id="DejaVuSans-100"/>
       <path d="M 9.421875 54.6875 
L 18.40625 54.6875 
L 18.40625 0 
L 9.421875 0 
z
M 9.421875 75.984375 
L 18.40625 75.984375 
L 18.40625 64.59375 
L 9.421875 64.59375 
z
" id="DejaVuSans-105"/>
       <path d="M 52 44.1875 
Q 55.375 50.25 60.0625 53.125 
Q 64.75 56 71.09375 56 
Q 79.640625 56 84.28125 50.015625 
Q 88.921875 44.046875 88.921875 33.015625 
L 88.921875 0 
L 79.890625 0 
L 79.890625 32.71875 
Q 79.890625 40.578125 77.09375 44.375 
Q 74.3125 48.1875 68.609375 48.1875 
Q 61.625 48.1875 57.5625 43.546875 
Q 53.515625 38.921875 53.515625 30.90625 
L 53.515625 0 
L 44.484375 0 
L 44.484375 32.71875 
Q 44.484375 40.625 41.703125 44.40625 
Q 38.921875 48.1875 33.109375 48.1875 
Q 26.21875 48.1875 22.15625 43.53125 
Q 18.109375 38.875 18.109375 30.90625 
L 18.109375 0 
L 9.078125 0 
L 9.078125 54.6875 
L 18.109375 54.6875 
L 18.109375 46.1875 
Q 21.1875 51.21875 25.484375 53.609375 
Q 29.78125 56 35.6875 56 
Q 41.65625 56 45.828125 52.96875 
Q 50 49.953125 52 44.1875 
z
" id="DejaVuSans-109"/>
       <path d="M 54.890625 33.015625 
L 54.890625 0 
L 45.90625 0 
L 45.90625 32.71875 
Q 45.90625 40.484375 42.875 44.328125 
Q 39.84375 48.1875 33.796875 48.1875 
Q 26.515625 48.1875 22.3125 43.546875 
Q 18.109375 38.921875 18.109375 30.90625 
L 18.109375 0 
L 9.078125 0 
L 9.078125 54.6875 
L 18.109375 54.6875 
L 18.109375 46.1875 
Q 21.34375 51.125 25.703125 53.5625 
Q 30.078125 56 35.796875 56 
Q 45.21875 56 50.046875 50.171875 
Q 54.890625 44.34375 54.890625 33.015625 
z
" id="DejaVuSans-110"/>
       <path d="M 8.015625 75.875 
L 15.828125 75.875 
Q 23.140625 64.359375 26.78125 53.3125 
Q 30.421875 42.28125 30.421875 31.390625 
Q 30.421875 20.453125 26.78125 9.375 
Q 23.140625 -1.703125 15.828125 -13.1875 
L 8.015625 -13.1875 
Q 14.5 -2 17.703125 9.0625 
Q 20.90625 20.125 20.90625 31.390625 
Q 20.90625 42.671875 17.703125 53.65625 
Q 14.5 64.65625 8.015625 75.875 
z
" id="DejaVuSans-41"/>
      </defs>
      <use xlink:href="#DejaVuSans-108"/>
      <use x="27.783203" xlink:href="#DejaVuSans-111"/>
      <use x="88.964844" xlink:href="#DejaVuSans-103"/>
      <use x="152.441406" xlink:href="#DejaVuSans-49"/>
      <use x="216.064453" xlink:href="#DejaVuSans-48"/>
      <use x="279.6875" xlink:href="#DejaVuSans-40"/>
      <use x="318.701172" xlink:href="#DejaVuSans-35"/>
      <use x="402.490234" xlink:href="#DejaVuSans-32"/>
      <use x="434.277344" xlink:href="#DejaVuSans-102"/>
      <use x="463.982422" xlink:href="#DejaVuSans-45"/>
      <use x="500.066406" xlink:href="#DejaVuSans-101"/>
      <use x="561.589844" xlink:href="#DejaVuSans-118"/>
      <use x="620.769531" xlink:href="#DejaVuSans-97"/>
      <use x="682.048828" xlink:href="#DejaVuSans-108"/>
      <use x="709.832031" xlink:href="#DejaVuSans-115"/>
      <use x="761.931641" xlink:href="#DejaVuSans-32"/>
      <use x="793.71875" xlink:href="#DejaVuSans-47"/>
      <use x="827.410156" xlink:href="#DejaVuSans-32"/>
      <use x="859.197266" xlink:href="#DejaVuSans-100"/>
      <use x="922.673828" xlink:href="#DejaVuSans-105"/>
      <use x="950.457031" xlink:href="#DejaVuSans-109"/>
      <use x="1047.869141" xlink:href="#DejaVuSans-101"/>
      <use x="1109.392578" xlink:href="#DejaVuSans-110"/>
      <use x="1172.771484" xlink:href="#DejaVuSans-115"/>
      <use x="1224.871094" xlink:href="#DejaVuSans-105"/>
      <use x="1252.654297" xlink:href="#DejaVuSans-111"/>
      <use x="1313.835938" xlink:href="#DejaVuSans-110"/>
      <use x="1377.214844" xlink:href="#DejaVuSans-41"/>
     </g>
    </g>
   </g>
   <g id="matplotlib.axis_2">
    <g id="ytick_1">
     <g id="line2d_9">
      <path clip-path="url(#pf2eb1be339)" d="M 57.6 298.944 
L 338.688 298.944 
" style="fill:none;stroke:#b0b0b0;stroke-linecap:square;stroke-width:0.8;"/>
     </g>
     <g id="line2d_10">
      <defs>
       <path d="M 0 0 
L -3.5 0 
" id="mc81ddfaf84" style="stroke:#000000;stroke-width:0.8;"/>
      </defs>
      <g>
       <use style="stroke:#000000;stroke-width:0.8;" x="57.6" xlink:href="#mc81ddfaf84" y="298.944"/>
      </g>
     </g>
     <g id="text_3">
      <!-- 0.0 -->
      <g transform="translate(25.155 305.02275)scale(0.16 -0.16)">
       <defs>
        <path d="M 10.6875 12.40625 
L 21 12.40625 
L 21 0 
L 10.6875 0 
z
" id="DejaVuSans-46"/>
       </defs>
       <use xlink:href="#DejaVuSans-48"/>
       <use x="63.623047" xlink:href="#DejaVuSans-46"/>
       <use x="95.410156" xlink:href="#DejaVuSans-48"/>
      </g>
     </g>
    </g>
    <g id="ytick_2">
     <g id="line2d_11">
      <path clip-path="url(#pf2eb1be339)" d="M 57.6 240.431525 
L 338.688 240.431525 
" style="fill:none;stroke:#b0b0b0;stroke-linecap:square;stroke-width:0.8;"/>
     </g>
     <g id="line2d_12">
      <g>
       <use style="stroke:#000000;stroke-width:0.8;" x="57.6" xlink:href="#mc81ddfaf84" y="240.431525"/>
      </g>
     </g>
     <g id="text_4">
      <!-- 0.2 -->
      <g transform="translate(25.155 246.510275)scale(0.16 -0.16)">
       <defs>
        <path d="M 19.1875 8.296875 
L 53.609375 8.296875 
L 53.609375 0 
L 7.328125 0 
L 7.328125 8.296875 
Q 12.9375 14.109375 22.625 23.890625 
Q 32.328125 33.6875 34.8125 36.53125 
Q 39.546875 41.84375 41.421875 45.53125 
Q 43.3125 49.21875 43.3125 52.78125 
Q 43.3125 58.59375 39.234375 62.25 
Q 35.15625 65.921875 28.609375 65.921875 
Q 23.96875 65.921875 18.8125 64.3125 
Q 13.671875 62.703125 7.8125 59.421875 
L 7.8125 69.390625 
Q 13.765625 71.78125 18.9375 73 
Q 24.125 74.21875 28.421875 74.21875 
Q 39.75 74.21875 46.484375 68.546875 
Q 53.21875 62.890625 53.21875 53.421875 
Q 53.21875 48.921875 51.53125 44.890625 
Q 49.859375 40.875 45.40625 35.40625 
Q 44.1875 33.984375 37.640625 27.21875 
Q 31.109375 20.453125 19.1875 8.296875 
z
" id="DejaVuSans-50"/>
       </defs>
       <use xlink:href="#DejaVuSans-48"/>
       <use x="63.623047" xlink:href="#DejaVuSans-46"/>
       <use x="95.410156" xlink:href="#DejaVuSans-50"/>
      </g>
     </g>
    </g>
    <g id="ytick_3">
     <g id="line2d_13">
      <path clip-path="url(#pf2eb1be339)" d="M 57.6 181.91905 
L 338.688 181.91905 
" style="fill:none;stroke:#b0b0b0;stroke-linecap:square;stroke-width:0.8;"/>
     </g>
     <g id="line2d_14">
      <g>
       <use style="stroke:#000000;stroke-width:0.8;" x="57.6" xlink:href="#mc81ddfaf84" y="181.91905"/>
      </g>
     </g>
     <g id="text_5">
      <!-- 0.4 -->
      <g transform="translate(25.155 187.9978)scale(0.16 -0.16)">
       <defs>
        <path d="M 37.796875 64.3125 
L 12.890625 25.390625 
L 37.796875 25.390625 
z
M 35.203125 72.90625 
L 47.609375 72.90625 
L 47.609375 25.390625 
L 58.015625 25.390625 
L 58.015625 17.1875 
L 47.609375 17.1875 
L 47.609375 0 
L 37.796875 0 
L 37.796875 17.1875 
L 4.890625 17.1875 
L 4.890625 26.703125 
z
" id="DejaVuSans-52"/>
       </defs>
       <use xlink:href="#DejaVuSans-48"/>
       <use x="63.623047" xlink:href="#DejaVuSans-46"/>
       <use x="95.410156" xlink:href="#DejaVuSans-52"/>
      </g>
     </g>
    </g>
    <g id="ytick_4">
     <g id="line2d_15">
      <path clip-path="url(#pf2eb1be339)" d="M 57.6 123.406574 
L 338.688 123.406574 
" style="fill:none;stroke:#b0b0b0;stroke-linecap:square;stroke-width:0.8;"/>
     </g>
     <g id="line2d_16">
      <g>
       <use style="stroke:#000000;stroke-width:0.8;" x="57.6" xlink:href="#mc81ddfaf84" y="123.406574"/>
      </g>
     </g>
     <g id="text_6">
      <!-- 0.6 -->
      <g transform="translate(25.155 129.485324)scale(0.16 -0.16)">
       <defs>
        <path d="M 33.015625 40.375 
Q 26.375 40.375 22.484375 35.828125 
Q 18.609375 31.296875 18.609375 23.390625 
Q 18.609375 15.53125 22.484375 10.953125 
Q 26.375 6.390625 33.015625 6.390625 
Q 39.65625 6.390625 43.53125 10.953125 
Q 47.40625 15.53125 47.40625 23.390625 
Q 47.40625 31.296875 43.53125 35.828125 
Q 39.65625 40.375 33.015625 40.375 
z
M 52.59375 71.296875 
L 52.59375 62.3125 
Q 48.875 64.0625 45.09375 64.984375 
Q 41.3125 65.921875 37.59375 65.921875 
Q 27.828125 65.921875 22.671875 59.328125 
Q 17.53125 52.734375 16.796875 39.40625 
Q 19.671875 43.65625 24.015625 45.921875 
Q 28.375 48.1875 33.59375 48.1875 
Q 44.578125 48.1875 50.953125 41.515625 
Q 57.328125 34.859375 57.328125 23.390625 
Q 57.328125 12.15625 50.6875 5.359375 
Q 44.046875 -1.421875 33.015625 -1.421875 
Q 20.359375 -1.421875 13.671875 8.265625 
Q 6.984375 17.96875 6.984375 36.375 
Q 6.984375 53.65625 15.1875 63.9375 
Q 23.390625 74.21875 37.203125 74.21875 
Q 40.921875 74.21875 44.703125 73.484375 
Q 48.484375 72.75 52.59375 71.296875 
z
" id="DejaVuSans-54"/>
       </defs>
       <use xlink:href="#DejaVuSans-48"/>
       <use x="63.623047" xlink:href="#DejaVuSans-46"/>
       <use x="95.410156" xlink:href="#DejaVuSans-54"/>
      </g>
     </g>
    </g>
    <g id="ytick_5">
     <g id="line2d_17">
      <path clip-path="url(#pf2eb1be339)" d="M 57.6 64.894099 
L 338.688 64.894099 
" style="fill:none;stroke:#b0b0b0;stroke-linecap:square;stroke-width:0.8;"/>
     </g>
     <g id="line2d_18">
      <g>
       <use style="stroke:#000000;stroke-width:0.8;" x="57.6" xlink:href="#mc81ddfaf84" y="64.894099"/>
      </g>
     </g>
     <g id="text_7">
      <!-- 0.8 -->
      <g transform="translate(25.155 70.972849)scale(0.16 -0.16)">
       <defs>
        <path d="M 31.78125 34.625 
Q 24.75 34.625 20.71875 30.859375 
Q 16.703125 27.09375 16.703125 20.515625 
Q 16.703125 13.921875 20.71875 10.15625 
Q 24.75 6.390625 31.78125 6.390625 
Q 38.8125 6.390625 42.859375 10.171875 
Q 46.921875 13.96875 46.921875 20.515625 
Q 46.921875 27.09375 42.890625 30.859375 
Q 38.875 34.625 31.78125 34.625 
z
M 21.921875 38.8125 
Q 15.578125 40.375 12.03125 44.71875 
Q 8.5 49.078125 8.5 55.328125 
Q 8.5 64.0625 14.71875 69.140625 
Q 20.953125 74.21875 31.78125 74.21875 
Q 42.671875 74.21875 48.875 69.140625 
Q 55.078125 64.0625 55.078125 55.328125 
Q 55.078125 49.078125 51.53125 44.71875 
Q 48 40.375 41.703125 38.8125 
Q 48.828125 37.15625 52.796875 32.3125 
Q 56.78125 27.484375 56.78125 20.515625 
Q 56.78125 9.90625 50.3125 4.234375 
Q 43.84375 -1.421875 31.78125 -1.421875 
Q 19.734375 -1.421875 13.25 4.234375 
Q 6.78125 9.90625 6.78125 20.515625 
Q 6.78125 27.484375 10.78125 32.3125 
Q 14.796875 37.15625 21.921875 38.8125 
z
M 18.3125 54.390625 
Q 18.3125 48.734375 21.84375 45.5625 
Q 25.390625 42.390625 31.78125 42.390625 
Q 38.140625 42.390625 41.71875 45.5625 
Q 45.3125 48.734375 45.3125 54.390625 
Q 45.3125 60.0625 41.71875 63.234375 
Q 38.140625 66.40625 31.78125 66.40625 
Q 25.390625 66.40625 21.84375 63.234375 
Q 18.3125 60.0625 18.3125 54.390625 
z
" id="DejaVuSans-56"/>
       </defs>
       <use xlink:href="#DejaVuSans-48"/>
       <use x="63.623047" xlink:href="#DejaVuSans-46"/>
       <use x="95.410156" xlink:href="#DejaVuSans-56"/>
      </g>
     </g>
    </g>
    <g id="ytick_6">
     <g id="line2d_19">
      <path clip-path="url(#pf2eb1be339)" d="M 57.6 6.381624 
L 338.688 6.381624 
" style="fill:none;stroke:#b0b0b0;stroke-linecap:square;stroke-width:0.8;"/>
     </g>
     <g id="line2d_20">
      <g>
       <use style="stroke:#000000;stroke-width:0.8;" x="57.6" xlink:href="#mc81ddfaf84" y="6.381624"/>
      </g>
     </g>
     <g id="text_8">
      <!-- 1.0 -->
      <g transform="translate(25.155 12.460374)scale(0.16 -0.16)">
       <use xlink:href="#DejaVuSans-49"/>
       <use x="63.623047" xlink:href="#DejaVuSans-46"/>
       <use x="95.410156" xlink:href="#DejaVuSans-48"/>
      </g>
     </g>
    </g>
    <g id="text_9">
     <!-- Fraction of function,target pairs -->
     <g transform="translate(17.619531 285.585)rotate(-90)scale(0.17 -0.17)">
      <defs>
       <path d="M 9.8125 72.90625 
L 51.703125 72.90625 
L 51.703125 64.59375 
L 19.671875 64.59375 
L 19.671875 43.109375 
L 48.578125 43.109375 
L 48.578125 34.8125 
L 19.671875 34.8125 
L 19.671875 0 
L 9.8125 0 
z
" id="DejaVuSans-70"/>
       <path d="M 41.109375 46.296875 
Q 39.59375 47.171875 37.8125 47.578125 
Q 36.03125 48 33.890625 48 
Q 26.265625 48 22.1875 43.046875 
Q 18.109375 38.09375 18.109375 28.8125 
L 18.109375 0 
L 9.078125 0 
L 9.078125 54.6875 
L 18.109375 54.6875 
L 18.109375 46.1875 
Q 20.953125 51.171875 25.484375 53.578125 
Q 30.03125 56 36.53125 56 
Q 37.453125 56 38.578125 55.875 
Q 39.703125 55.765625 41.0625 55.515625 
z
" id="DejaVuSans-114"/>
       <path d="M 48.78125 52.59375 
L 48.78125 44.1875 
Q 44.96875 46.296875 41.140625 47.34375 
Q 37.3125 48.390625 33.40625 48.390625 
Q 24.65625 48.390625 19.8125 42.84375 
Q 14.984375 37.3125 14.984375 27.296875 
Q 14.984375 17.28125 19.8125 11.734375 
Q 24.65625 6.203125 33.40625 6.203125 
Q 37.3125 6.203125 41.140625 7.25 
Q 44.96875 8.296875 48.78125 10.40625 
L 48.78125 2.09375 
Q 45.015625 0.34375 40.984375 -0.53125 
Q 36.96875 -1.421875 32.421875 -1.421875 
Q 20.0625 -1.421875 12.78125 6.34375 
Q 5.515625 14.109375 5.515625 27.296875 
Q 5.515625 40.671875 12.859375 48.328125 
Q 20.21875 56 33.015625 56 
Q 37.15625 56 41.109375 55.140625 
Q 45.0625 54.296875 48.78125 52.59375 
z
" id="DejaVuSans-99"/>
       <path d="M 18.3125 70.21875 
L 18.3125 54.6875 
L 36.8125 54.6875 
L 36.8125 47.703125 
L 18.3125 47.703125 
L 18.3125 18.015625 
Q 18.3125 11.328125 20.140625 9.421875 
Q 21.96875 7.515625 27.59375 7.515625 
L 36.8125 7.515625 
L 36.8125 0 
L 27.59375 0 
Q 17.1875 0 13.234375 3.875 
Q 9.28125 7.765625 9.28125 18.015625 
L 9.28125 47.703125 
L 2.6875 47.703125 
L 2.6875 54.6875 
L 9.28125 54.6875 
L 9.28125 70.21875 
z
" id="DejaVuSans-116"/>
       <path d="M 8.5 21.578125 
L 8.5 54.6875 
L 17.484375 54.6875 
L 17.484375 21.921875 
Q 17.484375 14.15625 20.5 10.265625 
Q 23.53125 6.390625 29.59375 6.390625 
Q 36.859375 6.390625 41.078125 11.03125 
Q 45.3125 15.671875 45.3125 23.6875 
L 45.3125 54.6875 
L 54.296875 54.6875 
L 54.296875 0 
L 45.3125 0 
L 45.3125 8.40625 
Q 42.046875 3.421875 37.71875 1 
Q 33.40625 -1.421875 27.6875 -1.421875 
Q 18.265625 -1.421875 13.375 4.4375 
Q 8.5 10.296875 8.5 21.578125 
z
M 31.109375 56 
z
" id="DejaVuSans-117"/>
       <path d="M 11.71875 12.40625 
L 22.015625 12.40625 
L 22.015625 4 
L 14.015625 -11.625 
L 7.71875 -11.625 
L 11.71875 4 
z
" id="DejaVuSans-44"/>
       <path d="M 18.109375 8.203125 
L 18.109375 -20.796875 
L 9.078125 -20.796875 
L 9.078125 54.6875 
L 18.109375 54.6875 
L 18.109375 46.390625 
Q 20.953125 51.265625 25.265625 53.625 
Q 29.59375 56 35.59375 56 
Q 45.5625 56 51.78125 48.09375 
Q 58.015625 40.1875 58.015625 27.296875 
Q 58.015625 14.40625 51.78125 6.484375 
Q 45.5625 -1.421875 35.59375 -1.421875 
Q 29.59375 -1.421875 25.265625 0.953125 
Q 20.953125 3.328125 18.109375 8.203125 
z
M 48.6875 27.296875 
Q 48.6875 37.203125 44.609375 42.84375 
Q 40.53125 48.484375 33.40625 48.484375 
Q 26.265625 48.484375 22.1875 42.84375 
Q 18.109375 37.203125 18.109375 27.296875 
Q 18.109375 17.390625 22.1875 11.75 
Q 26.265625 6.109375 33.40625 6.109375 
Q 40.53125 6.109375 44.609375 11.75 
Q 48.6875 17.390625 48.6875 27.296875 
z
" id="DejaVuSans-112"/>
      </defs>
      <use xlink:href="#DejaVuSans-70"/>
      <use x="50.269531" xlink:href="#DejaVuSans-114"/>
      <use x="91.382812" xlink:href="#DejaVuSans-97"/>
      <use x="152.662109" xlink:href="#DejaVuSans-99"/>
      <use x="207.642578" xlink:href="#DejaVuSans-116"/>
      <use x="246.851562" xlink:href="#DejaVuSans-105"/>
      <use x="274.634766" xlink:href="#DejaVuSans-111"/>
      <use x="335.816406" xlink:href="#DejaVuSans-110"/>
      <use x="399.195312" xlink:href="#DejaVuSans-32"/>
      <use x="430.982422" xlink:href="#DejaVuSans-111"/>
      <use x="492.164062" xlink:href="#DejaVuSans-102"/>
      <use x="527.369141" xlink:href="#DejaVuSans-32"/>
      <use x="559.15625" xlink:href="#DejaVuSans-102"/>
      <use x="594.361328" xlink:href="#DejaVuSans-117"/>
      <use x="657.740234" xlink:href="#DejaVuSans-110"/>
      <use x="721.119141" xlink:href="#DejaVuSans-99"/>
      <use x="776.099609" xlink:href="#DejaVuSans-116"/>
      <use x="815.308594" xlink:href="#DejaVuSans-105"/>
      <use x="843.091797" xlink:href="#DejaVuSans-111"/>
      <use x="904.273438" xlink:href="#DejaVuSans-110"/>
      <use x="967.652344" xlink:href="#DejaVuSans-44"/>
      <use x="999.439453" xlink:href="#DejaVuSans-116"/>
      <use x="1038.648438" xlink:href="#DejaVuSans-97"/>
      <use x="1099.927734" xlink:href="#DejaVuSans-114"/>
      <use x="1139.291016" xlink:href="#DejaVuSans-103"/>
      <use x="1202.767578" xlink:href="#DejaVuSans-101"/>
      <use x="1264.291016" xlink:href="#DejaVuSans-116"/>
      <use x="1303.5" xlink:href="#DejaVuSans-32"/>
      <use x="1335.287109" xlink:href="#DejaVuSans-112"/>
      <use x="1398.763672" xlink:href="#DejaVuSans-97"/>
      <use x="1460.042969" xlink:href="#DejaVuSans-105"/>
      <use x="1487.826172" xlink:href="#DejaVuSans-114"/>
      <use x="1528.939453" xlink:href="#DejaVuSans-115"/>
     </g>
    </g>
   </g>
   <g id="line2d_21">
    <defs>
     <path d="M 0 1.5 
C 0.397805 1.5 0.77937 1.341951 1.06066 1.06066 
C 1.341951 0.77937 1.5 0.397805 1.5 0 
C 1.5 -0.397805 1.341951 -0.77937 1.06066 -1.06066 
C 0.77937 -1.341951 0.397805 -1.5 0 -1.5 
C -0.397805 -1.5 -0.77937 -1.341951 -1.06066 -1.06066 
C -1.341951 -0.77937 -1.5 -0.397805 -1.5 0 
C -1.5 0.397805 -1.341951 0.77937 -1.06066 1.06066 
C -0.77937 1.341951 -0.397805 1.5 0 1.5 
z
" id="mf967c1be9b" style="stroke:#f5deb3;"/>
    </defs>
    <g>
     <use style="fill:#f5deb3;stroke:#f5deb3;" x="398.915159" xlink:href="#mf967c1be9b" y="18.178494"/>
     <use style="fill:#f5deb3;stroke:#f5deb3;" x="398.915159" xlink:href="#mf967c1be9b" y="18.178494"/>
    </g>
   </g>
   <g id="line2d_22">
    <defs>
     <path d="M 0 1.5 
C 0.397805 1.5 0.77937 1.341951 1.06066 1.06066 
C 1.341951 0.77937 1.5 0.397805 1.5 0 
C 1.5 -0.397805 1.341951 -0.77937 1.06066 -1.06066 
C 0.77937 -1.341951 0.397805 -1.5 0 -1.5 
C -0.397805 -1.5 -0.77937 -1.341951 -1.06066 -1.06066 
C -1.341951 -0.77937 -1.5 -0.397805 -1.5 0 
C -1.5 0.397805 -1.341951 0.77937 -1.06066 1.06066 
C -0.77937 1.341951 -0.397805 1.5 0 1.5 
z
" id="mf826359093" style="stroke:#9acd32;"/>
    </defs>
    <g>
     <use style="fill:#9acd32;stroke:#9acd32;" x="405.920369" xlink:href="#mf826359093" y="108.542518"/>
     <use style="fill:#9acd32;stroke:#9acd32;" x="405.920369" xlink:href="#mf826359093" y="108.542518"/>
    </g>
   </g>
   <g id="line2d_23">
    <path d="M -1 298.236188 
L 61.632206 298.236188 
L 61.632206 294.697127 
L 117.92679 294.697127 
L 117.92679 268.036201 
L 151.103411 268.036201 
L 151.103411 250.576833 
L 174.711772 250.576833 
L 174.711772 233.825278 
L 193.052976 233.825278 
L 193.052976 222.972157 
L 208.053838 222.972157 
L 208.053838 213.298724 
L 220.745629 213.298724 
L 220.745629 204.56904 
L 231.745298 204.56904 
L 231.745298 197.254981 
L 241.451425 197.254981 
L 241.451425 191.592483 
L 250.136483 191.592483 
L 250.136483 187.581547 
L 257.995 187.581547 
L 257.995 183.334674 
L 265.170716 183.334674 
L 265.170716 179.323738 
L 271.772856 179.323738 
L 271.772856 174.369053 
L 277.886368 174.369053 
L 277.886368 170.122179 
L 283.578621 170.122179 
L 283.578621 166.583118 
L 288.903947 166.583118 
L 288.903947 164.223744 
L 293.906798 164.223744 
L 293.906798 160.448746 
L 298.624011 160.448746 
L 298.624011 157.853435 
L 303.086447 157.853435 
L 303.086447 155.258123 
L 307.320224 155.258123 
L 307.320224 151.247187 
L 311.347637 151.247187 
L 311.347637 147.708126 
L 315.187871 147.708126 
L 315.187871 145.348752 
L 318.857556 145.348752 
L 318.857556 142.753441 
L 322.371198 142.753441 
L 322.371198 140.630004 
L 325.741528 140.630004 
L 325.741528 138.978443 
L 328.97978 138.978443 
L 328.97978 136.855006 
L 332.095917 136.855006 
L 332.095917 134.967507 
L 335.098815 134.967507 
L 335.098815 133.315945 
L 337.996416 133.315945 
L 337.996416 131.900321 
L 338.688 131.900321 
" style="fill:none;stroke:#9acd32;stroke-linecap:square;stroke-width:1.5;"/>
   </g>
   <g id="line2d_24">
    <defs>
     <path d="M 0 -6 
L -6 6 
L 6 6 
z
" id="m6236d84ed8" style="stroke:#9acd32;stroke-linejoin:miter;stroke-width:1.5;"/>
    </defs>
    <g>
     <use style="fill-opacity:0;stroke:#9acd32;stroke-linejoin:miter;stroke-width:1.5;" x="151.103411" xlink:href="#m6236d84ed8" y="268.036201"/>
     <use style="fill-opacity:0;stroke:#9acd32;stroke-linejoin:miter;stroke-width:1.5;" x="208.053838" xlink:href="#m6236d84ed8" y="213.298724"/>
     <use style="fill-opacity:0;stroke:#9acd32;stroke-linejoin:miter;stroke-width:1.5;" x="271.772856" xlink:href="#m6236d84ed8" y="179.323738"/>
     <use style="fill-opacity:0;stroke:#9acd32;stroke-linejoin:miter;stroke-width:1.5;" x="322.371198" xlink:href="#m6236d84ed8" y="140.630004"/>
     <use style="fill-opacity:0;stroke:#9acd32;stroke-linejoin:miter;stroke-width:1.5;" x="337.996416" xlink:href="#m6236d84ed8" y="131.900321"/>
     <use style="fill-opacity:0;stroke:#9acd32;stroke-linejoin:miter;stroke-width:1.5;" x="338.688" xlink:href="#m6236d84ed8" y="131.900321"/>
    </g>
   </g>
   <g id="line2d_25">
    <path style="fill:none;stroke:#9acd32;stroke-linecap:square;stroke-width:1.5;"/>
    <g/>
   </g>
   <g id="line2d_26">
    <defs>
     <path d="M 0 1.5 
C 0.397805 1.5 0.77937 1.341951 1.06066 1.06066 
C 1.341951 0.77937 1.5 0.397805 1.5 0 
C 1.5 -0.397805 1.341951 -0.77937 1.06066 -1.06066 
C 0.77937 -1.341951 0.397805 -1.5 0 -1.5 
C -0.397805 -1.5 -0.77937 -1.341951 -1.06066 -1.06066 
C -1.341951 -0.77937 -1.5 -0.397805 -1.5 0 
C -1.5 0.397805 -1.341951 0.77937 -1.06066 1.06066 
C -0.77937 1.341951 -0.397805 1.5 0 1.5 
z
" id="m7f1435bf31" style="stroke:#00bfbf;"/>
    </defs>
    <g>
     <use style="fill:#00bfbf;stroke:#00bfbf;" x="405.981405" xlink:href="#m7f1435bf31" y="50.737855"/>
     <use style="fill:#00bfbf;stroke:#00bfbf;" x="405.981405" xlink:href="#m7f1435bf31" y="50.737855"/>
    </g>
   </g>
   <g id="line2d_27">
    <path d="M -1 297.764313 
L 11.866121 297.764313 
L 11.866121 297.292438 
L 18.757097 297.292438 
L 18.757097 296.820563 
L 21.998447 296.820563 
L 21.998447 296.584626 
L 33.82485 296.584626 
L 33.82485 296.348689 
L 44.168812 296.348689 
L 44.168812 296.112751 
L 51.156959 296.112751 
L 51.156959 295.640876 
L 59.640692 295.640876 
L 59.640692 295.169002 
L 70.927818 295.169002 
L 70.927818 294.933064 
L 86.870117 294.933064 
L 86.870117 294.697127 
L 89.720187 294.697127 
L 89.720187 294.461189 
L 92.475237 294.461189 
L 92.475237 294.225252 
L 115.910987 294.225252 
L 115.910987 293.989315 
L 116.925034 293.989315 
L 116.925034 249.869021 
L 117.92679 249.869021 
L 117.92679 243.970586 
L 118.916549 243.970586 
L 118.916549 241.611212 
L 119.894594 241.611212 
L 119.894594 239.487775 
L 120.861199 239.487775 
L 120.861199 237.364339 
L 121.81663 237.364339 
L 121.81663 236.184652 
L 122.761141 236.184652 
L 122.761141 234.769027 
L 123.69498 234.769027 
L 123.69498 234.297152 
L 124.618384 234.297152 
L 124.618384 233.825278 
L 125.531585 233.825278 
L 125.531585 233.353403 
L 126.434805 233.353403 
L 126.434805 232.881528 
L 127.328261 232.881528 
L 127.328261 232.645591 
L 128.212161 232.645591 
L 128.212161 231.937778 
L 129.086707 231.937778 
L 129.086707 231.229966 
L 129.952095 231.229966 
L 129.952095 230.050279 
L 130.808516 230.050279 
L 130.808516 229.578404 
L 131.656152 229.578404 
L 131.656152 228.870592 
L 132.495183 228.870592 
L 132.495183 228.16278 
L 134.962346 228.16278 
L 134.962346 226.983093 
L 135.768634 226.983093 
L 135.768634 226.275281 
L 136.567132 226.275281 
L 136.567132 225.567469 
L 138.141347 225.567469 
L 138.141347 224.151844 
L 138.917352 224.151844 
L 138.917352 223.444032 
L 139.686137 223.444032 
L 139.686137 222.972157 
L 140.447837 222.972157 
L 140.447837 222.73622 
L 141.20258 222.73622 
L 141.20258 221.084658 
L 141.950493 221.084658 
L 141.950493 220.140908 
L 142.691699 220.140908 
L 142.691699 219.433096 
L 144.15446 219.433096 
L 144.15446 218.017472 
L 144.876244 218.017472 
L 144.876244 216.837785 
L 145.59178 216.837785 
L 145.59178 216.129973 
L 146.301173 216.129973 
L 146.301173 215.42216 
L 147.00453 215.42216 
L 147.00453 214.950286 
L 147.70195 214.950286 
L 147.70195 213.534661 
L 148.393534 213.534661 
L 148.393534 212.590912 
L 149.079379 212.590912 
L 149.079379 211.883099 
L 149.759579 211.883099 
L 149.759579 210.703412 
L 150.434226 210.703412 
L 150.434226 209.759663 
L 151.103411 209.759663 
L 151.103411 209.523725 
L 151.76722 209.523725 
L 151.76722 209.051851 
L 152.425741 209.051851 
L 152.425741 208.108101 
L 153.079055 208.108101 
L 153.079055 207.636226 
L 155.008571 207.636226 
L 155.008571 207.164351 
L 155.64186 207.164351 
L 155.64186 206.928414 
L 156.270333 206.928414 
L 156.270333 206.220602 
L 156.894063 206.220602 
L 156.894063 204.804977 
L 157.513121 204.804977 
L 157.513121 204.333103 
L 158.737497 204.333103 
L 158.737497 204.097165 
L 159.342949 204.097165 
L 159.342949 203.153416 
L 159.943997 203.153416 
L 159.943997 201.973729 
L 160.540706 201.973729 
L 160.540706 201.501854 
L 161.721353 201.501854 
L 161.721353 201.265916 
L 162.30541 201.265916 
L 162.30541 201.029979 
L 162.88537 201.029979 
L 162.88537 200.322167 
L 163.461287 200.322167 
L 163.461287 200.086229 
L 164.033219 200.086229 
L 164.033219 199.850292 
L 165.165344 199.850292 
L 165.165344 198.906542 
L 165.725644 198.906542 
L 165.725644 198.19873 
L 166.834973 198.19873 
L 166.834973 197.019043 
L 167.92961 197.019043 
L 167.92961 196.547168 
L 168.471539 196.547168 
L 168.471539 195.839356 
L 169.009937 195.839356 
L 169.009937 195.603419 
L 169.54485 195.603419 
L 169.54485 194.659669 
L 170.076324 194.659669 
L 170.076324 193.479982 
L 170.604401 193.479982 
L 170.604401 193.008107 
L 171.129126 193.008107 
L 171.129126 192.536233 
L 171.65054 192.536233 
L 171.65054 192.300295 
L 172.168684 192.300295 
L 172.168684 192.064358 
L 172.683601 192.064358 
L 172.683601 190.884671 
L 173.195329 190.884671 
L 173.195329 190.412796 
L 173.703908 190.412796 
L 173.703908 189.233109 
L 174.209377 189.233109 
L 174.209377 188.761234 
L 174.711772 188.761234 
L 174.711772 188.053422 
L 175.707493 188.053422 
L 175.707493 187.34561 
L 176.200891 187.34561 
L 176.200891 186.637798 
L 176.69136 186.637798 
L 176.69136 186.40186 
L 177.178936 186.40186 
L 177.178936 185.929985 
L 177.663652 185.929985 
L 177.663652 184.986236 
L 178.145541 184.986236 
L 178.145541 184.278424 
L 178.624637 184.278424 
L 178.624637 184.042486 
L 179.100972 184.042486 
L 179.100972 183.098737 
L 179.574577 183.098737 
L 179.574577 182.154987 
L 180.045483 182.154987 
L 180.045483 181.211237 
L 180.513722 181.211237 
L 180.513722 180.03155 
L 180.979322 180.03155 
L 180.979322 179.323738 
L 181.442314 179.323738 
L 181.442314 178.615926 
L 181.902726 178.615926 
L 181.902726 177.436239 
L 182.360588 177.436239 
L 182.360588 176.964364 
L 182.815927 176.964364 
L 182.815927 176.020615 
L 183.268771 176.020615 
L 183.268771 175.784677 
L 183.719147 175.784677 
L 183.719147 175.312802 
L 184.167083 175.312802 
L 184.167083 174.840927 
L 184.612603 174.840927 
L 184.612603 173.897178 
L 185.055735 173.897178 
L 185.055735 173.425303 
L 185.496503 173.425303 
L 185.496503 173.189366 
L 185.934933 173.189366 
L 185.934933 172.481553 
L 186.371049 172.481553 
L 186.371049 172.009679 
L 186.804876 172.009679 
L 186.804876 171.537804 
L 187.236437 171.537804 
L 187.236437 171.065929 
L 187.665757 171.065929 
L 187.665757 170.358117 
L 188.092858 170.358117 
L 188.092858 170.122179 
L 188.517763 170.122179 
L 188.517763 169.414367 
L 189.361075 169.414367 
L 189.361075 168.942492 
L 189.779525 168.942492 
L 189.779525 168.470618 
L 190.195868 168.470618 
L 190.195868 167.762805 
L 190.610124 167.762805 
L 190.610124 167.054993 
L 191.022313 167.054993 
L 191.022313 166.819056 
L 191.432457 166.819056 
L 191.432457 166.347181 
L 191.840576 166.347181 
L 191.840576 165.639369 
L 192.650816 165.639369 
L 192.650816 164.459682 
L 193.052976 164.459682 
L 193.052976 163.279995 
L 193.851474 163.279995 
L 193.851474 162.572183 
L 194.247848 162.572183 
L 194.247848 162.336245 
L 194.64233 162.336245 
L 194.64233 161.86437 
L 195.034938 161.86437 
L 195.034938 161.628433 
L 195.42569 161.628433 
L 195.42569 160.920621 
L 195.814603 160.920621 
L 195.814603 160.684683 
L 196.201694 160.684683 
L 196.201694 160.448746 
L 196.970479 160.448746 
L 196.970479 159.976871 
L 197.732179 159.976871 
L 197.732179 159.033122 
L 198.110412 159.033122 
L 198.110412 158.797184 
L 198.486922 158.797184 
L 198.486922 158.325309 
L 198.861725 158.325309 
L 198.861725 157.853435 
L 199.234836 157.853435 
L 199.234836 157.617497 
L 200.344165 157.617497 
L 200.344165 157.38156 
L 200.710658 157.38156 
L 200.710658 156.673748 
L 201.075532 156.673748 
L 201.075532 156.43781 
L 201.438802 156.43781 
L 201.438802 156.201873 
L 201.800482 156.201873 
L 201.800482 155.965935 
L 202.160587 155.965935 
L 202.160587 155.494061 
L 203.23158 155.494061 
L 203.23158 155.258123 
L 203.585516 155.258123 
L 203.585516 155.022186 
L 203.937942 155.022186 
L 203.937942 154.550311 
L 204.638318 154.550311 
L 204.638318 154.314374 
L 204.986292 154.314374 
L 204.986292 154.078436 
L 205.332808 154.078436 
L 205.332808 153.842499 
L 205.677876 153.842499 
L 205.677876 153.606561 
L 206.02151 153.606561 
L 206.02151 152.426874 
L 206.363721 152.426874 
L 206.363721 151.719062 
L 206.704521 151.719062 
L 206.704521 151.247187 
L 207.381933 151.247187 
L 207.381933 150.303438 
L 207.718569 150.303438 
L 207.718569 149.595626 
L 208.053838 149.595626 
L 208.053838 148.651876 
L 208.387753 148.651876 
L 208.387753 148.415939 
L 209.051563 148.415939 
L 209.051563 147.944064 
L 209.381479 147.944064 
L 209.381479 147.708126 
L 209.710083 147.708126 
L 209.710083 147.236252 
L 210.037386 147.236252 
L 210.037386 147.000314 
L 210.363397 147.000314 
L 210.363397 146.292502 
L 211.011587 146.292502 
L 211.011587 146.056565 
L 211.333786 146.056565 
L 211.333786 145.348752 
L 211.654733 145.348752 
L 211.654733 144.876878 
L 211.974439 144.876878 
L 211.974439 144.169065 
L 212.292913 144.169065 
L 212.292913 143.697191 
L 212.610164 143.697191 
L 212.610164 143.461253 
L 212.926202 143.461253 
L 212.926202 142.989378 
L 213.241036 142.989378 
L 213.241036 142.281566 
L 213.554675 142.281566 
L 213.554675 141.809691 
L 214.178405 141.809691 
L 214.178405 140.865942 
L 214.488514 140.865942 
L 214.488514 140.630004 
L 215.105262 140.630004 
L 215.105262 140.394067 
L 215.411918 140.394067 
L 215.411918 140.15813 
L 215.717441 140.15813 
L 215.717441 139.922192 
L 216.021839 139.922192 
L 216.021839 139.450317 
L 216.325119 139.450317 
L 216.325119 138.742505 
L 216.627291 138.742505 
L 216.627291 138.506568 
L 217.825049 138.506568 
L 217.825049 137.798756 
L 218.121795 137.798756 
L 218.121795 137.562818 
L 218.41748 137.562818 
L 218.41748 137.090943 
L 218.712111 137.090943 
L 218.712111 136.619069 
L 219.005695 136.619069 
L 219.005695 136.147194 
L 219.29824 136.147194 
L 219.29824 135.675319 
L 219.589753 135.675319 
L 219.589753 135.439382 
L 220.169712 135.439382 
L 220.169712 134.967507 
L 220.458172 134.967507 
L 220.458172 134.731569 
L 220.745629 134.731569 
L 220.745629 134.495632 
L 221.03209 134.495632 
L 221.03209 134.259695 
L 221.60205 134.259695 
L 221.60205 133.551882 
L 221.885562 133.551882 
L 221.885562 133.315945 
L 222.168106 133.315945 
L 222.168106 133.080008 
L 222.449686 133.080008 
L 222.449686 132.84407 
L 222.730311 132.84407 
L 222.730311 132.608133 
L 223.009986 132.608133 
L 223.009986 132.372195 
L 223.288717 132.372195 
L 223.288717 131.900321 
L 223.566512 131.900321 
L 223.566512 131.192508 
L 223.843376 131.192508 
L 223.843376 130.720634 
L 224.119316 130.720634 
L 224.119316 130.484696 
L 224.668446 130.484696 
L 224.668446 130.248759 
L 225.213952 130.248759 
L 225.213952 130.012821 
L 225.485361 130.012821 
L 225.485361 129.305009 
L 226.025518 129.305009 
L 226.025518 128.833134 
L 226.294279 128.833134 
L 226.294279 127.889385 
L 226.829192 127.889385 
L 226.829192 127.41751 
L 227.095356 127.41751 
L 227.095356 126.709698 
L 227.625126 126.709698 
L 227.625126 126.237823 
L 227.888743 126.237823 
L 227.888743 125.765948 
L 228.151522 125.765948 
L 228.151522 125.530011 
L 228.674586 125.530011 
L 228.674586 125.058136 
L 228.934882 125.058136 
L 228.934882 124.822199 
L 229.19436 124.822199 
L 229.19436 124.586261 
L 229.453027 124.586261 
L 229.453027 124.350324 
L 229.710886 124.350324 
L 229.710886 124.114386 
L 229.967943 124.114386 
L 229.967943 123.878449 
L 230.734352 123.878449 
L 230.734352 123.406574 
L 231.241371 123.406574 
L 231.241371 123.170637 
L 231.493719 123.170637 
L 231.493719 122.934699 
L 231.745298 122.934699 
L 231.745298 122.462825 
L 232.495475 122.462825 
L 232.495475 122.226887 
L 232.991835 122.226887 
L 232.991835 121.99095 
L 233.730831 121.99095 
L 233.730831 121.755012 
L 233.975702 121.755012 
L 233.975702 121.283138 
L 234.21985 121.283138 
L 234.21985 120.811263 
L 234.463278 120.811263 
L 234.463278 120.575325 
L 234.705991 120.575325 
L 234.705991 120.103451 
L 234.947994 120.103451 
L 234.947994 119.159701 
L 235.429884 119.159701 
L 235.429884 118.687826 
L 235.669779 118.687826 
L 235.669779 118.451889 
L 235.90898 118.451889 
L 235.90898 118.215951 
L 236.858919 118.215951 
L 236.858919 117.980014 
L 237.094708 117.980014 
L 237.094708 117.036264 
L 237.329825 117.036264 
L 237.329825 116.800327 
L 237.564276 116.800327 
L 237.564276 116.56439 
L 237.798064 116.56439 
L 237.798064 116.328452 
L 238.726656 116.328452 
L 238.726656 116.092515 
L 239.187069 116.092515 
L 239.187069 115.856577 
L 239.416316 115.856577 
L 239.416316 115.62064 
L 239.872913 115.62064 
L 239.872913 115.148765 
L 240.100269 115.148765 
L 240.100269 114.912828 
L 240.553113 114.912828 
L 240.553113 114.440953 
L 240.778608 114.440953 
L 240.778608 113.969078 
L 242.118808 113.969078 
L 242.118808 113.733141 
L 242.560755 113.733141 
L 242.560755 113.497203 
L 243.437621 113.497203 
L 243.437621 113.261266 
L 243.655391 113.261266 
L 243.655391 113.025329 
L 244.089218 113.025329 
L 244.089218 112.789391 
L 244.52078 112.789391 
L 244.52078 112.553454 
L 244.735718 112.553454 
L 244.735718 112.081579 
L 244.950099 112.081579 
L 244.950099 111.609704 
L 245.3772 111.609704 
L 245.3772 110.901892 
L 246.854907 110.901892 
L 246.854907 110.665955 
L 247.063867 110.665955 
L 247.063867 110.430017 
L 247.272301 110.430017 
L 247.272301 109.958142 
L 247.894466 109.958142 
L 247.894466 109.722205 
L 248.511982 109.722205 
L 248.511982 109.486268 
L 248.92111 109.486268 
L 248.92111 109.25033 
L 249.124918 109.25033 
L 249.124918 109.014393 
L 249.531031 109.014393 
L 249.531031 108.778455 
L 249.733341 108.778455 
L 249.733341 108.542518 
L 250.737532 108.542518 
L 250.737532 108.070643 
L 251.334241 108.070643 
L 251.334241 107.362831 
L 251.53219 107.362831 
L 251.53219 107.126894 
L 251.926672 107.126894 
L 251.926672 106.655019 
L 252.123209 106.655019 
L 252.123209 106.183144 
L 252.514887 106.183144 
L 252.514887 105.947207 
L 253.098945 105.947207 
L 253.098945 105.711269 
L 253.486036 105.711269 
L 253.486036 105.239394 
L 253.678904 105.239394 
L 253.678904 104.295645 
L 253.871323 104.295645 
L 253.871323 103.82377 
L 254.063294 103.82377 
L 254.063294 103.587833 
L 254.254821 103.587833 
L 254.254821 103.115958 
L 254.636549 103.115958 
L 254.636549 102.644083 
L 254.826753 102.644083 
L 254.826753 101.936271 
L 255.016521 101.936271 
L 255.016521 101.700333 
L 255.205854 101.700333 
L 255.205854 101.464396 
L 255.583224 101.464396 
L 255.583224 101.228459 
L 255.958878 101.228459 
L 255.958878 100.756584 
L 256.146067 100.756584 
L 256.146067 100.520646 
L 256.332833 100.520646 
L 256.332833 100.284709 
L 257.075704 100.284709 
L 257.075704 100.048772 
L 257.260383 100.048772 
L 257.260383 99.812834 
L 257.628508 99.812834 
L 257.628508 99.340959 
L 257.995 99.340959 
L 257.995 98.633147 
L 258.541709 98.633147 
L 258.541709 98.39721 
L 258.904182 98.39721 
L 258.904182 98.161272 
L 259.265073 98.161272 
L 259.265073 97.925335 
L 259.624394 97.925335 
L 259.624394 97.689398 
L 259.803471 97.689398 
L 259.803471 97.45346 
L 260.338384 97.45346 
L 260.338384 96.981585 
L 261.748122 96.981585 
L 261.748122 96.509711 
L 262.09683 96.509711 
L 262.09683 96.273773 
L 262.444074 96.273773 
L 262.444074 96.037836 
L 263.477135 96.037836 
L 263.477135 95.801898 
L 263.818639 95.801898 
L 263.818639 95.565961 
L 265.170716 95.565961 
L 265.170716 95.094086 
L 266.335905 95.094086 
L 266.335905 94.858149 
L 266.830286 94.858149 
L 266.830286 94.622211 
L 267.321728 94.622211 
L 267.321728 94.386274 
L 267.484894 94.386274 
L 267.484894 94.150337 
L 267.810264 94.150337 
L 267.810264 93.914399 
L 268.134358 93.914399 
L 268.134358 93.678462 
L 268.457186 93.678462 
L 268.457186 93.442524 
L 268.618128 93.442524 
L 268.618128 92.97065 
L 268.778758 92.97065 
L 268.778758 92.498775 
L 268.939076 92.498775 
L 268.939076 92.262837 
L 269.418172 92.262837 
L 269.418172 91.790963 
L 269.577255 91.790963 
L 269.577255 91.555025 
L 270.210544 91.555025 
L 270.210544 91.319088 
L 270.839018 91.319088 
L 270.839018 91.08315 
L 271.462748 91.08315 
L 271.462748 90.847213 
L 271.617947 90.847213 
L 271.617947 90.611276 
L 271.927475 90.611276 
L 271.927475 90.375338 
L 273.001783 90.375338 
L 273.001783 90.139401 
L 273.609461 90.139401 
L 273.609461 89.903463 
L 273.760685 89.903463 
L 273.760685 89.431589 
L 273.911633 89.431589 
L 273.911633 88.959714 
L 274.062306 88.959714 
L 274.062306 88.723776 
L 274.212704 88.723776 
L 274.212704 88.487839 
L 274.662263 88.487839 
L 274.662263 88.251902 
L 274.960617 88.251902 
L 274.960617 87.780027 
L 275.109391 87.780027 
L 275.109391 87.544089 
L 275.257897 87.544089 
L 275.257897 87.308152 
L 275.406137 87.308152 
L 275.406137 87.072215 
L 275.701822 87.072215 
L 275.701822 86.836277 
L 276.290037 86.836277 
L 276.290037 86.364402 
L 276.582582 86.364402 
L 276.582582 86.128465 
L 277.309445 86.128465 
L 277.309445 85.892528 
L 277.454054 85.892528 
L 277.454054 85.65659 
L 277.59841 85.65659 
L 277.59841 85.184715 
L 278.173326 85.184715 
L 278.173326 84.948778 
L 278.316432 84.948778 
L 278.316432 84.476903 
L 278.459291 84.476903 
L 278.459291 84.005028 
L 278.601904 84.005028 
L 278.601904 83.769091 
L 279.311297 83.769091 
L 279.311297 83.533154 
L 279.87446 83.533154 
L 279.87446 83.297216 
L 280.294328 83.297216 
L 280.294328 82.825341 
L 280.433811 82.825341 
L 280.433811 82.589404 
L 280.989402 82.589404 
L 280.989402 82.117529 
L 281.541283 82.117529 
L 281.541283 81.881592 
L 282.769703 81.881592 
L 282.769703 81.645654 
L 283.712674 81.645654 
L 283.712674 81.409717 
L 284.113535 81.409717 
L 284.113535 81.17378 
L 284.246724 81.17378 
L 284.246724 80.937842 
L 285.69781 80.937842 
L 285.69781 80.701905 
L 286.349065 80.701905 
L 286.349065 80.465967 
L 286.478702 80.465967 
L 286.478702 79.994093 
L 287.380515 79.994093 
L 287.380515 79.758155 
L 290.152367 79.758155 
L 290.152367 79.522218 
L 290.276178 79.522218 
L 290.276178 79.28628 
L 290.646502 79.28628 
L 290.646502 79.050343 
L 291.625996 79.050343 
L 291.625996 78.342531 
L 291.74762 78.342531 
L 291.74762 78.106593 
L 291.990333 78.106593 
L 291.990333 77.870656 
L 292.353072 77.870656 
L 292.353072 77.634719 
L 292.594016 77.634719 
L 292.594016 77.398781 
L 293.788312 77.398781 
L 293.788312 77.162844 
L 294.025114 77.162844 
L 294.025114 76.926906 
L 294.37905 76.926906 
L 294.37905 76.690969 
L 297.043343 76.690969 
L 297.043343 76.455032 
L 298.400043 76.455032 
L 298.400043 76.219094 
L 298.512103 76.219094 
L 298.512103 75.983157 
L 298.847373 75.983157 
L 298.847373 75.747219 
L 299.845097 75.747219 
L 299.955215 75.039407 
L 300.175013 75.039407 
L 300.284693 74.567532 
L 300.612862 74.567532 
L 300.612862 74.331595 
L 301.589623 74.331595 
L 301.589623 74.095658 
L 302.12732 74.095658 
L 302.12732 73.85972 
L 303.298083 73.85972 
L 303.403698 73.387845 
L 303.614525 73.387845 
L 303.719736 72.915971 
L 304.660663 72.915971 
L 304.660663 72.680033 
L 305.898796 72.680033 
L 306.001141 71.972221 
L 306.714032 71.972221 
L 306.714032 71.736284 
L 308.320767 71.736284 
L 308.320767 71.500346 
L 308.915329 71.500346 
L 309.014009 70.792534 
L 309.11257 70.792534 
L 309.11257 70.556597 
L 309.603622 70.556597 
L 309.603622 70.084722 
L 310.091774 70.084722 
L 310.091774 69.848784 
L 310.866868 69.848784 
L 310.866868 69.612847 
L 311.825624 69.612847 
L 311.825624 69.37691 
L 312.679097 69.37691 
L 312.679097 69.140972 
L 313.7104 69.140972 
L 313.80352 68.669097 
L 313.896535 68.669097 
L 313.896535 68.43316 
L 315.004625 68.43316 
L 315.004625 68.197223 
L 316.369167 68.197223 
L 316.369167 67.961285 
L 316.729271 67.961285 
L 316.819053 67.253473 
L 317.977422 67.253473 
L 317.977422 67.017536 
L 318.769963 67.017536 
L 318.769963 66.781598 
L 320.332603 66.781598 
L 320.332603 66.309723 
L 320.846986 66.309723 
L 320.846986 66.073786 
L 321.358186 66.073786 
L 321.358186 65.837849 
L 321.527886 65.837849 
L 321.612606 65.365974 
L 322.287253 65.365974 
L 322.287253 65.130036 
L 322.873085 65.130036 
L 322.873085 64.894099 
L 323.70285 64.894099 
L 323.78537 64.422224 
L 323.950163 64.422224 
L 323.950163 64.186287 
L 324.524366 64.186287 
L 324.60607 63.714412 
L 325.175749 63.714412 
L 325.175749 63.242537 
L 326.143298 63.242537 
L 326.143298 63.0066 
L 326.30346 63.0066 
L 326.30346 62.770662 
L 326.622857 62.770662 
L 326.622857 62.534725 
L 326.861597 62.534725 
L 326.861597 62.298788 
L 327.020375 62.298788 
L 327.020375 62.06285 
L 328.045061 62.06285 
L 328.045061 61.826913 
L 328.201584 61.826913 
L 328.201584 61.590975 
L 328.357811 61.590975 
L 328.357811 61.355038 
L 329.597104 61.355038 
L 329.597104 61.119101 
L 330.742303 61.119101 
L 330.818088 60.647226 
L 332.095917 60.647226 
L 332.095917 60.411288 
L 332.838454 60.411288 
L 332.838454 60.175351 
L 334.738396 60.175351 
L 334.738396 59.939414 
L 335.81497 59.939414 
L 335.81497 59.703476 
L 336.312612 59.703476 
L 336.312612 59.467539 
L 337.787807 59.467539 
L 337.787807 58.995664 
L 338.688 58.995664 
L 338.688 58.759727 
L 338.688 58.759727 
" style="fill:none;stroke:#00bfbf;stroke-linecap:square;stroke-width:1.5;"/>
   </g>
   <g id="line2d_28">
    <defs>
     <path d="M 0 -6 
L -5.706339 -1.854102 
L -3.526712 4.854102 
L 3.526712 4.854102 
L 5.706339 -1.854102 
z
" id="m58ed1d3e0c" style="stroke:#00bfbf;stroke-linejoin:miter;stroke-width:1.5;"/>
    </defs>
    <g>
     <use style="fill-opacity:0;stroke:#00bfbf;stroke-linejoin:miter;stroke-width:1.5;" x="92.475237" xlink:href="#m58ed1d3e0c" y="294.225252"/>
     <use style="fill-opacity:0;stroke:#00bfbf;stroke-linejoin:miter;stroke-width:1.5;" x="149.079379" xlink:href="#m58ed1d3e0c" y="212.590912"/>
     <use style="fill-opacity:0;stroke:#00bfbf;stroke-linejoin:miter;stroke-width:1.5;" x="196.970479" xlink:href="#m58ed1d3e0c" y="159.976871"/>
     <use style="fill-opacity:0;stroke:#00bfbf;stroke-linejoin:miter;stroke-width:1.5;" x="250.737532" xlink:href="#m58ed1d3e0c" y="108.070643"/>
     <use style="fill-opacity:0;stroke:#00bfbf;stroke-linejoin:miter;stroke-width:1.5;" x="310.866868" xlink:href="#m58ed1d3e0c" y="69.848784"/>
     <use style="fill-opacity:0;stroke:#00bfbf;stroke-linejoin:miter;stroke-width:1.5;" x="338.688" xlink:href="#m58ed1d3e0c" y="58.995664"/>
     <use style="fill-opacity:0;stroke:#00bfbf;stroke-linejoin:miter;stroke-width:1.5;" x="338.688" xlink:href="#m58ed1d3e0c" y="58.759727"/>
    </g>
   </g>
   <g id="line2d_29">
    <path style="fill:none;stroke:#00bfbf;stroke-linecap:square;stroke-width:1.5;"/>
    <g/>
   </g>
   <g id="line2d_30">
    <path d="M 338.688 131.900321 
L 369.60768 293.092752 
" style="fill:none;stroke:#9acd32;stroke-linecap:square;stroke-width:1.5;"/>
    <g>
     <use style="fill-opacity:0;stroke:#9acd32;stroke-linejoin:miter;stroke-width:1.5;" x="338.688" xlink:href="#m6236d84ed8" y="131.900321"/>
     <use style="fill-opacity:0;stroke:#9acd32;stroke-linejoin:miter;stroke-width:1.5;" x="369.60768" xlink:href="#m6236d84ed8" y="293.092752"/>
    </g>
   </g>
   <g id="line2d_31">
    <path d="M 338.688 58.995664 
L 369.60768 152.662812 
" style="fill:none;stroke:#00bfbf;stroke-linecap:square;stroke-width:1.5;"/>
    <g>
     <use style="fill-opacity:0;stroke:#00bfbf;stroke-linejoin:miter;stroke-width:1.5;" x="338.688" xlink:href="#m58ed1d3e0c" y="58.995664"/>
     <use style="fill-opacity:0;stroke:#00bfbf;stroke-linejoin:miter;stroke-width:1.5;" x="369.60768" xlink:href="#m58ed1d3e0c" y="152.662812"/>
    </g>
   </g>
   <g id="line2d_32">
    <path d="M 338.688 298.944 
L 338.688 6.381624 
" style="fill:none;stroke:#000000;stroke-linecap:square;stroke-width:1.5;"/>
   </g>
   <g id="patch_3">
    <path d="M 57.6 298.944 
L 57.6 3.456 
" style="fill:none;stroke:#000000;stroke-linecap:square;stroke-linejoin:miter;stroke-width:0.8;"/>
   </g>
   <g id="patch_4">
    <path d="M 338.688 298.944 
L 338.688 3.456 
" style="fill:none;stroke:#000000;stroke-linecap:square;stroke-linejoin:miter;stroke-width:0.8;"/>
   </g>
   <g id="patch_5">
    <path d="M 57.6 298.944 
L 338.688 298.944 
" style="fill:none;stroke:#000000;stroke-linecap:square;stroke-linejoin:miter;stroke-width:0.8;"/>
   </g>
   <g id="patch_6">
    <path d="M 57.6 3.456 
L 338.688 3.456 
" style="fill:none;stroke:#000000;stroke-linecap:square;stroke-linejoin:miter;stroke-width:0.8;"/>
   </g>
   <g id="text_10">
    <!-- BFGS ros  -->
    <g transform="translate(375.22944 297.78369)scale(0.17 -0.17)">
     <defs>
      <path d="M 19.671875 34.8125 
L 19.671875 8.109375 
L 35.5 8.109375 
Q 43.453125 8.109375 47.28125 11.40625 
Q 51.125 14.703125 51.125 21.484375 
Q 51.125 28.328125 47.28125 31.5625 
Q 43.453125 34.8125 35.5 34.8125 
z
M 19.671875 64.796875 
L 19.671875 42.828125 
L 34.28125 42.828125 
Q 41.5 42.828125 45.03125 45.53125 
Q 48.578125 48.25 48.578125 53.8125 
Q 48.578125 59.328125 45.03125 62.0625 
Q 41.5 64.796875 34.28125 64.796875 
z
M 9.8125 72.90625 
L 35.015625 72.90625 
Q 46.296875 72.90625 52.390625 68.21875 
Q 58.5 63.53125 58.5 54.890625 
Q 58.5 48.1875 55.375 44.234375 
Q 52.25 40.28125 46.1875 39.3125 
Q 53.46875 37.75 57.5 32.78125 
Q 61.53125 27.828125 61.53125 20.40625 
Q 61.53125 10.640625 54.890625 5.3125 
Q 48.25 0 35.984375 0 
L 9.8125 0 
z
" id="DejaVuSans-66"/>
      <path d="M 59.515625 10.40625 
L 59.515625 29.984375 
L 43.40625 29.984375 
L 43.40625 38.09375 
L 69.28125 38.09375 
L 69.28125 6.78125 
Q 63.578125 2.734375 56.6875 0.65625 
Q 49.8125 -1.421875 42 -1.421875 
Q 24.90625 -1.421875 15.25 8.5625 
Q 5.609375 18.5625 5.609375 36.375 
Q 5.609375 54.25 15.25 64.234375 
Q 24.90625 74.21875 42 74.21875 
Q 49.125 74.21875 55.546875 72.453125 
Q 61.96875 70.703125 67.390625 67.28125 
L 67.390625 56.78125 
Q 61.921875 61.421875 55.765625 63.765625 
Q 49.609375 66.109375 42.828125 66.109375 
Q 29.4375 66.109375 22.71875 58.640625 
Q 16.015625 51.171875 16.015625 36.375 
Q 16.015625 21.625 22.71875 14.15625 
Q 29.4375 6.6875 42.828125 6.6875 
Q 48.046875 6.6875 52.140625 7.59375 
Q 56.25 8.5 59.515625 10.40625 
z
" id="DejaVuSans-71"/>
      <path d="M 53.515625 70.515625 
L 53.515625 60.890625 
Q 47.90625 63.578125 42.921875 64.890625 
Q 37.9375 66.21875 33.296875 66.21875 
Q 25.25 66.21875 20.875 63.09375 
Q 16.5 59.96875 16.5 54.203125 
Q 16.5 49.359375 19.40625 46.890625 
Q 22.3125 44.4375 30.421875 42.921875 
L 36.375 41.703125 
Q 47.40625 39.59375 52.65625 34.296875 
Q 57.90625 29 57.90625 20.125 
Q 57.90625 9.515625 50.796875 4.046875 
Q 43.703125 -1.421875 29.984375 -1.421875 
Q 24.8125 -1.421875 18.96875 -0.25 
Q 13.140625 0.921875 6.890625 3.21875 
L 6.890625 13.375 
Q 12.890625 10.015625 18.65625 8.296875 
Q 24.421875 6.59375 29.984375 6.59375 
Q 38.421875 6.59375 43.015625 9.90625 
Q 47.609375 13.234375 47.609375 19.390625 
Q 47.609375 24.75 44.3125 27.78125 
Q 41.015625 30.8125 33.5 32.328125 
L 27.484375 33.5 
Q 16.453125 35.6875 11.515625 40.375 
Q 6.59375 45.0625 6.59375 53.421875 
Q 6.59375 63.09375 13.40625 68.65625 
Q 20.21875 74.21875 32.171875 74.21875 
Q 37.3125 74.21875 42.625 73.28125 
Q 47.953125 72.359375 53.515625 70.515625 
z
" id="DejaVuSans-83"/>
     </defs>
     <use xlink:href="#DejaVuSans-66"/>
     <use x="68.603516" xlink:href="#DejaVuSans-70"/>
     <use x="126.123047" xlink:href="#DejaVuSans-71"/>
     <use x="203.613281" xlink:href="#DejaVuSans-83"/>
     <use x="267.089844" xlink:href="#DejaVuSans-32"/>
     <use x="298.876953" xlink:href="#DejaVuSans-114"/>
     <use x="337.740234" xlink:href="#DejaVuSans-111"/>
     <use x="398.921875" xlink:href="#DejaVuSans-115"/>
     <use x="451.021484" xlink:href="#DejaVuSans-32"/>
    </g>
   </g>
   <g id="text_11">
    <!-- NEWUOA ro -->
    <g transform="translate(375.22944 157.353749)scale(0.17 -0.17)">
     <defs>
      <path d="M 9.8125 72.90625 
L 23.09375 72.90625 
L 55.421875 11.921875 
L 55.421875 72.90625 
L 64.984375 72.90625 
L 64.984375 0 
L 51.703125 0 
L 19.390625 60.984375 
L 19.390625 0 
L 9.8125 0 
z
" id="DejaVuSans-78"/>
      <path d="M 9.8125 72.90625 
L 55.90625 72.90625 
L 55.90625 64.59375 
L 19.671875 64.59375 
L 19.671875 43.015625 
L 54.390625 43.015625 
L 54.390625 34.71875 
L 19.671875 34.71875 
L 19.671875 8.296875 
L 56.78125 8.296875 
L 56.78125 0 
L 9.8125 0 
z
" id="DejaVuSans-69"/>
      <path d="M 3.328125 72.90625 
L 13.28125 72.90625 
L 28.609375 11.28125 
L 43.890625 72.90625 
L 54.984375 72.90625 
L 70.3125 11.28125 
L 85.59375 72.90625 
L 95.609375 72.90625 
L 77.296875 0 
L 64.890625 0 
L 49.515625 63.28125 
L 33.984375 0 
L 21.578125 0 
z
" id="DejaVuSans-87"/>
      <path d="M 8.6875 72.90625 
L 18.609375 72.90625 
L 18.609375 28.609375 
Q 18.609375 16.890625 22.84375 11.734375 
Q 27.09375 6.59375 36.625 6.59375 
Q 46.09375 6.59375 50.34375 11.734375 
Q 54.59375 16.890625 54.59375 28.609375 
L 54.59375 72.90625 
L 64.5 72.90625 
L 64.5 27.390625 
Q 64.5 13.140625 57.4375 5.859375 
Q 50.390625 -1.421875 36.625 -1.421875 
Q 22.796875 -1.421875 15.734375 5.859375 
Q 8.6875 13.140625 8.6875 27.390625 
z
" id="DejaVuSans-85"/>
      <path d="M 39.40625 66.21875 
Q 28.65625 66.21875 22.328125 58.203125 
Q 16.015625 50.203125 16.015625 36.375 
Q 16.015625 22.609375 22.328125 14.59375 
Q 28.65625 6.59375 39.40625 6.59375 
Q 50.140625 6.59375 56.421875 14.59375 
Q 62.703125 22.609375 62.703125 36.375 
Q 62.703125 50.203125 56.421875 58.203125 
Q 50.140625 66.21875 39.40625 66.21875 
z
M 39.40625 74.21875 
Q 54.734375 74.21875 63.90625 63.9375 
Q 73.09375 53.65625 73.09375 36.375 
Q 73.09375 19.140625 63.90625 8.859375 
Q 54.734375 -1.421875 39.40625 -1.421875 
Q 24.03125 -1.421875 14.8125 8.828125 
Q 5.609375 19.09375 5.609375 36.375 
Q 5.609375 53.65625 14.8125 63.9375 
Q 24.03125 74.21875 39.40625 74.21875 
z
" id="DejaVuSans-79"/>
      <path d="M 34.1875 63.1875 
L 20.796875 26.90625 
L 47.609375 26.90625 
z
M 28.609375 72.90625 
L 39.796875 72.90625 
L 67.578125 0 
L 57.328125 0 
L 50.6875 18.703125 
L 17.828125 18.703125 
L 11.1875 0 
L 0.78125 0 
z
" id="DejaVuSans-65"/>
     </defs>
     <use xlink:href="#DejaVuSans-78"/>
     <use x="74.804688" xlink:href="#DejaVuSans-69"/>
     <use x="137.988281" xlink:href="#DejaVuSans-87"/>
     <use x="236.865234" xlink:href="#DejaVuSans-85"/>
     <use x="310.058594" xlink:href="#DejaVuSans-79"/>
     <use x="387.019531" xlink:href="#DejaVuSans-65"/>
     <use x="455.427734" xlink:href="#DejaVuSans-32"/>
     <use x="487.214844" xlink:href="#DejaVuSans-114"/>
     <use x="526.078125" xlink:href="#DejaVuSans-111"/>
    </g>
   </g>
   <g id="text_12">
    <!-- best09 -->
    <g transform="translate(375.22944 16.923809)scale(0.17 -0.17)">
     <defs>
      <path d="M 48.6875 27.296875 
Q 48.6875 37.203125 44.609375 42.84375 
Q 40.53125 48.484375 33.40625 48.484375 
Q 26.265625 48.484375 22.1875 42.84375 
Q 18.109375 37.203125 18.109375 27.296875 
Q 18.109375 17.390625 22.1875 11.75 
Q 26.265625 6.109375 33.40625 6.109375 
Q 40.53125 6.109375 44.609375 11.75 
Q 48.6875 17.390625 48.6875 27.296875 
z
M 18.109375 46.390625 
Q 20.953125 51.265625 25.265625 53.625 
Q 29.59375 56 35.59375 56 
Q 45.5625 56 51.78125 48.09375 
Q 58.015625 40.1875 58.015625 27.296875 
Q 58.015625 14.40625 51.78125 6.484375 
Q 45.5625 -1.421875 35.59375 -1.421875 
Q 29.59375 -1.421875 25.265625 0.953125 
Q 20.953125 3.328125 18.109375 8.203125 
L 18.109375 0 
L 9.078125 0 
L 9.078125 75.984375 
L 18.109375 75.984375 
z
" id="DejaVuSans-98"/>
      <path d="M 10.984375 1.515625 
L 10.984375 10.5 
Q 14.703125 8.734375 18.5 7.8125 
Q 22.3125 6.890625 25.984375 6.890625 
Q 35.75 6.890625 40.890625 13.453125 
Q 46.046875 20.015625 46.78125 33.40625 
Q 43.953125 29.203125 39.59375 26.953125 
Q 35.25 24.703125 29.984375 24.703125 
Q 19.046875 24.703125 12.671875 31.3125 
Q 6.296875 37.9375 6.296875 49.421875 
Q 6.296875 60.640625 12.9375 67.421875 
Q 19.578125 74.21875 30.609375 74.21875 
Q 43.265625 74.21875 49.921875 64.515625 
Q 56.59375 54.828125 56.59375 36.375 
Q 56.59375 19.140625 48.40625 8.859375 
Q 40.234375 -1.421875 26.421875 -1.421875 
Q 22.703125 -1.421875 18.890625 -0.6875 
Q 15.09375 0.046875 10.984375 1.515625 
z
M 30.609375 32.421875 
Q 37.25 32.421875 41.125 36.953125 
Q 45.015625 41.5 45.015625 49.421875 
Q 45.015625 57.28125 41.125 61.84375 
Q 37.25 66.40625 30.609375 66.40625 
Q 23.96875 66.40625 20.09375 61.84375 
Q 16.21875 57.28125 16.21875 49.421875 
Q 16.21875 41.5 20.09375 36.953125 
Q 23.96875 32.421875 30.609375 32.421875 
z
" id="DejaVuSans-57"/>
     </defs>
     <use xlink:href="#DejaVuSans-98"/>
     <use x="63.476562" xlink:href="#DejaVuSans-101"/>
     <use x="125" xlink:href="#DejaVuSans-115"/>
     <use x="177.099609" xlink:href="#DejaVuSans-116"/>
     <use x="216.308594" xlink:href="#DejaVuSans-48"/>
     <use x="279.931641" xlink:href="#DejaVuSans-57"/>
    </g>
   </g>
   <g id="text_13">
    <!-- bbob f1-f24, 40-D -->
    <g transform="translate(60.41088 14.161286)scale(0.102 -0.102)">
     <defs>
      <path d="M 19.671875 64.796875 
L 19.671875 8.109375 
L 31.59375 8.109375 
Q 46.6875 8.109375 53.6875 14.9375 
Q 60.6875 21.78125 60.6875 36.53125 
Q 60.6875 51.171875 53.6875 57.984375 
Q 46.6875 64.796875 31.59375 64.796875 
z
M 9.8125 72.90625 
L 30.078125 72.90625 
Q 51.265625 72.90625 61.171875 64.09375 
Q 71.09375 55.28125 71.09375 36.53125 
Q 71.09375 17.671875 61.125 8.828125 
Q 51.171875 0 30.078125 0 
L 9.8125 0 
z
" id="DejaVuSans-68"/>
     </defs>
     <use xlink:href="#DejaVuSans-98"/>
     <use x="63.476562" xlink:href="#DejaVuSans-98"/>
     <use x="126.953125" xlink:href="#DejaVuSans-111"/>
     <use x="188.134766" xlink:href="#DejaVuSans-98"/>
     <use x="251.611328" xlink:href="#DejaVuSans-32"/>
     <use x="283.398438" xlink:href="#DejaVuSans-102"/>
     <use x="318.603516" xlink:href="#DejaVuSans-49"/>
     <use x="382.226562" xlink:href="#DejaVuSans-45"/>
     <use x="418.310547" xlink:href="#DejaVuSans-102"/>
     <use x="453.515625" xlink:href="#DejaVuSans-50"/>
     <use x="517.138672" xlink:href="#DejaVuSans-52"/>
     <use x="580.761719" xlink:href="#DejaVuSans-44"/>
     <use x="612.548828" xlink:href="#DejaVuSans-32"/>
     <use x="644.335938" xlink:href="#DejaVuSans-52"/>
     <use x="707.958984" xlink:href="#DejaVuSans-48"/>
     <use x="771.582031" xlink:href="#DejaVuSans-45"/>
     <use x="807.666016" xlink:href="#DejaVuSans-68"/>
    </g>
    <!-- 8 targets RLs/dim: 0.5..20 -->
    <g transform="translate(60.41088 25.583055)scale(0.102 -0.102)">
     <defs>
      <path d="M 44.390625 34.1875 
Q 47.5625 33.109375 50.5625 29.59375 
Q 53.5625 26.078125 56.59375 19.921875 
L 66.609375 0 
L 56 0 
L 46.6875 18.703125 
Q 43.0625 26.03125 39.671875 28.421875 
Q 36.28125 30.8125 30.421875 30.8125 
L 19.671875 30.8125 
L 19.671875 0 
L 9.8125 0 
L 9.8125 72.90625 
L 32.078125 72.90625 
Q 44.578125 72.90625 50.734375 67.671875 
Q 56.890625 62.453125 56.890625 51.90625 
Q 56.890625 45.015625 53.6875 40.46875 
Q 50.484375 35.9375 44.390625 34.1875 
z
M 19.671875 64.796875 
L 19.671875 38.921875 
L 32.078125 38.921875 
Q 39.203125 38.921875 42.84375 42.21875 
Q 46.484375 45.515625 46.484375 51.90625 
Q 46.484375 58.296875 42.84375 61.546875 
Q 39.203125 64.796875 32.078125 64.796875 
z
" id="DejaVuSans-82"/>
      <path d="M 9.8125 72.90625 
L 19.671875 72.90625 
L 19.671875 8.296875 
L 55.171875 8.296875 
L 55.171875 0 
L 9.8125 0 
z
" id="DejaVuSans-76"/>
      <path d="M 11.71875 12.40625 
L 22.015625 12.40625 
L 22.015625 0 
L 11.71875 0 
z
M 11.71875 51.703125 
L 22.015625 51.703125 
L 22.015625 39.3125 
L 11.71875 39.3125 
z
" id="DejaVuSans-58"/>
      <path d="M 10.796875 72.90625 
L 49.515625 72.90625 
L 49.515625 64.59375 
L 19.828125 64.59375 
L 19.828125 46.734375 
Q 21.96875 47.46875 24.109375 47.828125 
Q 26.265625 48.1875 28.421875 48.1875 
Q 40.625 48.1875 47.75 41.5 
Q 54.890625 34.8125 54.890625 23.390625 
Q 54.890625 11.625 47.5625 5.09375 
Q 40.234375 -1.421875 26.90625 -1.421875 
Q 22.3125 -1.421875 17.546875 -0.640625 
Q 12.796875 0.140625 7.71875 1.703125 
L 7.71875 11.625 
Q 12.109375 9.234375 16.796875 8.0625 
Q 21.484375 6.890625 26.703125 6.890625 
Q 35.15625 6.890625 40.078125 11.328125 
Q 45.015625 15.765625 45.015625 23.390625 
Q 45.015625 31 40.078125 35.4375 
Q 35.15625 39.890625 26.703125 39.890625 
Q 22.75 39.890625 18.8125 39.015625 
Q 14.890625 38.140625 10.796875 36.28125 
z
" id="DejaVuSans-53"/>
     </defs>
     <use xlink:href="#DejaVuSans-56"/>
     <use x="63.623047" xlink:href="#DejaVuSans-32"/>
     <use x="95.410156" xlink:href="#DejaVuSans-116"/>
     <use x="134.619141" xlink:href="#DejaVuSans-97"/>
     <use x="195.898438" xlink:href="#DejaVuSans-114"/>
     <use x="235.261719" xlink:href="#DejaVuSans-103"/>
     <use x="298.738281" xlink:href="#DejaVuSans-101"/>
     <use x="360.261719" xlink:href="#DejaVuSans-116"/>
     <use x="399.470703" xlink:href="#DejaVuSans-115"/>
     <use x="451.570312" xlink:href="#DejaVuSans-32"/>
     <use x="483.357422" xlink:href="#DejaVuSans-82"/>
     <use x="552.839844" xlink:href="#DejaVuSans-76"/>
     <use x="608.552734" xlink:href="#DejaVuSans-115"/>
     <use x="660.652344" xlink:href="#DejaVuSans-47"/>
     <use x="694.34375" xlink:href="#DejaVuSans-100"/>
     <use x="757.820312" xlink:href="#DejaVuSans-105"/>
     <use x="785.603516" xlink:href="#DejaVuSans-109"/>
     <use x="883.015625" xlink:href="#DejaVuSans-58"/>
     <use x="916.707031" xlink:href="#DejaVuSans-32"/>
     <use x="948.494141" xlink:href="#DejaVuSans-48"/>
     <use x="1012.117188" xlink:href="#DejaVuSans-46"/>
     <use x="1043.904297" xlink:href="#DejaVuSans-53"/>
     <use x="1107.527344" xlink:href="#DejaVuSans-46"/>
     <use x="1139.314453" xlink:href="#DejaVuSans-46"/>
     <use x="1171.101562" xlink:href="#DejaVuSans-50"/>
     <use x="1234.724609" xlink:href="#DejaVuSans-48"/>
    </g>
    <!--   from /home/local/EMSE2000/leriche/AESOP/EXPE_DOCOCO/bestCustomAlg -->
    <g transform="translate(60.41088 37.004824)scale(0.102 -0.102)">
     <defs>
      <path d="M 54.890625 33.015625 
L 54.890625 0 
L 45.90625 0 
L 45.90625 32.71875 
Q 45.90625 40.484375 42.875 44.328125 
Q 39.84375 48.1875 33.796875 48.1875 
Q 26.515625 48.1875 22.3125 43.546875 
Q 18.109375 38.921875 18.109375 30.90625 
L 18.109375 0 
L 9.078125 0 
L 9.078125 75.984375 
L 18.109375 75.984375 
L 18.109375 46.1875 
Q 21.34375 51.125 25.703125 53.5625 
Q 30.078125 56 35.796875 56 
Q 45.21875 56 50.046875 50.171875 
Q 54.890625 44.34375 54.890625 33.015625 
z
" id="DejaVuSans-104"/>
      <path d="M 9.8125 72.90625 
L 24.515625 72.90625 
L 43.109375 23.296875 
L 61.8125 72.90625 
L 76.515625 72.90625 
L 76.515625 0 
L 66.890625 0 
L 66.890625 64.015625 
L 48.09375 14.015625 
L 38.1875 14.015625 
L 19.390625 64.015625 
L 19.390625 0 
L 9.8125 0 
z
" id="DejaVuSans-77"/>
      <path d="M 19.671875 64.796875 
L 19.671875 37.40625 
L 32.078125 37.40625 
Q 38.96875 37.40625 42.71875 40.96875 
Q 46.484375 44.53125 46.484375 51.125 
Q 46.484375 57.671875 42.71875 61.234375 
Q 38.96875 64.796875 32.078125 64.796875 
z
M 9.8125 72.90625 
L 32.078125 72.90625 
Q 44.34375 72.90625 50.609375 67.359375 
Q 56.890625 61.8125 56.890625 51.125 
Q 56.890625 40.328125 50.609375 34.8125 
Q 44.34375 29.296875 32.078125 29.296875 
L 19.671875 29.296875 
L 19.671875 0 
L 9.8125 0 
z
" id="DejaVuSans-80"/>
      <path d="M 6.296875 72.90625 
L 16.890625 72.90625 
L 35.015625 45.796875 
L 53.21875 72.90625 
L 63.8125 72.90625 
L 40.375 37.890625 
L 65.375 0 
L 54.78125 0 
L 34.28125 31 
L 13.625 0 
L 2.984375 0 
L 29 38.921875 
z
" id="DejaVuSans-88"/>
      <path d="M 50.984375 -16.609375 
L 50.984375 -23.578125 
L -0.984375 -23.578125 
L -0.984375 -16.609375 
z
" id="DejaVuSans-95"/>
      <path d="M 64.40625 67.28125 
L 64.40625 56.890625 
Q 59.421875 61.53125 53.78125 63.8125 
Q 48.140625 66.109375 41.796875 66.109375 
Q 29.296875 66.109375 22.65625 58.46875 
Q 16.015625 50.828125 16.015625 36.375 
Q 16.015625 21.96875 22.65625 14.328125 
Q 29.296875 6.6875 41.796875 6.6875 
Q 48.140625 6.6875 53.78125 8.984375 
Q 59.421875 11.28125 64.40625 15.921875 
L 64.40625 5.609375 
Q 59.234375 2.09375 53.4375 0.328125 
Q 47.65625 -1.421875 41.21875 -1.421875 
Q 24.65625 -1.421875 15.125 8.703125 
Q 5.609375 18.84375 5.609375 36.375 
Q 5.609375 53.953125 15.125 64.078125 
Q 24.65625 74.21875 41.21875 74.21875 
Q 47.75 74.21875 53.53125 72.484375 
Q 59.328125 70.75 64.40625 67.28125 
z
" id="DejaVuSans-67"/>
     </defs>
     <use xlink:href="#DejaVuSans-32"/>
     <use x="31.787109" xlink:href="#DejaVuSans-32"/>
     <use x="63.574219" xlink:href="#DejaVuSans-102"/>
     <use x="98.779297" xlink:href="#DejaVuSans-114"/>
     <use x="137.642578" xlink:href="#DejaVuSans-111"/>
     <use x="198.824219" xlink:href="#DejaVuSans-109"/>
     <use x="296.236328" xlink:href="#DejaVuSans-32"/>
     <use x="328.023438" xlink:href="#DejaVuSans-47"/>
     <use x="361.714844" xlink:href="#DejaVuSans-104"/>
     <use x="425.09375" xlink:href="#DejaVuSans-111"/>
     <use x="486.275391" xlink:href="#DejaVuSans-109"/>
     <use x="583.6875" xlink:href="#DejaVuSans-101"/>
     <use x="645.210938" xlink:href="#DejaVuSans-47"/>
     <use x="678.902344" xlink:href="#DejaVuSans-108"/>
     <use x="706.685547" xlink:href="#DejaVuSans-111"/>
     <use x="767.867188" xlink:href="#DejaVuSans-99"/>
     <use x="822.847656" xlink:href="#DejaVuSans-97"/>
     <use x="884.126953" xlink:href="#DejaVuSans-108"/>
     <use x="911.910156" xlink:href="#DejaVuSans-47"/>
     <use x="945.601562" xlink:href="#DejaVuSans-69"/>
     <use x="1008.785156" xlink:href="#DejaVuSans-77"/>
     <use x="1095.064453" xlink:href="#DejaVuSans-83"/>
     <use x="1158.541016" xlink:href="#DejaVuSans-69"/>
     <use x="1221.724609" xlink:href="#DejaVuSans-50"/>
     <use x="1285.347656" xlink:href="#DejaVuSans-48"/>
     <use x="1348.970703" xlink:href="#DejaVuSans-48"/>
     <use x="1412.59375" xlink:href="#DejaVuSans-48"/>
     <use x="1476.216797" xlink:href="#DejaVuSans-47"/>
     <use x="1509.908203" xlink:href="#DejaVuSans-108"/>
     <use x="1537.691406" xlink:href="#DejaVuSans-101"/>
     <use x="1599.214844" xlink:href="#DejaVuSans-114"/>
     <use x="1640.328125" xlink:href="#DejaVuSans-105"/>
     <use x="1668.111328" xlink:href="#DejaVuSans-99"/>
     <use x="1723.091797" xlink:href="#DejaVuSans-104"/>
     <use x="1786.470703" xlink:href="#DejaVuSans-101"/>
     <use x="1847.994141" xlink:href="#DejaVuSans-47"/>
     <use x="1881.685547" xlink:href="#DejaVuSans-65"/>
     <use x="1950.09375" xlink:href="#DejaVuSans-69"/>
     <use x="2013.277344" xlink:href="#DejaVuSans-83"/>
     <use x="2076.753906" xlink:href="#DejaVuSans-79"/>
     <use x="2155.464844" xlink:href="#DejaVuSans-80"/>
     <use x="2215.767578" xlink:href="#DejaVuSans-47"/>
     <use x="2249.458984" xlink:href="#DejaVuSans-69"/>
     <use x="2312.642578" xlink:href="#DejaVuSans-88"/>
     <use x="2381.148438" xlink:href="#DejaVuSans-80"/>
     <use x="2441.451172" xlink:href="#DejaVuSans-69"/>
     <use x="2504.634766" xlink:href="#DejaVuSans-95"/>
     <use x="2554.634766" xlink:href="#DejaVuSans-68"/>
     <use x="2631.636719" xlink:href="#DejaVuSans-79"/>
     <use x="2710.347656" xlink:href="#DejaVuSans-67"/>
     <use x="2780.171875" xlink:href="#DejaVuSans-79"/>
     <use x="2858.882812" xlink:href="#DejaVuSans-67"/>
     <use x="2928.707031" xlink:href="#DejaVuSans-79"/>
     <use x="3007.417969" xlink:href="#DejaVuSans-47"/>
     <use x="3041.109375" xlink:href="#DejaVuSans-98"/>
     <use x="3104.585938" xlink:href="#DejaVuSans-101"/>
     <use x="3166.109375" xlink:href="#DejaVuSans-115"/>
     <use x="3218.208984" xlink:href="#DejaVuSans-116"/>
     <use x="3257.417969" xlink:href="#DejaVuSans-67"/>
     <use x="3327.242188" xlink:href="#DejaVuSans-117"/>
     <use x="3390.621094" xlink:href="#DejaVuSans-115"/>
     <use x="3442.720703" xlink:href="#DejaVuSans-116"/>
     <use x="3481.929688" xlink:href="#DejaVuSans-111"/>
     <use x="3543.111328" xlink:href="#DejaVuSans-109"/>
     <use x="3640.523438" xlink:href="#DejaVuSans-65"/>
     <use x="3708.931641" xlink:href="#DejaVuSans-108"/>
     <use x="3736.714844" xlink:href="#DejaVuSans-103"/>
    </g>
    <!-- 15 instances -->
    <g transform="translate(60.41088 48.71028)scale(0.102 -0.102)">
     <use xlink:href="#DejaVuSans-49"/>
     <use x="63.623047" xlink:href="#DejaVuSans-53"/>
     <use x="127.246094" xlink:href="#DejaVuSans-32"/>
     <use x="159.033203" xlink:href="#DejaVuSans-105"/>
     <use x="186.816406" xlink:href="#DejaVuSans-110"/>
     <use x="250.195312" xlink:href="#DejaVuSans-115"/>
     <use x="302.294922" xlink:href="#DejaVuSans-116"/>
     <use x="341.503906" xlink:href="#DejaVuSans-97"/>
     <use x="402.783203" xlink:href="#DejaVuSans-110"/>
     <use x="466.162109" xlink:href="#DejaVuSans-99"/>
     <use x="521.142578" xlink:href="#DejaVuSans-101"/>
     <use x="582.666016" xlink:href="#DejaVuSans-115"/>
    </g>
   </g>
   <g id="text_14">
    <!-- v2.3.3.84 -->
    <g style="fill:#808080;" transform="translate(174.511187 293.909432)scale(0.1 -0.1)">
     <defs>
      <path d="M 40.578125 39.3125 
Q 47.65625 37.796875 51.625 33 
Q 55.609375 28.21875 55.609375 21.1875 
Q 55.609375 10.40625 48.1875 4.484375 
Q 40.765625 -1.421875 27.09375 -1.421875 
Q 22.515625 -1.421875 17.65625 -0.515625 
Q 12.796875 0.390625 7.625 2.203125 
L 7.625 11.71875 
Q 11.71875 9.328125 16.59375 8.109375 
Q 21.484375 6.890625 26.8125 6.890625 
Q 36.078125 6.890625 40.9375 10.546875 
Q 45.796875 14.203125 45.796875 21.1875 
Q 45.796875 27.640625 41.28125 31.265625 
Q 36.765625 34.90625 28.71875 34.90625 
L 20.21875 34.90625 
L 20.21875 43.015625 
L 29.109375 43.015625 
Q 36.375 43.015625 40.234375 45.921875 
Q 44.09375 48.828125 44.09375 54.296875 
Q 44.09375 59.90625 40.109375 62.90625 
Q 36.140625 65.921875 28.71875 65.921875 
Q 24.65625 65.921875 20.015625 65.03125 
Q 15.375 64.15625 9.8125 62.3125 
L 9.8125 71.09375 
Q 15.4375 72.65625 20.34375 73.4375 
Q 25.25 74.21875 29.59375 74.21875 
Q 40.828125 74.21875 47.359375 69.109375 
Q 53.90625 64.015625 53.90625 55.328125 
Q 53.90625 49.265625 50.4375 45.09375 
Q 46.96875 40.921875 40.578125 39.3125 
z
" id="DejaVuSans-51"/>
     </defs>
     <use xlink:href="#DejaVuSans-118"/>
     <use x="59.179688" xlink:href="#DejaVuSans-50"/>
     <use x="122.802734" xlink:href="#DejaVuSans-46"/>
     <use x="154.589844" xlink:href="#DejaVuSans-51"/>
     <use x="218.212891" xlink:href="#DejaVuSans-46"/>
     <use x="250" xlink:href="#DejaVuSans-51"/>
     <use x="313.623047" xlink:href="#DejaVuSans-46"/>
     <use x="345.410156" xlink:href="#DejaVuSans-56"/>
     <use x="409.033203" xlink:href="#DejaVuSans-52"/>
    </g>
   </g>
  </g>
 </g>
 <defs>
  <clipPath id="pf2eb1be339">
   <rect height="295.488" width="281.088" x="57.6" y="3.456"/>
  </clipPath>
 </defs>
</svg>
