<?xml version="1.0" encoding="utf-8" standalone="no"?>
<!DOCTYPE svg PUBLIC "-//W3C//DTD SVG 1.1//EN"
  "http://www.w3.org/Graphics/SVG/1.1/DTD/svg11.dtd">
<!-- Created with matplotlib (https://matplotlib.org/) -->
<svg height="345.6pt" version="1.1" viewBox="0 0 460.8 345.6" width="460.8pt" xmlns="http://www.w3.org/2000/svg" xmlns:xlink="http://www.w3.org/1999/xlink">
 <metadata>
  <rdf:RDF xmlns:cc="http://creativecommons.org/ns#" xmlns:dc="http://purl.org/dc/elements/1.1/" xmlns:rdf="http://www.w3.org/1999/02/22-rdf-syntax-ns#">
   <cc:Work>
    <dc:type rdf:resource="http://purl.org/dc/dcmitype/StillImage"/>
    <dc:date>2020-12-11T23:05:27.893262</dc:date>
    <dc:format>image/svg+xml</dc:format>
    <dc:creator>
     <cc:Agent>
      <dc:title>Matplotlib v3.3.3, https://matplotlib.org/</dc:title>
     </cc:Agent>
    </dc:creator>
   </cc:Work>
  </rdf:RDF>
 </metadata>
 <defs>
  <style type="text/css">*{stroke-linecap:butt;stroke-linejoin:round;}</style>
 </defs>
 <g id="figure_1">
  <g id="patch_1">
   <path d="M 0 345.6 
L 460.8 345.6 
L 460.8 0 
L 0 0 
z
" style="fill:#ffffff;"/>
  </g>
  <g id="axes_1">
   <g id="patch_2">
    <path d="M 57.6 298.944 
L 338.688 298.944 
L 338.688 3.456 
L 57.6 3.456 
z
" style="fill:#ffffff;"/>
   </g>
   <g id="line2d_1">
    <path d="M 8.192457 298.944 
L 8.192457 288.855642 
L 15.383411 288.855642 
L 15.383411 278.767284 
L 33.82485 278.767284 
L 33.82485 268.678927 
L 79.282789 268.678927 
L 79.282789 258.590569 
L 82.401795 258.590569 
L 82.401795 248.502211 
L 88.307438 248.502211 
L 88.307438 238.413853 
L 101.453154 238.413853 
L 101.453154 228.325495 
L 151.103411 228.325495 
L 151.103411 218.237138 
L 157.513121 218.237138 
L 157.513121 198.060422 
L 165.725644 198.060422 
L 165.725644 187.972064 
L 196.201694 187.972064 
L 196.201694 177.883706 
L 198.486922 177.883706 
L 198.486922 167.795349 
L 199.234836 167.795349 
L 199.234836 157.706991 
L 211.011587 157.706991 
L 211.011587 147.618633 
L 225.213952 147.618633 
L 225.213952 137.530275 
L 231.996115 137.530275 
L 231.996115 127.441917 
L 238.726656 127.441917 
L 238.726656 117.35356 
L 245.802105 117.35356 
L 245.802105 107.265202 
L 248.716799 107.265202 
L 248.716799 97.176844 
L 259.803471 97.176844 
L 259.803471 87.088486 
L 282.498294 87.088486 
L 282.498294 77.000128 
L 286.478702 77.000128 
L 286.478702 66.911771 
L 290.769575 66.911771 
L 290.769575 56.823413 
L 294.848618 56.823413 
L 294.848618 46.735055 
L 308.420158 46.735055 
L 308.420158 36.646697 
L 309.014009 36.646697 
L 309.014009 26.558339 
L 313.055607 26.558339 
L 313.055607 16.469982 
L 326.861597 16.469982 
L 326.861597 6.381624 
L 338.688 6.381624 
" style="fill:none;stroke:#f5deb3;stroke-linecap:square;stroke-width:4;"/>
   </g>
   <g id="line2d_2">
    <defs>
     <path d="M -0 7.778175 
L 7.778175 0 
L 0 -7.778175 
L -7.778175 -0 
z
" id="m05cebb9ae3" style="stroke:#f5deb3;stroke-linejoin:miter;stroke-width:1.5;"/>
    </defs>
    <g>
     <use style="fill:#f5deb3;stroke:#f5deb3;stroke-linejoin:miter;stroke-width:1.5;" x="88.307438" xlink:href="#m05cebb9ae3" y="248.502211"/>
     <use style="fill:#f5deb3;stroke:#f5deb3;stroke-linejoin:miter;stroke-width:1.5;" x="151.103411" xlink:href="#m05cebb9ae3" y="228.325495"/>
     <use style="fill:#f5deb3;stroke:#f5deb3;stroke-linejoin:miter;stroke-width:1.5;" x="199.234836" xlink:href="#m05cebb9ae3" y="157.706991"/>
     <use style="fill:#f5deb3;stroke:#f5deb3;stroke-linejoin:miter;stroke-width:1.5;" x="248.716799" xlink:href="#m05cebb9ae3" y="97.176844"/>
     <use style="fill:#f5deb3;stroke:#f5deb3;stroke-linejoin:miter;stroke-width:1.5;" x="308.420158" xlink:href="#m05cebb9ae3" y="36.646697"/>
     <use style="fill:#f5deb3;stroke:#f5deb3;stroke-linejoin:miter;stroke-width:1.5;" x="326.861597" xlink:href="#m05cebb9ae3" y="6.381624"/>
     <use style="fill:#f5deb3;stroke:#f5deb3;stroke-linejoin:miter;stroke-width:1.5;" x="326.861597" xlink:href="#m05cebb9ae3" y="6.381624"/>
     <use style="fill:#f5deb3;stroke:#f5deb3;stroke-linejoin:miter;stroke-width:1.5;" x="338.688" xlink:href="#m05cebb9ae3" y="6.381624"/>
    </g>
   </g>
   <g id="line2d_3">
    <path style="fill:none;stroke:#f5deb3;stroke-linecap:square;stroke-width:4;"/>
    <g/>
   </g>
   <g id="line2d_4">
    <path d="M 338.688 6.381624 
L 369.60768 12.232871 
" style="fill:none;stroke:#f5deb3;stroke-linecap:square;stroke-width:4;"/>
    <g>
     <use style="fill:#f5deb3;stroke:#f5deb3;stroke-linejoin:miter;stroke-width:1.5;" x="338.688" xlink:href="#m05cebb9ae3" y="6.381624"/>
     <use style="fill:#f5deb3;stroke:#f5deb3;stroke-linejoin:miter;stroke-width:1.5;" x="369.60768" xlink:href="#m05cebb9ae3" y="12.232871"/>
    </g>
   </g>
   <g id="matplotlib.axis_1">
    <g id="xtick_1">
     <g id="line2d_5">
      <path clip-path="url(#p6a852fcfdb)" d="M 57.6 298.944 
L 57.6 3.456 
" style="fill:none;stroke:#b0b0b0;stroke-linecap:square;stroke-width:0.8;"/>
     </g>
     <g id="line2d_6">
      <defs>
       <path d="M 0 0 
L 0 3.5 
" id="mdd354e94ab" style="stroke:#000000;stroke-width:0.8;"/>
      </defs>
      <g>
       <use style="stroke:#000000;stroke-width:0.8;" x="57.6" xlink:href="#mdd354e94ab" y="298.944"/>
      </g>
     </g>
     <g id="text_1">
      <!-- 0 -->
      <g transform="translate(51.2375 321.140875)scale(0.2 -0.2)">
       <defs>
        <path d="M 31.78125 66.40625 
Q 24.171875 66.40625 20.328125 58.90625 
Q 16.5 51.421875 16.5 36.375 
Q 16.5 21.390625 20.328125 13.890625 
Q 24.171875 6.390625 31.78125 6.390625 
Q 39.453125 6.390625 43.28125 13.890625 
Q 47.125 21.390625 47.125 36.375 
Q 47.125 51.421875 43.28125 58.90625 
Q 39.453125 66.40625 31.78125 66.40625 
z
M 31.78125 74.21875 
Q 44.046875 74.21875 50.515625 64.515625 
Q 56.984375 54.828125 56.984375 36.375 
Q 56.984375 17.96875 50.515625 8.265625 
Q 44.046875 -1.421875 31.78125 -1.421875 
Q 19.53125 -1.421875 13.0625 8.265625 
Q 6.59375 17.96875 6.59375 36.375 
Q 6.59375 54.828125 13.0625 64.515625 
Q 19.53125 74.21875 31.78125 74.21875 
z
" id="DejaVuSans-48"/>
       </defs>
       <use xlink:href="#DejaVuSans-48"/>
      </g>
     </g>
    </g>
    <g id="xtick_2">
     <g id="line2d_7">
      <path clip-path="url(#p6a852fcfdb)" d="M 247.894466 298.944 
L 247.894466 3.456 
" style="fill:none;stroke:#b0b0b0;stroke-linecap:square;stroke-width:0.8;"/>
     </g>
     <g id="line2d_8">
      <defs>
       <path d="M 0 0 
L 0 2 
" id="mec124b1797" style="stroke:#000000;stroke-width:0.6;"/>
      </defs>
      <g>
       <use style="stroke:#000000;stroke-width:0.6;" x="247.894466" xlink:href="#mec124b1797" y="298.944"/>
      </g>
     </g>
    </g>
    <g id="text_2">
     <!-- log10(# f-evals / dimension) -->
     <g transform="translate(77.764078 342.217594)scale(0.17 -0.17)">
      <defs>
       <path d="M 9.421875 75.984375 
L 18.40625 75.984375 
L 18.40625 0 
L 9.421875 0 
z
" id="DejaVuSans-108"/>
       <path d="M 30.609375 48.390625 
Q 23.390625 48.390625 19.1875 42.75 
Q 14.984375 37.109375 14.984375 27.296875 
Q 14.984375 17.484375 19.15625 11.84375 
Q 23.34375 6.203125 30.609375 6.203125 
Q 37.796875 6.203125 41.984375 11.859375 
Q 46.1875 17.53125 46.1875 27.296875 
Q 46.1875 37.015625 41.984375 42.703125 
Q 37.796875 48.390625 30.609375 48.390625 
z
M 30.609375 56 
Q 42.328125 56 49.015625 48.375 
Q 55.71875 40.765625 55.71875 27.296875 
Q 55.71875 13.875 49.015625 6.21875 
Q 42.328125 -1.421875 30.609375 -1.421875 
Q 18.84375 -1.421875 12.171875 6.21875 
Q 5.515625 13.875 5.515625 27.296875 
Q 5.515625 40.765625 12.171875 48.375 
Q 18.84375 56 30.609375 56 
z
" id="DejaVuSans-111"/>
       <path d="M 45.40625 27.984375 
Q 45.40625 37.75 41.375 43.109375 
Q 37.359375 48.484375 30.078125 48.484375 
Q 22.859375 48.484375 18.828125 43.109375 
Q 14.796875 37.75 14.796875 27.984375 
Q 14.796875 18.265625 18.828125 12.890625 
Q 22.859375 7.515625 30.078125 7.515625 
Q 37.359375 7.515625 41.375 12.890625 
Q 45.40625 18.265625 45.40625 27.984375 
z
M 54.390625 6.78125 
Q 54.390625 -7.171875 48.1875 -13.984375 
Q 42 -20.796875 29.203125 -20.796875 
Q 24.46875 -20.796875 20.265625 -20.09375 
Q 16.0625 -19.390625 12.109375 -17.921875 
L 12.109375 -9.1875 
Q 16.0625 -11.328125 19.921875 -12.34375 
Q 23.78125 -13.375 27.78125 -13.375 
Q 36.625 -13.375 41.015625 -8.765625 
Q 45.40625 -4.15625 45.40625 5.171875 
L 45.40625 9.625 
Q 42.625 4.78125 38.28125 2.390625 
Q 33.9375 0 27.875 0 
Q 17.828125 0 11.671875 7.65625 
Q 5.515625 15.328125 5.515625 27.984375 
Q 5.515625 40.671875 11.671875 48.328125 
Q 17.828125 56 27.875 56 
Q 33.9375 56 38.28125 53.609375 
Q 42.625 51.21875 45.40625 46.390625 
L 45.40625 54.6875 
L 54.390625 54.6875 
z
" id="DejaVuSans-103"/>
       <path d="M 12.40625 8.296875 
L 28.515625 8.296875 
L 28.515625 63.921875 
L 10.984375 60.40625 
L 10.984375 69.390625 
L 28.421875 72.90625 
L 38.28125 72.90625 
L 38.28125 8.296875 
L 54.390625 8.296875 
L 54.390625 0 
L 12.40625 0 
z
" id="DejaVuSans-49"/>
       <path d="M 31 75.875 
Q 24.46875 64.65625 21.28125 53.65625 
Q 18.109375 42.671875 18.109375 31.390625 
Q 18.109375 20.125 21.3125 9.0625 
Q 24.515625 -2 31 -13.1875 
L 23.1875 -13.1875 
Q 15.875 -1.703125 12.234375 9.375 
Q 8.59375 20.453125 8.59375 31.390625 
Q 8.59375 42.28125 12.203125 53.3125 
Q 15.828125 64.359375 23.1875 75.875 
z
" id="DejaVuSans-40"/>
       <path d="M 51.125 44 
L 36.921875 44 
L 32.8125 27.6875 
L 47.125 27.6875 
z
M 43.796875 71.78125 
L 38.71875 51.515625 
L 52.984375 51.515625 
L 58.109375 71.78125 
L 65.921875 71.78125 
L 60.890625 51.515625 
L 76.125 51.515625 
L 76.125 44 
L 58.984375 44 
L 54.984375 27.6875 
L 70.515625 27.6875 
L 70.515625 20.21875 
L 53.078125 20.21875 
L 48 0 
L 40.1875 0 
L 45.21875 20.21875 
L 30.90625 20.21875 
L 25.875 0 
L 18.015625 0 
L 23.09375 20.21875 
L 7.71875 20.21875 
L 7.71875 27.6875 
L 24.90625 27.6875 
L 29 44 
L 13.28125 44 
L 13.28125 51.515625 
L 30.90625 51.515625 
L 35.890625 71.78125 
z
" id="DejaVuSans-35"/>
       <path id="DejaVuSans-32"/>
       <path d="M 37.109375 75.984375 
L 37.109375 68.5 
L 28.515625 68.5 
Q 23.6875 68.5 21.796875 66.546875 
Q 19.921875 64.59375 19.921875 59.515625 
L 19.921875 54.6875 
L 34.71875 54.6875 
L 34.71875 47.703125 
L 19.921875 47.703125 
L 19.921875 0 
L 10.890625 0 
L 10.890625 47.703125 
L 2.296875 47.703125 
L 2.296875 54.6875 
L 10.890625 54.6875 
L 10.890625 58.5 
Q 10.890625 67.625 15.140625 71.796875 
Q 19.390625 75.984375 28.609375 75.984375 
z
" id="DejaVuSans-102"/>
       <path d="M 4.890625 31.390625 
L 31.203125 31.390625 
L 31.203125 23.390625 
L 4.890625 23.390625 
z
" id="DejaVuSans-45"/>
       <path d="M 56.203125 29.59375 
L 56.203125 25.203125 
L 14.890625 25.203125 
Q 15.484375 15.921875 20.484375 11.0625 
Q 25.484375 6.203125 34.421875 6.203125 
Q 39.59375 6.203125 44.453125 7.46875 
Q 49.3125 8.734375 54.109375 11.28125 
L 54.109375 2.78125 
Q 49.265625 0.734375 44.1875 -0.34375 
Q 39.109375 -1.421875 33.890625 -1.421875 
Q 20.796875 -1.421875 13.15625 6.1875 
Q 5.515625 13.8125 5.515625 26.8125 
Q 5.515625 40.234375 12.765625 48.109375 
Q 20.015625 56 32.328125 56 
Q 43.359375 56 49.78125 48.890625 
Q 56.203125 41.796875 56.203125 29.59375 
z
M 47.21875 32.234375 
Q 47.125 39.59375 43.09375 43.984375 
Q 39.0625 48.390625 32.421875 48.390625 
Q 24.90625 48.390625 20.390625 44.140625 
Q 15.875 39.890625 15.1875 32.171875 
z
" id="DejaVuSans-101"/>
       <path d="M 2.984375 54.6875 
L 12.5 54.6875 
L 29.59375 8.796875 
L 46.6875 54.6875 
L 56.203125 54.6875 
L 35.6875 0 
L 23.484375 0 
z
" id="DejaVuSans-118"/>
       <path d="M 34.28125 27.484375 
Q 23.390625 27.484375 19.1875 25 
Q 14.984375 22.515625 14.984375 16.5 
Q 14.984375 11.71875 18.140625 8.90625 
Q 21.296875 6.109375 26.703125 6.109375 
Q 34.1875 6.109375 38.703125 11.40625 
Q 43.21875 16.703125 43.21875 25.484375 
L 43.21875 27.484375 
z
M 52.203125 31.203125 
L 52.203125 0 
L 43.21875 0 
L 43.21875 8.296875 
Q 40.140625 3.328125 35.546875 0.953125 
Q 30.953125 -1.421875 24.3125 -1.421875 
Q 15.921875 -1.421875 10.953125 3.296875 
Q 6 8.015625 6 15.921875 
Q 6 25.140625 12.171875 29.828125 
Q 18.359375 34.515625 30.609375 34.515625 
L 43.21875 34.515625 
L 43.21875 35.40625 
Q 43.21875 41.609375 39.140625 45 
Q 35.0625 48.390625 27.6875 48.390625 
Q 23 48.390625 18.546875 47.265625 
Q 14.109375 46.140625 10.015625 43.890625 
L 10.015625 52.203125 
Q 14.9375 54.109375 19.578125 55.046875 
Q 24.21875 56 28.609375 56 
Q 40.484375 56 46.34375 49.84375 
Q 52.203125 43.703125 52.203125 31.203125 
z
" id="DejaVuSans-97"/>
       <path d="M 44.28125 53.078125 
L 44.28125 44.578125 
Q 40.484375 46.53125 36.375 47.5 
Q 32.28125 48.484375 27.875 48.484375 
Q 21.1875 48.484375 17.84375 46.4375 
Q 14.5 44.390625 14.5 40.28125 
Q 14.5 37.15625 16.890625 35.375 
Q 19.28125 33.59375 26.515625 31.984375 
L 29.59375 31.296875 
Q 39.15625 29.25 43.1875 25.515625 
Q 47.21875 21.78125 47.21875 15.09375 
Q 47.21875 7.46875 41.1875 3.015625 
Q 35.15625 -1.421875 24.609375 -1.421875 
Q 20.21875 -1.421875 15.453125 -0.5625 
Q 10.6875 0.296875 5.421875 2 
L 5.421875 11.28125 
Q 10.40625 8.6875 15.234375 7.390625 
Q 20.0625 6.109375 24.8125 6.109375 
Q 31.15625 6.109375 34.5625 8.28125 
Q 37.984375 10.453125 37.984375 14.40625 
Q 37.984375 18.0625 35.515625 20.015625 
Q 33.0625 21.96875 24.703125 23.78125 
L 21.578125 24.515625 
Q 13.234375 26.265625 9.515625 29.90625 
Q 5.8125 33.546875 5.8125 39.890625 
Q 5.8125 47.609375 11.28125 51.796875 
Q 16.75 56 26.8125 56 
Q 31.78125 56 36.171875 55.265625 
Q 40.578125 54.546875 44.28125 53.078125 
z
" id="DejaVuSans-115"/>
       <path d="M 25.390625 72.90625 
L 33.6875 72.90625 
L 8.296875 -9.28125 
L 0 -9.28125 
z
" id="DejaVuSans-47"/>
       <path d="M 45.40625 46.390625 
L 45.40625 75.984375 
L 54.390625 75.984375 
L 54.390625 0 
L 45.40625 0 
L 45.40625 8.203125 
Q 42.578125 3.328125 38.25 0.953125 
Q 33.9375 -1.421875 27.875 -1.421875 
Q 17.96875 -1.421875 11.734375 6.484375 
Q 5.515625 14.40625 5.515625 27.296875 
Q 5.515625 40.1875 11.734375 48.09375 
Q 17.96875 56 27.875 56 
Q 33.9375 56 38.25 53.625 
Q 42.578125 51.265625 45.40625 46.390625 
z
M 14.796875 27.296875 
Q 14.796875 17.390625 18.875 11.75 
Q 22.953125 6.109375 30.078125 6.109375 
Q 37.203125 6.109375 41.296875 11.75 
Q 45.40625 17.390625 45.40625 27.296875 
Q 45.40625 37.203125 41.296875 42.84375 
Q 37.203125 48.484375 30.078125 48.484375 
Q 22.953125 48.484375 18.875 42.84375 
Q 14.796875 37.203125 14.796875 27.296875 
z
" id="DejaVuSans-100"/>
       <path d="M 9.421875 54.6875 
L 18.40625 54.6875 
L 18.40625 0 
L 9.421875 0 
z
M 9.421875 75.984375 
L 18.40625 75.984375 
L 18.40625 64.59375 
L 9.421875 64.59375 
z
" id="DejaVuSans-105"/>
       <path d="M 52 44.1875 
Q 55.375 50.25 60.0625 53.125 
Q 64.75 56 71.09375 56 
Q 79.640625 56 84.28125 50.015625 
Q 88.921875 44.046875 88.921875 33.015625 
L 88.921875 0 
L 79.890625 0 
L 79.890625 32.71875 
Q 79.890625 40.578125 77.09375 44.375 
Q 74.3125 48.1875 68.609375 48.1875 
Q 61.625 48.1875 57.5625 43.546875 
Q 53.515625 38.921875 53.515625 30.90625 
L 53.515625 0 
L 44.484375 0 
L 44.484375 32.71875 
Q 44.484375 40.625 41.703125 44.40625 
Q 38.921875 48.1875 33.109375 48.1875 
Q 26.21875 48.1875 22.15625 43.53125 
Q 18.109375 38.875 18.109375 30.90625 
L 18.109375 0 
L 9.078125 0 
L 9.078125 54.6875 
L 18.109375 54.6875 
L 18.109375 46.1875 
Q 21.1875 51.21875 25.484375 53.609375 
Q 29.78125 56 35.6875 56 
Q 41.65625 56 45.828125 52.96875 
Q 50 49.953125 52 44.1875 
z
" id="DejaVuSans-109"/>
       <path d="M 54.890625 33.015625 
L 54.890625 0 
L 45.90625 0 
L 45.90625 32.71875 
Q 45.90625 40.484375 42.875 44.328125 
Q 39.84375 48.1875 33.796875 48.1875 
Q 26.515625 48.1875 22.3125 43.546875 
Q 18.109375 38.921875 18.109375 30.90625 
L 18.109375 0 
L 9.078125 0 
L 9.078125 54.6875 
L 18.109375 54.6875 
L 18.109375 46.1875 
Q 21.34375 51.125 25.703125 53.5625 
Q 30.078125 56 35.796875 56 
Q 45.21875 56 50.046875 50.171875 
Q 54.890625 44.34375 54.890625 33.015625 
z
" id="DejaVuSans-110"/>
       <path d="M 8.015625 75.875 
L 15.828125 75.875 
Q 23.140625 64.359375 26.78125 53.3125 
Q 30.421875 42.28125 30.421875 31.390625 
Q 30.421875 20.453125 26.78125 9.375 
Q 23.140625 -1.703125 15.828125 -13.1875 
L 8.015625 -13.1875 
Q 14.5 -2 17.703125 9.0625 
Q 20.90625 20.125 20.90625 31.390625 
Q 20.90625 42.671875 17.703125 53.65625 
Q 14.5 64.65625 8.015625 75.875 
z
" id="DejaVuSans-41"/>
      </defs>
      <use xlink:href="#DejaVuSans-108"/>
      <use x="27.783203" xlink:href="#DejaVuSans-111"/>
      <use x="88.964844" xlink:href="#DejaVuSans-103"/>
      <use x="152.441406" xlink:href="#DejaVuSans-49"/>
      <use x="216.064453" xlink:href="#DejaVuSans-48"/>
      <use x="279.6875" xlink:href="#DejaVuSans-40"/>
      <use x="318.701172" xlink:href="#DejaVuSans-35"/>
      <use x="402.490234" xlink:href="#DejaVuSans-32"/>
      <use x="434.277344" xlink:href="#DejaVuSans-102"/>
      <use x="463.982422" xlink:href="#DejaVuSans-45"/>
      <use x="500.066406" xlink:href="#DejaVuSans-101"/>
      <use x="561.589844" xlink:href="#DejaVuSans-118"/>
      <use x="620.769531" xlink:href="#DejaVuSans-97"/>
      <use x="682.048828" xlink:href="#DejaVuSans-108"/>
      <use x="709.832031" xlink:href="#DejaVuSans-115"/>
      <use x="761.931641" xlink:href="#DejaVuSans-32"/>
      <use x="793.71875" xlink:href="#DejaVuSans-47"/>
      <use x="827.410156" xlink:href="#DejaVuSans-32"/>
      <use x="859.197266" xlink:href="#DejaVuSans-100"/>
      <use x="922.673828" xlink:href="#DejaVuSans-105"/>
      <use x="950.457031" xlink:href="#DejaVuSans-109"/>
      <use x="1047.869141" xlink:href="#DejaVuSans-101"/>
      <use x="1109.392578" xlink:href="#DejaVuSans-110"/>
      <use x="1172.771484" xlink:href="#DejaVuSans-115"/>
      <use x="1224.871094" xlink:href="#DejaVuSans-105"/>
      <use x="1252.654297" xlink:href="#DejaVuSans-111"/>
      <use x="1313.835938" xlink:href="#DejaVuSans-110"/>
      <use x="1377.214844" xlink:href="#DejaVuSans-41"/>
     </g>
    </g>
   </g>
   <g id="matplotlib.axis_2">
    <g id="ytick_1">
     <g id="line2d_9">
      <path clip-path="url(#p6a852fcfdb)" d="M 57.6 298.944 
L 338.688 298.944 
" style="fill:none;stroke:#b0b0b0;stroke-linecap:square;stroke-width:0.8;"/>
     </g>
     <g id="line2d_10">
      <defs>
       <path d="M 0 0 
L -3.5 0 
" id="m516e5a21e8" style="stroke:#000000;stroke-width:0.8;"/>
      </defs>
      <g>
       <use style="stroke:#000000;stroke-width:0.8;" x="57.6" xlink:href="#m516e5a21e8" y="298.944"/>
      </g>
     </g>
     <g id="text_3">
      <!-- 0.0 -->
      <g transform="translate(25.155 305.02275)scale(0.16 -0.16)">
       <defs>
        <path d="M 10.6875 12.40625 
L 21 12.40625 
L 21 0 
L 10.6875 0 
z
" id="DejaVuSans-46"/>
       </defs>
       <use xlink:href="#DejaVuSans-48"/>
       <use x="63.623047" xlink:href="#DejaVuSans-46"/>
       <use x="95.410156" xlink:href="#DejaVuSans-48"/>
      </g>
     </g>
    </g>
    <g id="ytick_2">
     <g id="line2d_11">
      <path clip-path="url(#p6a852fcfdb)" d="M 57.6 240.431525 
L 338.688 240.431525 
" style="fill:none;stroke:#b0b0b0;stroke-linecap:square;stroke-width:0.8;"/>
     </g>
     <g id="line2d_12">
      <g>
       <use style="stroke:#000000;stroke-width:0.8;" x="57.6" xlink:href="#m516e5a21e8" y="240.431525"/>
      </g>
     </g>
     <g id="text_4">
      <!-- 0.2 -->
      <g transform="translate(25.155 246.510275)scale(0.16 -0.16)">
       <defs>
        <path d="M 19.1875 8.296875 
L 53.609375 8.296875 
L 53.609375 0 
L 7.328125 0 
L 7.328125 8.296875 
Q 12.9375 14.109375 22.625 23.890625 
Q 32.328125 33.6875 34.8125 36.53125 
Q 39.546875 41.84375 41.421875 45.53125 
Q 43.3125 49.21875 43.3125 52.78125 
Q 43.3125 58.59375 39.234375 62.25 
Q 35.15625 65.921875 28.609375 65.921875 
Q 23.96875 65.921875 18.8125 64.3125 
Q 13.671875 62.703125 7.8125 59.421875 
L 7.8125 69.390625 
Q 13.765625 71.78125 18.9375 73 
Q 24.125 74.21875 28.421875 74.21875 
Q 39.75 74.21875 46.484375 68.546875 
Q 53.21875 62.890625 53.21875 53.421875 
Q 53.21875 48.921875 51.53125 44.890625 
Q 49.859375 40.875 45.40625 35.40625 
Q 44.1875 33.984375 37.640625 27.21875 
Q 31.109375 20.453125 19.1875 8.296875 
z
" id="DejaVuSans-50"/>
       </defs>
       <use xlink:href="#DejaVuSans-48"/>
       <use x="63.623047" xlink:href="#DejaVuSans-46"/>
       <use x="95.410156" xlink:href="#DejaVuSans-50"/>
      </g>
     </g>
    </g>
    <g id="ytick_3">
     <g id="line2d_13">
      <path clip-path="url(#p6a852fcfdb)" d="M 57.6 181.91905 
L 338.688 181.91905 
" style="fill:none;stroke:#b0b0b0;stroke-linecap:square;stroke-width:0.8;"/>
     </g>
     <g id="line2d_14">
      <g>
       <use style="stroke:#000000;stroke-width:0.8;" x="57.6" xlink:href="#m516e5a21e8" y="181.91905"/>
      </g>
     </g>
     <g id="text_5">
      <!-- 0.4 -->
      <g transform="translate(25.155 187.9978)scale(0.16 -0.16)">
       <defs>
        <path d="M 37.796875 64.3125 
L 12.890625 25.390625 
L 37.796875 25.390625 
z
M 35.203125 72.90625 
L 47.609375 72.90625 
L 47.609375 25.390625 
L 58.015625 25.390625 
L 58.015625 17.1875 
L 47.609375 17.1875 
L 47.609375 0 
L 37.796875 0 
L 37.796875 17.1875 
L 4.890625 17.1875 
L 4.890625 26.703125 
z
" id="DejaVuSans-52"/>
       </defs>
       <use xlink:href="#DejaVuSans-48"/>
       <use x="63.623047" xlink:href="#DejaVuSans-46"/>
       <use x="95.410156" xlink:href="#DejaVuSans-52"/>
      </g>
     </g>
    </g>
    <g id="ytick_4">
     <g id="line2d_15">
      <path clip-path="url(#p6a852fcfdb)" d="M 57.6 123.406574 
L 338.688 123.406574 
" style="fill:none;stroke:#b0b0b0;stroke-linecap:square;stroke-width:0.8;"/>
     </g>
     <g id="line2d_16">
      <g>
       <use style="stroke:#000000;stroke-width:0.8;" x="57.6" xlink:href="#m516e5a21e8" y="123.406574"/>
      </g>
     </g>
     <g id="text_6">
      <!-- 0.6 -->
      <g transform="translate(25.155 129.485324)scale(0.16 -0.16)">
       <defs>
        <path d="M 33.015625 40.375 
Q 26.375 40.375 22.484375 35.828125 
Q 18.609375 31.296875 18.609375 23.390625 
Q 18.609375 15.53125 22.484375 10.953125 
Q 26.375 6.390625 33.015625 6.390625 
Q 39.65625 6.390625 43.53125 10.953125 
Q 47.40625 15.53125 47.40625 23.390625 
Q 47.40625 31.296875 43.53125 35.828125 
Q 39.65625 40.375 33.015625 40.375 
z
M 52.59375 71.296875 
L 52.59375 62.3125 
Q 48.875 64.0625 45.09375 64.984375 
Q 41.3125 65.921875 37.59375 65.921875 
Q 27.828125 65.921875 22.671875 59.328125 
Q 17.53125 52.734375 16.796875 39.40625 
Q 19.671875 43.65625 24.015625 45.921875 
Q 28.375 48.1875 33.59375 48.1875 
Q 44.578125 48.1875 50.953125 41.515625 
Q 57.328125 34.859375 57.328125 23.390625 
Q 57.328125 12.15625 50.6875 5.359375 
Q 44.046875 -1.421875 33.015625 -1.421875 
Q 20.359375 -1.421875 13.671875 8.265625 
Q 6.984375 17.96875 6.984375 36.375 
Q 6.984375 53.65625 15.1875 63.9375 
Q 23.390625 74.21875 37.203125 74.21875 
Q 40.921875 74.21875 44.703125 73.484375 
Q 48.484375 72.75 52.59375 71.296875 
z
" id="DejaVuSans-54"/>
       </defs>
       <use xlink:href="#DejaVuSans-48"/>
       <use x="63.623047" xlink:href="#DejaVuSans-46"/>
       <use x="95.410156" xlink:href="#DejaVuSans-54"/>
      </g>
     </g>
    </g>
    <g id="ytick_5">
     <g id="line2d_17">
      <path clip-path="url(#p6a852fcfdb)" d="M 57.6 64.894099 
L 338.688 64.894099 
" style="fill:none;stroke:#b0b0b0;stroke-linecap:square;stroke-width:0.8;"/>
     </g>
     <g id="line2d_18">
      <g>
       <use style="stroke:#000000;stroke-width:0.8;" x="57.6" xlink:href="#m516e5a21e8" y="64.894099"/>
      </g>
     </g>
     <g id="text_7">
      <!-- 0.8 -->
      <g transform="translate(25.155 70.972849)scale(0.16 -0.16)">
       <defs>
        <path d="M 31.78125 34.625 
Q 24.75 34.625 20.71875 30.859375 
Q 16.703125 27.09375 16.703125 20.515625 
Q 16.703125 13.921875 20.71875 10.15625 
Q 24.75 6.390625 31.78125 6.390625 
Q 38.8125 6.390625 42.859375 10.171875 
Q 46.921875 13.96875 46.921875 20.515625 
Q 46.921875 27.09375 42.890625 30.859375 
Q 38.875 34.625 31.78125 34.625 
z
M 21.921875 38.8125 
Q 15.578125 40.375 12.03125 44.71875 
Q 8.5 49.078125 8.5 55.328125 
Q 8.5 64.0625 14.71875 69.140625 
Q 20.953125 74.21875 31.78125 74.21875 
Q 42.671875 74.21875 48.875 69.140625 
Q 55.078125 64.0625 55.078125 55.328125 
Q 55.078125 49.078125 51.53125 44.71875 
Q 48 40.375 41.703125 38.8125 
Q 48.828125 37.15625 52.796875 32.3125 
Q 56.78125 27.484375 56.78125 20.515625 
Q 56.78125 9.90625 50.3125 4.234375 
Q 43.84375 -1.421875 31.78125 -1.421875 
Q 19.734375 -1.421875 13.25 4.234375 
Q 6.78125 9.90625 6.78125 20.515625 
Q 6.78125 27.484375 10.78125 32.3125 
Q 14.796875 37.15625 21.921875 38.8125 
z
M 18.3125 54.390625 
Q 18.3125 48.734375 21.84375 45.5625 
Q 25.390625 42.390625 31.78125 42.390625 
Q 38.140625 42.390625 41.71875 45.5625 
Q 45.3125 48.734375 45.3125 54.390625 
Q 45.3125 60.0625 41.71875 63.234375 
Q 38.140625 66.40625 31.78125 66.40625 
Q 25.390625 66.40625 21.84375 63.234375 
Q 18.3125 60.0625 18.3125 54.390625 
z
" id="DejaVuSans-56"/>
       </defs>
       <use xlink:href="#DejaVuSans-48"/>
       <use x="63.623047" xlink:href="#DejaVuSans-46"/>
       <use x="95.410156" xlink:href="#DejaVuSans-56"/>
      </g>
     </g>
    </g>
    <g id="ytick_6">
     <g id="line2d_19">
      <path clip-path="url(#p6a852fcfdb)" d="M 57.6 6.381624 
L 338.688 6.381624 
" style="fill:none;stroke:#b0b0b0;stroke-linecap:square;stroke-width:0.8;"/>
     </g>
     <g id="line2d_20">
      <g>
       <use style="stroke:#000000;stroke-width:0.8;" x="57.6" xlink:href="#m516e5a21e8" y="6.381624"/>
      </g>
     </g>
     <g id="text_8">
      <!-- 1.0 -->
      <g transform="translate(25.155 12.460374)scale(0.16 -0.16)">
       <use xlink:href="#DejaVuSans-49"/>
       <use x="63.623047" xlink:href="#DejaVuSans-46"/>
       <use x="95.410156" xlink:href="#DejaVuSans-48"/>
      </g>
     </g>
    </g>
    <g id="text_9">
     <!-- Fraction of function,target pairs -->
     <g transform="translate(17.619531 285.585)rotate(-90)scale(0.17 -0.17)">
      <defs>
       <path d="M 9.8125 72.90625 
L 51.703125 72.90625 
L 51.703125 64.59375 
L 19.671875 64.59375 
L 19.671875 43.109375 
L 48.578125 43.109375 
L 48.578125 34.8125 
L 19.671875 34.8125 
L 19.671875 0 
L 9.8125 0 
z
" id="DejaVuSans-70"/>
       <path d="M 41.109375 46.296875 
Q 39.59375 47.171875 37.8125 47.578125 
Q 36.03125 48 33.890625 48 
Q 26.265625 48 22.1875 43.046875 
Q 18.109375 38.09375 18.109375 28.8125 
L 18.109375 0 
L 9.078125 0 
L 9.078125 54.6875 
L 18.109375 54.6875 
L 18.109375 46.1875 
Q 20.953125 51.171875 25.484375 53.578125 
Q 30.03125 56 36.53125 56 
Q 37.453125 56 38.578125 55.875 
Q 39.703125 55.765625 41.0625 55.515625 
z
" id="DejaVuSans-114"/>
       <path d="M 48.78125 52.59375 
L 48.78125 44.1875 
Q 44.96875 46.296875 41.140625 47.34375 
Q 37.3125 48.390625 33.40625 48.390625 
Q 24.65625 48.390625 19.8125 42.84375 
Q 14.984375 37.3125 14.984375 27.296875 
Q 14.984375 17.28125 19.8125 11.734375 
Q 24.65625 6.203125 33.40625 6.203125 
Q 37.3125 6.203125 41.140625 7.25 
Q 44.96875 8.296875 48.78125 10.40625 
L 48.78125 2.09375 
Q 45.015625 0.34375 40.984375 -0.53125 
Q 36.96875 -1.421875 32.421875 -1.421875 
Q 20.0625 -1.421875 12.78125 6.34375 
Q 5.515625 14.109375 5.515625 27.296875 
Q 5.515625 40.671875 12.859375 48.328125 
Q 20.21875 56 33.015625 56 
Q 37.15625 56 41.109375 55.140625 
Q 45.0625 54.296875 48.78125 52.59375 
z
" id="DejaVuSans-99"/>
       <path d="M 18.3125 70.21875 
L 18.3125 54.6875 
L 36.8125 54.6875 
L 36.8125 47.703125 
L 18.3125 47.703125 
L 18.3125 18.015625 
Q 18.3125 11.328125 20.140625 9.421875 
Q 21.96875 7.515625 27.59375 7.515625 
L 36.8125 7.515625 
L 36.8125 0 
L 27.59375 0 
Q 17.1875 0 13.234375 3.875 
Q 9.28125 7.765625 9.28125 18.015625 
L 9.28125 47.703125 
L 2.6875 47.703125 
L 2.6875 54.6875 
L 9.28125 54.6875 
L 9.28125 70.21875 
z
" id="DejaVuSans-116"/>
       <path d="M 8.5 21.578125 
L 8.5 54.6875 
L 17.484375 54.6875 
L 17.484375 21.921875 
Q 17.484375 14.15625 20.5 10.265625 
Q 23.53125 6.390625 29.59375 6.390625 
Q 36.859375 6.390625 41.078125 11.03125 
Q 45.3125 15.671875 45.3125 23.6875 
L 45.3125 54.6875 
L 54.296875 54.6875 
L 54.296875 0 
L 45.3125 0 
L 45.3125 8.40625 
Q 42.046875 3.421875 37.71875 1 
Q 33.40625 -1.421875 27.6875 -1.421875 
Q 18.265625 -1.421875 13.375 4.4375 
Q 8.5 10.296875 8.5 21.578125 
z
M 31.109375 56 
z
" id="DejaVuSans-117"/>
       <path d="M 11.71875 12.40625 
L 22.015625 12.40625 
L 22.015625 4 
L 14.015625 -11.625 
L 7.71875 -11.625 
L 11.71875 4 
z
" id="DejaVuSans-44"/>
       <path d="M 18.109375 8.203125 
L 18.109375 -20.796875 
L 9.078125 -20.796875 
L 9.078125 54.6875 
L 18.109375 54.6875 
L 18.109375 46.390625 
Q 20.953125 51.265625 25.265625 53.625 
Q 29.59375 56 35.59375 56 
Q 45.5625 56 51.78125 48.09375 
Q 58.015625 40.1875 58.015625 27.296875 
Q 58.015625 14.40625 51.78125 6.484375 
Q 45.5625 -1.421875 35.59375 -1.421875 
Q 29.59375 -1.421875 25.265625 0.953125 
Q 20.953125 3.328125 18.109375 8.203125 
z
M 48.6875 27.296875 
Q 48.6875 37.203125 44.609375 42.84375 
Q 40.53125 48.484375 33.40625 48.484375 
Q 26.265625 48.484375 22.1875 42.84375 
Q 18.109375 37.203125 18.109375 27.296875 
Q 18.109375 17.390625 22.1875 11.75 
Q 26.265625 6.109375 33.40625 6.109375 
Q 40.53125 6.109375 44.609375 11.75 
Q 48.6875 17.390625 48.6875 27.296875 
z
" id="DejaVuSans-112"/>
      </defs>
      <use xlink:href="#DejaVuSans-70"/>
      <use x="50.269531" xlink:href="#DejaVuSans-114"/>
      <use x="91.382812" xlink:href="#DejaVuSans-97"/>
      <use x="152.662109" xlink:href="#DejaVuSans-99"/>
      <use x="207.642578" xlink:href="#DejaVuSans-116"/>
      <use x="246.851562" xlink:href="#DejaVuSans-105"/>
      <use x="274.634766" xlink:href="#DejaVuSans-111"/>
      <use x="335.816406" xlink:href="#DejaVuSans-110"/>
      <use x="399.195312" xlink:href="#DejaVuSans-32"/>
      <use x="430.982422" xlink:href="#DejaVuSans-111"/>
      <use x="492.164062" xlink:href="#DejaVuSans-102"/>
      <use x="527.369141" xlink:href="#DejaVuSans-32"/>
      <use x="559.15625" xlink:href="#DejaVuSans-102"/>
      <use x="594.361328" xlink:href="#DejaVuSans-117"/>
      <use x="657.740234" xlink:href="#DejaVuSans-110"/>
      <use x="721.119141" xlink:href="#DejaVuSans-99"/>
      <use x="776.099609" xlink:href="#DejaVuSans-116"/>
      <use x="815.308594" xlink:href="#DejaVuSans-105"/>
      <use x="843.091797" xlink:href="#DejaVuSans-111"/>
      <use x="904.273438" xlink:href="#DejaVuSans-110"/>
      <use x="967.652344" xlink:href="#DejaVuSans-44"/>
      <use x="999.439453" xlink:href="#DejaVuSans-116"/>
      <use x="1038.648438" xlink:href="#DejaVuSans-97"/>
      <use x="1099.927734" xlink:href="#DejaVuSans-114"/>
      <use x="1139.291016" xlink:href="#DejaVuSans-103"/>
      <use x="1202.767578" xlink:href="#DejaVuSans-101"/>
      <use x="1264.291016" xlink:href="#DejaVuSans-116"/>
      <use x="1303.5" xlink:href="#DejaVuSans-32"/>
      <use x="1335.287109" xlink:href="#DejaVuSans-112"/>
      <use x="1398.763672" xlink:href="#DejaVuSans-97"/>
      <use x="1460.042969" xlink:href="#DejaVuSans-105"/>
      <use x="1487.826172" xlink:href="#DejaVuSans-114"/>
      <use x="1528.939453" xlink:href="#DejaVuSans-115"/>
     </g>
    </g>
   </g>
   <g id="line2d_21">
    <defs>
     <path d="M 0 1.5 
C 0.397805 1.5 0.77937 1.341951 1.06066 1.06066 
C 1.341951 0.77937 1.5 0.397805 1.5 0 
C 1.5 -0.397805 1.341951 -0.77937 1.06066 -1.06066 
C 0.77937 -1.341951 0.397805 -1.5 0 -1.5 
C -0.397805 -1.5 -0.77937 -1.341951 -1.06066 -1.06066 
C -1.341951 -0.77937 -1.5 -0.397805 -1.5 0 
C -1.5 0.397805 -1.341951 0.77937 -1.06066 1.06066 
C -0.77937 1.341951 -0.397805 1.5 0 1.5 
z
" id="m31fa19913f" style="stroke:#f5deb3;"/>
    </defs>
    <g>
     <use style="fill:#f5deb3;stroke:#f5deb3;" x="326.861597" xlink:href="#m31fa19913f" y="6.381624"/>
     <use style="fill:#f5deb3;stroke:#f5deb3;" x="326.861597" xlink:href="#m31fa19913f" y="6.381624"/>
    </g>
   </g>
   <g id="line2d_22">
    <defs>
     <path d="M 0 1.5 
C 0.397805 1.5 0.77937 1.341951 1.06066 1.06066 
C 1.341951 0.77937 1.5 0.397805 1.5 0 
C 1.5 -0.397805 1.341951 -0.77937 1.06066 -1.06066 
C 0.77937 -1.341951 0.397805 -1.5 0 -1.5 
C -0.397805 -1.5 -0.77937 -1.341951 -1.06066 -1.06066 
C -1.341951 -0.77937 -1.5 -0.397805 -1.5 0 
C -1.5 0.397805 -1.341951 0.77937 -1.06066 1.06066 
C -0.77937 1.341951 -0.397805 1.5 0 1.5 
z
" id="m6e21e7e5b3" style="stroke:#6495ed;"/>
    </defs>
    <g>
     <use style="fill:#6495ed;stroke:#6495ed;" x="404.41071" xlink:href="#m6e21e7e5b3" y="16.469982"/>
     <use style="fill:#6495ed;stroke:#6495ed;" x="404.41071" xlink:href="#m6e21e7e5b3" y="16.469982"/>
    </g>
   </g>
   <g id="line2d_23">
    <path d="M -1 283.811463 
L 8.192457 283.811463 
L 8.192457 281.793792 
L 28.123014 281.793792 
L 28.123014 280.784956 
L 57.6 280.784956 
L 57.6 279.77612 
L 82.401795 279.77612 
L 82.401795 278.767284 
L 85.407356 278.767284 
L 85.407356 275.740777 
L 88.307438 275.740777 
L 88.307438 274.731941 
L 91.109192 274.731941 
L 91.109192 273.723105 
L 96.442903 273.723105 
L 96.442903 272.71427 
L 106.176945 272.71427 
L 106.176945 271.705434 
L 108.441301 271.705434 
L 108.441301 270.696598 
L 110.645268 270.696598 
L 110.645268 267.670091 
L 112.791981 267.670091 
L 112.791981 266.661255 
L 116.925034 266.661255 
L 116.925034 265.652419 
L 118.916549 265.652419 
L 118.916549 264.643583 
L 120.861199 264.643583 
L 120.861199 263.634748 
L 136.567132 263.634748 
L 136.567132 262.625912 
L 138.141347 262.625912 
L 138.141347 258.590569 
L 139.686137 258.590569 
L 139.686137 257.581733 
L 147.00453 257.581733 
L 147.00453 256.572897 
L 148.393534 256.572897 
L 148.393534 254.555226 
L 149.759579 254.555226 
L 149.759579 252.537554 
L 151.103411 252.537554 
L 151.103411 251.528718 
L 152.425741 251.528718 
L 152.425741 248.502211 
L 153.727245 248.502211 
L 153.727245 245.475704 
L 155.008571 245.475704 
L 155.008571 238.413853 
L 156.270333 238.413853 
L 156.270333 237.405017 
L 157.513121 237.405017 
L 157.513121 235.387346 
L 158.737497 235.387346 
L 158.737497 233.369674 
L 159.943997 233.369674 
L 159.943997 232.360839 
L 161.133138 232.360839 
L 161.133138 231.352003 
L 163.461287 231.352003 
L 163.461287 229.334331 
L 164.60122 229.334331 
L 164.60122 228.325495 
L 167.92961 228.325495 
L 167.92961 227.31666 
L 175.211132 227.31666 
L 175.211132 226.307824 
L 178.145541 226.307824 
L 178.145541 225.298988 
L 179.100972 225.298988 
L 179.100972 224.290152 
L 180.979322 224.290152 
L 180.979322 222.272481 
L 184.612603 222.272481 
L 184.612603 221.263645 
L 185.496503 221.263645 
L 185.496503 219.245973 
L 186.371049 219.245973 
L 186.371049 218.237138 
L 188.940494 218.237138 
L 188.940494 216.219466 
L 191.432457 216.219466 
L 191.432457 214.201794 
L 193.052976 214.201794 
L 193.052976 213.192959 
L 194.64233 213.192959 
L 194.64233 211.175287 
L 197.732179 211.175287 
L 197.732179 210.166451 
L 200.710658 210.166451 
L 200.710658 209.157616 
L 202.876122 209.157616 
L 202.876122 208.14878 
L 203.585516 208.14878 
L 203.585516 207.139944 
L 204.288872 207.139944 
L 204.288872 206.131108 
L 207.043921 206.131108 
L 207.043921 205.122272 
L 207.718569 205.122272 
L 207.718569 204.113437 
L 210.363397 204.113437 
L 210.363397 202.095765 
L 211.011587 202.095765 
L 211.011587 199.069258 
L 211.654733 199.069258 
L 211.654733 198.060422 
L 213.554675 198.060422 
L 213.554675 195.033915 
L 214.178405 195.033915 
L 214.178405 194.025079 
L 214.797463 194.025079 
L 214.797463 193.016243 
L 215.411918 193.016243 
L 215.411918 190.998572 
L 216.627291 190.998572 
L 216.627291 189.989736 
L 219.005695 189.989736 
L 219.005695 186.963228 
L 219.589753 186.963228 
L 219.589753 185.954393 
L 220.169712 185.954393 
L 220.169712 184.945557 
L 221.317561 184.945557 
L 221.317561 183.936721 
L 222.449686 183.936721 
L 222.449686 180.910214 
L 223.009986 180.910214 
L 223.009986 177.883706 
L 225.755881 177.883706 
L 225.755881 176.874871 
L 226.829192 176.874871 
L 226.829192 175.866035 
L 227.360666 175.866035 
L 227.360666 174.857199 
L 228.413468 174.857199 
L 228.413468 173.848363 
L 230.98825 173.848363 
L 230.98825 172.839527 
L 231.996115 172.839527 
L 231.996115 171.830692 
L 232.495475 171.830692 
L 232.495475 170.821856 
L 232.991835 170.821856 
L 232.991835 167.795349 
L 233.485233 167.795349 
L 233.485233 165.777677 
L 234.947994 165.777677 
L 234.947994 164.768841 
L 235.429884 164.768841 
L 235.429884 163.760005 
L 235.90898 163.760005 
L 235.90898 162.75117 
L 237.798064 162.75117 
L 237.798064 161.742334 
L 239.187069 161.742334 
L 239.187069 160.733498 
L 240.553113 160.733498 
L 240.553113 159.724662 
L 241.00349 159.724662 
L 241.00349 157.706991 
L 242.340077 157.706991 
L 242.340077 156.698155 
L 246.224837 156.698155 
L 246.224837 155.689319 
L 246.645417 155.689319 
L 246.645417 154.680483 
L 247.063867 154.680483 
L 247.063867 153.671648 
L 247.894466 153.671648 
L 247.894466 152.662812 
L 248.716799 152.662812 
L 248.716799 151.653976 
L 249.124918 151.653976 
L 249.124918 149.636305 
L 249.531031 149.636305 
L 249.531031 148.627469 
L 249.935158 148.627469 
L 249.935158 147.618633 
L 251.53219 147.618633 
L 251.53219 146.609797 
L 251.926672 146.609797 
L 251.926672 145.600961 
L 253.098945 145.600961 
L 253.098945 144.592126 
L 254.254821 144.592126 
L 254.254821 142.574454 
L 254.636549 142.574454 
L 254.636549 141.565618 
L 255.394754 141.565618 
L 255.394754 139.547947 
L 256.146067 139.547947 
L 256.146067 138.539111 
L 257.628508 138.539111 
L 257.628508 135.512604 
L 257.995 135.512604 
L 257.995 134.503768 
L 258.359874 134.503768 
L 258.359874 133.494932 
L 259.084824 133.494932 
L 259.084824 131.47726 
L 260.515922 131.47726 
L 260.515922 130.468425 
L 262.61715 130.468425 
L 262.61715 129.459589 
L 263.305853 129.459589 
L 263.305853 128.450753 
L 263.648064 128.450753 
L 263.648064 127.441917 
L 264.666276 127.441917 
L 264.666276 126.433082 
L 265.33818 126.433082 
L 265.33818 125.424246 
L 266.004667 125.424246 
L 266.004667 124.41541 
L 266.665821 124.41541 
L 266.665821 123.406574 
L 267.321728 123.406574 
L 267.321728 122.397738 
L 267.647739 122.397738 
L 267.647739 120.380067 
L 268.618128 120.380067 
L 268.618128 118.362395 
L 268.939076 118.362395 
L 268.939076 117.35356 
L 270.525378 117.35356 
L 270.525378 115.335888 
L 270.839018 115.335888 
L 270.839018 114.327052 
L 271.151471 114.327052 
L 271.151471 113.318216 
L 272.696261 113.318216 
L 272.696261 111.300545 
L 273.306181 111.300545 
L 273.306181 108.274038 
L 273.609461 108.274038 
L 273.609461 107.265202 
L 273.911633 107.265202 
L 273.911633 106.256366 
L 274.212704 106.256366 
L 274.212704 105.24753 
L 274.512682 105.24753 
L 274.512682 104.238694 
L 274.811575 104.238694 
L 274.811575 103.229859 
L 275.701822 103.229859 
L 275.701822 102.221023 
L 276.582582 102.221023 
L 276.582582 101.212187 
L 276.874095 101.212187 
L 276.874095 100.203351 
L 277.164583 100.203351 
L 277.164583 99.194516 
L 277.742514 99.194516 
L 277.742514 98.18568 
L 278.886392 98.18568 
L 278.886392 96.168008 
L 279.169905 96.168008 
L 279.169905 92.132665 
L 279.734029 92.132665 
L 279.734029 91.123829 
L 280.573059 91.123829 
L 280.573059 87.088486 
L 280.850854 87.088486 
L 280.850854 86.07965 
L 281.127718 86.07965 
L 281.127718 85.070815 
L 281.678679 85.070815 
L 281.678679 84.061979 
L 282.225991 84.061979 
L 282.225991 83.053143 
L 282.769703 83.053143 
L 282.769703 82.044307 
L 283.578621 82.044307 
L 283.578621 81.035471 
L 283.846511 81.035471 
L 283.846511 80.026636 
L 285.958928 80.026636 
L 285.958928 79.0178 
L 286.737369 79.0178 
L 286.737369 78.008964 
L 287.252285 78.008964 
L 287.252285 77.000128 
L 288.525713 77.000128 
L 288.525713 75.991293 
L 289.779817 75.991293 
L 289.779817 74.982457 
L 290.769575 74.982457 
L 290.769575 73.973621 
L 291.260044 73.973621 
L 291.260044 72.964785 
L 291.504192 72.964785 
L 291.504192 71.955949 
L 292.954121 71.955949 
L 292.954121 69.938278 
L 293.193322 69.938278 
L 293.193322 68.929442 
L 294.143261 68.929442 
L 294.143261 66.911771 
L 294.37905 66.911771 
L 294.37905 65.902935 
L 295.082406 65.902935 
L 295.082406 63.885263 
L 296.241525 63.885263 
L 296.241525 62.876427 
L 297.837456 62.876427 
L 297.837456 61.867592 
L 298.062951 61.867592 
L 298.062951 60.858756 
L 298.735767 60.858756 
L 298.735767 59.84992 
L 300.065187 59.84992 
L 300.065187 58.841084 
L 302.661542 58.841084 
L 302.661542 57.832249 
L 303.509179 57.832249 
L 303.509179 56.823413 
L 304.34821 56.823413 
L 304.34821 55.814577 
L 304.764552 55.814577 
L 304.764552 54.805741 
L 305.590998 54.805741 
L 305.590998 53.796905 
L 306.205453 53.796905 
L 306.205453 52.78807 
L 306.40926 52.78807 
L 306.40926 51.779234 
L 307.2195 51.779234 
L 307.2195 50.770398 
L 309.211014 50.770398 
L 309.211014 48.752727 
L 309.994374 48.752727 
L 309.994374 47.743891 
L 313.243221 47.743891 
L 313.243221 46.735055 
L 313.617175 46.735055 
L 313.617175 45.726219 
L 315.096299 45.726219 
L 315.096299 44.717383 
L 316.729271 44.717383 
L 316.729271 43.708548 
L 319.728416 43.708548 
L 319.728416 42.699712 
L 320.761477 42.699712 
L 320.761477 41.690876 
L 322.789649 41.690876 
L 322.789649 40.68204 
L 323.122891 40.68204 
L 323.122891 39.673205 
L 324.442581 39.673205 
L 324.442581 38.664369 
L 327.652453 38.664369 
L 327.652453 37.655533 
L 329.057198 37.655533 
L 329.057198 36.646697 
L 331.195975 36.646697 
L 331.195975 35.637861 
L 332.69048 35.637861 
L 332.69048 34.629026 
L 333.427718 34.629026 
L 333.427718 33.62019 
L 337.018371 33.62019 
L 337.018371 32.611354 
L 338.688 32.611354 
L 338.688 32.611354 
" style="fill:none;stroke:#6495ed;stroke-linecap:square;stroke-width:1.5;"/>
   </g>
   <g id="line2d_24">
    <defs>
     <path d="M -0 6 
L 6 -6 
L -6 -6 
z
" id="mb7ee2d7f67" style="stroke:#6495ed;stroke-linejoin:miter;stroke-width:1.5;"/>
    </defs>
    <g>
     <use style="fill-opacity:0;stroke:#6495ed;stroke-linejoin:miter;stroke-width:1.5;" x="136.567132" xlink:href="#mb7ee2d7f67" y="263.634748"/>
     <use style="fill-opacity:0;stroke:#6495ed;stroke-linejoin:miter;stroke-width:1.5;" x="180.979322" xlink:href="#mb7ee2d7f67" y="222.272481"/>
     <use style="fill-opacity:0;stroke:#6495ed;stroke-linejoin:miter;stroke-width:1.5;" x="228.413468" xlink:href="#mb7ee2d7f67" y="173.848363"/>
     <use style="fill-opacity:0;stroke:#6495ed;stroke-linejoin:miter;stroke-width:1.5;" x="274.512682" xlink:href="#mb7ee2d7f67" y="104.238694"/>
     <use style="fill-opacity:0;stroke:#6495ed;stroke-linejoin:miter;stroke-width:1.5;" x="322.789649" xlink:href="#mb7ee2d7f67" y="41.690876"/>
     <use style="fill-opacity:0;stroke:#6495ed;stroke-linejoin:miter;stroke-width:1.5;" x="337.018371" xlink:href="#mb7ee2d7f67" y="32.611354"/>
     <use style="fill-opacity:0;stroke:#6495ed;stroke-linejoin:miter;stroke-width:1.5;" x="338.688" xlink:href="#mb7ee2d7f67" y="32.611354"/>
    </g>
   </g>
   <g id="line2d_25">
    <path style="fill:none;stroke:#6495ed;stroke-linecap:square;stroke-width:1.5;"/>
    <g/>
   </g>
   <g id="line2d_26">
    <defs>
     <path d="M 0 1.5 
C 0.397805 1.5 0.77937 1.341951 1.06066 1.06066 
C 1.341951 0.77937 1.5 0.397805 1.5 0 
C 1.5 -0.397805 1.341951 -0.77937 1.06066 -1.06066 
C 0.77937 -1.341951 0.397805 -1.5 0 -1.5 
C -0.397805 -1.5 -0.77937 -1.341951 -1.06066 -1.06066 
C -1.341951 -0.77937 -1.5 -0.397805 -1.5 0 
C -1.5 0.397805 -1.341951 0.77937 -1.06066 1.06066 
C -0.77937 1.341951 -0.397805 1.5 0 1.5 
z
" id="mbd5b5820ab" style="stroke:#ff0000;"/>
    </defs>
    <g>
     <use style="fill:#ff0000;stroke:#ff0000;" x="402.587379" xlink:href="#mbd5b5820ab" y="37.655533"/>
     <use style="fill:#ff0000;stroke:#ff0000;" x="402.587379" xlink:href="#mbd5b5820ab" y="37.655533"/>
    </g>
   </g>
   <g id="line2d_27">
    <path d="M -1 193.016243 
L 0.315658 193.016243 
L 0.315658 189.989736 
L 8.192457 189.989736 
L 8.192457 188.9809 
L 15.383411 188.9809 
L 15.383411 185.954393 
L 28.123014 185.954393 
L 28.123014 181.91905 
L 48.892603 181.91905 
L 48.892603 179.901378 
L 53.360925 179.901378 
L 53.360925 178.892542 
L 65.476799 178.892542 
L 65.476799 176.874871 
L 72.667753 176.874871 
L 72.667753 174.857199 
L 91.109192 174.857199 
L 91.109192 173.848363 
L 96.442903 173.848363 
L 96.442903 171.830692 
L 98.985991 171.830692 
L 98.985991 170.821856 
L 110.645268 170.821856 
L 110.645268 169.81302 
L 118.916549 169.81302 
L 118.916549 168.804184 
L 126.434805 168.804184 
L 126.434805 166.786513 
L 129.952095 166.786513 
L 129.952095 163.760005 
L 133.325781 163.760005 
L 133.325781 162.75117 
L 136.567132 162.75117 
L 136.567132 160.733498 
L 142.691699 160.733498 
L 142.691699 159.724662 
L 145.59178 159.724662 
L 145.59178 158.715827 
L 148.393534 158.715827 
L 148.393534 156.698155 
L 151.103411 156.698155 
L 151.103411 153.671648 
L 152.425741 153.671648 
L 152.425741 152.662812 
L 161.133138 152.662812 
L 161.133138 150.64514 
L 163.461287 150.64514 
L 163.461287 149.636305 
L 165.725644 149.636305 
L 165.725644 147.618633 
L 167.92961 147.618633 
L 167.92961 145.600961 
L 172.168684 145.600961 
L 172.168684 143.58329 
L 174.209377 143.58329 
L 174.209377 142.574454 
L 180.045483 142.574454 
L 180.045483 141.565618 
L 185.496503 141.565618 
L 185.496503 140.556783 
L 189.779525 140.556783 
L 189.779525 139.547947 
L 190.610124 139.547947 
L 190.610124 138.539111 
L 191.432457 138.539111 
L 191.432457 137.530275 
L 196.201694 137.530275 
L 196.201694 136.521439 
L 197.732179 136.521439 
L 197.732179 134.503768 
L 199.976041 134.503768 
L 199.976041 133.494932 
L 201.438802 133.494932 
L 201.438802 132.486096 
L 203.585516 132.486096 
L 203.585516 131.47726 
L 204.288872 131.47726 
L 204.288872 130.468425 
L 207.718569 130.468425 
L 207.718569 128.450753 
L 209.051563 128.450753 
L 209.051563 126.433082 
L 210.363397 126.433082 
L 210.363397 125.424246 
L 212.926202 125.424246 
L 212.926202 124.41541 
L 213.554675 124.41541 
L 213.554675 122.397738 
L 214.797463 122.397738 
L 214.797463 121.388903 
L 216.021839 121.388903 
L 216.021839 120.380067 
L 217.22834 120.380067 
L 217.22834 119.371231 
L 218.41748 119.371231 
L 218.41748 118.362395 
L 224.119316 118.362395 
L 224.119316 117.35356 
L 228.413468 117.35356 
L 228.413468 116.344724 
L 229.453027 116.344724 
L 229.453027 115.335888 
L 230.479671 115.335888 
L 230.479671 114.327052 
L 232.495475 114.327052 
L 232.495475 113.318216 
L 233.975702 113.318216 
L 233.975702 112.309381 
L 237.798064 112.309381 
L 237.798064 111.300545 
L 244.089218 111.300545 
L 244.089218 110.291709 
L 245.3772 110.291709 
L 245.3772 108.274038 
L 246.224837 108.274038 
L 246.224837 107.265202 
L 247.063867 107.265202 
L 247.063867 106.256366 
L 248.306655 106.256366 
L 248.306655 105.24753 
L 249.531031 105.24753 
L 249.531031 104.238694 
L 251.53219 104.238694 
L 251.53219 103.229859 
L 256.519178 103.229859 
L 256.519178 102.221023 
L 258.723144 102.221023 
L 258.723144 101.212187 
L 259.084824 101.212187 
L 259.084824 100.203351 
L 259.444929 100.203351 
L 259.444929 99.194516 
L 261.573214 99.194516 
L 261.573214 98.18568 
L 262.270634 98.18568 
L 262.270634 97.176844 
L 266.665821 97.176844 
L 266.665821 96.168008 
L 267.321728 96.168008 
L 267.321728 95.159172 
L 268.618128 95.159172 
L 268.618128 94.150337 
L 270.210544 94.150337 
L 270.210544 93.141501 
L 273.306181 93.141501 
L 273.306181 92.132665 
L 275.406137 92.132665 
L 275.406137 91.123829 
L 277.454054 91.123829 
L 277.454054 90.114994 
L 277.742514 90.114994 
L 277.742514 89.106158 
L 280.850854 89.106158 
L 280.850854 87.088486 
L 285.173085 87.088486 
L 285.173085 85.070815 
L 285.435864 85.070815 
L 285.435864 84.061979 
L 286.995228 84.061979 
L 286.995228 83.053143 
L 291.260044 83.053143 
L 291.260044 82.044307 
L 292.954121 82.044307 
L 292.954121 81.035471 
L 294.37905 81.035471 
L 294.37905 80.026636 
L 297.384612 80.026636 
L 297.384612 79.0178 
L 297.611344 79.0178 
L 297.611344 78.008964 
L 299.624419 78.008964 
L 299.624419 77.000128 
L 299.845097 77.000128 
L 299.845097 75.991293 
L 300.065187 75.991293 
L 300.065187 74.982457 
L 303.509179 74.982457 
L 303.509179 73.973621 
L 304.556643 73.973621 
L 304.556643 72.964785 
L 306.815373 72.964785 
L 306.815373 71.955949 
L 308.420158 71.955949 
L 308.420158 70.947114 
L 322.287253 70.947114 
L 322.287253 69.938278 
L 322.956438 69.938278 
L 322.956438 68.929442 
L 325.256812 68.929442 
L 325.256812 67.920606 
L 325.741528 67.920606 
L 325.741528 66.911771 
L 329.827417 66.911771 
L 329.827417 65.902935 
L 330.133505 65.902935 
L 330.133505 64.894099 
L 335.026857 64.894099 
L 335.026857 63.885263 
L 336.73679 63.885263 
L 336.73679 62.876427 
L 338.688 62.876427 
L 338.688 62.876427 
" style="fill:none;stroke:#ff0000;stroke-linecap:square;stroke-width:1.5;"/>
   </g>
   <g id="line2d_28">
    <defs>
     <path d="M 0 -6 
L -5.196152 -3 
L -5.196152 3 
L -0 6 
L 5.196152 3 
L 5.196152 -3 
z
" id="m8437b68dba" style="stroke:#ff0000;stroke-linejoin:miter;stroke-width:1.5;"/>
    </defs>
    <g>
     <use style="fill-opacity:0;stroke:#ff0000;stroke-linejoin:miter;stroke-width:1.5;" x="126.434805" xlink:href="#m8437b68dba" y="166.786513"/>
     <use style="fill-opacity:0;stroke:#ff0000;stroke-linejoin:miter;stroke-width:1.5;" x="174.209377" xlink:href="#m8437b68dba" y="143.58329"/>
     <use style="fill-opacity:0;stroke:#ff0000;stroke-linejoin:miter;stroke-width:1.5;" x="233.975702" xlink:href="#m8437b68dba" y="112.309381"/>
     <use style="fill-opacity:0;stroke:#ff0000;stroke-linejoin:miter;stroke-width:1.5;" x="322.956438" xlink:href="#m8437b68dba" y="69.938278"/>
     <use style="fill-opacity:0;stroke:#ff0000;stroke-linejoin:miter;stroke-width:1.5;" x="336.73679" xlink:href="#m8437b68dba" y="62.876427"/>
     <use style="fill-opacity:0;stroke:#ff0000;stroke-linejoin:miter;stroke-width:1.5;" x="338.688" xlink:href="#m8437b68dba" y="62.876427"/>
    </g>
   </g>
   <g id="line2d_29">
    <path style="fill:none;stroke:#ff0000;stroke-linecap:square;stroke-width:1.5;"/>
    <g/>
   </g>
   <g id="line2d_30">
    <defs>
     <path d="M 0 1.5 
C 0.397805 1.5 0.77937 1.341951 1.06066 1.06066 
C 1.341951 0.77937 1.5 0.397805 1.5 0 
C 1.5 -0.397805 1.341951 -0.77937 1.06066 -1.06066 
C 0.77937 -1.341951 0.397805 -1.5 0 -1.5 
C -0.397805 -1.5 -0.77937 -1.341951 -1.06066 -1.06066 
C -1.341951 -0.77937 -1.5 -0.397805 -1.5 0 
C -1.5 0.397805 -1.341951 0.77937 -1.06066 1.06066 
C -0.77937 1.341951 -0.397805 1.5 0 1.5 
z
" id="me147fadb35" style="stroke:#9acd32;"/>
    </defs>
    <g>
     <use style="fill:#9acd32;stroke:#9acd32;" x="395.834488" xlink:href="#me147fadb35" y="77.000128"/>
     <use style="fill:#9acd32;stroke:#9acd32;" x="395.834488" xlink:href="#me147fadb35" y="77.000128"/>
    </g>
   </g>
   <g id="line2d_31">
    <path d="M -1 295.917493 
L 65.476799 295.917493 
L 65.476799 286.837971 
L 120.861199 286.837971 
L 120.861199 265.652419 
L 153.727245 265.652419 
L 153.727245 248.502211 
L 177.178936 248.502211 
L 177.178936 240.431525 
L 195.42569 240.431525 
L 195.42569 225.298988 
L 210.363397 225.298988 
L 210.363397 211.175287 
L 223.009986 211.175287 
L 223.009986 201.086929 
L 233.975702 201.086929 
L 233.975702 194.025079 
L 243.655391 194.025079 
L 243.655391 184.945557 
L 252.31928 184.945557 
L 252.31928 179.901378 
L 260.160464 179.901378 
L 260.160464 174.857199 
L 267.321728 174.857199 
L 267.321728 167.795349 
L 273.911633 167.795349 
L 273.911633 157.706991 
L 280.014653 157.706991 
L 280.014653 145.600961 
L 285.69781 145.600961 
L 285.69781 136.521439 
L 291.015174 136.521439 
L 291.015174 133.494932 
L 296.010998 133.494932 
L 296.010998 129.459589 
L 300.721963 129.459589 
L 300.721963 126.433082 
L 305.178808 126.433082 
L 305.178808 122.397738 
L 309.407551 122.397738 
L 309.407551 120.380067 
L 313.430409 120.380067 
L 313.430409 116.344724 
L 317.266503 116.344724 
L 317.266503 110.291709 
L 320.932406 110.291709 
L 320.932406 107.265202 
L 324.442581 107.265202 
L 324.442581 106.256366 
L 327.809721 106.256366 
L 327.809721 103.229859 
L 331.045028 103.229859 
L 331.045028 99.194516 
L 337.158802 99.194516 
L 337.158802 98.18568 
L 338.688 98.18568 
" style="fill:none;stroke:#9acd32;stroke-linecap:square;stroke-width:1.5;"/>
   </g>
   <g id="line2d_32">
    <defs>
     <path d="M 0 -6 
L -6 6 
L 6 6 
z
" id="m64ee9a11e6" style="stroke:#9acd32;stroke-linejoin:miter;stroke-width:1.5;"/>
    </defs>
    <g>
     <use style="fill-opacity:0;stroke:#9acd32;stroke-linejoin:miter;stroke-width:1.5;" x="177.178936" xlink:href="#m64ee9a11e6" y="248.502211"/>
     <use style="fill-opacity:0;stroke:#9acd32;stroke-linejoin:miter;stroke-width:1.5;" x="233.975702" xlink:href="#m64ee9a11e6" y="201.086929"/>
     <use style="fill-opacity:0;stroke:#9acd32;stroke-linejoin:miter;stroke-width:1.5;" x="280.014653" xlink:href="#m64ee9a11e6" y="157.706991"/>
     <use style="fill-opacity:0;stroke:#9acd32;stroke-linejoin:miter;stroke-width:1.5;" x="337.158802" xlink:href="#m64ee9a11e6" y="98.18568"/>
     <use style="fill-opacity:0;stroke:#9acd32;stroke-linejoin:miter;stroke-width:1.5;" x="337.158802" xlink:href="#m64ee9a11e6" y="98.18568"/>
     <use style="fill-opacity:0;stroke:#9acd32;stroke-linejoin:miter;stroke-width:1.5;" x="338.688" xlink:href="#m64ee9a11e6" y="98.18568"/>
    </g>
   </g>
   <g id="line2d_33">
    <path style="fill:none;stroke:#9acd32;stroke-linecap:square;stroke-width:1.5;"/>
    <g/>
   </g>
   <g id="line2d_34">
    <defs>
     <path d="M 0 1.5 
C 0.397805 1.5 0.77937 1.341951 1.06066 1.06066 
C 1.341951 0.77937 1.5 0.397805 1.5 0 
C 1.5 -0.397805 1.341951 -0.77937 1.06066 -1.06066 
C 0.77937 -1.341951 0.397805 -1.5 0 -1.5 
C -0.397805 -1.5 -0.77937 -1.341951 -1.06066 -1.06066 
C -1.341951 -0.77937 -1.5 -0.397805 -1.5 0 
C -1.5 0.397805 -1.341951 0.77937 -1.06066 1.06066 
C -0.77937 1.341951 -0.397805 1.5 0 1.5 
z
" id="me164875f67" style="stroke:#00bfbf;"/>
    </defs>
    <g>
     <use style="fill:#00bfbf;stroke:#00bfbf;" x="389.974822" xlink:href="#me164875f67" y="26.558339"/>
     <use style="fill:#00bfbf;stroke:#00bfbf;" x="389.974822" xlink:href="#me164875f67" y="26.558339"/>
    </g>
   </g>
   <g id="line2d_35">
    <path d="M -1 294.908657 
L 15.383411 294.908657 
L 15.383411 293.899821 
L 28.123014 293.899821 
L 28.123014 292.890985 
L 61.632206 292.890985 
L 61.632206 291.88215 
L 79.282789 291.88215 
L 79.282789 289.864478 
L 108.441301 289.864478 
L 108.441301 288.855642 
L 110.645268 288.855642 
L 110.645268 287.846806 
L 114.884342 287.846806 
L 114.884342 286.837971 
L 118.916549 286.837971 
L 118.916549 233.369674 
L 120.861199 233.369674 
L 120.861199 223.281316 
L 122.761141 223.281316 
L 122.761141 219.245973 
L 126.434805 219.245973 
L 126.434805 218.237138 
L 128.212161 218.237138 
L 128.212161 217.228302 
L 129.952095 217.228302 
L 129.952095 214.201794 
L 131.656152 214.201794 
L 131.656152 212.184123 
L 138.141347 212.184123 
L 138.141347 211.175287 
L 139.686137 211.175287 
L 139.686137 210.166451 
L 141.20258 210.166451 
L 141.20258 209.157616 
L 142.691699 209.157616 
L 142.691699 208.14878 
L 145.59178 208.14878 
L 145.59178 207.139944 
L 148.393534 207.139944 
L 148.393534 205.122272 
L 152.425741 205.122272 
L 152.425741 204.113437 
L 153.727245 204.113437 
L 153.727245 203.104601 
L 155.008571 203.104601 
L 155.008571 202.095765 
L 156.270333 202.095765 
L 156.270333 200.078094 
L 157.513121 200.078094 
L 157.513121 199.069258 
L 158.737497 199.069258 
L 158.737497 196.04275 
L 159.943997 196.04275 
L 159.943997 195.033915 
L 162.30541 195.033915 
L 162.30541 192.007407 
L 164.60122 192.007407 
L 164.60122 188.9809 
L 166.834973 188.9809 
L 166.834973 187.972064 
L 167.92961 187.972064 
L 167.92961 185.954393 
L 169.009937 185.954393 
L 169.009937 182.927885 
L 170.076324 182.927885 
L 170.076324 181.91905 
L 171.129126 181.91905 
L 171.129126 180.910214 
L 173.195329 180.910214 
L 173.195329 179.901378 
L 175.211132 179.901378 
L 175.211132 176.874871 
L 176.200891 176.874871 
L 176.200891 173.848363 
L 177.178936 173.848363 
L 177.178936 172.839527 
L 179.100972 172.839527 
L 179.100972 171.830692 
L 180.045483 171.830692 
L 180.045483 170.821856 
L 180.979322 170.821856 
L 180.979322 169.81302 
L 182.815927 169.81302 
L 182.815927 168.804184 
L 183.719147 168.804184 
L 183.719147 167.795349 
L 184.612603 167.795349 
L 184.612603 165.777677 
L 187.236437 165.777677 
L 187.236437 162.75117 
L 188.092858 162.75117 
L 188.092858 158.715827 
L 189.779525 158.715827 
L 189.779525 157.706991 
L 191.432457 157.706991 
L 191.432457 156.698155 
L 192.246689 156.698155 
L 192.246689 154.680483 
L 193.851474 154.680483 
L 193.851474 152.662812 
L 195.42569 152.662812 
L 195.42569 151.653976 
L 196.201694 151.653976 
L 196.201694 150.64514 
L 197.732179 150.64514 
L 197.732179 148.627469 
L 198.486922 148.627469 
L 198.486922 147.618633 
L 199.234836 147.618633 
L 199.234836 146.609797 
L 200.710658 146.609797 
L 200.710658 145.600961 
L 201.438802 145.600961 
L 201.438802 143.58329 
L 202.160587 143.58329 
L 202.160587 142.574454 
L 202.876122 142.574454 
L 202.876122 141.565618 
L 209.051563 141.565618 
L 209.051563 140.556783 
L 214.797463 140.556783 
L 214.797463 139.547947 
L 216.627291 139.547947 
L 216.627291 138.539111 
L 217.22834 138.539111 
L 217.22834 137.530275 
L 217.825049 137.530275 
L 217.825049 134.503768 
L 218.41748 134.503768 
L 218.41748 133.494932 
L 219.005695 133.494932 
L 219.005695 132.486096 
L 220.169712 132.486096 
L 220.169712 131.47726 
L 221.317561 131.47726 
L 221.317561 129.459589 
L 223.566512 129.459589 
L 223.566512 128.450753 
L 224.119316 128.450753 
L 224.119316 127.441917 
L 224.668446 127.441917 
L 224.668446 125.424246 
L 225.213952 125.424246 
L 225.213952 124.41541 
L 225.755881 124.41541 
L 225.755881 123.406574 
L 227.360666 123.406574 
L 227.360666 122.397738 
L 227.888743 122.397738 
L 227.888743 120.380067 
L 229.967943 120.380067 
L 229.967943 119.371231 
L 231.493719 119.371231 
L 231.493719 118.362395 
L 231.996115 118.362395 
L 231.996115 117.35356 
L 232.991835 117.35356 
L 232.991835 116.344724 
L 234.947994 116.344724 
L 234.947994 115.335888 
L 235.429884 115.335888 
L 235.429884 114.327052 
L 239.187069 114.327052 
L 239.187069 113.318216 
L 239.64493 113.318216 
L 239.64493 112.309381 
L 241.896945 112.309381 
L 241.896945 111.300545 
L 244.089218 111.300545 
L 244.089218 109.282873 
L 244.950099 109.282873 
L 244.950099 108.274038 
L 245.3772 108.274038 
L 245.3772 107.265202 
L 246.224837 107.265202 
L 246.224837 106.256366 
L 246.645417 106.256366 
L 246.645417 105.24753 
L 247.48021 105.24753 
L 247.48021 104.238694 
L 248.306655 104.238694 
L 248.306655 103.229859 
L 249.124918 103.229859 
L 249.124918 102.221023 
L 249.531031 102.221023 
L 249.531031 100.203351 
L 251.135816 100.203351 
L 251.135816 99.194516 
L 253.098945 99.194516 
L 253.098945 98.18568 
L 254.636549 98.18568 
L 254.636549 97.176844 
L 255.394754 97.176844 
L 255.394754 95.159172 
L 255.771265 95.159172 
L 255.771265 93.141501 
L 257.628508 93.141501 
L 257.628508 92.132665 
L 260.515922 92.132665 
L 260.515922 91.123829 
L 264.666276 91.123829 
L 264.666276 88.097322 
L 265.33818 88.097322 
L 265.33818 87.088486 
L 266.335905 87.088486 
L 266.335905 86.07965 
L 268.29593 86.07965 
L 268.29593 85.070815 
L 269.258781 85.070815 
L 269.258781 83.053143 
L 270.525378 83.053143 
L 270.525378 82.044307 
L 271.151471 82.044307 
L 271.151471 81.035471 
L 272.081805 81.035471 
L 272.081805 80.026636 
L 273.609461 80.026636 
L 273.609461 79.0178 
L 275.109391 79.0178 
L 275.109391 78.008964 
L 275.701822 78.008964 
L 275.701822 77.000128 
L 275.996453 77.000128 
L 275.996453 75.991293 
L 277.164583 75.991293 
L 277.164583 74.982457 
L 279.169905 74.982457 
L 279.169905 73.973621 
L 284.379699 73.973621 
L 284.379699 72.964785 
L 284.909469 72.964785 
L 284.909469 71.955949 
L 285.173085 71.955949 
L 285.173085 70.947114 
L 286.478702 70.947114 
L 286.478702 69.938278 
L 289.029641 69.938278 
L 289.029641 68.929442 
L 291.015174 68.929442 
L 291.015174 67.920606 
L 291.260044 67.920606 
L 291.260044 66.911771 
L 291.990333 66.911771 
L 291.990333 65.902935 
L 294.37905 65.902935 
L 294.37905 63.885263 
L 295.315534 63.885263 
L 295.315534 62.876427 
L 300.284693 62.876427 
L 300.284693 61.867592 
L 301.805122 61.867592 
L 301.805122 60.858756 
L 303.719736 60.858756 
L 303.719736 59.84992 
L 305.38516 59.84992 
L 305.38516 58.841084 
L 306.815373 58.841084 
L 306.815373 57.832249 
L 307.420825 57.832249 
L 307.420825 56.823413 
L 310.189059 56.823413 
L 310.189059 55.814577 
L 310.383287 55.814577 
L 310.383287 54.805741 
L 311.155665 54.805741 
L 311.155665 53.796905 
L 311.730248 53.796905 
L 311.730248 52.78807 
L 314.728993 52.78807 
L 314.728993 51.779234 
L 315.46198 51.779234 
L 315.46198 50.770398 
L 316.908737 50.770398 
L 316.908737 49.761562 
L 317.266503 49.761562 
L 317.266503 48.752727 
L 322.455058 48.752727 
L 322.455058 47.743891 
L 323.950163 47.743891 
L 323.950163 46.735055 
L 324.278767 46.735055 
L 324.278767 45.726219 
L 325.094606 45.726219 
L 325.094606 44.717383 
L 326.0631 44.717383 
L 326.0631 43.708548 
L 328.90229 43.708548 
L 328.90229 42.699712 
L 329.827417 42.699712 
L 329.827417 41.690876 
L 330.286126 41.690876 
L 330.286126 40.68204 
L 333.574379 40.68204 
L 333.574379 39.673205 
L 337.018371 39.673205 
L 337.018371 38.664369 
L 338.688 38.664369 
L 338.688 38.664369 
" style="fill:none;stroke:#00bfbf;stroke-linecap:square;stroke-width:1.5;"/>
   </g>
   <g id="line2d_36">
    <defs>
     <path d="M 0 -6 
L -5.706339 -1.854102 
L -3.526712 4.854102 
L 3.526712 4.854102 
L 5.706339 -1.854102 
z
" id="mce6e7af371" style="stroke:#00bfbf;stroke-linejoin:miter;stroke-width:1.5;"/>
    </defs>
    <g>
     <use style="fill-opacity:0;stroke:#00bfbf;stroke-linejoin:miter;stroke-width:1.5;" x="79.282789" xlink:href="#mce6e7af371" y="291.88215"/>
     <use style="fill-opacity:0;stroke:#00bfbf;stroke-linejoin:miter;stroke-width:1.5;" x="129.952095" xlink:href="#mce6e7af371" y="214.201794"/>
     <use style="fill-opacity:0;stroke:#00bfbf;stroke-linejoin:miter;stroke-width:1.5;" x="180.045483" xlink:href="#mce6e7af371" y="171.830692"/>
     <use style="fill-opacity:0;stroke:#00bfbf;stroke-linejoin:miter;stroke-width:1.5;" x="231.996115" xlink:href="#mce6e7af371" y="118.362395"/>
     <use style="fill-opacity:0;stroke:#00bfbf;stroke-linejoin:miter;stroke-width:1.5;" x="291.990333" xlink:href="#mce6e7af371" y="65.902935"/>
     <use style="fill-opacity:0;stroke:#00bfbf;stroke-linejoin:miter;stroke-width:1.5;" x="337.018371" xlink:href="#mce6e7af371" y="38.664369"/>
     <use style="fill-opacity:0;stroke:#00bfbf;stroke-linejoin:miter;stroke-width:1.5;" x="337.018371" xlink:href="#mce6e7af371" y="38.664369"/>
     <use style="fill-opacity:0;stroke:#00bfbf;stroke-linejoin:miter;stroke-width:1.5;" x="338.688" xlink:href="#mce6e7af371" y="38.664369"/>
    </g>
   </g>
   <g id="line2d_37">
    <path style="fill:none;stroke:#00bfbf;stroke-linecap:square;stroke-width:1.5;"/>
    <g/>
   </g>
   <g id="line2d_38">
    <path d="M 338.688 98.18568 
L 369.60768 293.092752 
" style="fill:none;stroke:#9acd32;stroke-linecap:square;stroke-width:1.5;"/>
    <g>
     <use style="fill-opacity:0;stroke:#9acd32;stroke-linejoin:miter;stroke-width:1.5;" x="338.688" xlink:href="#m64ee9a11e6" y="98.18568"/>
     <use style="fill-opacity:0;stroke:#9acd32;stroke-linejoin:miter;stroke-width:1.5;" x="369.60768" xlink:href="#m64ee9a11e6" y="293.092752"/>
    </g>
   </g>
   <g id="line2d_39">
    <path d="M 338.688 62.876427 
L 369.60768 222.877782 
" style="fill:none;stroke:#ff0000;stroke-linecap:square;stroke-width:1.5;"/>
    <g>
     <use style="fill-opacity:0;stroke:#ff0000;stroke-linejoin:miter;stroke-width:1.5;" x="338.688" xlink:href="#m8437b68dba" y="62.876427"/>
     <use style="fill-opacity:0;stroke:#ff0000;stroke-linejoin:miter;stroke-width:1.5;" x="369.60768" xlink:href="#m8437b68dba" y="222.877782"/>
    </g>
   </g>
   <g id="line2d_40">
    <path d="M 338.688 38.664369 
L 369.60768 152.662812 
" style="fill:none;stroke:#00bfbf;stroke-linecap:square;stroke-width:1.5;"/>
    <g>
     <use style="fill-opacity:0;stroke:#00bfbf;stroke-linejoin:miter;stroke-width:1.5;" x="338.688" xlink:href="#mce6e7af371" y="38.664369"/>
     <use style="fill-opacity:0;stroke:#00bfbf;stroke-linejoin:miter;stroke-width:1.5;" x="369.60768" xlink:href="#mce6e7af371" y="152.662812"/>
    </g>
   </g>
   <g id="line2d_41">
    <path d="M 338.688 32.611354 
L 369.60768 82.447842 
" style="fill:none;stroke:#6495ed;stroke-linecap:square;stroke-width:1.5;"/>
    <g>
     <use style="fill-opacity:0;stroke:#6495ed;stroke-linejoin:miter;stroke-width:1.5;" x="338.688" xlink:href="#mb7ee2d7f67" y="32.611354"/>
     <use style="fill-opacity:0;stroke:#6495ed;stroke-linejoin:miter;stroke-width:1.5;" x="369.60768" xlink:href="#mb7ee2d7f67" y="82.447842"/>
    </g>
   </g>
   <g id="line2d_42">
    <path d="M 338.688 298.944 
L 338.688 6.381624 
" style="fill:none;stroke:#000000;stroke-linecap:square;stroke-width:1.5;"/>
   </g>
   <g id="patch_3">
    <path d="M 57.6 298.944 
L 57.6 3.456 
" style="fill:none;stroke:#000000;stroke-linecap:square;stroke-linejoin:miter;stroke-width:0.8;"/>
   </g>
   <g id="patch_4">
    <path d="M 338.688 298.944 
L 338.688 3.456 
" style="fill:none;stroke:#000000;stroke-linecap:square;stroke-linejoin:miter;stroke-width:0.8;"/>
   </g>
   <g id="patch_5">
    <path d="M 57.6 298.944 
L 338.688 298.944 
" style="fill:none;stroke:#000000;stroke-linecap:square;stroke-linejoin:miter;stroke-width:0.8;"/>
   </g>
   <g id="patch_6">
    <path d="M 57.6 3.456 
L 338.688 3.456 
" style="fill:none;stroke:#000000;stroke-linecap:square;stroke-linejoin:miter;stroke-width:0.8;"/>
   </g>
   <g id="text_10">
    <!-- BFGS ros  -->
    <g transform="translate(375.22944 297.78369)scale(0.17 -0.17)">
     <defs>
      <path d="M 19.671875 34.8125 
L 19.671875 8.109375 
L 35.5 8.109375 
Q 43.453125 8.109375 47.28125 11.40625 
Q 51.125 14.703125 51.125 21.484375 
Q 51.125 28.328125 47.28125 31.5625 
Q 43.453125 34.8125 35.5 34.8125 
z
M 19.671875 64.796875 
L 19.671875 42.828125 
L 34.28125 42.828125 
Q 41.5 42.828125 45.03125 45.53125 
Q 48.578125 48.25 48.578125 53.8125 
Q 48.578125 59.328125 45.03125 62.0625 
Q 41.5 64.796875 34.28125 64.796875 
z
M 9.8125 72.90625 
L 35.015625 72.90625 
Q 46.296875 72.90625 52.390625 68.21875 
Q 58.5 63.53125 58.5 54.890625 
Q 58.5 48.1875 55.375 44.234375 
Q 52.25 40.28125 46.1875 39.3125 
Q 53.46875 37.75 57.5 32.78125 
Q 61.53125 27.828125 61.53125 20.40625 
Q 61.53125 10.640625 54.890625 5.3125 
Q 48.25 0 35.984375 0 
L 9.8125 0 
z
" id="DejaVuSans-66"/>
      <path d="M 59.515625 10.40625 
L 59.515625 29.984375 
L 43.40625 29.984375 
L 43.40625 38.09375 
L 69.28125 38.09375 
L 69.28125 6.78125 
Q 63.578125 2.734375 56.6875 0.65625 
Q 49.8125 -1.421875 42 -1.421875 
Q 24.90625 -1.421875 15.25 8.5625 
Q 5.609375 18.5625 5.609375 36.375 
Q 5.609375 54.25 15.25 64.234375 
Q 24.90625 74.21875 42 74.21875 
Q 49.125 74.21875 55.546875 72.453125 
Q 61.96875 70.703125 67.390625 67.28125 
L 67.390625 56.78125 
Q 61.921875 61.421875 55.765625 63.765625 
Q 49.609375 66.109375 42.828125 66.109375 
Q 29.4375 66.109375 22.71875 58.640625 
Q 16.015625 51.171875 16.015625 36.375 
Q 16.015625 21.625 22.71875 14.15625 
Q 29.4375 6.6875 42.828125 6.6875 
Q 48.046875 6.6875 52.140625 7.59375 
Q 56.25 8.5 59.515625 10.40625 
z
" id="DejaVuSans-71"/>
      <path d="M 53.515625 70.515625 
L 53.515625 60.890625 
Q 47.90625 63.578125 42.921875 64.890625 
Q 37.9375 66.21875 33.296875 66.21875 
Q 25.25 66.21875 20.875 63.09375 
Q 16.5 59.96875 16.5 54.203125 
Q 16.5 49.359375 19.40625 46.890625 
Q 22.3125 44.4375 30.421875 42.921875 
L 36.375 41.703125 
Q 47.40625 39.59375 52.65625 34.296875 
Q 57.90625 29 57.90625 20.125 
Q 57.90625 9.515625 50.796875 4.046875 
Q 43.703125 -1.421875 29.984375 -1.421875 
Q 24.8125 -1.421875 18.96875 -0.25 
Q 13.140625 0.921875 6.890625 3.21875 
L 6.890625 13.375 
Q 12.890625 10.015625 18.65625 8.296875 
Q 24.421875 6.59375 29.984375 6.59375 
Q 38.421875 6.59375 43.015625 9.90625 
Q 47.609375 13.234375 47.609375 19.390625 
Q 47.609375 24.75 44.3125 27.78125 
Q 41.015625 30.8125 33.5 32.328125 
L 27.484375 33.5 
Q 16.453125 35.6875 11.515625 40.375 
Q 6.59375 45.0625 6.59375 53.421875 
Q 6.59375 63.09375 13.40625 68.65625 
Q 20.21875 74.21875 32.171875 74.21875 
Q 37.3125 74.21875 42.625 73.28125 
Q 47.953125 72.359375 53.515625 70.515625 
z
" id="DejaVuSans-83"/>
     </defs>
     <use xlink:href="#DejaVuSans-66"/>
     <use x="68.603516" xlink:href="#DejaVuSans-70"/>
     <use x="126.123047" xlink:href="#DejaVuSans-71"/>
     <use x="203.613281" xlink:href="#DejaVuSans-83"/>
     <use x="267.089844" xlink:href="#DejaVuSans-32"/>
     <use x="298.876953" xlink:href="#DejaVuSans-114"/>
     <use x="337.740234" xlink:href="#DejaVuSans-111"/>
     <use x="398.921875" xlink:href="#DejaVuSans-115"/>
     <use x="451.021484" xlink:href="#DejaVuSans-32"/>
    </g>
   </g>
   <g id="text_11">
    <!-- SMAC-BBOB -->
    <g transform="translate(375.22944 227.56872)scale(0.17 -0.17)">
     <defs>
      <path d="M 9.8125 72.90625 
L 24.515625 72.90625 
L 43.109375 23.296875 
L 61.8125 72.90625 
L 76.515625 72.90625 
L 76.515625 0 
L 66.890625 0 
L 66.890625 64.015625 
L 48.09375 14.015625 
L 38.1875 14.015625 
L 19.390625 64.015625 
L 19.390625 0 
L 9.8125 0 
z
" id="DejaVuSans-77"/>
      <path d="M 34.1875 63.1875 
L 20.796875 26.90625 
L 47.609375 26.90625 
z
M 28.609375 72.90625 
L 39.796875 72.90625 
L 67.578125 0 
L 57.328125 0 
L 50.6875 18.703125 
L 17.828125 18.703125 
L 11.1875 0 
L 0.78125 0 
z
" id="DejaVuSans-65"/>
      <path d="M 64.40625 67.28125 
L 64.40625 56.890625 
Q 59.421875 61.53125 53.78125 63.8125 
Q 48.140625 66.109375 41.796875 66.109375 
Q 29.296875 66.109375 22.65625 58.46875 
Q 16.015625 50.828125 16.015625 36.375 
Q 16.015625 21.96875 22.65625 14.328125 
Q 29.296875 6.6875 41.796875 6.6875 
Q 48.140625 6.6875 53.78125 8.984375 
Q 59.421875 11.28125 64.40625 15.921875 
L 64.40625 5.609375 
Q 59.234375 2.09375 53.4375 0.328125 
Q 47.65625 -1.421875 41.21875 -1.421875 
Q 24.65625 -1.421875 15.125 8.703125 
Q 5.609375 18.84375 5.609375 36.375 
Q 5.609375 53.953125 15.125 64.078125 
Q 24.65625 74.21875 41.21875 74.21875 
Q 47.75 74.21875 53.53125 72.484375 
Q 59.328125 70.75 64.40625 67.28125 
z
" id="DejaVuSans-67"/>
      <path d="M 39.40625 66.21875 
Q 28.65625 66.21875 22.328125 58.203125 
Q 16.015625 50.203125 16.015625 36.375 
Q 16.015625 22.609375 22.328125 14.59375 
Q 28.65625 6.59375 39.40625 6.59375 
Q 50.140625 6.59375 56.421875 14.59375 
Q 62.703125 22.609375 62.703125 36.375 
Q 62.703125 50.203125 56.421875 58.203125 
Q 50.140625 66.21875 39.40625 66.21875 
z
M 39.40625 74.21875 
Q 54.734375 74.21875 63.90625 63.9375 
Q 73.09375 53.65625 73.09375 36.375 
Q 73.09375 19.140625 63.90625 8.859375 
Q 54.734375 -1.421875 39.40625 -1.421875 
Q 24.03125 -1.421875 14.8125 8.828125 
Q 5.609375 19.09375 5.609375 36.375 
Q 5.609375 53.65625 14.8125 63.9375 
Q 24.03125 74.21875 39.40625 74.21875 
z
" id="DejaVuSans-79"/>
     </defs>
     <use xlink:href="#DejaVuSans-83"/>
     <use x="63.476562" xlink:href="#DejaVuSans-77"/>
     <use x="149.755859" xlink:href="#DejaVuSans-65"/>
     <use x="216.414062" xlink:href="#DejaVuSans-67"/>
     <use x="286.238281" xlink:href="#DejaVuSans-45"/>
     <use x="318.697266" xlink:href="#DejaVuSans-66"/>
     <use x="387.300781" xlink:href="#DejaVuSans-66"/>
     <use x="454.154297" xlink:href="#DejaVuSans-79"/>
     <use x="532.865234" xlink:href="#DejaVuSans-66"/>
    </g>
   </g>
   <g id="text_12">
    <!-- NEWUOA ro -->
    <g transform="translate(375.22944 157.353749)scale(0.17 -0.17)">
     <defs>
      <path d="M 9.8125 72.90625 
L 23.09375 72.90625 
L 55.421875 11.921875 
L 55.421875 72.90625 
L 64.984375 72.90625 
L 64.984375 0 
L 51.703125 0 
L 19.390625 60.984375 
L 19.390625 0 
L 9.8125 0 
z
" id="DejaVuSans-78"/>
      <path d="M 9.8125 72.90625 
L 55.90625 72.90625 
L 55.90625 64.59375 
L 19.671875 64.59375 
L 19.671875 43.015625 
L 54.390625 43.015625 
L 54.390625 34.71875 
L 19.671875 34.71875 
L 19.671875 8.296875 
L 56.78125 8.296875 
L 56.78125 0 
L 9.8125 0 
z
" id="DejaVuSans-69"/>
      <path d="M 3.328125 72.90625 
L 13.28125 72.90625 
L 28.609375 11.28125 
L 43.890625 72.90625 
L 54.984375 72.90625 
L 70.3125 11.28125 
L 85.59375 72.90625 
L 95.609375 72.90625 
L 77.296875 0 
L 64.890625 0 
L 49.515625 63.28125 
L 33.984375 0 
L 21.578125 0 
z
" id="DejaVuSans-87"/>
      <path d="M 8.6875 72.90625 
L 18.609375 72.90625 
L 18.609375 28.609375 
Q 18.609375 16.890625 22.84375 11.734375 
Q 27.09375 6.59375 36.625 6.59375 
Q 46.09375 6.59375 50.34375 11.734375 
Q 54.59375 16.890625 54.59375 28.609375 
L 54.59375 72.90625 
L 64.5 72.90625 
L 64.5 27.390625 
Q 64.5 13.140625 57.4375 5.859375 
Q 50.390625 -1.421875 36.625 -1.421875 
Q 22.796875 -1.421875 15.734375 5.859375 
Q 8.6875 13.140625 8.6875 27.390625 
z
" id="DejaVuSans-85"/>
     </defs>
     <use xlink:href="#DejaVuSans-78"/>
     <use x="74.804688" xlink:href="#DejaVuSans-69"/>
     <use x="137.988281" xlink:href="#DejaVuSans-87"/>
     <use x="236.865234" xlink:href="#DejaVuSans-85"/>
     <use x="310.058594" xlink:href="#DejaVuSans-79"/>
     <use x="387.019531" xlink:href="#DejaVuSans-65"/>
     <use x="455.427734" xlink:href="#DejaVuSans-32"/>
     <use x="487.214844" xlink:href="#DejaVuSans-114"/>
     <use x="526.078125" xlink:href="#DejaVuSans-111"/>
    </g>
   </g>
   <g id="text_13">
    <!-- DTS-CMA-E -->
    <g transform="translate(375.22944 87.138779)scale(0.17 -0.17)">
     <defs>
      <path d="M 19.671875 64.796875 
L 19.671875 8.109375 
L 31.59375 8.109375 
Q 46.6875 8.109375 53.6875 14.9375 
Q 60.6875 21.78125 60.6875 36.53125 
Q 60.6875 51.171875 53.6875 57.984375 
Q 46.6875 64.796875 31.59375 64.796875 
z
M 9.8125 72.90625 
L 30.078125 72.90625 
Q 51.265625 72.90625 61.171875 64.09375 
Q 71.09375 55.28125 71.09375 36.53125 
Q 71.09375 17.671875 61.125 8.828125 
Q 51.171875 0 30.078125 0 
L 9.8125 0 
z
" id="DejaVuSans-68"/>
      <path d="M -0.296875 72.90625 
L 61.375 72.90625 
L 61.375 64.59375 
L 35.5 64.59375 
L 35.5 0 
L 25.59375 0 
L 25.59375 64.59375 
L -0.296875 64.59375 
z
" id="DejaVuSans-84"/>
     </defs>
     <use xlink:href="#DejaVuSans-68"/>
     <use x="77.001953" xlink:href="#DejaVuSans-84"/>
     <use x="138.085938" xlink:href="#DejaVuSans-83"/>
     <use x="201.5625" xlink:href="#DejaVuSans-45"/>
     <use x="237.646484" xlink:href="#DejaVuSans-67"/>
     <use x="307.470703" xlink:href="#DejaVuSans-77"/>
     <use x="393.75" xlink:href="#DejaVuSans-65"/>
     <use x="459.908203" xlink:href="#DejaVuSans-45"/>
     <use x="495.992188" xlink:href="#DejaVuSans-69"/>
    </g>
   </g>
   <g id="text_14">
    <!-- best09 -->
    <g transform="translate(375.22944 16.923809)scale(0.17 -0.17)">
     <defs>
      <path d="M 48.6875 27.296875 
Q 48.6875 37.203125 44.609375 42.84375 
Q 40.53125 48.484375 33.40625 48.484375 
Q 26.265625 48.484375 22.1875 42.84375 
Q 18.109375 37.203125 18.109375 27.296875 
Q 18.109375 17.390625 22.1875 11.75 
Q 26.265625 6.109375 33.40625 6.109375 
Q 40.53125 6.109375 44.609375 11.75 
Q 48.6875 17.390625 48.6875 27.296875 
z
M 18.109375 46.390625 
Q 20.953125 51.265625 25.265625 53.625 
Q 29.59375 56 35.59375 56 
Q 45.5625 56 51.78125 48.09375 
Q 58.015625 40.1875 58.015625 27.296875 
Q 58.015625 14.40625 51.78125 6.484375 
Q 45.5625 -1.421875 35.59375 -1.421875 
Q 29.59375 -1.421875 25.265625 0.953125 
Q 20.953125 3.328125 18.109375 8.203125 
L 18.109375 0 
L 9.078125 0 
L 9.078125 75.984375 
L 18.109375 75.984375 
z
" id="DejaVuSans-98"/>
      <path d="M 10.984375 1.515625 
L 10.984375 10.5 
Q 14.703125 8.734375 18.5 7.8125 
Q 22.3125 6.890625 25.984375 6.890625 
Q 35.75 6.890625 40.890625 13.453125 
Q 46.046875 20.015625 46.78125 33.40625 
Q 43.953125 29.203125 39.59375 26.953125 
Q 35.25 24.703125 29.984375 24.703125 
Q 19.046875 24.703125 12.671875 31.3125 
Q 6.296875 37.9375 6.296875 49.421875 
Q 6.296875 60.640625 12.9375 67.421875 
Q 19.578125 74.21875 30.609375 74.21875 
Q 43.265625 74.21875 49.921875 64.515625 
Q 56.59375 54.828125 56.59375 36.375 
Q 56.59375 19.140625 48.40625 8.859375 
Q 40.234375 -1.421875 26.421875 -1.421875 
Q 22.703125 -1.421875 18.890625 -0.6875 
Q 15.09375 0.046875 10.984375 1.515625 
z
M 30.609375 32.421875 
Q 37.25 32.421875 41.125 36.953125 
Q 45.015625 41.5 45.015625 49.421875 
Q 45.015625 57.28125 41.125 61.84375 
Q 37.25 66.40625 30.609375 66.40625 
Q 23.96875 66.40625 20.09375 61.84375 
Q 16.21875 57.28125 16.21875 49.421875 
Q 16.21875 41.5 20.09375 36.953125 
Q 23.96875 32.421875 30.609375 32.421875 
z
" id="DejaVuSans-57"/>
     </defs>
     <use xlink:href="#DejaVuSans-98"/>
     <use x="63.476562" xlink:href="#DejaVuSans-101"/>
     <use x="125" xlink:href="#DejaVuSans-115"/>
     <use x="177.099609" xlink:href="#DejaVuSans-116"/>
     <use x="216.308594" xlink:href="#DejaVuSans-48"/>
     <use x="279.931641" xlink:href="#DejaVuSans-57"/>
    </g>
   </g>
   <g id="text_15">
    <!-- bbob f6-f9, 20-D -->
    <g transform="translate(60.41088 14.161286)scale(0.102 -0.102)">
     <use xlink:href="#DejaVuSans-98"/>
     <use x="63.476562" xlink:href="#DejaVuSans-98"/>
     <use x="126.953125" xlink:href="#DejaVuSans-111"/>
     <use x="188.134766" xlink:href="#DejaVuSans-98"/>
     <use x="251.611328" xlink:href="#DejaVuSans-32"/>
     <use x="283.398438" xlink:href="#DejaVuSans-102"/>
     <use x="318.603516" xlink:href="#DejaVuSans-54"/>
     <use x="382.226562" xlink:href="#DejaVuSans-45"/>
     <use x="418.310547" xlink:href="#DejaVuSans-102"/>
     <use x="453.515625" xlink:href="#DejaVuSans-57"/>
     <use x="517.138672" xlink:href="#DejaVuSans-44"/>
     <use x="548.925781" xlink:href="#DejaVuSans-32"/>
     <use x="580.712891" xlink:href="#DejaVuSans-50"/>
     <use x="644.335938" xlink:href="#DejaVuSans-48"/>
     <use x="707.958984" xlink:href="#DejaVuSans-45"/>
     <use x="744.042969" xlink:href="#DejaVuSans-68"/>
    </g>
    <!-- 8 targets RLs/dim: 0.5..20 -->
    <g transform="translate(60.41088 25.583055)scale(0.102 -0.102)">
     <defs>
      <path d="M 44.390625 34.1875 
Q 47.5625 33.109375 50.5625 29.59375 
Q 53.5625 26.078125 56.59375 19.921875 
L 66.609375 0 
L 56 0 
L 46.6875 18.703125 
Q 43.0625 26.03125 39.671875 28.421875 
Q 36.28125 30.8125 30.421875 30.8125 
L 19.671875 30.8125 
L 19.671875 0 
L 9.8125 0 
L 9.8125 72.90625 
L 32.078125 72.90625 
Q 44.578125 72.90625 50.734375 67.671875 
Q 56.890625 62.453125 56.890625 51.90625 
Q 56.890625 45.015625 53.6875 40.46875 
Q 50.484375 35.9375 44.390625 34.1875 
z
M 19.671875 64.796875 
L 19.671875 38.921875 
L 32.078125 38.921875 
Q 39.203125 38.921875 42.84375 42.21875 
Q 46.484375 45.515625 46.484375 51.90625 
Q 46.484375 58.296875 42.84375 61.546875 
Q 39.203125 64.796875 32.078125 64.796875 
z
" id="DejaVuSans-82"/>
      <path d="M 9.8125 72.90625 
L 19.671875 72.90625 
L 19.671875 8.296875 
L 55.171875 8.296875 
L 55.171875 0 
L 9.8125 0 
z
" id="DejaVuSans-76"/>
      <path d="M 11.71875 12.40625 
L 22.015625 12.40625 
L 22.015625 0 
L 11.71875 0 
z
M 11.71875 51.703125 
L 22.015625 51.703125 
L 22.015625 39.3125 
L 11.71875 39.3125 
z
" id="DejaVuSans-58"/>
      <path d="M 10.796875 72.90625 
L 49.515625 72.90625 
L 49.515625 64.59375 
L 19.828125 64.59375 
L 19.828125 46.734375 
Q 21.96875 47.46875 24.109375 47.828125 
Q 26.265625 48.1875 28.421875 48.1875 
Q 40.625 48.1875 47.75 41.5 
Q 54.890625 34.8125 54.890625 23.390625 
Q 54.890625 11.625 47.5625 5.09375 
Q 40.234375 -1.421875 26.90625 -1.421875 
Q 22.3125 -1.421875 17.546875 -0.640625 
Q 12.796875 0.140625 7.71875 1.703125 
L 7.71875 11.625 
Q 12.109375 9.234375 16.796875 8.0625 
Q 21.484375 6.890625 26.703125 6.890625 
Q 35.15625 6.890625 40.078125 11.328125 
Q 45.015625 15.765625 45.015625 23.390625 
Q 45.015625 31 40.078125 35.4375 
Q 35.15625 39.890625 26.703125 39.890625 
Q 22.75 39.890625 18.8125 39.015625 
Q 14.890625 38.140625 10.796875 36.28125 
z
" id="DejaVuSans-53"/>
     </defs>
     <use xlink:href="#DejaVuSans-56"/>
     <use x="63.623047" xlink:href="#DejaVuSans-32"/>
     <use x="95.410156" xlink:href="#DejaVuSans-116"/>
     <use x="134.619141" xlink:href="#DejaVuSans-97"/>
     <use x="195.898438" xlink:href="#DejaVuSans-114"/>
     <use x="235.261719" xlink:href="#DejaVuSans-103"/>
     <use x="298.738281" xlink:href="#DejaVuSans-101"/>
     <use x="360.261719" xlink:href="#DejaVuSans-116"/>
     <use x="399.470703" xlink:href="#DejaVuSans-115"/>
     <use x="451.570312" xlink:href="#DejaVuSans-32"/>
     <use x="483.357422" xlink:href="#DejaVuSans-82"/>
     <use x="552.839844" xlink:href="#DejaVuSans-76"/>
     <use x="608.552734" xlink:href="#DejaVuSans-115"/>
     <use x="660.652344" xlink:href="#DejaVuSans-47"/>
     <use x="694.34375" xlink:href="#DejaVuSans-100"/>
     <use x="757.820312" xlink:href="#DejaVuSans-105"/>
     <use x="785.603516" xlink:href="#DejaVuSans-109"/>
     <use x="883.015625" xlink:href="#DejaVuSans-58"/>
     <use x="916.707031" xlink:href="#DejaVuSans-32"/>
     <use x="948.494141" xlink:href="#DejaVuSans-48"/>
     <use x="1012.117188" xlink:href="#DejaVuSans-46"/>
     <use x="1043.904297" xlink:href="#DejaVuSans-53"/>
     <use x="1107.527344" xlink:href="#DejaVuSans-46"/>
     <use x="1139.314453" xlink:href="#DejaVuSans-46"/>
     <use x="1171.101562" xlink:href="#DejaVuSans-50"/>
     <use x="1234.724609" xlink:href="#DejaVuSans-48"/>
    </g>
    <!--   from /home/local/EMSE2000/leriche/AESOP/EXPE_DOCOCO/bestCustomAlg -->
    <g transform="translate(60.41088 37.004824)scale(0.102 -0.102)">
     <defs>
      <path d="M 54.890625 33.015625 
L 54.890625 0 
L 45.90625 0 
L 45.90625 32.71875 
Q 45.90625 40.484375 42.875 44.328125 
Q 39.84375 48.1875 33.796875 48.1875 
Q 26.515625 48.1875 22.3125 43.546875 
Q 18.109375 38.921875 18.109375 30.90625 
L 18.109375 0 
L 9.078125 0 
L 9.078125 75.984375 
L 18.109375 75.984375 
L 18.109375 46.1875 
Q 21.34375 51.125 25.703125 53.5625 
Q 30.078125 56 35.796875 56 
Q 45.21875 56 50.046875 50.171875 
Q 54.890625 44.34375 54.890625 33.015625 
z
" id="DejaVuSans-104"/>
      <path d="M 19.671875 64.796875 
L 19.671875 37.40625 
L 32.078125 37.40625 
Q 38.96875 37.40625 42.71875 40.96875 
Q 46.484375 44.53125 46.484375 51.125 
Q 46.484375 57.671875 42.71875 61.234375 
Q 38.96875 64.796875 32.078125 64.796875 
z
M 9.8125 72.90625 
L 32.078125 72.90625 
Q 44.34375 72.90625 50.609375 67.359375 
Q 56.890625 61.8125 56.890625 51.125 
Q 56.890625 40.328125 50.609375 34.8125 
Q 44.34375 29.296875 32.078125 29.296875 
L 19.671875 29.296875 
L 19.671875 0 
L 9.8125 0 
z
" id="DejaVuSans-80"/>
      <path d="M 6.296875 72.90625 
L 16.890625 72.90625 
L 35.015625 45.796875 
L 53.21875 72.90625 
L 63.8125 72.90625 
L 40.375 37.890625 
L 65.375 0 
L 54.78125 0 
L 34.28125 31 
L 13.625 0 
L 2.984375 0 
L 29 38.921875 
z
" id="DejaVuSans-88"/>
      <path d="M 50.984375 -16.609375 
L 50.984375 -23.578125 
L -0.984375 -23.578125 
L -0.984375 -16.609375 
z
" id="DejaVuSans-95"/>
     </defs>
     <use xlink:href="#DejaVuSans-32"/>
     <use x="31.787109" xlink:href="#DejaVuSans-32"/>
     <use x="63.574219" xlink:href="#DejaVuSans-102"/>
     <use x="98.779297" xlink:href="#DejaVuSans-114"/>
     <use x="137.642578" xlink:href="#DejaVuSans-111"/>
     <use x="198.824219" xlink:href="#DejaVuSans-109"/>
     <use x="296.236328" xlink:href="#DejaVuSans-32"/>
     <use x="328.023438" xlink:href="#DejaVuSans-47"/>
     <use x="361.714844" xlink:href="#DejaVuSans-104"/>
     <use x="425.09375" xlink:href="#DejaVuSans-111"/>
     <use x="486.275391" xlink:href="#DejaVuSans-109"/>
     <use x="583.6875" xlink:href="#DejaVuSans-101"/>
     <use x="645.210938" xlink:href="#DejaVuSans-47"/>
     <use x="678.902344" xlink:href="#DejaVuSans-108"/>
     <use x="706.685547" xlink:href="#DejaVuSans-111"/>
     <use x="767.867188" xlink:href="#DejaVuSans-99"/>
     <use x="822.847656" xlink:href="#DejaVuSans-97"/>
     <use x="884.126953" xlink:href="#DejaVuSans-108"/>
     <use x="911.910156" xlink:href="#DejaVuSans-47"/>
     <use x="945.601562" xlink:href="#DejaVuSans-69"/>
     <use x="1008.785156" xlink:href="#DejaVuSans-77"/>
     <use x="1095.064453" xlink:href="#DejaVuSans-83"/>
     <use x="1158.541016" xlink:href="#DejaVuSans-69"/>
     <use x="1221.724609" xlink:href="#DejaVuSans-50"/>
     <use x="1285.347656" xlink:href="#DejaVuSans-48"/>
     <use x="1348.970703" xlink:href="#DejaVuSans-48"/>
     <use x="1412.59375" xlink:href="#DejaVuSans-48"/>
     <use x="1476.216797" xlink:href="#DejaVuSans-47"/>
     <use x="1509.908203" xlink:href="#DejaVuSans-108"/>
     <use x="1537.691406" xlink:href="#DejaVuSans-101"/>
     <use x="1599.214844" xlink:href="#DejaVuSans-114"/>
     <use x="1640.328125" xlink:href="#DejaVuSans-105"/>
     <use x="1668.111328" xlink:href="#DejaVuSans-99"/>
     <use x="1723.091797" xlink:href="#DejaVuSans-104"/>
     <use x="1786.470703" xlink:href="#DejaVuSans-101"/>
     <use x="1847.994141" xlink:href="#DejaVuSans-47"/>
     <use x="1881.685547" xlink:href="#DejaVuSans-65"/>
     <use x="1950.09375" xlink:href="#DejaVuSans-69"/>
     <use x="2013.277344" xlink:href="#DejaVuSans-83"/>
     <use x="2076.753906" xlink:href="#DejaVuSans-79"/>
     <use x="2155.464844" xlink:href="#DejaVuSans-80"/>
     <use x="2215.767578" xlink:href="#DejaVuSans-47"/>
     <use x="2249.458984" xlink:href="#DejaVuSans-69"/>
     <use x="2312.642578" xlink:href="#DejaVuSans-88"/>
     <use x="2381.148438" xlink:href="#DejaVuSans-80"/>
     <use x="2441.451172" xlink:href="#DejaVuSans-69"/>
     <use x="2504.634766" xlink:href="#DejaVuSans-95"/>
     <use x="2554.634766" xlink:href="#DejaVuSans-68"/>
     <use x="2631.636719" xlink:href="#DejaVuSans-79"/>
     <use x="2710.347656" xlink:href="#DejaVuSans-67"/>
     <use x="2780.171875" xlink:href="#DejaVuSans-79"/>
     <use x="2858.882812" xlink:href="#DejaVuSans-67"/>
     <use x="2928.707031" xlink:href="#DejaVuSans-79"/>
     <use x="3007.417969" xlink:href="#DejaVuSans-47"/>
     <use x="3041.109375" xlink:href="#DejaVuSans-98"/>
     <use x="3104.585938" xlink:href="#DejaVuSans-101"/>
     <use x="3166.109375" xlink:href="#DejaVuSans-115"/>
     <use x="3218.208984" xlink:href="#DejaVuSans-116"/>
     <use x="3257.417969" xlink:href="#DejaVuSans-67"/>
     <use x="3327.242188" xlink:href="#DejaVuSans-117"/>
     <use x="3390.621094" xlink:href="#DejaVuSans-115"/>
     <use x="3442.720703" xlink:href="#DejaVuSans-116"/>
     <use x="3481.929688" xlink:href="#DejaVuSans-111"/>
     <use x="3543.111328" xlink:href="#DejaVuSans-109"/>
     <use x="3640.523438" xlink:href="#DejaVuSans-65"/>
     <use x="3708.931641" xlink:href="#DejaVuSans-108"/>
     <use x="3736.714844" xlink:href="#DejaVuSans-103"/>
    </g>
    <!-- 15 instances -->
    <g transform="translate(60.41088 48.71028)scale(0.102 -0.102)">
     <use xlink:href="#DejaVuSans-49"/>
     <use x="63.623047" xlink:href="#DejaVuSans-53"/>
     <use x="127.246094" xlink:href="#DejaVuSans-32"/>
     <use x="159.033203" xlink:href="#DejaVuSans-105"/>
     <use x="186.816406" xlink:href="#DejaVuSans-110"/>
     <use x="250.195312" xlink:href="#DejaVuSans-115"/>
     <use x="302.294922" xlink:href="#DejaVuSans-116"/>
     <use x="341.503906" xlink:href="#DejaVuSans-97"/>
     <use x="402.783203" xlink:href="#DejaVuSans-110"/>
     <use x="466.162109" xlink:href="#DejaVuSans-99"/>
     <use x="521.142578" xlink:href="#DejaVuSans-101"/>
     <use x="582.666016" xlink:href="#DejaVuSans-115"/>
    </g>
   </g>
   <g id="text_16">
    <!-- v2.3.3.84 -->
    <g style="fill:#808080;" transform="translate(174.511187 293.909432)scale(0.1 -0.1)">
     <defs>
      <path d="M 40.578125 39.3125 
Q 47.65625 37.796875 51.625 33 
Q 55.609375 28.21875 55.609375 21.1875 
Q 55.609375 10.40625 48.1875 4.484375 
Q 40.765625 -1.421875 27.09375 -1.421875 
Q 22.515625 -1.421875 17.65625 -0.515625 
Q 12.796875 0.390625 7.625 2.203125 
L 7.625 11.71875 
Q 11.71875 9.328125 16.59375 8.109375 
Q 21.484375 6.890625 26.8125 6.890625 
Q 36.078125 6.890625 40.9375 10.546875 
Q 45.796875 14.203125 45.796875 21.1875 
Q 45.796875 27.640625 41.28125 31.265625 
Q 36.765625 34.90625 28.71875 34.90625 
L 20.21875 34.90625 
L 20.21875 43.015625 
L 29.109375 43.015625 
Q 36.375 43.015625 40.234375 45.921875 
Q 44.09375 48.828125 44.09375 54.296875 
Q 44.09375 59.90625 40.109375 62.90625 
Q 36.140625 65.921875 28.71875 65.921875 
Q 24.65625 65.921875 20.015625 65.03125 
Q 15.375 64.15625 9.8125 62.3125 
L 9.8125 71.09375 
Q 15.4375 72.65625 20.34375 73.4375 
Q 25.25 74.21875 29.59375 74.21875 
Q 40.828125 74.21875 47.359375 69.109375 
Q 53.90625 64.015625 53.90625 55.328125 
Q 53.90625 49.265625 50.4375 45.09375 
Q 46.96875 40.921875 40.578125 39.3125 
z
" id="DejaVuSans-51"/>
     </defs>
     <use xlink:href="#DejaVuSans-118"/>
     <use x="59.179688" xlink:href="#DejaVuSans-50"/>
     <use x="122.802734" xlink:href="#DejaVuSans-46"/>
     <use x="154.589844" xlink:href="#DejaVuSans-51"/>
     <use x="218.212891" xlink:href="#DejaVuSans-46"/>
     <use x="250" xlink:href="#DejaVuSans-51"/>
     <use x="313.623047" xlink:href="#DejaVuSans-46"/>
     <use x="345.410156" xlink:href="#DejaVuSans-56"/>
     <use x="409.033203" xlink:href="#DejaVuSans-52"/>
    </g>
   </g>
  </g>
 </g>
 <defs>
  <clipPath id="p6a852fcfdb">
   <rect height="295.488" width="281.088" x="57.6" y="3.456"/>
  </clipPath>
 </defs>
</svg>
