<?xml version="1.0" encoding="utf-8" standalone="no"?>
<!DOCTYPE svg PUBLIC "-//W3C//DTD SVG 1.1//EN"
  "http://www.w3.org/Graphics/SVG/1.1/DTD/svg11.dtd">
<!-- Created with matplotlib (https://matplotlib.org/) -->
<svg height="345.6pt" version="1.1" viewBox="0 0 460.8 345.6" width="460.8pt" xmlns="http://www.w3.org/2000/svg" xmlns:xlink="http://www.w3.org/1999/xlink">
 <metadata>
  <rdf:RDF xmlns:cc="http://creativecommons.org/ns#" xmlns:dc="http://purl.org/dc/elements/1.1/" xmlns:rdf="http://www.w3.org/1999/02/22-rdf-syntax-ns#">
   <cc:Work>
    <dc:type rdf:resource="http://purl.org/dc/dcmitype/StillImage"/>
    <dc:date>2020-11-21T20:51:10.593042</dc:date>
    <dc:format>image/svg+xml</dc:format>
    <dc:creator>
     <cc:Agent>
      <dc:title>Matplotlib v3.3.3, https://matplotlib.org/</dc:title>
     </cc:Agent>
    </dc:creator>
   </cc:Work>
  </rdf:RDF>
 </metadata>
 <defs>
  <style type="text/css">*{stroke-linecap:butt;stroke-linejoin:round;}</style>
 </defs>
 <g id="figure_1">
  <g id="patch_1">
   <path d="M 0 345.6 
L 460.8 345.6 
L 460.8 0 
L 0 0 
z
" style="fill:#ffffff;"/>
  </g>
  <g id="axes_1">
   <g id="patch_2">
    <path d="M 57.6 298.944 
L 338.688 298.944 
L 338.688 3.456 
L 57.6 3.456 
z
" style="fill:#ffffff;"/>
   </g>
   <g id="line2d_1">
    <path d="M 28.123014 298.944 
L 28.123014 286.223897 
L 39.158561 286.223897 
L 39.158561 260.78369 
L 72.667753 260.78369 
L 72.667753 248.063587 
L 79.282789 248.063587 
L 79.282789 235.343483 
L 129.952095 235.343483 
L 129.952095 209.903277 
L 153.727245 209.903277 
L 153.727245 197.183173 
L 199.976041 197.183173 
L 199.976041 171.742967 
L 217.22834 171.742967 
L 217.22834 159.022864 
L 223.009986 159.022864 
L 223.009986 146.30276 
L 234.463278 146.30276 
L 234.463278 133.582657 
L 237.329825 133.582657 
L 237.329825 120.862554 
L 284.113535 120.862554 
L 284.113535 108.14245 
L 292.714226 108.14245 
L 292.714226 95.422347 
L 299.181287 95.422347 
L 299.181287 82.702244 
L 300.503617 82.702244 
L 300.503617 69.98214 
L 319.554977 69.98214 
L 319.554977 44.541934 
L 338.688 44.541934 
" style="fill:none;stroke:#f5deb3;stroke-linecap:square;stroke-width:4;"/>
   </g>
   <g id="line2d_2">
    <defs>
     <path d="M -0 7.778175 
L 7.778175 0 
L 0 -7.778175 
L -7.778175 -0 
z
" id="m221935dbac" style="stroke:#f5deb3;stroke-linejoin:miter;stroke-width:1.5;"/>
    </defs>
    <g>
     <use style="fill:#f5deb3;stroke:#f5deb3;stroke-linejoin:miter;stroke-width:1.5;" x="79.282789" xlink:href="#m221935dbac" y="235.343483"/>
     <use style="fill:#f5deb3;stroke:#f5deb3;stroke-linejoin:miter;stroke-width:1.5;" x="153.727245" xlink:href="#m221935dbac" y="209.903277"/>
     <use style="fill:#f5deb3;stroke:#f5deb3;stroke-linejoin:miter;stroke-width:1.5;" x="217.22834" xlink:href="#m221935dbac" y="171.742967"/>
     <use style="fill:#f5deb3;stroke:#f5deb3;stroke-linejoin:miter;stroke-width:1.5;" x="237.329825" xlink:href="#m221935dbac" y="120.862554"/>
     <use style="fill:#f5deb3;stroke:#f5deb3;stroke-linejoin:miter;stroke-width:1.5;" x="319.554977" xlink:href="#m221935dbac" y="69.98214"/>
     <use style="fill:#f5deb3;stroke:#f5deb3;stroke-linejoin:miter;stroke-width:1.5;" x="319.554977" xlink:href="#m221935dbac" y="44.541934"/>
     <use style="fill:#f5deb3;stroke:#f5deb3;stroke-linejoin:miter;stroke-width:1.5;" x="338.688" xlink:href="#m221935dbac" y="44.541934"/>
    </g>
   </g>
   <g id="line2d_3">
    <path style="fill:none;stroke:#f5deb3;stroke-linecap:square;stroke-width:4;"/>
    <g/>
   </g>
   <g id="line2d_4">
    <path d="M 338.688 44.541934 
L 369.60768 12.232871 
" style="fill:none;stroke:#f5deb3;stroke-linecap:square;stroke-width:4;"/>
    <g>
     <use style="fill:#f5deb3;stroke:#f5deb3;stroke-linejoin:miter;stroke-width:1.5;" x="338.688" xlink:href="#m221935dbac" y="44.541934"/>
     <use style="fill:#f5deb3;stroke:#f5deb3;stroke-linejoin:miter;stroke-width:1.5;" x="369.60768" xlink:href="#m221935dbac" y="12.232871"/>
    </g>
   </g>
   <g id="matplotlib.axis_1">
    <g id="xtick_1">
     <g id="line2d_5">
      <path clip-path="url(#p02b2228f48)" d="M 57.6 298.944 
L 57.6 3.456 
" style="fill:none;stroke:#b0b0b0;stroke-linecap:square;stroke-width:0.8;"/>
     </g>
     <g id="line2d_6">
      <defs>
       <path d="M 0 0 
L 0 3.5 
" id="m70c8c7dc8a" style="stroke:#000000;stroke-width:0.8;"/>
      </defs>
      <g>
       <use style="stroke:#000000;stroke-width:0.8;" x="57.6" xlink:href="#m70c8c7dc8a" y="298.944"/>
      </g>
     </g>
     <g id="text_1">
      <!-- 0 -->
      <g transform="translate(51.2375 321.140875)scale(0.2 -0.2)">
       <defs>
        <path d="M 31.78125 66.40625 
Q 24.171875 66.40625 20.328125 58.90625 
Q 16.5 51.421875 16.5 36.375 
Q 16.5 21.390625 20.328125 13.890625 
Q 24.171875 6.390625 31.78125 6.390625 
Q 39.453125 6.390625 43.28125 13.890625 
Q 47.125 21.390625 47.125 36.375 
Q 47.125 51.421875 43.28125 58.90625 
Q 39.453125 66.40625 31.78125 66.40625 
z
M 31.78125 74.21875 
Q 44.046875 74.21875 50.515625 64.515625 
Q 56.984375 54.828125 56.984375 36.375 
Q 56.984375 17.96875 50.515625 8.265625 
Q 44.046875 -1.421875 31.78125 -1.421875 
Q 19.53125 -1.421875 13.0625 8.265625 
Q 6.59375 17.96875 6.59375 36.375 
Q 6.59375 54.828125 13.0625 64.515625 
Q 19.53125 74.21875 31.78125 74.21875 
z
" id="DejaVuSans-48"/>
       </defs>
       <use xlink:href="#DejaVuSans-48"/>
      </g>
     </g>
    </g>
    <g id="xtick_2">
     <g id="line2d_7">
      <path clip-path="url(#p02b2228f48)" d="M 247.894466 298.944 
L 247.894466 3.456 
" style="fill:none;stroke:#b0b0b0;stroke-linecap:square;stroke-width:0.8;"/>
     </g>
     <g id="line2d_8">
      <defs>
       <path d="M 0 0 
L 0 2 
" id="m3d90336310" style="stroke:#000000;stroke-width:0.6;"/>
      </defs>
      <g>
       <use style="stroke:#000000;stroke-width:0.6;" x="247.894466" xlink:href="#m3d90336310" y="298.944"/>
      </g>
     </g>
    </g>
    <g id="text_2">
     <!-- log10(# f-evals / dimension) -->
     <g transform="translate(77.764078 342.217594)scale(0.17 -0.17)">
      <defs>
       <path d="M 9.421875 75.984375 
L 18.40625 75.984375 
L 18.40625 0 
L 9.421875 0 
z
" id="DejaVuSans-108"/>
       <path d="M 30.609375 48.390625 
Q 23.390625 48.390625 19.1875 42.75 
Q 14.984375 37.109375 14.984375 27.296875 
Q 14.984375 17.484375 19.15625 11.84375 
Q 23.34375 6.203125 30.609375 6.203125 
Q 37.796875 6.203125 41.984375 11.859375 
Q 46.1875 17.53125 46.1875 27.296875 
Q 46.1875 37.015625 41.984375 42.703125 
Q 37.796875 48.390625 30.609375 48.390625 
z
M 30.609375 56 
Q 42.328125 56 49.015625 48.375 
Q 55.71875 40.765625 55.71875 27.296875 
Q 55.71875 13.875 49.015625 6.21875 
Q 42.328125 -1.421875 30.609375 -1.421875 
Q 18.84375 -1.421875 12.171875 6.21875 
Q 5.515625 13.875 5.515625 27.296875 
Q 5.515625 40.765625 12.171875 48.375 
Q 18.84375 56 30.609375 56 
z
" id="DejaVuSans-111"/>
       <path d="M 45.40625 27.984375 
Q 45.40625 37.75 41.375 43.109375 
Q 37.359375 48.484375 30.078125 48.484375 
Q 22.859375 48.484375 18.828125 43.109375 
Q 14.796875 37.75 14.796875 27.984375 
Q 14.796875 18.265625 18.828125 12.890625 
Q 22.859375 7.515625 30.078125 7.515625 
Q 37.359375 7.515625 41.375 12.890625 
Q 45.40625 18.265625 45.40625 27.984375 
z
M 54.390625 6.78125 
Q 54.390625 -7.171875 48.1875 -13.984375 
Q 42 -20.796875 29.203125 -20.796875 
Q 24.46875 -20.796875 20.265625 -20.09375 
Q 16.0625 -19.390625 12.109375 -17.921875 
L 12.109375 -9.1875 
Q 16.0625 -11.328125 19.921875 -12.34375 
Q 23.78125 -13.375 27.78125 -13.375 
Q 36.625 -13.375 41.015625 -8.765625 
Q 45.40625 -4.15625 45.40625 5.171875 
L 45.40625 9.625 
Q 42.625 4.78125 38.28125 2.390625 
Q 33.9375 0 27.875 0 
Q 17.828125 0 11.671875 7.65625 
Q 5.515625 15.328125 5.515625 27.984375 
Q 5.515625 40.671875 11.671875 48.328125 
Q 17.828125 56 27.875 56 
Q 33.9375 56 38.28125 53.609375 
Q 42.625 51.21875 45.40625 46.390625 
L 45.40625 54.6875 
L 54.390625 54.6875 
z
" id="DejaVuSans-103"/>
       <path d="M 12.40625 8.296875 
L 28.515625 8.296875 
L 28.515625 63.921875 
L 10.984375 60.40625 
L 10.984375 69.390625 
L 28.421875 72.90625 
L 38.28125 72.90625 
L 38.28125 8.296875 
L 54.390625 8.296875 
L 54.390625 0 
L 12.40625 0 
z
" id="DejaVuSans-49"/>
       <path d="M 31 75.875 
Q 24.46875 64.65625 21.28125 53.65625 
Q 18.109375 42.671875 18.109375 31.390625 
Q 18.109375 20.125 21.3125 9.0625 
Q 24.515625 -2 31 -13.1875 
L 23.1875 -13.1875 
Q 15.875 -1.703125 12.234375 9.375 
Q 8.59375 20.453125 8.59375 31.390625 
Q 8.59375 42.28125 12.203125 53.3125 
Q 15.828125 64.359375 23.1875 75.875 
z
" id="DejaVuSans-40"/>
       <path d="M 51.125 44 
L 36.921875 44 
L 32.8125 27.6875 
L 47.125 27.6875 
z
M 43.796875 71.78125 
L 38.71875 51.515625 
L 52.984375 51.515625 
L 58.109375 71.78125 
L 65.921875 71.78125 
L 60.890625 51.515625 
L 76.125 51.515625 
L 76.125 44 
L 58.984375 44 
L 54.984375 27.6875 
L 70.515625 27.6875 
L 70.515625 20.21875 
L 53.078125 20.21875 
L 48 0 
L 40.1875 0 
L 45.21875 20.21875 
L 30.90625 20.21875 
L 25.875 0 
L 18.015625 0 
L 23.09375 20.21875 
L 7.71875 20.21875 
L 7.71875 27.6875 
L 24.90625 27.6875 
L 29 44 
L 13.28125 44 
L 13.28125 51.515625 
L 30.90625 51.515625 
L 35.890625 71.78125 
z
" id="DejaVuSans-35"/>
       <path id="DejaVuSans-32"/>
       <path d="M 37.109375 75.984375 
L 37.109375 68.5 
L 28.515625 68.5 
Q 23.6875 68.5 21.796875 66.546875 
Q 19.921875 64.59375 19.921875 59.515625 
L 19.921875 54.6875 
L 34.71875 54.6875 
L 34.71875 47.703125 
L 19.921875 47.703125 
L 19.921875 0 
L 10.890625 0 
L 10.890625 47.703125 
L 2.296875 47.703125 
L 2.296875 54.6875 
L 10.890625 54.6875 
L 10.890625 58.5 
Q 10.890625 67.625 15.140625 71.796875 
Q 19.390625 75.984375 28.609375 75.984375 
z
" id="DejaVuSans-102"/>
       <path d="M 4.890625 31.390625 
L 31.203125 31.390625 
L 31.203125 23.390625 
L 4.890625 23.390625 
z
" id="DejaVuSans-45"/>
       <path d="M 56.203125 29.59375 
L 56.203125 25.203125 
L 14.890625 25.203125 
Q 15.484375 15.921875 20.484375 11.0625 
Q 25.484375 6.203125 34.421875 6.203125 
Q 39.59375 6.203125 44.453125 7.46875 
Q 49.3125 8.734375 54.109375 11.28125 
L 54.109375 2.78125 
Q 49.265625 0.734375 44.1875 -0.34375 
Q 39.109375 -1.421875 33.890625 -1.421875 
Q 20.796875 -1.421875 13.15625 6.1875 
Q 5.515625 13.8125 5.515625 26.8125 
Q 5.515625 40.234375 12.765625 48.109375 
Q 20.015625 56 32.328125 56 
Q 43.359375 56 49.78125 48.890625 
Q 56.203125 41.796875 56.203125 29.59375 
z
M 47.21875 32.234375 
Q 47.125 39.59375 43.09375 43.984375 
Q 39.0625 48.390625 32.421875 48.390625 
Q 24.90625 48.390625 20.390625 44.140625 
Q 15.875 39.890625 15.1875 32.171875 
z
" id="DejaVuSans-101"/>
       <path d="M 2.984375 54.6875 
L 12.5 54.6875 
L 29.59375 8.796875 
L 46.6875 54.6875 
L 56.203125 54.6875 
L 35.6875 0 
L 23.484375 0 
z
" id="DejaVuSans-118"/>
       <path d="M 34.28125 27.484375 
Q 23.390625 27.484375 19.1875 25 
Q 14.984375 22.515625 14.984375 16.5 
Q 14.984375 11.71875 18.140625 8.90625 
Q 21.296875 6.109375 26.703125 6.109375 
Q 34.1875 6.109375 38.703125 11.40625 
Q 43.21875 16.703125 43.21875 25.484375 
L 43.21875 27.484375 
z
M 52.203125 31.203125 
L 52.203125 0 
L 43.21875 0 
L 43.21875 8.296875 
Q 40.140625 3.328125 35.546875 0.953125 
Q 30.953125 -1.421875 24.3125 -1.421875 
Q 15.921875 -1.421875 10.953125 3.296875 
Q 6 8.015625 6 15.921875 
Q 6 25.140625 12.171875 29.828125 
Q 18.359375 34.515625 30.609375 34.515625 
L 43.21875 34.515625 
L 43.21875 35.40625 
Q 43.21875 41.609375 39.140625 45 
Q 35.0625 48.390625 27.6875 48.390625 
Q 23 48.390625 18.546875 47.265625 
Q 14.109375 46.140625 10.015625 43.890625 
L 10.015625 52.203125 
Q 14.9375 54.109375 19.578125 55.046875 
Q 24.21875 56 28.609375 56 
Q 40.484375 56 46.34375 49.84375 
Q 52.203125 43.703125 52.203125 31.203125 
z
" id="DejaVuSans-97"/>
       <path d="M 44.28125 53.078125 
L 44.28125 44.578125 
Q 40.484375 46.53125 36.375 47.5 
Q 32.28125 48.484375 27.875 48.484375 
Q 21.1875 48.484375 17.84375 46.4375 
Q 14.5 44.390625 14.5 40.28125 
Q 14.5 37.15625 16.890625 35.375 
Q 19.28125 33.59375 26.515625 31.984375 
L 29.59375 31.296875 
Q 39.15625 29.25 43.1875 25.515625 
Q 47.21875 21.78125 47.21875 15.09375 
Q 47.21875 7.46875 41.1875 3.015625 
Q 35.15625 -1.421875 24.609375 -1.421875 
Q 20.21875 -1.421875 15.453125 -0.5625 
Q 10.6875 0.296875 5.421875 2 
L 5.421875 11.28125 
Q 10.40625 8.6875 15.234375 7.390625 
Q 20.0625 6.109375 24.8125 6.109375 
Q 31.15625 6.109375 34.5625 8.28125 
Q 37.984375 10.453125 37.984375 14.40625 
Q 37.984375 18.0625 35.515625 20.015625 
Q 33.0625 21.96875 24.703125 23.78125 
L 21.578125 24.515625 
Q 13.234375 26.265625 9.515625 29.90625 
Q 5.8125 33.546875 5.8125 39.890625 
Q 5.8125 47.609375 11.28125 51.796875 
Q 16.75 56 26.8125 56 
Q 31.78125 56 36.171875 55.265625 
Q 40.578125 54.546875 44.28125 53.078125 
z
" id="DejaVuSans-115"/>
       <path d="M 25.390625 72.90625 
L 33.6875 72.90625 
L 8.296875 -9.28125 
L 0 -9.28125 
z
" id="DejaVuSans-47"/>
       <path d="M 45.40625 46.390625 
L 45.40625 75.984375 
L 54.390625 75.984375 
L 54.390625 0 
L 45.40625 0 
L 45.40625 8.203125 
Q 42.578125 3.328125 38.25 0.953125 
Q 33.9375 -1.421875 27.875 -1.421875 
Q 17.96875 -1.421875 11.734375 6.484375 
Q 5.515625 14.40625 5.515625 27.296875 
Q 5.515625 40.1875 11.734375 48.09375 
Q 17.96875 56 27.875 56 
Q 33.9375 56 38.25 53.625 
Q 42.578125 51.265625 45.40625 46.390625 
z
M 14.796875 27.296875 
Q 14.796875 17.390625 18.875 11.75 
Q 22.953125 6.109375 30.078125 6.109375 
Q 37.203125 6.109375 41.296875 11.75 
Q 45.40625 17.390625 45.40625 27.296875 
Q 45.40625 37.203125 41.296875 42.84375 
Q 37.203125 48.484375 30.078125 48.484375 
Q 22.953125 48.484375 18.875 42.84375 
Q 14.796875 37.203125 14.796875 27.296875 
z
" id="DejaVuSans-100"/>
       <path d="M 9.421875 54.6875 
L 18.40625 54.6875 
L 18.40625 0 
L 9.421875 0 
z
M 9.421875 75.984375 
L 18.40625 75.984375 
L 18.40625 64.59375 
L 9.421875 64.59375 
z
" id="DejaVuSans-105"/>
       <path d="M 52 44.1875 
Q 55.375 50.25 60.0625 53.125 
Q 64.75 56 71.09375 56 
Q 79.640625 56 84.28125 50.015625 
Q 88.921875 44.046875 88.921875 33.015625 
L 88.921875 0 
L 79.890625 0 
L 79.890625 32.71875 
Q 79.890625 40.578125 77.09375 44.375 
Q 74.3125 48.1875 68.609375 48.1875 
Q 61.625 48.1875 57.5625 43.546875 
Q 53.515625 38.921875 53.515625 30.90625 
L 53.515625 0 
L 44.484375 0 
L 44.484375 32.71875 
Q 44.484375 40.625 41.703125 44.40625 
Q 38.921875 48.1875 33.109375 48.1875 
Q 26.21875 48.1875 22.15625 43.53125 
Q 18.109375 38.875 18.109375 30.90625 
L 18.109375 0 
L 9.078125 0 
L 9.078125 54.6875 
L 18.109375 54.6875 
L 18.109375 46.1875 
Q 21.1875 51.21875 25.484375 53.609375 
Q 29.78125 56 35.6875 56 
Q 41.65625 56 45.828125 52.96875 
Q 50 49.953125 52 44.1875 
z
" id="DejaVuSans-109"/>
       <path d="M 54.890625 33.015625 
L 54.890625 0 
L 45.90625 0 
L 45.90625 32.71875 
Q 45.90625 40.484375 42.875 44.328125 
Q 39.84375 48.1875 33.796875 48.1875 
Q 26.515625 48.1875 22.3125 43.546875 
Q 18.109375 38.921875 18.109375 30.90625 
L 18.109375 0 
L 9.078125 0 
L 9.078125 54.6875 
L 18.109375 54.6875 
L 18.109375 46.1875 
Q 21.34375 51.125 25.703125 53.5625 
Q 30.078125 56 35.796875 56 
Q 45.21875 56 50.046875 50.171875 
Q 54.890625 44.34375 54.890625 33.015625 
z
" id="DejaVuSans-110"/>
       <path d="M 8.015625 75.875 
L 15.828125 75.875 
Q 23.140625 64.359375 26.78125 53.3125 
Q 30.421875 42.28125 30.421875 31.390625 
Q 30.421875 20.453125 26.78125 9.375 
Q 23.140625 -1.703125 15.828125 -13.1875 
L 8.015625 -13.1875 
Q 14.5 -2 17.703125 9.0625 
Q 20.90625 20.125 20.90625 31.390625 
Q 20.90625 42.671875 17.703125 53.65625 
Q 14.5 64.65625 8.015625 75.875 
z
" id="DejaVuSans-41"/>
      </defs>
      <use xlink:href="#DejaVuSans-108"/>
      <use x="27.783203" xlink:href="#DejaVuSans-111"/>
      <use x="88.964844" xlink:href="#DejaVuSans-103"/>
      <use x="152.441406" xlink:href="#DejaVuSans-49"/>
      <use x="216.064453" xlink:href="#DejaVuSans-48"/>
      <use x="279.6875" xlink:href="#DejaVuSans-40"/>
      <use x="318.701172" xlink:href="#DejaVuSans-35"/>
      <use x="402.490234" xlink:href="#DejaVuSans-32"/>
      <use x="434.277344" xlink:href="#DejaVuSans-102"/>
      <use x="463.982422" xlink:href="#DejaVuSans-45"/>
      <use x="500.066406" xlink:href="#DejaVuSans-101"/>
      <use x="561.589844" xlink:href="#DejaVuSans-118"/>
      <use x="620.769531" xlink:href="#DejaVuSans-97"/>
      <use x="682.048828" xlink:href="#DejaVuSans-108"/>
      <use x="709.832031" xlink:href="#DejaVuSans-115"/>
      <use x="761.931641" xlink:href="#DejaVuSans-32"/>
      <use x="793.71875" xlink:href="#DejaVuSans-47"/>
      <use x="827.410156" xlink:href="#DejaVuSans-32"/>
      <use x="859.197266" xlink:href="#DejaVuSans-100"/>
      <use x="922.673828" xlink:href="#DejaVuSans-105"/>
      <use x="950.457031" xlink:href="#DejaVuSans-109"/>
      <use x="1047.869141" xlink:href="#DejaVuSans-101"/>
      <use x="1109.392578" xlink:href="#DejaVuSans-110"/>
      <use x="1172.771484" xlink:href="#DejaVuSans-115"/>
      <use x="1224.871094" xlink:href="#DejaVuSans-105"/>
      <use x="1252.654297" xlink:href="#DejaVuSans-111"/>
      <use x="1313.835938" xlink:href="#DejaVuSans-110"/>
      <use x="1377.214844" xlink:href="#DejaVuSans-41"/>
     </g>
    </g>
   </g>
   <g id="matplotlib.axis_2">
    <g id="ytick_1">
     <g id="line2d_9">
      <path clip-path="url(#p02b2228f48)" d="M 57.6 298.944 
L 338.688 298.944 
" style="fill:none;stroke:#b0b0b0;stroke-linecap:square;stroke-width:0.8;"/>
     </g>
     <g id="line2d_10">
      <defs>
       <path d="M 0 0 
L -3.5 0 
" id="m4157fae8a3" style="stroke:#000000;stroke-width:0.8;"/>
      </defs>
      <g>
       <use style="stroke:#000000;stroke-width:0.8;" x="57.6" xlink:href="#m4157fae8a3" y="298.944"/>
      </g>
     </g>
     <g id="text_3">
      <!-- 0.0 -->
      <g transform="translate(25.155 305.02275)scale(0.16 -0.16)">
       <defs>
        <path d="M 10.6875 12.40625 
L 21 12.40625 
L 21 0 
L 10.6875 0 
z
" id="DejaVuSans-46"/>
       </defs>
       <use xlink:href="#DejaVuSans-48"/>
       <use x="63.623047" xlink:href="#DejaVuSans-46"/>
       <use x="95.410156" xlink:href="#DejaVuSans-48"/>
      </g>
     </g>
    </g>
    <g id="ytick_2">
     <g id="line2d_11">
      <path clip-path="url(#p02b2228f48)" d="M 57.6 240.431525 
L 338.688 240.431525 
" style="fill:none;stroke:#b0b0b0;stroke-linecap:square;stroke-width:0.8;"/>
     </g>
     <g id="line2d_12">
      <g>
       <use style="stroke:#000000;stroke-width:0.8;" x="57.6" xlink:href="#m4157fae8a3" y="240.431525"/>
      </g>
     </g>
     <g id="text_4">
      <!-- 0.2 -->
      <g transform="translate(25.155 246.510275)scale(0.16 -0.16)">
       <defs>
        <path d="M 19.1875 8.296875 
L 53.609375 8.296875 
L 53.609375 0 
L 7.328125 0 
L 7.328125 8.296875 
Q 12.9375 14.109375 22.625 23.890625 
Q 32.328125 33.6875 34.8125 36.53125 
Q 39.546875 41.84375 41.421875 45.53125 
Q 43.3125 49.21875 43.3125 52.78125 
Q 43.3125 58.59375 39.234375 62.25 
Q 35.15625 65.921875 28.609375 65.921875 
Q 23.96875 65.921875 18.8125 64.3125 
Q 13.671875 62.703125 7.8125 59.421875 
L 7.8125 69.390625 
Q 13.765625 71.78125 18.9375 73 
Q 24.125 74.21875 28.421875 74.21875 
Q 39.75 74.21875 46.484375 68.546875 
Q 53.21875 62.890625 53.21875 53.421875 
Q 53.21875 48.921875 51.53125 44.890625 
Q 49.859375 40.875 45.40625 35.40625 
Q 44.1875 33.984375 37.640625 27.21875 
Q 31.109375 20.453125 19.1875 8.296875 
z
" id="DejaVuSans-50"/>
       </defs>
       <use xlink:href="#DejaVuSans-48"/>
       <use x="63.623047" xlink:href="#DejaVuSans-46"/>
       <use x="95.410156" xlink:href="#DejaVuSans-50"/>
      </g>
     </g>
    </g>
    <g id="ytick_3">
     <g id="line2d_13">
      <path clip-path="url(#p02b2228f48)" d="M 57.6 181.91905 
L 338.688 181.91905 
" style="fill:none;stroke:#b0b0b0;stroke-linecap:square;stroke-width:0.8;"/>
     </g>
     <g id="line2d_14">
      <g>
       <use style="stroke:#000000;stroke-width:0.8;" x="57.6" xlink:href="#m4157fae8a3" y="181.91905"/>
      </g>
     </g>
     <g id="text_5">
      <!-- 0.4 -->
      <g transform="translate(25.155 187.9978)scale(0.16 -0.16)">
       <defs>
        <path d="M 37.796875 64.3125 
L 12.890625 25.390625 
L 37.796875 25.390625 
z
M 35.203125 72.90625 
L 47.609375 72.90625 
L 47.609375 25.390625 
L 58.015625 25.390625 
L 58.015625 17.1875 
L 47.609375 17.1875 
L 47.609375 0 
L 37.796875 0 
L 37.796875 17.1875 
L 4.890625 17.1875 
L 4.890625 26.703125 
z
" id="DejaVuSans-52"/>
       </defs>
       <use xlink:href="#DejaVuSans-48"/>
       <use x="63.623047" xlink:href="#DejaVuSans-46"/>
       <use x="95.410156" xlink:href="#DejaVuSans-52"/>
      </g>
     </g>
    </g>
    <g id="ytick_4">
     <g id="line2d_15">
      <path clip-path="url(#p02b2228f48)" d="M 57.6 123.406574 
L 338.688 123.406574 
" style="fill:none;stroke:#b0b0b0;stroke-linecap:square;stroke-width:0.8;"/>
     </g>
     <g id="line2d_16">
      <g>
       <use style="stroke:#000000;stroke-width:0.8;" x="57.6" xlink:href="#m4157fae8a3" y="123.406574"/>
      </g>
     </g>
     <g id="text_6">
      <!-- 0.6 -->
      <g transform="translate(25.155 129.485324)scale(0.16 -0.16)">
       <defs>
        <path d="M 33.015625 40.375 
Q 26.375 40.375 22.484375 35.828125 
Q 18.609375 31.296875 18.609375 23.390625 
Q 18.609375 15.53125 22.484375 10.953125 
Q 26.375 6.390625 33.015625 6.390625 
Q 39.65625 6.390625 43.53125 10.953125 
Q 47.40625 15.53125 47.40625 23.390625 
Q 47.40625 31.296875 43.53125 35.828125 
Q 39.65625 40.375 33.015625 40.375 
z
M 52.59375 71.296875 
L 52.59375 62.3125 
Q 48.875 64.0625 45.09375 64.984375 
Q 41.3125 65.921875 37.59375 65.921875 
Q 27.828125 65.921875 22.671875 59.328125 
Q 17.53125 52.734375 16.796875 39.40625 
Q 19.671875 43.65625 24.015625 45.921875 
Q 28.375 48.1875 33.59375 48.1875 
Q 44.578125 48.1875 50.953125 41.515625 
Q 57.328125 34.859375 57.328125 23.390625 
Q 57.328125 12.15625 50.6875 5.359375 
Q 44.046875 -1.421875 33.015625 -1.421875 
Q 20.359375 -1.421875 13.671875 8.265625 
Q 6.984375 17.96875 6.984375 36.375 
Q 6.984375 53.65625 15.1875 63.9375 
Q 23.390625 74.21875 37.203125 74.21875 
Q 40.921875 74.21875 44.703125 73.484375 
Q 48.484375 72.75 52.59375 71.296875 
z
" id="DejaVuSans-54"/>
       </defs>
       <use xlink:href="#DejaVuSans-48"/>
       <use x="63.623047" xlink:href="#DejaVuSans-46"/>
       <use x="95.410156" xlink:href="#DejaVuSans-54"/>
      </g>
     </g>
    </g>
    <g id="ytick_5">
     <g id="line2d_17">
      <path clip-path="url(#p02b2228f48)" d="M 57.6 64.894099 
L 338.688 64.894099 
" style="fill:none;stroke:#b0b0b0;stroke-linecap:square;stroke-width:0.8;"/>
     </g>
     <g id="line2d_18">
      <g>
       <use style="stroke:#000000;stroke-width:0.8;" x="57.6" xlink:href="#m4157fae8a3" y="64.894099"/>
      </g>
     </g>
     <g id="text_7">
      <!-- 0.8 -->
      <g transform="translate(25.155 70.972849)scale(0.16 -0.16)">
       <defs>
        <path d="M 31.78125 34.625 
Q 24.75 34.625 20.71875 30.859375 
Q 16.703125 27.09375 16.703125 20.515625 
Q 16.703125 13.921875 20.71875 10.15625 
Q 24.75 6.390625 31.78125 6.390625 
Q 38.8125 6.390625 42.859375 10.171875 
Q 46.921875 13.96875 46.921875 20.515625 
Q 46.921875 27.09375 42.890625 30.859375 
Q 38.875 34.625 31.78125 34.625 
z
M 21.921875 38.8125 
Q 15.578125 40.375 12.03125 44.71875 
Q 8.5 49.078125 8.5 55.328125 
Q 8.5 64.0625 14.71875 69.140625 
Q 20.953125 74.21875 31.78125 74.21875 
Q 42.671875 74.21875 48.875 69.140625 
Q 55.078125 64.0625 55.078125 55.328125 
Q 55.078125 49.078125 51.53125 44.71875 
Q 48 40.375 41.703125 38.8125 
Q 48.828125 37.15625 52.796875 32.3125 
Q 56.78125 27.484375 56.78125 20.515625 
Q 56.78125 9.90625 50.3125 4.234375 
Q 43.84375 -1.421875 31.78125 -1.421875 
Q 19.734375 -1.421875 13.25 4.234375 
Q 6.78125 9.90625 6.78125 20.515625 
Q 6.78125 27.484375 10.78125 32.3125 
Q 14.796875 37.15625 21.921875 38.8125 
z
M 18.3125 54.390625 
Q 18.3125 48.734375 21.84375 45.5625 
Q 25.390625 42.390625 31.78125 42.390625 
Q 38.140625 42.390625 41.71875 45.5625 
Q 45.3125 48.734375 45.3125 54.390625 
Q 45.3125 60.0625 41.71875 63.234375 
Q 38.140625 66.40625 31.78125 66.40625 
Q 25.390625 66.40625 21.84375 63.234375 
Q 18.3125 60.0625 18.3125 54.390625 
z
" id="DejaVuSans-56"/>
       </defs>
       <use xlink:href="#DejaVuSans-48"/>
       <use x="63.623047" xlink:href="#DejaVuSans-46"/>
       <use x="95.410156" xlink:href="#DejaVuSans-56"/>
      </g>
     </g>
    </g>
    <g id="ytick_6">
     <g id="line2d_19">
      <path clip-path="url(#p02b2228f48)" d="M 57.6 6.381624 
L 338.688 6.381624 
" style="fill:none;stroke:#b0b0b0;stroke-linecap:square;stroke-width:0.8;"/>
     </g>
     <g id="line2d_20">
      <g>
       <use style="stroke:#000000;stroke-width:0.8;" x="57.6" xlink:href="#m4157fae8a3" y="6.381624"/>
      </g>
     </g>
     <g id="text_8">
      <!-- 1.0 -->
      <g transform="translate(25.155 12.460374)scale(0.16 -0.16)">
       <use xlink:href="#DejaVuSans-49"/>
       <use x="63.623047" xlink:href="#DejaVuSans-46"/>
       <use x="95.410156" xlink:href="#DejaVuSans-48"/>
      </g>
     </g>
    </g>
    <g id="text_9">
     <!-- Fraction of function,target pairs -->
     <g transform="translate(17.619531 285.585)rotate(-90)scale(0.17 -0.17)">
      <defs>
       <path d="M 9.8125 72.90625 
L 51.703125 72.90625 
L 51.703125 64.59375 
L 19.671875 64.59375 
L 19.671875 43.109375 
L 48.578125 43.109375 
L 48.578125 34.8125 
L 19.671875 34.8125 
L 19.671875 0 
L 9.8125 0 
z
" id="DejaVuSans-70"/>
       <path d="M 41.109375 46.296875 
Q 39.59375 47.171875 37.8125 47.578125 
Q 36.03125 48 33.890625 48 
Q 26.265625 48 22.1875 43.046875 
Q 18.109375 38.09375 18.109375 28.8125 
L 18.109375 0 
L 9.078125 0 
L 9.078125 54.6875 
L 18.109375 54.6875 
L 18.109375 46.1875 
Q 20.953125 51.171875 25.484375 53.578125 
Q 30.03125 56 36.53125 56 
Q 37.453125 56 38.578125 55.875 
Q 39.703125 55.765625 41.0625 55.515625 
z
" id="DejaVuSans-114"/>
       <path d="M 48.78125 52.59375 
L 48.78125 44.1875 
Q 44.96875 46.296875 41.140625 47.34375 
Q 37.3125 48.390625 33.40625 48.390625 
Q 24.65625 48.390625 19.8125 42.84375 
Q 14.984375 37.3125 14.984375 27.296875 
Q 14.984375 17.28125 19.8125 11.734375 
Q 24.65625 6.203125 33.40625 6.203125 
Q 37.3125 6.203125 41.140625 7.25 
Q 44.96875 8.296875 48.78125 10.40625 
L 48.78125 2.09375 
Q 45.015625 0.34375 40.984375 -0.53125 
Q 36.96875 -1.421875 32.421875 -1.421875 
Q 20.0625 -1.421875 12.78125 6.34375 
Q 5.515625 14.109375 5.515625 27.296875 
Q 5.515625 40.671875 12.859375 48.328125 
Q 20.21875 56 33.015625 56 
Q 37.15625 56 41.109375 55.140625 
Q 45.0625 54.296875 48.78125 52.59375 
z
" id="DejaVuSans-99"/>
       <path d="M 18.3125 70.21875 
L 18.3125 54.6875 
L 36.8125 54.6875 
L 36.8125 47.703125 
L 18.3125 47.703125 
L 18.3125 18.015625 
Q 18.3125 11.328125 20.140625 9.421875 
Q 21.96875 7.515625 27.59375 7.515625 
L 36.8125 7.515625 
L 36.8125 0 
L 27.59375 0 
Q 17.1875 0 13.234375 3.875 
Q 9.28125 7.765625 9.28125 18.015625 
L 9.28125 47.703125 
L 2.6875 47.703125 
L 2.6875 54.6875 
L 9.28125 54.6875 
L 9.28125 70.21875 
z
" id="DejaVuSans-116"/>
       <path d="M 8.5 21.578125 
L 8.5 54.6875 
L 17.484375 54.6875 
L 17.484375 21.921875 
Q 17.484375 14.15625 20.5 10.265625 
Q 23.53125 6.390625 29.59375 6.390625 
Q 36.859375 6.390625 41.078125 11.03125 
Q 45.3125 15.671875 45.3125 23.6875 
L 45.3125 54.6875 
L 54.296875 54.6875 
L 54.296875 0 
L 45.3125 0 
L 45.3125 8.40625 
Q 42.046875 3.421875 37.71875 1 
Q 33.40625 -1.421875 27.6875 -1.421875 
Q 18.265625 -1.421875 13.375 4.4375 
Q 8.5 10.296875 8.5 21.578125 
z
M 31.109375 56 
z
" id="DejaVuSans-117"/>
       <path d="M 11.71875 12.40625 
L 22.015625 12.40625 
L 22.015625 4 
L 14.015625 -11.625 
L 7.71875 -11.625 
L 11.71875 4 
z
" id="DejaVuSans-44"/>
       <path d="M 18.109375 8.203125 
L 18.109375 -20.796875 
L 9.078125 -20.796875 
L 9.078125 54.6875 
L 18.109375 54.6875 
L 18.109375 46.390625 
Q 20.953125 51.265625 25.265625 53.625 
Q 29.59375 56 35.59375 56 
Q 45.5625 56 51.78125 48.09375 
Q 58.015625 40.1875 58.015625 27.296875 
Q 58.015625 14.40625 51.78125 6.484375 
Q 45.5625 -1.421875 35.59375 -1.421875 
Q 29.59375 -1.421875 25.265625 0.953125 
Q 20.953125 3.328125 18.109375 8.203125 
z
M 48.6875 27.296875 
Q 48.6875 37.203125 44.609375 42.84375 
Q 40.53125 48.484375 33.40625 48.484375 
Q 26.265625 48.484375 22.1875 42.84375 
Q 18.109375 37.203125 18.109375 27.296875 
Q 18.109375 17.390625 22.1875 11.75 
Q 26.265625 6.109375 33.40625 6.109375 
Q 40.53125 6.109375 44.609375 11.75 
Q 48.6875 17.390625 48.6875 27.296875 
z
" id="DejaVuSans-112"/>
      </defs>
      <use xlink:href="#DejaVuSans-70"/>
      <use x="50.269531" xlink:href="#DejaVuSans-114"/>
      <use x="91.382812" xlink:href="#DejaVuSans-97"/>
      <use x="152.662109" xlink:href="#DejaVuSans-99"/>
      <use x="207.642578" xlink:href="#DejaVuSans-116"/>
      <use x="246.851562" xlink:href="#DejaVuSans-105"/>
      <use x="274.634766" xlink:href="#DejaVuSans-111"/>
      <use x="335.816406" xlink:href="#DejaVuSans-110"/>
      <use x="399.195312" xlink:href="#DejaVuSans-32"/>
      <use x="430.982422" xlink:href="#DejaVuSans-111"/>
      <use x="492.164062" xlink:href="#DejaVuSans-102"/>
      <use x="527.369141" xlink:href="#DejaVuSans-32"/>
      <use x="559.15625" xlink:href="#DejaVuSans-102"/>
      <use x="594.361328" xlink:href="#DejaVuSans-117"/>
      <use x="657.740234" xlink:href="#DejaVuSans-110"/>
      <use x="721.119141" xlink:href="#DejaVuSans-99"/>
      <use x="776.099609" xlink:href="#DejaVuSans-116"/>
      <use x="815.308594" xlink:href="#DejaVuSans-105"/>
      <use x="843.091797" xlink:href="#DejaVuSans-111"/>
      <use x="904.273438" xlink:href="#DejaVuSans-110"/>
      <use x="967.652344" xlink:href="#DejaVuSans-44"/>
      <use x="999.439453" xlink:href="#DejaVuSans-116"/>
      <use x="1038.648438" xlink:href="#DejaVuSans-97"/>
      <use x="1099.927734" xlink:href="#DejaVuSans-114"/>
      <use x="1139.291016" xlink:href="#DejaVuSans-103"/>
      <use x="1202.767578" xlink:href="#DejaVuSans-101"/>
      <use x="1264.291016" xlink:href="#DejaVuSans-116"/>
      <use x="1303.5" xlink:href="#DejaVuSans-32"/>
      <use x="1335.287109" xlink:href="#DejaVuSans-112"/>
      <use x="1398.763672" xlink:href="#DejaVuSans-97"/>
      <use x="1460.042969" xlink:href="#DejaVuSans-105"/>
      <use x="1487.826172" xlink:href="#DejaVuSans-114"/>
      <use x="1528.939453" xlink:href="#DejaVuSans-115"/>
     </g>
    </g>
   </g>
   <g id="line2d_21">
    <defs>
     <path d="M 0 1.5 
C 0.397805 1.5 0.77937 1.341951 1.06066 1.06066 
C 1.341951 0.77937 1.5 0.397805 1.5 0 
C 1.5 -0.397805 1.341951 -0.77937 1.06066 -1.06066 
C 0.77937 -1.341951 0.397805 -1.5 0 -1.5 
C -0.397805 -1.5 -0.77937 -1.341951 -1.06066 -1.06066 
C -1.341951 -0.77937 -1.5 -0.397805 -1.5 0 
C -1.5 0.397805 -1.341951 0.77937 -1.06066 1.06066 
C -0.77937 1.341951 -0.397805 1.5 0 1.5 
z
" id="me51808f36c" style="stroke:#f5deb3;"/>
    </defs>
    <g>
     <use style="fill:#f5deb3;stroke:#f5deb3;" x="372.197192" xlink:href="#me51808f36c" y="19.101727"/>
     <use style="fill:#f5deb3;stroke:#f5deb3;" x="372.197192" xlink:href="#me51808f36c" y="19.101727"/>
    </g>
   </g>
   <g id="line2d_22">
    <defs>
     <path d="M 0 1.5 
C 0.397805 1.5 0.77937 1.341951 1.06066 1.06066 
C 1.341951 0.77937 1.5 0.397805 1.5 0 
C 1.5 -0.397805 1.341951 -0.77937 1.06066 -1.06066 
C 0.77937 -1.341951 0.397805 -1.5 0 -1.5 
C -0.397805 -1.5 -0.77937 -1.341951 -1.06066 -1.06066 
C -1.341951 -0.77937 -1.5 -0.397805 -1.5 0 
C -1.5 0.397805 -1.341951 0.77937 -1.06066 1.06066 
C -0.77937 1.341951 -0.397805 1.5 0 1.5 
z
" id="m21d16c0b71" style="stroke:#000080;"/>
    </defs>
    <g>
     <use style="fill:#000080;stroke:#000080;" x="404.472871" xlink:href="#m21d16c0b71" y="176.831008"/>
     <use style="fill:#000080;stroke:#000080;" x="404.472871" xlink:href="#m21d16c0b71" y="176.831008"/>
    </g>
   </g>
   <g id="line2d_23">
    <path d="M -1 288.767917 
L 0.315658 288.767917 
L 0.315658 287.495907 
L 15.383411 287.495907 
L 15.383411 282.407866 
L 28.123014 282.407866 
L 28.123014 281.135855 
L 39.158561 281.135855 
L 39.158561 279.863845 
L 48.892603 279.863845 
L 48.892603 272.231783 
L 65.476799 272.231783 
L 65.476799 269.687762 
L 79.282789 269.687762 
L 79.282789 264.599721 
L 85.407356 264.599721 
L 85.407356 262.0557 
L 106.176945 262.0557 
L 106.176945 260.78369 
L 118.916549 260.78369 
L 118.916549 259.51168 
L 122.761141 259.51168 
L 122.761141 256.967659 
L 126.434805 256.967659 
L 126.434805 255.695649 
L 129.952095 255.695649 
L 129.952095 254.423638 
L 139.686137 254.423638 
L 139.686137 253.151628 
L 142.691699 253.151628 
L 142.691699 251.879618 
L 145.59178 251.879618 
L 145.59178 250.607607 
L 148.393534 250.607607 
L 148.393534 248.063587 
L 153.727245 248.063587 
L 153.727245 246.791576 
L 156.270333 246.791576 
L 156.270333 245.519566 
L 161.133138 245.519566 
L 161.133138 242.975545 
L 165.725644 242.975545 
L 165.725644 240.431525 
L 170.076324 240.431525 
L 170.076324 239.159514 
L 181.902726 239.159514 
L 181.902726 236.615494 
L 187.236437 236.615494 
L 187.236437 235.343483 
L 202.876122 235.343483 
L 202.876122 234.071473 
L 207.043921 234.071473 
L 207.043921 232.799463 
L 209.710083 232.799463 
L 209.710083 231.527452 
L 214.797463 231.527452 
L 214.797463 228.983432 
L 216.021839 228.983432 
L 216.021839 227.711421 
L 219.589753 227.711421 
L 219.589753 226.439411 
L 220.745629 226.439411 
L 220.745629 225.167401 
L 223.009986 225.167401 
L 223.009986 222.62338 
L 228.413468 222.62338 
L 228.413468 221.35137 
L 240.100269 221.35137 
L 240.100269 220.079359 
L 251.926672 220.079359 
L 251.926672 218.807349 
L 260.869858 218.807349 
L 260.869858 217.535339 
L 261.573214 217.535339 
L 261.573214 216.263328 
L 264.328264 216.263328 
L 264.328264 214.991318 
L 265.672095 214.991318 
L 265.672095 212.447297 
L 268.939076 212.447297 
L 268.939076 211.175287 
L 270.839018 211.175287 
L 270.839018 209.903277 
L 280.294328 209.903277 
L 280.294328 208.631266 
L 283.578621 208.631266 
L 283.578621 207.359256 
L 284.113535 207.359256 
L 284.113535 206.087246 
L 287.252285 206.087246 
L 287.252285 204.815235 
L 292.232336 204.815235 
L 292.232336 203.543225 
L 296.471411 203.543225 
L 296.471411 202.271215 
L 297.384612 202.271215 
L 297.384612 200.999204 
L 306.001141 200.999204 
L 306.001141 199.727194 
L 317.800264 199.727194 
L 317.800264 198.455184 
L 318.1542 198.455184 
L 318.1542 197.183173 
L 318.857556 197.183173 
L 318.857556 195.911163 
L 322.622523 195.911163 
L 322.622523 194.639153 
L 328.435813 194.639153 
L 328.435813 193.367142 
L 329.057198 193.367142 
L 329.057198 190.823122 
L 329.366148 190.823122 
L 329.366148 189.551111 
L 333.280795 189.551111 
L 333.280795 188.279101 
L 338.688 188.279101 
" style="fill:none;stroke:#000080;stroke-linecap:square;stroke-width:1.5;"/>
   </g>
   <g id="line2d_24">
    <defs>
     <path d="M 0 6 
C 1.591219 6 3.117479 5.367802 4.242641 4.242641 
C 5.367802 3.117479 6 1.591219 6 0 
C 6 -1.591219 5.367802 -3.117479 4.242641 -4.242641 
C 3.117479 -5.367802 1.591219 -6 0 -6 
C -1.591219 -6 -3.117479 -5.367802 -4.242641 -4.242641 
C -5.367802 -3.117479 -6 -1.591219 -6 0 
C -6 1.591219 -5.367802 3.117479 -4.242641 4.242641 
C -3.117479 5.367802 -1.591219 6 0 6 
z
" id="mcc4d4a6e9e" style="stroke:#000080;stroke-width:1.5;"/>
    </defs>
    <g>
     <use style="fill-opacity:0;stroke:#000080;stroke-width:1.5;" x="106.176945" xlink:href="#mcc4d4a6e9e" y="262.0557"/>
     <use style="fill-opacity:0;stroke:#000080;stroke-width:1.5;" x="161.133138" xlink:href="#mcc4d4a6e9e" y="245.519566"/>
     <use style="fill-opacity:0;stroke:#000080;stroke-width:1.5;" x="223.009986" xlink:href="#mcc4d4a6e9e" y="222.62338"/>
     <use style="fill-opacity:0;stroke:#000080;stroke-width:1.5;" x="287.252285" xlink:href="#mcc4d4a6e9e" y="204.815235"/>
     <use style="fill-opacity:0;stroke:#000080;stroke-width:1.5;" x="333.280795" xlink:href="#mcc4d4a6e9e" y="189.551111"/>
     <use style="fill-opacity:0;stroke:#000080;stroke-width:1.5;" x="333.280795" xlink:href="#mcc4d4a6e9e" y="188.279101"/>
     <use style="fill-opacity:0;stroke:#000080;stroke-width:1.5;" x="338.688" xlink:href="#mcc4d4a6e9e" y="188.279101"/>
    </g>
   </g>
   <g id="line2d_25">
    <path style="fill:none;stroke:#000080;stroke-linecap:square;stroke-width:1.5;"/>
    <g/>
   </g>
   <g id="line2d_26">
    <path clip-path="url(#p02b2228f48)" d="M 338.688 188.279101 
" style="fill:none;stroke:#000080;stroke-linecap:square;stroke-width:1.5;"/>
    <defs>
     <path d="M -12 12 
L 12 -12 
M -12 -12 
L 12 12 
" id="m8e47ec2208" style="stroke:#000080;"/>
    </defs>
    <g clip-path="url(#p02b2228f48)">
     <use style="fill:#000080;stroke:#000080;" x="338.688" xlink:href="#m8e47ec2208" y="188.279101"/>
    </g>
   </g>
   <g id="line2d_27">
    <defs>
     <path d="M 0 1.5 
C 0.397805 1.5 0.77937 1.341951 1.06066 1.06066 
C 1.341951 0.77937 1.5 0.397805 1.5 0 
C 1.5 -0.397805 1.341951 -0.77937 1.06066 -1.06066 
C 0.77937 -1.341951 0.397805 -1.5 0 -1.5 
C -0.397805 -1.5 -0.77937 -1.341951 -1.06066 -1.06066 
C -1.341951 -0.77937 -1.5 -0.397805 -1.5 0 
C -1.5 0.397805 -1.341951 0.77937 -1.06066 1.06066 
C -0.77937 1.341951 -0.397805 1.5 0 1.5 
z
" id="mf062375d27" style="stroke:#ff00ff;"/>
    </defs>
    <g>
     <use style="fill:#ff00ff;stroke:#ff00ff;" x="395.834488" xlink:href="#mf062375d27" y="71.254151"/>
     <use style="fill:#ff00ff;stroke:#ff00ff;" x="395.834488" xlink:href="#mf062375d27" y="71.254151"/>
    </g>
   </g>
   <g id="line2d_28">
    <path d="M -1 284.951886 
L 0.315658 284.951886 
L 0.315658 278.591835 
L 15.383411 278.591835 
L 15.383411 277.319824 
L 28.123014 277.319824 
L 28.123014 274.775804 
L 39.158561 274.775804 
L 39.158561 270.959773 
L 48.892603 270.959773 
L 48.892603 268.415752 
L 57.6 268.415752 
L 57.6 267.143742 
L 72.667753 267.143742 
L 72.667753 262.0557 
L 79.282789 262.0557 
L 79.282789 260.78369 
L 85.407356 260.78369 
L 85.407356 259.51168 
L 91.109192 259.51168 
L 91.109192 258.239669 
L 101.453154 258.239669 
L 101.453154 255.695649 
L 106.176945 255.695649 
L 106.176945 251.879618 
L 114.884342 251.879618 
L 114.884342 250.607607 
L 122.761141 250.607607 
L 122.761141 249.335597 
L 129.952095 249.335597 
L 129.952095 245.519566 
L 136.567132 245.519566 
L 136.567132 244.247556 
L 139.686137 244.247556 
L 139.686137 242.975545 
L 142.691699 242.975545 
L 142.691699 241.703535 
L 148.393534 241.703535 
L 148.393534 240.431525 
L 163.461287 240.431525 
L 163.461287 239.159514 
L 172.168684 239.159514 
L 172.168684 237.887504 
L 174.209377 237.887504 
L 174.209377 236.615494 
L 176.200891 236.615494 
L 176.200891 234.071473 
L 180.045483 234.071473 
L 180.045483 231.527452 
L 181.902726 231.527452 
L 181.902726 230.255442 
L 183.719147 230.255442 
L 183.719147 228.983432 
L 188.940494 228.983432 
L 188.940494 227.711421 
L 198.486922 227.711421 
L 198.486922 226.439411 
L 207.043921 226.439411 
L 207.043921 225.167401 
L 211.011587 225.167401 
L 211.011587 223.89539 
L 213.554675 223.89539 
L 213.554675 222.62338 
L 217.22834 222.62338 
L 217.22834 220.079359 
L 224.119316 220.079359 
L 224.119316 218.807349 
L 225.213952 218.807349 
L 225.213952 209.903277 
L 226.294279 209.903277 
L 226.294279 206.087246 
L 227.360666 206.087246 
L 227.360666 204.815235 
L 228.413468 204.815235 
L 228.413468 202.271215 
L 229.453027 202.271215 
L 229.453027 199.727194 
L 231.493719 199.727194 
L 231.493719 193.367142 
L 232.495475 193.367142 
L 232.495475 189.551111 
L 235.429884 189.551111 
L 235.429884 188.279101 
L 236.385314 188.279101 
L 236.385314 185.73508 
L 238.263664 185.73508 
L 238.263664 184.46307 
L 241.00349 184.46307 
L 241.00349 181.91905 
L 241.896945 181.91905 
L 241.896945 180.647039 
L 242.780845 180.647039 
L 242.780845 179.375029 
L 244.52078 179.375029 
L 244.52078 176.831008 
L 245.3772 176.831008 
L 245.3772 175.558998 
L 246.224837 175.558998 
L 246.224837 174.286988 
L 247.063867 174.286988 
L 247.063867 173.014977 
L 248.716799 173.014977 
L 248.716799 171.742967 
L 249.531031 171.742967 
L 249.531031 170.470957 
L 251.926672 170.470957 
L 251.926672 169.198946 
L 252.710032 169.198946 
L 252.710032 166.654926 
L 253.486036 166.654926 
L 253.486036 162.838895 
L 254.254821 162.838895 
L 254.254821 161.566884 
L 255.016521 161.566884 
L 255.016521 159.022864 
L 255.771265 159.022864 
L 255.771265 157.750853 
L 257.260383 157.750853 
L 257.260383 155.206833 
L 260.160464 155.206833 
L 260.160464 152.662812 
L 260.869858 152.662812 
L 260.869858 151.390802 
L 263.648064 151.390802 
L 263.648064 150.118791 
L 265.002911 150.118791 
L 265.002911 148.846781 
L 266.994425 148.846781 
L 266.994425 147.574771 
L 268.29593 147.574771 
L 268.29593 146.30276 
L 268.939076 146.30276 
L 268.939076 145.03075 
L 270.839018 145.03075 
L 270.839018 143.75874 
L 274.512682 143.75874 
L 274.512682 142.486729 
L 279.169905 142.486729 
L 279.169905 141.214719 
L 279.734029 141.214719 
L 279.734029 139.942709 
L 280.850854 139.942709 
L 280.850854 138.670698 
L 281.952788 138.670698 
L 281.952788 137.398688 
L 284.645008 137.398688 
L 284.645008 136.126678 
L 285.173085 136.126678 
L 285.173085 134.854667 
L 286.737369 134.854667 
L 286.737369 133.582657 
L 287.252285 133.582657 
L 287.252285 132.310647 
L 287.764013 132.310647 
L 287.764013 131.038636 
L 288.778061 131.038636 
L 288.778061 127.222605 
L 292.232336 127.222605 
L 292.232336 125.950595 
L 292.714226 125.950595 
L 292.714226 124.678585 
L 293.669656 124.678585 
L 293.669656 123.406574 
L 294.614168 123.406574 
L 294.614168 122.134564 
L 295.548006 122.134564 
L 295.548006 120.862554 
L 296.471411 120.862554 
L 296.471411 119.590543 
L 297.384612 119.590543 
L 297.384612 118.318533 
L 299.181287 118.318533 
L 299.181287 117.046523 
L 300.503617 117.046523 
L 300.503617 115.774512 
L 301.37356 115.774512 
L 301.37356 114.502502 
L 301.805122 114.502502 
L 301.805122 113.230492 
L 302.234441 113.230492 
L 302.234441 111.958481 
L 306.001141 111.958481 
L 306.001141 110.686471 
L 306.40926 110.686471 
L 306.40926 109.414461 
L 307.2195 109.414461 
L 307.2195 106.87044 
L 308.816532 106.87044 
L 308.816532 105.59843 
L 311.539164 105.59843 
L 311.539164 103.054409 
L 313.055607 103.054409 
L 313.055607 101.782399 
L 315.279342 101.782399 
L 315.279342 100.510388 
L 318.1542 100.510388 
L 318.1542 99.238378 
L 323.289009 99.238378 
L 323.289009 97.966368 
L 328.12336 97.966368 
L 328.12336 96.694357 
L 329.366148 96.694357 
L 329.366148 95.422347 
L 330.286126 95.422347 
L 330.286126 94.150337 
L 333.866924 94.150337 
L 333.866924 92.878326 
L 337.298995 92.878326 
L 337.298995 91.606316 
L 338.41206 91.606316 
L 338.41206 90.334306 
L 338.688 90.334306 
L 338.688 90.334306 
" style="fill:none;stroke:#ff00ff;stroke-linecap:square;stroke-width:1.5;"/>
   </g>
   <g id="line2d_29">
    <defs>
     <path d="M -0 8.485281 
L 5.091169 0 
L 0 -8.485281 
L -5.091169 -0 
z
" id="m3db0586c89" style="stroke:#ff00ff;stroke-linejoin:miter;stroke-width:1.5;"/>
    </defs>
    <g>
     <use style="fill-opacity:0;stroke:#ff00ff;stroke-linejoin:miter;stroke-width:1.5;" x="85.407356" xlink:href="#m3db0586c89" y="260.78369"/>
     <use style="fill-opacity:0;stroke:#ff00ff;stroke-linejoin:miter;stroke-width:1.5;" x="136.567132" xlink:href="#m3db0586c89" y="245.519566"/>
     <use style="fill-opacity:0;stroke:#ff00ff;stroke-linejoin:miter;stroke-width:1.5;" x="198.486922" xlink:href="#m3db0586c89" y="226.439411"/>
     <use style="fill-opacity:0;stroke:#ff00ff;stroke-linejoin:miter;stroke-width:1.5;" x="242.780845" xlink:href="#m3db0586c89" y="179.375029"/>
     <use style="fill-opacity:0;stroke:#ff00ff;stroke-linejoin:miter;stroke-width:1.5;" x="301.805122" xlink:href="#m3db0586c89" y="114.502502"/>
     <use style="fill-opacity:0;stroke:#ff00ff;stroke-linejoin:miter;stroke-width:1.5;" x="338.41206" xlink:href="#m3db0586c89" y="90.334306"/>
     <use style="fill-opacity:0;stroke:#ff00ff;stroke-linejoin:miter;stroke-width:1.5;" x="338.41206" xlink:href="#m3db0586c89" y="90.334306"/>
     <use style="fill-opacity:0;stroke:#ff00ff;stroke-linejoin:miter;stroke-width:1.5;" x="338.688" xlink:href="#m3db0586c89" y="90.334306"/>
    </g>
   </g>
   <g id="line2d_30">
    <path style="fill:none;stroke:#ff00ff;stroke-linecap:square;stroke-width:1.5;"/>
    <g/>
   </g>
   <g id="line2d_31">
    <path clip-path="url(#p02b2228f48)" d="M 338.688 90.334306 
" style="fill:none;stroke:#ff00ff;stroke-linecap:square;stroke-width:1.5;"/>
    <defs>
     <path d="M -12 12 
L 12 -12 
M -12 -12 
L 12 12 
" id="mdda992745a" style="stroke:#ff00ff;"/>
    </defs>
    <g clip-path="url(#p02b2228f48)">
     <use style="fill:#ff00ff;stroke:#ff00ff;" x="338.688" xlink:href="#mdda992745a" y="90.334306"/>
    </g>
   </g>
   <g id="line2d_32">
    <defs>
     <path d="M 0 1.5 
C 0.397805 1.5 0.77937 1.341951 1.06066 1.06066 
C 1.341951 0.77937 1.5 0.397805 1.5 0 
C 1.5 -0.397805 1.341951 -0.77937 1.06066 -1.06066 
C 0.77937 -1.341951 0.397805 -1.5 0 -1.5 
C -0.397805 -1.5 -0.77937 -1.341951 -1.06066 -1.06066 
C -1.341951 -0.77937 -1.5 -0.397805 -1.5 0 
C -1.5 0.397805 -1.341951 0.77937 -1.06066 1.06066 
C -0.77937 1.341951 -0.397805 1.5 0 1.5 
z
" id="mfd41d0c9d7" style="stroke:#ff7500;"/>
    </defs>
    <g>
     <use style="fill:#ff7500;stroke:#ff7500;" x="405.46115" xlink:href="#mfd41d0c9d7" y="53.446006"/>
     <use style="fill:#ff7500;stroke:#ff7500;" x="405.46115" xlink:href="#mfd41d0c9d7" y="53.446006"/>
    </g>
   </g>
   <g id="line2d_33">
    <path d="M -1 284.951886 
L 0.315658 284.951886 
L 0.315658 282.407866 
L 15.383411 282.407866 
L 15.383411 273.503793 
L 28.123014 273.503793 
L 28.123014 268.415752 
L 39.158561 268.415752 
L 39.158561 265.871731 
L 65.476799 265.871731 
L 65.476799 260.78369 
L 72.667753 260.78369 
L 72.667753 259.51168 
L 79.282789 259.51168 
L 79.282789 258.239669 
L 85.407356 258.239669 
L 85.407356 251.879618 
L 91.109192 251.879618 
L 91.109192 250.607607 
L 96.442903 250.607607 
L 96.442903 249.335597 
L 101.453154 249.335597 
L 101.453154 244.247556 
L 106.176945 244.247556 
L 106.176945 237.887504 
L 110.645268 237.887504 
L 110.645268 236.615494 
L 118.916549 236.615494 
L 118.916549 234.071473 
L 122.761141 234.071473 
L 122.761141 231.527452 
L 126.434805 231.527452 
L 126.434805 230.255442 
L 133.325781 230.255442 
L 133.325781 228.983432 
L 136.567132 228.983432 
L 136.567132 226.439411 
L 139.686137 226.439411 
L 139.686137 225.167401 
L 142.691699 225.167401 
L 142.691699 222.62338 
L 145.59178 222.62338 
L 145.59178 220.079359 
L 148.393534 220.079359 
L 148.393534 214.991318 
L 151.103411 214.991318 
L 151.103411 213.719308 
L 153.727245 213.719308 
L 153.727245 212.447297 
L 156.270333 212.447297 
L 156.270333 209.903277 
L 158.737497 209.903277 
L 158.737497 207.359256 
L 161.133138 207.359256 
L 161.133138 203.543225 
L 163.461287 203.543225 
L 163.461287 200.999204 
L 165.725644 200.999204 
L 165.725644 198.455184 
L 167.92961 198.455184 
L 167.92961 193.367142 
L 172.168684 193.367142 
L 172.168684 188.279101 
L 174.209377 188.279101 
L 174.209377 187.007091 
L 176.200891 187.007091 
L 176.200891 185.73508 
L 178.145541 185.73508 
L 178.145541 183.19106 
L 180.045483 183.19106 
L 180.045483 180.647039 
L 181.902726 180.647039 
L 181.902726 178.103019 
L 183.719147 178.103019 
L 183.719147 175.558998 
L 188.940494 175.558998 
L 188.940494 173.014977 
L 195.42569 173.014977 
L 195.42569 171.742967 
L 198.486922 171.742967 
L 198.486922 167.926936 
L 199.976041 167.926936 
L 199.976041 166.654926 
L 204.288872 166.654926 
L 204.288872 165.382915 
L 208.387753 165.382915 
L 208.387753 162.838895 
L 209.710083 162.838895 
L 209.710083 161.566884 
L 212.292913 161.566884 
L 212.292913 159.022864 
L 214.797463 159.022864 
L 214.797463 157.750853 
L 218.41748 157.750853 
L 218.41748 156.478843 
L 219.589753 156.478843 
L 219.589753 155.206833 
L 226.294279 155.206833 
L 226.294279 152.662812 
L 228.413468 152.662812 
L 228.413468 151.390802 
L 229.453027 151.390802 
L 229.453027 150.118791 
L 236.385314 150.118791 
L 236.385314 148.846781 
L 239.187069 148.846781 
L 239.187069 147.574771 
L 244.52078 147.574771 
L 244.52078 145.03075 
L 247.063867 145.03075 
L 247.063867 143.75874 
L 247.894466 143.75874 
L 247.894466 141.214719 
L 248.716799 141.214719 
L 248.716799 138.670698 
L 254.254821 138.670698 
L 254.254821 137.398688 
L 259.444929 137.398688 
L 259.444929 136.126678 
L 260.160464 136.126678 
L 260.160464 134.854667 
L 260.869858 134.854667 
L 260.869858 133.582657 
L 261.573214 133.582657 
L 261.573214 132.310647 
L 266.994425 132.310647 
L 266.994425 131.038636 
L 268.939076 131.038636 
L 268.939076 129.766626 
L 270.839018 129.766626 
L 270.839018 128.494616 
L 271.462748 128.494616 
L 271.462748 127.222605 
L 272.081805 127.222605 
L 272.081805 123.406574 
L 272.696261 123.406574 
L 272.696261 122.134564 
L 273.306181 122.134564 
L 273.306181 120.862554 
L 276.290037 120.862554 
L 276.290037 118.318533 
L 277.454054 118.318533 
L 277.454054 117.046523 
L 278.029972 117.046523 
L 278.029972 115.774512 
L 281.952788 115.774512 
L 281.952788 113.230492 
L 283.578621 113.230492 
L 283.578621 111.958481 
L 284.645008 111.958481 
L 284.645008 110.686471 
L 287.764013 110.686471 
L 287.764013 108.14245 
L 288.778061 108.14245 
L 288.778061 106.87044 
L 293.193322 106.87044 
L 293.193322 105.59843 
L 299.624419 105.59843 
L 299.624419 104.326419 
L 300.503617 104.326419 
L 300.503617 103.054409 
L 302.234441 103.054409 
L 302.234441 99.238378 
L 302.661542 99.238378 
L 302.661542 97.966368 
L 303.509179 97.966368 
L 303.509179 95.422347 
L 309.603622 95.422347 
L 309.603622 94.150337 
L 312.300863 94.150337 
L 312.300863 92.878326 
L 313.430409 92.878326 
L 313.430409 91.606316 
L 314.544725 91.606316 
L 314.544725 90.334306 
L 316.007486 90.334306 
L 316.007486 89.062295 
L 317.800264 89.062295 
L 317.800264 87.790285 
L 318.506626 87.790285 
L 318.506626 86.518275 
L 320.246561 86.518275 
L 320.246561 85.246264 
L 320.590195 85.246264 
L 320.590195 83.974254 
L 321.950618 83.974254 
L 321.950618 82.702244 
L 324.60607 82.702244 
L 324.60607 81.430233 
L 327.178848 81.430233 
L 327.178848 80.158223 
L 327.809721 80.158223 
L 327.809721 78.886213 
L 328.12336 78.886213 
L 328.12336 76.342192 
L 331.797024 76.342192 
L 331.797024 75.070182 
L 336.454247 75.070182 
L 336.454247 73.798171 
L 338.688 73.798171 
L 338.688 73.798171 
" style="fill:none;stroke:#ff7500;stroke-linecap:square;stroke-width:1.5;"/>
   </g>
   <g id="line2d_34">
    <defs>
     <path d="M 0 -6 
L -1.347084 -1.854102 
L -5.706339 -1.854102 
L -2.179628 0.708204 
L -3.526712 4.854102 
L -0 2.291796 
L 3.526712 4.854102 
L 2.179628 0.708204 
L 5.706339 -1.854102 
L 1.347084 -1.854102 
z
" id="m0895dffd10" style="stroke:#ff7500;stroke-linejoin:bevel;stroke-width:1.5;"/>
    </defs>
    <g>
     <use style="fill-opacity:0;stroke:#ff7500;stroke-linejoin:bevel;stroke-width:1.5;" x="72.667753" xlink:href="#m0895dffd10" y="259.51168"/>
     <use style="fill-opacity:0;stroke:#ff7500;stroke-linejoin:bevel;stroke-width:1.5;" x="145.59178" xlink:href="#m0895dffd10" y="220.079359"/>
     <use style="fill-opacity:0;stroke:#ff7500;stroke-linejoin:bevel;stroke-width:1.5;" x="188.940494" xlink:href="#m0895dffd10" y="175.558998"/>
     <use style="fill-opacity:0;stroke:#ff7500;stroke-linejoin:bevel;stroke-width:1.5;" x="236.385314" xlink:href="#m0895dffd10" y="148.846781"/>
     <use style="fill-opacity:0;stroke:#ff7500;stroke-linejoin:bevel;stroke-width:1.5;" x="293.193322" xlink:href="#m0895dffd10" y="105.59843"/>
     <use style="fill-opacity:0;stroke:#ff7500;stroke-linejoin:bevel;stroke-width:1.5;" x="336.454247" xlink:href="#m0895dffd10" y="73.798171"/>
     <use style="fill-opacity:0;stroke:#ff7500;stroke-linejoin:bevel;stroke-width:1.5;" x="336.454247" xlink:href="#m0895dffd10" y="73.798171"/>
     <use style="fill-opacity:0;stroke:#ff7500;stroke-linejoin:bevel;stroke-width:1.5;" x="338.688" xlink:href="#m0895dffd10" y="73.798171"/>
    </g>
   </g>
   <g id="line2d_35">
    <path style="fill:none;stroke:#ff7500;stroke-linecap:square;stroke-width:1.5;"/>
    <g/>
   </g>
   <g id="line2d_36">
    <path clip-path="url(#p02b2228f48)" d="M 338.688 73.798171 
" style="fill:none;stroke:#ff7500;stroke-linecap:square;stroke-width:1.5;"/>
    <defs>
     <path d="M -12 12 
L 12 -12 
M -12 -12 
L 12 12 
" id="m9a20271fcf" style="stroke:#ff7500;"/>
    </defs>
    <g clip-path="url(#p02b2228f48)">
     <use style="fill:#ff7500;stroke:#ff7500;" x="338.688" xlink:href="#m9a20271fcf" y="73.798171"/>
    </g>
   </g>
   <g id="line2d_37">
    <defs>
     <path d="M 0 1.5 
C 0.397805 1.5 0.77937 1.341951 1.06066 1.06066 
C 1.341951 0.77937 1.5 0.397805 1.5 0 
C 1.5 -0.397805 1.341951 -0.77937 1.06066 -1.06066 
C 0.77937 -1.341951 0.397805 -1.5 0 -1.5 
C -0.397805 -1.5 -0.77937 -1.341951 -1.06066 -1.06066 
C -1.341951 -0.77937 -1.5 -0.397805 -1.5 0 
C -1.5 0.397805 -1.341951 0.77937 -1.06066 1.06066 
C -0.77937 1.341951 -0.397805 1.5 0 1.5 
z
" id="m071b21a276" style="stroke:#6495ed;"/>
    </defs>
    <g>
     <use style="fill:#6495ed;stroke:#6495ed;" x="397.473758" xlink:href="#m071b21a276" y="58.534047"/>
     <use style="fill:#6495ed;stroke:#6495ed;" x="397.473758" xlink:href="#m071b21a276" y="58.534047"/>
    </g>
   </g>
   <g id="line2d_38">
    <path d="M -1 284.951886 
L 0.315658 284.951886 
L 0.315658 283.679876 
L 15.383411 283.679876 
L 15.383411 281.135855 
L 28.123014 281.135855 
L 28.123014 279.863845 
L 39.158561 279.863845 
L 39.158561 278.591835 
L 65.476799 278.591835 
L 65.476799 276.047814 
L 72.667753 276.047814 
L 72.667753 274.775804 
L 79.282789 274.775804 
L 79.282789 269.687762 
L 85.407356 269.687762 
L 85.407356 267.143742 
L 91.109192 267.143742 
L 91.109192 245.519566 
L 96.442903 245.519566 
L 96.442903 236.615494 
L 101.453154 236.615494 
L 101.453154 231.527452 
L 106.176945 231.527452 
L 106.176945 221.35137 
L 110.645268 221.35137 
L 110.645268 217.535339 
L 114.884342 217.535339 
L 114.884342 211.175287 
L 118.916549 211.175287 
L 118.916549 206.087246 
L 122.761141 206.087246 
L 122.761141 202.271215 
L 126.434805 202.271215 
L 126.434805 200.999204 
L 129.952095 200.999204 
L 129.952095 198.455184 
L 133.325781 198.455184 
L 133.325781 195.911163 
L 136.567132 195.911163 
L 136.567132 193.367142 
L 139.686137 193.367142 
L 139.686137 192.095132 
L 142.691699 192.095132 
L 142.691699 189.551111 
L 145.59178 189.551111 
L 145.59178 184.46307 
L 148.393534 184.46307 
L 148.393534 183.19106 
L 151.103411 183.19106 
L 151.103411 180.647039 
L 153.727245 180.647039 
L 153.727245 179.375029 
L 158.737497 179.375029 
L 158.737497 178.103019 
L 161.133138 178.103019 
L 161.133138 176.831008 
L 165.725644 176.831008 
L 165.725644 175.558998 
L 167.92961 175.558998 
L 167.92961 174.286988 
L 174.209377 174.286988 
L 174.209377 171.742967 
L 180.045483 171.742967 
L 180.045483 166.654926 
L 183.719147 166.654926 
L 183.719147 165.382915 
L 185.496503 165.382915 
L 185.496503 164.110905 
L 187.236437 164.110905 
L 187.236437 162.838895 
L 188.940494 162.838895 
L 188.940494 161.566884 
L 196.970479 161.566884 
L 196.970479 160.294874 
L 201.438802 160.294874 
L 201.438802 159.022864 
L 205.677876 159.022864 
L 205.677876 157.750853 
L 208.387753 157.750853 
L 208.387753 155.206833 
L 211.011587 155.206833 
L 211.011587 153.934822 
L 212.292913 153.934822 
L 212.292913 152.662812 
L 213.554675 152.662812 
L 213.554675 151.390802 
L 214.797463 151.390802 
L 214.797463 150.118791 
L 218.41748 150.118791 
L 218.41748 148.846781 
L 223.009986 148.846781 
L 223.009986 146.30276 
L 224.119316 146.30276 
L 224.119316 145.03075 
L 226.294279 145.03075 
L 226.294279 142.486729 
L 229.453027 142.486729 
L 229.453027 141.214719 
L 232.495475 141.214719 
L 232.495475 139.942709 
L 238.263664 139.942709 
L 238.263664 138.670698 
L 239.187069 138.670698 
L 239.187069 137.398688 
L 240.100269 137.398688 
L 240.100269 136.126678 
L 241.00349 136.126678 
L 241.00349 134.854667 
L 242.780845 134.854667 
L 242.780845 133.582657 
L 244.52078 133.582657 
L 244.52078 132.310647 
L 248.716799 132.310647 
L 248.716799 129.766626 
L 249.531031 129.766626 
L 249.531031 128.494616 
L 250.337319 128.494616 
L 250.337319 125.950595 
L 251.135816 125.950595 
L 251.135816 124.678585 
L 252.710032 124.678585 
L 252.710032 123.406574 
L 257.260383 123.406574 
L 257.260383 122.134564 
L 260.160464 122.134564 
L 260.160464 120.862554 
L 268.939076 120.862554 
L 268.939076 119.590543 
L 270.839018 119.590543 
L 270.839018 118.318533 
L 273.306181 118.318533 
L 273.306181 117.046523 
L 274.512682 117.046523 
L 274.512682 115.774512 
L 278.029972 115.774512 
L 278.029972 114.502502 
L 278.601904 114.502502 
L 278.601904 113.230492 
L 279.734029 113.230492 
L 279.734029 111.958481 
L 284.645008 111.958481 
L 284.645008 110.686471 
L 286.219224 110.686471 
L 286.219224 109.414461 
L 287.252285 109.414461 
L 287.252285 108.14245 
L 289.280457 108.14245 
L 289.280457 106.87044 
L 292.714226 106.87044 
L 292.714226 105.59843 
L 299.181287 105.59843 
L 299.181287 104.326419 
L 299.624419 104.326419 
L 299.624419 103.054409 
L 300.939733 103.054409 
L 300.939733 101.782399 
L 301.37356 101.782399 
L 301.37356 100.510388 
L 302.234441 100.510388 
L 302.234441 99.238378 
L 302.661542 99.238378 
L 302.661542 97.966368 
L 305.178808 97.966368 
L 305.178808 96.694357 
L 306.001141 96.694357 
L 306.001141 95.422347 
L 306.40926 95.422347 
L 306.40926 94.150337 
L 310.383287 94.150337 
L 310.383287 91.606316 
L 318.857556 91.606316 
L 318.857556 90.334306 
L 322.287253 90.334306 
L 322.287253 89.062295 
L 326.223418 89.062295 
L 326.223418 87.790285 
L 326.543124 87.790285 
L 326.543124 85.246264 
L 329.366148 85.246264 
L 329.366148 83.974254 
L 329.980603 83.974254 
L 329.980603 82.702244 
L 333.574379 82.702244 
L 333.574379 81.430233 
L 333.866924 81.430233 
L 333.866924 78.886213 
L 336.454247 78.886213 
L 336.454247 77.614202 
L 337.018371 77.614202 
L 337.018371 76.342192 
L 337.298995 76.342192 
L 337.298995 75.070182 
L 337.857402 75.070182 
L 337.857402 73.798171 
L 338.41206 73.798171 
L 338.41206 72.526161 
L 338.688 72.526161 
L 338.688 72.526161 
" style="fill:none;stroke:#6495ed;stroke-linecap:square;stroke-width:1.5;"/>
   </g>
   <g id="line2d_39">
    <defs>
     <path d="M -0 6 
L 6 -6 
L -6 -6 
z
" id="m90059b1201" style="stroke:#6495ed;stroke-linejoin:miter;stroke-width:1.5;"/>
    </defs>
    <g>
     <use style="fill-opacity:0;stroke:#6495ed;stroke-linejoin:miter;stroke-width:1.5;" x="85.407356" xlink:href="#m90059b1201" y="267.143742"/>
     <use style="fill-opacity:0;stroke:#6495ed;stroke-linejoin:miter;stroke-width:1.5;" x="133.325781" xlink:href="#m90059b1201" y="195.911163"/>
     <use style="fill-opacity:0;stroke:#6495ed;stroke-linejoin:miter;stroke-width:1.5;" x="188.940494" xlink:href="#m90059b1201" y="161.566884"/>
     <use style="fill-opacity:0;stroke:#6495ed;stroke-linejoin:miter;stroke-width:1.5;" x="252.710032" xlink:href="#m90059b1201" y="123.406574"/>
     <use style="fill-opacity:0;stroke:#6495ed;stroke-linejoin:miter;stroke-width:1.5;" x="300.939733" xlink:href="#m90059b1201" y="101.782399"/>
     <use style="fill-opacity:0;stroke:#6495ed;stroke-linejoin:miter;stroke-width:1.5;" x="338.41206" xlink:href="#m90059b1201" y="72.526161"/>
     <use style="fill-opacity:0;stroke:#6495ed;stroke-linejoin:miter;stroke-width:1.5;" x="338.41206" xlink:href="#m90059b1201" y="72.526161"/>
     <use style="fill-opacity:0;stroke:#6495ed;stroke-linejoin:miter;stroke-width:1.5;" x="338.688" xlink:href="#m90059b1201" y="72.526161"/>
    </g>
   </g>
   <g id="line2d_40">
    <path style="fill:none;stroke:#6495ed;stroke-linecap:square;stroke-width:1.5;"/>
    <g/>
   </g>
   <g id="line2d_41">
    <path clip-path="url(#p02b2228f48)" d="M 338.688 72.526161 
" style="fill:none;stroke:#6495ed;stroke-linecap:square;stroke-width:1.5;"/>
    <defs>
     <path d="M -12 12 
L 12 -12 
M -12 -12 
L 12 12 
" id="m5c4be62229" style="stroke:#6495ed;"/>
    </defs>
    <g clip-path="url(#p02b2228f48)">
     <use style="fill:#6495ed;stroke:#6495ed;" x="338.688" xlink:href="#m5c4be62229" y="72.526161"/>
    </g>
   </g>
   <g id="line2d_42">
    <defs>
     <path d="M 0 1.5 
C 0.397805 1.5 0.77937 1.341951 1.06066 1.06066 
C 1.341951 0.77937 1.5 0.397805 1.5 0 
C 1.5 -0.397805 1.341951 -0.77937 1.06066 -1.06066 
C 0.77937 -1.341951 0.397805 -1.5 0 -1.5 
C -0.397805 -1.5 -0.77937 -1.341951 -1.06066 -1.06066 
C -1.341951 -0.77937 -1.5 -0.397805 -1.5 0 
C -1.5 0.397805 -1.341951 0.77937 -1.06066 1.06066 
C -0.77937 1.341951 -0.397805 1.5 0 1.5 
z
" id="m030fb5c918" style="stroke:#ff0000;"/>
    </defs>
    <g>
     <use style="fill:#ff0000;stroke:#ff0000;" x="395.558087" xlink:href="#m030fb5c918" y="47.085954"/>
     <use style="fill:#ff0000;stroke:#ff0000;" x="395.558087" xlink:href="#m030fb5c918" y="47.085954"/>
    </g>
   </g>
   <g id="line2d_43">
    <path d="M -1 277.319824 
L 0.315658 277.319824 
L 0.315658 273.503793 
L 15.383411 273.503793 
L 15.383411 272.231783 
L 28.123014 272.231783 
L 28.123014 269.687762 
L 39.158561 269.687762 
L 39.158561 264.599721 
L 57.6 264.599721 
L 57.6 263.327711 
L 72.667753 263.327711 
L 72.667753 260.78369 
L 79.282789 260.78369 
L 79.282789 256.967659 
L 85.407356 256.967659 
L 85.407356 255.695649 
L 91.109192 255.695649 
L 91.109192 254.423638 
L 101.453154 254.423638 
L 101.453154 253.151628 
L 106.176945 253.151628 
L 106.176945 250.607607 
L 110.645268 250.607607 
L 110.645268 249.335597 
L 114.884342 249.335597 
L 114.884342 248.063587 
L 129.952095 248.063587 
L 129.952095 245.519566 
L 136.567132 245.519566 
L 136.567132 244.247556 
L 139.686137 244.247556 
L 139.686137 242.975545 
L 142.691699 242.975545 
L 142.691699 241.703535 
L 145.59178 241.703535 
L 145.59178 240.431525 
L 148.393534 240.431525 
L 148.393534 239.159514 
L 163.461287 239.159514 
L 163.461287 237.887504 
L 165.725644 237.887504 
L 165.725644 236.615494 
L 172.168684 236.615494 
L 172.168684 235.343483 
L 174.209377 235.343483 
L 174.209377 234.071473 
L 176.200891 234.071473 
L 176.200891 231.527452 
L 180.045483 231.527452 
L 180.045483 230.255442 
L 183.719147 230.255442 
L 183.719147 228.983432 
L 188.940494 228.983432 
L 188.940494 227.711421 
L 198.486922 227.711421 
L 198.486922 226.439411 
L 207.043921 226.439411 
L 207.043921 225.167401 
L 213.554675 225.167401 
L 213.554675 223.89539 
L 217.22834 223.89539 
L 217.22834 222.62338 
L 224.119316 222.62338 
L 224.119316 221.35137 
L 225.213952 221.35137 
L 225.213952 198.455184 
L 226.294279 198.455184 
L 226.294279 192.095132 
L 227.360666 192.095132 
L 227.360666 188.279101 
L 229.453027 188.279101 
L 229.453027 184.46307 
L 230.479671 184.46307 
L 230.479671 181.91905 
L 231.493719 181.91905 
L 231.493719 179.375029 
L 233.485233 179.375029 
L 233.485233 178.103019 
L 234.463278 178.103019 
L 234.463278 173.014977 
L 236.385314 173.014977 
L 236.385314 171.742967 
L 238.263664 171.742967 
L 238.263664 169.198946 
L 241.896945 169.198946 
L 241.896945 167.926936 
L 242.780845 167.926936 
L 242.780845 166.654926 
L 244.52078 166.654926 
L 244.52078 164.110905 
L 247.894466 164.110905 
L 247.894466 162.838895 
L 248.716799 162.838895 
L 248.716799 161.566884 
L 250.337319 161.566884 
L 250.337319 160.294874 
L 251.135816 160.294874 
L 251.135816 157.750853 
L 251.926672 157.750853 
L 251.926672 155.206833 
L 252.710032 155.206833 
L 252.710032 153.934822 
L 256.519178 153.934822 
L 256.519178 152.662812 
L 257.260383 152.662812 
L 257.260383 150.118791 
L 258.723144 150.118791 
L 258.723144 148.846781 
L 259.444929 148.846781 
L 259.444929 147.574771 
L 260.160464 147.574771 
L 260.160464 146.30276 
L 260.869858 146.30276 
L 260.869858 143.75874 
L 262.962219 143.75874 
L 262.962219 142.486729 
L 263.648064 142.486729 
L 263.648064 138.670698 
L 264.328264 138.670698 
L 264.328264 137.398688 
L 267.647739 137.398688 
L 267.647739 134.854667 
L 268.29593 134.854667 
L 268.29593 133.582657 
L 268.939076 133.582657 
L 268.939076 132.310647 
L 273.911633 132.310647 
L 273.911633 129.766626 
L 274.512682 129.766626 
L 274.512682 127.222605 
L 276.290037 127.222605 
L 276.290037 125.950595 
L 278.029972 125.950595 
L 278.029972 123.406574 
L 279.169905 123.406574 
L 279.169905 122.134564 
L 280.294328 122.134564 
L 280.294328 120.862554 
L 280.850854 120.862554 
L 280.850854 119.590543 
L 281.403658 119.590543 
L 281.403658 118.318533 
L 282.498294 118.318533 
L 282.498294 117.046523 
L 283.578621 117.046523 
L 283.578621 114.502502 
L 287.252285 114.502502 
L 287.252285 113.230492 
L 292.232336 113.230492 
L 292.232336 111.958481 
L 293.193322 111.958481 
L 293.193322 110.686471 
L 293.669656 110.686471 
L 293.669656 109.414461 
L 294.614168 109.414461 
L 294.614168 108.14245 
L 296.010998 108.14245 
L 296.010998 106.87044 
L 298.287832 106.87044 
L 298.287832 105.59843 
L 299.181287 105.59843 
L 299.181287 104.326419 
L 301.37356 104.326419 
L 301.37356 103.054409 
L 303.086447 103.054409 
L 303.086447 101.782399 
L 303.509179 101.782399 
L 303.509179 99.238378 
L 303.929759 99.238378 
L 303.929759 96.694357 
L 304.34821 96.694357 
L 304.34821 94.150337 
L 306.001141 94.150337 
L 306.001141 92.878326 
L 312.679097 92.878326 
L 312.679097 91.606316 
L 313.80352 91.606316 
L 313.80352 90.334306 
L 315.279342 90.334306 
L 315.279342 89.062295 
L 316.729271 89.062295 
L 316.729271 87.790285 
L 317.800264 87.790285 
L 317.800264 86.518275 
L 321.273206 86.518275 
L 321.273206 85.246264 
L 325.90247 85.246264 
L 325.90247 82.702244 
L 327.809721 82.702244 
L 327.809721 81.430233 
L 331.497046 81.430233 
L 331.497046 80.158223 
L 337.57867 80.158223 
L 337.57867 78.886213 
L 337.857402 78.886213 
L 337.857402 77.614202 
L 338.688 77.614202 
L 338.688 77.614202 
" style="fill:none;stroke:#ff0000;stroke-linecap:square;stroke-width:1.5;"/>
   </g>
   <g id="line2d_44">
    <defs>
     <path d="M 0 -6 
L -5.196152 -3 
L -5.196152 3 
L -0 6 
L 5.196152 3 
L 5.196152 -3 
z
" id="m301fea8739" style="stroke:#ff0000;stroke-linejoin:miter;stroke-width:1.5;"/>
    </defs>
    <g>
     <use style="fill-opacity:0;stroke:#ff0000;stroke-linejoin:miter;stroke-width:1.5;" x="136.567132" xlink:href="#m301fea8739" y="245.519566"/>
     <use style="fill-opacity:0;stroke:#ff0000;stroke-linejoin:miter;stroke-width:1.5;" x="198.486922" xlink:href="#m301fea8739" y="227.711421"/>
     <use style="fill-opacity:0;stroke:#ff0000;stroke-linejoin:miter;stroke-width:1.5;" x="227.360666" xlink:href="#m301fea8739" y="188.279101"/>
     <use style="fill-opacity:0;stroke:#ff0000;stroke-linejoin:miter;stroke-width:1.5;" x="268.939076" xlink:href="#m301fea8739" y="132.310647"/>
     <use style="fill-opacity:0;stroke:#ff0000;stroke-linejoin:miter;stroke-width:1.5;" x="317.800264" xlink:href="#m301fea8739" y="86.518275"/>
     <use style="fill-opacity:0;stroke:#ff0000;stroke-linejoin:miter;stroke-width:1.5;" x="337.857402" xlink:href="#m301fea8739" y="77.614202"/>
     <use style="fill-opacity:0;stroke:#ff0000;stroke-linejoin:miter;stroke-width:1.5;" x="338.688" xlink:href="#m301fea8739" y="77.614202"/>
    </g>
   </g>
   <g id="line2d_45">
    <path style="fill:none;stroke:#ff0000;stroke-linecap:square;stroke-width:1.5;"/>
    <g/>
   </g>
   <g id="line2d_46">
    <path clip-path="url(#p02b2228f48)" d="M 338.688 77.614202 
" style="fill:none;stroke:#ff0000;stroke-linecap:square;stroke-width:1.5;"/>
    <defs>
     <path d="M -12 12 
L 12 -12 
M -12 -12 
L 12 12 
" id="m0f544fe125" style="stroke:#ff0000;"/>
    </defs>
    <g clip-path="url(#p02b2228f48)">
     <use style="fill:#ff0000;stroke:#ff0000;" x="338.688" xlink:href="#m0f544fe125" y="77.614202"/>
    </g>
   </g>
   <g id="line2d_47">
    <path d="M 338.688 188.279101 
L 369.60768 293.092752 
" style="fill:none;stroke:#000080;stroke-linecap:square;stroke-width:1.5;"/>
    <g>
     <use style="fill-opacity:0;stroke:#000080;stroke-width:1.5;" x="338.688" xlink:href="#mcc4d4a6e9e" y="188.279101"/>
     <use style="fill-opacity:0;stroke:#000080;stroke-width:1.5;" x="369.60768" xlink:href="#mcc4d4a6e9e" y="293.092752"/>
    </g>
   </g>
   <g id="line2d_48">
    <path d="M 338.688 90.334306 
L 369.60768 236.920776 
" style="fill:none;stroke:#ff00ff;stroke-linecap:square;stroke-width:1.5;"/>
    <g>
     <use style="fill-opacity:0;stroke:#ff00ff;stroke-linejoin:miter;stroke-width:1.5;" x="338.688" xlink:href="#m3db0586c89" y="90.334306"/>
     <use style="fill-opacity:0;stroke:#ff00ff;stroke-linejoin:miter;stroke-width:1.5;" x="369.60768" xlink:href="#m3db0586c89" y="236.920776"/>
    </g>
   </g>
   <g id="line2d_49">
    <path d="M 338.688 77.614202 
L 369.60768 180.7488 
" style="fill:none;stroke:#ff0000;stroke-linecap:square;stroke-width:1.5;"/>
    <g>
     <use style="fill-opacity:0;stroke:#ff0000;stroke-linejoin:miter;stroke-width:1.5;" x="338.688" xlink:href="#m301fea8739" y="77.614202"/>
     <use style="fill-opacity:0;stroke:#ff0000;stroke-linejoin:miter;stroke-width:1.5;" x="369.60768" xlink:href="#m301fea8739" y="180.7488"/>
    </g>
   </g>
   <g id="line2d_50">
    <path d="M 338.688 73.798171 
L 369.60768 124.576824 
" style="fill:none;stroke:#ff7500;stroke-linecap:square;stroke-width:1.5;"/>
    <g>
     <use style="fill-opacity:0;stroke:#ff7500;stroke-linejoin:bevel;stroke-width:1.5;" x="338.688" xlink:href="#m0895dffd10" y="73.798171"/>
     <use style="fill-opacity:0;stroke:#ff7500;stroke-linejoin:bevel;stroke-width:1.5;" x="369.60768" xlink:href="#m0895dffd10" y="124.576824"/>
    </g>
   </g>
   <g id="line2d_51">
    <path d="M 338.688 72.526161 
L 369.60768 68.404848 
" style="fill:none;stroke:#6495ed;stroke-linecap:square;stroke-width:1.5;"/>
    <g>
     <use style="fill-opacity:0;stroke:#6495ed;stroke-linejoin:miter;stroke-width:1.5;" x="338.688" xlink:href="#m90059b1201" y="72.526161"/>
     <use style="fill-opacity:0;stroke:#6495ed;stroke-linejoin:miter;stroke-width:1.5;" x="369.60768" xlink:href="#m90059b1201" y="68.404848"/>
    </g>
   </g>
   <g id="line2d_52">
    <path d="M 338.688 298.944 
L 338.688 6.381624 
" style="fill:none;stroke:#000000;stroke-linecap:square;stroke-width:1.5;"/>
   </g>
   <g id="patch_3">
    <path d="M 57.6 298.944 
L 57.6 3.456 
" style="fill:none;stroke:#000000;stroke-linecap:square;stroke-linejoin:miter;stroke-width:0.8;"/>
   </g>
   <g id="patch_4">
    <path d="M 338.688 298.944 
L 338.688 3.456 
" style="fill:none;stroke:#000000;stroke-linecap:square;stroke-linejoin:miter;stroke-width:0.8;"/>
   </g>
   <g id="patch_5">
    <path d="M 57.6 298.944 
L 338.688 298.944 
" style="fill:none;stroke:#000000;stroke-linecap:square;stroke-linejoin:miter;stroke-width:0.8;"/>
   </g>
   <g id="patch_6">
    <path d="M 57.6 3.456 
L 338.688 3.456 
" style="fill:none;stroke:#000000;stroke-linecap:square;stroke-linejoin:miter;stroke-width:0.8;"/>
   </g>
   <g id="text_10">
    <!-- random -->
    <g transform="translate(375.22944 297.78369)scale(0.17 -0.17)">
     <use xlink:href="#DejaVuSans-114"/>
     <use x="41.113281" xlink:href="#DejaVuSans-97"/>
     <use x="102.392578" xlink:href="#DejaVuSans-110"/>
     <use x="165.771484" xlink:href="#DejaVuSans-100"/>
     <use x="229.248047" xlink:href="#DejaVuSans-111"/>
     <use x="290.429688" xlink:href="#DejaVuSans-109"/>
    </g>
   </g>
   <g id="text_11">
    <!-- M -->
    <g transform="translate(375.22944 241.611714)scale(0.17 -0.17)">
     <defs>
      <path d="M 9.8125 72.90625 
L 24.515625 72.90625 
L 43.109375 23.296875 
L 61.8125 72.90625 
L 76.515625 72.90625 
L 76.515625 0 
L 66.890625 0 
L 66.890625 64.015625 
L 48.09375 14.015625 
L 38.1875 14.015625 
L 19.390625 64.015625 
L 19.390625 0 
L 9.8125 0 
z
" id="DejaVuSans-77"/>
     </defs>
     <use xlink:href="#DejaVuSans-77"/>
    </g>
   </g>
   <g id="text_12">
    <!-- ExpM -->
    <g transform="translate(375.22944 185.439737)scale(0.17 -0.17)">
     <defs>
      <path d="M 9.8125 72.90625 
L 55.90625 72.90625 
L 55.90625 64.59375 
L 19.671875 64.59375 
L 19.671875 43.015625 
L 54.390625 43.015625 
L 54.390625 34.71875 
L 19.671875 34.71875 
L 19.671875 8.296875 
L 56.78125 8.296875 
L 56.78125 0 
L 9.8125 0 
z
" id="DejaVuSans-69"/>
      <path d="M 54.890625 54.6875 
L 35.109375 28.078125 
L 55.90625 0 
L 45.3125 0 
L 29.390625 21.484375 
L 13.484375 0 
L 2.875 0 
L 24.125 28.609375 
L 4.6875 54.6875 
L 15.28125 54.6875 
L 29.78125 35.203125 
L 44.28125 54.6875 
z
" id="DejaVuSans-120"/>
     </defs>
     <use xlink:href="#DejaVuSans-69"/>
     <use x="63.183594" xlink:href="#DejaVuSans-120"/>
     <use x="122.363281" xlink:href="#DejaVuSans-112"/>
     <use x="185.839844" xlink:href="#DejaVuSans-77"/>
    </g>
   </g>
   <g id="text_13">
    <!-- S -->
    <g transform="translate(375.22944 129.267761)scale(0.17 -0.17)">
     <defs>
      <path d="M 53.515625 70.515625 
L 53.515625 60.890625 
Q 47.90625 63.578125 42.921875 64.890625 
Q 37.9375 66.21875 33.296875 66.21875 
Q 25.25 66.21875 20.875 63.09375 
Q 16.5 59.96875 16.5 54.203125 
Q 16.5 49.359375 19.40625 46.890625 
Q 22.3125 44.4375 30.421875 42.921875 
L 36.375 41.703125 
Q 47.40625 39.59375 52.65625 34.296875 
Q 57.90625 29 57.90625 20.125 
Q 57.90625 9.515625 50.796875 4.046875 
Q 43.703125 -1.421875 29.984375 -1.421875 
Q 24.8125 -1.421875 18.96875 -0.25 
Q 13.140625 0.921875 6.890625 3.21875 
L 6.890625 13.375 
Q 12.890625 10.015625 18.65625 8.296875 
Q 24.421875 6.59375 29.984375 6.59375 
Q 38.421875 6.59375 43.015625 9.90625 
Q 47.609375 13.234375 47.609375 19.390625 
Q 47.609375 24.75 44.3125 27.78125 
Q 41.015625 30.8125 33.5 32.328125 
L 27.484375 33.5 
Q 16.453125 35.6875 11.515625 40.375 
Q 6.59375 45.0625 6.59375 53.421875 
Q 6.59375 63.09375 13.40625 68.65625 
Q 20.21875 74.21875 32.171875 74.21875 
Q 37.3125 74.21875 42.625 73.28125 
Q 47.953125 72.359375 53.515625 70.515625 
z
" id="DejaVuSans-83"/>
     </defs>
     <use xlink:href="#DejaVuSans-83"/>
    </g>
   </g>
   <g id="text_14">
    <!-- ExpS -->
    <g transform="translate(375.22944 73.095785)scale(0.17 -0.17)">
     <use xlink:href="#DejaVuSans-69"/>
     <use x="63.183594" xlink:href="#DejaVuSans-120"/>
     <use x="122.363281" xlink:href="#DejaVuSans-112"/>
     <use x="185.839844" xlink:href="#DejaVuSans-83"/>
    </g>
   </g>
   <g id="text_15">
    <!-- best09 -->
    <g transform="translate(375.22944 16.923809)scale(0.17 -0.17)">
     <defs>
      <path d="M 48.6875 27.296875 
Q 48.6875 37.203125 44.609375 42.84375 
Q 40.53125 48.484375 33.40625 48.484375 
Q 26.265625 48.484375 22.1875 42.84375 
Q 18.109375 37.203125 18.109375 27.296875 
Q 18.109375 17.390625 22.1875 11.75 
Q 26.265625 6.109375 33.40625 6.109375 
Q 40.53125 6.109375 44.609375 11.75 
Q 48.6875 17.390625 48.6875 27.296875 
z
M 18.109375 46.390625 
Q 20.953125 51.265625 25.265625 53.625 
Q 29.59375 56 35.59375 56 
Q 45.5625 56 51.78125 48.09375 
Q 58.015625 40.1875 58.015625 27.296875 
Q 58.015625 14.40625 51.78125 6.484375 
Q 45.5625 -1.421875 35.59375 -1.421875 
Q 29.59375 -1.421875 25.265625 0.953125 
Q 20.953125 3.328125 18.109375 8.203125 
L 18.109375 0 
L 9.078125 0 
L 9.078125 75.984375 
L 18.109375 75.984375 
z
" id="DejaVuSans-98"/>
      <path d="M 10.984375 1.515625 
L 10.984375 10.5 
Q 14.703125 8.734375 18.5 7.8125 
Q 22.3125 6.890625 25.984375 6.890625 
Q 35.75 6.890625 40.890625 13.453125 
Q 46.046875 20.015625 46.78125 33.40625 
Q 43.953125 29.203125 39.59375 26.953125 
Q 35.25 24.703125 29.984375 24.703125 
Q 19.046875 24.703125 12.671875 31.3125 
Q 6.296875 37.9375 6.296875 49.421875 
Q 6.296875 60.640625 12.9375 67.421875 
Q 19.578125 74.21875 30.609375 74.21875 
Q 43.265625 74.21875 49.921875 64.515625 
Q 56.59375 54.828125 56.59375 36.375 
Q 56.59375 19.140625 48.40625 8.859375 
Q 40.234375 -1.421875 26.421875 -1.421875 
Q 22.703125 -1.421875 18.890625 -0.6875 
Q 15.09375 0.046875 10.984375 1.515625 
z
M 30.609375 32.421875 
Q 37.25 32.421875 41.125 36.953125 
Q 45.015625 41.5 45.015625 49.421875 
Q 45.015625 57.28125 41.125 61.84375 
Q 37.25 66.40625 30.609375 66.40625 
Q 23.96875 66.40625 20.09375 61.84375 
Q 16.21875 57.28125 16.21875 49.421875 
Q 16.21875 41.5 20.09375 36.953125 
Q 23.96875 32.421875 30.609375 32.421875 
z
" id="DejaVuSans-57"/>
     </defs>
     <use xlink:href="#DejaVuSans-98"/>
     <use x="63.476562" xlink:href="#DejaVuSans-101"/>
     <use x="125" xlink:href="#DejaVuSans-115"/>
     <use x="177.099609" xlink:href="#DejaVuSans-116"/>
     <use x="216.308594" xlink:href="#DejaVuSans-48"/>
     <use x="279.931641" xlink:href="#DejaVuSans-57"/>
    </g>
   </g>
   <g id="text_16">
    <!-- bbob f15-f19, 10-D -->
    <g transform="translate(60.41088 14.161286)scale(0.102 -0.102)">
     <defs>
      <path d="M 10.796875 72.90625 
L 49.515625 72.90625 
L 49.515625 64.59375 
L 19.828125 64.59375 
L 19.828125 46.734375 
Q 21.96875 47.46875 24.109375 47.828125 
Q 26.265625 48.1875 28.421875 48.1875 
Q 40.625 48.1875 47.75 41.5 
Q 54.890625 34.8125 54.890625 23.390625 
Q 54.890625 11.625 47.5625 5.09375 
Q 40.234375 -1.421875 26.90625 -1.421875 
Q 22.3125 -1.421875 17.546875 -0.640625 
Q 12.796875 0.140625 7.71875 1.703125 
L 7.71875 11.625 
Q 12.109375 9.234375 16.796875 8.0625 
Q 21.484375 6.890625 26.703125 6.890625 
Q 35.15625 6.890625 40.078125 11.328125 
Q 45.015625 15.765625 45.015625 23.390625 
Q 45.015625 31 40.078125 35.4375 
Q 35.15625 39.890625 26.703125 39.890625 
Q 22.75 39.890625 18.8125 39.015625 
Q 14.890625 38.140625 10.796875 36.28125 
z
" id="DejaVuSans-53"/>
      <path d="M 19.671875 64.796875 
L 19.671875 8.109375 
L 31.59375 8.109375 
Q 46.6875 8.109375 53.6875 14.9375 
Q 60.6875 21.78125 60.6875 36.53125 
Q 60.6875 51.171875 53.6875 57.984375 
Q 46.6875 64.796875 31.59375 64.796875 
z
M 9.8125 72.90625 
L 30.078125 72.90625 
Q 51.265625 72.90625 61.171875 64.09375 
Q 71.09375 55.28125 71.09375 36.53125 
Q 71.09375 17.671875 61.125 8.828125 
Q 51.171875 0 30.078125 0 
L 9.8125 0 
z
" id="DejaVuSans-68"/>
     </defs>
     <use xlink:href="#DejaVuSans-98"/>
     <use x="63.476562" xlink:href="#DejaVuSans-98"/>
     <use x="126.953125" xlink:href="#DejaVuSans-111"/>
     <use x="188.134766" xlink:href="#DejaVuSans-98"/>
     <use x="251.611328" xlink:href="#DejaVuSans-32"/>
     <use x="283.398438" xlink:href="#DejaVuSans-102"/>
     <use x="318.603516" xlink:href="#DejaVuSans-49"/>
     <use x="382.226562" xlink:href="#DejaVuSans-53"/>
     <use x="445.849609" xlink:href="#DejaVuSans-45"/>
     <use x="481.933594" xlink:href="#DejaVuSans-102"/>
     <use x="517.138672" xlink:href="#DejaVuSans-49"/>
     <use x="580.761719" xlink:href="#DejaVuSans-57"/>
     <use x="644.384766" xlink:href="#DejaVuSans-44"/>
     <use x="676.171875" xlink:href="#DejaVuSans-32"/>
     <use x="707.958984" xlink:href="#DejaVuSans-49"/>
     <use x="771.582031" xlink:href="#DejaVuSans-48"/>
     <use x="835.205078" xlink:href="#DejaVuSans-45"/>
     <use x="871.289062" xlink:href="#DejaVuSans-68"/>
    </g>
    <!-- 8 targets RLs/dim: 0.5..20 -->
    <g transform="translate(60.41088 25.583055)scale(0.102 -0.102)">
     <defs>
      <path d="M 44.390625 34.1875 
Q 47.5625 33.109375 50.5625 29.59375 
Q 53.5625 26.078125 56.59375 19.921875 
L 66.609375 0 
L 56 0 
L 46.6875 18.703125 
Q 43.0625 26.03125 39.671875 28.421875 
Q 36.28125 30.8125 30.421875 30.8125 
L 19.671875 30.8125 
L 19.671875 0 
L 9.8125 0 
L 9.8125 72.90625 
L 32.078125 72.90625 
Q 44.578125 72.90625 50.734375 67.671875 
Q 56.890625 62.453125 56.890625 51.90625 
Q 56.890625 45.015625 53.6875 40.46875 
Q 50.484375 35.9375 44.390625 34.1875 
z
M 19.671875 64.796875 
L 19.671875 38.921875 
L 32.078125 38.921875 
Q 39.203125 38.921875 42.84375 42.21875 
Q 46.484375 45.515625 46.484375 51.90625 
Q 46.484375 58.296875 42.84375 61.546875 
Q 39.203125 64.796875 32.078125 64.796875 
z
" id="DejaVuSans-82"/>
      <path d="M 9.8125 72.90625 
L 19.671875 72.90625 
L 19.671875 8.296875 
L 55.171875 8.296875 
L 55.171875 0 
L 9.8125 0 
z
" id="DejaVuSans-76"/>
      <path d="M 11.71875 12.40625 
L 22.015625 12.40625 
L 22.015625 0 
L 11.71875 0 
z
M 11.71875 51.703125 
L 22.015625 51.703125 
L 22.015625 39.3125 
L 11.71875 39.3125 
z
" id="DejaVuSans-58"/>
     </defs>
     <use xlink:href="#DejaVuSans-56"/>
     <use x="63.623047" xlink:href="#DejaVuSans-32"/>
     <use x="95.410156" xlink:href="#DejaVuSans-116"/>
     <use x="134.619141" xlink:href="#DejaVuSans-97"/>
     <use x="195.898438" xlink:href="#DejaVuSans-114"/>
     <use x="235.261719" xlink:href="#DejaVuSans-103"/>
     <use x="298.738281" xlink:href="#DejaVuSans-101"/>
     <use x="360.261719" xlink:href="#DejaVuSans-116"/>
     <use x="399.470703" xlink:href="#DejaVuSans-115"/>
     <use x="451.570312" xlink:href="#DejaVuSans-32"/>
     <use x="483.357422" xlink:href="#DejaVuSans-82"/>
     <use x="552.839844" xlink:href="#DejaVuSans-76"/>
     <use x="608.552734" xlink:href="#DejaVuSans-115"/>
     <use x="660.652344" xlink:href="#DejaVuSans-47"/>
     <use x="694.34375" xlink:href="#DejaVuSans-100"/>
     <use x="757.820312" xlink:href="#DejaVuSans-105"/>
     <use x="785.603516" xlink:href="#DejaVuSans-109"/>
     <use x="883.015625" xlink:href="#DejaVuSans-58"/>
     <use x="916.707031" xlink:href="#DejaVuSans-32"/>
     <use x="948.494141" xlink:href="#DejaVuSans-48"/>
     <use x="1012.117188" xlink:href="#DejaVuSans-46"/>
     <use x="1043.904297" xlink:href="#DejaVuSans-53"/>
     <use x="1107.527344" xlink:href="#DejaVuSans-46"/>
     <use x="1139.314453" xlink:href="#DejaVuSans-46"/>
     <use x="1171.101562" xlink:href="#DejaVuSans-50"/>
     <use x="1234.724609" xlink:href="#DejaVuSans-48"/>
    </g>
    <!--   from /home/local/EMSE2000/leriche/AESOP/EXPE_DOCOCO/bestCustomAlg -->
    <g transform="translate(60.41088 37.004824)scale(0.102 -0.102)">
     <defs>
      <path d="M 54.890625 33.015625 
L 54.890625 0 
L 45.90625 0 
L 45.90625 32.71875 
Q 45.90625 40.484375 42.875 44.328125 
Q 39.84375 48.1875 33.796875 48.1875 
Q 26.515625 48.1875 22.3125 43.546875 
Q 18.109375 38.921875 18.109375 30.90625 
L 18.109375 0 
L 9.078125 0 
L 9.078125 75.984375 
L 18.109375 75.984375 
L 18.109375 46.1875 
Q 21.34375 51.125 25.703125 53.5625 
Q 30.078125 56 35.796875 56 
Q 45.21875 56 50.046875 50.171875 
Q 54.890625 44.34375 54.890625 33.015625 
z
" id="DejaVuSans-104"/>
      <path d="M 34.1875 63.1875 
L 20.796875 26.90625 
L 47.609375 26.90625 
z
M 28.609375 72.90625 
L 39.796875 72.90625 
L 67.578125 0 
L 57.328125 0 
L 50.6875 18.703125 
L 17.828125 18.703125 
L 11.1875 0 
L 0.78125 0 
z
" id="DejaVuSans-65"/>
      <path d="M 39.40625 66.21875 
Q 28.65625 66.21875 22.328125 58.203125 
Q 16.015625 50.203125 16.015625 36.375 
Q 16.015625 22.609375 22.328125 14.59375 
Q 28.65625 6.59375 39.40625 6.59375 
Q 50.140625 6.59375 56.421875 14.59375 
Q 62.703125 22.609375 62.703125 36.375 
Q 62.703125 50.203125 56.421875 58.203125 
Q 50.140625 66.21875 39.40625 66.21875 
z
M 39.40625 74.21875 
Q 54.734375 74.21875 63.90625 63.9375 
Q 73.09375 53.65625 73.09375 36.375 
Q 73.09375 19.140625 63.90625 8.859375 
Q 54.734375 -1.421875 39.40625 -1.421875 
Q 24.03125 -1.421875 14.8125 8.828125 
Q 5.609375 19.09375 5.609375 36.375 
Q 5.609375 53.65625 14.8125 63.9375 
Q 24.03125 74.21875 39.40625 74.21875 
z
" id="DejaVuSans-79"/>
      <path d="M 19.671875 64.796875 
L 19.671875 37.40625 
L 32.078125 37.40625 
Q 38.96875 37.40625 42.71875 40.96875 
Q 46.484375 44.53125 46.484375 51.125 
Q 46.484375 57.671875 42.71875 61.234375 
Q 38.96875 64.796875 32.078125 64.796875 
z
M 9.8125 72.90625 
L 32.078125 72.90625 
Q 44.34375 72.90625 50.609375 67.359375 
Q 56.890625 61.8125 56.890625 51.125 
Q 56.890625 40.328125 50.609375 34.8125 
Q 44.34375 29.296875 32.078125 29.296875 
L 19.671875 29.296875 
L 19.671875 0 
L 9.8125 0 
z
" id="DejaVuSans-80"/>
      <path d="M 6.296875 72.90625 
L 16.890625 72.90625 
L 35.015625 45.796875 
L 53.21875 72.90625 
L 63.8125 72.90625 
L 40.375 37.890625 
L 65.375 0 
L 54.78125 0 
L 34.28125 31 
L 13.625 0 
L 2.984375 0 
L 29 38.921875 
z
" id="DejaVuSans-88"/>
      <path d="M 50.984375 -16.609375 
L 50.984375 -23.578125 
L -0.984375 -23.578125 
L -0.984375 -16.609375 
z
" id="DejaVuSans-95"/>
      <path d="M 64.40625 67.28125 
L 64.40625 56.890625 
Q 59.421875 61.53125 53.78125 63.8125 
Q 48.140625 66.109375 41.796875 66.109375 
Q 29.296875 66.109375 22.65625 58.46875 
Q 16.015625 50.828125 16.015625 36.375 
Q 16.015625 21.96875 22.65625 14.328125 
Q 29.296875 6.6875 41.796875 6.6875 
Q 48.140625 6.6875 53.78125 8.984375 
Q 59.421875 11.28125 64.40625 15.921875 
L 64.40625 5.609375 
Q 59.234375 2.09375 53.4375 0.328125 
Q 47.65625 -1.421875 41.21875 -1.421875 
Q 24.65625 -1.421875 15.125 8.703125 
Q 5.609375 18.84375 5.609375 36.375 
Q 5.609375 53.953125 15.125 64.078125 
Q 24.65625 74.21875 41.21875 74.21875 
Q 47.75 74.21875 53.53125 72.484375 
Q 59.328125 70.75 64.40625 67.28125 
z
" id="DejaVuSans-67"/>
     </defs>
     <use xlink:href="#DejaVuSans-32"/>
     <use x="31.787109" xlink:href="#DejaVuSans-32"/>
     <use x="63.574219" xlink:href="#DejaVuSans-102"/>
     <use x="98.779297" xlink:href="#DejaVuSans-114"/>
     <use x="137.642578" xlink:href="#DejaVuSans-111"/>
     <use x="198.824219" xlink:href="#DejaVuSans-109"/>
     <use x="296.236328" xlink:href="#DejaVuSans-32"/>
     <use x="328.023438" xlink:href="#DejaVuSans-47"/>
     <use x="361.714844" xlink:href="#DejaVuSans-104"/>
     <use x="425.09375" xlink:href="#DejaVuSans-111"/>
     <use x="486.275391" xlink:href="#DejaVuSans-109"/>
     <use x="583.6875" xlink:href="#DejaVuSans-101"/>
     <use x="645.210938" xlink:href="#DejaVuSans-47"/>
     <use x="678.902344" xlink:href="#DejaVuSans-108"/>
     <use x="706.685547" xlink:href="#DejaVuSans-111"/>
     <use x="767.867188" xlink:href="#DejaVuSans-99"/>
     <use x="822.847656" xlink:href="#DejaVuSans-97"/>
     <use x="884.126953" xlink:href="#DejaVuSans-108"/>
     <use x="911.910156" xlink:href="#DejaVuSans-47"/>
     <use x="945.601562" xlink:href="#DejaVuSans-69"/>
     <use x="1008.785156" xlink:href="#DejaVuSans-77"/>
     <use x="1095.064453" xlink:href="#DejaVuSans-83"/>
     <use x="1158.541016" xlink:href="#DejaVuSans-69"/>
     <use x="1221.724609" xlink:href="#DejaVuSans-50"/>
     <use x="1285.347656" xlink:href="#DejaVuSans-48"/>
     <use x="1348.970703" xlink:href="#DejaVuSans-48"/>
     <use x="1412.59375" xlink:href="#DejaVuSans-48"/>
     <use x="1476.216797" xlink:href="#DejaVuSans-47"/>
     <use x="1509.908203" xlink:href="#DejaVuSans-108"/>
     <use x="1537.691406" xlink:href="#DejaVuSans-101"/>
     <use x="1599.214844" xlink:href="#DejaVuSans-114"/>
     <use x="1640.328125" xlink:href="#DejaVuSans-105"/>
     <use x="1668.111328" xlink:href="#DejaVuSans-99"/>
     <use x="1723.091797" xlink:href="#DejaVuSans-104"/>
     <use x="1786.470703" xlink:href="#DejaVuSans-101"/>
     <use x="1847.994141" xlink:href="#DejaVuSans-47"/>
     <use x="1881.685547" xlink:href="#DejaVuSans-65"/>
     <use x="1950.09375" xlink:href="#DejaVuSans-69"/>
     <use x="2013.277344" xlink:href="#DejaVuSans-83"/>
     <use x="2076.753906" xlink:href="#DejaVuSans-79"/>
     <use x="2155.464844" xlink:href="#DejaVuSans-80"/>
     <use x="2215.767578" xlink:href="#DejaVuSans-47"/>
     <use x="2249.458984" xlink:href="#DejaVuSans-69"/>
     <use x="2312.642578" xlink:href="#DejaVuSans-88"/>
     <use x="2381.148438" xlink:href="#DejaVuSans-80"/>
     <use x="2441.451172" xlink:href="#DejaVuSans-69"/>
     <use x="2504.634766" xlink:href="#DejaVuSans-95"/>
     <use x="2554.634766" xlink:href="#DejaVuSans-68"/>
     <use x="2631.636719" xlink:href="#DejaVuSans-79"/>
     <use x="2710.347656" xlink:href="#DejaVuSans-67"/>
     <use x="2780.171875" xlink:href="#DejaVuSans-79"/>
     <use x="2858.882812" xlink:href="#DejaVuSans-67"/>
     <use x="2928.707031" xlink:href="#DejaVuSans-79"/>
     <use x="3007.417969" xlink:href="#DejaVuSans-47"/>
     <use x="3041.109375" xlink:href="#DejaVuSans-98"/>
     <use x="3104.585938" xlink:href="#DejaVuSans-101"/>
     <use x="3166.109375" xlink:href="#DejaVuSans-115"/>
     <use x="3218.208984" xlink:href="#DejaVuSans-116"/>
     <use x="3257.417969" xlink:href="#DejaVuSans-67"/>
     <use x="3327.242188" xlink:href="#DejaVuSans-117"/>
     <use x="3390.621094" xlink:href="#DejaVuSans-115"/>
     <use x="3442.720703" xlink:href="#DejaVuSans-116"/>
     <use x="3481.929688" xlink:href="#DejaVuSans-111"/>
     <use x="3543.111328" xlink:href="#DejaVuSans-109"/>
     <use x="3640.523438" xlink:href="#DejaVuSans-65"/>
     <use x="3708.931641" xlink:href="#DejaVuSans-108"/>
     <use x="3736.714844" xlink:href="#DejaVuSans-103"/>
    </g>
    <!-- 15 instances -->
    <g transform="translate(60.41088 48.71028)scale(0.102 -0.102)">
     <use xlink:href="#DejaVuSans-49"/>
     <use x="63.623047" xlink:href="#DejaVuSans-53"/>
     <use x="127.246094" xlink:href="#DejaVuSans-32"/>
     <use x="159.033203" xlink:href="#DejaVuSans-105"/>
     <use x="186.816406" xlink:href="#DejaVuSans-110"/>
     <use x="250.195312" xlink:href="#DejaVuSans-115"/>
     <use x="302.294922" xlink:href="#DejaVuSans-116"/>
     <use x="341.503906" xlink:href="#DejaVuSans-97"/>
     <use x="402.783203" xlink:href="#DejaVuSans-110"/>
     <use x="466.162109" xlink:href="#DejaVuSans-99"/>
     <use x="521.142578" xlink:href="#DejaVuSans-101"/>
     <use x="582.666016" xlink:href="#DejaVuSans-115"/>
    </g>
   </g>
   <g id="text_17">
    <!-- v2.3.3.84 -->
    <g style="fill:#808080;" transform="translate(174.511187 293.909432)scale(0.1 -0.1)">
     <defs>
      <path d="M 40.578125 39.3125 
Q 47.65625 37.796875 51.625 33 
Q 55.609375 28.21875 55.609375 21.1875 
Q 55.609375 10.40625 48.1875 4.484375 
Q 40.765625 -1.421875 27.09375 -1.421875 
Q 22.515625 -1.421875 17.65625 -0.515625 
Q 12.796875 0.390625 7.625 2.203125 
L 7.625 11.71875 
Q 11.71875 9.328125 16.59375 8.109375 
Q 21.484375 6.890625 26.8125 6.890625 
Q 36.078125 6.890625 40.9375 10.546875 
Q 45.796875 14.203125 45.796875 21.1875 
Q 45.796875 27.640625 41.28125 31.265625 
Q 36.765625 34.90625 28.71875 34.90625 
L 20.21875 34.90625 
L 20.21875 43.015625 
L 29.109375 43.015625 
Q 36.375 43.015625 40.234375 45.921875 
Q 44.09375 48.828125 44.09375 54.296875 
Q 44.09375 59.90625 40.109375 62.90625 
Q 36.140625 65.921875 28.71875 65.921875 
Q 24.65625 65.921875 20.015625 65.03125 
Q 15.375 64.15625 9.8125 62.3125 
L 9.8125 71.09375 
Q 15.4375 72.65625 20.34375 73.4375 
Q 25.25 74.21875 29.59375 74.21875 
Q 40.828125 74.21875 47.359375 69.109375 
Q 53.90625 64.015625 53.90625 55.328125 
Q 53.90625 49.265625 50.4375 45.09375 
Q 46.96875 40.921875 40.578125 39.3125 
z
" id="DejaVuSans-51"/>
     </defs>
     <use xlink:href="#DejaVuSans-118"/>
     <use x="59.179688" xlink:href="#DejaVuSans-50"/>
     <use x="122.802734" xlink:href="#DejaVuSans-46"/>
     <use x="154.589844" xlink:href="#DejaVuSans-51"/>
     <use x="218.212891" xlink:href="#DejaVuSans-46"/>
     <use x="250" xlink:href="#DejaVuSans-51"/>
     <use x="313.623047" xlink:href="#DejaVuSans-46"/>
     <use x="345.410156" xlink:href="#DejaVuSans-56"/>
     <use x="409.033203" xlink:href="#DejaVuSans-52"/>
    </g>
   </g>
  </g>
 </g>
 <defs>
  <clipPath id="p02b2228f48">
   <rect height="295.488" width="281.088" x="57.6" y="3.456"/>
  </clipPath>
 </defs>
</svg>
